<svg xmlns="http://www.w3.org/2000/svg" viewBox="0 0 512 512" height="682.667" width="682.667" version="1.0"><path d="M10.382 1.458C8.22 3.051 8.22 3.393 9.813 6.124 10.837 7.717 59.542 49.48 117.92 98.98c58.49 49.5 108.675 92.288 111.52 95.019 4.21 4.21 4.893 5.348 3.868 7.055-1.934 3.073-8.648 3.414-65.546 3.528-29.131.114-53.825.455-54.85.797-2.73 1.024-2.161 4.779 1.139 7.851 1.707 1.594 26.059 20.597 54.166 42.219 51.208 39.487 55.305 43.242 50.867 46.087-.91.569-29.7 1.024-64.18 1.138-34.367.114-64.068.455-66.002.91-5.576 1.138-5.12 4.78 1.365 10.128 14.68 12.404 218.83 168.986 222.812 170.92 4.438 2.277 4.552 2.277 4.893.115.228-1.252-.455-3.756-1.365-5.576-.91-1.821-16.728-24.808-35.163-50.98-35.846-51.209-36.073-51.436-36.073-54.964 0-4.097 6.827-4.893 38.576-4.438 26.515.341 29.473.569 33.343 2.617 2.39 1.252 38.462 28.677 80.225 60.88 41.763 32.205 81.137 62.475 87.395 67.254 18.89 14.224 23.556 15.59 18.208 4.893-1.594-3.072-39.26-57.239-83.754-120.51-44.494-63.27-82.843-117.891-85.347-121.647-4.893-7.283-5.576-11.38-2.275-13.2 1.479-.683 16.272-1.138 40.283-1.138 35.732 0 38.235-.114 40.739-2.162 2.617-2.048 2.617-2.276.91-5.917-2.73-5.576-158.744-231.916-162.727-236.012l-3.3-3.414L130.095.092C28.93-.135 12.203.092 10.382 1.458z" fill="#f2f2f2"/></svg>