<svg xmlns="http://www.w3.org/2000/svg" viewBox="0 0 512 512" height="682.667" width="682.667" version="1.0"><g fill="#f2f2f2"><path d="M71.734 2.827C65.176 4.587 60.537 8.745 50.46 22.5c-62.383 83.977-65.742 200.746-8.478 288.722 14.876 22.874 38.23 49.267 48.307 54.705 5.439 2.88 9.277.8 12.157-6.398 4.958-12.477 3.999-15.676-11.197-32.951-17.915-20.315-27.833-35.19-38.39-57.105-15.036-31.511-21.434-59.983-21.434-95.974 0-26.233 2.88-45.907 9.757-67.821C50.78 75.767 65.336 49.854 87.25 24.1c10.717-12.477 13.436-18.075 9.917-20.155-2.72-1.76-20.154-2.4-25.433-1.12zM420.6 2.347c-1.92.48-4.32 1.76-5.28 3.039-2.399 2.88-.639 6.078 10.558 18.715 26.233 29.912 43.988 65.582 52.786 106.85 3.999 18.716 4.159 63.664.16 83.658-8.158 40.949-26.873 78.379-54.546 109.57-5.758 6.559-10.877 13.757-11.357 16.156-.48 2.56.32 8.158 1.92 13.116 2.56 7.518 3.519 8.638 7.518 9.118 4.159.48 6.718-1.44 20.154-15.196 31.032-31.671 54.226-75.34 63.983-120.447 15.836-71.98-.96-147.8-45.747-207.144-4.96-6.718-11.197-13.276-13.917-14.556-4.958-2.72-19.834-4.159-26.233-2.88z"/><path d="M225.932 8.585C162.91 21.701 113.642 66.329 96.367 126.153c-14.076 49.427-5.918 99.333 23.514 142.042 9.118 13.116 12.637 16.315 19.035 16.315 5.598 0 15.676-9.437 15.676-14.716 0-2.08-3.36-8.478-7.358-14.236-9.438-12.956-20.315-35.83-23.994-50.226-2.24-8.318-2.88-16.796-2.88-33.591.16-19.675.64-24.154 4.48-36.79 7.358-24.154 22.074-48.307 38.87-63.183C220.013 21.54 303.03 24.1 354.696 77.686c12.477 12.957 18.875 21.914 26.233 37.75 20.475 43.028 15.196 98.213-12.956 137.403-8.478 11.996-8.638 14.716-.8 22.074 10.397 9.917 15.356 8.637 26.233-6.878 21.434-30.072 31.351-64.943 29.432-104.132-3.36-72.78-53.426-133.884-125.566-153.239-16.156-4.318-55.025-5.438-71.34-2.079z"/><path d="M242.568 96.721c-32.152 8.638-55.185 44.468-57.105 88.616-1.28 29.912 5.439 52.306 23.354 76.62 4.159 5.758 8.158 11.676 8.638 13.276 1.6 4.638-2.72 7.678-15.676 11.037-7.038 1.76-16.956 5.598-22.074 8.317-23.834 12.637-43.828 48.467-53.586 96.294-6.878 33.591-11.517 80.299-11.517 117.089 0 28.312-.64 27.672 26.873 27.832 11.197.16 22.394.64 24.953 1.28 10.238 2.239 9.758-.32 17.915 108.93 4 55.025 7.998 102.692 8.798 105.891.96 3.36 3.04 6.879 5.119 7.998 2.719 1.6 17.435 2.08 60.303 2.08 31.192 0 58.864-.48 61.264-1.28 2.4-.64 5.118-2.88 6.078-4.799.8-1.92 4.639-49.906 8.478-106.69 4.159-63.184 7.518-104.612 8.637-106.692 2.72-5.118 11.197-6.878 32.792-6.878 26.072 0 25.113 1.12 25.113-32.471-.16-87.976-11.997-151-34.87-184.59-12.797-18.715-27.513-28.312-50.547-33.111-13.916-2.88-19.195-6.078-17.595-10.877.48-1.76 4.638-8.318 9.277-14.716 15.196-21.114 21.754-42.229 21.754-69.741 0-48.307-26.393-87.337-63.822-94.375-10.718-1.92-11.677-1.92-22.554.96z"/></g></svg>