<svg xmlns="http://www.w3.org/2000/svg" viewBox="0 0 512 512" height="682.667" width="682.667" version="1.0"><path d="M266.883 3.85c-62.985 22.282-105.025 93.438-105.025 177.369 0 23.47 1.04 31.79 6.833 57.935 8.913 40.108 1.783 68.778-19.609 79.028-7.873 3.863-19.014 3.566-27.333-.742-7.576-3.863-17.232-14.855-22.282-24.957-8.17-16.935-10.696-30.007-11.439-60.608-.445-15.301-1.337-28.67-2.08-29.71-2.376-3.863-6.387.742-14.112 15.894-8.467 16.935-17.083 41.594-21.54 61.797-3.862 17.975-5.347 52.884-2.97 69.522 8.467 57.043 43.822 107.105 97.894 138.003 16.044 9.21 35.207 16.935 38.92 15.747 4.605-1.486 4.605-4.605-.297-22.728-4.308-16.044-4.753-19.312-4.753-41.149-.149-19.609.297-25.254 2.674-31.938 10.695-31.196 31.938-50.953 61.5-57.192 13.666-2.971 24.51-2.823 38.028.743 45.605 11.586 69.67 53.775 61.203 107.699-1.188 8.17-4.308 22.134-6.833 30.898-5.2 17.678-4.754 20.352 3.12 20.352 5.199 0 19.311-5.2 34.018-12.627 43.822-21.986 73.83-58.38 85.862-103.986 5.2-20.054 6.685-35.206 5.793-58.529-1.782-40.554-11.884-87.793-18.866-87.793-2.822 0-5.05 3.862-10.844 19.312-8.467 22.728-23.174 46.793-32.978 54.22-12.775 9.805-23.768 7.428-30.304-6.536-3.268-7.13-3.863-10.844-4.308-25.847-.892-27.037 3.565-52.142 16.786-94.033 10.696-33.572 10.25-34.166-15.004-17.529-24.51 16.192-48.13 24.511-63.282 22.283-10.696-1.634-21.837-9.21-27.63-18.718-8.17-13.666-10.845-24.956-11.736-48.279-1.189-32.235 4.308-63.876 18.272-105.322C292.434 3.255 292.285.284 283.224.284c-3.417 0-10.845 1.634-16.34 3.565z" fill="#f2f2f2"/></svg>