<svg xmlns="http://www.w3.org/2000/svg" viewBox="0 0 512 512" height="682.667" width="682.667" version="1.0"><path d="M253.528 2.24c-.864.864-3.562 6.37-6.153 12.198-27.2 62.712-48.572 103.945-98.656 191.376-50.3 87.646-59.15 110.205-59.043 151.654 0 23.746 4.75 44.255 14.788 64.547 38.102 77.177 137.73 110.746 222.246 74.802 46.414-19.645 79.875-58.18 91.856-105.672 2.267-8.96 2.915-14.572 3.346-29.576 1.404-44.578-5.936-64.007-58.502-155.755-14.14-24.61-31.195-55.05-38.103-67.462-16.838-30.655-44.039-85.92-55.265-112.04-10.686-25.043-12.629-27.85-16.514-24.071z" fill="#f2f2f2"/></svg>