<svg xmlns="http://www.w3.org/2000/svg" viewBox="0 0 512 512" height="682.667" width="682.667" version="1.0"><g fill="#f2f2f2"><path d="M429.762 59.941c-2.185 1.202-5.789 4.478-7.973 7.427-2.185 2.95-6.553 7.427-9.72 9.83-9.503 7.317-14.636 16.055-18.458 31.673-2.185 8.519-2.403 12.123-2.403 35.714.109 14.635.874 35.387 1.857 46.964 2.84 32.437 2.512 38.663-4.37 65.53-2.62 10.376-2.62 11.577-1.528 23.045 5.898 58.65-9.175 92.726-49.585 112.385-20.533 10.048-43.796 14.09-66.077 11.686-19.44-2.184-32.547-6.662-49.585-17.037-3.604-2.185-7.317-3.932-8.19-3.932-.875 0-7.1 2.73-13.762 6.007-23.482 11.468-42.923 16.164-67.17 16.164-11.03.11-17.91-.546-27.194-2.403-6.881-1.42-14.199-2.293-16.601-1.966-5.134.655-34.186 14.635-46.855 22.499-18.785 11.686-39.427 30.253-41.066 36.916-1.529 6.116-11.686 5.788 180.21 5.788 194.407 0 188.182.219 208.496-6.553 24.246-8.191 44.124-23.7 59.305-46.527 28.288-42.595 36.37-110.637 21.516-183.376-2.621-12.779-2.949-16.601-2.949-38.772-.109-22.062.11-25.557 2.403-34.295 2.73-10.921 9.611-26.43 13.106-29.488 1.31-1.093 5.68-2.73 9.72-3.495 8.192-1.748 11.687-3.823 15.29-9.175 6.663-9.72 3.387-22.717-7.317-28.178-7.973-3.932-16.055-2.949-22.17 2.84-3.823 3.604-5.57 6.771-7.1 13.543-.765 2.73-3.713 9.065-6.662 13.98-17.584 28.942-22.28 61.27-15.837 110.528.655 4.478.328 5.46-2.075 7.864-4.041 4.04-12.342 3.931-20.424-.219-9.938-5.024-9.83-4.478-12.669-40.847-4.15-52.097-3.167-78.528 3.277-91.415 3.385-6.881 6.662-8.629 13.215-6.881 11.359 3.058 20.096.437 25.338-7.645 6.335-9.393 2.73-23.045-7.317-28.179-5.461-2.73-13.434-2.73-18.676 0z"/><path d="M168.404 92.816c-38.554 3.713-78.2 23.373-106.16 52.534-18.894 19.768-31.454 44.014-37.789 73.285-3.495 16.055-3.495 48.71 0 64.766 6.662 30.908 20.751 58.322 38.772 75.47 41.066 38.99 112.604 34.294 159.349-10.377 11.468-11.03 18.458-20.314 24.901-33.53 8.956-18.13 12.779-37.68 10.922-55.7-1.31-12.888-2.949-18.458-8.956-30.909-4.478-9.502-6.771-12.778-13.761-19.768-13.652-13.653-28.069-19.769-46.854-19.769-17.912 0-32.11 5.57-44.124 17.475-5.461 5.352-7.755 8.628-9.502 13.434-3.386 8.847-4.041 19.222-2.075 28.724 4.15 19.44 14.525 29.707 33.53 33.202 15.945 2.95 29.925-2.73 36.369-14.744 1.857-3.495 2.403-6.225 2.403-13.652 0-7.973-.437-10.048-3.058-14.963-4.042-7.755-3.932-9.502.436-8.628 11.359 2.184 20.643 18.785 19.223 34.294-.765 7.427-4.478 16.82-9.065 22.936-3.823 4.915-12.67 10.485-21.08 13.324-8.628 2.84-24.683 3.168-34.512.546-28.178-7.317-45.216-30.362-45.544-61.708-.11-12.341 1.53-21.079 5.68-30.034 7.645-16.82 25.229-30.69 48.055-37.79 11.686-3.713 33.858-3.713 46.2-.109 26.102 7.536 44.778 24.028 57.666 50.786 7.536 15.728 9.065 23.591 9.065 46.09 0 17.803-.327 20.642-2.949 30.363-5.679 21.297-15.727 39.646-31.673 57.885-4.587 5.352-8.41 10.485-8.41 11.577 0 3.167 4.697 6.553 13.434 9.939 35.933 13.98 84.098 3.932 104.412-21.734 9.611-12.342 13.106-23.592 13.98-45.981 1.42-35.168-6.444-69.135-24.246-105.395-13.106-26.758-31.673-52.861-48.82-68.807-26.54-24.683-59.196-39.537-94.146-43.032-13.325-1.31-17.584-1.31-31.673 0z"/></g></svg>