<svg xmlns="http://www.w3.org/2000/svg" viewBox="0 0 512 512" height="682.667" width="682.667" version="1.0"><path d="M239.108.731c-44.42.256-86.493 13.216-124.55 38.478C96.22 51.248 69.062 78.683 56.744 97.161c-16.518 25.197-28.277 53.054-34.857 83.29-2.66 12.878-3.079 18.757-3.219 46.893 0 34.576 1.12 44.096 8.68 69.992 26.456 91.409 105.265 159.158 199.193 171.477 17.778 2.38 20.157 3.78 23.796 13.439 3.92 10.779 7.56 15.538 12.46 16.658 4.899 1.12 10.359-1.54 16.098-7.56 6.3-6.58 9.937-5.88 21.276 4.2 21.557 19.177 39.195 21.556 55.013 7.418 8.26-7.419 12.458-15.117 21.697-40.173 11.758-31.216 11.62-31.217 34.436-53.894 28.976-29.116 45.774-55.712 57.392-90.988 8.959-27.576 10.36-38.215 10.36-74.47 0-28.977-.281-34.575-3.08-47.453-11.06-50.674-31.916-89.589-66.351-124.444-36.675-36.955-82.31-60.333-132.703-68.032-12.77-1.93-25.39-2.854-37.828-2.783zm8.25 51.146c9.796.083 20.828.806 28.177 2.03 75.03 12.879 137.184 76.15 151.882 154.54 3.36 17.637 3.359 46.753.14 63.551-7.56 39.195-24.358 69.713-52.914 96.73-23.097 21.696-50.674 36.113-82.31 42.832-20.157 4.34-52.073 4.341-71.39.142C145.211 395.184 88.1 338.21 74.662 265.98c-2.8-15.118-2.66-44.794.139-61.032 2.66-15.258 9.798-37.656 16.517-50.674 12.878-25.897 37.936-55.292 60.053-70.97 12.039-8.54 29.535-17.639 33.875-17.639 2.1 0 6.299 2.52 10.498 6.3 7.84 6.858 8.12 6.998 13.159 4.758 3.36-1.54 5.18-4.478 9.24-14.837 2.099-5.6 4.338-7.42 10.217-8.82 2.992-.734 8.486-1.114 14.89-1.184 1.335-.015 2.709-.016 4.108-.005zm12.936 61.493c-.803-.006-1.61-.003-2.422.008-14.279.202-29.774 3.083-44.21 8.28-33.035 12.039-62.57 40.035-75.169 71.391-13.578 34.016-10.917 73.77 7 104.006 14.839 24.917 40.314 43.955 69.15 51.374 14.138 3.78 39.056 4.06 52.774.84 50.954-11.898 86.369-50.113 95.607-102.886 3.78-21.557 1.68-45.915-5.6-65.373-13.158-35.135-43.113-59.492-81.048-66.21-5.053-.92-10.461-1.388-16.082-1.43zm-16.169 53.166c11.837.133 24.588 2.635 33.79 7.056 13.999 6.719 28.276 22.818 34.435 38.636 9.519 24.357 3.78 50.811-14.977 68.729-14.278 13.858-30.657 20.298-51.234 20.298-18.898.14-33.035-4.899-45.774-16.378-12.458-11.198-20.016-25.757-22.816-43.954-5.18-32.616 15.397-63.272 48.573-72.371 4.593-1.269 9.979-1.922 15.65-2.012a92.182 92.182 0 012.353-.005zm-1.347 47.529a34.42 34.42 0 00-1.9.014c-8.446.297-16.768 3.676-21.755 9.625-14.278 17.078-.979 42.136 22.398 42.136 17.498 0 29.255-11.759 28.135-28.137-.7-9.798-5.18-16.377-14.138-20.716-3.904-1.883-8.306-2.833-12.74-2.922z" fill="#f9f9f9"/></svg>