<svg xmlns="http://www.w3.org/2000/svg" viewBox="0 0 512 512" height="682.667" width="682.667" version="1.0"><g fill="#f2f2f2"><path d="M256.047 21.031c-8.973 3.467-17.13 8.973-25.695 18.15-20.598 21.413-20.801 58.733-.408 81.981 26.307 29.774 74.027 27.327 97.072-5.098 8.157-11.624 13.663-31.61 11.828-43.234-3.263-20.597-16.723-39.563-34.26-48.74-10.81-5.506-37.525-7.137-48.537-3.059zm-6.934 45.681c2.448 24.064 15.091 37.931 36.912 40.583 13.664 1.631 15.295 2.243 13.868 5.71-3.263 8.565-27.94 12.236-40.787 6.118-23.86-11.42-33.037-42.622-17.538-60.568 4.894-5.506 6.118-4.283 7.545 8.157zM66.594 44.076c-15.091 4.078-31.202 14.07-42.01 25.899-30.998 34.26-30.386 85.04 1.427 118.689 16.723 17.742 37.728 27.53 58.937 27.53 16.722 0 21.209 2.856 28.958 17.743 7.954 15.906 22.229 29.57 35.688 34.056 42.826 14.684 86.876-17.742 83.613-61.995-1.632-23.86-15.907-43.642-39.155-54.246-5.914-2.855-12.032-6.322-13.256-8.157-1.427-1.632-3.263-10.809-4.283-20.19-5.098-56.081-56.897-93.605-109.92-79.33zm-15.907 46.7c.408.612-.408 7.138-1.835 14.683-4.487 21.413.612 38.951 14.683 51.391 12.644 11.013 19.781 13.052 42.418 11.624 18.354-1.02 19.781-.815 19.781 2.855 0 4.895-9.788 13.052-21.413 17.335-13.255 5.098-36.3 3.467-48.128-3.671-20.8-12.236-31.405-30.386-31.201-53.43 0-10.809 1.223-16.519 4.69-23.249 7.138-13.867 16.723-21.82 21.005-17.538zm92.178 107.472c.611 2.652 1.427 8.158 2.039 12.44 2.04 14.887 18.966 29.775 34.057 29.978 2.855 0 6.933 1.224 8.973 2.856 3.67 2.65 3.467 3.058-3.06 7.137-5.71 3.67-9.584 4.283-18.761 3.67-25.9-1.63-43.438-29.161-33.649-53.022 3.67-8.36 8.973-9.992 10.4-3.059zM373.716 150.936c-28.142 5.098-56.49 21.21-73.212 42.01-39.562 48.74-35.892 115.834 8.566 159.883 46.7 46.09 119.708 45.681 166.408-1.02 52.615-52.614 44.458-140.509-17.13-181.295-24.064-16.111-58.936-24.268-84.632-19.578zm-22.84 42.622c.612 1.02-2.244 8.973-6.526 17.742-7.138 15.295-7.546 17.13-7.546 36.504 0 18.558.612 21.413 5.914 32.221 7.138 13.868 22.025 28.551 35.485 34.669 7.953 3.67 13.255 4.486 30.997 4.486 19.17 0 22.637-.611 33.445-5.71 19.986-9.177 24.268-6.73 14.072 8.158-7.546 10.808-16.111 17.946-29.978 24.268-72.6 33.24-149.89-43.846-116.65-116.446 6.526-14.479 14.48-24.268 25.492-31.61 9.38-6.321 13.46-7.34 15.295-4.282zM165.501 319.588c-41.194 8.77-70.357 44.458-70.357 86.264 0 64.646 67.706 106.86 126.03 78.31 32.834-16.11 53.635-56.286 47.313-91.974-5.914-34.056-28.347-59.956-60.772-69.949-12.032-3.67-31.61-5.098-42.214-2.65zm-16.314 39.36c.611 1.019-.204 7.34-2.04 14.07-1.631 6.526-3.059 15.092-3.059 18.966 0 21.413 16.927 43.642 37.932 49.76 11.42 3.263 14.683 3.263 39.155-.408 11.216-1.835 11.216 1.428-.204 12.44-10.809 10.4-22.637 14.071-41.602 12.848-23.657-1.428-44.254-15.703-54.247-37.932-9.38-21.005-3.67-51.799 12.236-65.666 7.342-6.526 9.79-7.342 11.829-4.079z"/></g></svg>