<?xml version="1.0" encoding="UTF-8" standalone="no"?>
<svg
   xmlns:dc="http://purl.org/dc/elements/1.1/"
   xmlns:cc="http://creativecommons.org/ns#"
   xmlns:rdf="http://www.w3.org/1999/02/22-rdf-syntax-ns#"
   xmlns:svg="http://www.w3.org/2000/svg"
   xmlns="http://www.w3.org/2000/svg"
   id="svg18"
   preserveAspectRatio="xMidYMid meet"
   viewBox="0 0 512.000000 512.000000"
   height="512.000000pt"
   width="512.000000pt"
   version="1.0">
  <defs
     id="defs22" />
  <metadata
     id="metadata2">
Created by potrace 1.16, written by Peter Selinger 2001-2019
<rdf:RDF>
  <cc:Work
     rdf:about="">
    <dc:format>image/svg+xml</dc:format>
    <dc:type
       rdf:resource="http://purl.org/dc/dcmitype/StillImage" />
    <dc:title></dc:title>
  </cc:Work>
</rdf:RDF>
</metadata>
  <g
     transform="matrix(1.0452913,0,0,1.0452913,-17.648561,-0.05069296)"
     id="g849">
    <path
       style="fill:#f2f2f2;stroke:none;stroke-width:0.15302587"
       id="path6"
       d="M 85.509754,2.7525904 C 79.235693,4.435875 74.797943,8.4145476 65.157313,21.574772 5.4772236,101.91335 2.2636804,213.62224 57.046942,297.78647 c 14.231406,21.8827 36.573183,47.13197 46.213808,52.33485 5.20288,2.75446 8.87551,0.76512 11.62997,-6.12104 4.7438,-11.93602 3.82565,-14.99653 -10.71181,-31.52333 C 87.040012,293.04267 77.552408,278.81126 67.452701,257.84672 53.068269,227.70062 46.947234,200.46201 46.947234,166.03119 c 0,-25.09624 2.754466,-43.91842 9.334578,-64.88297 C 65.463365,72.532387 79.388719,47.742196 100.35326,23.105031 110.606,11.169013 113.20744,5.8131078 109.84087,3.8237715 107.23943,2.1404869 90.559607,1.5283835 85.509754,2.7525904 Z" />
    <path
       style="fill:#f2f2f2;stroke:none;stroke-width:0.15302587"
       id="path8"
       d="m 419.25918,2.2935128 c -1.83631,0.4590776 -4.1317,1.6832846 -5.04986,2.9074916 -2.29539,2.7544656 -0.6121,5.8149826 10.09971,17.9040266 25.09624,28.615838 42.08211,62.740607 50.49854,102.221279 3.82564,17.90403 3.97867,60.9043 0.15302,80.03253 -7.80432,39.17463 -25.70834,74.98268 -52.18182,104.82272 -5.50893,6.27406 -10.40576,13.16023 -10.86484,15.45562 -0.45907,2.44841 0.30606,7.80432 1.83631,12.54812 2.44842,7.19221 3.36657,8.26339 7.19222,8.72247 3.97867,0.45908 6.42709,-1.37723 19.28126,-14.53746 29.68702,-30.29912 51.87577,-72.07518 61.21035,-115.22848 C 516.58363,148.28019 500.51591,75.74593 457.66867,18.973333 452.92487,12.546246 446.95686,6.2721854 444.35542,5.0479785 439.61162,2.4465387 425.38021,1.0693059 419.25918,2.2935128 Z" />
    <path
       style="fill:#f2f2f2;stroke:none;stroke-width:0.15302587"
       id="path12"
       d="M 233.02669,8.2615218 C 172.7345,20.809643 125.60253,63.503861 109.07574,120.73554 c -13.466279,47.28499 -5.66196,95.02906 22.4948,135.88697 8.72248,12.54812 12.08904,15.60864 18.21008,15.60864 5.3559,0 14.99653,-9.02853 14.99653,-14.07838 0,-1.98934 -3.21354,-8.11037 -7.03919,-13.6193 -9.02852,-12.3951 -19.43428,-34.2778 -22.95388,-48.05013 -2.14236,-7.95734 -2.75446,-16.06771 -2.75446,-32.13543 0.15302,-18.82218 0.6121,-23.10691 4.28472,-35.19595 7.03919,-23.10691 21.11757,-46.213814 37.18529,-60.44522 53.86511,-48.050123 133.28553,-45.601709 182.71289,5.661958 11.93602,12.395095 18.05705,20.964544 25.09624,36.114102 19.58731,41.16396 14.53746,93.95789 -12.3951,131.44923 -8.11037,11.47694 -8.26339,14.07838 -0.76512,21.11757 9.94668,9.4876 14.69048,8.26339 25.09624,-6.58012 20.50546,-28.76886 29.99307,-62.1285 28.15676,-99.61984 C 418.188,87.222871 370.2909,28.766988 301.27623,10.250858 285.82062,6.1191596 248.63533,5.0479785 233.02669,8.2615218 Z" />
    <path
       style="fill:#f2f2f2;stroke:none;stroke-width:0.15302587"
       id="path14"
       d="m 248.94138,92.578776 c -30.7582,8.263394 -52.79392,42.541194 -54.63023,84.776334 -1.22421,28.61584 5.20288,50.03946 22.34177,73.29939 3.97868,5.50893 7.80432,11.17089 8.2634,12.70115 1.53026,4.43775 -2.60144,7.34524 -14.99653,10.55878 -6.73314,1.68329 -16.22075,5.35591 -21.11757,7.95735 -22.80086,12.08904 -41.92909,46.36684 -51.26367,92.12157 -6.58011,32.13543 -11.01786,76.81899 -11.01786,112.01494 0,27.08558 -0.61211,26.47347 25.70834,26.6265 10.71181,0.15303 21.42362,0.6121 23.87204,1.22421 9.79365,2.14236 9.33458,-0.30606 17.1389,104.21061 3.82564,52.6409 7.65129,98.24261 8.41642,101.30313 0.91815,3.21354 2.90749,6.58011 4.89683,7.65129 2.60144,1.53026 16.67982,1.98934 57.69075,1.98934 29.84004,0 56.31352,-0.45908 58.60891,-1.22421 2.29539,-0.6121 4.89683,-2.75446 5.81498,-4.59077 0.76513,-1.83631 4.43775,-47.74408 8.11037,-102.06826 3.97867,-60.44522 7.19222,-100.07892 8.2634,-102.06825 2.60144,-4.89683 10.71181,-6.58012 31.3703,-6.58012 24.94322,0 24.02506,1.07118 24.02506,-31.06425 -0.15302,-84.16423 -11.47694,-144.45642 -33.35964,-176.59185 -12.24207,-17.90403 -26.32045,-27.08558 -48.35617,-31.67636 -13.31325,-2.75446 -18.3631,-5.81498 -16.83285,-10.40576 0.45908,-1.68328 4.43775,-7.95734 8.8755,-14.07838 14.53746,-20.19941 20.81152,-40.39883 20.81152,-66.71928 0,-46.21381 -25.24927,-83.552121 -61.05732,-90.285259 -10.25273,-1.836311 -11.17089,-1.836311 -21.57665,0.918155 z" />
  </g>
</svg>
