<svg xmlns="http://www.w3.org/2000/svg" viewBox="0 0 512 512" height="682.667" width="682.667" version="1.0"><g fill="#f1938f"><path d="M87.6 5.968c-4.641 2.73-9.01 7.645-9.828 10.375-.82 2.73 1.365 16.653 4.914 30.85 9.282 37.402 5.733 41.224-31.396 32.76C19.894 72.857 13.069 76.133 8.7 99.61c-2.73 14.47 5.46 21.841 31.397 28.12 42.589 10.102 44.5 15.289 16.38 46.412-20.203 22.387-22.933 30.03-14.742 41.77 4.095 6.006 17.2 14.197 22.932 14.197 1.365 0 12.013-8.737 23.48-19.11 11.193-10.648 22.659-19.112 25.389-19.112 7.917 0 13.104 8.19 19.657 30.577 3.276 11.74 8.19 23.48 11.193 26.755 6.552 7.099 19.93 7.099 31.669 0 10.647-6.552 11.466-15.015 3.276-44.227-10.92-39.586-6.825-44.228 31.123-35.218 41.498 9.828 50.507 6.825 52.964-18.565 1.092-11.74.546-13.923-5.187-17.472-3.55-2.458-15.016-6.28-25.663-9.01-42.043-10.374-43.955-15.561-16.108-45.865 9.829-10.648 18.292-22.114 19.384-25.663 2.184-8.736-3.822-18.565-14.742-25.39-12.559-7.917-19.384-4.641-44.5 20.749-20.204 20.202-28.667 24.57-34.946 16.926-1.638-1.638-5.46-12.012-8.736-22.386-8.19-26.755-11.194-34.127-15.562-38.495-5.46-5.46-19.657-4.64-29.758 1.365zM405.192 105.289c-2.457 1.365-7.098 8.736-10.375 16.108-4.914 11.739-12.012 19.383-17.472 19.383-.82 0-6.552-4.368-12.832-9.555-14.196-11.74-24.024-12.286-35.218-2.184-13.104 12.012-13.104 19.11-.273 36.31 6.006 8.19 10.648 16.654 10.375 19.11-.82 3.823-8.19 8.19-30.031 17.473-12.832 5.46-15.562 13.924-9.01 30.304 5.188 13.924 11.194 16.654 28.94 13.924 6.005-1.092 13.104-.546 16.38 1.365 5.187 2.73 5.46 4.368 3.549 24.57l-1.911 21.568 13.377 5.733c18.838 8.464 24.844 5.46 36.038-17.472 10.92-22.933 16.653-24.025 35.764-6.006 16.38 15.288 24.298 16.107 37.402 3.003 11.74-11.74 11.74-19.11-.273-34.126-9.828-12.286-12.012-22.114-6.006-26.755 1.638-1.638 9.828-4.914 17.745-7.644 8.19-2.458 15.562-6.826 17.2-10.102 3.822-6.825 1.638-22.387-4.368-31.396-4.368-6.825-4.914-6.825-28.94-4.914-28.938 2.184-29.757 1.638-24.57-24.57 4.095-20.477 1.638-27.302-12.012-33.035-10.92-4.368-17.2-4.641-23.48-1.092zM226.094 286.134c-2.457 3.276-6.825 13.923-10.101 23.479-7.098 21.567-14.197 26.208-26.482 17.472-4.368-3.276-10.101-9.01-12.558-12.831-2.457-3.55-8.19-8.737-12.832-11.194-10.101-5.187-21.294-1.638-29.758 9.283-8.736 10.647-6.825 19.656 6.825 35.764 15.562 18.292 18.565 23.752 16.381 30.304-1.638 5.187-6.28 7.098-39.313 15.288-13.378 3.55-20.203 13.924-17.746 27.028 3.55 19.384 14.47 23.752 43.682 18.019 12.558-2.457 21.294 0 23.751 6.28.82 2.183-.819 12.285-3.822 22.659-2.73 10.101-5.187 21.295-5.187 24.57 0 12.013 25.663 24.025 37.675 17.473 3.276-1.638 8.464-11.193 12.832-22.66 14.742-39.313 18.564-40.405 44.5-13.104 23.752 24.298 29.758 25.936 44.228 11.466 15.561-15.561 14.742-19.383-10.102-47.776-10.647-11.74-11.739-22.114-3.003-26.755 3.276-1.638 13.378-4.914 22.387-7.098 23.752-5.46 28.939-9.556 28.939-22.66 0-14.47-4.914-24.298-13.104-26.482-3.823-.819-16.654 0-28.94 1.911-37.402 5.733-41.224 2.457-32.215-28.12 8.464-29.212 7.918-36.31-2.73-42.862-12.285-7.371-27.847-7.098-33.307.546z"/></g></svg>