<svg xmlns="http://www.w3.org/2000/svg" viewBox="0 0 512 512" height="682.667" width="682.667" version="1.0"><g fill="#f1938f"><path d="M268.992 2.443c-.644 1.287-.215 5.148 1.609 12.549 6.65 27.563-.108 41.399-24.025 49.228-4.611 1.501-16.73 4.826-27.134 7.508-21.665 5.47-32.39 9.33-42.58 15.444-10.188 6.22-17.481 12.977-23.702 22.2-9.974 15.016-14.693 31.318-16.195 57.058-.536 8.473-1.18 15.766-1.608 16.41-3.218 5.255-12.549-6.542-18.77-23.595-4.29-11.583-6.434-24.668-6.434-38.504 0-14.264 1.18-22.2 6.113-42.793 3.003-12.227 3.646-16.624 2.681-17.59-1.93-1.93-7.936 3.433-17.16 15.338-80.546 104.248-76.577 266.09 8.795 365.298 23.702 27.564 58.773 51.802 90.734 62.635 17.697 6.113 30.352 7.936 54.162 7.83 22.952 0 32.712-1.18 50.301-6.329 17.59-5.04 40.97-17.053 58.56-29.816 48.262-35.285 84.084-93.845 97.598-159.911 4.29-20.914 5.684-36.573 5.792-62.313 0-33.141-3.325-57.38-11.798-86.552-10.296-35.286-30.888-74.969-49.55-95.24-9.867-10.832-11.583-8.258-8.151 12.87 2.252 14.694 3.217 41.829 1.609 50.945-4.398 25.097-18.555 32.39-41.185 21.129-15.659-7.83-26.17-17.911-28.743-27.457-1.716-6.542-.43-13.299 5.791-28.314 5.577-13.621 5.577-13.621 5.577-25.419 0-11.154-.214-12.12-3.539-18.769-4.183-8.365-12.334-18.125-22.308-26.92C303.634 19.067 275.105.513 271.137.513c-.644 0-1.609.858-2.145 1.93zm13.835 151.868c57.058 12.227 100.817 57.487 109.933 113.58.858 5.47 1.609 15.658 1.609 22.844 0 23.595-4.72 42.364-16.732 66.281l-6.864 13.836v15.122c0 17.804-1.608 25.419-6.97 33.57-4.935 7.507-12.764 12.548-23.596 15.337-4.72 1.18-9.224 2.895-10.19 3.753-1.072 1.18-1.822 5.041-2.251 12.763-1.18 18.019-7.4 28.422-21.129 35.179l-7.186 3.54-37.538.32c-47.941.43-52.66-.32-63.493-11.153-7.293-7.293-10.081-14.48-10.94-27.993-.643-10.082-.964-11.476-3.217-13.3-1.394-1.072-3.325-2.037-4.29-2.037-.965 0-4.719-.75-8.15-1.609-12.978-3.324-23.489-13.835-26.814-26.812-1.072-4.076-1.608-11.262-1.608-20.056v-13.621l-4.29-7.83c-17.054-30.995-22.202-50.837-21.13-81.189.43-12.87 1.18-19.198 3.218-27.456 14.05-55.664 59.632-96.527 116.797-104.57 9.653-1.395 35.393-.43 44.831 1.501z"/><path d="M194.774 321.623c-9.545 3.432-15.659 9.438-19.305 18.984-5.47 14.371 1.18 31.21 15.337 38.717 3.753 1.931 6.327 2.467 13.728 2.467 8.258 0 9.652-.322 15.015-3.325 18.34-10.296 21.772-34.535 7.079-49.335-3.647-3.54-7.294-6.006-10.726-7.186-6.22-2.145-15.658-2.252-21.128-.322zM294.947 321.838c-6.65 2.466-14.587 10.081-17.482 16.73-9.01 20.486 6.113 43.76 28.421 43.76 12.012 0 23.596-7.508 28.53-18.448 3.431-7.83 3.431-18.661 0-25.526-3.218-6.22-9.117-12.44-14.587-15.337-5.684-2.895-18.554-3.539-24.882-1.18zM252.046 386.081c-4.612 1.93-6.65 6.435-8.473 18.126-3.325 21.879-2.574 23.166 13.514 23.166 15.98 0 16.838-1.394 13.514-23.059-1.716-11.798-3.861-16.302-8.688-18.34-4.504-1.823-5.47-1.823-9.867.107z"/></g></svg>