<?xml version="1.0" encoding="UTF-8" standalone="no"?>
<svg
   xmlns:dc="http://purl.org/dc/elements/1.1/"
   xmlns:cc="http://creativecommons.org/ns#"
   xmlns:rdf="http://www.w3.org/1999/02/22-rdf-syntax-ns#"
   xmlns:svg="http://www.w3.org/2000/svg"
   xmlns="http://www.w3.org/2000/svg"
   id="svg72"
   preserveAspectRatio="xMidYMid meet"
   viewBox="0 0 512.000000 512.000000"
   height="512.000000pt"
   width="512.000000pt"
   version="1.0">
  <defs
     id="defs76" />
  <metadata
     id="metadata64">
Created by potrace 1.16, written by Peter Selinger 2001-2019
<rdf:RDF>
  <cc:Work
     rdf:about="">
    <dc:format>image/svg+xml</dc:format>
    <dc:type
       rdf:resource="http://purl.org/dc/dcmitype/StillImage" />
    <dc:title></dc:title>
  </cc:Work>
</rdf:RDF>
</metadata>
  <path
     d="M 266.88305,3.8494296 C 203.89762,26.13201 161.85782,97.287721 161.85782,181.21878 c 0,23.47099 1.03985,31.78982 6.83332,57.93472 8.91304,40.10864 1.78261,68.7789 -19.60867,79.02888 -7.87318,3.86232 -19.01447,3.56522 -27.3333,-0.74275 -7.57608,-3.86231 -17.23186,-14.85505 -22.282581,-24.95649 C 91.29631,275.54838 88.77095,262.47593 88.028198,231.87452 87.582546,216.57381 86.691243,203.20426 85.94849,202.16441 c -2.376809,-3.86231 -6.387673,0.74275 -14.112302,15.89491 -8.467381,16.93476 -17.083312,41.59415 -21.539828,61.79702 -3.862314,17.97462 -5.34782,52.884 -2.971011,69.52166 8.467381,57.04341 43.82241,107.10494 97.894811,138.00345 16.04346,9.21014 35.20648,16.93477 38.92024,15.74636 4.60507,-1.4855 4.60507,-4.60507 -0.2971,-22.72823 -4.30797,-16.04346 -4.75362,-19.31157 -4.75362,-41.1485 -0.14855,-19.60867 0.2971,-25.2536 2.67391,-31.93837 10.69564,-31.19561 31.93837,-50.95284 61.49993,-57.19196 13.66665,-2.97101 24.51084,-2.82246 38.02893,0.74275 45.60502,11.58695 69.67021,53.7753 61.20283,107.69915 -1.18841,8.17028 -4.30797,22.13403 -6.83333,30.89851 -5.19927,17.67752 -4.75361,20.35143 3.11956,20.35143 5.19927,0 19.31158,-5.19927 34.01808,-12.6268 43.82241,-21.98548 73.82962,-58.38036 85.86221,-103.98538 5.19927,-20.05432 6.68478,-35.20648 5.79347,-58.52892 -1.7826,-40.55429 -11.88404,-87.79337 -18.86591,-87.79337 -2.82246,0 -5.05072,3.86232 -10.84419,19.31157 -8.46739,22.72824 -23.17389,46.79343 -32.97822,54.22095 -12.77535,9.80434 -23.76809,7.42753 -30.30432,-6.53622 -3.26811,-7.13043 -3.86231,-10.84419 -4.30796,-25.8478 -0.8913,-27.03619 3.56521,-52.14124 16.78621,-94.03249 10.69564,-33.57242 10.24999,-34.16662 -15.0036,-17.52896 -24.51084,16.19201 -48.13038,24.51084 -63.28254,22.28258 -10.69564,-1.63406 -21.83693,-9.21014 -27.6304,-18.71737 -8.17028,-13.66665 -10.84419,-24.95649 -11.73549,-48.27893 -1.1884,-32.235471 4.30797,-63.876737 18.27172,-105.322339 7.87318,-23.1738836 7.72462,-26.14489454 -1.33696,-26.14489454 -3.41666,0 -10.84419,1.63405604 -16.34056,3.56521314 z"
     id="path66"
     style="fill:#f2f2f2;stroke:none;stroke-width:0.14855054" />
</svg>
