<?xml version="1.0" encoding="UTF-8" standalone="no"?>
<svg
   xmlns:dc="http://purl.org/dc/elements/1.1/"
   xmlns:cc="http://creativecommons.org/ns#"
   xmlns:rdf="http://www.w3.org/1999/02/22-rdf-syntax-ns#"
   xmlns:svg="http://www.w3.org/2000/svg"
   xmlns="http://www.w3.org/2000/svg"
   id="svg170"
   preserveAspectRatio="xMidYMid meet"
   viewBox="0 0 512.000000 512.000000"
   height="512.000000pt"
   width="512.000000pt"
   version="1.0">
  <defs
     id="defs174" />
  <metadata
     id="metadata164">
Created by potrace 1.16, written by Peter Selinger 2001-2019
<rdf:RDF>
  <cc:Work
     rdf:about="">
    <dc:format>image/svg+xml</dc:format>
    <dc:type
       rdf:resource="http://purl.org/dc/dcmitype/StillImage" />
    <dc:title></dc:title>
  </cc:Work>
</rdf:RDF>
</metadata>
  <g
     style="fill:#f2f2f2;stroke:none"
     id="g168"
     transform="matrix(0.11379551,0,0,-0.11379551,-33.429235,548.35923)">
    <path
       id="path166"
       d="m 385,4806 c -19,-14 -19,-17 -5,-41 9,-14 437,-381 950,-816 514,-435 955,-811 980,-835 37,-37 43,-47 34,-62 -17,-27 -76,-30 -576,-31 -256,-1 -473,-4 -482,-7 -24,-9 -19,-42 10,-69 15,-14 229,-181 476,-371 450,-347 486,-380 447,-405 -8,-5 -261,-9 -564,-10 -302,-1 -563,-4 -580,-8 -49,-10 -45,-42 12,-89 129,-109 1923,-1485 1958,-1502 39,-20 40,-20 43,-1 2,11 -4,33 -12,49 -8,16 -147,218 -309,448 -315,450 -317,452 -317,483 0,36 60,43 339,39 233,-3 259,-5 293,-23 21,-11 338,-252 705,-535 367,-283 713,-549 768,-591 166,-125 207,-137 160,-43 -14,27 -345,503 -736,1059 -391,556 -728,1036 -750,1069 -43,64 -49,100 -20,116 13,6 143,10 354,10 314,0 336,1 358,19 23,18 23,20 8,52 -24,49 -1395,2038 -1430,2074 l -29,30 -1033,3 c -889,2 -1036,0 -1052,-12 z" />
  </g>
</svg>
