<?xml version="1.0" encoding="UTF-8" standalone="no"?>
<svg
   xmlns:dc="http://purl.org/dc/elements/1.1/"
   xmlns:cc="http://creativecommons.org/ns#"
   xmlns:rdf="http://www.w3.org/1999/02/22-rdf-syntax-ns#"
   xmlns:svg="http://www.w3.org/2000/svg"
   xmlns="http://www.w3.org/2000/svg"
   id="svg18"
   preserveAspectRatio="xMidYMid meet"
   viewBox="0 0 512.000000 512.000000"
   height="512.000000pt"
   width="512.000000pt"
   version="1.0">
  <defs
     id="defs22" />
  <metadata
     id="metadata2">
Created by potrace 1.16, written by Peter Selinger 2001-2019
<rdf:RDF>
  <cc:Work
     rdf:about="">
    <dc:format>image/svg+xml</dc:format>
    <dc:type
       rdf:resource="http://purl.org/dc/dcmitype/StillImage" />
    <dc:title></dc:title>
  </cc:Work>
</rdf:RDF>
</metadata>
  <g
     transform="matrix(1.7922199,0,0,1.7922199,-377.91218,-369.48475)"
     id="g838">
    <path
       style="fill:#f2f2f2;stroke:none;stroke-width:0.1"
       id="path8"
       d="m 488.8,208.7 c -0.8,1 -6.3,11 -12.3,22.3 -29.3,55.6 -59.6,97.7 -101,139.9 -43.1,43.9 -84,74.8 -137,103.6 -25.7,14 -28.6,16.5 -18.9,16.5 9,0 39.5,-7.7 59.7,-15.1 83.1,-30.5 149.5,-88.5 185.7,-162.4 10,-20.3 14.6,-32.1 19.6,-50.4 7.3,-26.5 10.7,-56.1 6.5,-56.1 -0.4,0 -1.5,0.8 -2.3,1.7 z" />
    <path
       style="fill:#f2f2f2;stroke:none;stroke-width:0.1"
       id="path10"
       d="m 356.2,210.7 c -1,1.6 -4.3,7.1 -7.2,12.3 -28.6,50.9 -66.6,90.3 -117.7,121.8 -9.8,6.1 -15.9,10.5 -16.1,11.6 -0.4,1.7 0.1,1.9 5.6,1.3 7.5,-0.8 22.7,-5.6 35.5,-11.3 32.7,-14.5 61.9,-39.2 81.1,-68.6 13.5,-20.7 23.6,-48.3 23.6,-64.4 0,-6.2 -1.6,-7.2 -4.8,-2.7 z" />
    <path
       style="fill:#f2f2f2;stroke:none;stroke-width:0.1"
       id="path12"
       d="m 414.4,211.7 c -1.4,2.1 -6,10.1 -10.1,17.8 -28.9,53.6 -69.2,101.1 -117.7,138.9 -13.5,10.5 -35,24.6 -54.1,35.6 -16.8,9.6 -19.9,12 -16.8,13.1 3.1,1.1 15.6,-1.2 29.8,-5.4 68.3,-20.7 125.1,-67.8 154.5,-128.2 11.3,-23.2 18.6,-47.5 19.7,-65.8 0.5,-8.6 0.4,-9.7 -1.1,-9.7 -0.9,0 -2.8,1.7 -4.2,3.7 z" />
  </g>
</svg>
