<?xml version="1.0" encoding="UTF-8" standalone="no"?>
<svg
   xmlns:dc="http://purl.org/dc/elements/1.1/"
   xmlns:cc="http://creativecommons.org/ns#"
   xmlns:rdf="http://www.w3.org/1999/02/22-rdf-syntax-ns#"
   xmlns:svg="http://www.w3.org/2000/svg"
   xmlns="http://www.w3.org/2000/svg"
   id="svg14"
   preserveAspectRatio="xMidYMid meet"
   viewBox="0 0 512.000000 512.000000"
   height="512.000000pt"
   width="512.000000pt"
   version="1.0">
  <defs
     id="defs18" />
  <metadata
     id="metadata2">
Created by potrace 1.16, written by Peter Selinger 2001-2019
<rdf:RDF>
  <cc:Work
     rdf:about="">
    <dc:format>image/svg+xml</dc:format>
    <dc:type
       rdf:resource="http://purl.org/dc/dcmitype/StillImage" />
    <dc:title></dc:title>
  </cc:Work>
</rdf:RDF>
</metadata>
  <g
     style="fill:#f2f2f2;stroke:none"
     id="g12"
     transform="matrix(0.10725136,0,0,-0.10725136,-18.549041,528.18933)">
    <path
       id="path4"
       d="m 2681,4902 c -6,-12 -2,-48 15,-117 62,-257 -1,-386 -224,-459 -43,-14 -156,-45 -253,-70 -202,-51 -302,-87 -397,-144 -95,-58 -163,-121 -221,-207 -93,-140 -137,-292 -151,-532 -5,-79 -11,-147 -15,-153 -30,-49 -117,61 -175,220 -40,108 -60,230 -60,359 0,133 11,207 57,399 28,114 34,155 25,164 -18,18 -74,-32 -160,-143 -751,-972 -714,-2481 82,-3406 221,-257 548,-483 846,-584 165,-57 283,-74 505,-73 214,0 305,11 469,59 164,47 382,159 546,278 450,329 784,875 910,1491 40,195 53,341 54,581 0,309 -31,535 -110,807 -96,329 -288,699 -462,888 -92,101 -108,77 -76,-120 21,-137 30,-390 15,-475 -41,-234 -173,-302 -384,-197 -146,73 -244,167 -268,256 -16,61 -4,124 54,264 52,127 52,127 52,237 0,104 -2,113 -33,175 -39,78 -115,169 -208,251 -110,96 -376,269 -413,269 -6,0 -15,-8 -20,-18 z m 129,-1416 c 532,-114 940,-536 1025,-1059 8,-51 15,-146 15,-213 0,-220 -44,-395 -156,-618 l -64,-129 v -141 c 0,-166 -15,-237 -65,-313 -46,-70 -119,-117 -220,-143 -44,-11 -86,-27 -95,-35 -10,-11 -17,-47 -21,-119 -11,-168 -69,-265 -197,-328 l -67,-33 -350,-3 c -447,-4 -491,3 -592,104 -68,68 -94,135 -102,261 -6,94 -9,107 -30,124 -13,10 -31,19 -40,19 -9,0 -44,7 -76,15 -121,31 -219,129 -250,250 -10,38 -15,105 -15,187 v 127 l -40,73 c -159,289 -207,474 -197,757 4,120 11,179 30,256 131,519 556,900 1089,975 90,13 330,4 418,-14 z" />
    <path
       id="path6"
       d="m 1989,1926 c -89,-32 -146,-88 -180,-177 -51,-134 11,-291 143,-361 35,-18 59,-23 128,-23 77,0 90,3 140,31 171,96 203,322 66,460 -34,33 -68,56 -100,67 -58,20 -146,21 -197,3 z" />
    <path
       id="path8"
       d="m 2923,1924 c -62,-23 -136,-94 -163,-156 -84,-191 57,-408 265,-408 112,0 220,70 266,172 32,73 32,174 0,238 -30,58 -85,116 -136,143 -53,27 -173,33 -232,11 z" />
    <path
       id="path10"
       d="m 2523,1325 c -43,-18 -62,-60 -79,-169 -31,-204 -24,-216 126,-216 149,0 157,13 126,215 -16,110 -36,152 -81,171 -42,17 -51,17 -92,-1 z" />
  </g>
</svg>
