<svg xmlns="http://www.w3.org/2000/svg" width="96" height="96" viewBox="0 0 25.4 25.4"><path d="M12.512 12.675a6.677 7.188 0 0 1 .376.05 7.165 7.165 0 0 0-.376-.05z" style="opacity:1;vector-effect:none;fill:#1a1a1a;fill-opacity:1;stroke:none;stroke-width:1;stroke-linecap:butt;stroke-linejoin:miter;stroke-miterlimit:4;stroke-dasharray:none;stroke-dashoffset:0;stroke-opacity:1"/><path transform="scale(.26458)" d="M48 20.922A27.079 27.079 0 0 0 20.922 48 27.079 27.079 0 0 0 48 75.078 27.079 27.079 0 0 0 75.078 48 27.079 27.079 0 0 0 48 20.922zm-.02 17.451a13.731 13.731 0 0 1 2.725.299 9.778 9.778 0 0 1 6.842 6.879c.329 1.202.329 3.7 0 4.906a9.766 9.766 0 0 1-5.041 6.197c-1.516.737-2.526.973-4.332.973-1.077 0-1.841-.084-2.457-.25a9.713 9.713 0 0 1-6.674-12.563c1.062-3.208 4.056-5.733 7.521-6.36a6.603 6.603 0 0 1 .907-.077 13.731 13.731 0 0 1 .51-.004zm.473 4.078c-1.017-.06-2.01.185-3.035.736-1.912 1.04-3.13 3.555-2.729 5.645.567 3.1 3.44 5.195 6.35 4.666 3.043-.574 5.16-3.453 4.63-6.307-.422-2.335-1.953-3.988-4.194-4.574a5.377 5.377 0 0 0-1.022-.166zm-.389.432.057.004h-.031l-.026-.004zm-1.437.29v.005h-.006c-.007.007-.016.008-.023.008l.029-.012zM33.918 44.86v.004c.87-.004 1.727.06 1.916.2.246.177.256.379.271 2.949 0 3.36.162 3.136-2.173 3.136-1.818 0-2.158-.105-2.729-.873-.208-.257-.861-.79-1.447-1.171-1.588-1.025-1.588-1.16 0-2.188.586-.378 1.24-.911 1.447-1.172a2.899 2.899 0 0 1 .711-.67c.253-.136 1.135-.207 2.004-.215zm28.467 0h.004c.853-.007 1.717.046 1.943.162a7.476 7.476 0 0 1 1.053.926 10.711 10.711 0 0 0 1.406 1.217c.533.355.643.508.643.848 0 .34-.11.49-.643.845-.367.246-.998.794-1.406 1.217-.412.424-.887.828-1.053.922-.446.234-3.455.209-3.81-.037-.258-.189-.272-.324-.272-2.947.015-2.57.026-2.772.271-2.95.17-.124 1.007-.191 1.864-.203zm-14.264.026a4.165 4.165 0 0 1 1.916.654c2.075 1.625 1.349 4.917-1.191 5.461a3.05 3.05 0 0 1-3.62-3.836 3.137 3.137 0 0 1 1.981-2.074c.344-.11.752-.205.914-.205z" style="opacity:1;vector-effect:none;fill:#1a1a1a;fill-opacity:1;stroke:none;stroke-width:3.77952766;stroke-linecap:butt;stroke-linejoin:miter;stroke-miterlimit:4;stroke-dasharray:none;stroke-dashoffset:0;stroke-opacity:1"/></svg>