<svg xmlns="http://www.w3.org/2000/svg" viewBox="0 0 512 512" height="682.667" width="682.667" version="1.0"><path d="M87.6 35.1c-3.9 3-16.9 20.9-24.1 33-12.3 20.7-13.4 24.2-9.3 29.4 1.2 1.5 24.2 23.4 51.2 48.7 27 25.3 51.2 48.2 53.9 50.8 6 6.2 6.3 9.6 1.3 14.6-3.8 3.8-6.9 4.3-10.6 1.7-1.3-.9-25.1-23-52.8-49-54.3-51-53.1-50.1-57.3-44.3-4 5.4-13.4 44-14.6 59.8-.6 7.7-.4 8.4 1.7 10.7 1.3 1.4 25.6 14.3 53.9 28.6 28.4 14.4 52.6 27 53.9 28.2 2.7 2.5 2.8 5.6.2 10.6-1.9 3.9-3.6 5.1-6.9 5.1-1 0-23.6-11-50.3-24.5C51.1 225 28.3 214 27.2 214c-5.3 0-6.3 7.8-4.2 33.5 2.1 26 3.8 34.7 7.4 37 1.5 1 14.5 2.5 44.6 5 23.4 1.9 43.9 3.7 45.6 4 4.9.8 6.6 3.4 6.2 9.5-.2 4.3-.8 5.6-2.9 7.2-2.5 1.9-2.9 1.9-39-1.1-50-4.2-50.9-4.2-50.9 2 0 3.5 6 23.3 10.6 35.4C48.7 357 51.1 360 55.4 360c1.7 0 17.5-2.7 35-6 31.6-5.9 37.1-6.7 39.2-5.2 2.1 1.4 3.4 5.1 3.4 9.6 0 3.6-.5 4.9-2.2 6-1.3.8-15.8 4-32.3 7-16.5 3.1-31.5 6.3-33.2 7.1-2.6 1.1-3.3 2.1-3.3 4.2 0 4.6 16 32.3 22.8 39.5 4.4 4.7 6.7 4 30.1-9.2 27.9-15.8 28.7-16.2 32.4-15.8 6 .6 10.2 11.3 6 15-1 .9-12.3 7.5-25 14.7-12.8 7.3-23.8 14.1-24.3 15.2-1.8 3.4 1.6 8.3 15.2 21.9 18.3 18.4 20.2 19 28 9.8 8.4-10 8.8-10.9 10.8-24 4-26.2 11.7-41.6 25.7-52 8.6-6.3 11.3-8.9 11.3-11.2 0-1.2-2.1-6.4-4.6-11.5-11.8-24.3-16.4-44.4-16.4-70.9 0-34.7 10.8-64.4 31.7-87.4 7-7.7 7.9-9.5 6.1-13.6C210.3 199.8 99.7 39 96.3 35.4c-2.7-2.9-5.2-3-8.7-.3zm331.7.1c-2 2.3-105.3 152.1-112.4 163.1-2.2 3.3-3.9 7-3.9 8.3 0 1.4 2.5 5.1 6.5 9.6 23 25.7 33.6 56.9 32.2 94.3-.9 23.2-5.6 41.9-15.8 63.6-2.9 6.1-4.9 11.6-4.7 13 .2 1.6 2.9 4.3 8 8.1 15.6 11.7 23 26.3 26.3 51.5.8 6.2 2.1 12.6 2.9 14.1 2.5 4.8 14.7 18.2 17.1 18.8 3.5.9 6-.9 18.9-13.5 17.6-17.2 20.3-21.8 15.6-25.9-1.1-.9-12-7.3-24.2-14.2-12.2-7-23-13.8-24.1-15.2-1.7-2.3-1.8-3.1-.8-5.9 1.7-4.9 4.9-7.9 8.5-7.9 2.1 0 9.7 3.7 23.6 11.6 32.4 18.3 33.5 18.7 37.7 14.2 3.1-3.4 15.2-22.4 19.7-30.9 4.6-8.7 4.5-12-.4-13.8-1.7-.6-16.4-3.6-32.8-6.6-16.3-3.1-30.4-6.1-31.4-6.6-4.1-2.2-4.7-9.2-1.2-14.7 2.1-3.2 5.1-3 40.9 3.8 17.4 3.3 32.8 6 34.2 6 6.2 0 8.9-4.8 16.6-28.6 5.5-17.2 6.2-20.6 4.8-23.3-1.6-2.8-4.3-2.8-49.2.9-25.5 2.1-37.4 2.8-39.2 2.1-3.1-1.2-5.2-6.8-4.2-11.7.5-2.8 1.3-3.8 3.8-4.9 1.9-.7 19.9-2.6 43.2-4.5 47.3-3.7 50-4.1 51.9-7.9 2.9-5.5 5.5-28.5 5.9-50.7.2-14.9-.4-17.4-4.4-17.4-1.1 0-24.1 11.1-51.3 24.7-44.4 22.2-49.8 24.6-52.2 23.8-5-1.8-8.5-11.2-5.6-14.8.6-.7 25-13.4 54.2-28.1 34.1-17.3 53.7-27.7 55-29.3 2.5-3.2 2.5-6.7.1-20.8-3.6-20.6-10.3-45.6-13.6-50.3-2.8-3.8-5.8-2.8-13.7 4.6-47.2 44.3-90.2 84.4-93.6 87.4-5 4.5-7.9 4.8-12.2 1.1-3.7-3-5.1-6.2-4.3-9.2.3-1.2 25.2-25.4 55.4-53.7C437.3 121.1 462.4 97 463 96c1.7-3.2 1.1-5.8-3.1-14.3-7.4-14.6-21.9-36.3-30.4-45.3-3.8-4-7.3-4.4-10.2-1.2zM248.9 291.3c-28.6 8-41.9 50.5-26.3 83.5 4.2 8.7 12.6 17.7 19.9 21.3 4.2 2 6.5 2.4 14 2.4 8.1 0 9.5-.3 14.3-3 24.3-13.4 32.8-53.6 17.6-82.6-8.7-16.4-25.3-25.6-39.5-21.6zm41.5 115.2c-2.7 2-8.7 5.4-13.4 7.8l-8.5 4.2h-12c-14 0-18.9-1.5-30.9-9.6-8.9-5.9-12.3-6.2-21.3-1.9-19.6 9.2-27.3 26.6-28.9 64.5-.7 16.2-.3 41.2 6.7 42.6 5.8 1.1 143 1.1 148.8 0 2.5-.5 5.1-1.7 5.8-2.7 2.7-3.6 1.1-61.2-2.4-75.4-3.6-14.8-12.2-25.3-24.7-30.4-9.2-3.6-13.2-3.4-19.2.9z" fill="#f2f2f2"/></svg>