<svg xmlns="http://www.w3.org/2000/svg" viewBox="0 0 512 512" height="682.667" width="682.667" version="1.0"><g fill="#f2f2f2"><path d="M386.663 66.649c-14.372 3.92-30.137 11.846-37.28 18.727-5.487 5.4-10.975 14.023-10.975 17.42 0 2.352 1.22 3.833 8.014 10.104 18.64 17.16 28.221 39.98 40.241 95.988 4.181 19.424 4.791 20.992 7.665 22.56 3.05 1.655 18.553 3.397 21.69 2.526 4.006-1.133 11.061-6.881 20.12-16.463 9.581-10.017 13.85-16.724 14.46-22.56.26-3.484-.088-5.051-2.44-9.494-2.7-5.139-2.787-5.574-1.742-9.755 1.22-5.052.784-6.794-3.223-12.804-1.568-2.44-3.135-5.923-3.484-7.84-.958-6.097-2.439-7.926-9.407-11.236-9.146-4.355-10.278-7.142-5.4-13.501 5.052-6.707 5.836-8.275 5.836-11.498 0-2.787-.784-4.093-6.446-10.104-3.571-3.832-6.881-7.665-7.317-8.623-.522-.958-1.393-4.965-1.829-8.884-1.22-9.32-2.352-13.675-4.965-18.118-4.18-7.316-12.194-9.494-23.518-6.445zm-90.064 51.129c-13.675 3.659-26.48 15.069-42.42 37.542-20.73 29.44-24.214 33.36-33.534 37.715-12.194 5.749-16.985 6.097-72.557 5.14-21.689-.35-22.908-.262-29.615 1.654-9.93 2.875-14.633 5.75-23.43 14.111-16.202 15.591-25 30.834-29.441 50.955-2.004 9.233-1.307 33.448 1.393 48.69 1.22 7.143 2.265 13.937 2.265 15.157 0 1.132-3.746 13.5-8.275 27.437-4.53 14.024-9.668 30.486-11.41 36.758a5576.754 5576.754 0 01-4.443 15.678c-.784 2.788-1.132 6.881-.87 11.237.609 11.497-3.92 10.626 51.129 10.365 46.513-.087 46.6-.174 48.08-2.004.872-1.045 1.743-3.222 2.091-4.877.958-5.314-.87-7.84-10.278-13.937-10.104-6.532-10.888-7.839-9.407-15.504 2.352-11.759 7.49-23.17 18.117-39.72 8.275-13.065 12.456-21.252 14.982-29.266 1.132-3.484 2.787-6.88 4.094-8.013 2.526-2.352 7.665-2.613 10.626-.523 1.83 1.307 2.004 1.916 1.568 6.794-.522 6.794-2.264 11.933-7.752 22.908-4.878 9.843-5.052 12.369-.958 14.111 8.797 3.571 33.796 5.4 49.997 3.571 30.748-3.397 59.23-15.678 83.358-35.886 6.794-5.749 9.755-9.494 9.755-12.456 0-1.83-4.268-13.85-8.971-25.434-4.617-11.236-9.407-20.905-14.982-30.312-2.178-3.658-4.181-7.665-4.442-8.797-1.133-4.617 6.097-10.366 10.54-8.362 6.532 2.961 24.214 40.503 35.537 75.518 7.84 24.128 18.379 65.676 19.511 76.825.61 5.488-.174 6.62-6.358 9.581-6.01 2.788-6.707 4.443-6.272 14.198.61 12.282-3.135 11.236 40.765 11.585 23.169.174 37.715 0 38.935-.523 3.57-1.568 5.836-10.888 6.88-28.83 1.569-27.351-5.225-54.266-27.088-106.79-12.717-30.485-13.588-33.621-22.212-76.911-6.184-31.183-10.626-49.475-14.197-59.143-4.878-12.717-12.369-24.999-18.902-30.573-11.062-9.408-28.047-13.327-41.81-9.669z"/><path d="M300.954 345.03c-17.333 11.498-16.462 10.365-20.382 28.309-7.84 36.234-7.143 33.796-12.543 38.848-4.704 4.355-4.878 4.703-5.226 9.755-.349 4.442-.087 5.488 1.48 7.055 1.743 1.742 2.527 1.83 25.696 1.83 23.17 0 23.866-.088 26.218-1.917l2.439-1.916-.61-12.717c-.697-15.069-.348-16.288 5.662-20.034 6.62-4.006 6.62-3.484-.174-31.357-5.14-21.079-6.794-25.26-9.669-25.173-1.132 0-6.88 3.31-12.891 7.317zm-144.939 29.702c-.784.697-1.394 1.83-1.394 2.352 0 .61 2.526 12.02 5.574 25.347 4.965 22.037 5.75 24.563 7.927 26.392l2.352 2.09 37.018-.26c35.451-.262 37.02-.349 38.239-1.917 2.439-3.484.61-12.456-2.962-14.372-.87-.435-4.355-1.48-7.665-2.265-9.843-2.264-10.191-2.874-12.456-19.685-1.045-7.84-2.09-12.804-2.961-13.588-1.045-1.045-5.052-1.306-22.473-1.568-18.117-.174-22.472-.435-29.44-2.09-9.756-2.178-10.017-2.178-11.76-.436z"/></g></svg>