<svg version="1.0" xmlns="http://www.w3.org/2000/svg" width="682.667" height="682.667" viewBox="0 0 512 512"><path d="M430 31.3c0 .8 1.8 5.6 3.9 10.8 2.2 5.2 4.5 12.2 5.1 15.7 5 25.6-11.2 45.3-41.9 50.7-12.2 2.2-14 .4-10-9.7 6.9-17.2 7.6-31.2 2.2-42.5-2.6-5.6-4.5-4-6.4 5.9-1 5.2-3 11.1-5 14.8-6.4 12-20.4 21.6-38.1 26.2-9.4 2.4-11.2 2.3-28.8-1.8-5.5-1.3-11.5-1.8-23-1.8-13.4.1-16.8.4-25.2 2.7-11.3 3-23.3 8.4-33.8 15.2-10.7 6.9-28.9 25.6-38 39-4.1 6-8.2 11.1-9.1 11.3-6 1.1-.1-31.2 10.3-56.8 7.4-18.3 8.3-20.8 7.6-21.6-1.7-1.7-6.6 1.3-14.4 8.8-30.9 29.7-47.7 70.7-50 122.4-.4 7.7-1.1 14.7-1.6 15.7-1.8 3.5-5.1 1.2-16.6-11.3-27.8-30.2-35.5-38.1-37-37.8-.8.2-1.9 1-2.5 1.9-.7 1.2.8 28.1 5.2 91 5 72.1 6.6 90.1 7.9 92.9 1.4 2.8 16.5 14.3 79.7 60.2 42.9 31.2 79.3 57.3 80.9 58 2.5 1 3.4.9 6.6-.8 7.3-4.1 132.5-99.3 134.1-102 1.4-2.4 43-156.1 48.6-179.2 1.6-6.7 1.6-7.4.1-8.9s-1.9-1.4-5.1.5c-1.9 1.1-18.5 13.7-36.8 27.9-18.4 14.3-35.6 27.6-38.2 29.6-7.7 5.9-11.7 4.7-16.5-4.9-6-11.9-5.1-21.6 2.7-29.4 4.7-4.7 7.8-6.1 21.9-9.9 8-2.2 3.8-6.2-8.5-8.1-5.5-.9-8.4-.8-14 .4-10.1 2.1-14.6 4.7-24.4 14.2-4.7 4.6-9.1 8.4-9.7 8.4-1.9 0-2.6-4.9-1.3-10.3 2.1-9.1 7-17.8 14.2-25 11-11.1 20-14 39.1-13 8.6.4 13.3.2 19.8-1.1 28.5-5.7 54.7-26.7 68.6-55.1 14.6-29.8 12.4-59.1-6.1-82.8C439.6 33 430 26.9 430 31.3zM133.1 282.8c6.6 4.3 64.9 49.5 68.4 53.2 2.8 3 2.9 3.2 1.2 4.5-2.3 1.7-2.5 1.6-35.5-5.1-30.7-6.3-33.1-6.8-35.7-8.9-1.9-1.5-1.9-1.6-.1-2.8 4.8-3.2 6.6-5 6.6-6.9 0-1.1-2.7-8.4-6-16.3-5.9-14-7.4-20.5-4.7-20.5.7 0 3.3 1.3 5.8 2.8zm236.4 9.3c.4.5.1 3.9-.6 7.4-1.7 8.4-1.1 9.1 9.1 9.8 8.2.5 11 1.7 11 4.6 0 2.7-5.5 13.4-8.4 16.2-3.2 3.2-1.3 2.8-42.3 8.9-43 6.5-47 6.4-40.7-.1 3.1-3.2 60.6-43.2 66.3-46.1 4.1-2.1 4.8-2.2 5.6-.7zm-159.3 77.6c1.4 1.6 8.3 11.3 15.3 21.8 14 20.8 17 24.5 19.7 24.5 2.4 0 3.5-2.5 7-15.3 3.4-12.9 4.2-14.7 6.7-14.7 2.4 0 4.1 2.1 9.2 11.4 5 9 7.4 11.1 11 9.7 1.3-.5 11.2-8.4 21.9-17.6 19.7-16.8 24.5-20.4 26.1-18.8.4.4.9 3.3 1.1 6.3.3 5.2.5 5.5 3.1 5.8 1.7.2 8.3-1.8 16.8-5.2 25.7-10.3 25.5-8.1-1.4 22.1-16 18-18 19.3-19.1 11.8-.6-3.8-1.1-4.5-3-4.5-2.5 0-5.8 2.9-40.9 35.9-12.1 11.3-23 21.2-24.4 21.9-1.4.8-3.6 1.1-4.8.8-1.5-.4-9-8.3-19-19.9-9.1-10.5-17.9-20.3-19.6-21.6-3.6-2.9-5.4-1.8-6.2 4-.7 4.9-1.8 6.3-4.5 5.4-2.1-.6-42.6-41.9-51.6-52.4-9.3-11-4.8-10.8 19.9.9 10.4 5 19.7 9 20.6 9 2.9 0 4.8-3.5 6.5-11.6 1.7-8.3 3.6-12.4 5.7-12.4.7 0 2.5 1.2 3.9 2.7z" fill="#f2f2f2"/></svg>