<svg version="1.0" xmlns="http://www.w3.org/2000/svg" width="682.667" height="682.667" viewBox="0 0 512 512"><g fill="#f2f2f2"><path d="M22.1 21.9c-1.2 1.2-2.2 4-2.6 7.3-.9 7.9-.1 216 .9 218 1.5 3.1 3.5 2 7.2-4 7.9-12.5 11.2-17 19.6-25.7 11-11.6 22.9-20.1 38.7-27.7 16.8-8.1 25.1-13.6 35.1-23.7 13.5-13.5 19-26.1 19-44.1.1-33.7 12.1-63.7 35-87.4 8.9-9.2 10.8-12.7 7.4-14-.9-.3-36.9-.6-80-.6-75.9 0-78.5.1-80.3 1.9zm200.2 5.5C200 32.5 178.1 53.2 167 79.7c-5.7 13.5-7.4 22.5-7.5 37.8 0 13.1.2 14.6 3.1 22.7 4.8 13.5 14.6 25.8 20.6 25.8 1.6 0 3.6-1.5 17.8-13.8 10.9-9.3 12.2-7.1 9.1 14.4-1.8 12.8-1.9 14.9-.7 17.9 3 7.1 6.7 7.1 21.8-.1 6.4-3.1 12.5-5.4 13.5-5.2 3.4.6 2.5 5-3.2 16.6-5.9 12.2-6.5 15.2-3.7 19.5 4.4 6.6 7.1 6.9 25 3 11.1-2.4 12.4-2.5 13.8-1.1 1.4 1.4 1.4 1.9.1 4.4-.8 1.6-4.9 7.1-9.1 12.2-9.9 12.1-10.7 15.5-5.2 21.9l2.4 2.8 13.6-.3c15.6-.4 17.6 0 17.6 3.3 0 1.7-2.8 4.9-10.1 11.7-13.3 12.3-14.8 15.4-11.4 23.3 1.8 4.4 3.5 5 18 6.9 20.2 2.7 20.5 4.4 2.8 15.9-7.1 4.6-13.5 9.2-14.3 10.2-1.1 1.3-1.5 4.1-1.4 9.3 0 7 .2 7.7 3 10.1 2 1.8 6 3.5 11.9 5 12.6 3.3 17.5 5.5 17.5 8 0 2.3-2.9 4-19.3 11.1-10.6 4.6-13.7 7.4-13.7 12.6 0 6.6 1 7.4 17.3 13 5.6 2 11.1 4.4 12.1 5.4 1.9 1.9 1.9 2 .2 3.9-1 1.1-6.6 3.6-12.4 5.7-15.5 5.4-18.8 6.9-20.6 9.6-.9 1.3-2.4 8.8-3.6 17.3-1.2 8.3-3 20.4-4.1 27-2.2 12.8-1.9 16.5 1 16.5 6.2 0 38.8-32.6 55.5-55.5 8.2-11.2 24.3-38.5 31.6-53.9 37.5-78 36.6-165.3-2.5-239.4-13.1-24.7-29.4-46.4-51.9-68.7-22.9-22.8-37-33.3-50.6-37.6-8.4-2.7-20.7-3.3-28.7-1.5z"/><path d="M107.7 202.1c-25.6 6.3-51.8 27.3-64 51.5-5.6 11-7.2 18-7.2 30.9.1 14.2 1.8 20 9.1 30.8 6.3 9.2 14.2 16.1 31.4 27.6 50.9 33.7 104.2 51.1 157.1 51.1 19 0 23.1-.9 25.1-5.7 2-4.7 1.6-55.1-.5-69.8-3.1-20.8-6.7-33.5-9.6-33.5-.4 0-2.5 1.1-4.5 2.5s-4.1 2.5-4.6 2.5c-2 0-3.1-4.4-3.8-16-1-13.8-2-15.8-10.2-18.5-6.3-2.1-8.1-1.3-18.5 8-4.7 4.1-9.4 7.5-10.5 7.5-3 0-3.4-3.8-1.6-13.7 2-11.1 2-14.3-.2-16.9-4.8-6-9.2-5.7-24.2 1.6-18.6 9.2-20 7.9-12.1-10.9 2.8-6.5 5.1-12.6 5.1-13.5 0-5-14.3-14.1-25.8-16.5-7.9-1.6-21.6-1.2-30.5 1zM466 219.8c-9.6 4.3-20.6 9.1-24.4 10.7-9.7 4.2-10.4 5.4-11.6 21.3-1.6 21.9-3.2 22.3-16.2 3.9-9.4-13.2-11.2-11.7-12.2 10-.8 18.4-2.6 33-6.1 50.2-3 14.6-3.1 16.7-.8 17.5 6 2.3 44.1-35.7 64.2-63.9 14.9-21 30.5-49.4 29.9-54.5-.5-4.2-4.3-3.4-22.8 4.8z"/></g></svg>