<svg version="1.0" xmlns="http://www.w3.org/2000/svg" width="682.667" height="682.667" viewBox="0 0 512 512"><g fill="#f2f2f2"><path d="M246.9 20.9c-5.7 1.9-14.8 7.4-18.6 11.4C222 38.8 157 132.9 157 135.5c0 1.2.8 2.9 1.8 3.8 1.8 1.6 29.9 15.4 43.9 21.6 15.9 7 17.2 4.9 4.9-7.8-4.7-4.7-8.7-9.7-9.1-11.1-.7-2.9 7.3-19.9 17.4-37 32.2-54 53.5-50.9 85.9 12.7 4.4 8.7 8.6 17.7 9.2 20 1.6 5.1.4 7.2-7.7 14.6-10.7 9.9-11.8 14.2-2.7 11.1 7.2-2.4 45.4-20.4 49.2-23.1 3.9-2.9 4.1-5.7.6-10.9-18.5-27.5-66.9-95.8-70-98.9-7-6.9-13.6-9.8-22.9-10.2-4.4-.1-9.2.1-10.6.6zM333 169.7c-.8.4-17.7 8.3-37.5 17.6-29.6 14-36.8 17.1-40.5 17.1-3.8 0-10-2.6-40-16.8-21.3-10.1-36.7-16.8-38.6-16.9-1.8-.1-3.9.5-4.8 1.2-1.3 1.1-71 82.4-92.9 108.4-7.5 8.8-7.5 10.9-.4 17.1 2.8 2.6 7 5.5 9.2 6.6 2.3 1.1 17 4.9 32.7 8.5 30.6 7 32.7 7.1 34.8 2.3.6-1.3 6.6-25.3 13.5-53.3 6.9-28.1 12.9-52 13.5-53.2.5-1.2 2.2-2.6 3.7-2.9 3.7-1 11.4 3.2 12.6 6.8.6 2.1-6.2 31.4-32.2 137.7-18.2 74.3-33.1 136.4-33.1 138 0 6.1.1 6.1 45.3 6.1h40.8l2.4-2.5c1.4-1.3 2.5-2.8 2.5-3.2 0-.4 3.4-57.3 7.4-126.4 4.6-77.6 7.8-126.5 8.5-127.8 1.4-2.5 3.8-2.6 10.4-.6 4.5 1.3 5.3 1.3 10.5-.5 3.1-1.1 6.4-2 7.4-2 4.7 0 4.5-2.2 12.3 130.9 4.2 71.5 7.9 127 8.5 128.1.6 1.1 1.9 2.4 3 3 1.2.6 16.6 1 42.2 1 44.4 0 44.8-.1 44.8-5.9 0-1.5-14.8-63.4-33-137.5-18.1-74.1-33-135.8-33-137.2 0-3.3 3.8-7 8.9-8.5 7.3-2.2 6.8-3.4 21.3 55.8 7.1 29 13.6 53.8 14.4 55 .8 1.3 2.5 2.5 3.9 2.9 2.7.7 63.3-12.9 67.8-15.2 1.5-.8 4.8-3.4 7.2-5.8 5.9-5.6 5.8-7.9-.1-15.2-15.9-19.4-94.1-110.2-96.3-111.6-2.7-1.8-4.5-2.1-7.1-1.1z"/><path d="M105.3 330c-3.1 1.3-4.6 7.3-3.3 13.9 1.2 6.3 3.1 10.1 7.7 15.2 9.8 10.9 29.9 13.4 33.4 4.2 2.3-6.1 5.1-19.4 4.5-21.7-.9-3.5-2.4-4.1-19.3-8-19.7-4.5-20.5-4.6-23-3.6zm292.7.6c-19.7 4.1-29.3 6.8-31.8 8.9l-2.7 2.3 1.8 8.9c2.4 11.7 4.2 15.2 8.6 17 5.1 2.1 14.3 1.2 20.7-2 5.3-2.7 11.2-8.5 13.9-13.6 2.5-4.9 3.6-12.8 2.5-17.1-1.4-5.1-4.4-6.1-13-4.4z"/></g></svg>