<svg version="1.0" xmlns="http://www.w3.org/2000/svg" width="682.667" height="682.667" viewBox="0 0 512 512"><g fill="#f2f2f2"><path d="M129.3 23.5c-4.2 1.8-5 5-2.7 11.7 8.4 25.7 22 44.1 38.6 52.2 14.7 7.2 28.7 8.1 63.8 4.1 11.8-1.4 25-2.5 29.2-2.5 17.7 0 32.8 3.9 47.3 12.1 10.3 5.8 14.7 6.9 19.3 4.5 5.3-2.7 6.6-5.7 5.9-13.7-1.4-16.7-13.8-32.2-33.2-41.5-9-4.4-11.9-4.4-14.5-.2-4 6.7-2.4 9.7 8.3 15.7 6.2 3.5 12.7 9.1 12.7 11 0 2.5-3.1 2-16.2-2.3-15.5-5.1-29.1-7.9-50-10.1-8-.9-16.8-2.2-19.5-3-10.5-3.1-17.4-9.8-22.8-21.9-1.3-2.9-3.1-6-4-6.9-2.7-2.8-10.4-1.7-12.7 1.7-3.1 4.5 3.7 19.6 13.5 30.4 3.7 3.9 6.7 8.1 6.7 9.2 0 2.7-5.2 3.5-13.8 2-19.7-3.3-31.2-15.2-42.2-43.8-4-10.3-6.4-11.9-13.7-8.7z"/><path d="M230.7 26.8c-3.6 4-.9 19.3 4 23.2 2.1 1.7 3.8 2 8.2 1.8 5.3-.3 5.6-.5 5.9-3.1.2-1.5-.3-4.9-1.1-7.5-.9-2.6-1.8-6.4-2.2-8.5-.3-2.1-1.5-4.7-2.6-5.8-2.6-2.6-9.9-2.6-12.2-.1zm112.9 17.3c-3.2 3.8-3.2 5.7-.1 11.9 3.1 6.1 3.2 9.7.3 12.7-2.5 2.6-2.6 4.9-.8 15.2 1.6 9.3 3.9 12.1 10.3 12.1 7.4 0 10.4-5.2 11.4-20 .6-9.9-1.2-18.8-5.4-25.9-5.7-9.8-10.9-11.7-15.7-6zM250.9 108c-5.8 1-8.2 2.3-10.8 5.6-4.6 5.9-.9 12.6 11.5 20.4 12.1 7.6 22.2 10.8 43.6 13.5 7.7 1 7.8 1.2 7.8 20.9 0 18.5-1 24.9-5.5 34.1-8.2 16.9-27 29.9-50.5 34.9-4.1.9-19.1 2.3-33.2 3.1-27.6 1.5-39.3 3-55.7 7.1-25 6.2-45.3 16.7-59.3 30.7-7.2 7.2-14.9 18.8-16.8 25.4-1.1 3.6-1 4.6.6 7.9 2.4 4.9 5.7 7.2 11.8 8.3 2.9.5 5.6 1.7 6.3 2.8 1.1 1.4 1.3 7.7 1.1 30.9l-.3 29-6.6 10.5C85.3 408.3 85 409 85 416.8c0 11.6 3.9 67.9 4.9 70.6 2.2 5.6 13.7 5.5 15.9-.2.6-1.5 1.4-14.6 1.7-29.2.3-14.6 1.1-27.9 1.6-29.7.7-2.3 3-4.6 7.7-7.9 30.5-21.6 51.1-46.9 60.1-74 6.2-18.7 6.6-36.8 1.1-57.8-1.7-6.5-2.8-12.7-2.5-13.7.7-2.1 4-4.3 7.8-5.3 4.5-1.1 7.9 3.2 10.6 13.2 3.4 12.6 4.2 18.6 4.2 32.2.1 14.4-1.6 23.7-6.7 37.9-3.9 11-4 11.4-1.8 13.5 1.9 1.9 10 2.1 29 .6 30.5-2.4 36.8-3.8 38-8.6.4-1.4-.1-11.2-1-21.7-2.1-24.8-2.1-26.2.4-28.7 3.1-3.1 10.4-2.8 12.6.5 1.2 1.9 3.1 20.1 8.9 89.3 4.1 47.7 7.9 88 8.4 89.4 2.2 5.8 13.7 5.8 16 0 .6-1.6 1.4-22.4 2.1-52.7 1.1-54.1 1.5-61.2 3.3-63.6.7-.8 4.6-4 8.7-7 26.9-19.8 45.1-60.1 52-114.6 2.3-18.8 4-39 4-48.5 0-7.2-.8-9.7-4.3-13.6-3.9-4.2-1.8-4.7 26.7-5.2 29-.5 28.9-.5 31.6-7 2.1-5 1-8.2-3.7-10.8-5.4-3-6.2-5.4-2.9-9.3 3.2-3.7 3.2-4 .4-6.6-3.5-3.2-68.2-36.3-72.2-37-2.9-.5-5.6.4-15.5 5.2l-12 5.7-10.8-5c-15.8-7.3-24.1-9.3-40.3-9.7-7.4-.2-15.6 0-18.1.5z"/><path d="M357.6 345.2c-10.5 13.6-18.6 25.6-18.6 27.4 0 3.3 2.4 4.8 19.5 12.4 8.8 3.9 17 7.8 18.3 8.6 3.7 2.5 2.8 6.8-5.4 25.5-4.1 9.5-7.6 18.6-7.6 20.2-.2 6.5 9.5 10.3 13.9 5.5 2.9-3.2 29.3-55 29.3-57.6 0-1.1-.3-2.8-.6-3.7-.4-.9-9-8.6-19.2-17.2-10.1-8.6-19.8-17.6-21.5-20-1.7-2.3-3.7-4.3-4.3-4.3-.7 0-2.4 1.5-3.8 3.2zm-181.1 41.3c-2.6.9-5.7 3.4-9 7.2-2.7 3.2-8.7 9.7-13.2 14.5-8.1 8.4-8.3 8.8-8.3 13.6 0 7.3 6.8 64 8 66.2 1.5 2.9 7.3 4.4 11.4 3 1.9-.6 3.8-1.9 4.2-2.8.5-.9 1.1-15 1.4-31.3l.5-29.6 15-15.5c15.9-16.4 19.7-21.6 17.9-24.6-.9-1.4-2.9-1.7-12.5-1.9-7.8-.2-12.7.2-15.4 1.2z"/></g></svg>