<svg xmlns="http://www.w3.org/2000/svg" viewBox="0 0 512 512" height="682.667" width="682.667" version="1.0"><path d="M253.059 41.438c-3.794.013-7.258.244-9.914.72-19.612 3.487-41.837 15.363-59.814 31.815-5.12 4.685-11.223 12.313-11.223 14.056 0 2.724 7.082-.329 19.939-8.609 9.914-6.537 13.074-6.645 21.68-1.088 12.203 7.953 13.293 7.734 18.414-3.052 5.665-11.985 13.837-18.194 23.861-18.194 10.132 0 17.322 5.448 23.968 18.304 5.448 10.46 5.885 10.568 16.018 4.249 11.113-6.973 13.726-6.974 23.968-.219 12.856 8.28 19.938 11.333 19.938 8.609 0-2.07-6.755-10.025-13.51-16.126-15.144-13.292-32.25-23.098-48.592-27.674-6.442-1.798-16.386-2.822-24.733-2.791zm2.943 37.657c-1.09 0-2.833.762-3.704 1.634-2.506 2.506-4.14 9.805-3.269 14.381.763 3.922 4.685 9.043 6.973 9.043.654 0 2.288-1.09 3.704-2.506 6.21-6.21 3.487-22.552-3.704-22.552zm-52.407 18.52c-1.743 0-6.972 2.725-12.856 6.538-7.953 5.23-9.914 6.972-9.914 9.151 0 2.07.87 2.943 3.594 3.815 7.3 2.288 41.621 4.357 45.87 2.722.98-.326 1.743-1.633 1.743-2.722 0-3.923-22.772-19.503-28.437-19.503zm104.377 0c-1.526 0-7.3 2.942-12.857 6.646-5.666 3.705-11.332 7.627-12.639 8.935-3.377 3.05-3.158 5.992.437 6.864 3.487.872 27.782-.217 38.677-1.743 12.965-1.852 13.511-4.685 2.616-12.311-8.498-6.101-12.966-8.39-16.234-8.39zM22.656 121.612c-1.076.029-1.827.233-2.209.628-1.743 1.634-.654 3.595 8.716 16.015 17.868 23.86 34.32 53.06 48.157 85.745 3.704 8.717 7.627 16.779 8.826 17.978 3.704 3.813 5.01.544 9.151-23.752 2.07-12.42 5.23-29.526 7.083-38.024 1.743-8.39 3.268-16.67 3.268-18.304 0-4.903-7.191-10.132-27.565-20.156-24.405-11.916-47.893-20.33-55.427-20.13zm465.887.222c-3.632-.102-9.87 1.413-18.45 4.546-24.842 8.934-52.407 22.227-59.598 28.764-5.12 4.576-5.12 5.12-.87 25.058 1.851 8.498 5.01 25.604 7.08 38.024 4.14 24.296 5.447 27.565 9.152 23.752 1.198-1.199 5.121-9.261 8.825-17.978 13.837-32.685 30.29-61.884 48.157-85.745 5.339-7.082 9.48-13.51 9.37-14.49-.245-1.225-1.486-1.87-3.666-1.93zm-344.98 8.577c-.218 0-1.416.437-2.723.981-3.596 1.417-6.32 6.537-10.569 20.156-7.953 24.841-15.144 61.667-20.918 106.447-3.16 25.385-4.685 54.584-2.833 55.782 2.07 1.308 4.358-3.813 13.945-31.595 15.254-44.235 28.11-74.415 41.293-96.969 7.409-12.638 11.44-18.521 21.464-30.724 4.032-5.011 7.409-10.022 7.409-11.22 0-1.417-1.199-2.725-3.596-3.705-2.724-1.09-42.056-9.48-43.473-9.153zm223.825.562c-.755.009-1.564.078-2.435.2-7.736.981-36.935 7.192-39.986 8.39-2.397.981-3.594 2.289-3.594 3.705 0 1.199 3.377 6.21 7.409 11.221 23.642 28.546 40.31 62.648 62.755 127.693 9.588 27.891 11.877 32.903 13.947 31.595 1.852-1.198.326-31.487-2.943-56.001-6.864-52.842-14.926-91.629-24.078-115.598-3.146-8.39-5.791-11.272-11.075-11.205zm-111.645 10.225c-11.59 0-23.166.545-26.217 1.634-5.992 2.288-16.017 9.26-17.324 12.093-1.743 3.813.218 5.449 10.896 8.717 14.926 4.467 20.918 8.607 20.918 14.49 0 5.448-12.42 9.043-20.7 6.102-7.517-2.724-19.066-4.903-25.712-4.903-5.23 0-6.538.436-9.262 3.16-3.377 3.377-4.03 6.755-1.743 8.498.654.654 5.448 1.416 10.569 1.743 11.331.872 19.83 3.05 30.18 7.844 10.023 4.685 11.33 6.864 8.607 15.253-3.704 11.658-16.889 22.445-29.527 23.97-6.973.872-19.285-2.287-29.853-7.517-13.183-6.646-13.945-6.102-22.661 15.688-8.607 21.246-10.46 27.675-9.806 32.905.763 6.1 16.234 36.934 25.277 50.444 20.265 30.288 47.394 56.655 69.947 67.768 7.518 3.704 9.261 4.14 16.67 4.14 7.409 0 9.152-.436 16.778-4.14 23.86-11.876 53.495-41.512 73.651-73.761 8.063-12.857 20.811-39.223 21.465-44.562.653-5.12-1.308-11.657-9.806-32.794-8.716-21.79-9.48-22.334-22.663-15.688-10.568 5.23-22.88 8.389-29.744 7.517-12.856-1.634-25.93-12.203-29.634-23.97-2.724-8.39-1.416-10.568 8.607-15.253 10.35-4.794 18.849-6.972 30.18-7.844 5.12-.327 9.914-1.089 10.677-1.743 2.288-1.743 1.525-5.122-2.07-8.608-3.268-3.269-3.487-3.377-11.331-2.723-4.358.436-11.767 1.96-16.452 3.486-10.241 3.268-12.639 3.269-18.631.654-6.755-3.16-7.844-6.646-3.704-11.44 2.397-2.724 6.863-4.902 16.887-8.28 9.696-3.269 11.549-5.012 9.697-9.043-1.417-3.05-11.44-10.024-17.869-12.203-3.105-1.09-14.707-1.634-26.297-1.634zm-60.755 65.371c-1.199 0-3.487 1.198-4.903 2.723-1.525 1.416-2.723 3.595-2.723 4.903 0 2.941 4.684 7.627 7.626 7.627s7.627-4.686 7.627-7.627c0-2.942-4.685-7.626-7.627-7.626zm122.135 0c-1.09 0-3.269.98-4.903 2.287-3.813 3.05-3.813 7.627 0 10.677 3.596 2.833 6.32 2.943 9.153.11 4.25-4.249 1.307-13.074-4.25-13.074zm-64.163 71.53c.972.007 2.02.024 3.15.051 6.864.11 12.748.217 13.075.217 1.743.218 1.96 3.705.435 6.537-4.467 8.716-22.771 8.716-27.238 0-1.961-3.704-1.96-3.703-.217-5.555.953-.858 3.992-1.299 10.795-1.25zm125.067 36.333c-.327 0-1.417.653-2.397 1.307-.872.762-5.23 7.516-9.587 14.925-4.467 7.409-12.747 19.721-18.413 27.239l-10.46 13.728.11 12.529c.218 22.226 8.934 65.915 19.72 98.928 9.588 29.744 12.312 30.072 26.911 2.507 4.25-8.062 8.606-15.145 9.696-15.799 2.833-1.852 5.121.219 10.024 8.935 6.102 10.786 10.786 16.125 17.977 20.81 7.3 4.685 18.195 8.28 22.226 7.3 5.23-1.308 3.922-5.775-12.312-42.927-20.81-47.612-24.95-59.162-34.428-95.007-10.786-40.748-15.58-54.475-19.067-54.475zm-244.22.233c-.518.036-1.023.27-1.574.638-.654.436-1.744 1.743-2.29 2.941-2.505 4.685-9.26 29.526-11.875 43.254-7.735 40.53-17.432 68.749-39.33 114.4-7.628 16.125-11.223 24.84-11.005 26.801.327 2.724.653 2.943 5.774 2.943 12.094-.109 25.603-10.35 34.428-26.04 5.34-9.588 7.518-11.658 10.569-9.806.98.654 5.122 7.3 9.153 14.709 9.915 18.086 15.143 22.661 19.937 17.323 2.724-3.051 10.568-27.347 16.343-50.444 6.646-27.238 10.569-51.753 10.787-67.333l.108-12.747-3.812-4.686c-9.697-12.202-17.978-23.968-25.169-36.17-7.347-12.394-9.804-15.941-12.045-15.783zm110.69 3.977c1.73 0 3.533.347 6.41 1.039 4.371 1.02 5.244 1.02 10.706-.146 5.609-1.165 6.338-1.165 10.926 0 4.007.947 14.205 5.243 24.11 10.05 2.623 1.311 2.04 4.007-1.456 7.358-4.662 4.443-13.84 11.07-18.574 13.401-4.88 2.404-11.363 2.77-17.117.948-3.06-.874-3.934-.874-6.92 0-5.827 1.821-12.31 1.456-17.19-.948-4.735-2.33-13.913-8.958-18.574-13.401-3.497-3.35-4.08-6.047-1.384-7.358 8.74-4.297 19.811-9.03 23.089-9.904 2.586-.692 4.244-1.04 5.974-1.04zm-47.532 78.549c-1.186.06-1.97.664-2.413 1.787-1.416 3.596-.544 8.606 2.289 13.4 4.576 7.954 19.828 30.507 22.225 32.904 3.705 3.705 6.865 2.615 15.255-5.23 8.171-7.735 11.22-12.203 10.13-15.035-.435-.872-5.663-4.14-11.765-7.082-5.992-2.941-15.69-8.825-21.355-13.074-7.191-5.318-11.755-7.804-14.366-7.67zm118.04.041c-2.684-.065-7.483 2.59-15.423 8.283-6.32 4.576-15.907 10.46-21.354 13.075-5.557 2.614-10.242 5.556-10.678 6.537-1.09 2.724 1.962 7.19 10.133 14.925 8.39 7.845 11.549 8.935 15.253 5.23 2.397-2.397 17.65-24.95 22.226-32.904 2.832-4.794 3.705-9.804 2.288-13.4-.442-1.123-1.225-1.716-2.445-1.746zm7.216 45.214c-.835.003-1.774.493-2.918 1.31-1.307.872-6.21 7.3-10.896 14.273-4.685 6.973-14.055 19.612-20.701 28.002-12.312 15.47-14.49 26.783-12.203 29.07 1.417 1.417 55.349 2.508 61.886 1.31 5.665-.981 5.665-11.533 0-29.728-2.833-8.716-6.32-20.808-7.845-26.8-3.268-13.075-4.821-17.447-7.323-17.437zm-132.452.039a1.73 1.73 0 00-.883.292c-2.07 1.307-3.485 5.012-6.427 16.67-1.525 6.21-5.013 18.52-7.845 27.236-5.666 18.195-5.666 28.747 0 29.728 6.537 1.198 60.469.107 61.885-1.31 2.288-2.287 0-13.926-11.767-28.635-6.428-8.062-15.906-20.7-21.027-28.11-8.103-11.82-11.703-15.968-13.936-15.871zm66.233 7.046c-2.833 0-4.794 1.308-11.004 7.518-9.261 9.261-9.589 11.44-3.052 19.939 13.292 16.996 14.818 16.996 28.11 0 6.537-8.498 6.211-10.678-3.05-19.939-6.21-6.21-8.171-7.518-11.004-7.518z" fill="#f2f2f2"/></svg>