<svg version="1.0" xmlns="http://www.w3.org/2000/svg" width="682.667" height="682.667" viewBox="0 0 512 512"><path d="M245.5 26.8c-18.8 6.8-41.8 18.1-43.6 21.3-.9 1.8-.7 2.6.8 4.8 1.1 1.4 16.3 13.7 33.8 27.4 17.6 13.6 33.2 25.9 34.7 27.4 4.5 4.3 3.8 6.8-4.7 16.1-4.1 4.5-7.5 9.1-7.5 10.2 0 3 3.1 5.7 28 24.6 29.2 22 34 26 34 28.5 0 2.3-1.7 2.4-9.5.4-12.5-3.3-116.1-35.8-118.2-37.1-4.5-2.8-3.1-5.9 7.1-15.8 11.3-11 12.6-13 9.8-15.8-2-2-68.3-23.8-72.4-23.8-2.8 0-5.5 1.7-11.9 7.2-9.9 8.6-36.2 38.8-42 48.3-3 4.7-2.3 9.1 4 26.6 16.2 45.3 23.3 74.9 24.7 102.9 1.5 29.5-6 65.7-24 116-3.1 8.5-5.6 16.9-5.6 18.6 0 4 3.7 7.5 17.7 16.6 38.5 25.4 82.9 43.5 119.3 48.9 13.7 2 14.3 1.3 17.9-17.6 10-53.2 10.3-113.8 1.1-179.5-3.4-24-4.2-25-16.8-23-18 2.8-40.4 9.7-62.4 19.1-7.5 3.3-14.1 5.9-14.6 5.9s-1.6-.8-2.5-1.8c-1.5-1.6-1.7-5.3-1.7-31.5 0-20 .4-30.4 1.1-32.1 1.6-3.4 6.3-5.1 23.7-8.6 32-6.4 58.2-8.5 97.7-7.7 27.7.6 44.2 1.8 69.5 5.2 15.8 2.1 39.8 6.3 43.8 7.6 5.8 1.9 6.2 4.2 6.2 35.6 0 28.7-.5 32.4-4.2 33.1-.9.2-7.4-2.1-14.4-5.1-28-11.7-64.1-21.5-71.1-19.3-3.9 1.3-5 6.3-8.3 37.7-5.4 52.7-4.3 110.7 3.1 161.4 1.1 7.7 2.6 15.1 3.2 16.5 2.1 4.3 5.2 4.6 18.8 1.6 24.6-5.5 50.4-15.2 73.7-27.8 11.7-6.3 37.9-23.2 43.9-28.2 5-4.2 5-6.7-.1-24.3-14.3-50.2-19.6-79.7-19.6-109.8 0-30.4 4.7-56.6 19.7-109.9 6.7-23.8 6.8-22.5-4.6-37.6C389 94.8 335 55 274 30c-16.1-6.6-18.4-6.8-28.5-3.2z" fill="#f2f2f2"/></svg>