<svg xmlns="http://www.w3.org/2000/svg" viewBox="0 0 512 512" height="682.667" width="682.667" version="1.0"><g fill="#f2f2f2"><path d="M225.466 37.868c-2.912 3.006.658 11.93 7.61 18.507 2.817 2.724 4.227 4.79 3.945 5.918-.376 1.879-3.476 2.067-16.722 1.221l-5.167-.376-.281 3.1c-.752 7.234 6.2 15.313 15.876 18.507 2.63.94 5.26 2.536 6.106 3.852 1.409 1.972 1.315 2.912-.658 10.897-1.972 7.609-2.254 10.99-2.16 26.585 0 15.876.281 19.07 2.536 28.934 2.912 12.776 3.006 13.81 1.221 13.81-2.16 0-8.548-7.798-14.279-17.474-14.373-24.424-29.403-64.725-36.073-96.853-1.503-7.046-3.288-13.34-4.04-14.091-2.16-2.255-6.294.563-13.621 9.3-13.434 16.064-19.352 27.337-24.143 46.219-6.012 24.143-8.924 46.5-8.924 69.235 0 31.188 5.166 55.237 17.19 79.756 5.074 10.427 6.483 12.588 13.247 19.258 14.654 14.466 29.497 20.197 52.23 20.197 4.04 0 7.704.47 7.986.94 1.127 1.878-5.073 6.293-18.882 13.151-16.252 8.267-23.392 14.28-26.21 22.076-2.348 6.576-3.664 7.703-12.588 11.837-4.321 2.067-13.997 7.703-21.419 12.682-21.606 14.373-30.53 17.567-38.328 13.903-7.421-3.476-9.206-12.118-4.227-20.76 1.503-2.631 6.952-9.395 11.93-15.031 12.964-14.186 15.783-17.943 18.507-23.768 6.388-13.715.658-22.733-22.546-35.133-23.203-12.4-30.813-17.004-35.322-21.325l-4.509-4.227v-7.516c0-9.206-2.442-15.03-8.83-20.855-5.449-5.073-15.5-9.864-20.667-9.957-3.288-.094-3.852.187-4.134 2.066-.188 1.128.658 4.697 1.785 7.985 1.785 4.697 2.255 8.361 2.536 18.976.188 7.234.752 13.622 1.222 14.185.47.564 3.382 1.597 6.388 2.161 3.475.658 7.703 2.443 11.46 4.885 3.194 2.067 12.87 7.515 21.513 12.118 22.64 11.931 29.31 16.628 32.504 22.64 3.1 6.106 1.69 8.643-13.34 24.425-20.197 21.325-27.149 32.691-27.055 44.528 0 7.61 1.879 12.025 7.61 17.661 5.072 5.167 10.145 7.891 18.6 10.052 17.473 4.415 41.146.751 61.813-9.582 9.206-4.603 11.367-4.51 11.742.563.282 2.819-.563 5.449-3.194 10.804-6.294 12.87-19.445 23.673-34.852 28.652-6.67 2.254-9.112 5.354-12.588 16.815-3.945 12.87-8.173 21.419-14.373 29.216-2.912 3.57-5.26 7.233-5.26 8.173 0 2.442 5.166 6.294 14.466 10.897 11.743 5.636 14.28 5.542 25.928-1.127 11.461-6.576 19.446-8.643 26.867-7.234 2.912.658 7.703 2.255 10.804 3.57 8.548 3.851 10.24 2.067 6.106-6.764-4.228-9.112-11.367-12.87-27.15-14.091-9.957-.752-10.615-2.255-2.536-6.2 7.516-3.758 18.037-5.073 28.37-3.664 9.3 1.315 11.18.94 21.42-4.133 7.702-3.852 14.936-9.3 18.881-14.091 1.597-2.067 5.543-9.019 8.549-15.5 12.118-25.459 20.76-34.007 28.934-28.559 8.079 5.449 12.306 11.555 18.788 27.807 4.885 12.118 9.488 18.6 14.373 20.197 3.006 1.033 5.26.846 15.5-1.033 24.05-4.51 26.68-4.322 35.792 3.194 7.046 5.918 9.958 7.14 19.352 7.985 4.227.375 9.018 1.503 11.085 2.536 6.67 3.382 8.924 10.803 5.824 19.54-1.69 4.697-1.315 5.636 2.443 5.636 6.294 0 14.56-6.763 16.815-13.621 2.537-7.61-.563-15.876-9.394-25.364-6.388-6.858-7.327-9.394-5.167-13.528 2.443-4.885 6.576-6.857 13.246-6.482 4.885.282 6.952 1.034 14.373 5.355 7.046 4.04 8.83 4.79 9.958 3.852 1.972-1.597 1.785-2.725-1.41-9.113-7.89-15.876-26.585-23.015-41.615-15.97-3.1 1.41-7.985 4.885-11.367 8.173-3.194 3.1-6.67 5.637-7.61 5.637-.939 0-5.542-2.443-10.239-5.543-4.697-3.006-11.743-6.67-15.594-7.985-3.852-1.41-7.61-3.194-8.173-4.04-.752-1.033-1.221-4.79-1.221-10.145 0-10.521-1.128-17.097-4.791-28.464-1.88-5.449-2.725-9.582-2.349-11.085.376-1.315 4.697-6.67 9.582-11.93 4.979-5.262 12.025-13.528 15.594-18.32 3.57-4.696 7.422-9.112 8.455-9.675 2.443-1.315 7.985-.658 24.237 3.1 21.982 4.979 35.98 10.803 43.589 18.224 3.1 3.006 6.388 8.737 8.454 14.75 1.597 4.79 6.764 1.596 10.522-6.389 4.415-9.394 2.442-15.97-7.046-23.203-9.206-6.952-10.427-10.898-4.979-16.064 5.73-5.261 13.622-5.73 22.922-1.41 5.448 2.443 6.67 2.725 7.421 1.598 3.476-5.543-5.167-17.661-14.936-20.95-5.073-1.784-13.998-1.972-18.977-.469-1.972.658-5.824 2.818-8.548 4.885-6.106 4.603-8.455 5.26-14.373 4.133-5.73-1.033-12.025-4.133-20.95-10.24-9.017-6.2-9.487-7.608-6.95-19.07 1.033-4.884 2.442-9.77 3.1-10.709 1.408-2.348 5.448-4.039 16.909-7.233 8.267-2.255 12.212-3.946 25.74-11.085 4.603-2.443 4.978-2.443 11.273-1.41 14.842 2.443 27.994-4.978 29.31-16.627.375-3.757.281-4.133-1.504-4.133-1.127 0-4.697 1.503-7.985 3.288-10.24 5.636-16.158 3.663-18.506-6.106-1.973-8.173.47-15.313 6.763-20.01 5.073-3.758 9.489-4.697 18.319-4.04 6.576.564 7.891.47 8.36-.75.846-2.255-3.005-7.704-7.702-10.71-17.661-11.743-39.55.282-44.528 24.425-.564 2.912-1.88 6.388-2.913 7.703-4.885 6.2-27.43 7.89-34.57 2.63-1.221-.94-3.946-4.415-5.918-7.703-7.14-11.837-16.064-19.352-36.825-31.095-17.755-9.957-20.48-13.151-16.534-19.445 2.349-3.852 6.67-6.482 12.87-7.704 4.415-.94 6.106-.751 14.56 1.41 11.274 3.006 19.259 2.818 26.868-.47 10.334-4.51 10.052-7.985-1.033-10.522-18.225-4.133-31.189-14.373-22.452-17.755 4.133-1.69 22.17-.47 29.591 1.88 3.476 1.127 7.234 1.784 8.173 1.502 3.006-.94 2.443-7.327-.94-13.433-5.26-9.019-15.124-14.185-31-16.252-11.273-1.41-12.682-2.16-18.318-9.77-6.294-8.455-13.152-14.655-20.01-18.037-4.415-2.16-6.764-2.63-14.279-2.912-7.985-.282-9.864-.094-18.318 2.63-8.643 2.819-10.052 3.007-17.38 2.443-9.488-.658-21.136-3.194-33.349-7.14-10.427-3.287-10.24-3.287-12.212-1.315zm90.371 25.27c2.63 1.316 5.543 3.288 6.482 4.322 1.691 1.973 1.691 1.973-.47 3.757-3.1 2.537-9.77 2.443-12.212-.281-2.066-2.161-3.476-7.516-2.442-9.113.94-1.597 3.476-1.22 8.642 1.315z"/><path d="M91.788 49.987c-4.322 5.542-13.152 37.764-15.313 56.177-1.597 13.715-.657 41.052 1.88 52.607 3.945 18.694 10.99 35.415 20.948 50.258 5.543 8.267 21.606 24.988 25.552 26.492 5.26 1.972 5.449-.188 1.597-15.219-4.791-18.694-5.918-27.149-6.388-49.131-.564-22.64.658-37.013 4.979-60.498 1.315-6.952 2.067-13.81 1.785-15.313-.376-1.409-2.443-5.073-4.603-7.985-6.013-8.173-16.628-24.33-21.043-31.846-3.288-5.636-5.355-7.89-7.234-7.89-.188 0-1.127 1.033-2.16 2.348z"/></g></svg>