<svg version="1.0" xmlns="http://www.w3.org/2000/svg" width="682.667" height="682.667" viewBox="0 0 512 512"><g fill="#f2f2f2"><path d="M287.8 22.1c-18.4 4.3-34.9 23.7-41.5 48.7-3.7 13.9-3.7 33.4 0 47.3 9 34.3 34.4 55 59.5 48.5 8.7-2.2 13.7-5 20.6-11.5 9.9-9.4 17.2-22.3 21.1-37.6 3-11.7 2.2-14.2-6.1-18.3-7.7-3.9-7.5-8.5.9-22 3.6-5.7 3.9-6.8 3.3-10.9-1.3-9.9-11.6-26.4-21.6-34.8-10.4-8.6-24.2-12.3-36.2-9.4zm-3.2 45.4c9.9 4.1 28.6 20.3 30 26 .3 1.3.1 3.3-.6 4.5-4.5 8.4-30.1 2.3-34.5-8.4-2.2-5.3-3.9-19-2.6-21.5 1.4-2.5 2.9-2.6 7.7-.6z"/><path d="M207 54.5c-19.5 2.8-31.2 6.2-38.8 11.3C153 76 130.3 97.2 117.7 113 79.5 160.6 58.1 219.4 51 296c-.6 6.3-1.5 23.2-2 37.5s-1.6 32.1-2.6 39.5c-2.1 16.9-1.1 29.8 3.5 43.9 6.6 20 13.5 29.5 23.4 32.2 11 2.9 27.5-4.9 32.7-15.6 2.7-5.6 2.3-6.9-4.5-14.7-3-3.4-6.8-8.7-8.4-11.8-5.3-9.8-6.3-24-1.8-24 1.6 0 5.2 3.8 9.6 10.1 5.2 7.4 8.8 8.2 14.4 3.1 2.1-2 2.7-3.5 2.7-6.7 0-8.7-6.4-22.8-18.7-41.3L91 335.8v-10.2c0-22.1 4.1-48 10.5-66.7 7.9-22.5 25.6-49.9 32.5-49.9 4.3 0 9.8 3.1 10.9 6.1.8 2.2-.4 16.5-4.6 58.6-3.7 37.4-5.2 56.6-4.6 58.3 1.2 3.6 4.4 4.7 19.4 6.9 27.1 3.9 37.1 4.6 69.4 4.6 36.5 0 48.2-1.1 52.2-5.1 2.8-2.8 2.8-5.3 1.2-52.1-1.1-32.3-.9-35.3 2.8-35.3 4 0 19.2 20.2 30.7 40.7 3.1 5.6 10.1 19.6 15.5 31 5.4 11.4 13.3 27.8 17.6 36.3 4.3 8.5 9.3 20.4 11.2 26.5 8.7 27.3 17.5 36.8 33.9 36.8 5.8 0 8.3-.5 12.7-2.7 13.2-6.4 21.5-22.3 19.3-36.9-.4-2.5-2.5-7.5-4.8-11.2-3.4-5.8-4-7.4-3.6-10.9.3-2.2 12.2-43.3 26.4-91.1 20-67.3 25.8-88.2 25.8-92.5 0-3.9-3-16.6-10.2-43.3-5.7-20.8-11-39.6-11.8-41.8-2-4.9-4.7-5.2-6.4-.7-.6 1.8-12.6 60.8-26.5 131.1-14.8 74.8-26 128.8-26.9 130.2-1.8 2.7-3.8 2.4-5.9-.8-.8-1.2-12.6-27.6-26.2-58.7-16.9-38.4-25-57.9-25.3-61-.2-2.5.3-9.5 1.3-15.5.9-6.1 1.9-16.4 2.2-23 .8-16 .8-16-13-11.4-9.1 3-11.3 3.4-20.7 3.3-8.1 0-12-.6-17-2.3-25.4-8.8-45.3-34.4-51.6-66.8-2.6-12.7-2.3-32.8.4-46 2.5-11.6 2.7-14.4 1-16.1-1.5-1.5-9.5-1.4-21.8.3z"/><path d="M137.6 356.3c-1.6 1.2-1.8 2.2-1.3 7.8.3 3.5 1.4 10.9 2.3 16.4 1.2 7 1.7 16.2 1.8 30.5.1 21.1-1 30.9-5.3 49-1.2 4.8-1.5 8.5-1 10.2.9 3.4 11.4 15.4 15.1 17.4 4 2.1 6.1 1.8 14.4-2 10.8-5 10.6-4.1 8.8-36.9-1.7-30.9-1.8-30.4 7-38.4 13.7-12.4 27.7-20.2 41-22.9 9.9-2.1 19-.8 28.5 3.9 10.6 5.2 25.1 20.9 25.1 27.1 0 .9-3.6 5.5-8 10.3-9.3 10.3-12.9 16.5-16.4 28.8-3.3 11.4-3.4 16-.3 17.7 1.7 1 11.8 1.4 41.6 1.6 21.7.2 40.5.1 41.7-.2 5.2-1.4 3.2-7.6-4.2-12.5-5.8-3.8-12.8-6.5-26.6-10.1-5.9-1.5-11.2-3.1-11.7-3.5-2.7-1.6-.7-5.2 6.9-13.1 6.7-6.8 8-8.7 8-11.4 0-3.5-17-56-20.1-62.2-2.5-4.8-4.9-5.4-16.2-3.9-19.6 2.6-41.4 3.3-63.1 2.2-17.5-1-47.7-4.2-62.6-6.7-2.3-.3-4.2 0-5.4.9z"/></g></svg>