<svg xmlns="http://www.w3.org/2000/svg" viewBox="0 0 512 512" height="682.667" width="682.667" version="1.0"><path d="M289.315 38.576c-7.493.925-10.175 1.758-10.175 3.238 0 1.85 1.572 2.868 10.822 6.845 11.286 4.903 18.593 9.436 25.439 15.726 8.232 7.677 8.787 11.285 1.665 11.285-7.03 0-29.231-3.053-31.729-4.255-1.387-.74-4.81-3.423-7.585-5.92-8.88-8.048-10.175-8.14-19.148-.833-7.863 6.383-10.175 7.215-20.35 7.4-9.436.185-11.1-.277-21.646-6.29-13.136-7.492-14.616-7.215-21.738 3.515-2.59 3.978-5.735 7.863-6.938 8.696-3.515 2.312-18.963 6.105-22.108 5.457-1.48-.37-6.845-2.59-11.748-5.087-4.995-2.498-10.268-4.533-11.84-4.533-3.423 0-5.088 2.498-9.158 13.69-1.573 4.44-3.793 9.158-4.995 10.546-2.313 2.775-19.148 12.21-23.31 13.135-1.48.278-6.476-.092-11.101-.832-17.668-2.868-18.963-2.128-18.963 10.822 0 10.73-1.388 13.968-8.788 20.536-8.325 7.4-10.175 7.955-24.513 7.955-17.02 0-16.558-.647-14.708 20.443 1.11 11.47 1.017 11.84-1.018 16.188-1.202 2.405-4.162 6.475-6.567 8.88l-4.255 4.533-6.846-.555c-3.792-.277-7.4-.185-8.14.278-.647.462-1.572 2.682-2.035 4.902-1.017 5.643-1.017 260.21.093 264.928 1.017 4.625 2.96 6.013 8.417 6.013 6.66 0 8.418-2.036 12.396-13.783 1.85-5.55 6.012-15.448 9.25-22.016 14.985-30.34 35.336-48.934 62.902-57.26 7.585-2.312 9.62-2.59 22.663-2.497 12.58 0 15.448.278 23.31 2.405 13.876 3.793 23.681 8.51 47.454 22.848 32.469 19.426 48.38 27.104 66.88 32.006 11.933 3.238 31.543 4.07 42.459 1.85 13.227-2.682 14.152-2.035 12.302 7.863-1.202 6.105-1.11 6.568.555 8.233 1.295 1.387 10.36 3.515 38.204 9.25 20.073 4.07 38.296 7.4 40.424 7.4 2.867 0 4.532-.555 5.827-1.942 2.035-2.22 4.07-8.88 3.608-12.026-.278-2.127-.74-2.22-9.065-2.775-12.673-.925-18.963-3.33-25.161-9.805-4.625-4.718-6.383-9.435-6.383-16.558 0-15.355 12.488-27.566 28.399-27.566 5.457 0 7.492.463 12.58 2.96 6.938 3.33 9.065 3.608 11.193 1.295 2.22-2.497 11.748-22.57 11.748-24.883 0-3.792-3.053-4.625-18.963-5.18-17.668-.647-25.624-1.757-61.515-8.973-39.313-7.862-45.696-8.695-65.677-8.787-12.672 0-17.668.277-19.333 1.295-2.127 1.202-2.127 1.202-.462 2.867 1.017.925 5.643 3.423 10.36 5.458 11.193 4.81 22.663 12.488 29.046 19.425 5.643 6.013 6.66 8.418 4.903 10.916-1.018 1.295-2.498 1.665-7.308 1.572-5.088 0-6.568-.462-9.805-2.775-7.4-5.272-7.863-5.457-14.8-3.33-4.996 1.48-7.031 1.665-10.176 1.018-6.845-1.573-10.823-4.255-14.245-9.528-3.608-5.643-5.458-6.66-10.268-5.273-4.625 1.295-8.418-.092-14.8-5.272-6.753-5.458-7.863-7.493-8.696-17.113-.37-4.163-1.202-8.603-1.85-9.806-1.11-2.035-1.48-2.127-9.158-1.572-9.158.74-8.418 1.017-19.518-8.048-8.048-6.568-9.158-8.233-10.268-15.078-.832-4.81-2.59-7.77-4.625-7.77-.37 0-4.255 1.295-8.788 2.775-7.955 2.775-8.325 2.868-20.72 2.313-6.938-.278-13.505-.74-14.616-1.018-4.532-.925-1.48-8.603 8.603-22.293 21.46-28.953 51.71-46.251 86.305-49.212 17.668-1.572 39.499 1.665 53.374 7.77 10.268 4.533 11.1 7.216 4.07 13.599-4.995 4.532-5.55 6.29-2.96 10.082 3.608 5.458 53.282 57.26 55.317 57.815 1.202.277 3.145.37 4.347 0 2.96-.74 9.898-6.846 9.898-8.788 0-1.85-2.682-4.44-7.585-7.4-6.938-4.163-13.69-13.968-15.078-22.016-2.22-13.783 11.933-28.028 28.12-28.028 2.869 0 7.216.647 9.621 1.48 5.828 1.942 12.95 8.51 16.466 15.263 4.162 7.677 5.365 7.677 17.668-.74 11.1-7.493 13.135-9.62 12.488-12.488-.37-1.295-4.163-4.718-10.083-9.066-9.528-6.937-26.734-23.588-62.255-60.219-17.39-17.853-25.715-25.16-37.648-32.93-13.69-8.973-16.003-7.678-8.788 4.994 9.713 17.02 13.968 28.769 13.413 37.094-.277 3.885-.555 4.348-2.683 4.625-1.572.185-5.92-1.665-12.487-5.18-10.268-5.55-11.1-6.29-18.593-17.113-3.886-5.55-5.92-5.643-14.523-.463-6.013 3.7-7.03 3.978-12.673 3.886-7.308-.185-8.51-.74-17.206-8.326-9.065-7.955-9.898-7.862-17.02 1.11-5.55 7.03-7.215 7.956-16.928 9.99-9.99 2.036-10.73 1.943-17.02-2.22-8.048-5.457-9.806-4.995-14.061 3.7-3.053 6.29-6.105 8.88-13.505 12.026-7.956 3.238-11.378 3.423-18.871.833-7.308-2.498-11.008-2.59-12.95-.185-.833 1.11-2.868 5.642-4.533 10.175-1.573 4.625-3.885 9.158-4.995 10.175-4.81 4.44-23.31 16.928-24.606 16.743-2.682-.555-2.22-5.828 1.295-14.8 20.628-52.172 67.342-90.745 134.684-111.096 25.253-7.678 54.022-11.84 82.235-11.933 25.438 0 42.366 2.035 45.881 5.458 1.48 1.48 1.48 6.475-.092 11.933-.37 1.11.092 2.682 1.11 3.977 1.48 1.85 6.382 3.053 40.793 9.898 34.689 7.03 39.314 7.678 41.627 6.66 3.145-1.572 5.18-5.642 5.18-10.915l.092-4.163-3.7-.185c-14.8-.925-27.566-7.955-33.116-18.315-2.867-5.273-2.867-16.928 0-22.293 6.66-12.58 23.588-18.13 36.816-12.026 10.36 4.718 10.916 3.885 11.378-15.54.278-12.21.093-15.263-1.017-16.743-1.295-1.758-2.868-1.85-21.184-2.405-19.703-.648-25.53-1.295-54.854-6.383-29.97-5.18-53.651-7.215-67.064-5.643z" fill="#f2f2f2"/></svg>