<svg version="1.0" xmlns="http://www.w3.org/2000/svg" width="682.667" height="682.667" viewBox="0 0 512 512"><g fill="#f2f2f2"><path d="M306.4 30.3c-1.2.7-4.9 4.8-8.1 9.2-12 16.2-22.8 25.8-32.8 29.2-7.1 2.4-16.4 1.4-24.3-2.6-7.5-3.8-19.7-15.1-26-24.1-9.8-14-11.7-14.7-21.6-7.6-21.2 15.1-39.8 37.6-54.5 65.6-3.3 6.3-12.8 27.4-21.1 46.9-29.3 68.6-44.6 94-76.7 127.3-12.3 12.7-13 14.2-9.3 20.3 3.5 5.6 21.1 18.4 29.3 21.2 5.4 1.9 8.6.2 19.5-10.3 12.5-12 12.3-15.8-.5-13.5-3.1.6-7.1 1.1-8.9 1.1-4.5 0-7.4-3.8-7.4-9.6 0-3.9.4-4.7 3-6.3 1.9-1.1 13.8-3.9 29.8-7.1 14.7-2.9 27.9-5.8 29.4-6.6 2.9-1.5 3.6-3.2 6.8-17.7 3.4-15.2 1.8-14.3 37.5-23.7 36.7-9.8 53.1-13.4 70.4-15.7 13.1-1.7 13.4-1.7 29.9.6 28.9 3.9 57.2 10.1 86.6 18.7 19 5.6 18.2 4.7 22 23.4 2.7 13.1 3.6 14.3 12.4 16 30 6 49.3 10.4 52.2 11.8 3.1 1.5 3.5 2.2 3.8 6.3.2 3.4-.2 5.2-1.8 7.2-2.4 3.1-5.1 3.4-14.3 1.6-12.8-2.3-13 1.5-.5 13.5 10.9 10.5 14.1 12.2 19.5 10.3 8.2-2.8 25.8-15.7 29.4-21.3 3.6-5.9 2.9-7.6-9.4-20.2-32.1-33.3-47.5-58.8-76.9-127.7-8.2-19.3-17.6-40.2-20.9-46.5-11.3-21.6-24.6-39.5-39.9-53.6-6.4-5.9-19.8-16.4-21-16.4-.5 0-1.4-.2-2.2-.5-.7-.2-2.3.1-3.4.8zM186 75.8c1.7 1.3 2.5 3.5 3.1 7.7.5 4.1 1.5 6.5 3.1 8.1 3.5 3.4 18.9 11.5 22.9 12.1 3.2.5 4.2 0 10-5.2 19.8-17.7 42-17.7 61.8 0 5.8 5.2 6.8 5.7 10 5.2 4-.6 19.4-8.7 22.9-12.1 1.6-1.6 2.6-4 3.1-8.1 1-7 3.4-9.5 9.3-9.5 4.7 0 8.8 3.5 8.8 7.5 0 3.3 4.2 7.5 7.5 7.5 6.8 0 10.2 10.4 5 15.5-2.2 2.3-3.2 2.5-11.9 2.5H332l-12 6.2c-6.7 3.4-13.2 7.3-14.6 8.7-2.6 2.5-2.6 2.6-1.9 15.6.5 10.1 1.1 13.6 2.4 15.5 1.1 1.4 11.4 7.7 24.5 14.9l22.7 12.4 9.5.6c8.5.6 9.8.9 11.5 3 2.8 3.4 2.5 9.6-.6 12.6-1.3 1.4-3.6 2.5-5 2.5-3.3 0-7.5 4.2-7.5 7.5 0 4-4.1 7.5-8.8 7.5-6.3 0-8.4-2.4-9.3-10.6-.6-6-1.1-7.2-3.6-9.2-4.3-3.5-35.1-20.2-38.5-20.9-2.5-.5-3.4 0-6.6 3.8-8.2 9.6-13.5 14.2-21 17.7-7.2 3.5-8.3 3.7-17.2 3.7-8.9 0-10-.2-17.2-3.7-7.5-3.5-12.8-8.1-21-17.7-3.2-3.8-4.1-4.3-6.6-3.8-3.4.7-34.2 17.4-38.5 20.9-2.5 2-3 3.2-3.6 9.2-.9 8.2-3 10.6-9.3 10.6-4.7 0-8.8-3.5-8.8-7.5 0-3.3-4.2-7.5-7.5-7.5-1.4 0-3.7-1.1-5-2.5-3.1-3-3.4-9.2-.6-12.6 1.7-2.1 3-2.4 11.5-3l9.5-.6 22.7-12.4c13.1-7.2 23.4-13.5 24.5-14.9 1.3-1.9 1.9-5.4 2.4-15.5.7-13 .7-13.1-1.9-15.6-1.4-1.4-7.9-5.3-14.6-8.7l-12-6.2h-9.6c-8.7 0-9.7-.2-11.9-2.5-5.2-5.1-1.8-15.5 5-15.5 3.3 0 7.5-4.2 7.5-7.5 0-1.4 1.1-3.7 2.5-5 3-3.1 9.2-3.4 12.5-.7z"/><path d="M249.9 104.3c-7.5 2.1-14.5 8.2-17.4 15-2.2 5.3-.9 6.7 6.2 6.7 4.4 0 5.8.5 7.8 2.5 3.1 3 3.2 7.3.4 10.9-2.6 3.3-8.7 3.6-14.1.6-5.2-2.7-6.2-1.2-5.6 8.4.6 8.6 3.5 15.5 9.8 22.8 10.6 12.3 27.4 12.3 38 0 6.5-7.5 9.3-14.2 9.8-23.3.5-9.1-.4-10.2-6.2-7.5-5.4 2.5-11 2.1-13.5-1-2.8-3.6-2.7-7.9.4-10.9 2-2 3.4-2.5 7.8-2.5 3.5 0 5.9-.5 6.7-1.4 2.8-3.5-6.5-15.9-14.4-19.1-5-2.1-10.8-2.5-15.7-1.2zm20 47.3c3 3.8 2.8 9.8-.4 12.9-2.3 2.4-3.1 2.5-13.5 2.5s-11.2-.1-13.5-2.5c-3.2-3.1-3.4-9.1-.4-12.9 2-2.5 2.3-2.6 13.9-2.6 11.6 0 11.9.1 13.9 2.6zm-35.4 73c-26.1 3.8-43.3 7.7-65.4 14.9-14.7 4.8-17.6 6.7-18.7 12.3-.8 4.1.9 6.2 5.2 6.2 1.8 0 11.1-1.3 20.6-2.9 33.2-5.6 44.5-6.6 79.8-6.6s46.6 1 79.8 6.6c19.2 3.2 22.3 3.4 24 1.7 2.2-2.2 1.4-7.7-1.5-10.7-3.1-3-16.7-7.7-39.4-13.6-24.3-6.3-35-7.7-59.4-8-12.1-.2-23.3-.1-25 .1zm2.1 43.5c-16.1.9-43.9 4-67.5 7.4-22 3.2-21.5 2.8-21.9 17.4-.3 10.8-.2 11.2 2.3 13.7 3.5 3.5 7.5 2.8 16.6-2.7 3.8-2.2 10.3-5.3 14.6-6.7 7-2.3 9.3-2.6 23.3-2.6 15.2-.1 15.6 0 23.5 3.1 10.1 4.1 14.2 4.2 27.9.2 23.9-6.8 49.6-19.6 49.6-24.5 0-2.7-6.5-4.3-22.6-5.3-17.4-1.2-25-1.2-45.8 0zm105.3 8.8c-1.5.5-10.3 5-19.5 10-23.2 12.4-42.5 21.1-60.5 27.1-8.4 2.7-15.8 5.5-16.6 6.1-.7.6-2.2 4.3-3.4 8.3-7.1 23.9-23.6 36.8-47.4 37-8.2.1-9.5-.2-14.3-2.9-8-4.4-12.6-10.9-16.7-23.8-1.2-3.8-2.9-7.7-3.8-8.8-2.5-2.8-7.3-2.5-9.3.7-1.6 2.4-1.6 3.6 1 22.1 3.3 24 9.4 57.7 11.2 62.1 1.9 4.8 4.9 5.5 13.7 3.3 8.6-2.3 16.9-5.6 28.7-11.7 9.8-5 28.2-16.8 32.3-20.8 4-3.7 3.3-6.6-1.9-8.6-6.2-2.3-7.4-3.7-7.4-8.6 0-3.1.7-5.1 2.3-7l2.4-2.7 11.9 1.3c9.5 1 14.1 1 22.2.1 5.6-.7 11.1-.9 12.2-.6 4.4 1.4 6.7 11.8 3.4 14.6-.9.8-3.5 2.1-5.8 2.9-5.2 2-5.9 4.9-1.9 8.6 4.1 4 22.4 15.7 32.3 20.8 17.1 8.9 33.9 14.3 38.6 12.6 3.6-1.4 4.9-5.1 8.8-24.7 7.3-37 10.6-66.1 10.6-93.3 0-19.8-.4-21.3-6.8-22.9-5.9-1.5-13.5-2.1-16.3-1.2zm-.3 31.5c5.9 5.9 4 9.9-7.7 16.4-6 3.4-7.9 6.2-7.9 11.8 0 2.4-.8 4.3-2.5 5.9-2.3 2.3-3.1 2.5-13 2.5-5.9 0-11.5-.5-12.6-1-1-.6-2.8-2.8-3.9-4.9-1.9-3.8-5.7-6.1-10.1-6.1-1 0-2.7-1.2-3.9-2.8-1.7-2.1-2.1-3.6-1.7-7.1.7-6.5 2.1-7.3 13.9-8.2 17-1.5 29.7-4.4 36.8-8.4 4.4-2.5 8.8-1.9 12.6 1.9zm-234.4-4.2c-20.1 19.4-34.9 32.2-53.9 46.5C40 360.7 38 362.5 38 365c0 5.7 13 14 28.7 18.1 5.8 1.6 11.2 2.1 21.5 2.3 16 .2 17.1.6 14.4 6.3-6.4 13.4-35.6 44.5-56.1 59.9-12.1 9-14.2 11.7-11.1 14.3 3.8 3.1 46.1 11.9 70.6 14.6 23.2 2.6 57 1.7 65.3-1.6 4.8-2 3.4-5.9-4.3-12.3l-3.4-2.8-19.6.6c-20.4.8-40.2-.3-57-3-8.8-1.4-13-3.2-13-5.7 0-.5 5.2-6.1 11.5-12.4 18.6-18.6 28.1-31.3 41.5-55.9 7.6-14.1 9-19 6.9-25.6-1.9-5.8-4.4-6-16.7-1-14.5 6-30.8 9-39.6 7.3-5.4-1-8-3-7-5.4.3-.9 6.7-6.5 14.2-12.5 16.4-13.1 35.9-31.5 40.1-37.9 2.8-4.2 3.1-5.4 3.1-12.8 0-8-.9-10.5-3.8-10.5-.7 0-8.4 6.8-17 15.2zm277.4-13.6c-.3.9-.6 5.1-.6 9.3 0 9 1.1 11.1 11.2 21.9 3.3 3.6 5.8 7.1 5.6 8-.2 1-3.8 3.4-8.1 5.5-6 3-8.6 5-11.2 8.5-8.8 12.2-9 30.6-.4 43.6 3.8 5.7 8.8 9.2 15.9 11.1 6.6 1.7 8.5 3.5 10.6 9.9 2.9 8.9 10.3 22.1 15.8 28.2 8.9 10 9.2 12.5 1.8 16.3-12.3 6.3-28.6 9.2-55.9 10l-21.2.6-4.6 4.5c-5.3 5.2-5.9 8.5-1.7 10.2 4 1.6 44.9 2.3 55.8.9 27.7-3.6 48.9-13.9 56.9-27.5 4.1-7 3.7-8.1-7.4-18.4-10.5-9.7-19.1-21.3-21.3-28.4-1.1-3.8-1-4.2 1.1-5.9 1.6-1.3 3.9-1.9 7.5-1.9 15.6 0 30.7-9.6 35.6-22.6 3.7-10 2.7-12.1-8.9-18.8-15.4-8.9-28.1-20.1-53.8-47.9-13-13.9-18-18.7-19.8-18.7-1.2 0-2.6.7-2.9 1.6zm52 67c13 9.3 15.3 11.9 13.4 15.5-3.4 6.3-22.2 8-24.4 2.2-.3-.8-.9-6.3-1.2-12.3l-.7-11h2.5c1.5 0 5.8 2.3 10.4 5.6zm-31.9 0c3.4 5.3 1.3 19-3.3 20.8-2.2.9-6.2-1.9-7.4-5-1.5-3.9-1.2-12.2.6-15.9 2.4-5.2 6.6-5.1 10.1.1z"/><path d="M248.8 408.1c-3 3.2-4.8 6-4.8 7.5 0 2.4 0 2.4 12 2.4s12 0 12-2.4c0-3.3-8.8-12.6-12-12.6-1.6 0-4 1.7-7.2 5.1zm-48.3 35.3c-19.5 9.9-19.8 10.4-10.8 19 7.9 7.5 20.1 17.2 24 19.1 2.6 1.3 3.6 1.3 5.9.3 3.4-1.6 25.4-34.5 25.7-38.5.2-2.7 0-2.8-3.8-2.7-2.2.1-6 .5-8.5.9-4.2.6-4.7.5-7.9-2.9-2.4-2.4-4.3-3.6-6-3.5-1.5.1-9.8 3.8-18.6 8.3zm86.4-4.8c-3.3 3.5-3.6 3.6-8.4 2.9-2.7-.4-6.6-.8-8.5-.9-3.2-.1-3.5.1-3.3 2.7.3 3.8 22.3 36.9 25.5 38.4 1.8.8 3.2.8 5.6-.3 5.9-2.4 26.3-19.3 29.5-24.3 1.7-2.9 1.7-2.9-.5-5.4-1.3-1.3-4.8-3.4-7.8-4.7-3-1.2-9.7-4.4-14.8-7.1-5.1-2.7-10.3-4.9-11.5-4.9-1.3 0-3.8 1.5-5.8 3.6z"/></g></svg>