<svg version="1.0" xmlns="http://www.w3.org/2000/svg" width="682.667" height="682.667" viewBox="0 0 512 512"><g fill="#f2f2f2"><path d="M474.2 28.3c-2.9 1.3-10.9 12.1-16.2 22-3.4 6.2-4.1 8.4-3.6 11 .3 1.8 5 9.8 10.4 17.7 11 16.5 12.8 17.8 19 14.5 5.4-2.9 5.3-5.6-.3-11.6-9.6-10.3-10.7-18.6-4.2-31.9 2.8-5.7 3.6-8.2 3.1-10.5-2.2-11-3.8-13.2-8.2-11.2zm-441.6 2c-.9 1.2-2 4.6-2.7 7.5-1.1 5.2-1 5.5 3.1 13.8 3.9 7.8 4.2 8.9 3.7 14.3-.6 7-2.1 10.1-8.1 16.8-5.4 6-5.8 8.6-1.6 10.8 7.1 3.7 8.7 2.5 20.1-14.7 12.1-18.3 12.3-19 5.7-30.3C45.4 36 38.8 28 35.8 28c-1 0-2.4 1-3.2 2.3zm177.7-.3c-1.2.5-3 2.1-3.9 3.5-1.6 2.5-1.6 3 .7 11.2 3.3 11.8 4.9 14.3 9.4 14.3 2 0 4.9-.7 6.4-1.5 4.9-2.5 5.2-5.9 1.7-17-1.4-4.2-3.2-8.5-4.2-9.6-1.8-2-6.3-2.4-10.1-.9zm81.2.7c-3.4 3.4-8.1 20.2-6.5 23.3 2.4 4.4 11.3 6.6 14.4 3.5 2-2.1 6.6-16.6 6.6-21.1 0-2.8-.6-3.8-3.2-5.4-4-2.4-9.1-2.6-11.3-.3zM144.4 61.4c-2.5 2.5-3.4 4.3-3.4 6.7 0 2.9 1.4 4.7 10.8 14.1 9 9 11.3 10.8 13.9 10.8 3.7 0 7.6-2.9 9.3-7 1.5-3.6.5-5.5-7.9-14.4-7.4-7.7-14.8-13.6-17.3-13.6-1.1 0-3.5 1.5-5.4 3.4zm213.1-1.5c-1.6 1-7.2 6.1-12.2 11.4-10.5 10.9-11.1 12.6-6.2 18.2 5.4 6.1 7.6 5.3 20.2-7.1 5.9-5.8 11-11.7 11.3-13.1.8-3.2-1.3-7.1-5.1-9.5-3.7-2.2-4.3-2.2-8 .1zM237.3 72.6c-35.3 7.7-68.8 39.7-80.2 76.8-2.6 8.5-2.6 10.8 0 13.2 2 1.8 5.1 1.9 99 1.9 108.4 0 100.4.6 100.1-7.1-.3-7.9-7.3-24.3-15.7-37-16.4-24.6-41.5-42.6-66.7-47.8-9.3-1.9-27.8-2-36.5 0z"/><path d="M58.1 96.6c-2.7 1.9-13.6 18.1-16.4 24.3-1.7 3.9-2.1 7.3-2.5 21.8-1.2 45 9.6 80.9 30.8 102.2 12.3 12.4 25.8 17.9 40.6 16.7 14.1-1.1 25.9-7 40.7-20.3 9.4-8.5 12.8-9.9 14.6-6.4.6 1 2.2 7.2 3.7 13.7 11 49 34.9 89.4 64.2 108.2 13.6 8.8 24 9.9 36.6 3.9 31.4-14.9 58.2-56.5 71.2-110.6 1.9-8 4-15.1 4.6-15.8 2-2.4 4.9-1.3 10.6 4 30.3 28.5 58.7 31.3 83 8.3 15.9-15.1 25.6-36.1 30.8-67.1 2.3-13.2 2.4-49.7.2-56.5-1.8-5.6-15-25.5-17.9-27-3.2-1.8-5 .5-12.4 15.9-12.7 26.1-29.3 47.3-48.4 61.7-8.7 6.5-28.2 16.8-37.8 19.9-9.1 2.9-11.3 5-14.5 14-3.9 10.8-13.4 30-20.3 40.9-16.3 25.8-33.3 43.4-49.2 50.9-5.8 2.7-7.9 3.1-14.3 3.1-12.4-.1-23-5.7-36.7-19.2-17.9-17.8-38.4-50-46.7-73.6-1.5-4.4-3.5-9-4.3-10.2-.9-1.4-5-3.6-11.1-6-40.8-15.7-65.2-38.8-86.4-82.2C66.9 103.4 63 96.5 62 96c-1.2-.6-2.4-.4-3.9.6z"/><path d="M115.7 120.1c-2.1 1.2-4.7 6.7-4.7 9.9 0 1.1.9 2.9 1.9 3.9 2.6 2.6 21.1 8.6 24.2 7.8 3-.8 6-5.6 6.1-9.9.1-4.2-2.3-6-13.5-9.7-10.1-3.4-11.3-3.6-14-2zm265.6 2.2c-11.7 4-13.7 5.7-13 10.4.8 4.8 3.2 8.1 6.4 8.9 3.1.8 19.4-4.1 23-6.9 2.7-2.2 3.1-7.3.8-11.6-2.6-5.1-4.7-5.2-17.2-.8zm-157.1 61.9c-2 2-1.3 6.3 1.9 11.1 3.8 5.8 8.5 9.9 15.2 13.4 4.5 2.4 6.4 2.8 14.2 2.8 7.8 0 9.7-.4 14.5-2.7 11.8-5.8 22.2-20.2 17.8-24.6-1.7-1.7-61.9-1.7-63.6 0z"/><path d="M193.7 204.7c-4 3.9 11.4 33.8 28.2 54.5 12.8 15.9 25 24.8 33.9 24.8 15.1 0 40.1-27 58-62.5 6.9-13.9 6.6-17.5-1.9-17.5-6.9 0-9.6 1.4-16.9 8.5-12 11.8-24.7 17.5-38.9 17.5-15.3 0-24.8-4.1-38.2-16.6-5.8-5.4-9.8-8.3-11.9-8.8-4.2-.8-11.5-.8-12.3.1zm-9.1 134.6c-.9.7-4.8 11.5-9 25.2-10.6 34.4-24.5 71.9-38.1 103.1-8.7 19.9-8.3 20.6 11.1 17.5 31.5-5 53.8-4.9 80.1.4 6.9 1.4 13.3 2.3 14.3 2 .9-.3 2.2-1.7 2.8-3.1 1.7-3.5 1.7-93.8.1-98.4-1-2.8-2.5-3.9-10.3-7.5-13.2-6.2-21.8-12.8-35.2-26.9-6.5-6.9-12.4-12.8-13-13-.7-.3-1.9.1-2.8.7zm136.6 1.5c-1.5 1.5-6.1 6.6-10.2 11.1-10.2 11.5-20.6 19.5-32.7 25.3-5.7 2.7-11 5.9-11.8 7.1-1.3 1.8-1.5 9.1-1.5 50.9 0 47.5.1 48.9 2 50.8 1.1 1.1 2.3 2 2.8 2 .4 0 6.2-1.1 12.8-2.5 26.2-5.3 49.5-5.4 80.6-.4 13.5 2.2 16.8 1.8 16.8-2 0-1.1-3-8.8-6.6-17.3-14.6-33.9-28.2-70.9-38.4-104.7-5.4-17.8-7.8-23.1-10.2-23.1-.5 0-2.2 1.3-3.6 2.8z"/></g></svg>