<svg version="1.0" xmlns="http://www.w3.org/2000/svg" width="682.667" height="682.667" viewBox="0 0 512 512"><g fill="#f2f2f2"><path d="M247.6 22.1c-6.2 1.5-13.6 6-14.2 8.5-.8 3.1 0 4 5.9 7 2.9 1.5 7.5 4.6 10.4 7 2.8 2.4 5.7 4.4 6.3 4.4.6 0 3.5-2 6.3-4.4 2.9-2.4 8-5.8 11.5-7.5 7.3-3.7 7.9-5.7 2.9-9.5-6.7-5.2-20.4-7.7-29.1-5.5zm-27.2 35.3c-2.8 2.8-3.4 4.2-3.4 7.6 0 3.4.6 4.8 3.4 7.6s4.2 3.4 7.6 3.4c3.4 0 4.8-.6 7.6-3.4s3.4-4.2 3.4-7.6c0-3.4-.6-4.8-3.4-7.6S231.4 54 228 54c-3.4 0-4.8.6-7.6 3.4zm56 0c-2.8 2.8-3.4 4.2-3.4 7.6 0 3.4.6 4.8 3.4 7.6s4.2 3.4 7.6 3.4c3.4 0 4.8-.6 7.6-3.4s3.4-4.2 3.4-7.6c0-3.4-.6-4.8-3.4-7.6S287.4 54 284 54c-3.4 0-4.8.6-7.6 3.4zm-27.1 28.1c-10.8 9.5-21.6 11.3-34.6 6-6.8-2.7-6.9-2.7-8.8-.9-1.3 1.3-2.2 4.5-3 10.2-1 7.1-.9 8.6.5 10.7.9 1.4 2.6 2.7 3.9 3 1.2.3 24.2.4 51 .3 47-.3 48.9-.4 50.3-2.2 1.7-2.4 1.7-12.2.1-18.6-1.5-5.7-3.7-6.2-12.1-2.4-11.8 5.4-23.1 3.3-33.9-6.1-2.8-2.5-5.9-4.5-6.7-4.5-.8 0-3.9 2-6.7 4.5zm-90.8 50c-1.9 1.8-2.5 3.5-2.5 6.8 0 5.4-1.3 6.7-10.2 10.1-22.1 8.3-38.6 27.5-47.9 55.8-6.1 18.9-9.4 42.4-10.4 74.3-.3 10.4-.8 20.5-1.1 22.3C86 307.1 84 310 79 315c-5 5.2-8.1 9.5-11.8 16.8-6.7 13-10.5 24.3-9.3 27.5 1.2 3 5.7 4.9 10.7 4.5 4.4-.3 4.5-.5 10.1-14.2 2-4.9 5.5-11.7 7.7-15 4.5-6.7 7.8-8.6 12.4-7 3.6 1.2 9.9 10.8 14.5 22 5.7 13.9 5.7 13.9 10.4 14.2 4.8.4 9.9-1.9 10.8-4.7.8-2.6-3.5-15.1-8.6-25.4-4.7-9.2-11.5-18.5-15.4-21.1-5.7-3.8-6.5-10.7-4.5-42.6 2.4-38.4 8.4-62 20.2-79.6 6.2-9.3 12.4-14.8 21.5-19.1 8.6-4.1 11.6-3.9 13.8 1 .8 1.7 9.4 45.5 19 97.2 9.7 51.7 17.8 94.8 18.1 95.7.8 2.7 5.4 5.8 8.4 5.8 1.5 0 3.8-.9 5.1-1.9 2.2-1.8 2.4-2.8 3-15.3.4-11.3.9-14.2 2.9-18.3 5-10.4 15.8-17.4 30.3-19.7 19.5-3 38.7 5.3 45.7 19.7 2 4.1 2.5 7 2.9 18.3.6 12.5.8 13.5 3 15.3 3.4 2.8 7.7 2.4 11-.9 2.6-2.6 3.5-6.9 20.5-98.2 9.8-52.5 18.5-96.7 19.3-98.2 2.1-4.4 5.3-4.5 13.6-.5 20.8 9.9 33 32 38.8 70.2 2.2 14.8 4.6 57.1 3.5 62.8-.5 2.8-2.4 5.5-7.6 10.7-5 5.2-8.1 9.5-11.8 16.8-6.7 13-10.5 24.3-9.3 27.5 1.2 3 5.7 4.9 10.7 4.5 4.4-.3 4.5-.5 10.1-14.2 2-4.9 5.5-11.7 7.7-15 6.9-10.2 12.3-10.2 19.2 0 2.2 3.3 5.7 10.1 7.7 15 5.7 13.9 5.7 13.9 10.4 14.2 4.8.4 9.9-1.9 10.8-4.7.8-2.6-3.5-15.1-8.6-25.3-4.8-9.5-10.7-17.6-15.4-21.2-1.8-1.4-3.8-4-4.3-5.8-.6-1.8-1.3-12.3-1.6-23.4-1.9-60.4-12.3-94.8-35.3-116.4-7.8-7.5-13.5-11-23.1-14.6-8.9-3.4-10.2-4.7-10.2-10.1 0-3.3-.6-5-2.5-6.8l-2.4-2.5H160.9l-2.4 2.5zM325.4 168c2.8 1 3.4 3.7 1.4 7.3-.6 1.2-8.1 13.2-16.6 26.6-12.9 20.2-16.1 24.6-18.8 25.7-4.8 2-66 2-70.8 0-2.7-1.1-5.9-5.5-18.8-25.7-8.5-13.4-16-25.4-16.6-26.6-1.9-3.4-1.4-6.3 1.1-7.3 3.1-1.2 135.8-1.3 139.1 0zm-39.9 77.5c1.9 1.8 2.5 3.5 2.5 6.5s-.6 4.7-2.5 6.5l-2.4 2.5h-54.2l-2.4-2.5c-1.9-1.8-2.5-3.5-2.5-6.5s.6-4.7 2.5-6.5l2.4-2.5h54.2l2.4 2.5zm-16 32c1.9 1.8 2.5 3.5 2.5 6.5s-.6 4.7-2.5 6.5c-2.3 2.4-3.1 2.5-13.5 2.5s-11.2-.1-13.5-2.5c-1.9-1.8-2.5-3.5-2.5-6.5s.6-4.7 2.5-6.5c2.3-2.4 3.1-2.5 13.5-2.5s11.2.1 13.5 2.5z"/><path d="M247.2 334.5c-9.2 2.5-13.2 6.7-13.2 13.9 0 6 1.9 6.6 22 6.6s22-.6 22-6.6c0-7.3-4-11.4-13.7-13.9-6.9-1.8-10.2-1.8-17.1 0zm-11.7 41c-2.3 2.2-2.5 3.1-2.5 12.5s.2 10.3 2.5 12.5c2.4 2.5 2.6 2.5 20.5 2.5s18.1 0 20.5-2.5c2.3-2.2 2.5-3.1 2.5-12.5s-.2-10.3-2.5-12.5c-2.4-2.5-2.6-2.5-20.5-2.5s-18.1 0-20.5 2.5zM204.3 395c-3.6 1.5-4.3 4.3-4.3 17.3 0 14.7 1 17.1 7.5 17.1s7.5-2.3 7.5-17.4c0-10.7-.3-13.1-1.7-14.8-2.1-2.5-6-3.5-9-2.2zm97 0c-3.6 1.5-4.3 4.3-4.3 17.3 0 14.7 1 17.1 7.5 17.1s7.5-2.3 7.5-17.4c0-10.7-.3-13.1-1.7-14.8-2.1-2.5-6-3.5-9-2.2zm-65.8 28.5c-2.3 2.2-2.5 3.1-2.5 12.5s.2 10.3 2.5 12.5c2.4 2.5 2.6 2.5 20.5 2.5s18.1 0 20.5-2.5c2.3-2.2 2.5-3.1 2.5-12.5s-.2-10.3-2.5-12.5c-2.4-2.5-2.6-2.5-20.5-2.5s-18.1 0-20.5 2.5zm.7 47.1c-2.8 1.9-3 7.6-.3 12 3.6 5.8 16 9.5 25.6 7.6 11.3-2.3 16.5-6.8 16.5-14.4 0-6.3-1.7-6.8-22-6.8-14.3 0-18 .3-19.8 1.6z"/></g></svg>