<svg version="1.0" xmlns="http://www.w3.org/2000/svg" width="682.667" height="682.667" viewBox="0 0 512 512"><g fill="#f2f2f2"><path d="M253.6 31.2c-1.7 2.7-2.3 7-11.6 78.4-3.8 29.7-7 56.3-7 59.1 0 3.9.5 5.4 2.4 7.2 7.2 6.8 30 6.8 37.2 0 1.9-1.8 2.4-3.3 2.4-7.2 0-4.4-11-91.8-15.6-124.2-1.5-10.4-3.2-15.5-5.4-15.5-.5 0-1.6 1-2.4 2.2zM58.7 88.7c-1.5 1.4-.5 5.5 3.7 14.9 15.6 35.3 16.4 58 2.5 73.8-4.1 4.7-9.4 8.4-22.4 15.6-10.4 5.8-10.7 7.2-3.5 18.5 12.5 19.6 17.5 32.6 17.4 46 0 13.9-4.2 25.3-16.3 44.7-6.2 9.8-7.3 13.4-4.5 14.5.8.3 6.2-.4 11.8-1.5 25.7-5.3 39.6-5.1 56.1.9 14.3 5.2 15.3 4.1 15.6-16.6.2-13.5.1-13.9-2.2-15.8-2-1.6-3.6-1.9-10.2-1.5-6.7.4-8.9 1-15.7 4.6-4.4 2.3-8.8 4.2-9.9 4.2-2.8 0-8.1-6.5-8.1-9.9 0-7.7 19.5-17 35.6-17.1 7.5 0 11.8-1.4 13.1-4.3 2.1-4.5 3.5-16.1 2.4-18.9-2.8-7.3-31.8-20-48.8-21.5-9.8-.8-12.3-2.7-12.3-9.2 0-2.6.6-5.5 1.3-6.5 4.3-5.9 29.6-1.3 52.9 9.6 13.1 6.2 14.6 6.1 18.2-1.7 4.1-8.5 4.2-10.3.7-15.5-4.5-6.9-27.5-28.9-36.6-35.1-8.9-6-10.2-8.6-7-14.5 2.4-4.4 5.5-5.9 9.5-4.6 6.5 2.3 18 11.2 32.6 25.4 8.4 8.2 15.7 14.8 16.4 14.8 4.2 0 10-5.9 10-10.3 0-3.2-9.2-13.9-26.6-30.7-21.5-20.8-45.6-39.2-64.5-49-7.6-3.9-9.9-4.6-11.2-3.3zm382.8 3.6c-19.7 10.6-43.4 28.7-64.4 49.2-17 16.5-26.1 27-26.1 30.2 0 4.4 5.8 10.3 10.1 10.3.6 0 7.3-6 14.8-13.3 17.9-17.5 31.5-27.7 37.1-27.7 2.2 0 6.9 4.6 7.6 7.6 1.3 5 .1 6.8-8.1 12.3-9.4 6.4-36.5 33-38.4 37.9-1.2 2.8-1.1 3.9.9 9.1 2.5 6.7 5.2 10.1 8 10.1 1.1 0 6.6-2.2 12.2-4.9 22.4-10.7 48.2-15.3 52.5-9.5.7 1 1.3 3.9 1.3 6.5 0 6.5-2.5 8.4-12.3 9.2-13.7 1.2-38.6 10.9-46.2 18.2-3.8 3.6-4.1 5.2-2.4 13.7 2.2 11.3 4 12.8 15.3 12.8 16.1.1 35.6 9.4 35.6 17.1 0 3.4-5.3 9.9-8.1 9.9-1.1 0-5.5-1.9-9.9-4.2-6.8-3.6-9-4.2-15.7-4.6-6.6-.4-8.2-.1-10.2 1.5-2.3 1.9-2.4 2.3-2.2 15.8.3 20.7 1.3 21.8 15.6 16.6 16.5-6 30.4-6.2 56.1-.9 5.6 1.1 11 1.8 11.8 1.5 2.7-1.1 1.8-4.7-3.2-12.6-15.8-24.7-20.4-40.3-16.8-56.9 1.8-8.7 8.1-22.3 16-34.7 7.8-12.4 7.6-13.6-2.9-19.5-13-7.2-18.3-10.9-22.4-15.6-13.9-15.8-13.2-38.5 2.3-73.4 7.4-16.5 5.7-19-7.9-11.7zm-223.7 21.4c-3.4 3.8-20.8 36.1-20.8 38.5 0 3.3 1.9 3.8 9.9 2.7 10.9-1.5 11.2-1.9 13.6-18.9 2.7-20 1.8-27.4-2.7-22.3zm72.2 4.8c0 7.2 2.6 27.3 4 31 1.2 3.2 3.7 4.3 11.1 5.4 8 1.1 9.9.6 9.9-2.7 0-2.4-17.4-34.7-20.8-38.5-3-3.4-4.2-2.1-4.2 4.8z"/><path d="M199.3 174.9c-19.2 5.5-34.6 18.8-44.4 38.2-4.8 9.7-7.9 18.8-7.9 23.5 0 2-1.1 6-2.4 8.8-2.9 6-5.1 19.5-6.6 41.7-1.5 21.5-1.3 21.8 12.8 23.9 14.3 2 21.3 5.5 52.2 26 29.2 19.2 39.7 24 53.3 24 13.4 0 24.3-5.1 55.7-26 27.3-18.1 35.2-22 49.2-24 14.1-2.1 14.2-2.3 12.8-23.8-1.5-21.9-3.6-35.7-6.6-41.8-1.3-2.8-2.4-6.8-2.4-8.8 0-7.8-8.2-26.5-16.4-37.1-9.6-12.5-23.4-21.6-38.3-25.1-9.1-2.2-11.6-1.3-13.4 4.6-1.5 4.8-7.5 10.8-14.6 14.4-15 7.6-37.6 7.6-52.6 0-7-3.6-13.1-9.6-14.6-14.4-1.9-6.4-5-7.2-15.8-4.1zm2.6 46.2c8.9 4.4 16.2 11.7 24.6 24.3 8.8 13.3 21.6 39.1 22.3 45.2.4 4.1.3 4.3-4.7 7.9-3 2.2-5.8 5.1-6.6 7.1-2.3 5.6-6.2 6.9-20 6.8-9.9-.1-13.6-.6-21-2.8-11.9-3.6-26.5-10.7-31.4-15.4-4.8-4.6-5.8-8.8-4.2-18.5 1.4-8.6 3.9-12.9 8.8-15.2 8.8-4.2 17.7.4 46.4 23.7 9.2 7.5 11.9 8.4 11.9 4 0-3.3-8.6-20.8-14.5-29.7-5-7.4-14.9-18.2-18.6-20.1-6.5-3.3-13.2-1.2-25.5 8.2-8.9 6.8-11.3 6.9-16.6 1.2-2.1-2.3-3.8-5.1-3.8-6.2 0-1.5 2.6-4.1 8.8-8.7 17.2-12.9 21-14.8 31.3-14.9 5.4 0 7.7.5 12.8 3.1zm135.1.1c8.8 4.4 26 17.8 26 20.3 0 1.2-1.7 4-3.8 6.3-5.3 5.7-7.7 5.6-16.6-1.2-12.3-9.4-19-11.5-25.5-8.2-3.7 1.9-13.6 12.7-18.6 20.1-5.9 8.9-14.5 26.4-14.5 29.7 0 4.4 2.7 3.5 11.9-4 28.7-23.3 37.6-27.9 46.4-23.7 4.9 2.3 7.4 6.6 8.8 15.2 1.6 9.7.6 13.9-4.2 18.5-4.9 4.7-19.5 11.8-31.4 15.4-7.4 2.2-11.1 2.7-21 2.8-13.8.1-16.5-.8-20-7-1.2-2.1-4.1-5.2-6.6-7-4.1-2.9-4.4-3.4-4.3-7.6 0-5.9 11.7-30 21.9-45.4 8.4-12.7 15.7-19.8 24.7-24.4 5.7-2.8 7-3.1 13.8-2.8 5.7.2 8.8 1 13 3zm-97.9 106.5c1.9 4.9-1 10.3-5.5 10.3-5.2 0-5.8-5.3-1.2-10.3 3.2-3.4 5.4-3.4 6.7 0zm40.5 0c4.6 5 4 10.3-1.2 10.3-4.5 0-7.4-5.4-5.5-10.3 1.3-3.4 3.5-3.4 6.7 0z"/><path d="M136.6 329.2c-6.2 1.7-11.8 8-14.1 15.8-8.2 28.9 11.1 76.3 43.6 107.5 18.9 18.1 37.9 28 63.5 33.2 13.5 2.7 41.4 2.4 55.2-.5 31.2-6.7 56.5-23.3 77.2-50.7 28.1-37.1 38-83.5 21.4-100.2-3.2-3.2-5.4-4.4-9.7-5.3-12.1-2.8-23.1 1.9-55.1 23.4C286.3 374 274.7 379 256 379c-18.6 0-30.2-4.9-62.3-26.4-33.9-22.7-43.9-26.8-57.1-23.4zm25.3 33.7c1.5 1.5 4.4 7.2 6.5 12.4 4 10.3 6.8 14.7 9.2 14.7.9 0 4.1-2.5 7.3-5.5 6.5-6.2 9.5-6.9 16.6-3.6 4.8 2.2 7.4 4.6 11.5 10.6 4.5 6.6 6.1 7.1 11.5 4l4.5-2.7 8.9 2.1c11.7 2.8 24.5 2.8 36.2 0l8.9-2.1 4.5 2.7c5.4 3.1 7 2.6 11.5-4 4.1-6 6.7-8.4 11.5-10.6 7.1-3.3 10.1-2.6 16.6 3.6 3.2 3 6.4 5.5 7.3 5.5 2.4 0 5.2-4.4 9.2-14.7 4.5-11.1 7.8-15.3 12.3-15.3 2 0 3.4.7 4.1 1.9 2.8 5.3-.3 22.8-6.1 34.2C347 410 333.7 426 329.2 426c-1 0-3.1-1.4-4.7-3-1.6-1.7-3.8-3-5-3-2.7 0-4.6 2.1-13.4 15.2-5.8 8.6-8 11.1-11.5 12.7-7.3 3.6-10.1 2.6-13.5-4.8-1.3-2.7-3-5.2-3.6-5.5-2.1-.8-5.1 2.1-8.3 7.8-4.2 7.3-7.3 9.6-13.2 9.6-5.9 0-8.8-2.1-13-9.5-3.3-5.8-6.4-8.7-8.5-7.9-.6.3-2.3 2.8-3.6 5.5-3.4 7.4-6.2 8.4-13.5 4.8-3.5-1.6-5.7-4.1-11.5-12.7-8.8-13.1-10.7-15.2-13.4-15.2-1.2 0-3.4 1.3-5 3-1.6 1.6-3.7 3-4.7 3-4.5 0-17.8-16-24.7-29.9-5.8-11.4-8.9-28.9-6.1-34.2 1.6-3 6.6-2.5 9.9 1z"/></g></svg>