<svg version="1.0" xmlns="http://www.w3.org/2000/svg" width="682.667" height="682.667" viewBox="0 0 512 512"><g fill="#f2f2f2"><path d="M240.5 20c-16.5 2.6-37 10.8-51.7 20.8-38.6 26.3-66 73.4-78.2 134.2-4.7 23.3-6 38.4-6.1 67 0 24.1.2 27.5 2.3 37.5 9.5 44.4 36.1 91.9 81.9 146.4 12.8 15.2 59.9 62.4 63.9 64 4.6 1.8 7 .3 23.1-14.8 45.4-42.4 86-94.5 108.2-139 19.4-38.7 25.2-65.8 23.1-107.4-1.7-31.7-5.5-56.2-12.6-81-19.7-68.6-61.6-114.8-114.7-126.3-8.6-1.9-30.8-2.7-39.2-1.4zm-65.6 139.3c.6 1.8 3.1 15.3 5.6 30 2.5 14.7 5.1 27.9 5.7 29.3.8 1.6 4.1 4 9.9 7 10.6 5.5 17.6 12.5 22.2 22.1 3 6.4 3.2 7.4 3.2 18.3 0 11-.1 11.8-3.3 18.3-2 4-6.2 9.8-10.3 14.2-3.9 4.3-6.9 8.4-6.9 9.6 0 1.1 1.8 12.8 4 26 4.2 24.8 5 32.2 3.7 33.6-3.1 3-16.3-14.8-26.3-35.7-3.6-7.4-7.3-15.1-8.2-17-1.4-2.9-3.3-4.3-11.5-8.3-7.1-3.4-11.4-6.2-15.3-10.2-11.9-11.9-15.9-30.1-10-46.3 2.1-5.8 4.6-9.3 12.7-17.7 7.5-7.9 7.4-7.5 8.3-26 .3-5.5 1.4-14.8 2.5-20.5 5-27.9 10.4-38.1 14-26.7zm170.6 5c3.2 10.6 6.4 29.6 7.6 44.2.6 8.2 1.6 15.9 2.1 17 .6 1.1 3.9 4.7 7.3 8.1 18.6 18.2 19 45.1 1.1 63-5.8 5.7-8.5 7.4-19.8 12.2-4.7 2-4.7 2.1-12.6 18.5-15.5 32.1-29.2 49-29.2 36 0-2.1 1.8-14.4 4-27.3s4-25.2 4-27.2c0-3.2-.8-4.6-6-9.8-10.6-10.7-15-20.4-15-32.9 0-17.8 9.9-32.9 26.7-40.8 4-1.8 8-4.4 8.8-5.6.8-1.3 3.7-15.5 6.5-31.7 3-17.3 5.8-30.5 6.7-31.9l1.6-2.5 2.3 2.7c1.3 1.5 3 5.1 3.9 8z"/><path d="M166.9 243.7c-18.3 9.3-18 34.7.6 44.6 5.6 3 16.4 3 22.1 0 11.9-6.3 17.1-20.4 11.9-32.8-5.2-12.7-21.7-18.3-34.6-11.8zm154.3-.1c-8.4 4.2-13.2 12.1-13.2 21.5 0 7.2 1.7 12.2 5.8 16.9 9.5 11.2 26.4 11.9 36.7 1.5 12.5-12.5 8.2-34.3-8.1-41.1-5.6-2.3-15.2-1.8-21.2 1.2z"/></g></svg>