<svg version="1.0" xmlns="http://www.w3.org/2000/svg" width="682.667" height="682.667" viewBox="0 0 512 512"><g fill="#f2f2f2"><path d="M338.4 47C307 62.9 224.3 143.2 159.6 220.5c-35.2 42-63 80.7-80 111.1-10.5 18.9-9.5 20.1 12.2 15 22.3-5.3 33.1-6.9 48.7-6.9 17-.1 23.8 1.4 38.1 8.2 5.5 2.6 17.7 9.8 27 15.8 26.9 17.6 37.7 22.3 51 22.3 14 0 24.9-5.1 49.9-23.6 18.4-13.6 24.9-17.8 33.9-21.9 10-4.5 15.4-5.7 29.1-6.4 11.5-.6 12-.7 12.3-2.8.2-1.3-2.1-8.5-5.1-16-11.1-27.8-16.9-54.7-21.5-99.3-1.4-13.8-1.7-28.5-1.7-90.5 0-40.7-.2-74.8-.3-75.8-.3-2.6-3.9-5.7-6.5-5.7-1.3 0-5 1.4-8.3 3z"/><path d="M361.8 356c-16 2.9-24.2 7.4-59.3 33-20.2 14.7-34.7 20.2-48.1 18-12.1-2-21.9-6.8-46.7-22.9-25.2-16.4-36.6-21.3-53.1-23-23.8-2.4-65.8 6.1-113.9 22.9-16.9 6-19.7 7.7-19.7 12.3 0 3.9 3.1 9.3 5.9 10.2 1.2.4 10.9-2.4 25.8-7.4 54.7-18.3 92.3-24.2 112.1-17.5 9.5 3.1 16.5 6.9 35.7 19.3 19.4 12.6 26.6 16.5 36.2 20.1 16.7 6.1 31.4 6 47.3-.1 9.6-3.7 18.3-9.1 36.8-22.8 35.2-26.2 45.6-29 73.1-19.9 15.5 5.1 40.7 18.4 63.1 33.3 11.2 7.4 21.3 13.5 22.3 13.5 3 0 5.4-1.7 7.7-5.5 3.9-6.3 1.6-8.9-23-25.2-19.3-12.8-44-26.2-58.5-31.6-15.7-5.9-33.2-8.6-43.7-6.7z"/><path d="M364.5 397.1c-15.1 2.3-26.4 8.1-49.5 25.4-34.9 26.3-48.2 30.5-70 22.5-8.9-3.2-16.8-7.6-35.9-20.2-17-11.2-31.1-18.2-42.1-20.9-7.4-1.9-10.4-2.1-24.5-1.6-17.1.5-29.9 2.5-50.2 7.7-26.6 6.9-63.9 19.4-67.6 22.7-4.1 3.7.3 15.3 5.8 15.3.8 0 8.4-2.4 16.9-5.4 53-18.5 95.7-26.3 116-21 8.7 2.3 21.2 8.8 39.4 20.6 29.2 19.1 42.4 24.4 60.7 24.2 18.3-.2 30.1-5.6 59.5-27.4 27.7-20.6 40.2-25.8 56.4-23.9 19.2 2.3 53 18.8 86.2 41.9 7.9 5.5 13.9 9 15.4 9 3.5 0 6.4-2.3 8.4-6.5 1.6-3.4 1.6-3.8.1-6.1-4.4-6.7-44.9-32.6-68-43.5-23.2-10.9-41.8-15.1-57-12.8z"/></g></svg>