<svg xmlns="http://www.w3.org/2000/svg" viewBox="0 0 512 512" height="682.667" width="682.667" version="1.0"><path d="M258.927 90.569c-12.419.16-24.023 5.934-30.63 16.348-5.565 8.764-6.987 15.277-6.987 32.922 0 21.199.83 20.963-18.237 5.094-14.685-12.317-35.29-20.015-49.028-18.476-17.764 2.014-31.384 17.645-29.49 33.87 1.303 11.25 14.212 32.094 30.2 48.792 14.329 14.922 29.133 25.462 57.082 40.265 11.606 6.159 11.368 7.816-3.435 19.777-13.382 10.895-22.145 20.607-30.435 33.989-6.513 10.658-28.422 40.146-32.33 43.58-3.672 3.317-8.054 2.843-24.87-2.25-8.882-2.723-15.514-4.144-17.29-3.67-3.553.947-6.515 6.276-6.515 11.605 0 4.5.83 6.04 4.147 7.816 4.737 2.368 42.515 13.5 46.66 13.62 4.381.118 3.433 1.065 19.302-18.12 10.303-12.317 12.909-10.896 14.567 8.408 1.184 12.908-.118 14.093-20.606 19.422-8.763 2.25-16.935 4.975-18.12 6.159-4.262 3.79-1.303 16.225 4.263 17.646 1.895.474 12.081-1.54 27.595-5.33 19.777-4.736 25.105-6.513 27.473-8.881l2.962-2.962-1.777-19.896c-2.25-27.83-2.25-28.421 2.132-32.21 2.014-1.659 7.816-5.33 13.027-8.173 5.21-2.842 13.145-7.934 17.646-11.368 10.066-7.698 11.843-8.409 15.396-6.04 3.434 2.131 4.618 6.869 6.276 23.804 1.895 19.067 1.065 20.368-13.502 22.973-10.066 1.658-13.026 4.264-12.908 11.014 0 7.461 2.724 10.303 9.83 10.303 6.631 0 31.5-4.144 36-6.039 4.501-1.894 4.975-5.21 3.436-23.566-2.014-21.79-1.895-28.305.355-29.134 2.724-1.066 5.092 1.42 13.856 14.803 5.447 8.527 8.053 13.619 8.053 15.987 0 3.908-2.723 9-8.645 16.462-4.737 6.04-4.5 9.83.83 14.686 4.381 4.027 7.46 4.737 11.367 2.724 2.25-1.185 18.357-21.792 21.081-26.884 2.487-4.5 1.54-7.934-5.211-19.303-10.54-18-9.829-21.08 3.435-16.107 18.237 6.869 20.725 9.712 18.593 20.725-2.013 10.659-1.54 15.159 1.657 17.29 5.092 3.435 10.54 3.553 14.093.474 2.605-2.487 3.553-5.092 6.158-18.593 3.553-18.593 3.553-20.487.947-23.803-1.184-1.42-10.657-6.278-21.079-10.778-10.303-4.618-19.778-9.237-20.963-10.303-2.723-2.368-2.723-6.512-.117-11.367 1.065-2.132 2.605-6.752 3.434-10.305 1.066-4.5 2.487-7.224 4.618-8.882 1.658-1.303 21.436-9.591 43.937-18.473 22.5-8.882 41.924-17.173 43.226-18.358 1.303-1.184 2.25-3.551 2.25-5.683 0-4.382-3.672-10.896-6.751-11.843-3.198-1.066-7.697.593-55.187 19.422l-42.515 16.817-12.67-.475c-11.607-.355-13.146-.592-17.765-3.67-8.408-5.567-8.408-5.567-.829-36.002 8.645-35.055 12.672-58.858 12.908-76.148.237-12.435.001-14.212-2.841-20.133-4.382-9.356-9.593-14.804-18.475-19.067-6.351-3.135-13.08-4.59-19.584-4.505zm.872 21.204c5.448.118 12.908 4.026 16.106 8.408 2.487 3.553 2.842 5.211 2.606 14.093-.237 18.356-9.83 66.792-13.856 70.818-4.145 4.264-7.343-.947-14.093-23.448-5.685-18.712-8.29-35.527-7.697-48.673.592-11.842 2.368-15.514 9.355-19.066 2.25-1.185 5.685-2.132 7.58-2.132zm-101.565 35.814c4.914.031 11.458 1.934 18.786 5.516 17.172 8.527 30.554 24.515 44.528 53.174 13.619 28.067 10.422 31.028-16.58 15.159-21.553-12.79-37.778-27.712-49.976-45.831-9.948-14.922-10.54-22.502-2.368-26.884 1.48-.777 3.377-1.149 5.61-1.134zM231.97 281.36c2.368.355 3.08 1.066 3.317 4.382.355 3.67-.355 4.854-7.224 11.367-8.882 8.409-22.384 16.226-24.634 13.976-.829-.83-1.065-2.607-.591-4.62.947-3.671 15.631-18.947 22.026-22.855 2.25-1.422 5.448-2.369 7.106-2.25z" fill="#f2f2f2"/></svg>