<svg version="1.0" xmlns="http://www.w3.org/2000/svg" width="682.667" height="682.667" viewBox="0 0 512 512"><g fill="#f2f2f2"><path d="M240.6 17.6c-42.5 7.7-98.1 46.8-138.5 97.4-48.6 60.8-69.4 128-57.5 185.7 6.4 31.4 25.9 67.8 60 111.9 21.3 27.6 32.1 42.1 39.7 53.6 8.8 13.3 10.5 14.3 20.9 13.6 9.7-.7 10.1-3.8 2.4-19.4-6.6-13.6-18.3-31.1-33.4-50.2-23.6-29.9-27.4-34.9-34.2-44.8-22.5-33-28.1-59.6-19.4-93.2 8-30.8 25.9-60.9 53.1-89.3 30.2-31.4 72-57.3 109.1-67.5 11-3 15.5-3 26.9.1 50 13.7 104.3 53.9 135.3 100.1 27.4 40.9 36.4 80.2 26 112.8-6.2 19.1-16 34.8-44.7 70.9-21.8 27.6-34.6 46.2-41.9 61.1-8.1 16.3-7.3 19.6 4.5 19.6 8.8 0 10.3-1.1 18.8-13.8 7.6-11.5 18.4-26 39.7-53.6 34.1-44.1 53.6-80.5 60-111.9 11.9-57.7-8.9-124.9-57.5-185.7-40.8-51.2-96.3-90-139.3-97.5-10.7-1.8-19.4-1.8-30 .1z"/><path d="M140.1 211.3c-1.7 1.7-1.3 6.2 2 22.8 3.4 16.8 3.9 18.2 7.2 20.3 2.3 1.5 41.7 7.6 51.2 7.9 6.2.2 7.2-.4 5.7-3.7-1.2-2.7-59.5-46.9-62.9-47.8-1.2-.3-2.6-.1-3.2.5zm228.2-.2c-4.2 1.6-62.1 45.8-62.8 48-.7 2.2.7 3.9 3.3 3.9 5.2 0 52.1-7.4 53.9-8.6 3.3-2.1 3.9-3.7 7.2-19.8 4.4-21.1 4.1-25.6-1.6-23.5zM251 270.4c-1.4.7-7 4.1-12.5 7.6-20.5 12.8-29.9 16.8-68 28.7-8.8 2.7-9 2.9-9.3 6.2-.3 2.8 7 16.9 45.3 88.2 30.4 56.3 46.4 85 47.6 85.4 1.1.4 2.7.4 3.8 0 1.2-.4 17.2-29.1 47.6-85.4 38.3-71.3 45.6-85.4 45.3-88.2-.3-3.8 2.6-2.6-30.8-12.9-14.9-4.6-30.2-12-47.8-22.9-13.5-8.4-16.4-9.3-21.2-6.7zm-18.6 98.9c3 3 13.9 35.3 13.4 39.8-.3 3.7-3.6 6.5-8.5 7.5-5.3 1-7.3-2.1-13.7-21.2-3.1-9.3-5.6-18.3-5.6-20 0-3.5 2.3-6.1 6.6-7.4 4.5-1.3 5.3-1.2 7.8 1.3zm58.6.6c4 2.9 3.7 6.6-2.6 25.3-6.4 19.4-8.4 22.4-13.7 21.3-5-1-8.2-3.8-8.5-7.4-.5-4.7 10.4-36.8 13.5-39.9 2.8-2.8 7-2.5 11.3.7z"/></g></svg>