<svg xmlns="http://www.w3.org/2000/svg" viewBox="0 0 512 512" height="682.667" width="682.667" version="1.0"><g fill="#f2f2f2"><path d="M194.996 108.449c-10.88 3.694-17.858 10.57-21.04 21.039-5.233 16.728-.307 34.175 13.035 46.388 11.186 10.263 26.067 15.394 45.054 15.394 5.747 0 11.905.308 13.752.616 7.39 1.54 5.747 9.853-3.181 16.318-9.34 6.671-13.24 10.776-13.24 13.958 0 2.155.719 3.284 2.874 4.31 3.592 1.95 19.91 5.645 27.505 6.466 9.134.924 9.75.102 10.673-14.06 1.232-18.063 4.618-26.581 10.468-26.581 4.003 0 9.853 3.592 10.674 6.568.308 1.334-.205 5.337-1.232 8.929-4.105 15.907-.82 31.096 11.084 50.904 3.797 6.363 6.979 12.623 6.979 13.957 0 1.437-1.95 4.31-4.926 7.492-4.31 4.31-5.132 5.748-5.645 10.366-1.231 10.776-3.694 11.802-21.86 8.62-21.86-3.694-42.283-11.802-60.962-24.117-11.7-7.697-12.52-8.108-15.291-6.158-4.824 3.387-10.88 31.405-10.058 46.696.82 15.395 3.49 16.729 12.829 6.158 6.978-7.8 14.162-12.931 21.45-15.086 5.438-1.642 8.517-1.13 8.517 1.436 0 .924-2.565 5.645-5.644 10.366-7.903 12.11-10.468 21.655-7.39 27.813.719 1.436 1.95 2.668 2.874 2.873.924.103 5.029-2.566 9.134-6.055 9.442-7.8 22.168-14.265 28.428-14.265 3.9 0 5.132.615 9.34 4.515 10.57 9.75 20.628 16.01 31.712 19.602 4.105 1.335 5.747 1.437 7.39.514 2.565-1.335 2.668-3.798.615-14.676-.82-4.413-1.54-13.034-1.54-19.192 0-9.545.309-11.392 2.156-13.752 2.36-2.977 5.645-3.387 11.084-1.54 4.413 1.54 5.234 4.105 5.234 16.729 0 7.8.616 13.136 2.463 20.32 4.413 17.345 7.39 21.04 19.397 23.4 3.49.718 11.187 2.566 17.14 4.208 5.952 1.642 19.704 5.028 30.685 7.697 22.373 5.234 23.297 5.234 26.581-1.334 4.208-8.416 8.621-21.758 8.005-24.323-.615-2.464-.615-2.464-13.136-2.361-15.703.205-21.347-1.642-30.686-10.366-14.06-12.93-17.755-32.328-9.442-48.851 13.444-26.684 49.57-31.2 68.453-8.518 2.053 2.36 4.721 5.644 6.056 7.286 4.413 5.44 5.85 3.798 17.652-20.628 6.158-12.418 10.776-23.297 10.776-25.042 0-1.95-.821-3.489-2.258-4.413-2.566-1.642-42.694-17.344-47.312-18.473-1.745-.41-3.9-.103-5.747.924-3.284 1.642-10.571 12.623-15.087 22.578-4.823 10.674-7.697 12.418-15.292 9.237-7.184-2.976-6.568-7.697 3.592-26.786 5.542-10.469 6.158-12.316 5.235-14.471-1.13-2.566-6.671-5.44-10.263-5.44-3.798 0-8.005 5.132-13.958 16.626-3.181 6.363-6.363 12.213-6.876 12.83-2.053 2.565-10.058 1.23-13.445-2.259-2.873-2.873-2.052-6.67 5.03-21.141l6.67-14.06-3.181-7.698c-6.26-15.189-13.24-22.27-29.865-30.789-7.287-3.592-9.442-4.207-16.729-4.618-13.24-.718-25.863 3.49-44.336 14.573-3.284 2.053-7.287 3.695-8.723 3.695-3.592 0-9.134-6.158-9.134-10.16 0-3.49 2.257-5.645 12.418-11.803 4.413-2.565 8.21-5.542 8.518-6.465 1.026-2.669-2.155-4.926-10.16-7.287-5.337-1.642-9.442-3.9-15.908-8.723-12.11-9.032-20.115-13.65-29.968-17.345-9.955-3.592-21.552-4.72-28.017-2.565zm143.886 80.769c12.11 7.39 8.313 25.041-5.645 26.478-9.75.924-16.01-5.234-15.291-14.881.82-10.776 12.007-17.037 20.936-11.597zm7.492 73.072c1.847 1.847 4.618 5.952 6.055 9.031 2.566 5.44 2.668 6.466 3.181 30.789.514 24.323.616 25.35 3.182 30.789 1.437 3.181 4.105 7.39 5.952 9.442 4.31 4.926 4.31 9.647 0 14.676-1.744 1.95-4.002 3.592-5.028 3.592-2.566 0-10.469-7.287-14.266-13.137-6.67-10.468-7.492-14.573-8.313-42.283-.513-20.218-1.026-25.863-2.36-28.942-2.771-6.055-2.156-10.57 2.155-15.497 2.36-2.668 5.542-2.155 9.442 1.54z"/><path d="M212.648 243.303c-4.31 4.208 10.879 17.55 30.378 26.479 14.881 6.773 38.383 12.828 44.233 11.392 3.9-.924 3.387-3.9-2.463-13.958-7.39-12.829-8.005-13.24-21.244-14.984-13.855-1.745-24.836-4.002-35.51-7.184-8.415-2.36-14.163-3.079-15.394-1.745zm-44.952 51.623c-2.052 1.129-5.234 3.49-7.081 5.337l-3.387 3.284.513 10.365c.719 13.137 4.619 25.042 12.008 36.228 2.873 4.414 5.234 9.237 5.234 10.674 0 3.387-3.182 7.39-7.184 9.031-2.566 1.027-3.49 1.027-5.645-.41-6.568-4.31-16.626-22.579-20.012-36.536-4.208-16.831-4.003-16.318-6.569-17.037-2.976-.718-6.26.924-8.005 4.003-1.642 2.976-1.54 26.889.205 38.075 3.695 24.323 12.83 44.13 27.402 60.141 6.774 7.39 7.8 9.442 6.466 12.829-1.437 3.797-6.055 7.697-9.134 7.697-3.49 0-15.6-12.316-22.681-23.194-13.24-20.218-19.5-40.026-21.552-68.351-1.437-18.679-1.54-19.09-4.721-19.91-2.874-.719-18.986 2.257-23.194 4.413-4.003 1.95-4.105 5.644-.308 20.833 9.955 39.82 28.12 72.867 56.549 102.63 11.597 12.212 12.418 14.06 8.518 19.704-2.669 3.695-6.26 5.235-9.442 4.003-3.284-1.232-17.858-16.01-26.889-27.3-23.297-29.044-38.589-60.961-47.62-99.037-4.413-18.37-4.413-18.473-19.91-18.473-13.855 0-18.884 1.232-19.807 4.516-1.13 4.823 14.162 40.23 26.786 61.783 6.67 11.289 16.934 26.786 25.554 38.383 6.774 9.031 7.082 11.7 2.464 16.318-4.927 4.824-8.827 4.413-13.958-1.437-15.087-17.139-36.33-52.751-50.083-83.95-6.363-14.677-8.826-18.269-10.776-16.319C.307 354.246 0 358.146 0 368.614c.103 13.342.308 14.676 3.9 26.273 6.67 20.834 14.06 39.41 23.4 58.088 12.212 24.323 29.865 50.699 38.177 56.857 3.9 2.873 15.087 3.592 18.679 1.231 3.182-2.155 3.182-3.592 0-17.96-1.54-6.568-2.36-12.52-1.95-14.06 1.232-4.926 11.802-7.39 15.19-3.592 1.025 1.026 3.489 8.826 5.644 17.139 3.284 12.52 4.413 15.6 6.67 17.55l2.772 2.36h34.894c35.099 0 38.896-.308 38.896-3.695 0-.82-4.31-5.85-9.442-11.084-8.723-8.723-15.086-17.344-16.626-22.783-.923-3.08 2.874-7.287 7.595-8.621 5.337-1.437 7.184-.41 12.213 6.979 10.878 16.112 31.2 29.146 56.959 36.536l9.031 2.668h43.002c42.078 0 43.002 0 45.157-2.155 2.463-2.463 2.053-5.953-1.437-13.137-3.49-7.081-3.797-7.184-20.423-3.694-12.52 2.668-16.934 3.078-30.07 3.078-17.242-.102-25.145-1.744-39-8.107-14.368-6.671-38.896-25.76-42.283-33.047-1.642-3.284-1.642-3.695.308-6.26 3.387-4.516 7.081-6.774 9.955-6.055 1.437.307 6.671 4.31 11.495 8.826 21.346 19.807 40.128 27.607 63.014 26.375 15.292-.718 23.297-3.592 19.91-6.978-.513-.513-6.26-2.977-12.726-5.44-19.705-7.492-33.97-15.394-48.749-26.889-14.779-11.494-16.626-15.394-10.058-21.552 1.95-1.95 4.721-3.49 5.953-3.49 1.437 0 6.26 3.182 12.008 7.8 16.01 12.83 32.122 21.758 49.672 27.403 14.06 4.515 16.318 4.515 17.858.308 1.129-2.977-2.156-25.452-4.208-28.531-1.232-1.95-5.44-4.003-16.318-8.005-16.831-6.158-34.278-13.958-49.775-22.066-5.953-3.079-11.495-5.644-12.213-5.644-.821 0-2.463 1.334-3.798 3.079-4.31 5.952-6.568 4.105-17.139-13.855-3.9-6.774-8.005-13.445-9.134-14.882-1.847-2.36-2.155-2.36-6.055-1.129-5.542 1.848-7.902.821-12.623-5.336-10.16-13.547-13.958-27.608-12.726-46.594.923-13.855-.308-15.6-7.903-11.597zm13.137 94.932c1.231.924 3.284 4.31 4.515 7.697 2.771 7.697 5.235 10.982 12.008 16.318 4.413 3.592 5.337 4.824 5.337 7.595 0 4.105-3.182 9.544-6.158 10.468-3.284 1.026-12.315-3.9-17.755-9.647-5.337-5.645-9.031-12.418-11.494-20.937-1.54-5.439-1.54-6.157-.103-8.415 2.668-4.003 9.955-5.645 13.65-3.079z"/><path d="M250.313 347.267c-6.774 3.387-11.7 8.518-11.7 12.213 0 4.413 4.413 7.39 28.223 19.089 20.629 10.16 37.562 16.934 42.386 16.934 4.516 0 5.337-1.642 5.337-10.88 0-10.98-1.232-12.417-14.266-16.83-12.726-4.208-23.604-9.853-32.944-16.831-8.313-6.364-10.57-6.877-17.036-3.695zM.718 453.693C.308 454.72 0 467.446 0 482.02v26.58l2.463 1.95c2.053 1.745 4.105 1.95 17.037 1.95 12.212 0 14.983-.308 16.42-1.642 2.258-2.258 1.54-3.9-7.184-17.242-4.105-6.26-10.776-17.344-14.676-24.528C4.926 452.257 2.463 449.486.718 453.693z"/></g></svg>