<svg version="1.0" xmlns="http://www.w3.org/2000/svg" width="682.667" height="682.667" viewBox="0 0 512 512"><g fill="#f2f2f2"><path d="M246 25.6c-1.4.2-5.1.9-8.3 1.5-41.1 7.4-85.8 46-97.6 84.3-3.7 11.9-3.4 13.3 8.3 37.5 17.1 35.7 21.9 50 18.6 56.1-1.1 2.1-6.7 3.5-10.4 2.6-3.9-1-5.3-3.1-8.1-12.4-3.5-11.3-9.5-25.3-21.1-48.3-15.9-31.9-25.6-46.3-37.2-55.4-6.1-4.8-11.1-6-11.3-2.8-.1 1-.2 9.7-.3 19.3-.5 33.1-7.2 51.8-25.9 71.5-4.8 5.1-8.7 9.9-8.7 10.7 0 2.2 2.4 3.9 14.2 10.2 21.7 11.5 41 25.9 56.9 42.2 18.5 19.1 20.5 24 11.9 29.8-5.3 3.5-7.1 2.5-18.2-10.1-15.4-17.4-35.6-33.6-53.6-43-7-3.6-10-4.1-10.9-1.7-.3.9 1.3 7 3.5 13.7 5.2 15.6 7.2 26.4 7.2 39.2 0 19.2-3.9 34.3-14.5 56.4-3.6 7.3-6.5 14.3-6.5 15.6 0 3.3 2.7 5 11 7 24.2 5.7 49 14.5 64 22.7 30.2 16.5 57.7 42.4 87.8 82.9 17.8 23.9 31.8 31.3 59.2 31.3 27.4 0 41.4-7.4 59.2-31.3 36.9-49.6 69-76.8 108.8-92.4 13-5.1 20.1-7.3 38-11.7 13.1-3.3 16-4.9 16-8.5 0-1.3-2.9-8.3-6.5-15.6-10.6-22.1-14.5-37.2-14.5-56.4 0-12.8 2-23.6 7.2-39.2 2.2-6.7 3.8-12.8 3.5-13.7-1.1-2.8-5-1.8-14.6 3.7-19.4 11.2-38.5 27.2-54.5 45.9-6.2 7.4-8.8 8.4-13.6 5.2-8.6-5.8-6.6-10.7 11.9-29.8 15.9-16.3 35.2-30.7 56.9-42.2 12-6.4 14.2-8 14.2-10.3 0-.9-3.2-4.8-7.1-8.6-12.9-12.8-21.1-27.8-25.1-46-1.6-6.8-2.1-13.5-2.3-27.5-.2-10.2-.3-19.1-.4-19.8-.2-3-5.8-1.1-12.2 4.1-11.7 9.7-20.5 22.9-36.3 54.6-11.6 23-17.6 37-21.1 48.3-1.4 4.8-3.3 9.4-4.1 10.3-2.1 2.1-5.8 2.8-9.9 2.1-10-1.9-6.9-15.1 14.1-58.7 11.7-24.2 12-25.6 8.3-37.5-11.5-37.2-51-72.5-93.4-83.4-7.7-2-26.9-3.4-32.5-2.4zm-51.7 246.9c9.4 2 17.5 6.6 24.7 14.1 18.4 19.1 18.3 47.7-.2 67-18.9 19.7-48.6 20.2-68.4 1.2-19.6-18.8-20.2-48.6-1.4-68.2 12.3-12.9 28.1-17.8 45.3-14.1zm144 0c9.4 2 17.5 6.6 24.7 14.1 18.4 19.1 18.3 47.7-.2 67-18.9 19.7-48.6 20.2-68.4 1.2-19.6-18.8-20.2-48.6-1.4-68.2 12.3-12.9 28.1-17.8 45.3-14.1z"/><path d="M170.2 293.1c-6.9 3.4-10.4 7.1-13.8 14.4-2.7 5.8-3.2 14.1-1 17.1 1.4 1.8 1.6 1.6 3.6-3.1 3.9-9.4 5.5-12 10-16.5s7.1-6.1 16.5-10c4.7-2 4.9-2.2 3.1-3.6-3.4-2.5-11.6-1.8-18.4 1.7zm144 0c-6.9 3.4-10.4 7.1-13.8 14.4-2.7 5.8-3.2 14.1-1 17.1 1.4 1.8 1.6 1.6 3.6-3.1 3.9-9.4 5.5-12 10-16.5s7.1-6.1 16.5-10c4.7-2 4.9-2.2 3.1-3.6-3.4-2.5-11.6-1.8-18.4 1.7z"/></g></svg>