<svg xmlns="http://www.w3.org/2000/svg" viewBox="0 0 25.4 25.4" height="96" width="96"><g font-weight="400" font-family="Poppins" word-spacing="0" text-anchor="middle" stroke-linecap="round" stroke-linejoin="round"><g style="line-height:1.5;-inkscape-font-specification:Poppins;text-align:center" aria-label="4." font-size="10.559" letter-spacing="-.011" fill="#1b1b1b" stroke="#1b1b1b" stroke-width=".082"><path style="-inkscape-font-specification:Poppins;text-align:center" d="M12.69 17.232l-.424-.451-.684-5.337.714-.67 2.921 3.118.655-.614.485.517-.655.614.988 1.054-.59.553-.987-1.055zm-.375-5.307l.577 4.146 1.762-1.651z" letter-spacing="-.619" stroke-width=".07"/><path d="M17.882 14.42q-.17.16-.398.152-.229-.007-.388-.178-.16-.17-.153-.398.008-.229.178-.388.164-.154.386-.14.228.007.387.178.16.17.153.398-.001.222-.165.376z" fill="none" stroke="none"/></g><path style="line-height:1.5;-inkscape-font-specification:Poppins;font-variant-ligatures:normal;font-variant-position:normal;font-variant-caps:normal;font-variant-numeric:normal;font-variant-alternates:normal;font-feature-settings:normal;text-indent:0;text-align:center;text-decoration-line:none;text-decoration-style:solid;text-decoration-color:#000;text-transform:none;text-orientation:mixed;white-space:normal;shape-padding:0" d="M-244.115 177.118q-.174-.88-1.085-.88-.705 0-1.054.547-.348.539-.34 1.782.182-.412.602-.641.427-.238.95-.238.816 0 1.3.507.49.507.49 1.402 0 .539-.213.966-.206.428-.634.682-.42.253-1.022.253-.816 0-1.275-.364-.46-.365-.642-1.006-.182-.642-.182-1.585 0-2.907 2.028-2.907.776 0 1.22.42.443.42.522 1.062zm-1.077 1.18q-.34 0-.642.142-.3.135-.491.42-.182.278-.182.682 0 .602.348.982.349.372.998.372.555 0 .88-.34.332-.35.332-.935 0-.618-.316-.967-.317-.356-.927-.356z" transform="matrix(-.1303 -.66064 1.11098 .08792 -213.995 -170.815)" aria-label="6" font-size="7.921" letter-spacing="-.464" fill="#3d3d3d" stroke="#3d3d3d" stroke-width=".062"/><path style="line-height:1.5;-inkscape-font-specification:Poppins;font-variant-ligatures:normal;font-variant-position:normal;font-variant-caps:normal;font-variant-numeric:normal;font-variant-alternates:normal;font-feature-settings:normal;text-indent:0;text-align:center;text-decoration-line:none;text-decoration-style:solid;text-decoration-color:#000;text-transform:none;text-orientation:mixed;white-space:normal;shape-padding:0" d="M318.156 102.141q0-1.368.445-2.131.445-.772 1.559-.772 1.105 0 1.55.772.446.763.446 2.131 0 1.392-.446 2.163-.445.772-1.55.772-1.114 0-1.559-.772-.445-.771-.445-2.163zm3.284 0q0-.692-.095-1.169-.088-.485-.374-.78-.278-.294-.811-.294-.541 0-.827.295-.279.294-.374.779-.088.477-.088 1.17 0 .715.088 1.2.095.485.374.78.286.294.827.294.533 0 .81-.295.287-.294.375-.779.095-.485.095-1.2z" letter-spacing="-.794" transform="matrix(.66765 .23046 .06872 1.10588 -213.995 -170.815)" aria-label="0" font-size="7.953" fill="#3d3d3d" stroke="#3d3d3d" stroke-width=".062"/><g style="line-height:1.5;-inkscape-font-specification:Poppins;text-align:center"><path style="-inkscape-font-specification:Poppins;text-align:center" d="M-525.761-1080.604v-.23h.52v2.003h-.254v-1.773z" letter-spacing="-.162" transform="matrix(-1.0948 2.47468 .31608 -1.3744 -213.995 -170.815)" aria-label="1" font-size="2.771" fill="#0f0f0f" stroke="#0f0f0f" stroke-width=".022"/></g><g style="line-height:1.5;-inkscape-font-specification:Poppins;text-align:center"><path style="-inkscape-font-specification:Poppins;text-align:center" d="M332.471-750.227l-.873 2.046h-.288l.885-2.018h-1.212v-.245h1.488z" transform="matrix(-1.90262 .78802 -1.14505 .09451 -213.995 -170.815)" aria-label="7" font-size="3.139" letter-spacing="-.331" fill="#141414" stroke="#141414" stroke-width=".025"/></g></g></svg>