<svg xmlns="http://www.w3.org/2000/svg" viewBox="0 0 25.4 25.4" height="96" width="96"><g font-weight="400" font-family="Poppins" word-spacing="0" text-anchor="middle" stroke-linecap="round" stroke-linejoin="round"><g style="line-height:1.5;-inkscape-font-specification:Poppins;text-align:center"><path style="-inkscape-font-specification:Poppins;text-align:center" d="M13.502 10.432l2.181 5.975-.602.565-2.1-5.941-2.528 2.369-.479-.511 3.104-2.91z" letter-spacing="-.619" aria-label="7" font-size="10.559" fill="#1b1b1b" stroke="#1b1b1b" stroke-width=".07"/></g><path style="line-height:1.5;-inkscape-font-specification:Poppins;font-variant-ligatures:normal;font-variant-position:normal;font-variant-caps:normal;font-variant-numeric:normal;font-variant-alternates:normal;font-feature-settings:normal;text-indent:0;text-align:center;text-decoration-line:none;text-decoration-style:solid;text-decoration-color:#000;text-transform:none;text-orientation:mixed;white-space:normal;shape-padding:0" d="M-239.259 236.421q.056-.729.562-1.14.507-.413 1.315-.413.539 0 .927.198.396.19.594.523.206.333.206.753 0 .49-.285.847-.277.357-.729.46v.04q.515.126.816.498.301.373.301.975 0 .451-.206.816-.206.356-.618.562-.412.206-.99.206-.84 0-1.378-.436-.539-.443-.602-1.251h.697q.055.475.388.776.333.301.887.301.555 0 .84-.285.293-.293.293-.753 0-.594-.396-.855-.396-.262-1.196-.262h-.182v-.602h.19q.728-.008 1.1-.237.373-.238.373-.729 0-.42-.277-.673-.27-.254-.776-.254-.492 0-.793.254-.3.253-.356.681z" transform="matrix(-.1303 -.66064 1.11098 .08792 -278.765 -170.815)" aria-label="3" font-size="7.921" letter-spacing="-.464" fill="#3d3d3d" stroke="#3d3d3d" stroke-width=".062"/><path style="line-height:1.5;-inkscape-font-specification:Poppins;font-variant-ligatures:normal;font-variant-position:normal;font-variant-caps:normal;font-variant-numeric:normal;font-variant-alternates:normal;font-feature-settings:normal;text-indent:0;text-align:center;text-decoration-line:none;text-decoration-style:solid;text-decoration-color:#000;text-transform:none;text-orientation:mixed;white-space:normal;shape-padding:0" d="M418.328 79.326v-.66h1.496v5.75h-.732v-5.09z" letter-spacing="-.794" transform="matrix(.66765 .23046 .06872 1.10588 -278.765 -170.815)" aria-label="1" font-size="7.953" fill="#3d3d3d" stroke="#3d3d3d" stroke-width=".062"/><g style="line-height:1.5;-inkscape-font-specification:Poppins;text-align:center"><path style="-inkscape-font-specification:Poppins;text-align:center" d="M-649.332-1301.702q0-.476.155-.742.155-.269.543-.269.385 0 .54.269.156.266.156.742 0 .485-.156.754-.155.269-.54.269-.388 0-.543-.269-.155-.269-.155-.754zm1.144 0q0-.24-.033-.407-.03-.169-.13-.271-.097-.103-.283-.103-.188 0-.288.103-.097.102-.13.271-.03.166-.03.407 0 .25.03.419.033.169.13.271.1.103.288.103.186 0 .283-.103.1-.102.13-.271.033-.17.033-.419z" letter-spacing="-.162" transform="matrix(-1.0948 2.47468 .31608 -1.3744 -278.765 -170.815)" aria-label="0" font-size="2.771" fill="#0f0f0f" stroke="#0f0f0f" stroke-width=".022"/></g><g style="line-height:1.5;-inkscape-font-specification:Poppins;text-align:center"><path style="-inkscape-font-specification:Poppins;text-align:center" d="M339.348-819.33v-.216l1.101-1.526h.343v1.494h.313v.248h-.313v.506h-.283v-.506zm1.174-1.443l-.845 1.195h.845z" transform="matrix(-1.90262 .78802 -1.14505 .09451 -278.765 -170.815)" aria-label="4" font-size="3.139" letter-spacing="-.331" fill="#141414" stroke="#141414" stroke-width=".025"/></g></g></svg>