<svg xmlns="http://www.w3.org/2000/svg" viewBox="0 0 25.4 25.4" height="96" width="96"><g font-weight="400" font-family="Poppins" letter-spacing="0" word-spacing="0" text-anchor="middle" stroke-linecap="round" stroke-linejoin="round"><g style="line-height:1.5;-inkscape-font-specification:Poppins;text-align:center"><path style="-inkscape-font-specification:Poppins;text-align:center" d="M10.916 15.27q1.012-.812 1.585-1.33.573-.525.964-1.09.398-.574.398-1.124 0-.517-.255-.812-.247-.303-.804-.303-.542 0-.845.343-.294.334-.318.9h-.701q.032-.892.542-1.378.51-.486 1.314-.486.82 0 1.298.454.485.454.485 1.25 0 .661-.398 1.29-.39.622-.892 1.1-.501.47-1.282 1.099h2.74v.605h-3.83z" aria-label="2" font-size="7.964" fill="#1b1b1b" stroke="#1b1b1b" stroke-width=".249"/></g><g style="line-height:1.5;-inkscape-font-specification:Poppins;text-align:center"><path style="-inkscape-font-specification:Poppins;text-align:center" d="M216.594 359.548v-.403h.912v3.508h-.446v-3.105z" transform="matrix(.74373 -1.14237 .17085 1.08214 -203.2 -127)" aria-label="1" font-size="4.851" fill="#101010" stroke="#0f0f0f" stroke-width=".152"/></g><g style="line-height:1.5;-inkscape-font-specification:Poppins;text-align:center"><path style="-inkscape-font-specification:Poppins;text-align:center" d="M174.681-204.242v-.4h.907v3.486h-.444v-3.086zm1.659 1.306q0-.83.27-1.292.27-.468.945-.468.67 0 .94.468.27.463.27 1.292 0 .844-.27 1.312-.27.468-.94.468-.675 0-.945-.468-.27-.468-.27-1.312zm1.991 0q0-.42-.058-.709-.053-.294-.226-.472-.169-.178-.492-.178-.328 0-.502.178-.168.178-.226.472-.053.29-.053.71 0 .433.053.727.058.295.227.473.173.178.501.178.323 0 .492-.178.173-.178.226-.473.058-.294.058-.728z" transform="matrix(-.49582 .60338 -1.49263 -.20043 -203.2 -127)" aria-label="10" font-size="4.822" fill="#141414" stroke="#141414" stroke-width=".151"/></g><g style="line-height:1.5;-inkscape-font-specification:Poppins;text-align:center"><path style="-inkscape-font-specification:Poppins;text-align:center" d="M-31.192-270.785v-.334l1.701-2.356h.528v2.307h.485v.383h-.485v.78h-.436v-.78zm1.813-2.23l-1.304 1.847h1.304z" transform="matrix(-.0013 1.30307 -.76675 -.66469 -203.2 -127)" aria-label="4" font-size="4.847" fill="#171717" stroke="#171717" stroke-width=".151"/></g><g style="line-height:1.5;-inkscape-font-specification:Poppins;text-align:center"><path style="-inkscape-font-specification:Poppins;text-align:center" d="M-107.217 125.299q-.262-.103-.402-.3-.14-.196-.14-.476 0-.252.126-.453.126-.206.374-.323.252-.121.607-.121t.603.121q.252.117.379.323.13.2.13.453 0 .271-.144.477-.145.2-.398.299.29.089.458.313.173.22.173.533 0 .303-.15.532-.149.225-.425.35-.27.122-.626.122-.355 0-.626-.121-.266-.126-.416-.35-.15-.23-.15-.533 0-.313.169-.538.168-.224.458-.308zm1.266-.725q0-.285-.187-.439-.187-.154-.514-.154-.322 0-.51.154-.186.154-.186.444 0 .262.192.42.196.16.504.16.313 0 .505-.16.196-.163.196-.425zm-.7.912q-.347 0-.566.163-.22.16-.22.482 0 .299.21.481.215.182.575.182t.57-.182q.21-.182.21-.481 0-.313-.214-.477-.215-.168-.566-.168z" transform="matrix(-.81367 -1.06095 1.06788 .16342 -203.2 -127)" aria-label="8" font-size="4.673" fill="#171717" stroke="#171717" stroke-width=".146"/></g><g style="line-height:1.5;-inkscape-font-specification:Poppins;text-align:center"><path style="-inkscape-font-specification:Poppins;text-align:center" d="M-259.645-263.065l-1.334 3.128h-.441l1.353-3.085h-1.852v-.374h2.274z" transform="matrix(-1.244 .4538 .4321 -.96148 -203.2 -127)" aria-label="7" font-size="4.798" fill="#7f7f7f" stroke="#7f7f7f" stroke-width=".15"/></g></g></svg>