<svg xmlns="http://www.w3.org/2000/svg" viewBox="0 0 25.4 25.4" height="96" width="96"><g font-weight="400" font-family="Poppins" word-spacing="0" text-anchor="middle" stroke-linecap="round" stroke-linejoin="round"><path style="line-height:1.5;-inkscape-font-specification:Poppins;font-variant-ligatures:normal;font-variant-position:normal;font-variant-caps:normal;font-variant-numeric:normal;font-variant-alternates:normal;font-feature-settings:normal;text-indent:0;text-align:center;text-decoration-line:none;text-decoration-style:solid;text-decoration-color:#000;text-transform:none;text-orientation:mixed;white-space:normal;shape-padding:0" d="M11.244 12.695l-.51-.543 1.232-1.154 4.437 4.734-.602.565-3.928-4.191z" aria-label="1" font-size="10.559" letter-spacing="-.619" fill="#f2f2f2" stroke="#f2f2f2" stroke-width=".07"/><path style="line-height:1.5;-inkscape-font-specification:Poppins;font-variant-ligatures:normal;font-variant-position:normal;font-variant-caps:normal;font-variant-numeric:normal;font-variant-alternates:normal;font-feature-settings:normal;text-indent:0;text-align:center;text-decoration-line:none;text-decoration-style:solid;text-decoration-color:#000;text-transform:none;text-orientation:mixed;white-space:normal;shape-padding:0" d="M-284.51 113.2l-2.202 5.165h-.73l2.235-5.094h-3.058v-.618h3.755z" transform="matrix(-.1303 -.66064 1.11098 .08792 -149.225 -192.405)" aria-label="7" font-size="7.921" letter-spacing="-.464" fill="#f4f4f4" stroke="#f4f4f4" stroke-width=".062"/><path style="line-height:1.5;-inkscape-font-specification:Poppins;font-variant-ligatures:normal;font-variant-position:normal;font-variant-caps:normal;font-variant-numeric:normal;font-variant-alternates:normal;font-feature-settings:normal;text-indent:0;text-align:center;text-decoration-line:none;text-decoration-style:solid;text-decoration-color:#000;text-transform:none;text-orientation:mixed;white-space:normal;shape-padding:0" d="M217.284 144.144q.079.453.365.7.295.246.788.246.66 0 .97-.517.318-.517.302-1.741-.167.358-.557.564-.39.2-.866.2-.533 0-.955-.215-.413-.223-.652-.645-.238-.421-.238-1.018 0-.85.493-1.367.493-.525 1.4-.525 1.113 0 1.558.723.453.724.453 2.156 0 1.002-.183 1.654-.175.652-.604.994-.421.342-1.161.342-.811 0-1.265-.438-.453-.437-.517-1.113zm1.12-1.161q.534 0 .876-.326.342-.334.342-.899 0-.596-.334-.962t-.939-.366q-.556 0-.89.35-.327.35-.327.922 0 .581.326.931.327.35.947.35zm2.843 2.752q-.207 0-.35-.144-.143-.143-.143-.35 0-.206.143-.35.143-.143.35-.143.2 0 .334.144.143.143.143.35 0 .206-.143.35-.135.143-.334.143z" transform="matrix(.66765 .23046 .06872 1.10588 -149.225 -192.405)" aria-label="9." font-size="7.953" letter-spacing="-.466" fill="#f4f4f4" stroke="#f4f4f4" stroke-width=".062"/><path style="line-height:1.5;-inkscape-font-specification:Poppins;font-variant-ligatures:normal;font-variant-position:normal;font-variant-caps:normal;font-variant-numeric:normal;font-variant-alternates:normal;font-feature-settings:normal;text-indent:0;text-align:center;text-decoration-line:none;text-decoration-style:solid;text-decoration-color:#000;text-transform:none;text-orientation:mixed;white-space:normal;shape-padding:0" d="M-412.419-890.145v-.19l.973-1.347h.302v1.319h.277v.218h-.277v.447h-.25v-.447zm1.037-1.274l-.746 1.056h.746z" transform="matrix(-1.0948 2.47468 .31608 -1.3744 -149.225 -192.405)" aria-label="4" font-size="2.771" letter-spacing="-.162" fill="#8c8c8c" stroke="#8c8c8c" stroke-width=".022"/><path style="line-height:1.5;-inkscape-font-specification:Poppins;font-variant-ligatures:normal;font-variant-position:normal;font-variant-caps:normal;font-variant-numeric:normal;font-variant-alternates:normal;font-feature-settings:normal;text-indent:0;text-align:center;text-decoration-line:none;text-decoration-style:solid;text-decoration-color:#000;text-transform:none;text-orientation:mixed;white-space:normal;shape-padding:0" d="M357.706-736.121q-.07-.349-.43-.349-.28 0-.418.217-.138.213-.135.706.073-.163.239-.254.17-.094.377-.094.323 0 .514.2.195.201.195.556 0 .214-.085.383-.081.17-.25.27-.167.1-.406.1-.323 0-.505-.144t-.254-.399q-.072-.254-.072-.627 0-1.152.803-1.152.308 0 .483.166.176.166.208.42zm-.427.467q-.135 0-.254.057-.12.053-.195.166-.072.11-.072.27 0 .239.138.39.138.147.396.147.22 0 .348-.135.132-.138.132-.37 0-.245-.126-.383-.125-.142-.367-.142zm1.109 1.281q-.081 0-.138-.057-.056-.056-.056-.138 0-.081.056-.138.057-.056.138-.056.079 0 .132.056.057.057.057.138 0 .082-.057.138-.053.057-.132.057z" transform="matrix(-1.90262 .78802 -1.14505 .09451 -149.225 -192.405)" aria-label="6." font-size="3.139" letter-spacing="-.184" fill="#b6b6b6" stroke="#b6b6b6" stroke-width=".025"/></g></svg>