<svg xmlns="http://www.w3.org/2000/svg" viewBox="0 0 25.4 25.4" height="96" width="96"><defs><clipPath id="a" clipPathUnits="userSpaceOnUse"><path style="line-height:normal;font-variant-ligatures:normal;font-variant-position:normal;font-variant-caps:normal;font-variant-numeric:normal;font-variant-alternates:normal;font-feature-settings:normal;text-indent:0;text-align:start;text-decoration-line:none;text-decoration-style:solid;text-decoration-color:#000;text-transform:none;text-orientation:mixed;white-space:normal;shape-padding:0;isolation:auto;mix-blend-mode:normal;solid-color:#000;solid-opacity:1" d="M317.53 78.895a2.185 2.185 0 00-.706.105l-4.596 1.494c-.44.143-.822.421-1.094.795l-2.84 3.91a2.186 2.186 0 00-.418 1.283v4.834c0 .462.147.912.418 1.286l2.84 3.91c.272.374.654.652 1.094.795l4.596 1.492c.439.143.912.143 1.351 0l4.598-1.492c.438-.143.82-.422 1.092-.795l2.841-3.91c.272-.374.418-.824.418-1.286v-4.834c0-.46-.146-.91-.418-1.283l-2.841-3.91a2.186 2.186 0 00-1.092-.795L318.175 79a2.186 2.186 0 00-.644-.105z" color="#000" font-weight="400" font-family="sans-serif" overflow="visible" fill="#1b1b1b" stroke-width="4.371" stroke-linecap="round" stroke-linejoin="round"/></clipPath></defs><path transform="translate(-304.8 -76.2)" clip-path="url(#a)" d="M317.5 78.77l5.954 1.935 3.68 5.065v6.26l-3.68 5.065-5.954 1.935-5.954-1.935-3.68-5.065v-6.26l3.68-5.065z"/></svg>