<svg xmlns="http://www.w3.org/2000/svg" viewBox="0 0 25.4 25.4" height="96" width="96"><g font-weight="400" font-family="Poppins" word-spacing="0" text-anchor="middle" stroke-linecap="round" stroke-linejoin="round"><g style="line-height:1.5;-inkscape-font-specification:Poppins;text-align:center"><path style="-inkscape-font-specification:Poppins;text-align:center" d="M11.244 12.695l-.51-.543 1.232-1.154 4.437 4.734-.602.565-3.928-4.191z" letter-spacing="-.619" aria-label="1" font-size="10.559" fill="#1b1b1b" stroke="#1b1b1b" stroke-width=".07"/></g><path style="line-height:1.5;-inkscape-font-specification:Poppins;font-variant-ligatures:normal;font-variant-position:normal;font-variant-caps:normal;font-variant-numeric:normal;font-variant-alternates:normal;font-feature-settings:normal;text-indent:0;text-align:center;text-decoration-line:none;text-decoration-style:solid;text-decoration-color:#000;text-transform:none;text-orientation:mixed;white-space:normal;shape-padding:0" d="M-251.312 117.093l-2.202 5.165h-.728l2.233-5.093h-3.057v-.618h3.754z" transform="matrix(-.1303 -.66064 1.11098 .08792 -149.225 -170.815)" aria-label="7" font-size="7.921" letter-spacing="-.464" fill="#3d3d3d" stroke="#3d3d3d" stroke-width=".062"/><path style="line-height:1.5;-inkscape-font-specification:Poppins;font-variant-ligatures:normal;font-variant-position:normal;font-variant-caps:normal;font-variant-numeric:normal;font-variant-alternates:normal;font-feature-settings:normal;text-indent:0;text-align:center;text-decoration-line:none;text-decoration-style:solid;text-decoration-color:#000;text-transform:none;text-orientation:mixed;white-space:normal;shape-padding:0" d="M219.501 124.193q.08.453.366.7.294.247.787.247.66 0 .97-.517.318-.517.303-1.742-.167.358-.557.565-.39.198-.867.198-.533 0-.954-.214-.414-.223-.652-.645-.239-.421-.239-1.017 0-.851.493-1.368.493-.525 1.4-.525 1.113 0 1.558.723.454.724.454 2.156 0 1.002-.183 1.654-.175.652-.605.994-.421.342-1.16.342-.812 0-1.265-.437-.453-.438-.517-1.114zm1.121-1.161q.533 0 .875-.326.342-.334.342-.899 0-.596-.334-.962t-.938-.366q-.557 0-.891.35-.326.35-.326.923 0 .58.326.93.326.35.946.35zm2.515 2.752q-.207 0-.35-.143-.143-.144-.143-.35 0-.207.143-.35t.35-.143q.199 0 .334.143.143.143.143.35 0 .206-.143.35-.135.143-.334.143z" transform="matrix(.66765 .23046 .06872 1.10588 -149.225 -170.815)" aria-label="9." font-size="7.953" letter-spacing="-.794" fill="#3d3d3d" stroke="#3d3d3d" stroke-width=".062"/><g style="line-height:1.5;-inkscape-font-specification:Poppins;text-align:center"><path style="-inkscape-font-specification:Poppins;text-align:center" d="M-402.974-857.43v-.19l.973-1.347h.302v1.319h.277v.219h-.277v.446h-.25v-.446zm1.037-1.274l-.746 1.056h.746z" letter-spacing="-.162" transform="matrix(-1.0948 2.47468 .31608 -1.3744 -149.225 -170.815)" aria-label="4" font-size="2.771" fill="#0f0f0f" stroke="#0f0f0f" stroke-width=".022"/></g><g style="line-height:1.5;-inkscape-font-specification:Poppins;text-align:center"><path style="-inkscape-font-specification:Poppins;text-align:center" d="M323.563-679.266q-.07-.349-.43-.349-.28 0-.418.217-.138.213-.135.706.072-.163.239-.254.17-.095.376-.095.324 0 .515.201.195.201.195.556 0 .213-.085.383-.082.17-.251.27-.167.1-.405.1-.323 0-.505-.144-.183-.145-.255-.399-.072-.254-.072-.628 0-1.151.804-1.151.307 0 .483.166t.207.42zm-.427.467q-.135 0-.255.057-.119.053-.194.166-.072.11-.072.27 0 .239.138.39.138.147.395.147.22 0 .349-.135.131-.138.131-.37 0-.245-.125-.384-.126-.14-.367-.14zm.962 1.281q-.082 0-.138-.057-.057-.056-.057-.138 0-.081.057-.138.056-.056.138-.056.079 0 .132.056.056.057.056.138 0 .082-.056.138-.054.057-.132.057z" transform="matrix(-1.90262 .78802 -1.14505 .09451 -149.225 -170.815)" aria-label="6." font-size="3.139" letter-spacing="-.331" fill="#141414" stroke="#141414" stroke-width=".025"/></g></g></svg>