<svg xmlns="http://www.w3.org/2000/svg" viewBox="0 0 25.4 25.4" height="96" width="96"><g font-weight="400" font-family="Poppins" word-spacing="0" text-anchor="middle" stroke-linecap="round" stroke-linejoin="round"><g style="line-height:1.5;-inkscape-font-specification:Poppins;text-align:center"><path style="-inkscape-font-specification:Poppins;text-align:center" d="M10.157 10.755v-.661h1.497v5.758h-.733v-5.097zm3.343 0v-.661h1.496v5.758h-.732v-5.097z" aria-label="11" font-size="7.964" letter-spacing=".794" fill="#1b1b1b" stroke="#1b1b1b" stroke-width=".249"/></g><g style="line-height:1.5;-inkscape-font-specification:Poppins;text-align:center"><path style="-inkscape-font-specification:Poppins;text-align:center" d="M462.577 620.694v-.403h.912v3.507h-.446v-3.104zm1.615 2.75q.617-.495.966-.81.35-.32.587-.665.242-.349.242-.684 0-.315-.155-.494-.15-.185-.49-.185-.33 0-.514.209-.18.204-.194.548h-.427q.02-.543.33-.84.31-.295.8-.295.5 0 .791.276.296.277.296.762 0 .403-.243.786-.237.378-.543.67-.306.286-.781.669h1.669v.369h-2.334z" transform="matrix(.74373 -1.14237 .17085 1.08214 -431.8 -127)" aria-label="12" font-size="4.851" letter-spacing="0" fill="#101010" stroke="#0f0f0f" stroke-width=".152"/></g><g style="line-height:1.5;-inkscape-font-specification:Poppins;text-align:center"><path style="-inkscape-font-specification:Poppins;text-align:center" d="M129.834-341.698q.034-.444.343-.694.308-.251.8-.251.328 0 .564.12.241.116.362.319.125.202.125.458 0 .299-.173.516-.17.217-.444.28v.024q.313.077.497.303.183.227.183.593 0 .275-.126.497-.125.217-.376.342-.25.126-.602.126-.511 0-.84-.265-.327-.27-.366-.762h.424q.034.29.237.472.202.184.54.184.337 0 .51-.174.18-.178.18-.458 0-.362-.242-.52-.24-.16-.728-.16h-.11v-.366h.115q.444-.005.67-.145.227-.145.227-.444 0-.255-.169-.41-.164-.154-.472-.154-.3 0-.483.154-.183.155-.217.415z" transform="matrix(-.49582 .60338 -1.49263 -.20043 -431.8 -127)" aria-label="3" font-size="4.822" letter-spacing="0" fill="#141414" stroke="#141414" stroke-width=".151"/></g><g style="line-height:1.5;-inkscape-font-specification:Poppins;text-align:center"><path style="-inkscape-font-specification:Poppins;text-align:center" d="M-182.978-568.826q.049.277.223.427.18.15.48.15.402 0 .591-.315.194-.315.184-1.061-.101.218-.339.344-.237.12-.528.12-.325 0-.582-.13-.252-.136-.397-.393-.146-.256-.146-.62 0-.519.3-.834.301-.32.854-.32.678 0 .95.442.276.44.276 1.313 0 .61-.111 1.008-.107.398-.369.606-.257.208-.707.208-.495 0-.77-.266-.277-.267-.316-.679zm.684-.707q.324 0 .533-.199.208-.204.208-.548 0-.363-.203-.586-.204-.223-.572-.223-.34 0-.543.213-.199.213-.199.562 0 .354.199.567.199.214.577.214zm2.016 1.677q-.126 0-.213-.088-.088-.087-.088-.213t.088-.213q.087-.087.213-.087.12 0 .203.087.088.087.088.213t-.088.213q-.082.088-.203.088z" transform="matrix(-.0013 1.30307 -.76675 -.66469 -431.8 -127)" aria-label="9." font-size="4.847" letter-spacing="0" fill="#171717" stroke="#171717" stroke-width=".151"/></g><g style="line-height:1.5;-inkscape-font-specification:Poppins;text-align:center"><path style="-inkscape-font-specification:Poppins;text-align:center" d="M-69.093 367.015q-.103-.52-.64-.52-.417 0-.622.323-.206.318-.201 1.052.107-.243.355-.379.252-.14.56-.14.482 0 .767.3.29.298.29.826 0 .318-.126.57-.122.253-.374.402-.248.15-.603.15-.481 0-.752-.215t-.379-.594q-.107-.378-.107-.934 0-1.715 1.196-1.715.458 0 .72.247.261.248.308.627zm-.636.696q-.2 0-.378.084-.178.08-.29.248-.108.163-.108.402 0 .355.206.58.206.219.589.219.327 0 .518-.201.197-.206.197-.552 0-.364-.187-.57-.187-.21-.547-.21zm1.925 1.907q-.121 0-.205-.084-.084-.085-.084-.206 0-.122.084-.206.084-.084.205-.084.117 0 .197.084.084.084.084.206 0 .121-.084.206-.08.084-.197.084z" transform="matrix(-.81367 -1.06095 1.06788 .16342 -431.8 -127)" aria-label="6." font-size="4.673" letter-spacing="0" fill="#171717" stroke="#171717" stroke-width=".146"/></g><g style="line-height:1.5;-inkscape-font-specification:Poppins;text-align:center"><path style="-inkscape-font-specification:Poppins;text-align:center" d="M-479.559-366.764h-1.684v1.094q.11-.154.326-.25.216-.1.466-.1.398 0 .647.167.25.163.355.427.11.26.11.552 0 .346-.129.619-.13.274-.398.432-.264.158-.657.158-.504 0-.816-.259-.312-.259-.38-.69h.428q.062.273.264.426.201.154.508.154.38 0 .571-.226.192-.23.192-.604 0-.375-.192-.576-.192-.206-.566-.206-.254 0-.446.124-.187.12-.274.331h-.412v-1.957h2.087z" transform="matrix(-1.244 .4538 .4321 -.96148 -431.8 -127)" aria-label="5" font-size="4.798" letter-spacing="0" fill="#7f7f7f" stroke="#7f7f7f" stroke-width=".15"/></g></g></svg>