<svg xmlns="http://www.w3.org/2000/svg" viewBox="0 0 25.4 25.4" height="96" width="96"><g font-weight="400" font-family="Poppins" letter-spacing="0" word-spacing="0" text-anchor="middle" stroke-linecap="round" stroke-linejoin="round"><g style="line-height:1.5;-inkscape-font-specification:Poppins;text-align:center"><path style="-inkscape-font-specification:Poppins;text-align:center" d="M10.614 14.57v-.55l2.795-3.87h.868v3.79h.796v.63h-.796v1.282h-.717v-1.283zm2.978-3.664L11.45 13.94h2.142z" aria-label="4" font-size="7.964" fill="#f2f2f2" stroke="#f2f2f2" stroke-width=".249"/></g><g style="line-height:1.5;-inkscape-font-specification:Poppins;text-align:center"><path style="-inkscape-font-specification:Poppins;text-align:center" d="M266.76 442.413q-.108-.539-.665-.539-.432 0-.646.335-.213.33-.208 1.091.111-.252.368-.393.262-.145.583-.145.5 0 .795.31.301.31.301.859 0 .33-.131.592-.126.262-.388.417-.257.155-.626.155-.5 0-.781-.223t-.393-.616q-.112-.393-.112-.97 0-1.78 1.242-1.78.476 0 .748.257.271.257.32.65zm-.66.722q-.21 0-.394.088-.184.082-.3.257-.112.17-.112.417 0 .369.214.602.213.228.61.228.34 0 .54-.209.203-.213.203-.572 0-.379-.194-.592-.194-.219-.568-.219zm1.998 1.98q-.126 0-.213-.088-.088-.087-.088-.213t.088-.213q.087-.088.213-.088.121 0 .204.088.087.087.087.213t-.087.213q-.083.088-.204.088z" transform="matrix(.74373 -1.14237 .17085 1.08214 -254 -159.808)" aria-label="6." font-size="4.851" fill="#8c8c8c" stroke="#8c8c8c" stroke-width=".152"/></g><g style="line-height:1.5;-inkscape-font-specification:Poppins;text-align:center"><path style="-inkscape-font-specification:Poppins;text-align:center" d="M214.432-248.427q.612-.492.96-.805.347-.319.583-.661.241-.347.241-.68 0-.313-.154-.492-.15-.183-.487-.183-.328 0-.511.207-.179.203-.193.545h-.425q.02-.54.328-.834.309-.294.796-.294.496 0 .786.275.294.275.294.757 0 .4-.241.78-.236.377-.54.666-.304.285-.777.666h1.66v.366h-2.32z" transform="matrix(-.49582 .60338 -1.49263 -.20043 -254 -159.808)" aria-label="2" font-size="4.822" fill="#b6b6b6" stroke="#b6b6b6" stroke-width=".151"/></g><g style="line-height:1.5;-inkscape-font-specification:Poppins;text-align:center"><path style="-inkscape-font-specification:Poppins;text-align:center" d="M-39.063-339.345v-.403h.91v3.505h-.445v-3.102z" transform="matrix(-.0013 1.30307 -.76675 -.66469 -254 -159.808)" aria-label="1" font-size="4.847" fill="#dbdbdb" stroke="#dbdbdb" stroke-width=".151"/></g><g style="line-height:1.5;-inkscape-font-specification:Poppins;text-align:center"><path style="-inkscape-font-specification:Poppins;text-align:center" d="M-134.479 151.729q.033-.43.332-.673.299-.243.776-.243.317 0 .546.117.234.112.35.308.122.197.122.444 0 .29-.168.5-.163.21-.43.271v.024q.304.075.482.294.177.22.177.575 0 .266-.121.481-.122.21-.365.332-.243.122-.584.122-.495 0-.813-.257-.318-.262-.355-.739h.41q.034.28.23.458t.523.178q.327 0 .496-.168.173-.173.173-.444 0-.351-.234-.505-.234-.154-.706-.154h-.107v-.356h.112q.43-.005.65-.14.22-.14.22-.43 0-.247-.164-.397-.16-.15-.458-.15-.29 0-.468.15-.177.15-.21.402z" transform="matrix(-.81367 -1.06095 1.06788 .16342 -254 -159.808)" aria-label="3" font-size="4.673" fill="#dbdbdb" stroke="#dbdbdb" stroke-width=".146"/></g><g style="line-height:1.5;-inkscape-font-specification:Poppins;text-align:center"><path style="-inkscape-font-specification:Poppins;text-align:center" d="M-324.37-325.607q-.27-.106-.413-.307-.144-.202-.144-.49 0-.259.13-.465.13-.211.383-.331.26-.125.624-.125.365 0 .62.125.258.12.388.33.134.207.134.466 0 .278-.149.49-.148.206-.408.307.298.09.47.321.178.226.178.547 0 .312-.153.547-.154.23-.437.36-.278.125-.643.125t-.643-.125q-.273-.13-.427-.36-.153-.235-.153-.547 0-.321.172-.552.173-.23.47-.316zm1.3-.744q0-.293-.192-.451-.192-.158-.528-.158-.33 0-.523.158-.192.158-.192.456 0 .268.197.432.201.163.518.163.322 0 .518-.163.202-.168.202-.437zm-.72.936q-.355 0-.58.168-.226.163-.226.494 0 .307.216.494.22.187.59.187t.585-.187q.216-.187.216-.494 0-.322-.22-.49-.221-.172-.58-.172z" transform="matrix(-1.244 .4538 .4321 -.96148 -254 -159.808)" aria-label="8" font-size="4.798" fill="#f8f8f8" stroke="#f8f8f8" stroke-width=".15"/></g></g></svg>