<svg xmlns="http://www.w3.org/2000/svg" viewBox="0 0 25.4 25.4" height="96" width="96"><g font-weight="400" font-family="Poppins" word-spacing="0" text-anchor="middle" stroke-linecap="round" stroke-linejoin="round"><g style="line-height:1.5;-inkscape-font-specification:Poppins;text-align:center"><path style="-inkscape-font-specification:Poppins;text-align:center" d="M13.49 16.077q.415.312.84.294.433-.024.84-.405.543-.51.4-1.174-.138-.671-1.096-1.668.139.424-.023.895-.167.464-.56.833-.439.41-.951.56-.513.135-1.035-.028-.521-.163-.982-.654-.656-.7-.65-1.507.002-.812.748-1.512.917-.86 1.842-.607.932.246 2.037 1.425.773.825 1.126 1.503.359.672.27 1.285-.084.607-.693 1.177-.668.627-1.379.616-.71-.01-1.285-.518zm.027-1.822q.438-.41.468-.943.024-.54-.412-1.004-.46-.491-1.017-.535-.558-.043-1.055.423-.459.43-.464.976.002.54.444 1.011.448.478.986.515.539.036 1.05-.443zm4.273.251q-.17.16-.399.152-.228-.007-.387-.177-.16-.17-.153-.399.008-.228.178-.388.164-.153.385-.14.229.008.388.178.16.17.153.398-.001.223-.165.376z" stroke-width=".07" aria-label="9." font-size="10.559" letter-spacing="-.926" fill="#1b1b1b" stroke="#1b1b1b"/></g><path style="line-height:1.5;-inkscape-font-specification:Poppins;font-variant-ligatures:normal;font-variant-position:normal;font-variant-caps:normal;font-variant-numeric:normal;font-variant-alternates:normal;font-feature-settings:normal;text-indent:0;text-align:center;text-decoration-line:none;text-decoration-style:solid;text-decoration-color:#000;text-transform:none;text-orientation:mixed;white-space:normal;shape-padding:0" d="M-233.113 275.12v-.658h1.489v5.727h-.729v-5.07z" transform="matrix(-.1303 -.66064 1.11098 .08792 -321.945 -170.815)" aria-label="1" font-size="7.921" letter-spacing="-.464" fill="#3d3d3d" stroke="#3d3d3d" stroke-width=".062"/><path style="line-height:1.5;-inkscape-font-specification:Poppins;font-variant-ligatures:normal;font-variant-position:normal;font-variant-caps:normal;font-variant-numeric:normal;font-variant-alternates:normal;font-feature-settings:normal;text-indent:0;text-align:center;text-decoration-line:none;text-decoration-style:solid;text-decoration-color:#000;text-transform:none;text-orientation:mixed;white-space:normal;shape-padding:0" d="M487.053 65.52h-2.791v1.813q.183-.254.54-.413.359-.167.772-.167.66 0 1.074.278.413.27.588.708.183.43.183.915 0 .572-.214 1.026-.215.453-.66.715-.438.263-1.09.263-.835 0-1.352-.43-.517-.43-.628-1.145h.708q.103.453.437.708.334.254.843.254.628 0 .946-.373.318-.382.318-1.002t-.318-.955q-.318-.342-.938-.342-.422 0-.74.207-.31.199-.453.549h-.684v-3.245h3.46z" letter-spacing="-.794" transform="matrix(.66765 .23046 .06872 1.10588 -321.945 -170.815)" aria-label="5" font-size="7.953" fill="#3d3d3d" stroke="#3d3d3d" stroke-width=".062"/><g style="line-height:1.5;-inkscape-font-specification:Poppins;text-align:center"><path style="-inkscape-font-specification:Poppins;text-align:center" d="M-730.575-1450.104q-.061-.308-.38-.308-.246 0-.368.191-.122.188-.12.623.064-.144.211-.224.15-.083.333-.083.285 0 .454.177.172.178.172.49 0 .19-.075.339-.072.15-.222.238-.147.09-.357.09-.286 0-.446-.128-.161-.128-.225-.352-.063-.225-.063-.554 0-1.017.709-1.017.271 0 .427.147.155.146.182.37zm-.377.412q-.12 0-.225.05-.105.047-.171.147-.064.097-.064.238 0 .211.122.344.122.13.349.13.194 0 .308-.119.116-.122.116-.327 0-.216-.11-.338-.112-.125-.325-.125zm.979 1.131q-.072 0-.122-.05t-.05-.122q0-.072.05-.122t.122-.05q.07 0 .116.05.05.05.05.122t-.05.122q-.047.05-.116.05z" transform="matrix(-1.0948 2.47468 .31608 -1.3744 -321.945 -170.815)" aria-label="6." font-size="2.771" letter-spacing="-.162" fill="#0f0f0f" stroke="#0f0f0f" stroke-width=".022"/></g><g style="line-height:1.5;-inkscape-font-specification:Poppins;text-align:center"><path style="-inkscape-font-specification:Poppins;text-align:center" d="M345.116-866.15q.398-.32.624-.523.226-.207.38-.43.157-.226.157-.443 0-.204-.1-.32-.098-.12-.318-.12-.213 0-.332.136-.116.131-.126.354h-.276q.013-.351.213-.543.201-.191.518-.191.324 0 .512.179.191.179.191.493 0 .26-.157.508-.153.245-.351.433-.198.185-.505.433h1.08v.239h-1.51z" transform="matrix(-1.90262 .78802 -1.14505 .09451 -321.945 -170.815)" aria-label="2" font-size="3.139" letter-spacing="-.331" fill="#141414" stroke="#141414" stroke-width=".025"/></g></g></svg>