<svg xmlns="http://www.w3.org/2000/svg" viewBox="0 0 25.4 25.4" height="96" width="96"><g font-weight="400" font-family="Poppins" word-spacing="0" text-anchor="middle" stroke-linecap="round" stroke-linejoin="round"><path style="line-height:1.5;-inkscape-font-specification:Poppins;font-variant-ligatures:normal;font-variant-position:normal;font-variant-caps:normal;font-variant-numeric:normal;font-variant-alternates:normal;font-feature-settings:normal;text-indent:0;text-align:center;text-decoration-line:none;text-decoration-style:solid;text-decoration-color:#000;text-transform:none;text-orientation:mixed;white-space:normal;shape-padding:0" d="M13.502 10.432l2.181 5.975-.602.565-2.1-5.941-2.528 2.369-.479-.511 3.104-2.91z" aria-label="7" font-size="10.559" letter-spacing="-.619" fill="#f2f2f2" stroke="#f2f2f2" stroke-width=".07"/><path style="line-height:1.5;-inkscape-font-specification:Poppins;font-variant-ligatures:normal;font-variant-position:normal;font-variant-caps:normal;font-variant-numeric:normal;font-variant-alternates:normal;font-feature-settings:normal;text-indent:0;text-align:center;text-decoration-line:none;text-decoration-style:solid;text-decoration-color:#000;text-transform:none;text-orientation:mixed;white-space:normal;shape-padding:0" d="M-272.458 232.528q.056-.73.563-1.141.507-.412 1.315-.412.538 0 .926.198.396.19.594.523.206.332.206.752 0 .491-.285.848-.277.356-.729.46v.039q.515.127.816.499.301.372.301.974 0 .452-.206.816-.206.357-.617.563-.412.206-.99.206-.84 0-1.379-.436-.539-.444-.602-1.252h.697q.056.476.388.777.333.3.887.3.555 0 .84-.285.293-.293.293-.752 0-.594-.396-.856-.396-.261-1.196-.261h-.182v-.602h.19q.729-.008 1.101-.238.372-.237.372-.728 0-.42-.277-.674-.27-.253-.776-.253-.491 0-.792.253-.301.254-.357.682z" transform="matrix(-.1303 -.66064 1.11098 .08792 -278.765 -192.405)" aria-label="3" font-size="7.921" letter-spacing="-.464" fill="#f4f4f4" stroke="#f4f4f4" stroke-width=".062"/><path style="line-height:1.5;-inkscape-font-specification:Poppins;font-variant-ligatures:normal;font-variant-position:normal;font-variant-caps:normal;font-variant-numeric:normal;font-variant-alternates:normal;font-feature-settings:normal;text-indent:0;text-align:center;text-decoration-line:none;text-decoration-style:solid;text-decoration-color:#000;text-transform:none;text-orientation:mixed;white-space:normal;shape-padding:0" d="M416.275 99.276v-.66h1.495v5.75h-.732v-5.09z" transform="matrix(.66765 .23046 .06872 1.10588 -278.765 -192.405)" aria-label="1" font-size="7.953" letter-spacing="-.466" fill="#f4f4f4" stroke="#f4f4f4" stroke-width=".062"/><path style="line-height:1.5;-inkscape-font-specification:Poppins;font-variant-ligatures:normal;font-variant-position:normal;font-variant-caps:normal;font-variant-numeric:normal;font-variant-alternates:normal;font-feature-settings:normal;text-indent:0;text-align:center;text-decoration-line:none;text-decoration-style:solid;text-decoration-color:#000;text-transform:none;text-orientation:mixed;white-space:normal;shape-padding:0" d="M-658.777-1334.417q0-.477.155-.743.155-.268.543-.268.385 0 .54.269.155.266.155.742 0 .485-.155.754t-.54.269q-.388 0-.543-.27-.155-.268-.155-.753zm1.144 0q0-.241-.033-.407-.03-.17-.13-.272-.098-.102-.283-.102-.189 0-.288.102-.097.103-.13.272-.031.166-.031.407 0 .25.03.418.034.17.13.272.1.103.289.103.185 0 .282-.103.1-.102.13-.271.034-.17.034-.419z" transform="matrix(-1.0948 2.47468 .31608 -1.3744 -278.765 -192.405)" aria-label="0" font-size="2.771" letter-spacing="-.162" fill="#8c8c8c" stroke="#8c8c8c" stroke-width=".022"/><path style="line-height:1.5;-inkscape-font-specification:Poppins;font-variant-ligatures:normal;font-variant-position:normal;font-variant-caps:normal;font-variant-numeric:normal;font-variant-alternates:normal;font-feature-settings:normal;text-indent:0;text-align:center;text-decoration-line:none;text-decoration-style:solid;text-decoration-color:#000;text-transform:none;text-orientation:mixed;white-space:normal;shape-padding:0" d="M373.565-876.184v-.217l1.101-1.525h.342v1.494h.314v.248h-.314v.505h-.282v-.505zm1.173-1.444l-.844 1.196h.844z" transform="matrix(-1.90262 .78802 -1.14505 .09451 -278.765 -192.405)" aria-label="4" font-size="3.139" letter-spacing="-.184" fill="#b6b6b6" stroke="#b6b6b6" stroke-width=".025"/></g></svg>