<svg xmlns="http://www.w3.org/2000/svg" viewBox="0 0 25.4 25.4" height="96" width="96"><g font-weight="400" font-family="Poppins" letter-spacing="0" word-spacing="0" text-anchor="middle" stroke-linecap="round" stroke-linejoin="round"><g style="line-height:1.5;-inkscape-font-specification:Poppins;text-align:center"><path style="-inkscape-font-specification:Poppins;text-align:center" d="M9.327 10.755v-.661h1.498v5.758h-.733v-5.097zm2.74 2.158q0-1.37.446-2.134.446-.773 1.56-.773 1.108 0 1.554.773.446.764.446 2.134 0 1.394-.446 2.166-.446.773-1.553.773-1.115 0-1.561-.773-.446-.772-.446-2.166zm3.289 0q0-.693-.096-1.17-.087-.486-.374-.781-.279-.295-.812-.295-.542 0-.829.295-.278.295-.374.78-.087.478-.087 1.171 0 .717.087 1.202.096.486.374.78.287.296.829.296.533 0 .812-.295.287-.295.374-.78.096-.486.096-1.203z" aria-label="10" font-size="7.964" fill="#1b1b1b" stroke="#1b1b1b" stroke-width=".249"/></g><g style="line-height:1.5;-inkscape-font-specification:Poppins;text-align:center"><path style="-inkscape-font-specification:Poppins;text-align:center" d="M435.93 594.428q.616-.495.965-.81.35-.32.587-.665.243-.349.243-.684 0-.315-.155-.495-.15-.184-.49-.184-.33 0-.515.209-.18.203-.194.548h-.427q.02-.543.33-.84.31-.295.8-.295.5 0 .791.276.296.277.296.762 0 .403-.242.786-.238.378-.544.67-.305.285-.78.669h1.668v.368h-2.333z" transform="matrix(.74373 -1.14237 .17085 1.08214 -406.4 -127)" aria-label="2" font-size="4.851" fill="#101010" stroke="#0f0f0f" stroke-width=".152"/></g><g style="line-height:1.5;-inkscape-font-specification:Poppins;text-align:center"><path style="-inkscape-font-specification:Poppins;text-align:center" d="M135.468-326.85v-.4h.906v3.487h-.443v-3.086z" transform="matrix(-.49582 .60338 -1.49263 -.20043 -406.4 -127)" aria-label="1" font-size="4.822" fill="#141414" stroke="#141414" stroke-width=".151"/></g><g style="line-height:1.5;-inkscape-font-specification:Poppins;text-align:center"><path style="-inkscape-font-specification:Poppins;text-align:center" d="M-163.914-537.909h-1.7v1.105q.11-.155.329-.252.218-.102.47-.102.402 0 .654.17.252.165.359.431.111.262.111.558 0 .349-.13.625-.131.276-.403.436-.266.16-.664.16-.509 0-.824-.262-.315-.261-.383-.697h.432q.063.276.266.43.204.156.514.156.383 0 .577-.228.194-.232.194-.61 0-.379-.194-.582-.194-.209-.572-.209-.257 0-.45.126-.19.122-.277.335h-.417v-1.978h2.108z" transform="matrix(-.0013 1.30307 -.76675 -.66469 -406.4 -127)" aria-label="5" font-size="4.847" fill="#171717" stroke="#171717" stroke-width=".151"/></g><g style="line-height:1.5;-inkscape-font-specification:Poppins;text-align:center"><path style="-inkscape-font-specification:Poppins;text-align:center" d="M-72.35 339.594l-1.298 3.047h-.43l1.317-3.004h-1.803v-.365h2.215z" transform="matrix(-.81367 -1.06095 1.06788 .16342 -406.4 -127)" aria-label="7" font-size="4.673" fill="#171717" stroke="#171717" stroke-width=".146"/></g><g style="line-height:1.5;-inkscape-font-specification:Poppins;text-align:center"><path style="-inkscape-font-specification:Poppins;text-align:center" d="M-457.297-353.079q.048.274.221.422.178.15.475.15.398 0 .585-.313.192-.312.183-1.05-.1.215-.336.34-.235.12-.523.12-.322 0-.576-.13-.25-.134-.393-.388-.144-.254-.144-.614 0-.514.297-.825.298-.317.845-.317.671 0 .94.436.274.437.274 1.3 0 .605-.11.999-.106.393-.365.6-.255.206-.7.206-.49 0-.764-.264-.273-.264-.312-.672zm.677-.7q.321 0 .528-.197.206-.202.206-.542 0-.36-.201-.58-.202-.222-.567-.222-.336 0-.537.212-.197.21-.197.556 0 .35.197.562.197.21.57.21zm1.996 1.659q-.125 0-.211-.086-.087-.086-.087-.21 0-.125.087-.212.086-.086.21-.086.12 0 .202.086.087.087.087.211 0 .125-.087.211-.081.087-.201.087z" transform="matrix(-1.244 .4538 .4321 -.96148 -406.4 -127)" aria-label="9." font-size="4.798" fill="#7f7f7f" stroke="#7f7f7f" stroke-width=".15"/></g></g></svg>