<svg xmlns="http://www.w3.org/2000/svg" viewBox="0 0 25.4 25.4" height="96" width="96"><g font-weight="400" font-family="Poppins" word-spacing="0" text-anchor="middle" stroke-width=".176" stroke-linecap="round" stroke-linejoin="round"><g style="line-height:1.5;-inkscape-font-specification:Poppins;text-align:center"><path style="-inkscape-font-specification:Poppins;text-align:center" d="M10.405 11.777v-.468h1.061v4.08h-.519v-3.612zm2.602 2.518q.057.322.26.497.209.175.559.175.468 0 .688-.367.226-.367.215-1.236-.119.254-.395.4-.277.141-.615.141-.379 0-.678-.152-.293-.158-.463-.457-.169-.3-.169-.723 0-.604.35-.97.35-.373.993-.373.79 0 1.107.514.321.513.321 1.53 0 .71-.13 1.173-.124.463-.428.706-.3.243-.824.243-.576 0-.898-.31-.322-.311-.367-.791zm.796-.824q.378 0 .621-.232.243-.237.243-.637 0-.424-.237-.683-.237-.26-.666-.26-.395 0-.632.248-.232.249-.232.655 0 .412.232.66.231.249.671.249z" aria-label="19" font-size="5.644" letter-spacing="0" fill="#1b1b1b" stroke="#1b1b1b"/></g><g style="line-height:1.5;-inkscape-font-specification:Poppins;text-align:center"><path style="-inkscape-font-specification:Poppins;text-align:center" d="M-58.36 71.108q.048.27.22.418.175.147.47.147.394 0 .58-.309.19-.308.18-1.04-.1.214-.333.337-.232.119-.518.119-.318 0-.57-.128-.247-.133-.39-.385-.142-.252-.142-.608 0-.508.295-.817.294-.314.836-.314.665 0 .931.433.27.432.27 1.287 0 .599-.108.988-.105.39-.361.594-.252.204-.694.204-.485 0-.755-.261-.271-.261-.31-.665zm.67-.694q.319 0 .523-.195.205-.2.205-.536 0-.357-.2-.575-.2-.219-.56-.219-.333 0-.533.21-.194.208-.194.55 0 .347.194.556.195.21.566.21zm1.977 1.644q-.124 0-.209-.086-.086-.085-.086-.209 0-.123.086-.209.085-.085.209-.085.119 0 .2.085.085.086.085.21 0 .123-.085.208-.081.086-.2.086z" transform="matrix(-.93452 -.17078 -.14027 -1.0957 -25.4 76.2)" aria-label="9." font-size="4.751" letter-spacing="0" fill="#181818" stroke="#181818"/></g><g style="line-height:1.5;-inkscape-font-specification:Poppins;text-align:center"><path style="-inkscape-font-specification:Poppins;text-align:center" d="M-35.213-52.41q.033-.441.34-.691.307-.25.797-.25.326 0 .561.12.24.116.36.317.125.202.125.456 0 .298-.173.514-.168.216-.441.278v.024q.312.077.494.302.183.226.183.59 0 .274-.125.495-.125.216-.375.34-.25.125-.6.125-.508 0-.835-.263-.326-.27-.364-.759h.422q.034.288.235.47.202.183.538.183t.509-.173q.177-.177.177-.456 0-.36-.24-.518-.24-.158-.725-.158h-.11v-.365h.115q.442-.005.667-.144.226-.144.226-.442 0-.254-.168-.408-.163-.153-.47-.153-.298 0-.48.153-.183.154-.216.413z" transform="matrix(.34839 .88398 -.85596 .69848 -25.4 76.2)" aria-label="3" font-size="4.799" letter-spacing="0" fill="#3d3d3d" stroke="#3d3d3d"/></g><g style="line-height:1.5;-inkscape-font-specification:Poppins;text-align:center"><path style="-inkscape-font-specification:Poppins;text-align:center" d="M96.28 20.438v-.244h.552v2.125h-.27v-1.881zm2.196.262q-.065-.327-.403-.327-.261 0-.39.203-.13.2-.127.661.067-.152.223-.238.159-.088.353-.088.303 0 .482.188.182.188.182.52 0 .2-.079.36-.076.158-.235.252-.156.094-.38.094-.302 0-.473-.135-.17-.135-.238-.373-.068-.238-.068-.588 0-1.08.753-1.08.288 0 .453.156.165.156.194.394zm-.4.438q-.126 0-.238.052-.112.05-.182.156-.068.103-.068.253 0 .224.13.365.129.138.37.138.206 0 .326-.127.124-.129.124-.346 0-.23-.118-.36-.117-.131-.344-.131z" transform="matrix(-.00186 -.59492 1.67885 -.65577 -25.4 76.2)" aria-label="16" font-size="2.94" letter-spacing="0" fill="#7e7e7e" stroke="#7f7f7f"/></g><g style="line-height:1.5;-inkscape-font-specification:Poppins;text-align:center"><path style="-inkscape-font-specification:Poppins;text-align:center" d="M74.342 91.551L73.51 93.5h-.275l.843-1.922h-1.154v-.233h1.417z" transform="matrix(-.96273 -1.15093 1.12634 .30782 -25.4 76.2)" aria-label="7" font-size="2.989" letter-spacing="0" fill="#171717" stroke="#171717"/></g><g style="line-height:1.5;-inkscape-font-specification:Poppins;text-align:center"><path style="-inkscape-font-specification:Poppins;text-align:center" d="M-42.865-63.932v-.385h.872v3.351h-.427v-2.966z" transform="matrix(.61351 .73798 -1.0149 .40915 -25.4 76.2)" aria-label="1" font-size="4.635" letter-spacing="0" fill="#141414" stroke="#141414"/></g><g style="line-height:1.5;-inkscape-font-specification:Poppins;text-align:center"><path style="-inkscape-font-specification:Poppins;text-align:center" d="M-70.12-33.46v-.251h.568v2.183h-.278v-1.933zm1.495 0v-.251h.568v2.183h-.278v-1.933z" transform="matrix(-.54286 1.42046 -.289 -1.0859 -25.4 76.2)" aria-label="11" font-size="3.019" letter-spacing=".529" fill="#141414" stroke="#141414"/></g><g style="line-height:1.5;-inkscape-font-specification:Poppins;text-align:center"><path style="-inkscape-font-specification:Poppins;text-align:center" d="M-51.384 2.196v-.25h.566v2.176h-.277V2.196zm1.029.298q.021-.277.214-.433.192-.157.5-.157.204 0 .351.076.15.072.226.198.078.127.078.286 0 .187-.108.322-.105.135-.277.174v.016q.196.048.31.19.114.14.114.37 0 .17-.078.31-.078.135-.235.213-.156.078-.376.078-.319 0-.523-.165-.205-.169-.229-.476h.265q.02.18.147.295.127.114.337.114.211 0 .32-.108.11-.111.11-.286 0-.226-.15-.325-.15-.1-.454-.1h-.07v-.228h.073q.277-.003.418-.09.141-.09.141-.277 0-.16-.105-.256-.102-.096-.295-.096-.186 0-.3.096-.115.097-.136.26z" transform="matrix(-.93035 1.14205 -1.13608 .31973 -25.4 76.2)" aria-label="13" font-size="3.009" letter-spacing="0" fill="#0f0f0f" stroke="#0f0f0f"/></g><g style="line-height:1.5;-inkscape-font-specification:Poppins;text-align:center"><path style="-inkscape-font-specification:Poppins;text-align:center" d="M-56.014-49.99v-.244h.55v2.117h-.269v-1.874zm2.31-.036l-.814 1.91h-.269l.826-1.883h-1.13v-.229h1.387z" transform="matrix(.00568 1.67045 -.60068 -.59857 -25.4 76.2)" aria-label="17" font-size="2.928" letter-spacing="0" fill="#292929" stroke="#292929"/></g><g style="line-height:1.5;-inkscape-font-specification:Poppins;text-align:center"><path style="-inkscape-font-specification:Poppins;text-align:center" d="M51.44 144.482q.029.166.134.256.107.09.288.09.24 0 .354-.189.117-.189.11-.637-.06.131-.203.207-.142.072-.317.072-.195 0-.349-.078-.151-.082-.238-.236-.087-.154-.087-.372 0-.311.18-.5.18-.192.512-.192.407 0 .57.264.166.265.166.789 0 .366-.067.605-.064.238-.221.363-.155.125-.425.125-.297 0-.462-.16-.166-.16-.19-.407zm.41-.425q.195 0 .32-.119.125-.122.125-.329 0-.218-.122-.351-.122-.134-.343-.134-.204 0-.326.128-.12.128-.12.337 0 .212.12.34.119.128.346.128zm1.21 1.007q-.076 0-.128-.053-.053-.052-.053-.128 0-.075.053-.128.052-.052.128-.052.072 0 .122.052.052.053.052.128 0 .076-.052.128-.05.053-.122.053z" transform="matrix(-1.49875 -.86902 .83287 -.1843 -25.4 76.2)" aria-label="9." font-size="2.908" letter-spacing="0" fill="#434343" stroke="#434343"/></g></g></svg>