<svg xmlns="http://www.w3.org/2000/svg" viewBox="0 0 25.4 25.4" height="96" width="96"><g font-weight="400" font-family="Poppins" letter-spacing="0" word-spacing="0" text-anchor="middle" stroke-width=".176" stroke-linecap="round" stroke-linejoin="round"><g style="line-height:1.5;-inkscape-font-specification:Poppins;text-align:center"><path style="-inkscape-font-specification:Poppins;text-align:center" d="M14.193 11.71l-1.57 3.68h-.519l1.592-3.63h-2.179v-.44h2.676z" aria-label="7" font-size="5.644" fill="#f2f2f2" stroke="#f2f2f2"/></g><g style="line-height:1.5;-inkscape-font-specification:Poppins;text-align:center"><path style="-inkscape-font-specification:Poppins;text-align:center" d="M-391.13 108.184v-.395h.892v3.435h-.437v-3.04zm3.747-.057l-1.32 3.097h-.437l1.34-3.055h-1.834v-.37h2.251z" transform="matrix(-.93452 -.17078 -.14027 -1.0957 -330.2 62.442)" aria-label="17" font-size="4.751" fill="#dbdbdb" stroke="#dbdbdb"/></g><g style="line-height:1.5;-inkscape-font-specification:Poppins;text-align:center"><path style="-inkscape-font-specification:Poppins;text-align:center" d="M188.494-317.53v-.398h.902v3.47h-.441v-3.072zm3.863-.02h-1.684v1.095q.11-.153.326-.25.216-.1.466-.1.398 0 .648.168.25.163.355.427.11.26.11.552 0 .345-.13.619-.129.274-.398.432-.264.158-.657.158-.504 0-.816-.259-.312-.259-.38-.691h.428q.062.274.264.427.201.154.509.154.379 0 .57-.226.193-.23.193-.605 0-.374-.192-.575-.192-.207-.567-.207-.254 0-.446.125-.187.12-.273.331h-.413v-1.958h2.087z" transform="matrix(.34839 .88398 -.85596 .69848 -330.2 62.442)" aria-label="15" font-size="4.799" fill="#f4f4f4" stroke="#f4f4f4"/></g><g style="line-height:1.5;-inkscape-font-specification:Poppins;text-align:center"><path style="-inkscape-font-specification:Poppins;text-align:center" d="M-126.61 201.744v-.244h.553v2.125h-.27v-1.881zm.98 1.666q.373-.3.584-.49.212-.194.356-.403.147-.212.147-.415 0-.19-.094-.3-.091-.111-.297-.111-.2 0-.312.126-.108.124-.117.332h-.259q.012-.329.2-.508.188-.18.485-.18.303 0 .48.168.179.168.179.462 0 .244-.147.476-.144.23-.33.406-.185.173-.473.405h1.011v.224h-1.414z" transform="matrix(-.00186 -.59492 1.67885 -.65577 -330.2 62.442)" aria-label="12" font-size="2.94" fill="#f8f8f8" stroke="#f8f8f8"/></g><g style="line-height:1.5;-inkscape-font-specification:Poppins;text-align:center"><path style="-inkscape-font-specification:Poppins;text-align:center" d="M150.722 429.146v-.249h.562v2.161h-.275v-1.912zm1.022.295q.021-.275.213-.43.19-.155.496-.155.203 0 .35.074.149.072.223.198.078.125.078.283 0 .186-.107.32-.105.135-.275.174v.015q.194.047.307.188.114.14.114.367 0 .17-.078.308-.077.135-.233.212-.155.078-.373.078-.317 0-.52-.164-.204-.168-.228-.472h.263q.021.179.147.292.125.114.335.114.209 0 .316-.108.111-.11.111-.284 0-.224-.15-.322-.149-.099-.45-.099h-.07v-.227h.072q.275-.003.416-.09.14-.09.14-.275 0-.158-.104-.254-.102-.095-.293-.095-.186 0-.3.095-.113.096-.134.257z" transform="matrix(-.96273 -1.15093 1.12634 .30782 -330.2 62.442)" aria-label="13" font-size="2.989" fill="#d3d3d3" stroke="#d3d3d3"/></g><g style="line-height:1.5;-inkscape-font-specification:Poppins;text-align:center"><path style="-inkscape-font-specification:Poppins;text-align:center" d="M95.81-280.427v-.385h.871v3.351h-.426v-2.966z" transform="matrix(.61351 .73798 -1.0149 .40915 -330.2 62.442)" aria-label="1" font-size="4.635" fill="#b6b6b6" stroke="#b6b6b6"/></g><g style="line-height:1.5;-inkscape-font-specification:Poppins;text-align:center"><path style="-inkscape-font-specification:Poppins;text-align:center" d="M-396.718-473.588q.021-.278.215-.435.193-.157.5-.157.206 0 .354.075.151.073.227.2.078.126.078.286 0 .188-.109.323-.105.136-.277.176v.015q.196.048.31.19.115.142.115.371 0 .172-.078.311-.079.136-.236.215-.157.078-.377.078-.32 0-.525-.166-.206-.169-.23-.477h.266q.02.181.148.296.127.115.338.115.211 0 .32-.109.112-.112.112-.287 0-.226-.151-.326t-.456-.1h-.07v-.229h.073q.278-.003.42-.09.142-.091.142-.278 0-.16-.106-.257-.103-.097-.296-.097-.187 0-.302.097-.115.097-.136.26z" transform="matrix(-.54286 1.42046 -.289 -1.0859 -330.2 62.442)" aria-label="3" font-size="3.019" fill="#bdbdbd" stroke="#bdbdbd"/></g><g style="line-height:1.5;-inkscape-font-specification:Poppins;text-align:center"><path style="-inkscape-font-specification:Poppins;text-align:center" d="M61.64-358.703v-.25h.566v2.176h-.277v-1.926zm1.388 1.342q.03.171.138.265.111.093.298.093.25 0 .367-.196.12-.195.114-.659-.063.136-.21.214-.148.075-.328.075-.202 0-.361-.08-.157-.085-.247-.245-.09-.16-.09-.385 0-.322.186-.517.187-.199.53-.199.421 0 .59.274.171.274.171.815 0 .38-.07.626-.065.247-.228.376-.16.13-.44.13-.306 0-.478-.166-.171-.165-.195-.421zm.424-.44q.202 0 .33-.123.13-.126.13-.34 0-.225-.126-.364-.126-.138-.355-.138-.21 0-.337.132-.124.133-.124.35 0 .219.124.351.123.133.358.133z" transform="matrix(-.93035 1.14205 -1.13608 .31973 -330.2 62.442)" aria-label="19" font-size="3.009" fill="#8c8c8c" stroke="#8c8c8c"/></g><g style="line-height:1.5;-inkscape-font-specification:Poppins;text-align:center"><path style="-inkscape-font-specification:Poppins;text-align:center" d="M-228.426-559.078h-1.027v.668q.067-.094.199-.152.131-.062.284-.062.243 0 .395.103.152.1.217.26.067.158.067.337 0 .21-.079.378-.08.167-.243.263-.161.097-.401.097-.308 0-.498-.158t-.231-.422h.26q.038.167.161.26.123.094.31.094.232 0 .35-.137.116-.14.116-.37 0-.228-.117-.35-.117-.127-.345-.127-.156 0-.273.077-.114.073-.167.202h-.251v-1.195h1.273z" transform="matrix(.00568 1.67045 -.60068 -.59857 -330.2 62.442)" aria-label="5" font-size="2.928" fill="#f3f3f3" stroke="#f3f3f3"/></g><g style="line-height:1.5;-inkscape-font-specification:Poppins;text-align:center"><path style="-inkscape-font-specification:Poppins;text-align:center" d="M-16.76 387.44v-.241h.546v2.103h-.268v-1.862zm1 .788q0-.5.163-.779.162-.282.57-.282.404 0 .567.282.163.28.163.78 0 .508-.163.79-.163.283-.567.283-.408 0-.57-.282-.163-.283-.163-.792zm1.2 0q0-.253-.034-.427-.032-.177-.137-.285-.102-.108-.296-.108-.198 0-.303.108-.102.108-.137.285-.032.174-.032.427 0 .262.032.44.035.177.137.285.105.107.303.107.194 0 .296-.107.105-.108.137-.285.035-.178.035-.44z" transform="matrix(-1.49875 -.86902 .83287 -.1843 -330.2 62.442)" aria-label="10" font-size="2.908" fill="#f4f4f4" stroke="#f4f4f4"/></g></g></svg>