<svg xmlns="http://www.w3.org/2000/svg" viewBox="0 0 25.4 25.4" height="96" width="96"><g font-weight="400" font-family="Poppins" word-spacing="0" text-anchor="middle" stroke-width=".176" stroke-linecap="round" stroke-linejoin="round"><g style="line-height:1.5;-inkscape-font-specification:Poppins;text-align:center"><path style="-inkscape-font-specification:Poppins;text-align:center" d="M12.183 11.777v-.468h1.062v4.08h-.52v-3.612z" aria-label="1" font-size="5.644" letter-spacing="0" fill="#1b1b1b" stroke="#1b1b1b"/></g><g style="line-height:1.5;-inkscape-font-specification:Poppins;text-align:center"><path style="-inkscape-font-specification:Poppins;text-align:center" d="M-560.246 147.068v-.395h.894v3.435h-.438v-3.04zm2.19 2.118q.048.271.219.418.176.148.47.148.395 0 .58-.31.19-.308.18-1.04-.1.214-.332.338-.233.119-.518.119-.318 0-.57-.129-.247-.133-.39-.385-.142-.251-.142-.608 0-.508.294-.817.295-.313.837-.313.665 0 .93.432.271.432.271 1.287 0 .6-.109.989-.104.39-.36.593-.253.205-.694.205-.485 0-.756-.262-.27-.26-.309-.665zm.67-.693q.319 0 .523-.195.204-.2.204-.537 0-.356-.2-.575-.199-.218-.56-.218-.332 0-.532.209-.195.209-.195.55 0 .348.195.557.195.209.565.209z" transform="matrix(-.93452 -.17078 -.14027 -1.0957 -482.6 76.2)" aria-label="19" font-size="4.751" letter-spacing="0" fill="#181818" stroke="#181818"/></g><g style="line-height:1.5;-inkscape-font-specification:Poppins;text-align:center"><path style="-inkscape-font-specification:Poppins;text-align:center" d="M286.382-457.1l-1.335 3.13h-.441l1.353-3.087h-1.852v-.374h2.275z" transform="matrix(.34839 .88398 -.85596 .69848 -482.6 76.2)" aria-label="7" font-size="4.799" letter-spacing="0" fill="#3d3d3d" stroke="#3d3d3d"/></g><g style="line-height:1.5;-inkscape-font-specification:Poppins;text-align:center"><path style="-inkscape-font-specification:Poppins;text-align:center" d="M-203.408 292.435v-.244h.553v2.126h-.27v-1.882zm2.32-.035l-.818 1.917h-.27l.829-1.89h-1.135v-.23h1.394z" transform="matrix(-.00186 -.59492 1.67885 -.65577 -482.6 76.2)" aria-label="17" font-size="2.94" letter-spacing="0" fill="#7e7e7e" stroke="#7f7f7f"/></g><g style="line-height:1.5;-inkscape-font-specification:Poppins;text-align:center"><path style="-inkscape-font-specification:Poppins;text-align:center" d="M215 617.781h-1.05v.682q.069-.096.203-.156.135-.062.29-.062.248 0 .404.104.155.102.22.266.07.162.07.344 0 .215-.081.385-.08.17-.248.27-.164.098-.41.098-.313 0-.508-.161-.194-.162-.236-.43h.266q.04.17.165.265.125.096.316.096.237 0 .356-.14.12-.144.12-.377t-.12-.359q-.12-.128-.353-.128-.158 0-.277.077-.117.075-.17.207h-.258v-1.22h1.3z" transform="matrix(-.96273 -1.15093 1.12634 .30782 -482.6 76.2)" aria-label="5" font-size="2.989" letter-spacing="0" fill="#171717" stroke="#171717"/></g><g style="line-height:1.5;-inkscape-font-specification:Poppins;text-align:center"><path style="-inkscape-font-specification:Poppins;text-align:center" d="M142.837-401.336v-.385h.871v3.351h-.426v-2.966zm1.585.459q.032-.427.329-.668.297-.24.77-.24.314 0 .542.115.231.111.347.306.12.195.12.44 0 .288-.166.496-.162.209-.427.27v.022q.302.074.478.292.176.218.176.57 0 .265-.12.478-.121.208-.362.329-.241.12-.58.12-.49 0-.806-.255-.315-.26-.352-.732h.408q.032.278.227.454.194.176.519.176.324 0 .491-.166.172-.172.172-.44 0-.348-.232-.501-.232-.153-.7-.153h-.107v-.353h.112q.426-.005.644-.139.218-.139.218-.426 0-.246-.162-.394-.158-.148-.455-.148-.287 0-.463.148-.176.148-.209.399z" transform="matrix(.61351 .73798 -1.0149 .40915 -482.6 76.2)" aria-label="13" font-size="4.635" letter-spacing="0" fill="#141414" stroke="#141414"/></g><g style="line-height:1.5;-inkscape-font-specification:Poppins;text-align:center"><path style="-inkscape-font-specification:Poppins;text-align:center" d="M-566.204-681.55q.03.172.139.265.111.094.299.094.25 0 .368-.196.12-.197.115-.662-.064.136-.212.215-.148.075-.329.075-.202 0-.362-.081-.157-.085-.248-.245-.09-.16-.09-.386 0-.323.187-.52.187-.199.531-.199.423 0 .592.275.172.275.172.818 0 .38-.07.628-.066.248-.229.378-.16.13-.44.13-.309 0-.48-.167-.173-.166-.197-.422zm.425-.441q.203 0 .333-.124.13-.127.13-.341 0-.227-.127-.366-.127-.139-.357-.139-.211 0-.338.133-.124.133-.124.35 0 .221.124.354.124.133.36.133zm1.256 1.044q-.078 0-.132-.054-.055-.054-.055-.133 0-.078.055-.133.054-.054.132-.054.076 0 .127.054.055.055.055.133 0 .079-.055.133-.051.054-.127.054z" transform="matrix(-.54286 1.42046 -.289 -1.0859 -482.6 76.2)" aria-label="9." font-size="3.019" letter-spacing="0" fill="#141414" stroke="#141414"/></g><g style="line-height:1.5;-inkscape-font-specification:Poppins;text-align:center"><path style="-inkscape-font-specification:Poppins;text-align:center" d="M94.939-519.952v-.25h.566v2.176h-.277v-1.926zm1.492 0v-.25h.566v2.176h-.277v-1.926z" transform="matrix(-.93035 1.14205 -1.13608 .31973 -482.6 76.2)" aria-label="11" font-size="3.009" letter-spacing=".529" fill="#0f0f0f" stroke="#0f0f0f"/></g><g style="line-height:1.5;-inkscape-font-specification:Poppins;text-align:center"><path style="-inkscape-font-specification:Poppins;text-align:center" d="M-329.801-813.721v-.243h.55v2.117h-.27v-1.874zm2.357-.012h-1.028v.668q.067-.094.2-.153.131-.061.283-.061.243 0 .396.102.152.1.216.261.068.158.068.337 0 .21-.08.378-.079.166-.242.263-.162.097-.402.097-.307 0-.497-.158-.19-.159-.232-.422h.26q.039.167.162.26.123.094.31.094.232 0 .349-.137.117-.141.117-.37 0-.228-.117-.35-.117-.127-.346-.127-.155 0-.272.076-.114.074-.167.202h-.252v-1.194h1.274z" transform="matrix(.00568 1.67045 -.60068 -.59857 -482.6 76.2)" aria-label="15" font-size="2.928" letter-spacing="0" fill="#292929" stroke="#292929"/></g><g style="line-height:1.5;-inkscape-font-specification:Poppins;text-align:center"><path style="-inkscape-font-specification:Poppins;text-align:center" d="M-32.803 540.787q.02-.267.207-.419.186-.15.483-.15.197 0 .34.072.145.07.218.192.076.122.076.276 0 .18-.105.311-.102.131-.268.169v.015q.19.046.3.183.11.136.11.357 0 .166-.075.3-.076.13-.227.207-.151.075-.364.075-.308 0-.506-.16-.197-.163-.22-.46h.255q.02.175.143.286.122.11.326.11.203 0 .308-.105.107-.107.107-.276 0-.218-.145-.314t-.44-.096h-.066v-.22h.07q.267-.004.404-.088.137-.087.137-.268 0-.154-.102-.247-.099-.093-.285-.093-.18 0-.29.093-.111.093-.132.25z" transform="matrix(-1.49875 -.86902 .83287 -.1843 -482.6 76.2)" aria-label="3" font-size="2.908" letter-spacing="0" fill="#434343" stroke="#434343"/></g></g></svg>