<svg xmlns="http://www.w3.org/2000/svg" viewBox="0 0 25.4 25.4" height="96" width="96"><g font-weight="400" font-family="Poppins" letter-spacing="0" word-spacing="0" text-anchor="middle" stroke-linecap="round" stroke-linejoin="round"><g style="line-height:1.5;-inkscape-font-specification:Poppins;text-align:center"><path d="M404.216 228.121q.62-.498.972-.816.352-.322.591-.669.244-.351.244-.689 0-.317-.156-.498-.151-.185-.493-.185-.332 0-.518.21-.18.205-.195.552h-.43q.02-.547.332-.845.313-.298.806-.298.503 0 .796.278.298.279.298.767 0 .405-.244.791-.24.381-.547.674-.308.288-.787.674h1.68v.372h-2.349z" style="-inkscape-font-specification:Poppins;text-align:center" transform="matrix(.7069 -.70787 -.10992 1.52469 -254 -50.8)" aria-label="2" font-size="4.884" fill="#3d3d3d" stroke="#3d3d3d" stroke-width=".135"/></g><g style="line-height:1.5;-inkscape-font-specification:Poppins;text-align:center"><path d="M-4.594-470.363q.035-.45.347-.703.313-.254.811-.254.332 0 .571.122.245.117.367.322.127.206.127.464 0 .303-.176.523-.171.22-.45.283v.025q.318.078.504.307.185.23.185.601 0 .279-.127.503-.127.22-.38.347-.255.127-.611.127-.518 0-.85-.269-.332-.273-.371-.771h.43q.034.293.239.478.205.186.547.186.342 0 .518-.176.18-.18.18-.464 0-.366-.244-.527-.244-.162-.737-.162h-.113v-.37h.117q.45-.006.68-.147.229-.147.229-.45 0-.259-.171-.415-.166-.156-.479-.156-.302 0-.488.156t-.22.42z" style="-inkscape-font-specification:Poppins;text-align:center" transform="matrix(-.44864 1.67435 -.55724 -.14931 -254 -50.8)" aria-label="3" font-size="4.884" fill="#3d3d3d" stroke="#3d3d3d" stroke-width=".135"/></g><g style="line-height:1.5;-inkscape-font-specification:Poppins;text-align:center"><path d="M-402.56 231.3v-.405h.919v3.532h-.45V231.3z" style="-inkscape-font-specification:Poppins;text-align:center" transform="matrix(-.25826 -.96648 .66715 -1.37538 -254 -50.8)" aria-label="1" font-size="4.884" fill="#3d3d3d" stroke="#3d3d3d" stroke-width=".135"/></g><g style="line-height:1.5;-inkscape-font-specification:Poppins;text-align:center"><path d="M137.283 230.38q.034-.451.347-.706.313-.254.813-.254.332 0 .572.122.245.118.367.323.128.206.128.465 0 .304-.177.524-.17.22-.45.284v.024q.318.079.504.309.186.23.186.602 0 .278-.127.504-.127.22-.382.347-.254.127-.612.127-.518 0-.851-.269-.333-.274-.372-.773h.43q.035.294.24.48.206.185.549.185.342 0 .518-.176.181-.18.181-.465 0-.367-.244-.528-.245-.162-.74-.162h-.112v-.372h.118q.45-.005.68-.146.23-.147.23-.45 0-.26-.171-.417-.167-.156-.48-.156-.303 0-.49.156-.185.157-.22.421z" style="-inkscape-font-specification:Poppins;text-align:center" transform="matrix(1.67108 -.44776 .1496 .55833 -254 -50.8)" aria-label="3" font-size="4.894" fill="#0f0f0f" stroke="#0f0f0f" stroke-width=".135"/></g><g style="line-height:1.5;-inkscape-font-specification:Poppins;text-align:center"><path d="M132.2-239.61v-.338l1.717-2.378h.534v2.33h.49v.386h-.49v.788h-.44v-.788zm1.83-2.251l-1.317 1.864h1.317z" style="-inkscape-font-specification:Poppins;text-align:center" transform="matrix(-.70598 .70741 -1.522 .1086 -254 -50.8)" aria-label="4" font-size="4.894" fill="#0f0f0f" stroke="#0f0f0f" stroke-width=".135"/></g><g style="line-height:1.5;-inkscape-font-specification:Poppins;text-align:center"><path d="M-273.033-2.162v-.407h.92V.97h-.45v-3.132z" style="-inkscape-font-specification:Poppins;text-align:center" transform="matrix(-.9651 -.25965 1.3724 -.66694 -254 -50.8)" aria-label="1" font-size="4.894" fill="#0f0f0f" stroke="#0f0f0f" stroke-width=".135"/></g><g style="line-height:1.5;-inkscape-font-specification:Poppins;text-align:center"><path d="M-160.133-245.885v-.33l1.676-2.32h.52v2.273h.478v.377h-.477v.769h-.43v-.769zm1.786-2.196l-1.284 1.819h1.284z" style="-inkscape-font-specification:Poppins;text-align:center" transform="matrix(.28154 .97226 -1.28522 -.88643 -254 -50.8)" aria-label="4" font-size="4.775" fill="#181818" stroke="#181818" stroke-width=".132"/></g><g style="line-height:1.5;-inkscape-font-specification:Poppins;text-align:center"><path d="M-132.852 254.797q.033-.44.339-.688.306-.248.793-.248.324 0 .558.12.24.114.358.315.125.2.125.453 0 .296-.172.511-.167.215-.44.277v.024q.31.076.492.3.182.225.182.588 0 .272-.124.492-.125.215-.373.339-.248.124-.597.124-.506 0-.83-.262-.325-.268-.364-.755h.42q.034.287.235.468.2.181.534.181.335 0 .507-.171.176-.177.176-.454 0-.358-.238-.516-.24-.157-.722-.157h-.11v-.363h.115q.44-.005.664-.143.224-.144.224-.44 0-.253-.167-.406-.162-.152-.468-.152-.296 0-.477.152-.182.153-.215.411z" style="-inkscape-font-specification:Poppins;text-align:center" transform="matrix(-1.2538 -1.2538 .39879 -.39879 -254 -50.8)" aria-label="3" font-size="4.775" fill="#181818" stroke="#181818" stroke-width=".132"/></g><g style="line-height:1.5;-inkscape-font-specification:Poppins;text-align:center"><path d="M288.974-17.32q.607-.488.95-.798.344-.315.578-.654.239-.344.239-.673 0-.31-.153-.487-.148-.182-.482-.182-.325 0-.506.205-.177.2-.191.54h-.42q.019-.535.324-.826.306-.291.788-.291.492 0 .778.272.292.272.292.75 0 .396-.24.773-.233.372-.534.659-.3.282-.769.659h1.643v.363h-2.297z" style="-inkscape-font-specification:Poppins;text-align:center" transform="matrix(.97226 .28154 .88643 1.28522 -254 -50.8)" aria-label="2" font-size="4.775" fill="#181818" stroke="#181818" stroke-width=".132"/></g></g></svg>