<svg xmlns="http://www.w3.org/2000/svg" viewBox="0 0 25.4 25.4" height="96" width="96"><g style="line-height:1.5;-inkscape-font-specification:Poppins;text-align:center"><path style="-inkscape-font-specification:Poppins;text-align:center" d="M14.497 10.376q-.28-1.41-1.74-1.41-1.13 0-1.689.876-.559.864-.546 2.858.292-.66.965-1.029.686-.38 1.524-.38 1.308 0 2.083.812.787.813.787 2.248 0 .864-.343 1.55-.33.685-1.016 1.092-.673.406-1.638.406-1.308 0-2.045-.584-.736-.584-1.028-1.613-.292-1.029-.292-2.54Q9.519 8 12.769 8q1.245 0 1.957.673.71.673.838 1.702zm-1.727 1.892q-.546 0-1.029.229-.482.216-.787.673-.292.444-.292 1.092 0 .965.558 1.575.56.597 1.6.597.89 0 1.41-.546.534-.56.534-1.499 0-.99-.508-1.55-.508-.57-1.486-.57z" aria-label="6" font-weight="400" font-size="12.7" font-family="Poppins" letter-spacing="0" word-spacing="0" text-anchor="middle" fill="#1a1a1a" stroke="#1a1a1a" stroke-width=".176" stroke-linecap="round" stroke-linejoin="round"/></g></svg>