<svg xmlns="http://www.w3.org/2000/svg" viewBox="0 0 25.4 25.4" height="96" width="96"><defs><clipPath id="a" clipPathUnits="userSpaceOnUse"><path d="M419.094 1.791a1.266 1.266 0 00-.643.164l-8.13 4.604a1.266 1.266 0 00-.643 1.101v9.387c0 .457.245.878.642 1.103l8.131 4.602c.387.22.861.22 1.248 0l8.13-4.602c.397-.225.642-.646.642-1.103V7.66c0-.456-.246-.877-.643-1.101L419.7 1.955a1.266 1.266 0 00-.605-.164z" style="line-height:normal;font-variant-ligatures:normal;font-variant-position:normal;font-variant-caps:normal;font-variant-numeric:normal;font-variant-alternates:normal;font-feature-settings:normal;text-indent:0;text-align:start;text-decoration-line:none;text-decoration-style:solid;text-decoration-color:#000;text-transform:none;text-orientation:mixed;white-space:normal;shape-padding:0;isolation:auto;mix-blend-mode:normal;solid-color:#000;solid-opacity:1" color="#000" font-weight="400" font-family="sans-serif" overflow="visible" fill="#bf40bf" stroke-width="2.533" stroke-linecap="round" stroke-linejoin="round"/></clipPath></defs><path clip-path="url(#a)" d="M419.094 1.791a1.266 1.266 0 00-.643.164l-8.13 4.604a1.266 1.266 0 00-.643 1.101v9.387c0 .457.245.878.642 1.103l8.131 4.602c.387.22.861.22 1.248 0l8.13-4.602c.397-.225.642-.646.642-1.103V7.66c0-.456-.246-.877-.643-1.101L419.7 1.955a1.266 1.266 0 00-.605-.164z" style="line-height:normal;font-variant-ligatures:normal;font-variant-position:normal;font-variant-caps:normal;font-variant-numeric:normal;font-variant-alternates:normal;font-feature-settings:normal;text-indent:0;text-align:start;text-decoration-line:none;text-decoration-style:solid;text-decoration-color:#000;text-transform:none;text-orientation:mixed;white-space:normal;shape-padding:0;isolation:auto;mix-blend-mode:normal;solid-color:#000;solid-opacity:1" transform="matrix(.9 0 0 .9 -364.49 1.27)" color="#000" font-weight="400" font-family="sans-serif" overflow="visible"/></svg>