<svg xmlns="http://www.w3.org/2000/svg" viewBox="0 0 25.4 25.4" height="96" width="96"><g font-weight="400" font-family="Poppins" letter-spacing="0" word-spacing="0" text-anchor="middle" stroke-linecap="round" stroke-linejoin="round"><g style="line-height:1.5;-inkscape-font-specification:Poppins;text-align:center"><path style="-inkscape-font-specification:Poppins;text-align:center" d="M11.588 9.873v-.738h1.672v6.427h-.818v-5.69z" aria-label="1" font-size="9.878" fill="#1b1b1b" stroke="#1b1b1b" stroke-width=".158"/></g><path d="M11.775 19.437q.195.324 1.218.324.79 0 1.182-.201.391-.198.382-.656-.204.152-.675.236-.48.088-1.067.088-.916 0-1.458-.187-.551-.186-.551-.515 0-.199.24-.356.23-.157.71-.25.472-.094 1.148-.094.915 0 1.43.134.517.134.721.37.204.236.204.583 0 1.07-2.275 1.07-.872 0-1.37-.155-.497-.155-.586-.39zm1.209-.434q.382 0 .72-.052.338-.05.55-.154.205-.102.205-.251 0-.221-.39-.361-.392-.137-1.12-.137-.623 0-.988.125-.373.128-.373.344 0 .227.355.355.356.131 1.04.131zM9.85 17.815q.231 0 .391.052.16.053.16.128 0 .076-.16.129-.16.052-.39.052-.223 0-.374-.052-.16-.053-.16-.129 0-.075.16-.128.15-.052.373-.052z" style="line-height:1.5;-inkscape-font-specification:Poppins;text-align:center" font-size="5.655" fill="#141414" fill-opacity=".98" stroke="#141414" stroke-width=".091"/><g style="line-height:1.5;-inkscape-font-specification:Poppins;text-align:center"><path style="-inkscape-font-specification:Poppins;text-align:center" d="M595.343-512.8v-.396l2.013-2.787h.625v2.73h.573v.453h-.573v.923h-.516v-.923zm2.145-2.638l-1.543 2.185h1.543z" transform="matrix(0 .89912 -.90089 1.02997 -455.93 1.27)" aria-label="4" font-size="5.734" fill="#3d3d3d" stroke="#3c3c3c" stroke-width=".102" stroke-opacity=".992"/></g><g style="line-height:1.5;-inkscape-font-specification:Poppins;text-align:center"><path style="-inkscape-font-specification:Poppins;text-align:center" d="M592.299 526.293q-.322-.126-.494-.367t-.172-.585q0-.31.155-.556.155-.253.459-.396.31-.15.745-.15.436 0 .74.15.31.143.465.396.16.246.16.556 0 .333-.178.585-.177.246-.487.367.356.109.562.384.212.27.212.654 0 .373-.183.653-.184.276-.522.43-.333.15-.769.15-.435 0-.768-.15-.327-.154-.51-.43-.184-.28-.184-.653 0-.384.207-.66.206-.275.562-.378zm1.554-.889q0-.35-.23-.54-.23-.188-.63-.188-.396 0-.626.189-.23.19-.23.545 0 .32.236.516.24.195.62.195.384 0 .619-.195.24-.2.24-.522zm-.86 1.118q-.425 0-.694.2-.27.196-.27.592 0 .367.258.59.264.224.705.224.442 0 .7-.224.258-.223.258-.59 0-.385-.264-.585-.264-.207-.694-.207z" transform="matrix(0 -.89912 .90089 1.0278 -455.93 1.27)" aria-label="8" font-size="5.734" fill="#181818" stroke="#181818" stroke-width=".102"/></g></g></svg>