<svg xmlns="http://www.w3.org/2000/svg" viewBox="0 0 25.4 25.4" height="96" width="96"><path d="M12.7 5.512A6.677 7.188 0 006.023 12.7a6.677 7.188 0 006.677 7.188 6.677 7.188 0 006.677-7.188A6.677 7.188 0 0012.7 5.512zm-.229 4.16c.33-.007.693.013 1.005.096.953.253 1.7.972 2.058 1.89.036-.04.07-.1.093-.116h.001c.159-.115.207-.1.266-.111.06-.013.113-.019.17-.025a4.29 4.29 0 01.727-.008c.056.005.11.01.168.02.057.01.105.008.229.071l.012.007.012.006c.11.065.134.094.195.148.062.054.13.118.197.187.08.081.26.232.286.25.085.056.172.108.267.235a.823.823 0 01.138.429.824.824 0 01-.139.429c-.096.127-.181.178-.266.235a3.439 3.439 0 00-.286.25 3.27 3.27 0 01-.197.186c-.061.054-.085.084-.195.148l-.012.007-.012.006c-.123.063-.172.061-.23.071-.056.01-.11.015-.168.02a4.368 4.368 0 01-.724-.008 1.625 1.625 0 01-.169-.024c-.058-.012-.107.002-.261-.105l-.006-.004-.007-.005c-.016-.012-.053-.07-.085-.103-.282.72-.802 1.324-1.489 1.66h-.001a2.96 2.96 0 01-1.377.31c-.313 0-.562-.024-.787-.084h-.004c-1.005-.276-1.702-1.027-2.04-1.927a.816.816 0 01-.534.29c-.146.015-.258.007-.404.007-.25 0-.428.005-.645-.064a1.091 1.091 0 01-.5-.378l.007.01c.034.043-.017-.016-.072-.06a2.35 2.35 0 00-.183-.134c-.109-.07-.2-.128-.296-.212a.668.668 0 01-.26-.522c0-.279.163-.436.26-.52.096-.085.186-.142.295-.212.059-.039.13-.09.185-.135.055-.044.105-.103.071-.06l-.01.014a.939.939 0 01.351-.322l.005-.003.006-.004c.226-.122.285-.09.404-.102a4.046 4.046 0 01.75-.002c.058.005.114.012.176.025.062.013.119.005.266.111h.001l.002.001c.02.015.051.07.083.104A3.108 3.108 0 0112.15 9.7h.005a2.15 2.15 0 01.316-.028zm.013.53a1.747 1.747 0 00-.24.02c-.917.166-1.709.834-1.99 1.683a2.57 2.57 0 001.766 3.324c.163.044.365.066.65.066.478 0 .745-.062 1.146-.257a2.584 2.584 0 001.334-1.64c.087-.319.087-.98 0-1.298a2.587 2.587 0 00-1.81-1.82 3.633 3.633 0 00-.856-.078zm.26 1.078c.09.006.179.02.27.044.593.155.998.592 1.11 1.21.14.755-.42 1.517-1.225 1.669-.77.14-1.53-.415-1.68-1.235-.106-.553.216-1.218.722-1.493.271-.146.534-.211.803-.195zm-.103.114l.007.001h.008zm-.38.077l-.008.003c.002 0 .004 0 .006-.002h.002zm4.17.446c-.227.003-.449.021-.494.054-.065.047-.068.1-.072.78 0 .694.004.73.072.78.094.065.89.072 1.008.01.044-.025.17-.132.279-.244.108-.112.275-.257.372-.322.141-.094.17-.134.17-.224s-.029-.13-.17-.224a2.834 2.834 0 01-.372-.322 1.978 1.978 0 00-.279-.245c-.06-.031-.289-.045-.515-.043zm-7.533 0c-.23.002-.463.021-.53.057a.767.767 0 00-.188.177c-.055.069-.228.21-.383.31-.42.272-.42.308 0 .579.155.101.328.242.383.31.151.203.241.231.722.231.618 0 .575.059.575-.83-.004-.68-.007-.733-.072-.78-.05-.037-.277-.054-.507-.053zm3.758.007c-.043 0-.151.025-.242.054a.83.83 0 00-.524.549.807.807 0 00.958 1.015c.672-.144.864-1.015.315-1.445a1.102 1.102 0 00-.507-.173z" fill="#1a1a1a"/></svg>