<svg xmlns="http://www.w3.org/2000/svg" width="96" height="96" viewBox="0 0 25.4 25.4"><path d="M17.663 5.943c-.183 0-.168.012-.213.02-.045.008-.089.018-.139.028-.1.02-.217.048-.34.079-2.717.681-5.91.677-8.658-.015l-.002-.001H8.31c-.209-.052-.329-.091-.558-.103-.23-.013-.718.192-.853.338l-.009.01-.007.006a1.656 1.656 0 00-.27.523c-.044.157-.078.323-.14.618v.003c-.792 3.83-.303 7.425 1.495 10.126.376.566.674.935 1.144 1.418a8.962 8.962 0 002.476 1.815h.002c.28.138.45.226.679.296a1.7 1.7 0 00.772.013l.007-.002.01-.002c.662-.199 1.36-.63 1.96-1.06h.002v-.002a9.644 9.644 0 002.24-2.297c1.708-2.49 2.298-5.636 1.81-9.168v-.001a18.902 18.902 0 00-.322-1.704l-.002-.005v-.004a1.32 1.32 0 00-.256-.526c-.16-.2-.515-.403-.827-.403zm0 .902c.096 0 .163.084.212.265.073.277.24 1.166.3 1.6.467 3.364-.096 6.254-1.66 8.535a8.935 8.935 0 01-2.022 2.074c-.513.367-1.346.825-1.696.93-.166.046-.264.017-.81-.251a8.044 8.044 0 01-2.228-1.634 7.653 7.653 0 01-1.04-1.288c-1.634-2.455-2.118-5.797-1.363-9.444.122-.583.145-.662.206-.732.067-.072.132-.07.53.03 2.905.73 6.223.737 9.102.014.218-.055.43-.1.469-.1zm-7.257 1.602c-.128 0-.37.4-.443.734a1.89 1.89 0 00-.023.455c.017.361.073.463.381.731.225.192.312.306.312.408 0 .157-.454 1.59-.72 2.26-.16.408-.518 1.163-.795 1.67-.116.219-.14.283-.116.326.04.076.192.1.477.076.361-.03.618-.1.92-.242.298-.143.333-.143.406.006.055.117.075.568.035.83-.02.12-.088.38-.152.571-.145.437-.143.49.02.501.295.02.767-.265 1.122-.682.14-.163.257-.273.289-.273.081 0 .125.078.352.652.233.586.292.679.411.632.134-.05.536-.594.679-.917.2-.455.253-.731.274-1.457.017-.606.017-.609.09-.661.061-.047.198-.064.818-.111.411-.03.776-.07.81-.087.036-.02.1-.108.146-.201.166-.335.498-1.107.498-1.166 0-.13-.058-.136-.547-.046-.61.114-1.177.12-1.367.02-.192-.105-.26-.244-.183-.39.072-.134.326-.192 1.305-.303.807-.093.926-.12 1.005-.225.055-.072.056-.092.02-.626-.037-.58-.073-.722-.18-.763a19.316 19.316 0 00-1.043-.157l-.973-.131-.082-.088a1 1 0 01-.14-.3.889.889 0 00-.128-.273c-.082-.082-.221-.094-1.386-.12-1.227-.027-1.422-.073-1.821-.451-.12-.114-.236-.202-.271-.202z" style="line-height:normal;font-variant-ligatures:normal;font-variant-position:normal;font-variant-caps:normal;font-variant-numeric:normal;font-variant-alternates:normal;font-feature-settings:normal;text-indent:0;text-align:start;text-decoration-line:none;text-decoration-style:solid;text-decoration-color:#000;text-transform:none;text-orientation:mixed;white-space:normal;shape-padding:0;isolation:auto;mix-blend-mode:normal;solid-color:#000;solid-opacity:1" color="#000" font-weight="400" font-family="sans-serif" overflow="visible" fill="#1a1a1a"/></svg>