<svg xmlns="http://www.w3.org/2000/svg" width="96" height="96" viewBox="0 0 25.4 25.4"><path d="M12.533 5.533a8.47 8.47 0 00-.845.03l-.03-.003-.095.012h-.007c-.246.029-.449.076-.73.133h-.004C7.913 6.3 5.831 8.75 5.97 11.594c.032.68.142 1.339.363 1.902v.002c.178.452.435.738.734 1.047.208.214.459.386.704.563-.246.305-.375.587-.504.937v.002c-.118.322-.205.523-.243.846-.037.322.114.77.221.943l.002.002v.002c.205.327.387.467.598.645.106.088.212.17.334.248.122.078.12.226.691.226.024 0 .064-.025.092-.027.002.004.002.017.004.021.046.107.097.2.178.307l.002.002c.201.267.31.297.43.369.12.073.24.134.367.192.252.115.471.217.837.263.119.016.316.063.641-.053.042-.015.05-.066.09-.087.119.12.243.255.34.302.345.17.406.123.543.137a4.897 4.897 0 00.841.01c.136-.011.222.01.52-.116.12-.05.335-.167.506-.374.102.052.16.173.255.185.333.041.474-.024.588-.055l.005-.002c.278-.07.522-.172.75-.302.227-.13.446-.18.694-.672.015-.03.025-.093.042-.137.2.008.419.052.55-.002.431-.173.583-.38.829-.635.18-.188.477-.67.46-1.107-.015-.436-.143-.681-.295-1.063v-.002c-.166-.423-.276-.715-.554-1.048.3-.207.68-.36.92-.624l.002-.002.004-.002c.433-.48.7-1.064.843-1.802.133-.681.126-1.47.01-2.143v-.002c-.465-2.665-2.843-4.532-5.853-4.896a9.484 9.484 0 00-.977-.061zm-.022 1.001c.333.004.673.019.88.044 2.688.325 4.612 1.894 4.994 4.083.082.475.082 1.34-.005 1.784-.132.685-.236.915-.609 1.33-.414.454-.869.759-1.606 1.074-.295.125-.55.25-.563.28-.055.095.113.18.54.264.715.135.692.116 1.074 1.085.291.735.296.855.04 1.12-.431.45-.608.52-.74.3-.041-.065-.15-.426-.246-.8-.096-.375-.209-.725-.254-.78-.15-.18-.547-.11-.683.12-.073.12-.064.17.164 1.084.218.88.237.97.173 1.09-.077.155-.464.375-.805.46-.387.1-.405.055-.505-1.03-.073-.81-.091-.9-.187-.984-.195-.175-.641-.07-.696.165-.013.06.005.5.041.984.077.955.064 1.075-.145 1.16-.16.07-.946.06-1.087-.01-.164-.08-.182-.225-.123-1.04.032-.4.054-.814.054-.93 0-.28-.118-.39-.418-.394-.355 0-.387.075-.468 1.074-.087 1-.119 1.075-.428 1.035-.277-.035-.869-.305-.969-.44a.4.4 0 01-.082-.19c0-.05.091-.45.205-.9.227-.899.245-1.099.118-1.224-.1-.1-.359-.155-.518-.11-.132.035-.191.175-.396.98-.155.614-.228.75-.391.75-.132 0-.642-.43-.783-.655-.127-.205-.118-.305.11-.925.31-.84.305-.834 1.01-.97.532-.1.709-.17.677-.264-.009-.035-.268-.175-.582-.315-.31-.135-.637-.29-.723-.34-.528-.305-1.164-.96-1.324-1.364-.154-.395-.268-1.005-.295-1.59-.114-2.343 1.569-4.358 4.061-4.867.273-.055.564-.11.65-.12.18-.02.507-.028.84-.024zm-3.473 4.287c-.123 0-.35.26-.491.57-.091.194-.123.35-.141.664-.019.37-.01.44.1.685.332.75 1.21 1.145 2.01.905.532-.16 1.201-.75 1.201-1.07 0-.165-.022-.18-.677-.38-.628-.19-1.001-.424-1.492-.934-.237-.25-.46-.44-.51-.44zm7.678 0c-.05 0-.282.2-.523.45-.514.53-.928.78-1.647.984-.523.15-.6.22-.491.455.09.19.519.63.737.75.518.29 1.105.33 1.633.11.368-.155.75-.57.86-.94.168-.545.022-1.24-.342-1.65-.077-.084-.182-.159-.227-.159zm-3.86 2.455c-.03-.003-.059.026-.106.083-.123.15-.728 1.915-.733 2.135-.004.18.014.21.155.29.136.075.245.09.705.07.737-.026.983-.166.892-.515-.082-.32-.701-1.85-.792-1.96-.057-.067-.09-.1-.12-.103z" style="line-height:normal;font-variant-ligatures:normal;font-variant-position:normal;font-variant-caps:normal;font-variant-numeric:normal;font-variant-alternates:normal;font-feature-settings:normal;text-indent:0;text-align:start;text-decoration-line:none;text-decoration-style:solid;text-decoration-color:#000;text-transform:none;text-orientation:mixed;white-space:normal;shape-padding:0;isolation:auto;mix-blend-mode:normal;solid-color:#000;solid-opacity:1" color="#000" font-weight="400" font-family="sans-serif" overflow="visible" fill="#1a1a1a"/></svg>