<svg xmlns="http://www.w3.org/2000/svg" viewBox="0 0 25.4 25.4" height="96" width="96"><g font-weight="400" font-family="Poppins" letter-spacing="0" word-spacing="0" text-anchor="middle" stroke-linecap="round" stroke-linejoin="round"><g style="line-height:1.5;-inkscape-font-specification:Poppins;text-align:center"><path style="-inkscape-font-specification:Poppins;text-align:center" d="M11.832 12.857q-.446-.175-.685-.51-.239-.334-.239-.812 0-.43.215-.772.215-.35.637-.55.43-.207 1.036-.207.605 0 1.027.207.43.2.645.55.223.342.223.772 0 .462-.247.813-.247.342-.677.51.494.15.78.533.295.374.295.908 0 .517-.255.908-.254.382-.724.597-.462.207-1.067.207-.606 0-1.068-.207-.453-.215-.708-.597-.255-.39-.255-.908 0-.534.287-.916.286-.382.78-.526zm2.158-1.234q0-.486-.318-.749-.319-.263-.876-.263-.55 0-.868.263-.319.263-.319.757 0 .446.327.717.334.27.86.27.533 0 .86-.27.334-.28.334-.725zm-1.194 1.553q-.59 0-.964.278-.374.271-.374.82 0 .51.358.821.366.31.98.31.613 0 .971-.31.359-.31.359-.82 0-.534-.367-.813-.366-.286-.963-.286z" aria-label="8" font-size="7.964" fill="#1b1b1b" stroke="#1b1b1b" stroke-width=".249"/></g><g style="line-height:1.5;-inkscape-font-specification:Poppins;text-align:center"><path style="-inkscape-font-specification:Poppins;text-align:center" d="M383.24 533.587l-1.35 3.163h-.446l1.369-3.12h-1.873v-.378h2.3z" transform="matrix(.74373 -1.14237 .17085 1.08214 -355.6 -127)" aria-label="7" font-size="4.851" fill="#101010" stroke="#0f0f0f" stroke-width=".152"/></g><g style="line-height:1.5;-inkscape-font-specification:Poppins;text-align:center"><path style="-inkscape-font-specification:Poppins;text-align:center" d="M147.246-296.217h-1.693v1.1q.111-.155.328-.251.217-.102.468-.102.4 0 .65.17.251.163.357.428.111.26.111.555 0 .347-.13.622t-.4.434q-.265.159-.66.159-.507 0-.82-.26-.314-.26-.381-.695h.429q.063.275.265.43.203.154.511.154.381 0 .574-.227.193-.231.193-.607 0-.377-.193-.58-.193-.206-.569-.206-.256 0-.448.125-.188.12-.275.333h-.415v-1.968h2.098z" transform="matrix(-.49582 .60338 -1.49263 -.20043 -355.6 -127)" aria-label="5" font-size="4.822" fill="#141414" stroke="#141414" stroke-width=".151"/></g><g style="line-height:1.5;-inkscape-font-specification:Poppins;text-align:center"><path style="-inkscape-font-specification:Poppins;text-align:center" d="M-132.49-469.372v-.335l1.7-2.355h.529v2.307h.484v.383h-.484v.78h-.437v-.78zm1.812-2.23l-1.304 1.847h1.304z" transform="matrix(-.0013 1.30307 -.76675 -.66469 -355.6 -127)" aria-label="4" font-size="4.847" fill="#171717" stroke="#171717" stroke-width=".151"/></g><g style="line-height:1.5;-inkscape-font-specification:Poppins;text-align:center"><path style="-inkscape-font-specification:Poppins;text-align:center" d="M-82.85 288.404q.594-.477.93-.78.337-.309.566-.64.233-.337.233-.66 0-.303-.15-.476-.144-.178-.471-.178-.318 0-.495.201-.173.196-.187.528h-.412q.019-.523.318-.808.3-.285.771-.285.482 0 .762.266.285.266.285.734 0 .387-.234.757-.229.364-.523.645-.294.275-.752.645h1.607v.355h-2.248z" transform="matrix(-.81367 -1.06095 1.06788 .16342 -355.6 -127)" aria-label="2" font-size="4.673" fill="#171717" stroke="#171717" stroke-width=".146"/></g><g style="line-height:1.5;-inkscape-font-specification:Poppins;text-align:center"><path style="-inkscape-font-specification:Poppins;text-align:center" d="M-409.262-332.166v-.398h.902v3.469h-.441v-3.071zm1.598 2.721q.61-.49.955-.802.345-.316.58-.657.24-.346.24-.677 0-.311-.153-.489-.15-.182-.485-.182-.326 0-.509.206-.177.202-.191.542h-.423q.02-.537.327-.83.307-.293.791-.293.494 0 .782.274.293.273.293.753 0 .398-.24.777-.235.375-.537.663-.303.283-.773.662h1.65v.364h-2.307z" transform="matrix(-1.244 .4538 .4321 -.96148 -355.6 -127)" aria-label="12" font-size="4.798" fill="#7f7f7f" stroke="#7f7f7f" stroke-width=".15"/></g></g></svg>