<svg xmlns="http://www.w3.org/2000/svg" viewBox="0 0 25.4 25.4" height="96" width="96"><g font-weight="400" font-family="Poppins" word-spacing="0" text-anchor="middle" stroke-width=".176" stroke-linecap="round" stroke-linejoin="round"><g style="line-height:1.5;-inkscape-font-specification:Poppins;text-align:center"><path style="-inkscape-font-specification:Poppins;text-align:center" d="M10.408 11.777v-.468h1.061v4.08h-.519v-3.612zm1.818 2.704v-.39l1.98-2.743h.616v2.687h.565v.446h-.565v.909h-.508v-.909zm2.11-2.596l-1.518 2.15h1.519z" aria-label="14" font-size="5.644" letter-spacing="0" fill="#f2f2f2" stroke="#f2f2f2"/></g><g style="line-height:1.5;-inkscape-font-specification:Poppins;text-align:center"><path style="-inkscape-font-specification:Poppins;text-align:center" d="M-194.236 78.242q-.105-.527-.651-.527-.423 0-.632.328-.21.323-.204 1.069.109-.247.36-.385.257-.143.57-.143.49 0 .78.304.294.304.294.841 0 .323-.128.58-.123.256-.38.408-.252.152-.613.152-.49 0-.765-.218-.275-.219-.384-.603-.11-.385-.11-.95 0-1.744 1.216-1.744.466 0 .732.252.266.251.314.636zm-.647.708q-.204 0-.384.086-.18.08-.295.251-.11.167-.11.409 0 .361.21.59.209.222.598.222.333 0 .528-.204.2-.209.2-.56 0-.371-.19-.58-.19-.214-.557-.214zm1.958 1.938q-.124 0-.21-.085-.085-.086-.085-.21 0-.123.086-.208.085-.086.209-.086.118 0 .2.086.085.085.085.209 0 .123-.086.209-.08.085-.2.085z" transform="matrix(-.93452 -.17078 -.14027 -1.0957 -152.4 62.442)" aria-label="6." font-size="4.751" letter-spacing="0" fill="#dbdbdb" stroke="#dbdbdb"/></g><g style="line-height:1.5;-inkscape-font-specification:Poppins;text-align:center"><path style="-inkscape-font-specification:Poppins;text-align:center" d="M65.08-158.059v-.33l1.684-2.333h.523v2.284h.48v.38h-.48v.772h-.432v-.773zm1.794-2.207l-1.29 1.828h1.29z" transform="matrix(.34839 .88398 -.85596 .69848 -152.4 62.442)" aria-label="4" font-size="4.799" letter-spacing="0" fill="#f4f4f4" stroke="#f4f4f4"/></g><g style="line-height:1.5;-inkscape-font-specification:Poppins;text-align:center"><path style="-inkscape-font-specification:Poppins;text-align:center" d="M-9.904 95.967v-.244h.553v2.126h-.27v-1.882zm1.47 0v-.244h.553v2.126h-.27v-1.882z" transform="matrix(-.00186 -.59492 1.67885 -.65577 -152.4 62.442)" aria-label="11" font-size="2.94" letter-spacing=".529" fill="#f8f8f8" stroke="#f8f8f8"/></g><g style="line-height:1.5;-inkscape-font-specification:Poppins;text-align:center"><path style="-inkscape-font-specification:Poppins;text-align:center" d="M96.53 226.204q.38-.305.595-.5.215-.196.362-.409.15-.215.15-.42 0-.195-.096-.306-.093-.113-.302-.113-.203 0-.317.128-.11.126-.12.338h-.262q.012-.335.203-.517t.493-.182q.308 0 .487.17.182.17.182.47 0 .247-.15.483-.146.233-.334.413-.188.176-.481.412h1.028v.227h-1.437z" transform="matrix(-.96273 -1.15093 1.12634 .30782 -152.4 62.442)" aria-label="2" font-size="2.989" letter-spacing="0" fill="#d3d3d3" stroke="#d3d3d3"/></g><g style="line-height:1.5;-inkscape-font-specification:Poppins;text-align:center"><path style="-inkscape-font-specification:Poppins;text-align:center" d="M21.076-146.586q.589-.473.923-.774.333-.306.56-.635.232-.334.232-.654 0-.301-.148-.473-.144-.176-.468-.176-.315 0-.492.2-.171.194-.185.523h-.408q.019-.519.315-.802.297-.282.765-.282.477 0 .756.264.282.264.282.728 0 .384-.231.75-.228.362-.52.64-.292.274-.746.64h1.595v.352h-2.23zm2.716-1.372q0-.797.26-1.242.26-.45.908-.45.645 0 .904.45.26.445.26 1.242 0 .81-.26 1.26-.26.45-.904.45-.649 0-.908-.45-.26-.45-.26-1.26zm1.915 0q0-.403-.056-.682-.051-.282-.218-.454-.162-.171-.473-.171-.315 0-.482.171-.162.172-.218.454-.05.279-.05.682 0 .417.05.7.056.282.218.454.167.171.482.171.31 0 .473-.171.167-.172.218-.454.056-.283.056-.7z" transform="matrix(.61351 .73798 -1.0149 .40915 -152.4 62.442)" aria-label="20" font-size="4.635" letter-spacing="0" fill="#b6b6b6" stroke="#b6b6b6"/></g><g style="line-height:1.5;-inkscape-font-specification:Poppins;text-align:center"><path style="-inkscape-font-specification:Poppins;text-align:center" d="M-204.264-221.329v-.25h.568v2.182h-.278v-1.932zm2.256.269q-.067-.335-.414-.335-.269 0-.402.208-.132.205-.13.68.07-.158.23-.245.163-.09.362-.09.311 0 .496.192.187.194.187.535 0 .205-.082.368-.078.163-.241.26-.16.096-.39.096-.31 0-.486-.138-.175-.14-.244-.384-.07-.244-.07-.604 0-1.108.773-1.108.296 0 .465.16.17.16.2.405zm-.41.45q-.13 0-.245.054-.115.051-.188.16-.07.106-.07.26 0 .23.134.374.133.142.38.142.212 0 .335-.13.127-.133.127-.356 0-.236-.12-.369-.121-.135-.354-.135z" transform="matrix(-.54286 1.42046 -.289 -1.0859 -152.4 62.442)" aria-label="16" font-size="3.019" letter-spacing="0" fill="#bdbdbd" stroke="#bdbdbd"/></g><g style="line-height:1.5;-inkscape-font-specification:Poppins;text-align:center"><path style="-inkscape-font-specification:Poppins;text-align:center" d="M5.741-154.851q-.168-.066-.258-.193-.09-.126-.09-.307 0-.162.08-.292.082-.132.241-.207.163-.078.391-.078.23 0 .389.078.162.075.243.207.085.13.085.292 0 .175-.094.307-.093.13-.255.193.186.057.294.201.112.142.112.343 0 .196-.097.343-.096.145-.273.226-.175.078-.404.078-.228 0-.403-.078-.171-.081-.268-.226-.096-.147-.096-.343 0-.201.108-.346.109-.144.295-.198zm.816-.467q0-.183-.12-.283-.12-.099-.332-.099-.207 0-.328.1-.12.099-.12.285 0 .169.123.271.127.102.325.102.202 0 .325-.102.127-.105.127-.274zm-.452.587q-.222 0-.364.105-.141.103-.141.31 0 .193.135.31.139.118.37.118.232 0 .368-.118.135-.117.135-.31 0-.201-.138-.307-.139-.108-.365-.108z" transform="matrix(-.93035 1.14205 -1.13608 .31973 -152.4 62.442)" aria-label="8" font-size="3.009" letter-spacing="0" fill="#8c8c8c" stroke="#8c8c8c"/></g><g style="line-height:1.5;-inkscape-font-specification:Poppins;text-align:center"><path style="-inkscape-font-specification:Poppins;text-align:center" d="M-123.892-262.06v-.243h.55v2.117h-.27v-1.874zm1.393.773q-.164-.064-.251-.187-.088-.123-.088-.299 0-.158.079-.284.079-.129.234-.202.158-.076.38-.076.223 0 .379.076.158.073.237.202.082.126.082.284 0 .17-.091.299-.09.126-.249.187.182.056.287.196.108.138.108.334 0 .19-.093.334-.094.14-.267.22-.17.076-.392.076-.223 0-.393-.076-.166-.08-.26-.22-.094-.144-.094-.334 0-.196.106-.337.105-.14.287-.193zm.794-.454q0-.178-.117-.275-.117-.097-.322-.097-.202 0-.32.097-.117.097-.117.278 0 .164.12.264.124.1.317.1.196 0 .316-.1.123-.103.123-.267zm-.44.571q-.216 0-.354.103-.137.1-.137.301 0 .188.132.302.134.114.36.114.225 0 .357-.114.132-.114.132-.302 0-.196-.135-.298-.135-.106-.354-.106z" transform="matrix(.00568 1.67045 -.60068 -.59857 -152.4 62.442)" aria-label="18" font-size="2.928" letter-spacing="0" fill="#f3f3f3" stroke="#f3f3f3"/></g><g style="line-height:1.5;-inkscape-font-specification:Poppins;text-align:center"><path style="-inkscape-font-specification:Poppins;text-align:center" d="M16.574 234.226q.03.166.134.256.108.09.288.09.241 0 .355-.19.116-.188.11-.636-.06.13-.203.206-.143.073-.317.073-.195 0-.35-.078-.15-.082-.238-.236-.087-.154-.087-.372 0-.311.18-.5.18-.192.512-.192.407 0 .57.264.166.265.166.788 0 .367-.067.605-.064.239-.22.364-.155.125-.425.125-.297 0-.463-.16-.166-.16-.189-.407zm.41-.425q.195 0 .32-.12.125-.121.125-.328 0-.218-.122-.352-.122-.133-.343-.133-.204 0-.326.128-.119.128-.119.337 0 .212.12.34.119.128.345.128zm1.21 1.006q-.075 0-.128-.052-.052-.052-.052-.128 0-.075.052-.128.053-.052.128-.052.073 0 .122.052.053.053.053.128 0 .076-.053.128-.049.052-.122.052z" transform="matrix(-1.49875 -.86902 .83287 -.1843 -152.4 62.442)" aria-label="9." font-size="2.908" letter-spacing="0" fill="#f4f4f4" stroke="#f4f4f4"/></g></g></svg>