<svg xmlns="http://www.w3.org/2000/svg" viewBox="0 0 25.4 25.4" height="96" width="96"><g font-weight="400" font-family="Poppins" letter-spacing="0" word-spacing="0" text-anchor="middle" stroke-width=".176" stroke-linecap="round" stroke-linejoin="round"><g style="line-height:1.5;-inkscape-font-specification:Poppins;text-align:center"><path style="-inkscape-font-specification:Poppins;text-align:center" d="M10.41 11.777v-.468h1.062v4.08h-.52v-3.612zm4.545-.022h-1.981v1.287q.13-.18.383-.294.254-.118.548-.118.468 0 .762.197.293.192.418.503.13.304.13.649 0 .406-.153.728-.152.322-.469.508-.31.186-.773.186-.592 0-.96-.305-.366-.304-.445-.812h.502q.073.321.31.502.238.18.599.18.446 0 .672-.265.225-.27.225-.71 0-.441-.225-.678-.226-.243-.667-.243-.299 0-.524.147-.22.14-.322.39h-.486v-2.304h2.456z" aria-label="15" font-size="5.644" fill="#1b1b1b" stroke="#1b1b1b"/></g><g style="line-height:1.5;-inkscape-font-specification:Poppins;text-align:center"><path style="-inkscape-font-specification:Poppins;text-align:center" d="M-170.483 86.34v-.394h.893v3.434h-.437v-3.04zm1.582 2.694q.603-.485.945-.794.342-.313.575-.65.238-.343.238-.67 0-.31-.152-.485-.148-.18-.48-.18-.323 0-.504.204-.175.2-.19.537h-.418q.02-.532.323-.822.304-.29.784-.29.49 0 .774.27.29.272.29.747 0 .394-.237.77-.233.37-.532.655-.3.28-.765.655h1.634v.361h-2.285z" transform="matrix(-.93452 -.17078 -.14027 -1.0957 -127 76.2)" aria-label="12" font-size="4.751" fill="#181818" stroke="#181818"/></g><g style="line-height:1.5;-inkscape-font-specification:Poppins;text-align:center"><path style="-inkscape-font-specification:Poppins;text-align:center" d="M37.88-142.717h-1.684v1.094q.11-.153.327-.25.216-.1.465-.1.398 0 .648.168.25.163.355.427.11.26.11.552 0 .345-.129.619-.13.274-.398.432-.264.158-.658.158-.504 0-.816-.259-.312-.259-.379-.691h.427q.063.274.264.427.202.154.509.154.379 0 .571-.226.192-.23.192-.605 0-.374-.192-.575-.192-.207-.566-.207-.255 0-.447.125-.187.12-.273.331h-.413v-1.958h2.088z" transform="matrix(.34839 .88398 -.85596 .69848 -127 76.2)" aria-label="5" font-size="4.799" fill="#3d3d3d" stroke="#3d3d3d"/></g><g style="line-height:1.5;-inkscape-font-specification:Poppins;text-align:center"><path style="-inkscape-font-specification:Poppins;text-align:center" d="M29.66 80.882v-.244h.552v2.125h-.27v-1.881zm1.4.776q-.166-.065-.254-.188-.088-.124-.088-.3 0-.159.08-.285.079-.13.235-.203.158-.077.382-.077.223 0 .38.077.158.073.237.203.083.126.083.285 0 .17-.092.3-.09.126-.25.188.183.056.289.197.108.138.108.335 0 .191-.094.335-.094.141-.267.22-.17.077-.394.077t-.394-.076q-.168-.08-.262-.22-.094-.145-.094-.336 0-.197.106-.338.106-.141.288-.194zm.796-.456q0-.18-.118-.276-.117-.097-.323-.097-.203 0-.32.097-.118.097-.118.279 0 .165.12.265.124.1.318.1.197 0 .317-.1.124-.103.124-.268zm-.441.573q-.218 0-.356.103-.138.1-.138.303 0 .188.132.303.135.115.362.115.226 0 .359-.115.132-.115.132-.303 0-.197-.135-.3-.136-.106-.356-.106z" transform="matrix(-.00186 -.59492 1.67885 -.65577 -127 76.2)" aria-label="18" font-size="2.94" fill="#7e7e7e" stroke="#7f7f7f"/></g><g style="line-height:1.5;-inkscape-font-specification:Poppins;text-align:center"><path style="-inkscape-font-specification:Poppins;text-align:center" d="M104.552 208.522v-.248h.562v2.16h-.275v-1.912z" transform="matrix(-.96273 -1.15093 1.12634 .30782 -127 76.2)" aria-label="1" font-size="2.989" fill="#171717" stroke="#171717"/></g><g style="line-height:1.5;-inkscape-font-specification:Poppins;text-align:center"><path style="-inkscape-font-specification:Poppins;text-align:center" d="M.356-138.967l-1.289 3.022h-.426l1.307-2.98h-1.79v-.362H.357z" transform="matrix(.61351 .73798 -1.0149 .40915 -127 76.2)" aria-label="7" font-size="4.635" fill="#141414" stroke="#141414"/></g><g style="line-height:1.5;-inkscape-font-specification:Poppins;text-align:center"><path style="-inkscape-font-specification:Poppins;text-align:center" d="M-180.648-177.78v-.25h.568v2.182h-.278v-1.932zm1.038.818q0-.519.17-.809.169-.293.592-.293.42 0 .589.293.169.29.169.81 0 .528-.17.82-.169.293-.588.293-.423 0-.592-.292-.17-.293-.17-.822zm1.248 0q0-.262-.036-.444-.034-.184-.142-.295-.106-.112-.308-.112-.206 0-.314.112-.106.111-.142.295-.033.182-.033.444 0 .272.033.456.036.184.142.296.108.112.314.112.202 0 .308-.112.108-.112.142-.296.036-.184.036-.456z" transform="matrix(-.54286 1.42046 -.289 -1.0859 -127 76.2)" aria-label="10" font-size="3.019" fill="#141414" stroke="#141414"/></g><g style="line-height:1.5;-inkscape-font-specification:Poppins;text-align:center"><path style="-inkscape-font-specification:Poppins;text-align:center" d="M-18.834-113.837v-.25h.565v2.176h-.277v-1.926zm2.374-.036l-.837 1.962h-.277l.849-1.935h-1.162v-.234h1.427z" transform="matrix(-.93035 1.14205 -1.13608 .31973 -127 76.2)" aria-label="17" font-size="3.009" fill="#0f0f0f" stroke="#0f0f0f"/></g><g style="line-height:1.5;-inkscape-font-specification:Poppins;text-align:center"><path style="-inkscape-font-specification:Poppins;text-align:center" d="M-116.892-219.709v-.243h.55v2.118h-.269v-1.875zm1.002.29q.02-.269.207-.421.188-.153.486-.153.2 0 .343.074.147.07.22.193.076.123.076.278 0 .182-.106.313-.102.132-.269.17v.015q.19.047.302.184.11.138.11.36 0 .167-.075.302-.076.132-.229.208-.152.076-.366.076-.31 0-.51-.16-.198-.165-.222-.464h.258q.02.176.143.287.123.112.328.112.205 0 .31-.106.11-.108.11-.278 0-.22-.147-.316-.147-.097-.442-.097h-.068v-.222h.07q.27-.003.408-.088.137-.088.137-.27 0-.155-.102-.249-.1-.093-.287-.093-.182 0-.293.093-.111.094-.132.252z" transform="matrix(.00568 1.67045 -.60068 -.59857 -127 76.2)" aria-label="13" font-size="2.928" fill="#292929" stroke="#292929"/></g><g style="line-height:1.5;-inkscape-font-specification:Poppins;text-align:center"><path style="-inkscape-font-specification:Poppins;text-align:center" d="M32.728 233.126q.37-.296.58-.485.208-.192.351-.399.145-.21.145-.41 0-.189-.093-.297-.09-.11-.293-.11-.198 0-.309.125-.107.122-.116.329h-.256q.012-.326.198-.504.186-.177.48-.177.3 0 .474.166.177.166.177.456 0 .242-.145.472-.143.226-.326.4-.183.172-.468.402h1v.221h-1.399z" transform="matrix(-1.49875 -.86902 .83287 -.1843 -127 76.2)" aria-label="2" font-size="2.908" fill="#434343" stroke="#434343"/></g></g></svg>