<svg xmlns="http://www.w3.org/2000/svg" viewBox="0 0 25.4 25.4" height="96" width="96"><g font-weight="400" font-family="Poppins" word-spacing="0" text-anchor="middle" stroke-width=".176" stroke-linecap="round" stroke-linejoin="round"><g style="line-height:1.5;-inkscape-font-specification:Poppins;text-align:center"><path style="-inkscape-font-specification:Poppins;text-align:center" d="M10.402 11.777v-.468h1.062v4.08h-.52v-3.612zm2.688 1.491q-.317-.125-.486-.362-.17-.237-.17-.575 0-.305.153-.548.152-.248.451-.39.305-.146.734-.146.43 0 .728.147.305.14.458.39.158.242.158.547 0 .327-.175.575-.175.243-.48.362.35.107.553.378.209.265.209.643 0 .367-.18.644-.181.27-.514.423-.328.147-.757.147t-.756-.147q-.322-.152-.502-.423-.181-.277-.181-.644 0-.378.203-.649.203-.27.553-.372zm1.529-.875q0-.345-.226-.53-.226-.187-.62-.187-.39 0-.616.186-.226.186-.226.536 0 .316.232.508.237.192.61.192.377 0 .609-.192.237-.197.237-.513zm-.847 1.1q-.417 0-.683.198-.265.192-.265.581 0 .362.254.582.26.22.694.22.435 0 .689-.22.254-.22.254-.582 0-.378-.26-.575-.26-.204-.683-.204z" aria-label="18" font-size="5.644" letter-spacing="0" fill="#f2f2f2" stroke="#f2f2f2"/></g><g style="line-height:1.5;-inkscape-font-specification:Poppins;text-align:center"><path style="-inkscape-font-specification:Poppins;text-align:center" d="M-84.419 62.744v-.328l1.667-2.309h.518v2.262h.475v.375h-.475v.765h-.427v-.765zm1.777-2.185l-1.278 1.81h1.278z" transform="matrix(-.93452 -.17078 -.14027 -1.0957 -50.8 62.442)" aria-label="4" font-size="4.751" letter-spacing="0" fill="#dbdbdb" stroke="#dbdbdb"/></g><g style="line-height:1.5;-inkscape-font-specification:Poppins;text-align:center"><path style="-inkscape-font-specification:Poppins;text-align:center" d="M-3.566-70.564h-1.685v1.094q.11-.153.327-.25.216-.1.465-.1.399 0 .648.168.25.163.355.427.11.26.11.552 0 .346-.129.62-.13.273-.398.431-.264.158-.658.158-.504 0-.816-.259-.312-.259-.379-.69h.427q.063.273.264.426.202.154.509.154.38 0 .571-.226.192-.23.192-.604 0-.375-.192-.576-.192-.207-.566-.207-.255 0-.447.125-.187.12-.273.331h-.413v-1.958h2.088z" transform="matrix(.34839 .88398 -.85596 .69848 -50.8 62.442)" aria-label="5" font-size="4.799" letter-spacing="0" fill="#f4f4f4" stroke="#f4f4f4"/></g><g style="line-height:1.5;-inkscape-font-specification:Poppins;text-align:center"><path style="-inkscape-font-specification:Poppins;text-align:center" d="M56.591 35.523v-.244h.553v2.126h-.27v-1.882zm1.006.291q.02-.27.208-.423.189-.153.488-.153.2 0 .344.073.147.071.221.195.076.123.076.279 0 .182-.105.314-.103.133-.27.17v.016q.19.047.302.185.112.138.112.361 0 .168-.077.303-.076.133-.23.21-.152.076-.367.076-.311 0-.511-.162-.2-.165-.224-.465h.26q.02.177.143.288.124.112.33.112.205 0 .311-.106.109-.108.109-.279 0-.22-.147-.318-.147-.097-.444-.097h-.068v-.223h.07q.271-.003.41-.088.138-.088.138-.27 0-.157-.103-.25-.1-.095-.288-.095-.183 0-.294.094-.112.094-.133.253z" transform="matrix(-.00186 -.59492 1.67885 -.65577 -50.8 62.442)" aria-label="13" font-size="2.94" letter-spacing="0" fill="#f8f8f8" stroke="#f8f8f8"/></g><g style="line-height:1.5;-inkscape-font-specification:Poppins;text-align:center"><path style="-inkscape-font-specification:Poppins;text-align:center" d="M64.74 107.575v-.248h.561v2.16h-.275v-1.912zm.995 1.695q.38-.306.594-.5.216-.197.362-.41.15-.215.15-.42 0-.195-.096-.306-.093-.113-.302-.113-.203 0-.317.128-.11.126-.12.338h-.262q.012-.335.203-.517t.493-.182q.308 0 .487.17.182.17.182.47 0 .247-.149.483-.146.234-.335.413-.188.176-.48.412h1.027v.227h-1.437z" transform="matrix(-.96273 -1.15093 1.12634 .30782 -50.8 62.442)" aria-label="12" font-size="2.989" letter-spacing="0" fill="#d3d3d3" stroke="#d3d3d3"/></g><g style="line-height:1.5;-inkscape-font-specification:Poppins;text-align:center"><path style="-inkscape-font-specification:Poppins;text-align:center" d="M-19.038-71.608q.588-.472.922-.774.334-.305.56-.635.232-.333.232-.653 0-.301-.148-.473-.144-.176-.468-.176-.315 0-.491.2-.172.194-.186.523h-.408q.019-.52.316-.802.296-.283.764-.283.478 0 .756.265.283.264.283.727 0 .385-.232.751-.227.362-.52.64-.291.273-.745.64h1.594v.352h-2.23z" transform="matrix(.61351 .73798 -1.0149 .40915 -50.8 62.442)" aria-label="2" font-size="4.635" letter-spacing="0" fill="#b6b6b6" stroke="#b6b6b6"/></g><g style="line-height:1.5;-inkscape-font-specification:Poppins;text-align:center"><path style="-inkscape-font-specification:Poppins;text-align:center" d="M-92.481-76.741q-.067-.335-.414-.335-.269 0-.401.208-.133.205-.13.68.07-.158.23-.245.162-.09.362-.09.31 0 .495.192.187.194.187.535 0 .205-.082.368-.078.163-.241.26-.16.097-.39.097-.31 0-.486-.14-.175-.138-.244-.383-.07-.244-.07-.604 0-1.108.773-1.108.296 0 .465.16.17.16.2.405zm-.41.45q-.13 0-.245.054-.115.051-.188.16-.069.106-.069.26 0 .23.133.374.133.142.38.142.212 0 .335-.13.127-.133.127-.356 0-.236-.12-.368-.121-.136-.354-.136zm1.243 1.231q-.078 0-.133-.054-.054-.054-.054-.133 0-.078.054-.132.055-.055.133-.055.076 0 .127.055.054.054.054.132 0 .079-.054.133-.051.055-.127.055z" transform="matrix(-.54286 1.42046 -.289 -1.0859 -50.8 62.442)" aria-label="6." font-size="3.019" letter-spacing="0" fill="#bdbdbd" stroke="#bdbdbd"/></g><g style="line-height:1.5;-inkscape-font-specification:Poppins;text-align:center"><path style="-inkscape-font-specification:Poppins;text-align:center" d="M-28.034-37.907q.382-.307.598-.502.217-.199.365-.413.15-.216.15-.424 0-.195-.096-.307-.094-.114-.304-.114-.205 0-.32.13-.11.126-.12.34h-.264q.012-.338.204-.521.193-.184.497-.184.31 0 .49.172.184.171.184.472 0 .25-.15.488-.148.234-.338.415-.19.177-.484.415h1.035v.229h-1.447zm1.763-.89q0-.518.168-.807.169-.292.59-.292.418 0 .587.292.168.289.168.807 0 .526-.168.818-.169.292-.587.292-.421 0-.59-.292-.168-.292-.168-.818zm1.243 0q0-.262-.036-.443-.034-.183-.142-.295-.105-.111-.307-.111-.204 0-.313.111-.105.112-.141.295-.033.18-.033.443 0 .27.033.454.036.183.141.295.109.111.313.111.202 0 .307-.111.108-.112.142-.295.036-.184.036-.454z" transform="matrix(-.93035 1.14205 -1.13608 .31973 -50.8 62.442)" aria-label="20" font-size="3.009" letter-spacing="0" fill="#8c8c8c" stroke="#8c8c8c"/></g><g style="line-height:1.5;-inkscape-font-specification:Poppins;text-align:center"><path style="-inkscape-font-specification:Poppins;text-align:center" d="M-63.073-92.342v-.243h.55v2.117h-.269v-1.874zm2.357-.012h-1.027v.668q.067-.094.199-.152.131-.062.284-.062.243 0 .395.103.152.1.217.26.067.158.067.337 0 .21-.08.378-.078.167-.242.263-.161.097-.401.097-.308 0-.498-.158t-.231-.422h.26q.038.167.161.26.123.094.31.094.232 0 .35-.137.116-.14.116-.37 0-.228-.117-.35-.117-.126-.345-.126-.156 0-.273.076-.114.073-.167.202h-.251v-1.195h1.273z" transform="matrix(.00568 1.67045 -.60068 -.59857 -50.8 62.442)" aria-label="15" font-size="2.928" letter-spacing="0" fill="#f3f3f3" stroke="#f3f3f3"/></g><g style="line-height:1.5;-inkscape-font-specification:Poppins;text-align:center"><path style="-inkscape-font-specification:Poppins;text-align:center" d="M34.915 144.636v-.241h.547v2.103h-.268v-1.862zm1.46 0v-.241h.547v2.103h-.268v-1.862z" transform="matrix(-1.49875 -.86902 .83287 -.1843 -50.8 62.442)" aria-label="11" font-size="2.908" letter-spacing=".529" fill="#f4f4f4" stroke="#f4f4f4"/></g></g></svg>