<svg xmlns="http://www.w3.org/2000/svg" viewBox="0 0 25.4 25.4" height="96" width="96"><g font-weight="400" font-family="Poppins" letter-spacing="0" word-spacing="0" text-anchor="middle" stroke-width=".176" stroke-linecap="round" stroke-linejoin="round"><g style="line-height:1.5;-inkscape-font-specification:Poppins;text-align:center"><path style="-inkscape-font-specification:Poppins;text-align:center" d="M9.765 14.978q.717-.576 1.123-.943.406-.372.683-.773.282-.406.282-.796 0-.367-.18-.576-.175-.214-.57-.214-.384 0-.599.243-.209.237-.226.637h-.496q.022-.632.383-.976.362-.344.932-.344.581 0 .92.321.344.322.344.887 0 .468-.282.914-.277.44-.632.779-.356.333-.909.779h1.942v.429H9.765zm3.307-1.671q0-.97.316-1.513.316-.547 1.107-.547.784 0 1.1.547.316.542.316 1.513 0 .988-.316 1.535-.316.548-1.1.548-.79 0-1.107-.548-.316-.547-.316-1.535zm2.331 0q0-.49-.067-.83-.062-.344-.266-.553-.197-.209-.575-.209-.384 0-.587.21-.198.208-.266.552-.062.34-.062.83 0 .508.062.852.068.345.266.554.203.208.587.208.378 0 .575-.208.204-.21.266-.554.067-.344.067-.852z" aria-label="20" font-size="5.644" fill="#1b1b1b" stroke="#1b1b1b"/></g><g style="line-height:1.5;-inkscape-font-specification:Poppins;text-align:center"><path style="-inkscape-font-specification:Poppins;text-align:center" d="M-31.457 64.651v-.394h.893v3.435H-31v-3.04zm1.53 2.276v-.328l1.667-2.309h.518v2.262h.475v.375h-.475v.765h-.428v-.765zm1.776-2.185l-1.277 1.81h1.277z" transform="matrix(-.93452 -.17078 -.14027 -1.0957 0 76.2)" aria-label="14" font-size="4.751" fill="#181818" stroke="#181818"/></g><g style="line-height:1.5;-inkscape-font-specification:Poppins;text-align:center"><path style="-inkscape-font-specification:Poppins;text-align:center" d="M-52.964-27.71q.609-.49.955-.802.345-.317.58-.658.24-.345.24-.676 0-.312-.153-.49-.15-.182-.485-.182-.326 0-.509.206-.177.202-.192.542h-.422q.02-.537.326-.83.307-.293.792-.293.494 0 .782.274.293.274.293.753 0 .399-.24.778-.235.374-.537.662-.303.283-.773.663h1.651v.364h-2.308z" transform="matrix(.34839 .88398 -.85596 .69848 0 76.2)" aria-label="2" font-size="4.799" fill="#3d3d3d" stroke="#3d3d3d"/></g><g style="line-height:1.5;-inkscape-font-specification:Poppins;text-align:center"><path style="-inkscape-font-specification:Poppins;text-align:center" d="M112.942 5.327v-.244h.553v2.125h-.27V5.327zm1.4.776q-.165-.065-.253-.188-.088-.124-.088-.3 0-.159.079-.285.08-.13.235-.203.159-.077.382-.077.224 0 .38.077.158.073.238.203.082.126.082.285 0 .17-.091.3-.091.126-.25.188.182.056.288.197.109.138.109.335 0 .191-.094.335-.094.141-.268.22-.17.077-.394.077-.223 0-.394-.076-.167-.08-.261-.22-.094-.145-.094-.336 0-.197.105-.338.106-.141.289-.194zm.796-.456q0-.18-.117-.276-.118-.097-.324-.097-.203 0-.32.097-.118.097-.118.28 0 .164.12.264.124.1.318.1.197 0 .318-.1.123-.103.123-.268zm-.44.574q-.218 0-.356.103-.139.1-.139.302 0 .189.133.303.135.115.361.115.227 0 .359-.115.132-.114.132-.303 0-.197-.135-.3-.135-.105-.356-.105z" transform="matrix(-.00186 -.59492 1.67885 -.65577 0 76.2)" aria-label="18" font-size="2.94" fill="#7e7e7e" stroke="#7f7f7f"/></g><g style="line-height:1.5;-inkscape-font-specification:Poppins;text-align:center"><path style="-inkscape-font-specification:Poppins;text-align:center" d="M64.52 62.354v-.248h.563v2.16h-.275v-1.912zm1.029.81q0-.515.167-.801.168-.29.586-.29.415 0 .583.29.167.286.167.8 0 .524-.167.813-.168.29-.583.29-.418 0-.586-.29-.167-.29-.167-.812zm1.234 0q0-.26-.036-.44-.033-.182-.14-.293-.105-.11-.305-.11-.203 0-.31.11-.105.11-.141.293-.033.18-.033.44 0 .268.033.45.036.183.14.294.108.11.311.11.2 0 .305-.11.107-.11.14-.293.036-.183.036-.451z" transform="matrix(-.96273 -1.15093 1.12634 .30782 0 76.2)" aria-label="10" font-size="2.989" fill="#171717" stroke="#171717"/></g><g style="line-height:1.5;-inkscape-font-specification:Poppins;text-align:center"><path style="-inkscape-font-specification:Poppins;text-align:center" d="M-53.255-43.964q-.26-.102-.398-.297-.14-.194-.14-.472 0-.25.126-.45.125-.204.37-.32.25-.12.603-.12.352 0 .598.12.25.116.375.32.13.2.13.45 0 .268-.144.472-.143.2-.393.297.287.088.454.31.171.218.171.529 0 .301-.148.528-.148.223-.422.348-.269.12-.621.12t-.621-.12q-.264-.125-.413-.348-.148-.227-.148-.528 0-.31.167-.533.167-.223.454-.306zm1.256-.718q0-.283-.185-.436-.186-.153-.51-.153-.32 0-.505.153-.186.153-.186.44 0 .26.19.417.195.158.501.158.31 0 .5-.158.195-.162.195-.421zm-.695.903q-.343 0-.56.163-.219.157-.219.477 0 .297.209.477.213.181.57.181t.566-.18q.208-.181.208-.478 0-.31-.213-.473-.213-.167-.561-.167z" transform="matrix(.61351 .73798 -1.0149 .40915 0 76.2)" aria-label="8" font-size="4.635" fill="#141414" stroke="#141414"/></g><g style="line-height:1.5;-inkscape-font-specification:Poppins;text-align:center"><path style="-inkscape-font-specification:Poppins;text-align:center" d="M-40.977 2.888q-.066-.336-.414-.336-.268 0-.401.209-.133.205-.13.68.07-.158.23-.245.163-.091.362-.091.31 0 .495.193.187.193.187.535 0 .205-.081.368-.079.163-.242.26-.16.096-.39.096-.31 0-.485-.139-.176-.138-.245-.383-.07-.245-.07-.604 0-1.108.773-1.108.296 0 .465.16.17.16.2.405zm-.41.45q-.13 0-.245.054-.115.051-.187.16-.07.106-.07.26 0 .229.133.374.133.142.38.142.212 0 .336-.13.126-.133.126-.356 0-.236-.12-.369-.121-.136-.354-.136z" transform="matrix(-.54286 1.42046 -.289 -1.0859 0 76.2)" aria-label="6" font-size="3.019" fill="#141414" stroke="#141414"/></g><g style="line-height:1.5;-inkscape-font-specification:Poppins;text-align:center"><path style="-inkscape-font-specification:Poppins;text-align:center" d="M-59.574 31.204v-.25h.565v2.176h-.276v-1.926zm2.247.268q-.066-.334-.412-.334-.268 0-.4.208-.132.204-.13.677.07-.157.23-.244.162-.09.36-.09.31 0 .494.192.186.193.186.533 0 .205-.08.367-.08.163-.242.259-.159.096-.388.096-.31 0-.484-.138-.175-.139-.244-.382-.07-.244-.07-.602 0-1.105.771-1.105.295 0 .464.16.168.16.198.403zm-.409.449q-.13 0-.244.054-.114.05-.186.16-.07.104-.07.258 0 .229.133.373.132.141.38.141.21 0 .333-.129.127-.132.127-.355 0-.235-.12-.367-.121-.135-.353-.135z" transform="matrix(-.93035 1.14205 -1.13608 .31973 0 76.2)" aria-label="16" font-size="3.009" fill="#0f0f0f" stroke="#0f0f0f"/></g><g style="line-height:1.5;-inkscape-font-specification:Poppins;text-align:center"><path style="-inkscape-font-specification:Poppins;text-align:center" d="M-40.853-7.561v-.243h.55v2.117h-.268v-1.874zm.975 1.661q.372-.3.583-.49.211-.193.355-.401.146-.21.146-.413 0-.19-.094-.299-.09-.11-.296-.11-.199 0-.31.125-.108.123-.117.33h-.258q.012-.327.2-.506.187-.178.483-.178.301 0 .477.167.178.167.178.46 0 .242-.146.474-.143.228-.328.404-.184.173-.471.404h1.007v.222h-1.408z" transform="matrix(.00568 1.67045 -.60068 -.59857 0 76.2)" aria-label="12" font-size="2.928" fill="#292929" stroke="#292929"/></g><g style="line-height:1.5;-inkscape-font-specification:Poppins;text-align:center"><path style="-inkscape-font-specification:Poppins;text-align:center" d="M56.024 122.505v-.2l1.02-1.414h.317v1.384h.291v.23h-.29v.468H57.1v-.468zm1.087-1.338l-.782 1.108h.782z" transform="matrix(-1.49875 -.86902 .83287 -.1843 0 76.2)" aria-label="4" font-size="2.908" fill="#434343" stroke="#434343"/></g></g></svg>