<svg xmlns="http://www.w3.org/2000/svg" viewBox="0 0 25.4 25.4" height="96" width="96"><g font-weight="400" font-family="Poppins" word-spacing="0" text-anchor="middle" stroke-width=".176" stroke-linecap="round" stroke-linejoin="round"><g style="line-height:1.5;-inkscape-font-specification:Poppins;text-align:center" aria-label="11" font-size="5.644" letter-spacing=".529" fill="#1b1b1b" stroke="#1b1b1b"><path style="-inkscape-font-specification:Poppins;text-align:center" d="M11.016 11.777v-.468h1.06v4.08h-.518v-3.612zM13.351 11.777v-.468h1.061v4.08h-.52v-3.612z"/></g><g style="line-height:1.5;-inkscape-font-specification:Poppins;text-align:center"><path style="-inkscape-font-specification:Poppins;text-align:center" d="M-281.165 105.967v-.328l1.667-2.31h.518v2.262h.475v.376h-.475v.764h-.427v-.764zm1.777-2.186l-1.278 1.81h1.278z" transform="matrix(-.93452 -.17078 -.14027 -1.0957 -228.6 76.2)" aria-label="4" font-size="4.751" letter-spacing="0" fill="#181818" stroke="#181818"/></g><g style="line-height:1.5;-inkscape-font-specification:Poppins;text-align:center" aria-label="9." font-size="4.799" letter-spacing="0" fill="#3d3d3d" stroke="#3d3d3d"><path style="-inkscape-font-specification:Poppins;text-align:center" d="M106.687-230.37q.048.273.22.422.178.149.476.149.398 0 .585-.312.192-.312.183-1.051-.101.216-.336.34-.236.12-.523.12-.322 0-.576-.129-.25-.134-.394-.389-.144-.254-.144-.614 0-.514.298-.825.297-.317.844-.317.672 0 .941.437.274.436.274 1.3 0 .605-.11.998-.106.394-.366.6-.254.207-.7.207-.49 0-.763-.264-.274-.264-.312-.672zm.677-.7q.321 0 .527-.198.207-.201.207-.542 0-.36-.202-.58-.201-.221-.566-.221-.336 0-.538.21-.196.212-.196.557 0 .35.196.562.197.211.572.211zM109.36-229.41q-.125 0-.211-.087-.087-.086-.087-.21 0-.126.087-.212.086-.086.211-.086.12 0 .202.086.086.086.086.211t-.086.211q-.082.087-.202.087z" transform="matrix(.34839 .88398 -.85596 .69848 -228.6 76.2)"/></g><g style="line-height:1.5;-inkscape-font-specification:Poppins;text-align:center" aria-label="6." font-size="2.94" letter-spacing="0" fill="#7e7e7e" stroke="#7f7f7f"><path style="-inkscape-font-specification:Poppins;text-align:center" d="M-35.555 141.587q-.065-.326-.403-.326-.262 0-.391.203-.13.2-.126.661.067-.153.223-.238.159-.088.353-.088.303 0 .482.188.182.188.182.52 0 .2-.08.36-.076.158-.234.252-.156.094-.38.094-.302 0-.473-.135-.17-.135-.238-.374-.068-.238-.068-.588 0-1.079.753-1.079.288 0 .453.156.164.156.194.394zm-.4.438q-.126 0-.238.053-.112.05-.182.156-.068.103-.068.253 0 .223.13.364.129.139.37.139.206 0 .326-.127.124-.13.124-.347 0-.23-.118-.358-.118-.133-.344-.133zM-34.744 143.225q-.076 0-.13-.053-.052-.053-.052-.13 0-.076.053-.129.053-.053.13-.053.073 0 .123.053.053.053.053.13 0 .076-.053.129-.05.053-.124.053z" transform="matrix(-.00186 -.59492 1.67885 -.65577 -228.6 76.2)"/></g><g style="line-height:1.5;-inkscape-font-specification:Poppins;text-align:center"><path style="-inkscape-font-specification:Poppins;text-align:center" d="M135.826 325.457v-.248h.562v2.16h-.275v-1.912z" transform="matrix(-.96273 -1.15093 1.12634 .30782 -228.6 76.2)" aria-label="1" font-size="2.989" letter-spacing="0" fill="#171717" stroke="#171717"/></g><g style="line-height:1.5;-inkscape-font-specification:Poppins;text-align:center" aria-label="13" font-size="4.635" letter-spacing="0" fill="#141414" stroke="#141414"><path style="-inkscape-font-specification:Poppins;text-align:center" d="M38.91-213.89v-.385h.872v3.352h-.427v-2.967zM40.496-213.431q.032-.426.329-.667.296-.241.77-.241.314 0 .541.115.232.112.348.306.12.195.12.44 0 .288-.166.497-.162.208-.427.268v.024q.302.074.478.292.176.217.176.57 0 .264-.12.477-.121.209-.362.33-.241.12-.58.12-.49 0-.806-.255-.315-.26-.352-.733h.408q.032.279.227.455.194.176.519.176.324 0 .491-.167.172-.172.172-.44 0-.348-.232-.5-.232-.154-.7-.154h-.107v-.352h.112q.426-.005.644-.14.218-.138.218-.426 0-.245-.162-.394-.158-.148-.455-.148-.287 0-.463.148-.176.149-.209.399z" transform="matrix(.61351 .73798 -1.0149 .40915 -228.6 76.2)"/></g><g style="line-height:1.5;-inkscape-font-specification:Poppins;text-align:center" aria-label="18" font-size="3.019" letter-spacing="0" fill="#141414" stroke="#141414"><path style="-inkscape-font-specification:Poppins;text-align:center" d="M-290.98-322.099v-.25h.568v2.182h-.278v-1.932zM-289.542-321.302q-.17-.066-.26-.193t-.09-.308q0-.163.08-.293.082-.133.242-.208.163-.079.393-.079t.39.079q.162.075.244.208.085.13.085.293 0 .175-.094.308-.094.13-.257.193.187.057.296.202.112.142.112.345 0 .196-.097.344-.096.145-.274.226-.176.079-.405.079-.23 0-.405-.079-.172-.081-.268-.226-.097-.148-.097-.344 0-.203.109-.348.108-.145.296-.199zm.818-.468q0-.184-.121-.284-.12-.1-.332-.1-.208 0-.33.1-.12.1-.12.287 0 .17.124.272.127.103.326.103.202 0 .326-.103.127-.106.127-.275zm-.453.589q-.224 0-.365.106-.142.102-.142.31 0 .194.136.312.138.117.37.117.233 0 .37-.117.135-.118.135-.311 0-.203-.139-.308-.139-.11-.365-.11z" transform="matrix(-.54286 1.42046 -.289 -1.0859 -228.6 76.2)"/></g><g style="line-height:1.5;-inkscape-font-specification:Poppins;text-align:center"><path style="-inkscape-font-specification:Poppins;text-align:center" d="M15.468-229.881h-1.056v.686q.069-.097.204-.157.136-.063.292-.063.25 0 .406.105.157.103.223.268.07.163.07.346 0 .217-.082.388-.081.172-.25.271-.165.1-.412.1-.316 0-.511-.163-.196-.163-.238-.433h.268q.039.171.165.267.127.097.32.097.237 0 .357-.142.12-.144.12-.379 0-.235-.12-.36-.12-.13-.355-.13-.16 0-.28.078-.117.075-.171.208h-.259v-1.228h1.309z" transform="matrix(-.93035 1.14205 -1.13608 .31973 -228.6 76.2)" aria-label="5" font-size="3.009" letter-spacing="0" fill="#0f0f0f" stroke="#0f0f0f"/></g><g style="line-height:1.5;-inkscape-font-specification:Poppins;text-align:center" aria-label="19" font-size="2.928" letter-spacing="0" fill="#292929" stroke="#292929"><path style="-inkscape-font-specification:Poppins;text-align:center" d="M-177.767-389.426v-.244h.55v2.118h-.269v-1.874zM-176.417-388.12q.03.166.135.257.108.091.29.091.242 0 .357-.19.117-.19.11-.642-.06.132-.204.208-.144.073-.32.073-.195 0-.35-.079-.153-.082-.24-.237-.089-.155-.089-.375 0-.313.182-.503.181-.194.515-.194.41 0 .574.267.167.266.167.793 0 .37-.067.61-.065.24-.223.366-.155.125-.427.125-.299 0-.466-.16-.167-.162-.19-.41zm.413-.428q.196 0 .322-.12.126-.123.126-.331 0-.22-.123-.354-.123-.135-.346-.135-.205 0-.328.129-.12.129-.12.34 0 .213.12.342.12.129.349.129z" transform="matrix(.00568 1.67045 -.60068 -.59857 -228.6 76.2)"/></g><g style="line-height:1.5;-inkscape-font-specification:Poppins;text-align:center" aria-label="14" font-size="2.908" letter-spacing="0" fill="#434343" stroke="#434343"><path style="-inkscape-font-specification:Poppins;text-align:center" d="M13.422 319.77v-.242h.547v2.103H13.7v-1.861zM14.359 321.163v-.2l1.02-1.414h.317v1.384h.291v.23h-.29v.468h-.262v-.468zm1.087-1.338l-.782 1.108h.782z" transform="matrix(-1.49875 -.86902 .83287 -.1843 -228.6 76.2)"/></g></g></svg>