<svg xmlns="http://www.w3.org/2000/svg" viewBox="0 0 25.4 25.4" height="96" width="96"><g font-weight="400" font-family="Poppins" letter-spacing="0" word-spacing="0" text-anchor="middle" stroke-linecap="round" stroke-linejoin="round"><g style="line-height:1.5;-inkscape-font-specification:Poppins;text-align:center"><path d="M14.53 9.832h-3.12v2.027q.205-.285.605-.463.4-.186.862-.186.738 0 1.2.31.463.303.658.792.205.48.205 1.022 0 .64-.24 1.147t-.738.8q-.49.294-1.218.294-.934 0-1.511-.48-.578-.48-.703-1.28h.791q.116.506.49.79.373.285.942.285.702 0 1.058-.418.355-.426.355-1.12 0-.693-.355-1.067-.356-.382-1.05-.382-.47 0-.826.231-.347.222-.507.614h-.764V9.12h3.867z" style="-inkscape-font-specification:Poppins;text-align:center" aria-label="5" font-size="9.878" fill="#f2f2f2" stroke="#f2f2f2" stroke-width=".15839999999999999"/></g><g style="line-height:1.5;-inkscape-font-specification:Poppins;text-align:center"><path d="M-241.242-32.56q.718-.576 1.125-.944.407-.373.684-.774.283-.407.283-.798 0-.367-.18-.576-.176-.215-.572-.215-.384 0-.6.243-.208.237-.225.639h-.498q.023-.633.384-.978.362-.345.933-.345.583 0 .922.322.345.322.345.888 0 .47-.283.916-.277.44-.633.78-.356.334-.91.78h1.945v.43h-2.72z" style="-inkscape-font-specification:Poppins;text-align:center" transform="matrix(-1.57217 0 0 -.51521 -364.49 1.264)" aria-label="2" font-size="5.655" fill="#b6b6b6" stroke="#b6b6b6" stroke-width=".101"/></g><g style="line-height:1.5;-inkscape-font-specification:Poppins;text-align:center"><path d="M480.478-412.533q-.32-.126-.493-.367-.172-.24-.172-.585 0-.31.155-.556.155-.252.459-.396.31-.149.745-.149.436 0 .74.15.31.143.465.395.16.247.16.556 0 .333-.178.585-.177.247-.487.367.355.11.562.384.212.27.212.654 0 .373-.183.654-.184.275-.522.43-.333.149-.769.149t-.768-.15q-.327-.154-.51-.43-.184-.28-.184-.653 0-.384.206-.66.207-.275.562-.378zm1.554-.889q0-.35-.229-.539-.23-.189-.63-.189-.396 0-.626.19-.23.188-.23.544 0 .321.236.516.24.195.62.195.383 0 .619-.195.24-.2.24-.522zm-.86 1.119q-.424 0-.694.2-.27.195-.27.59 0 .368.259.592.264.223.705.223.442 0 .7-.223.258-.224.258-.591 0-.384-.264-.585-.264-.206-.694-.206z" style="-inkscape-font-specification:Poppins;text-align:center" transform="matrix(0 .89912 -.90089 1.02997 -364.49 1.264)" aria-label="8" font-size="5.734" fill="#f4f4f4" stroke="#f4f4f4" stroke-width=".102"/></g><g style="line-height:1.5;-inkscape-font-specification:Poppins;text-align:center"><path d="M475.924 426.026v-.396l2.013-2.787h.625v2.73h.574v.453h-.574v.923h-.516v-.923zm2.145-2.638l-1.543 2.185h1.543z" style="-inkscape-font-specification:Poppins;text-align:center" transform="matrix(0 -.89912 .90089 1.0278 -364.49 1.264)" aria-label="4" font-size="5.734" fill="#dbdbdb" stroke="#dbdbdb" stroke-width=".102"/></g></g></svg>