<svg xmlns="http://www.w3.org/2000/svg" viewBox="0 0 25.4 25.4" height="96" width="96"><g font-weight="400" font-family="Poppins" word-spacing="0" text-anchor="middle" stroke-linecap="round" stroke-linejoin="round"><path style="line-height:1.5;-inkscape-font-specification:Poppins;font-variant-ligatures:normal;font-variant-position:normal;font-variant-caps:normal;font-variant-numeric:normal;font-variant-alternates:normal;font-feature-settings:normal;text-indent:0;text-align:center;text-decoration-line:none;text-decoration-style:solid;text-decoration-color:#000;text-transform:none;text-orientation:mixed;white-space:normal;shape-padding:0" d="M12.868 14.42q-.502.2-.956.11-.454-.091-.823-.484-.331-.354-.418-.801-.093-.454.1-.943.194-.502.692-.968.497-.467 1.004-.622.507-.167.954-.045.447.11.779.463.356.38.423.859.06.471-.164.94.523-.256 1.053-.162.53.08.942.519.399.426.49.943.085.51-.135 1.05-.22.526-.718.992-.498.467-1.037.652-.54.173-1.044.056-.51-.125-.909-.55-.411-.44-.47-.975-.059-.535.237-1.033zm.823-2.677q-.374-.4-.839-.37-.464.029-.923.459-.452.423-.51.885-.06.461.32.867.344.367.821.338.484-.035.916-.44.439-.412.498-.886.06-.487-.283-.853zm.215 2.197q-.485.454-.578.972-.099.511.325.963.392.419.926.398.541-.027 1.045-.5.504-.472.56-1.004.055-.531-.338-.95-.411-.439-.927-.386-.522.047-1.013.507z" aria-label="8" font-size="10.559" letter-spacing="-.619" fill="#f2f2f2" stroke="#f2f2f2" stroke-width=".0697"/><path style="line-height:1.5;-inkscape-font-specification:Poppins;font-variant-ligatures:normal;font-variant-position:normal;font-variant-caps:normal;font-variant-numeric:normal;font-variant-alternates:normal;font-feature-settings:normal;text-indent:0;text-align:center;text-decoration-line:none;text-decoration-style:solid;text-decoration-color:#000;text-transform:none;text-orientation:mixed;white-space:normal;shape-padding:0" d="M-269.97 253.631q0-1.362.444-2.123.444-.768 1.553-.768 1.101 0 1.545.768.443.76.443 2.123 0 1.387-.443 2.155-.444.768-1.545.768-1.109 0-1.553-.768-.443-.768-.443-2.155zm3.272 0q0-.689-.095-1.164-.087-.483-.372-.776-.277-.293-.808-.293-.539 0-.824.293-.277.293-.372.776-.087.475-.087 1.164 0 .713.087 1.196.095.484.372.777.285.293.824.293.53 0 .808-.293.285-.293.372-.777.095-.483.095-1.196z" transform="matrix(-.1303 -.66064 1.11098 .08792 -300.355 -192.405)" aria-label="0" font-size="7.921" letter-spacing="-.464" fill="#f4f4f4" stroke="#f4f4f4" stroke-width=".062"/><path style="line-height:1.5;-inkscape-font-specification:Poppins;font-variant-ligatures:normal;font-variant-position:normal;font-variant-caps:normal;font-variant-numeric:normal;font-variant-alternates:normal;font-feature-settings:normal;text-indent:0;text-align:center;text-decoration-line:none;text-decoration-style:solid;text-decoration-color:#000;text-transform:none;text-orientation:mixed;white-space:normal;shape-padding:0" d="M448.41 96.899q1.01-.811 1.583-1.328.573-.525.963-1.09.397-.572.397-1.121 0-.517-.254-.811-.247-.302-.804-.302-.54 0-.843.341-.294.335-.318.9h-.7q.032-.892.541-1.377.51-.485 1.312-.485.82 0 1.297.454.485.453.485 1.248 0 .66-.398 1.288-.39.62-.89 1.098-.501.47-1.28 1.097h2.735v.605h-3.825z" transform="matrix(.66765 .23046 .06872 1.10588 -300.355 -192.405)" aria-label="2" font-size="7.953" letter-spacing="-.466" fill="#f4f4f4" stroke="#f4f4f4" stroke-width=".062"/><path style="line-height:1.5;-inkscape-font-specification:Poppins;font-variant-ligatures:normal;font-variant-position:normal;font-variant-caps:normal;font-variant-numeric:normal;font-variant-alternates:normal;font-feature-settings:normal;text-indent:0;text-align:center;text-decoration-line:none;text-decoration-style:solid;text-decoration-color:#000;text-transform:none;text-orientation:mixed;white-space:normal;shape-padding:0" d="M-699.799-1408.843q.02-.255.197-.399.177-.144.46-.144.188 0 .324.07.138.066.208.182.072.116.072.263 0 .172-.1.297-.097.124-.255.16v.014q.18.044.285.175.106.13.106.34 0 .159-.072.286-.072.125-.216.197-.145.072-.347.072-.293 0-.482-.153-.188-.155-.21-.438h.243q.02.167.136.272.117.105.31.105.194 0 .294-.1.103-.102.103-.263 0-.208-.139-.3-.138-.09-.418-.09h-.064v-.21h.067q.254 0 .385-.084.13-.083.13-.255 0-.146-.097-.235-.094-.09-.272-.09-.171 0-.277.09-.105.089-.124.238z" transform="matrix(-1.0948 2.47468 .31608 -1.3744 -300.355 -192.405)" aria-label="3" font-size="2.771" letter-spacing="-.162" fill="#8c8c8c" stroke="#8c8c8c" stroke-width=".022"/><path style="line-height:1.5;-inkscape-font-specification:Poppins;font-variant-ligatures:normal;font-variant-position:normal;font-variant-caps:normal;font-variant-numeric:normal;font-variant-alternates:normal;font-feature-settings:normal;text-indent:0;text-align:center;text-decoration-line:none;text-decoration-style:solid;text-decoration-color:#000;text-transform:none;text-orientation:mixed;white-space:normal;shape-padding:0" d="M377.906-901.248h-1.101v.715q.072-.1.213-.163.141-.066.305-.066.26 0 .423.11.164.107.233.28.072.169.072.36 0 .226-.085.405-.085.18-.26.283-.173.103-.43.103-.33 0-.534-.17-.204-.169-.248-.451h.28q.04.179.172.28.132.1.333.1.248 0 .373-.148.126-.15.126-.395 0-.245-.126-.377-.125-.135-.37-.135-.167 0-.292.082-.122.078-.179.216h-.27v-1.28h1.365z" transform="matrix(-1.90262 .78802 -1.14505 .09451 -300.355 -192.405)" aria-label="5" font-size="3.139" letter-spacing="-.184" fill="#b6b6b6" stroke="#b6b6b6" stroke-width=".025"/></g></svg>