<svg xmlns="http://www.w3.org/2000/svg" viewBox="0 0 25.4 25.4" height="96" width="96"><g font-weight="400" font-family="Poppins" letter-spacing="0" word-spacing="0" text-anchor="middle" stroke-linecap="round" stroke-linejoin="round"><g style="line-height:1.5;-inkscape-font-specification:Poppins;text-align:center"><path style="-inkscape-font-specification:Poppins;text-align:center" d="M10.614 14.57v-.55l2.795-3.87h.868v3.79h.796v.63h-.796v1.282h-.717v-1.283zm2.978-3.664L11.45 13.94h2.142z" aria-label="4" font-size="7.964" fill="#1b1b1b" stroke="#1b1b1b" stroke-width=".249"/></g><g style="line-height:1.5;-inkscape-font-specification:Poppins;text-align:center" aria-label="6." font-size="4.851" fill="#101010" stroke="#0f0f0f" stroke-width=".152"><path style="-inkscape-font-specification:Poppins;text-align:center" d="M272.365 418.012q-.107-.538-.665-.538-.432 0-.645.334-.214.33-.209 1.092.112-.252.369-.393.262-.146.582-.146.5 0 .796.31.3.311.3.86 0 .33-.13.591-.127.262-.389.417-.257.156-.625.156-.5 0-.781-.223-.282-.224-.393-.617-.112-.392-.112-.97 0-1.78 1.242-1.78.475 0 .747.257t.32.65zm-.66.723q-.209 0-.393.087-.184.083-.3.257-.112.17-.112.417 0 .37.213.602.214.228.611.228.34 0 .539-.209.204-.213.204-.572 0-.378-.194-.592-.194-.218-.568-.218zM273.704 420.714q-.126 0-.214-.087-.087-.087-.087-.214 0-.126.087-.213.088-.087.214-.087.121 0 .203.087.088.087.088.213 0 .127-.088.214-.082.087-.203.087z" transform="matrix(.74373 -1.14237 .17085 1.08214 -254 -127)"/></g><g style="line-height:1.5;-inkscape-font-specification:Poppins;text-align:center"><path style="-inkscape-font-specification:Poppins;text-align:center" d="M165.461-232.16q.613-.492.96-.805.347-.319.583-.661.241-.347.241-.68 0-.313-.154-.492-.15-.183-.487-.183-.328 0-.511.207-.179.203-.193.545h-.424q.019-.54.328-.834.308-.294.795-.294.497 0 .786.275.294.275.294.757 0 .4-.24.78-.237.377-.54.666-.305.285-.777.666h1.659v.366h-2.32z" transform="matrix(-.49582 .60338 -1.49263 -.20043 -254 -127)" aria-label="2" font-size="4.822" fill="#141414" stroke="#141414" stroke-width=".151"/></g><g style="line-height:1.5;-inkscape-font-specification:Poppins;text-align:center"><path style="-inkscape-font-specification:Poppins;text-align:center" d="M-64.22-339.302v-.402h.912v3.504h-.446v-3.102z" transform="matrix(-.0013 1.30307 -.76675 -.66469 -254 -127)" aria-label="1" font-size="4.847" fill="#171717" stroke="#171717" stroke-width=".151"/></g><g style="line-height:1.5;-inkscape-font-specification:Poppins;text-align:center"><path style="-inkscape-font-specification:Poppins;text-align:center" d="M-99.444 178.424q.033-.43.332-.673.3-.243.776-.243.318 0 .547.117.233.112.35.308.122.197.122.444 0 .29-.169.5-.163.21-.43.271v.024q.304.075.482.294.177.22.177.575 0 .266-.121.481-.122.21-.365.332-.243.122-.584.122-.495 0-.813-.257-.318-.262-.355-.739h.411q.033.28.23.458.195.178.523.178.327 0 .495-.168.173-.173.173-.444 0-.35-.234-.505-.233-.154-.705-.154h-.108v-.355h.112q.43-.005.65-.14.22-.14.22-.43 0-.248-.164-.398-.159-.15-.458-.15-.29 0-.467.15-.178.15-.21.402z" transform="matrix(-.81367 -1.06095 1.06788 .16342 -254 -127)" aria-label="3" font-size="4.673" fill="#171717" stroke="#171717" stroke-width=".146"/></g><g style="line-height:1.5;-inkscape-font-specification:Poppins;text-align:center"><path style="-inkscape-font-specification:Poppins;text-align:center" d="M-310.194-284.794q-.268-.105-.412-.307-.144-.201-.144-.49 0-.258.13-.465.129-.21.383-.33.26-.125.624-.125.365 0 .619.124.259.12.388.331.135.207.135.466 0 .278-.149.49-.149.206-.408.306.298.092.47.322.178.225.178.547 0 .312-.154.547-.153.23-.436.36-.278.124-.643.124t-.643-.124q-.274-.13-.427-.36-.154-.235-.154-.547 0-.322.173-.552.173-.23.47-.317zm1.3-.743q0-.293-.191-.451-.192-.159-.528-.159-.331 0-.523.159-.192.158-.192.455 0 .27.197.432.201.163.518.163.321 0 .518-.163.202-.168.202-.436zm-.72.935q-.354 0-.58.168-.225.163-.225.494 0 .307.216.495.22.187.59.187t.585-.187q.216-.188.216-.495 0-.321-.22-.489-.221-.173-.581-.173z" transform="matrix(-1.244 .4538 .4321 -.96148 -254 -127)" aria-label="8" font-size="4.798" fill="#7f7f7f" stroke="#7f7f7f" stroke-width=".15"/></g></g></svg>