<svg xmlns="http://www.w3.org/2000/svg" viewBox="0 0 25.4 25.4" height="96" width="96"><g font-weight="400" font-family="Poppins" letter-spacing="0" word-spacing="0" text-anchor="middle" stroke-linecap="round" stroke-linejoin="round"><g style="line-height:1.5;-inkscape-font-specification:Poppins;text-align:center"><path d="M9.756 14.126v-.614l3.12-4.32h.97v4.231h.889v.703h-.89v1.43h-.8v-1.43zm3.325-4.09l-2.391 3.387h2.391z" style="-inkscape-font-specification:Poppins;text-align:center" aria-label="4" font-size="9.878" fill="#f2f2f2" stroke="#f2f2f2" stroke-width=".15839999999999999"/></g><g style="line-height:1.5;-inkscape-font-specification:Poppins;text-align:center"><path d="M-253.122-35.833l-1.572 3.686h-.52l1.594-3.635h-2.182v-.441h2.68z" style="-inkscape-font-specification:Poppins;text-align:center" transform="matrix(-1.57217 0 0 -.51521 -387.35 1.264)" aria-label="7" font-size="5.655" fill="#b6b6b6" stroke="#b6b6b6" stroke-width=".101"/></g><g style="line-height:1.5;-inkscape-font-specification:Poppins;text-align:center"><path d="M511.442-439.445h-2.013v1.308q.132-.184.39-.298.258-.12.556-.12.476 0 .774.2.298.195.424.51.132.31.132.66 0 .413-.154.74-.155.326-.476.515-.316.19-.786.19-.602 0-.975-.31t-.453-.826h.51q.075.327.316.51.24.184.608.184.453 0 .682-.27.23-.275.23-.722 0-.447-.23-.688-.23-.247-.677-.247-.303 0-.533.15-.224.143-.327.395h-.493v-2.34h2.495z" style="-inkscape-font-specification:Poppins;text-align:center" transform="matrix(0 .89912 -.90089 1.02997 -387.35 1.264)" aria-label="5" font-size="5.734" fill="#f4f4f4" stroke="#f4f4f4" stroke-width=".102"/></g><g style="line-height:1.5;-inkscape-font-specification:Poppins;text-align:center"><path d="M505.276 448.654v-.476h1.078v4.146h-.528v-3.67z" style="-inkscape-font-specification:Poppins;text-align:center" transform="matrix(0 -.89912 .90089 1.0278 -387.35 1.264)" aria-label="1" font-size="5.734" fill="#dbdbdb" stroke="#dbdbdb" stroke-width=".102"/></g></g></svg>