<svg xmlns="http://www.w3.org/2000/svg" viewBox="0 0 25.4 25.4" height="96" width="96"><g font-weight="400" font-family="Poppins" letter-spacing="0" word-spacing="0" text-anchor="middle" stroke-linecap="round" stroke-linejoin="round"><g style="line-height:1.5;-inkscape-font-specification:Poppins;text-align:center"><path style="-inkscape-font-specification:Poppins;text-align:center" d="M14.663 10.66l-2.214 5.192h-.733l2.246-5.121h-3.074v-.621h3.775z" aria-label="7" font-size="7.964" fill="#f2f2f2" stroke="#f2f2f2" stroke-width=".249"/></g><g style="line-height:1.5;-inkscape-font-specification:Poppins;text-align:center" aria-label="9." font-size="4.851" fill="#8c8c8c" stroke="#8c8c8c" stroke-width=".152"><path style="-inkscape-font-specification:Poppins;text-align:center" d="M347.843 531.193q.049.276.223.427.18.15.48.15.403 0 .592-.315.194-.315.185-1.063-.102.219-.34.345-.238.121-.529.121-.325 0-.582-.13-.252-.137-.398-.394-.145-.257-.145-.62 0-.52.3-.835.301-.32.854-.32.68 0 .951.441.277.442.277 1.315 0 .611-.112 1.009-.106.398-.368.606-.258.209-.709.209-.495 0-.771-.267-.277-.267-.315-.68zm.684-.708q.325 0 .534-.2.208-.203.208-.547 0-.364-.203-.587-.204-.224-.573-.224-.34 0-.543.214-.199.213-.199.563 0 .354.199.567.199.214.577.214zM350.545 532.163q-.126 0-.213-.087t-.087-.214q0-.126.087-.213t.213-.087q.122 0 .204.087.087.087.087.213 0 .127-.087.214-.082.087-.204.087z" transform="matrix(.74373 -1.14237 .17085 1.08214 -330.2 -159.808)"/></g><g style="line-height:1.5;-inkscape-font-specification:Poppins;text-align:center" aria-label="12" font-size="4.822" fill="#b6b6b6" stroke="#b6b6b6" stroke-width=".151"><path style="-inkscape-font-specification:Poppins;text-align:center" d="M198.325-297.139v-.4h.906v3.486h-.443v-3.086zM199.93-294.405q.613-.492.96-.805.347-.318.584-.66.24-.348.24-.68 0-.314-.154-.492-.15-.184-.487-.184-.328 0-.51.208-.18.202-.194.545h-.424q.02-.54.328-.835.308-.294.795-.294.497 0 .786.275.295.275.295.757 0 .4-.242.781-.236.376-.54.666-.303.284-.776.665h1.659v.367h-2.32z" transform="matrix(-.49582 .60338 -1.49263 -.20043 -330.2 -159.808)"/></g><g style="line-height:1.5;-inkscape-font-specification:Poppins;text-align:center"><path style="-inkscape-font-specification:Poppins;text-align:center" d="M-89.71-437.36q-.272-.106-.417-.31-.145-.203-.145-.494 0-.262.13-.47.131-.213.388-.334.262-.126.63-.126.369 0 .625.126.262.12.393.334.136.208.136.47 0 .281-.15.495-.15.208-.412.31.3.092.475.324.179.228.179.553 0 .315-.155.552-.155.233-.441.364-.281.126-.65.126-.368 0-.65-.126-.275-.13-.43-.364-.156-.237-.156-.552 0-.325.175-.557.174-.233.475-.32zm1.313-.75q0-.296-.194-.456-.193-.16-.533-.16-.334 0-.528.16t-.194.46q0 .272.199.437.203.164.523.164.325 0 .524-.164.203-.17.203-.442zm-.727.945q-.358 0-.586.17-.228.164-.228.498 0 .31.218.5.223.189.596.189t.592-.19q.218-.188.218-.499 0-.324-.223-.494-.223-.174-.587-.174z" transform="matrix(-.0013 1.30307 -.76675 -.66469 -330.2 -159.808)" aria-label="8" font-size="4.847" fill="#dbdbdb" stroke="#dbdbdb" stroke-width=".151"/></g><g style="line-height:1.5;-inkscape-font-specification:Poppins;text-align:center" aria-label="10" font-size="4.673" fill="#dbdbdb" stroke="#dbdbdb" stroke-width=".146"><path style="-inkscape-font-specification:Poppins;text-align:center" d="M-122.968 232.11v-.387h.878v3.379h-.43v-2.991zM-121.36 233.377q0-.804.261-1.252.262-.453.916-.453.65 0 .911.453.262.448.262 1.252 0 .818-.262 1.271-.261.454-.91.454-.655 0-.917-.454-.262-.453-.262-1.27zm1.93 0q0-.406-.057-.687-.05-.285-.22-.458-.163-.173-.476-.173-.318 0-.486.173-.163.173-.22.458-.05.28-.05.687 0 .42.05.706.057.285.22.458.168.173.486.173.313 0 .477-.173.168-.173.22-.458.056-.285.056-.706z" transform="matrix(-.81367 -1.06095 1.06788 .16342 -330.2 -159.808)"/></g><g style="line-height:1.5;-inkscape-font-specification:Poppins;text-align:center"><path style="-inkscape-font-specification:Poppins;text-align:center" d="M-398.187-358.733q.61-.49.955-.801.345-.317.58-.657.24-.346.24-.677 0-.312-.153-.49-.149-.182-.485-.182-.326 0-.508.207-.178.201-.192.542h-.423q.02-.537.327-.83.307-.293.791-.293.495 0 .782.274.293.273.293.753 0 .398-.24.777-.235.374-.537.662-.302.283-.773.663h1.65v.364h-2.307z" transform="matrix(-1.244 .4538 .4321 -.96148 -330.2 -159.808)" aria-label="2" font-size="4.798" fill="#f8f8f8" stroke="#f8f8f8" stroke-width=".15"/></g></g></svg>