<svg xmlns="http://www.w3.org/2000/svg" viewBox="0 0 25.4 25.4" height="96" width="96"><g font-weight="400" font-family="Poppins" letter-spacing="0" word-spacing="0" text-anchor="middle" stroke-linecap="round" stroke-linejoin="round"><g style="line-height:1.5;-inkscape-font-specification:Poppins;text-align:center"><path style="-inkscape-font-specification:Poppins;text-align:center" d="M10.932 11.543q.056-.732.565-1.147.51-.414 1.322-.414.542 0 .932.2.398.19.598.525.207.334.207.757 0 .493-.287.852-.279.358-.733.462v.04q.518.127.82.501.303.374.303.98 0 .454-.207.82-.207.358-.621.565-.414.207-.996.207-.844 0-1.385-.438-.542-.446-.606-1.258h.701q.056.478.39.78.335.303.892.303.558 0 .845-.287.294-.294.294-.756 0-.597-.398-.86t-1.202-.263h-.184v-.605h.192q.732-.008 1.106-.24.375-.238.375-.732 0-.422-.279-.677-.27-.255-.78-.255-.494 0-.797.255-.302.255-.358.685z" aria-label="3" font-size="7.964" fill="#f2f2f2" stroke="#f2f2f2" stroke-width=".249"/></g><g style="line-height:1.5;-inkscape-font-specification:Poppins;text-align:center"><path style="-inkscape-font-specification:Poppins;text-align:center" d="M238.477 414.245q-.271-.106-.417-.31-.145-.204-.145-.495 0-.262.13-.47.132-.214.389-.335.262-.126.63-.126.369 0 .626.126.262.121.393.334.136.21.136.471 0 .281-.15.495-.15.208-.413.31.3.093.476.325.18.228.18.553 0 .316-.156.553-.155.233-.442.364-.281.126-.65.126-.368 0-.65-.126-.276-.13-.432-.364-.155-.237-.155-.553 0-.325.175-.557.175-.233.475-.32zm1.315-.752q0-.296-.194-.456-.194-.16-.534-.16-.334 0-.528.16-.195.16-.195.461 0 .272.2.437.203.165.523.165.325 0 .524-.165.204-.17.204-.442zm-.728.946q-.359 0-.587.17-.228.165-.228.5 0 .31.219.5.223.189.596.189.374 0 .592-.19.218-.189.218-.5 0-.324-.223-.494-.223-.175-.587-.175z" transform="matrix(.74373 -1.14237 .17085 1.08214 -228.6 -159.808)" aria-label="8" font-size="4.851" fill="#8c8c8c" stroke="#8c8c8c" stroke-width=".152"/></g><g style="line-height:1.5;-inkscape-font-specification:Poppins;text-align:center" aria-label="12" font-size="4.822" fill="#b6b6b6" stroke="#b6b6b6" stroke-width=".151"><path style="-inkscape-font-specification:Poppins;text-align:center" d="M218.689-235.835v-.4h.906v3.486h-.443v-3.086zM220.294-233.101q.613-.492.96-.806.347-.318.583-.66.241-.347.241-.68 0-.314-.154-.492-.15-.183-.487-.183-.328 0-.511.207-.178.203-.193.545h-.424q.02-.54.328-.834.308-.294.795-.294.497 0 .786.275.294.274.294.757 0 .4-.24.78-.237.377-.54.666-.305.285-.777.666h1.659v.366h-2.32z" transform="matrix(-.49582 .60338 -1.49263 -.20043 -228.6 -159.808)"/></g><g style="line-height:1.5;-inkscape-font-specification:Poppins;text-align:center" aria-label="11" font-size="4.847" fill="#dbdbdb" stroke="#dbdbdb" stroke-width=".151"><path style="-inkscape-font-specification:Poppins;text-align:center" d="M-22.956-306.247v-.403h.912v3.504h-.446v-3.101zM-21.405-306.247v-.403h.912v3.504h-.446v-3.101z" transform="matrix(-.0013 1.30307 -.76675 -.66469 -228.6 -159.808)"/></g><g style="line-height:1.5;-inkscape-font-specification:Poppins;text-align:center"><path style="-inkscape-font-specification:Poppins;text-align:center" d="M-138.817 126.557v-.323l1.64-2.271h.51v2.224h.467v.37h-.467v.752h-.42v-.752zm1.748-2.15l-1.257 1.78h1.257z" transform="matrix(-.81367 -1.06095 1.06788 .16342 -228.6 -159.808)" aria-label="4" font-size="4.673" fill="#dbdbdb" stroke="#dbdbdb" stroke-width=".146"/></g><g style="line-height:1.5;-inkscape-font-specification:Poppins;text-align:center" aria-label="6." font-size="4.798" fill="#f8f8f8" stroke="#f8f8f8" stroke-width=".15"><path style="-inkscape-font-specification:Poppins;text-align:center" d="M-299.162-314.92q-.106-.533-.657-.533-.427 0-.638.33-.212.327-.207 1.08.11-.25.365-.388.259-.144.576-.144.494 0 .787.307.297.307.297.85 0 .325-.13.585-.124.259-.383.412-.255.154-.62.154-.494 0-.772-.221-.278-.22-.388-.61-.11-.388-.11-.959 0-1.76 1.227-1.76.47 0 .74.253.268.255.316.643zm-.653.714q-.206 0-.388.087-.182.081-.298.254-.11.168-.11.413 0 .364.211.595.211.225.605.225.336 0 .532-.206.202-.211.202-.566 0-.375-.192-.586-.192-.216-.562-.216zM-297.838-312.248q-.124 0-.21-.087-.087-.086-.087-.21 0-.125.086-.212.087-.086.211-.086.12 0 .202.086.086.087.086.211 0 .125-.086.211-.082.087-.202.087z" transform="matrix(-1.244 .4538 .4321 -.96148 -228.6 -159.808)"/></g></g></svg>