<svg xmlns="http://www.w3.org/2000/svg" viewBox="0 0 25.4 25.4" height="96" width="96"><g font-weight="400" font-family="Poppins" letter-spacing="0" word-spacing="0" text-anchor="middle" stroke-linecap="round" stroke-linejoin="round"><path d="M13.58 10.664q-.196-.987-1.218-.987-.791 0-1.183.614-.39.604-.382 2 .205-.462.676-.72.48-.267 1.067-.267.915 0 1.458.57.55.568.55 1.573 0 .604-.24 1.084-.23.48-.71.765-.472.284-1.147.284-.916 0-1.432-.409-.515-.409-.72-1.129-.204-.72-.204-1.778 0-3.262 2.276-3.262.87 0 1.369.47.498.472.587 1.192zm-1.21 1.325q-.382 0-.72.16-.337.15-.55.47-.205.312-.205.765 0 .676.391 1.103.391.418 1.12.418.623 0 .987-.383.373-.39.373-1.049 0-.693-.355-1.084-.356-.4-1.04-.4zM15.504 15.616q-.23 0-.391-.16-.16-.16-.16-.391 0-.232.16-.392t.391-.16q.222 0 .374.16.16.16.16.392 0 .23-.16.39-.152.16-.374.16z" style="line-height:1.5;-inkscape-font-specification:Poppins;text-align:center" font-size="9.878" fill="#1b1b1b" stroke="#1b1b1b" stroke-width=".158"/><g style="line-height:1.5;-inkscape-font-specification:Poppins;text-align:center"><path style="-inkscape-font-specification:Poppins;text-align:center" d="M-226.054-35.765v-.47h1.063v4.088h-.52v-3.618z" transform="matrix(-1.57217 0 0 -.51521 -341.63 1.27)" aria-label="1" font-size="5.655" fill="#141414" fill-opacity=".98" stroke="#141414" stroke-width=".101"/></g><g style="line-height:1.5;-inkscape-font-specification:Poppins;text-align:center"><path style="-inkscape-font-specification:Poppins;text-align:center" d="M450.763-388.104q.04-.528.407-.826.367-.298.952-.298.39 0 .67.143.287.138.43.379.15.24.15.545 0 .355-.207.613-.2.258-.527.333v.029q.372.091.59.36.218.27.218.706 0 .327-.149.59-.149.259-.447.408-.298.149-.717.149-.608 0-.998-.315-.39-.322-.436-.906h.505q.04.344.281.562.24.217.642.217t.608-.206q.212-.212.212-.545 0-.43-.286-.62-.287-.188-.866-.188h-.132v-.436h.137q.528-.006.798-.172.27-.172.27-.528 0-.304-.202-.487-.195-.184-.562-.184-.355 0-.573.184-.218.183-.258.493z" transform="matrix(0 .89912 -.90089 1.02997 -341.63 1.27)" aria-label="3" font-size="5.734" fill="#3d3d3d" stroke="#3c3c3c" stroke-width=".102" stroke-opacity=".992"/></g><g style="line-height:1.5;-inkscape-font-specification:Poppins;text-align:center"><path style="-inkscape-font-specification:Poppins;text-align:center" d="M449.304 397.835l-1.594 3.739h-.528l1.617-3.687h-2.213v-.448h2.718z" transform="matrix(0 -.89912 .90089 1.0278 -341.63 1.27)" aria-label="7" font-size="5.734" fill="#181818" stroke="#181818" stroke-width=".102"/></g></g></svg>