<svg xmlns="http://www.w3.org/2000/svg" viewBox="0 0 25.4 25.4" height="96" width="96"><g font-weight="400" font-family="Poppins" word-spacing="0" text-anchor="middle" stroke-width=".176" stroke-linecap="round" stroke-linejoin="round"><g style="line-height:1.5;-inkscape-font-specification:Poppins;text-align:center"><path style="-inkscape-font-specification:Poppins;text-align:center" d="M13.112 12.28q-.124-.627-.773-.627-.503 0-.751.39-.249.384-.243 1.27.13-.294.43-.457.304-.17.676-.17.582 0 .926.361.35.362.35 1 0 .383-.152.688-.147.305-.452.486-.299.18-.728.18-.581 0-.909-.26-.327-.26-.457-.716-.13-.457-.13-1.13 0-2.07 1.445-2.07.553 0 .87.298.316.3.372.757zm-.768.84q-.243 0-.457.102-.214.096-.35.3-.13.197-.13.485 0 .429.249.7.248.265.71.265.396 0 .627-.242.237-.249.237-.667 0-.44-.225-.688-.226-.254-.66-.254zm2.326 2.304q-.147 0-.249-.102-.101-.101-.101-.248t.101-.249q.102-.101.249-.101.14 0 .237.101.101.102.101.249 0 .147-.101.248-.096.102-.237.102z" aria-label="6." font-size="5.644" letter-spacing="0" fill="#1b1b1b" stroke="#1b1b1b"/></g><g style="line-height:1.5;-inkscape-font-specification:Poppins;text-align:center"><path style="-inkscape-font-specification:Poppins;text-align:center" d="M-421.103 125.38v-.395h.893v3.435h-.437v-3.04zm3.548.423q-.104-.528-.65-.528-.423 0-.632.328-.21.323-.205 1.069.11-.247.362-.385.256-.142.57-.142.489 0 .779.304.294.304.294.84 0 .323-.128.58-.124.257-.38.409-.252.152-.613.152-.49 0-.765-.219-.275-.218-.385-.603-.109-.385-.109-.95 0-1.744 1.216-1.744.466 0 .732.252.266.252.313.637zm-.646.707q-.204 0-.384.086-.181.08-.295.252-.11.166-.11.408 0 .361.21.59.209.223.598.223.333 0 .528-.205.2-.209.2-.56 0-.37-.19-.58-.19-.214-.557-.214z" transform="matrix(-.93452 -.17078 -.14027 -1.0957 -355.6 76.2)" aria-label="16" font-size="4.751" letter-spacing="0" fill="#181818" stroke="#181818"/></g><g style="line-height:1.5;-inkscape-font-specification:Poppins;text-align:center"><path style="-inkscape-font-specification:Poppins;text-align:center" d="M195.394-342.636q.048.273.22.422.178.149.476.149.398 0 .585-.312.192-.312.183-1.051-.101.216-.336.34-.235.12-.523.12-.322 0-.576-.129-.25-.134-.394-.389-.144-.254-.144-.614 0-.513.298-.825.297-.317.844-.317.672 0 .941.437.274.436.274 1.3 0 .605-.11.998-.106.394-.365.6-.255.207-.701.207-.49 0-.763-.264-.274-.264-.312-.672zm.677-.7q.321 0 .528-.198.206-.201.206-.542 0-.36-.202-.58-.201-.221-.566-.221-.336 0-.537.21-.197.212-.197.557 0 .35.197.562.196.211.57.211zm1.996 1.66q-.125 0-.211-.087-.086-.086-.086-.21 0-.126.086-.212t.211-.086q.12 0 .202.086.086.086.086.211t-.086.211q-.082.087-.202.087z" transform="matrix(.34839 .88398 -.85596 .69848 -355.6 76.2)" aria-label="9." font-size="4.799" letter-spacing="0" fill="#3d3d3d" stroke="#3d3d3d"/></g><g style="line-height:1.5;-inkscape-font-specification:Poppins;text-align:center"><path style="-inkscape-font-specification:Poppins;text-align:center" d="M-120.248 216.88v-.244h.553v2.126h-.27v-1.882zm1.356 1.312q.03.167.135.258.109.091.291.091.244 0 .359-.19.117-.192.112-.645-.062.133-.206.21-.144.073-.32.073-.198 0-.353-.08-.153-.082-.242-.238-.088-.156-.088-.376 0-.315.183-.506.182-.194.517-.194.412 0 .576.268.168.267.168.796 0 .37-.068.612-.064.241-.223.367-.156.127-.43.127-.3 0-.467-.162-.168-.162-.191-.411zm.414-.43q.197 0 .324-.12.126-.124.126-.332 0-.221-.123-.356-.124-.135-.347-.135-.206 0-.33.129-.12.13-.12.341 0 .215.12.344.121.13.35.13z" transform="matrix(-.00186 -.59492 1.67885 -.65577 -355.6 76.2)" aria-label="19" font-size="2.94" letter-spacing="0" fill="#7e7e7e" stroke="#7f7f7f"/></g><g style="line-height:1.5;-inkscape-font-specification:Poppins;text-align:center"><path style="-inkscape-font-specification:Poppins;text-align:center" d="M174.463 473.057v-.206l1.049-1.452h.325v1.422h.3v.236h-.3v.481h-.269v-.48zm1.117-1.375l-.803 1.14h.803z" transform="matrix(-.96273 -1.15093 1.12634 .30782 -355.6 76.2)" aria-label="4" font-size="2.989" letter-spacing="0" fill="#171717" stroke="#171717"/></g><g style="line-height:1.5;-inkscape-font-specification:Poppins;text-align:center"><path style="-inkscape-font-specification:Poppins;text-align:center" d="M90.78-307.613v-.385h.872v3.351h-.427v-2.966zm1.493 2.22v-.32l1.627-2.253h.505v2.207h.463v.366h-.463v.746h-.417v-.746zm1.733-2.132l-1.246 1.766h1.246z" transform="matrix(.61351 .73798 -1.0149 .40915 -355.6 76.2)" aria-label="14" font-size="4.635" letter-spacing="0" fill="#141414" stroke="#141414"/></g><g style="line-height:1.5;-inkscape-font-specification:Poppins;text-align:center"><path style="-inkscape-font-specification:Poppins;text-align:center" d="M-427.935-501.7q-.169-.067-.26-.194-.09-.127-.09-.308 0-.163.082-.293.081-.133.241-.208.163-.079.393-.079t.39.079q.162.075.244.208.084.13.084.293 0 .175-.093.308-.094.13-.257.193.187.058.296.203.112.142.112.344 0 .196-.097.344-.097.145-.275.226-.175.079-.404.079-.23 0-.405-.079-.172-.081-.269-.226-.096-.148-.096-.344 0-.202.108-.347.11-.145.296-.2zm.819-.469q0-.184-.121-.284-.12-.1-.332-.1-.209 0-.33.1-.12.1-.12.287 0 .17.124.272.126.103.326.103.202 0 .326-.103.127-.106.127-.275zm-.453.59q-.224 0-.366.105-.142.102-.142.31 0 .194.136.312.14.118.372.118.232 0 .368-.118.136-.118.136-.311 0-.203-.139-.308-.139-.109-.365-.109z" transform="matrix(-.54286 1.42046 -.289 -1.0859 -355.6 76.2)" aria-label="8" font-size="3.019" letter-spacing="0" fill="#141414" stroke="#141414"/></g><g style="line-height:1.5;-inkscape-font-specification:Poppins;text-align:center"><path style="-inkscape-font-specification:Poppins;text-align:center" d="M53.789-373.204q.382-.307.598-.503.217-.198.364-.412.15-.217.15-.424 0-.196-.095-.307-.094-.114-.304-.114-.205 0-.32.129-.11.126-.12.34h-.264q.012-.337.204-.52.193-.184.497-.184.31 0 .49.171.184.172.184.473 0 .25-.15.487-.148.235-.338.415-.19.178-.484.416h1.035v.228h-1.447zm1.763-.891q0-.517.168-.806.169-.292.59-.292.418 0 .587.292.168.289.168.806 0 .527-.168.819-.169.292-.587.292-.421 0-.59-.292-.168-.292-.168-.819zm1.243 0q0-.262-.036-.442-.034-.184-.142-.295-.105-.111-.307-.111-.204 0-.313.11-.105.112-.141.296-.033.18-.033.442 0 .271.033.455.036.183.141.294.109.112.313.112.202 0 .307-.112.108-.11.142-.294.036-.184.036-.455z" transform="matrix(-.93035 1.14205 -1.13608 .31973 -355.6 76.2)" aria-label="20" font-size="3.009" letter-spacing="0" fill="#0f0f0f" stroke="#0f0f0f"/></g><g style="line-height:1.5;-inkscape-font-specification:Poppins;text-align:center"><path style="-inkscape-font-specification:Poppins;text-align:center" d="M-253.597-601.574v-.243h.55v2.117h-.269v-1.874zm1.467 0v-.243h.55v2.117h-.27v-1.874z" transform="matrix(.00568 1.67045 -.60068 -.59857 -355.6 76.2)" aria-label="11" font-size="2.928" letter-spacing=".529" fill="#292929" stroke="#292929"/></g><g style="line-height:1.5;-inkscape-font-specification:Poppins;text-align:center"><path style="-inkscape-font-specification:Poppins;text-align:center" d="M-9.396 430.423q.02-.267.206-.419.186-.15.483-.15.198 0 .34.072.146.07.218.192.076.122.076.276 0 .18-.105.311-.101.131-.267.169v.014q.189.047.3.184.11.136.11.357 0 .166-.076.3-.075.13-.227.206-.15.076-.363.076-.308 0-.506-.16-.198-.163-.221-.46h.256q.02.175.142.286.122.11.326.11.204 0 .308-.105.108-.107.108-.276 0-.218-.146-.314-.145-.096-.439-.096h-.067v-.221h.07q.268-.003.404-.087.137-.088.137-.268 0-.154-.102-.247-.098-.093-.285-.093-.18 0-.29.093-.111.093-.131.25z" transform="matrix(-1.49875 -.86902 .83287 -.1843 -355.6 76.2)" aria-label="3" font-size="2.908" letter-spacing="0" fill="#434343" stroke="#434343"/></g></g></svg>