<svg xmlns="http://www.w3.org/2000/svg" viewBox="0 0 25.4 25.4" height="96" width="96"><g font-weight="400" font-family="Poppins" letter-spacing="0" word-spacing="0" text-anchor="middle" stroke-linecap="round" stroke-linejoin="round"><g style="line-height:1.5;-inkscape-font-specification:Poppins;text-align:center"><path style="-inkscape-font-specification:Poppins;text-align:center" d="M11.828 10.755v-.661h1.497v5.758h-.732v-5.097z" aria-label="1" font-size="7.964" fill="#f2f2f2" stroke="#f2f2f2" stroke-width=".249"/></g><g style="line-height:1.5;-inkscape-font-specification:Poppins;text-align:center"><path style="-inkscape-font-specification:Poppins;text-align:center" d="M182.947 357.683q.616-.495.965-.81.35-.32.587-.665.243-.35.243-.684 0-.315-.156-.495-.15-.184-.49-.184-.33 0-.514.209-.18.203-.194.548h-.427q.02-.544.33-.84.31-.295.8-.295.5 0 .791.276.296.277.296.762 0 .402-.242.786-.238.378-.544.67-.305.285-.78.669h1.668v.368h-2.333z" transform="matrix(.74373 -1.14237 .17085 1.08214 -177.8 -159.808)" aria-label="2" font-size="4.851" fill="#8c8c8c" stroke="#8c8c8c" stroke-width=".152"/></g><g style="line-height:1.5;-inkscape-font-specification:Poppins;text-align:center"><path style="-inkscape-font-specification:Poppins;text-align:center" d="M229.521-202.874v-.333l1.693-2.343h.526v2.295h.482v.381h-.482v.776h-.434v-.776zm1.804-2.218l-1.297 1.837h1.297z" transform="matrix(-.49582 .60338 -1.49263 -.20043 -177.8 -159.808)" aria-label="4" font-size="4.822" fill="#b6b6b6" stroke="#b6b6b6" stroke-width=".151"/></g><g style="line-height:1.5;-inkscape-font-specification:Poppins;text-align:center" aria-label="9." font-size="4.847" fill="#dbdbdb" stroke="#dbdbdb" stroke-width=".151"><path style="-inkscape-font-specification:Poppins;text-align:center" d="M11.01-237.89q.048.276.222.427.18.15.48.15.402 0 .591-.315.194-.315.185-1.062-.102.219-.34.345-.237.12-.528.12-.325 0-.582-.13-.252-.136-.397-.393-.145-.257-.145-.62 0-.519.3-.834.3-.32.853-.32.679 0 .95.441.276.441.276 1.314 0 .61-.111 1.008-.107.397-.368.606-.257.208-.708.208-.494 0-.77-.266-.277-.267-.316-.679zm.683-.707q.325 0 .533-.2.208-.203.208-.547 0-.363-.203-.586-.204-.223-.572-.223-.34 0-.543.213-.199.213-.199.562 0 .354.199.567.199.214.577.214zM13.709-236.92q-.126 0-.213-.088-.088-.087-.088-.213t.088-.213q.087-.087.213-.087.121 0 .204.087.087.087.087.213t-.087.213q-.083.087-.204.087z" transform="matrix(-.0013 1.30307 -.76675 -.66469 -177.8 -159.808)"/></g><g style="line-height:1.5;-inkscape-font-specification:Poppins;text-align:center" aria-label="10" font-size="4.673" fill="#dbdbdb" stroke="#dbdbdb" stroke-width=".146"><path style="-inkscape-font-specification:Poppins;text-align:center" d="M-147.873 70.422v-.388h.878v3.379h-.43v-2.991zM-146.266 71.688q0-.804.262-1.252.262-.453.916-.453.65 0 .911.453.262.448.262 1.252 0 .818-.262 1.271-.261.454-.91.454-.655 0-.917-.454-.262-.453-.262-1.27zm1.93 0q0-.406-.056-.687-.05-.285-.22-.458-.163-.173-.476-.173-.318 0-.486.173-.163.173-.22.458-.05.28-.05.687 0 .42.05.706.057.285.22.458.168.173.486.173.313 0 .477-.173.168-.173.22-.458.056-.285.056-.706z" transform="matrix(-.81367 -1.06095 1.06788 .16342 -177.8 -159.808)"/></g><g style="line-height:1.5;-inkscape-font-specification:Poppins;text-align:center"><path style="-inkscape-font-specification:Poppins;text-align:center" d="M-249.52-292.314h-1.684v1.094q.11-.154.326-.25.216-.1.466-.1.398 0 .648.168.249.163.355.427.11.259.11.551 0 .346-.13.62-.13.273-.398.431-.264.158-.657.158-.504 0-.816-.259-.312-.259-.379-.69h.427q.063.273.264.426.202.154.509.154.379 0 .57-.225.193-.23.193-.605 0-.374-.192-.576-.192-.206-.567-.206-.254 0-.446.125-.187.12-.273.33h-.413v-1.957h2.087z" transform="matrix(-1.244 .4538 .4321 -.96148 -177.8 -159.808)" aria-label="5" font-size="4.798" fill="#f8f8f8" stroke="#f8f8f8" stroke-width=".15"/></g></g></svg>