<svg xmlns="http://www.w3.org/2000/svg" viewBox="0 0 25.4 25.4" height="96" width="96"><g font-weight="400" font-family="Poppins" letter-spacing="0" word-spacing="0" text-anchor="middle" stroke-linecap="round" stroke-linejoin="round"><g style="line-height:1.5;-inkscape-font-specification:Poppins;text-align:center"><path style="-inkscape-font-specification:Poppins;text-align:center" d="M10.57 14.913q1.13-.906 1.77-1.484.64-.587 1.075-1.218.444-.64.444-1.254 0-.577-.284-.906-.276-.338-.898-.338-.604 0-.942.382-.33.373-.356 1.005h-.782q.035-.996.604-1.538.57-.543 1.467-.543.916 0 1.45.507.542.507.542 1.396 0 .738-.445 1.44-.436.693-.996 1.227-.56.524-1.43 1.227h3.057v.675H10.57z" aria-label="2" font-size="9.878" fill="#1b1b1b" stroke="#1b1b1b" stroke-width=".15839999999999999"/></g><g style="line-height:1.5;-inkscape-font-specification:Poppins;text-align:center"><path style="-inkscape-font-specification:Poppins;text-align:center" d="M-282.344-35.788h-1.985v1.29q.13-.182.385-.295.254-.119.548-.119.47 0 .764.198.294.193.418.504.13.305.13.65 0 .407-.153.73-.152.322-.469.508-.31.187-.775.187-.593 0-.96-.306-.368-.305-.448-.814h.504q.073.322.31.503.238.181.6.181.447 0 .673-.265.226-.272.226-.713 0-.44-.226-.678-.226-.244-.667-.244-.3 0-.526.147-.22.142-.322.39h-.487v-2.306h2.46z" transform="matrix(-1.57217 0 0 -.51521 -433.07 1.27)" aria-label="5" font-size="5.655" fill="#141414" fill-opacity=".98" stroke="#141414" stroke-width=".101"/></g><g style="line-height:1.5;-inkscape-font-specification:Poppins;text-align:center"><path style="-inkscape-font-specification:Poppins;text-align:center" d="M569.72-490.24l-1.593 3.738h-.528l1.617-3.687h-2.213v-.447h2.718z" transform="matrix(0 .89912 -.90089 1.02997 -433.07 1.27)" aria-label="7" font-size="5.734" fill="#3d3d3d" stroke="#3c3c3c" stroke-width=".102" stroke-opacity=".992"/></g><g style="line-height:1.5;-inkscape-font-specification:Poppins;text-align:center"><path style="-inkscape-font-specification:Poppins;text-align:center" d="M562.644 499.972q.04-.528.407-.826.367-.298.952-.298.39 0 .67.143.288.138.43.379.15.24.15.544 0 .356-.206.614-.201.258-.528.333v.028q.373.092.59.362.219.27.219.705 0 .327-.15.59-.149.259-.447.408-.298.149-.717.149-.607 0-.997-.316-.39-.32-.436-.906h.504q.04.344.281.562.241.218.643.218.401 0 .608-.206.212-.212.212-.545 0-.43-.287-.62-.287-.189-.866-.189h-.132v-.435h.138q.527-.006.797-.172.27-.172.27-.528 0-.304-.201-.487-.195-.184-.562-.184-.356 0-.574.184-.218.183-.258.493z" transform="matrix(0 -.89912 .90089 1.0278 -433.07 1.27)" aria-label="3" font-size="5.734" fill="#181818" stroke="#181818" stroke-width=".102"/></g></g></svg>