<svg xmlns="http://www.w3.org/2000/svg" viewBox="0 0 25.4 25.4" height="96" width="96"><g font-weight="400" font-family="Poppins" letter-spacing="0" word-spacing="0" text-anchor="middle" stroke-linecap="round" stroke-linejoin="round"><g style="line-height:1.5;-inkscape-font-specification:Poppins;text-align:center"><path style="-inkscape-font-specification:Poppins;text-align:center" d="M14.464 10.723h-2.795v1.816q.183-.255.541-.414.359-.168.773-.168.66 0 1.075.279.414.27.59.709.182.43.182.916 0 .573-.215 1.027-.215.454-.66.717-.439.263-1.092.263-.836 0-1.354-.43-.517-.43-.629-1.147h.71q.103.454.437.708.335.255.844.255.63 0 .948-.374.318-.382.318-1.003 0-.622-.318-.956-.319-.343-.94-.343-.422 0-.74.208-.311.199-.454.549H11v-3.25h3.464z" aria-label="5" font-size="7.964" fill="#1b1b1b" stroke="#1b1b1b" stroke-width=".249"/></g><g style="line-height:1.5;-inkscape-font-specification:Poppins;text-align:center" aria-label="10" font-size="4.851" fill="#101010" stroke="#0f0f0f" stroke-width=".152"><path style="-inkscape-font-specification:Poppins;text-align:center" d="M297.53 446.596v-.402h.912v3.507h-.446v-3.105zM299.199 447.911q0-.834.271-1.3.272-.47.951-.47.675 0 .946.47.272.466.272 1.3 0 .85-.272 1.32-.271.47-.946.47-.679 0-.95-.47-.272-.47-.272-1.32zm2.003 0q0-.422-.058-.713-.053-.296-.228-.475-.17-.18-.495-.18-.33 0-.504.18-.17.18-.228.475-.054.291-.054.713 0 .437.054.733.058.296.228.475.174.18.504.18.325 0 .495-.18.175-.18.228-.475.058-.296.058-.733z" transform="matrix(.74373 -1.14237 .17085 1.08214 -279.4 -127)"/></g><g style="line-height:1.5;-inkscape-font-specification:Poppins;text-align:center"><path style="-inkscape-font-specification:Poppins;text-align:center" d="M160.922-250.22v-.4h.907v3.486h-.444v-3.086z" transform="matrix(-.49582 .60338 -1.49263 -.20043 -279.4 -127)" aria-label="1" font-size="4.822" fill="#141414" stroke="#141414" stroke-width=".151"/></g><g style="line-height:1.5;-inkscape-font-specification:Poppins;text-align:center" aria-label="6." font-size="4.847" fill="#171717" stroke="#171717" stroke-width=".151"><path style="-inkscape-font-specification:Poppins;text-align:center" d="M-80.305-371.969q-.107-.538-.664-.538-.431 0-.645.335-.213.33-.208 1.09.111-.252.368-.392.262-.146.582-.146.5 0 .795.31.3.31.3.858 0 .33-.13.592-.127.261-.388.416-.257.156-.626.156-.499 0-.78-.223t-.392-.616q-.112-.393-.112-.97 0-1.778 1.24-1.778.476 0 .747.257.272.257.32.65zm-.66.722q-.208 0-.392.088-.184.082-.3.257-.112.17-.112.416 0 .369.214.601.213.228.61.228.34 0 .538-.208.204-.214.204-.572 0-.378-.194-.591-.194-.219-.567-.219zM-78.967-369.27q-.126 0-.214-.086-.087-.088-.087-.214t.087-.213q.088-.087.214-.087.12 0 .203.087.087.087.087.213t-.087.214q-.082.087-.203.087z" transform="matrix(-.0013 1.30307 -.76675 -.66469 -279.4 -127)"/></g><g style="line-height:1.5;-inkscape-font-specification:Poppins;text-align:center" aria-label="9." font-size="4.673" fill="#171717" stroke="#171717" stroke-width=".146"><path style="-inkscape-font-specification:Poppins;text-align:center" d="M-95.323 206.994q.047.266.215.411.173.145.462.145.388 0 .57-.304.187-.304.178-1.023-.098.21-.327.332-.229.116-.51.116-.312 0-.56-.126-.243-.13-.383-.378t-.14-.598q0-.5.29-.804.289-.309.822-.309.654 0 .916.426.266.425.266 1.266 0 .589-.107.972-.103.383-.356.584-.247.201-.682.201-.477 0-.743-.257t-.304-.654zm.659-.682q.313 0 .514-.192.2-.196.2-.528 0-.35-.196-.566-.196-.215-.551-.215-.327 0-.523.206-.192.206-.192.542 0 .341.192.547.191.206.556.206zM-92.72 207.929q-.122 0-.206-.085-.084-.084-.084-.205 0-.122.084-.206.084-.084.206-.084.117 0 .196.084.084.084.084.206 0 .121-.084.205-.08.085-.196.085z" transform="matrix(-.81367 -1.06095 1.06788 .16342 -279.4 -127)"/></g><g style="line-height:1.5;-inkscape-font-specification:Poppins;text-align:center" aria-label="11" font-size="4.798" fill="#7f7f7f" stroke="#7f7f7f" stroke-width=".15"><path style="-inkscape-font-specification:Poppins;text-align:center" d="M-335.385-297.587v-.398h.902v3.469h-.442v-3.07zM-333.85-297.587v-.398h.902v3.469h-.441v-3.07z" transform="matrix(-1.244 .4538 .4321 -.96148 -279.4 -127)"/></g></g></svg>