<svg xmlns="http://www.w3.org/2000/svg" viewBox="0 0 25.4 25.4" height="96" width="96"><g font-weight="400" font-family="Poppins" letter-spacing="0" word-spacing="0" text-anchor="middle" stroke-linecap="round" stroke-linejoin="round"><g style="line-height:1.5;-inkscape-font-specification:Poppins;text-align:center" aria-label="10" font-size="7.964" fill="#f2f2f2" stroke="#f2f2f2" stroke-width=".249"><path style="-inkscape-font-specification:Poppins;text-align:center" d="M9.327 10.755v-.661h1.498v5.758h-.733v-5.097zM12.067 12.913q0-1.37.446-2.134.446-.773 1.56-.773 1.108 0 1.554.773.446.764.446 2.134 0 1.394-.446 2.166-.446.773-1.553.773-1.115 0-1.561-.773-.446-.772-.446-2.166zm3.289 0q0-.693-.096-1.17-.087-.486-.374-.781-.279-.295-.812-.295-.542 0-.829.295-.278.295-.374.78-.087.478-.087 1.171 0 .717.087 1.202.096.486.374.78.287.296.829.296.533 0 .812-.295.287-.295.374-.78.096-.486.096-1.203z"/></g><g style="line-height:1.5;-inkscape-font-specification:Poppins;text-align:center"><path style="-inkscape-font-specification:Poppins;text-align:center" d="M430.324 618.828q.616-.494.966-.81.349-.32.587-.664.242-.35.242-.684 0-.316-.155-.495-.15-.185-.49-.185-.33 0-.514.209-.18.204-.194.548h-.427q.02-.543.33-.84.31-.295.8-.295.5 0 .79.276.297.277.297.762 0 .403-.243.786-.237.378-.543.67-.306.286-.781.669h1.669v.369h-2.334z" transform="matrix(.74373 -1.14237 .17085 1.08214 -406.4 -159.808)" aria-label="2" font-size="4.851" fill="#8c8c8c" stroke="#8c8c8c" stroke-width=".152"/></g><g style="line-height:1.5;-inkscape-font-specification:Poppins;text-align:center"><path style="-inkscape-font-specification:Poppins;text-align:center" d="M184.438-343.116v-.4h.907v3.486h-.444v-3.086z" transform="matrix(-.49582 .60338 -1.49263 -.20043 -406.4 -159.808)" aria-label="1" font-size="4.822" fill="#b6b6b6" stroke="#b6b6b6" stroke-width=".151"/></g><g style="line-height:1.5;-inkscape-font-specification:Poppins;text-align:center"><path style="-inkscape-font-specification:Poppins;text-align:center" d="M-138.758-537.951h-1.701v1.105q.111-.156.33-.252.218-.102.47-.102.402 0 .654.17.252.164.359.43.111.262.111.558 0 .35-.13.625-.132.277-.403.437-.267.16-.664.16-.509 0-.824-.262-.315-.262-.383-.698h.432q.063.276.266.431.204.155.514.155.383 0 .577-.227.193-.233.193-.611t-.193-.582q-.194-.208-.572-.208-.257 0-.451.126-.19.121-.276.334h-.417v-1.977h2.108z" transform="matrix(-.0013 1.30307 -.76675 -.66469 -406.4 -159.808)" aria-label="5" font-size="4.847" fill="#dbdbdb" stroke="#dbdbdb" stroke-width=".151"/></g><g style="line-height:1.5;-inkscape-font-specification:Poppins;text-align:center"><path style="-inkscape-font-specification:Poppins;text-align:center" d="M-107.385 312.9l-1.299 3.046h-.43l1.318-3.005h-1.804v-.364h2.215z" transform="matrix(-.81367 -1.06095 1.06788 .16342 -406.4 -159.808)" aria-label="7" font-size="4.673" fill="#dbdbdb" stroke="#dbdbdb" stroke-width=".146"/></g><g style="line-height:1.5;-inkscape-font-specification:Poppins;text-align:center" aria-label="9." font-size="4.798" fill="#f8f8f8" stroke="#f8f8f8" stroke-width=".15"><path style="-inkscape-font-specification:Poppins;text-align:center" d="M-471.473-393.892q.048.273.22.422.178.149.475.149.399 0 .586-.312.192-.312.182-1.051-.1.216-.336.34-.235.12-.523.12-.321 0-.576-.13-.249-.133-.393-.388-.144-.254-.144-.614 0-.513.298-.825.297-.317.844-.317.672 0 .94.437.274.436.274 1.3 0 .605-.11.998-.106.394-.365.6-.254.206-.7.206-.49 0-.763-.264-.274-.264-.312-.671zm.676-.701q.322 0 .528-.197.206-.201.206-.542 0-.36-.201-.58-.202-.221-.566-.221-.336 0-.538.211-.196.211-.196.557 0 .35.196.56.197.212.571.212zM-468.8-392.933q-.126 0-.212-.086-.086-.087-.086-.211 0-.125.086-.211.086-.087.211-.087.12 0 .202.087.086.086.086.21 0 .125-.086.212-.082.086-.202.086z" transform="matrix(-1.244 .4538 .4321 -.96148 -406.4 -159.808)"/></g></g></svg>