<svg xmlns="http://www.w3.org/2000/svg" viewBox="0 0 25.4 25.4" height="96" width="96"><g font-weight="400" font-family="Poppins" word-spacing="0" text-anchor="middle" stroke-width=".176" stroke-linecap="round" stroke-linejoin="round"><g style="line-height:1.5;-inkscape-font-specification:Poppins;text-align:center"><path style="-inkscape-font-specification:Poppins;text-align:center" d="M12.183 11.777v-.468h1.062v4.08h-.52v-3.612z" aria-label="1" font-size="5.644" letter-spacing="0" fill="#f2f2f2" stroke="#f2f2f2"/></g><g style="line-height:1.5;-inkscape-font-specification:Poppins;text-align:center"><path style="-inkscape-font-specification:Poppins;text-align:center" d="M-558.316 134.21v-.395h.893v3.435h-.437v-3.04zm2.19 2.118q.048.27.219.418.176.147.47.147.394 0 .58-.308.19-.31.18-1.04-.1.213-.332.336-.233.12-.518.12-.318 0-.57-.129-.247-.133-.39-.385-.142-.252-.142-.608 0-.508.294-.817.295-.314.836-.314.665 0 .932.433.27.432.27 1.287 0 .599-.109.988-.104.39-.361.594-.252.204-.694.204-.484 0-.755-.26-.27-.262-.309-.666zm.67-.694q.318 0 .523-.194.204-.2.204-.537 0-.356-.2-.575-.199-.218-.56-.218-.333 0-.532.209-.195.209-.195.55 0 .347.195.556.195.21.565.21z" transform="matrix(-.93452 -.17078 -.14027 -1.0957 -482.6 62.44)" aria-label="19" font-size="4.751" letter-spacing="0" fill="#dbdbdb" stroke="#dbdbdb"/></g><g style="line-height:1.5;-inkscape-font-specification:Poppins;text-align:center"><path style="-inkscape-font-specification:Poppins;text-align:center" d="M298.159-452.306l-1.334 3.129h-.442l1.354-3.086h-1.853v-.375h2.275z" transform="matrix(.34839 .88398 -.85596 .69848 -482.6 62.44)" aria-label="7" font-size="4.799" letter-spacing="0" fill="#f4f4f4" stroke="#f4f4f4"/></g><g style="line-height:1.5;-inkscape-font-specification:Poppins;text-align:center"><path style="-inkscape-font-specification:Poppins;text-align:center" d="M-226.508 292.41v-.244h.553v2.125h-.27v-1.881zm2.32-.036l-.817 1.917h-.27l.828-1.89h-1.135v-.23h1.394z" transform="matrix(-.00186 -.59492 1.67885 -.65577 -482.6 62.44)" aria-label="17" font-size="2.94" letter-spacing="0" fill="#f8f8f8" stroke="#f8f8f8"/></g><g style="line-height:1.5;-inkscape-font-specification:Poppins;text-align:center"><path style="-inkscape-font-specification:Poppins;text-align:center" d="M199.502 604.535h-1.05v.681q.07-.095.204-.155.134-.063.29-.063.248 0 .403.105.156.101.221.266.07.161.07.344 0 .215-.082.385-.08.17-.248.269-.164.099-.41.099-.313 0-.507-.162-.194-.161-.236-.43h.266q.039.17.164.266.126.095.317.095.236 0 .356-.14.12-.143.12-.377 0-.233-.12-.358-.12-.129-.353-.129-.159 0-.278.078-.117.075-.17.206h-.257v-1.219h1.3z" transform="matrix(-.96273 -1.15093 1.12634 .30782 -482.6 62.44)" aria-label="5" font-size="2.989" letter-spacing="0" fill="#d3d3d3" stroke="#d3d3d3"/></g><g style="line-height:1.5;-inkscape-font-specification:Poppins;text-align:center"><path style="-inkscape-font-specification:Poppins;text-align:center" d="M156.8-392.895v-.384h.872v3.35h-.426v-2.966zm1.586.459q.032-.426.33-.667.296-.241.769-.241.315 0 .542.116.232.11.347.305.121.195.121.44 0 .288-.167.497-.162.208-.426.269v.023q.301.074.477.292.176.218.176.57 0 .264-.12.477-.12.209-.362.33-.24.12-.58.12-.49 0-.806-.255-.315-.26-.352-.732h.408q.032.278.227.454t.52.176q.324 0 .49-.167.172-.171.172-.44 0-.348-.232-.5-.232-.154-.7-.154h-.106v-.352h.111q.426-.005.644-.14.218-.138.218-.425 0-.246-.162-.394-.158-.149-.454-.149-.288 0-.464.149-.176.148-.208.398z" transform="matrix(.61351 .73798 -1.0149 .40915 -482.6 62.44)" aria-label="13" font-size="4.635" letter-spacing="0" fill="#b6b6b6" stroke="#b6b6b6"/></g><g style="line-height:1.5;-inkscape-font-specification:Poppins;text-align:center"><path style="-inkscape-font-specification:Poppins;text-align:center" d="M-562.228-689.02q.03.172.139.266.112.094.299.094.25 0 .368-.197.121-.196.115-.661-.063.136-.211.214-.148.076-.33.076-.202 0-.362-.082-.157-.084-.247-.244-.091-.16-.091-.387 0-.323.187-.519.187-.2.532-.2.422 0 .591.276.172.274.172.818 0 .38-.069.628-.066.247-.23.377-.16.13-.44.13-.308 0-.48-.166t-.197-.423zm.426-.44q.202 0 .332-.124.13-.127.13-.342 0-.226-.127-.365-.127-.139-.356-.139-.212 0-.339.133-.123.133-.123.35 0 .22.123.354.124.132.36.132zm1.256 1.044q-.079 0-.133-.054-.054-.054-.054-.133 0-.079.054-.133.054-.054.133-.054.075 0 .127.054.054.054.054.133 0 .078-.054.133-.052.054-.127.054z" transform="matrix(-.54286 1.42046 -.289 -1.0859 -482.6 62.44)" aria-label="9." font-size="3.019" letter-spacing="0" fill="#bdbdbd" stroke="#bdbdbd"/></g><g style="line-height:1.5;-inkscape-font-specification:Poppins;text-align:center"><path style="-inkscape-font-specification:Poppins;text-align:center" d="M110.57-532.753v-.25h.566v2.176h-.277v-1.926zm1.493 0v-.25h.565v2.176h-.277v-1.926z" transform="matrix(-.93035 1.14205 -1.13608 .31973 -482.6 62.44)" aria-label="11" font-size="3.009" letter-spacing=".529" fill="#8c8c8c" stroke="#8c8c8c"/></g><g style="line-height:1.5;-inkscape-font-specification:Poppins;text-align:center"><path style="-inkscape-font-specification:Poppins;text-align:center" d="M-321.536-813.643v-.243h.55v2.117h-.27v-1.874zm2.356-.012h-1.027v.668q.067-.094.2-.152.13-.062.283-.062.243 0 .395.103.153.1.217.26.067.158.067.337 0 .21-.079.378-.079.167-.243.263-.16.097-.4.097-.308 0-.499-.158-.19-.158-.23-.422h.26q.038.167.16.26.124.094.311.094.231 0 .349-.137.117-.14.117-.37 0-.228-.117-.35-.118-.126-.346-.126-.155 0-.272.076-.114.073-.167.202h-.252v-1.195h1.274z" transform="matrix(.00568 1.67045 -.60068 -.59857 -482.6 62.44)" aria-label="15" font-size="2.928" letter-spacing="0" fill="#f3f3f3" stroke="#f3f3f3"/></g><g style="line-height:1.5;-inkscape-font-specification:Poppins;text-align:center"><path style="-inkscape-font-specification:Poppins;text-align:center" d="M-44.262 520.166q.02-.268.206-.42.186-.15.483-.15.198 0 .34.072.146.07.218.192.076.122.076.276 0 .18-.105.312-.102.13-.267.168v.015q.189.046.3.183.11.137.11.358 0 .166-.076.3-.076.13-.227.206-.151.075-.363.075-.309 0-.506-.16-.198-.162-.221-.46h.256q.02.175.142.286.122.11.326.11.203 0 .308-.104.108-.108.108-.277 0-.218-.146-.314-.145-.096-.439-.096h-.067v-.22h.07q.268-.004.404-.088.137-.087.137-.267 0-.155-.102-.248-.099-.093-.285-.093-.18 0-.29.093-.111.093-.132.25z" transform="matrix(-1.49875 -.86902 .83287 -.1843 -482.6 62.44)" aria-label="3" font-size="2.908" letter-spacing="0" fill="#f4f4f4" stroke="#f4f4f4"/></g></g></svg>