<svg xmlns="http://www.w3.org/2000/svg" viewBox="0 0 25.4 25.4" height="96" width="96"><g font-weight="400" font-family="Poppins" word-spacing="0" text-anchor="middle" stroke-width=".176" stroke-linecap="round" stroke-linejoin="round"><g style="line-height:1.5;-inkscape-font-specification:Poppins;text-align:center" aria-label="13" font-size="5.644" letter-spacing="0" fill="#f2f2f2" stroke="#f2f2f2"><path style="-inkscape-font-specification:Poppins;text-align:center" d="M10.521 11.777v-.468h1.061v4.08h-.52v-3.612zM12.451 12.336q.04-.519.401-.813.361-.293.937-.293.384 0 .66.141.283.136.424.373.147.237.147.536 0 .35-.204.604-.197.254-.519.327v.028q.367.09.582.356.214.265.214.694 0 .322-.147.582-.147.254-.44.4-.294.147-.706.147-.598 0-.982-.31-.384-.316-.429-.892h.497q.04.339.277.553.237.215.632.215t.598-.204q.209-.209.209-.536 0-.423-.282-.61-.283-.186-.853-.186h-.13v-.429h.136q.52-.005.785-.17.265-.168.265-.518 0-.3-.198-.48-.192-.18-.553-.18-.35 0-.564.18-.215.18-.254.485z"/></g><g style="line-height:1.5;-inkscape-font-specification:Poppins;text-align:center"><path style="-inkscape-font-specification:Poppins;text-align:center" d="M-221.276 82.138h-1.668v1.083q.11-.152.323-.247.214-.1.461-.1.394 0 .641.167.247.161.352.423.11.256.11.546 0 .342-.13.613-.127.27-.393.427-.262.157-.651.157-.499 0-.808-.256-.309-.257-.375-.684h.423q.061.27.261.422.2.152.504.152.375 0 .565-.223.19-.228.19-.599 0-.37-.19-.57-.19-.204-.56-.204-.253 0-.443.124-.185.118-.27.327h-.409v-1.938h2.067z" transform="matrix(-.93452 -.17078 -.14027 -1.0957 -177.8 62.442)" aria-label="5" font-size="4.751" letter-spacing="0" fill="#dbdbdb" stroke="#dbdbdb"/></g><g style="line-height:1.5;-inkscape-font-specification:Poppins;text-align:center" aria-label="11" font-size="4.799" letter-spacing=".529" fill="#f4f4f4" stroke="#f4f4f4"><path style="-inkscape-font-specification:Poppins;text-align:center" d="M82.52-182.81v-.4h.902v3.47h-.441v-3.07zM84.585-182.81v-.4h.902v3.47h-.441v-3.07z" transform="matrix(.34839 .88398 -.85596 .69848 -177.8 62.442)"/></g><g style="line-height:1.5;-inkscape-font-specification:Poppins;text-align:center"><path style="-inkscape-font-specification:Poppins;text-align:center" d="M-26.274 112.486v-.203l1.032-1.429h.32v1.4h.295v.232h-.294v.474h-.265v-.474zm1.1-1.352l-.791 1.12h.79z" transform="matrix(-.00186 -.59492 1.67885 -.65577 -177.8 62.442)" aria-label="4" font-size="2.94" letter-spacing="0" fill="#f8f8f8" stroke="#f8f8f8"/></g><g style="line-height:1.5;-inkscape-font-specification:Poppins;text-align:center" aria-label="19" font-size="2.989" letter-spacing="0" fill="#d3d3d3" stroke="#d3d3d3"><path style="-inkscape-font-specification:Poppins;text-align:center" d="M103.75 253.743v-.248h.562v2.16h-.275v-1.912zM105.128 255.076q.03.17.137.263.11.093.296.093.248 0 .365-.195.12-.194.113-.654-.063.134-.21.212-.146.075-.325.075-.2 0-.358-.08-.156-.085-.246-.243-.09-.158-.09-.382 0-.32.186-.514.185-.198.526-.198.418 0 .586.272.17.272.17.81 0 .377-.069.622-.065.245-.227.373-.158.129-.436.129-.305 0-.475-.165-.17-.164-.194-.418zm.421-.436q.2 0 .329-.123.128-.125.128-.337 0-.225-.125-.362-.126-.138-.353-.138-.21 0-.335.132-.122.131-.122.347 0 .218.122.35.123.13.356.13z" transform="matrix(-.96273 -1.15093 1.12634 .30782 -177.8 62.442)"/></g><g style="line-height:1.5;-inkscape-font-specification:Poppins;text-align:center"><path style="-inkscape-font-specification:Poppins;text-align:center" d="M33.455-167.959v-.385h.871v3.351H33.9v-2.966z" transform="matrix(.61351 .73798 -1.0149 .40915 -177.8 62.442)" aria-label="1" font-size="4.635" letter-spacing="0" fill="#b6b6b6" stroke="#b6b6b6"/></g><g style="line-height:1.5;-inkscape-font-specification:Poppins;text-align:center" aria-label="15" font-size="3.019" letter-spacing="0" fill="#bdbdbd" stroke="#bdbdbd"><path style="-inkscape-font-specification:Poppins;text-align:center" d="M-231.835-257.409v-.25h.568v2.183h-.278v-1.933zM-229.404-257.42h-1.06v.688q.07-.097.205-.157.136-.064.293-.064.25 0 .408.106.157.103.223.269.07.163.07.347 0 .217-.082.39-.082.171-.25.271-.167.1-.414.1-.317 0-.514-.163-.196-.163-.238-.435h.269q.039.172.166.269.126.096.32.096.238 0 .359-.142.12-.145.12-.38 0-.236-.12-.362-.12-.13-.356-.13-.16 0-.281.078-.118.076-.172.208h-.26v-1.231h1.314z" transform="matrix(-.54286 1.42046 -.289 -1.0859 -177.8 62.442)"/></g><g style="line-height:1.5;-inkscape-font-specification:Poppins;text-align:center"><path style="-inkscape-font-specification:Poppins;text-align:center" d="M14.932-184.69l-.836 1.962h-.277l.848-1.935h-1.161v-.235h1.426z" transform="matrix(-.93035 1.14205 -1.13608 .31973 -177.8 62.442)" aria-label="7" font-size="3.009" letter-spacing="0" fill="#8c8c8c" stroke="#8c8c8c"/></g><g style="line-height:1.5;-inkscape-font-specification:Poppins;text-align:center" aria-label="9." font-size="2.928" letter-spacing="0" fill="#f3f3f3" stroke="#f3f3f3"><path style="-inkscape-font-specification:Poppins;text-align:center" d="M-138.52-303.183q.029.166.134.257.108.091.29.091.243 0 .357-.19.117-.19.111-.642-.061.132-.205.208-.143.074-.319.074-.196 0-.351-.08-.152-.082-.24-.237-.088-.155-.088-.375 0-.313.181-.503.182-.193.516-.193.41 0 .574.266.167.266.167.794 0 .369-.068.609-.064.24-.222.366-.156.126-.428.126-.299 0-.465-.161-.167-.162-.19-.41zm.412-.428q.196 0 .322-.12.126-.123.126-.33 0-.22-.123-.355-.123-.135-.345-.135-.205 0-.328.129-.12.129-.12.34 0 .213.12.342.12.129.348.129zM-136.89-302.598q-.076 0-.129-.052-.052-.053-.052-.13 0-.075.052-.128.053-.053.13-.053.072 0 .122.053.053.053.053.129 0 .076-.053.129-.05.052-.123.052z" transform="matrix(.00568 1.67045 -.60068 -.59857 -177.8 62.442)"/></g><g style="line-height:1.5;-inkscape-font-specification:Poppins;text-align:center" aria-label="18" font-size="2.908" letter-spacing="0" fill="#f4f4f4" stroke="#f4f4f4"><path style="-inkscape-font-specification:Poppins;text-align:center" d="M11.322 255.002v-.242h.546v2.103h-.267v-1.861zM12.706 255.77q-.163-.064-.25-.187-.087-.122-.087-.296 0-.157.078-.282.079-.128.233-.201.157-.076.378-.076t.375.076q.157.073.236.2.081.126.081.283 0 .168-.09.296-.09.125-.247.187.18.055.285.194.107.137.107.332 0 .189-.093.332-.093.14-.264.218-.169.075-.39.075t-.39-.075q-.165-.079-.259-.218-.093-.143-.093-.332 0-.195.105-.334.105-.14.285-.192zm.788-.451q0-.178-.116-.274-.116-.096-.32-.096-.2 0-.317.096-.116.096-.116.277 0 .163.119.261.122.1.314.1.195 0 .314-.1.122-.101.122-.264zm-.436.567q-.215 0-.352.102-.137.099-.137.3 0 .185.131.299.134.113.358.113.224 0 .355-.113.13-.114.13-.3 0-.195-.133-.296-.134-.105-.352-.105z" transform="matrix(-1.49875 -.86902 .83287 -.1843 -177.8 62.442)"/></g></g></svg>