<svg xmlns="http://www.w3.org/2000/svg" viewBox="0 0 25.4 25.4" height="96" width="96"><g font-weight="400" font-family="Poppins" word-spacing="0" text-anchor="middle" stroke-width=".176" stroke-linecap="round" stroke-linejoin="round"><g style="line-height:1.5;-inkscape-font-specification:Poppins;text-align:center"><path style="-inkscape-font-specification:Poppins;text-align:center" d="M11.323 14.481v-.39l1.98-2.743h.616v2.687h.564v.446h-.564v.909h-.508v-.909zm2.11-2.596l-1.518 2.15h1.519z" aria-label="4" font-size="5.644" letter-spacing="0" fill="#1b1b1b" stroke="#1b1b1b"/></g><g style="line-height:1.5;-inkscape-font-specification:Poppins;text-align:center" aria-label="11" font-size="4.751" letter-spacing=".529" fill="#181818" stroke="#181818"><path style="-inkscape-font-specification:Poppins;text-align:center" d="M-476.281 134.054v-.394h.893v3.435h-.437v-3.04zM-474.232 134.054v-.394h.893v3.435h-.437v-3.04z" transform="matrix(-.93452 -.17078 -.14027 -1.0957 -406.4 76.2)"/></g><g style="line-height:1.5;-inkscape-font-specification:Poppins;text-align:center" aria-label="18" font-size="4.799" letter-spacing="0" fill="#3d3d3d" stroke="#3d3d3d"><path style="-inkscape-font-specification:Poppins;text-align:center" d="M229.935-389.683v-.398h.902v3.47h-.442v-3.072zM232.219-388.416q-.269-.105-.413-.307-.144-.202-.144-.49 0-.259.13-.465.13-.211.384-.331.259-.125.624-.125.364 0 .619.125.259.12.389.331.134.206.134.466 0 .278-.149.49-.149.205-.408.306.298.091.47.322.178.225.178.547 0 .312-.153.547-.154.23-.437.36-.279.125-.643.125-.365 0-.643-.125-.274-.13-.428-.36-.153-.235-.153-.547 0-.322.173-.552.172-.23.47-.317zm1.3-.744q0-.292-.191-.45-.192-.16-.528-.16-.331 0-.523.16-.192.158-.192.455 0 .269.196.432.202.163.519.163.321 0 .518-.163.202-.168.202-.437zm-.72.936q-.354 0-.58.168-.226.163-.226.495 0 .307.216.494.221.187.59.187.37 0 .586-.187.216-.187.216-.494 0-.322-.22-.49-.221-.173-.581-.173z" transform="matrix(.34839 .88398 -.85596 .69848 -406.4 76.2)"/></g><g style="line-height:1.5;-inkscape-font-specification:Poppins;text-align:center"><path style="-inkscape-font-specification:Poppins;text-align:center" d="M-151.663 247.09h-1.032v.67q.068-.093.2-.152.133-.062.285-.062.244 0 .397.103.153.1.218.262.067.159.067.338 0 .212-.079.38-.08.167-.244.264-.162.097-.403.097-.308 0-.5-.159-.19-.159-.232-.423h.262q.038.167.162.261.123.094.311.094.232 0 .35-.138.118-.14.118-.37 0-.23-.118-.353-.118-.126-.347-.126-.156 0-.273.076-.115.073-.168.203h-.253v-1.2h1.28z" transform="matrix(-.00186 -.59492 1.67885 -.65577 -406.4 76.2)" aria-label="5" font-size="2.94" letter-spacing="0" fill="#7e7e7e" stroke="#7f7f7f"/></g><g style="line-height:1.5;-inkscape-font-specification:Poppins;text-align:center" aria-label="20" font-size="2.989" letter-spacing="0" fill="#171717" stroke="#171717"><path style="-inkscape-font-specification:Poppins;text-align:center" d="M189.274 531.787q.38-.305.595-.5.215-.197.361-.409.15-.215.15-.421 0-.194-.096-.305-.093-.114-.302-.114-.203 0-.317.129-.11.125-.12.338h-.262q.012-.335.203-.517.191-.183.493-.183.308 0 .487.17.183.171.183.47 0 .248-.15.484-.146.233-.335.412-.188.177-.48.413h1.027v.227h-1.437zM191.025 530.902q0-.514.168-.8.167-.29.585-.29.416 0 .583.29.167.286.167.8 0 .523-.167.813-.167.29-.583.29-.418 0-.585-.29-.168-.29-.168-.813zm1.234 0q0-.26-.035-.44-.033-.181-.14-.292-.106-.11-.306-.11-.203 0-.31.11-.105.11-.141.293-.033.18-.033.44 0 .268.033.45.036.183.14.293.108.11.311.11.2 0 .305-.11.108-.11.14-.293.036-.182.036-.45z" transform="matrix(-.96273 -1.15093 1.12634 .30782 -406.4 76.2)"/></g><g style="line-height:1.5;-inkscape-font-specification:Poppins;text-align:center" aria-label="14" font-size="4.635" letter-spacing="0" fill="#141414" stroke="#141414"><path style="-inkscape-font-specification:Poppins;text-align:center" d="M111.566-345.102v-.385h.872v3.351h-.427v-2.966zM113.059-342.882v-.32l1.627-2.252h.505v2.206h.463v.366h-.463v.746h-.417v-.746zm1.733-2.132l-1.247 1.766h1.247z" transform="matrix(.61351 .73798 -1.0149 .40915 -406.4 76.2)"/></g><g style="line-height:1.5;-inkscape-font-specification:Poppins;text-align:center" aria-label="9." font-size="3.019" letter-spacing="0" fill="#141414" stroke="#141414"><path style="-inkscape-font-specification:Poppins;text-align:center" d="M-483.459-573.311q.03.172.139.265.112.094.299.094.25 0 .368-.196.121-.196.115-.661-.063.135-.211.214-.148.075-.33.075-.202 0-.362-.081-.157-.085-.247-.245-.09-.16-.09-.386 0-.323.186-.52.187-.199.532-.199.422 0 .591.275.173.275.173.818 0 .38-.07.628-.066.248-.23.378-.16.13-.44.13-.308 0-.48-.166-.172-.167-.197-.423zm.426-.441q.202 0 .332-.124.13-.127.13-.341 0-.226-.127-.365-.127-.14-.356-.14-.212 0-.338.134-.124.132-.124.35 0 .22.124.353.123.133.359.133zM-481.777-572.707q-.079 0-.133-.055-.054-.054-.054-.133 0-.078.054-.132.054-.055.133-.055.075 0 .127.055.054.054.054.133 0 .078-.054.132-.052.055-.127.055z" transform="matrix(-.54286 1.42046 -.289 -1.0859 -406.4 76.2)"/></g><g style="line-height:1.5;-inkscape-font-specification:Poppins;text-align:center" aria-label="6." font-size="3.009" letter-spacing="0" fill="#0f0f0f" stroke="#0f0f0f"><path style="-inkscape-font-specification:Poppins;text-align:center" d="M71.816-432.66q-.066-.334-.412-.334-.268 0-.4.208-.132.204-.13.677.07-.157.23-.244.162-.09.36-.09.31 0 .494.192.186.193.186.533 0 .205-.08.367-.08.163-.242.259-.16.096-.388.096-.31 0-.484-.138-.175-.139-.244-.382-.07-.244-.07-.602 0-1.104.771-1.104.295 0 .464.159.168.16.198.403zm-.409.449q-.13 0-.244.054-.114.05-.186.16-.07.105-.07.258 0 .229.133.373.132.142.38.142.21 0 .333-.13.127-.132.127-.355 0-.235-.12-.367-.121-.135-.353-.135zM72.647-430.984q-.078 0-.133-.054-.054-.054-.054-.132 0-.079.054-.133.055-.054.133-.054.075 0 .126.054.054.054.054.133 0 .078-.054.132-.05.054-.126.054z" transform="matrix(-.93035 1.14205 -1.13608 .31973 -406.4 76.2)"/></g><g style="line-height:1.5;-inkscape-font-specification:Poppins;text-align:center"><path style="-inkscape-font-specification:Poppins;text-align:center" d="M-283.606-684.773q.372-.298.583-.489.21-.193.354-.4.147-.212.147-.414 0-.19-.094-.298-.09-.112-.296-.112-.199 0-.31.126-.109.123-.117.331h-.258q.012-.328.2-.506.186-.179.482-.179.302 0 .478.167.178.167.178.46 0 .243-.146.474-.144.228-.328.404-.185.173-.472.404h1.008v.223h-1.409z" transform="matrix(.00568 1.67045 -.60068 -.59857 -406.4 76.2)" aria-label="2" font-size="2.928" letter-spacing="0" fill="#292929" stroke="#292929"/></g><g style="line-height:1.5;-inkscape-font-specification:Poppins;text-align:center" aria-label="13" font-size="2.908" letter-spacing="0" fill="#434343" stroke="#434343"><path style="-inkscape-font-specification:Poppins;text-align:center" d="M-19.289 474.28v-.241h.547v2.102h-.267v-1.861zM-18.294 474.568q.02-.268.207-.419.186-.151.482-.151.198 0 .34.073.146.07.219.192.075.122.075.276 0 .18-.104.311-.102.131-.268.169v.014q.19.047.3.183.11.137.11.358 0 .166-.075.3-.076.13-.227.206-.151.076-.364.076-.308 0-.506-.16-.198-.163-.22-.46h.255q.02.175.143.285.122.11.325.11.204 0 .309-.104.107-.107.107-.276 0-.218-.145-.314-.146-.096-.44-.096h-.066v-.221h.07q.267-.003.404-.088.136-.087.136-.267 0-.154-.101-.247-.1-.093-.285-.093-.18 0-.291.093-.11.093-.131.25z" transform="matrix(-1.49875 -.86902 .83287 -.1843 -406.4 76.2)"/></g></g></svg>