<svg xmlns="http://www.w3.org/2000/svg" viewBox="0 0 25.4 25.4" height="96" width="96"><g font-weight="400" font-family="Poppins" letter-spacing="0" word-spacing="0" text-anchor="middle" stroke-width=".176" stroke-linecap="round" stroke-linejoin="round"><g style="line-height:1.5;-inkscape-font-specification:Poppins;text-align:center"><path style="-inkscape-font-specification:Poppins;text-align:center" d="M14.193 11.71l-1.57 3.68h-.519l1.592-3.63h-2.179v-.44h2.676z" aria-label="7" font-size="5.644" fill="#1b1b1b" stroke="#1b1b1b"/></g><g style="line-height:1.5;-inkscape-font-specification:Poppins;text-align:center" aria-label="17" font-size="4.751" fill="#181818" stroke="#181818"><path style="-inkscape-font-specification:Poppins;text-align:center" d="M-393.061 121.042v-.394h.893v3.434h-.437v-3.04zM-389.313 120.985l-1.32 3.097h-.437l1.34-3.054h-1.835v-.37h2.252z" transform="matrix(-.93452 -.17078 -.14027 -1.0957 -330.2 76.2)"/></g><g style="line-height:1.5;-inkscape-font-specification:Poppins;text-align:center" aria-label="15" font-size="4.799" fill="#3d3d3d" stroke="#3d3d3d"><path style="-inkscape-font-specification:Poppins;text-align:center" d="M176.717-322.323v-.399h.902v3.47h-.442v-3.071zM180.58-322.343h-1.684v1.095q.11-.154.326-.25.216-.1.465-.1.399 0 .648.167.25.163.355.427.11.26.11.552 0 .346-.129.62-.13.273-.398.431-.264.159-.658.159-.503 0-.815-.26-.312-.259-.38-.69h.428q.062.273.264.427.201.153.508.153.38 0 .571-.225.192-.23.192-.605 0-.374-.192-.576-.192-.206-.566-.206-.254 0-.446.124-.187.12-.274.332h-.413v-1.959h2.088z" transform="matrix(.34839 .88398 -.85596 .69848 -330.2 76.2)"/></g><g style="line-height:1.5;-inkscape-font-specification:Poppins;text-align:center" aria-label="12" font-size="2.94" fill="#7e7e7e" stroke="#7f7f7f"><path style="-inkscape-font-specification:Poppins;text-align:center" d="M-103.51 201.77v-.245h.553v2.126h-.27v-1.882zM-102.531 203.436q.373-.3.585-.49.212-.195.356-.403.147-.212.147-.415 0-.191-.094-.3-.091-.112-.297-.112-.2 0-.312.127-.109.123-.118.332h-.258q.012-.33.2-.509t.485-.179q.303 0 .479.168.18.167.18.461 0 .244-.148.477-.144.229-.329.405-.185.174-.473.406h1.011v.223h-1.414z" transform="matrix(-.00186 -.59492 1.67885 -.65577 -330.2 76.2)"/></g><g style="line-height:1.5;-inkscape-font-specification:Poppins;text-align:center" aria-label="13" font-size="2.989" fill="#171717" stroke="#171717"><path style="-inkscape-font-specification:Poppins;text-align:center" d="M166.22 442.392v-.248h.562v2.16h-.275v-1.912zM167.242 442.688q.02-.275.212-.43.191-.156.496-.156.203 0 .35.075.15.071.224.197.078.126.078.284 0 .185-.108.32-.104.134-.275.173v.015q.194.048.308.188.114.14.114.368 0 .17-.078.308-.078.134-.233.212-.156.078-.374.078-.317 0-.52-.165-.203-.167-.227-.472h.263q.02.18.146.293.126.113.335.113.21 0 .317-.107.11-.11.11-.284 0-.224-.149-.323-.15-.098-.451-.098h-.069v-.228h.072q.275-.003.415-.09.14-.089.14-.274 0-.159-.104-.254-.101-.096-.293-.096-.185 0-.299.096-.113.095-.134.257z" transform="matrix(-.96273 -1.15093 1.12634 .30782 -330.2 76.2)"/></g><g style="line-height:1.5;-inkscape-font-specification:Poppins;text-align:center"><path style="-inkscape-font-specification:Poppins;text-align:center" d="M81.846-288.869v-.384h.871v3.35h-.426v-2.966z" transform="matrix(.61351 .73798 -1.0149 .40915 -330.2 76.2)" aria-label="1" font-size="4.635" fill="#141414" stroke="#141414"/></g><g style="line-height:1.5;-inkscape-font-specification:Poppins;text-align:center"><path style="-inkscape-font-specification:Poppins;text-align:center" d="M-400.694-466.12q.021-.277.214-.434.194-.157.502-.157.205 0 .353.076.15.072.226.199.079.127.079.287 0 .187-.109.323-.106.136-.278.175v.015q.197.048.311.19.115.142.115.372 0 .172-.078.31-.079.136-.236.215-.157.078-.377.078-.32 0-.526-.166-.205-.169-.23-.477h.266q.022.181.148.296.127.115.339.115.211 0 .32-.109.111-.111.111-.287 0-.226-.15-.326-.152-.1-.457-.1h-.069v-.229h.073q.277-.003.42-.09.141-.09.141-.278 0-.16-.105-.257-.103-.096-.296-.096-.188 0-.302.096-.115.097-.136.26z" transform="matrix(-.54286 1.42046 -.289 -1.0859 -330.2 76.2)" aria-label="3" font-size="3.019" fill="#141414" stroke="#141414"/></g><g style="line-height:1.5;-inkscape-font-specification:Poppins;text-align:center" aria-label="19" font-size="3.009" fill="#0f0f0f" stroke="#0f0f0f"><path style="-inkscape-font-specification:Poppins;text-align:center" d="M46.009-345.902v-.25h.566v2.176h-.277v-1.926zM47.396-344.56q.03.171.138.265.112.093.298.093.25 0 .367-.196.12-.195.115-.659-.063.136-.21.214-.148.075-.329.075-.201 0-.36-.081-.157-.084-.248-.244-.09-.16-.09-.385 0-.322.187-.517.186-.2.53-.2.42 0 .59.275.17.274.17.815 0 .38-.069.626-.066.247-.228.376-.16.13-.44.13-.307 0-.478-.166-.172-.165-.196-.421zm.424-.44q.202 0 .331-.123.13-.126.13-.34 0-.225-.127-.364-.126-.138-.355-.138-.21 0-.337.132-.123.132-.123.35 0 .219.123.351.124.133.358.133z" transform="matrix(-.93035 1.14205 -1.13608 .31973 -330.2 76.2)"/></g><g style="line-height:1.5;-inkscape-font-specification:Poppins;text-align:center"><path style="-inkscape-font-specification:Poppins;text-align:center" d="M-236.69-559.156h-1.028v.668q.067-.094.199-.153.132-.061.284-.061.243 0 .395.102.152.1.217.26.067.16.067.338 0 .21-.079.377-.08.167-.243.264-.161.097-.401.097-.308 0-.498-.159-.19-.158-.231-.421h.26q.038.167.161.26.123.094.31.094.232 0 .35-.138.116-.14.116-.368 0-.229-.117-.352-.117-.126-.345-.126-.156 0-.273.076-.114.074-.167.202h-.251v-1.194h1.273z" transform="matrix(.00568 1.67045 -.60068 -.59857 -330.2 76.2)" aria-label="5" font-size="2.928" fill="#292929" stroke="#292929"/></g><g style="line-height:1.5;-inkscape-font-specification:Poppins;text-align:center" aria-label="10" font-size="2.908" fill="#434343" stroke="#434343"><path style="-inkscape-font-specification:Poppins;text-align:center" d="M-5.301 408.062v-.241h.547v2.102h-.268v-1.861zM-4.3 408.85q0-.5.162-.78.163-.281.57-.281.405 0 .567.282.163.279.163.78 0 .508-.163.79-.162.282-.567.282-.407 0-.57-.282-.163-.282-.163-.79zm1.2 0q0-.253-.034-.427-.032-.178-.137-.285-.102-.108-.297-.108-.197 0-.302.108-.102.107-.137.285-.032.174-.032.427 0 .262.032.44.035.177.137.284.105.108.302.108.195 0 .297-.108.105-.107.137-.285.035-.177.035-.439z" transform="matrix(-1.49875 -.86902 .83287 -.1843 -330.2 76.2)"/></g></g></svg>