<svg xmlns="http://www.w3.org/2000/svg" viewBox="0 0 25.4 25.4" height="96" width="96"><g font-weight="400" font-family="Poppins" word-spacing="0" text-anchor="middle" stroke-linecap="round" stroke-linejoin="round"><g style="line-height:1.5;-inkscape-font-specification:Poppins;font-variant-ligatures:normal;font-variant-position:normal;font-variant-caps:normal;font-variant-numeric:normal;font-variant-alternates:normal;font-feature-settings:normal;text-indent:0;text-align:center;text-decoration-line:none;text-decoration-style:solid;text-decoration-color:#000;text-transform:none;text-orientation:mixed;white-space:normal;shape-padding:0" aria-label="6." font-size="10.559" letter-spacing="-.619" fill="#f2f2f2" stroke="#f2f2f2" stroke-width=".082"><path style="line-height:1.5;-inkscape-font-specification:Poppins;font-variant-ligatures:normal;font-variant-position:normal;font-variant-caps:normal;font-variant-numeric:normal;font-variant-alternates:normal;font-feature-settings:normal;text-indent:0;text-align:center;text-decoration-line:none;text-decoration-style:solid;text-decoration-color:#000;text-transform:none;text-orientation:mixed;white-space:normal;shape-padding:0" d="M13.06 12.088q-.826-.591-1.579.114-.583.547-.447 1.269.129.715 1.1 1.737-.17-.482 0-.997.169-.528.601-.933.675-.632 1.467-.587.799.038 1.492.778.418.445.572.965.161.513.004 1.054-.15.535-.648 1.001-.674.632-1.337.687-.662.055-1.31-.334-.647-.39-1.378-1.169-2.252-2.403-.576-3.974.642-.602 1.334-.598.692.003 1.254.472zm.023 1.81q-.281.265-.42.616-.144.344-.08.727.064.37.377.705.466.497 1.05.542.576.037 1.113-.466.458-.43.463-.963.005-.546-.45-1.03-.478-.511-1.01-.554-.538-.049-1.043.424zM17.902 14.401q-.17.16-.399.153-.228-.008-.388-.178-.16-.17-.152-.399.007-.228.178-.388.163-.153.385-.14.228.008.388.178.16.17.152.399 0 .222-.164.375z" stroke-width=".0697"/></g><path style="line-height:1.5;-inkscape-font-specification:Poppins;font-variant-ligatures:normal;font-variant-position:normal;font-variant-caps:normal;font-variant-numeric:normal;font-variant-alternates:normal;font-feature-settings:normal;text-indent:0;text-align:center;text-decoration-line:none;text-decoration-style:solid;text-decoration-color:#000;text-transform:none;text-orientation:mixed;white-space:normal;shape-padding:0" d="M-275.1 216.493q1.005-.808 1.575-1.323.57-.522.959-1.085.396-.57.396-1.117 0-.515-.254-.808-.245-.3-.8-.3-.538 0-.84.34-.292.333-.316.895h-.697q.032-.887.539-1.37.506-.483 1.306-.483.816 0 1.292.451.483.452.483 1.244 0 .657-.396 1.283-.388.618-.887 1.093-.5.467-1.276 1.093h2.725v.602h-3.81z" transform="matrix(-.1303 -.66064 1.11098 .08792 -257.175 -192.405)" aria-label="2" font-size="7.921" letter-spacing="-.464" fill="#f4f4f4" stroke="#f4f4f4" stroke-width=".062"/><g style="line-height:1.5;-inkscape-font-specification:Poppins;font-variant-ligatures:normal;font-variant-position:normal;font-variant-caps:normal;font-variant-numeric:normal;font-variant-alternates:normal;font-feature-settings:normal;text-indent:0;text-align:center;text-decoration-line:none;text-decoration-style:solid;text-decoration-color:#000;text-transform:none;text-orientation:mixed;white-space:normal;shape-padding:0" aria-label="4." font-size="7.953" letter-spacing="-.466" fill="#f4f4f4" stroke="#f4f4f4" stroke-width=".062"><path style="line-height:1.5;-inkscape-font-specification:Poppins;font-variant-ligatures:normal;font-variant-position:normal;font-variant-caps:normal;font-variant-numeric:normal;font-variant-alternates:normal;font-feature-settings:normal;text-indent:0;text-align:center;text-decoration-line:none;text-decoration-style:solid;text-decoration-color:#000;text-transform:none;text-orientation:mixed;white-space:normal;shape-padding:0" d="M381.414 109.973v-.55l2.791-3.864h.867v3.785h.795v.629h-.795v1.28h-.716v-1.28zm2.974-3.659l-2.14 3.03h2.14z" transform="matrix(.66765 .23046 .06872 1.10588 -257.175 -192.405)"/><path style="line-height:1.5;-inkscape-font-specification:Poppins;font-variant-ligatures:normal;font-variant-position:normal;font-variant-caps:normal;font-variant-numeric:normal;font-variant-alternates:normal;font-feature-settings:normal;text-indent:0;text-align:center;text-decoration-line:none;text-decoration-style:solid;text-decoration-color:#000;text-transform:none;text-orientation:mixed;white-space:normal;shape-padding:0" d="M8.502 19.748q-.138-.047-.243-.239-.105-.19-.12-.42-.014-.228.072-.354.086-.125.224-.077.132.046.232.235.106.191.12.42.014.229-.071.354-.08.127-.214.081z" fill="none" stroke="none"/></g><g style="line-height:1.5;-inkscape-font-specification:Poppins;font-variant-ligatures:normal;font-variant-position:normal;font-variant-caps:normal;font-variant-numeric:normal;font-variant-alternates:normal;font-feature-settings:normal;text-indent:0;text-align:center;text-decoration-line:none;text-decoration-style:solid;text-decoration-color:#000;text-transform:none;text-orientation:mixed;white-space:normal;shape-padding:0" aria-label="9." font-size="2.771" letter-spacing="-.162" fill="#8c8c8c" stroke="#8c8c8c" stroke-width=".022"><path style="line-height:1.5;-inkscape-font-specification:Poppins;font-variant-ligatures:normal;font-variant-position:normal;font-variant-caps:normal;font-variant-numeric:normal;font-variant-alternates:normal;font-feature-settings:normal;text-indent:0;text-align:center;text-decoration-line:none;text-decoration-style:solid;text-decoration-color:#000;text-transform:none;text-orientation:mixed;white-space:normal;shape-padding:0" d="M-617.596-1259.983q.028.158.128.244.102.086.274.086.23 0 .338-.18.111-.18.106-.607-.059.125-.194.197-.136.069-.302.069-.186 0-.333-.075-.144-.078-.227-.224-.083-.147-.083-.355 0-.297.172-.477.171-.183.487-.183.388 0 .543.253.158.252.158.75 0 .35-.063.577-.061.227-.211.346-.147.12-.405.12-.282 0-.44-.153-.158-.153-.18-.388zm.391-.404q.186 0 .305-.114.119-.116.119-.313 0-.208-.116-.335-.117-.128-.327-.128-.194 0-.31.122-.114.122-.114.322 0 .202.113.324.114.122.33.122zM-616.215-1259.429q-.072 0-.122-.05t-.05-.121q0-.073.05-.123t.122-.05q.07 0 .117.05.05.05.05.122 0 .073-.05.122-.047.05-.117.05z" transform="matrix(-1.0948 2.47468 .31608 -1.3744 -257.175 -192.405)"/></g><path style="line-height:1.5;-inkscape-font-specification:Poppins;font-variant-ligatures:normal;font-variant-position:normal;font-variant-caps:normal;font-variant-numeric:normal;font-variant-alternates:normal;font-feature-settings:normal;text-indent:0;text-align:center;text-decoration-line:none;text-decoration-style:solid;text-decoration-color:#000;text-transform:none;text-orientation:mixed;white-space:normal;shape-padding:0" d="M371.219-854.14v-.26h.59v2.269h-.289v-2.009z" transform="matrix(-1.90262 .78802 -1.14505 .09451 -257.175 -192.405)" aria-label="1" font-size="3.139" letter-spacing="-.184" fill="#b6b6b6" stroke="#b6b6b6" stroke-width=".025"/></g></svg>