<svg xmlns="http://www.w3.org/2000/svg" viewBox="0 0 25.4 25.4" height="96" width="96"><g font-weight="400" font-family="Poppins" letter-spacing="0" word-spacing="0" text-anchor="middle" stroke-linecap="round" stroke-linejoin="round"><g style="line-height:1.5;-inkscape-font-specification:Poppins;text-align:center" aria-label="6." font-size="7.964" fill="#f2f2f2" stroke="#f2f2f2" stroke-width=".249"><path style="-inkscape-font-specification:Poppins;text-align:center" d="M13.138 11.464q-.175-.884-1.091-.884-.709 0-1.06.55-.35.54-.342 1.79.184-.413.606-.644.43-.24.955-.24.82 0 1.306.51.494.51.494 1.41 0 .542-.215.972-.207.43-.637.685-.422.255-1.027.255-.82 0-1.283-.367-.461-.366-.645-1.011-.183-.645-.183-1.593 0-2.923 2.039-2.923.78 0 1.226.422.446.422.526 1.068zm-1.083 1.186q-.342 0-.645.144-.303.135-.494.422-.183.278-.183.684 0 .606.35.988.35.374 1.004.374.557 0 .884-.342.334-.35.334-.94 0-.621-.318-.971-.319-.359-.932-.359zM15.336 15.9q-.207 0-.35-.144-.144-.143-.144-.35t.144-.35q.143-.144.35-.144.2 0 .334.143.144.144.144.35 0 .208-.144.351-.135.143-.334.143z"/></g><g style="line-height:1.5;-inkscape-font-specification:Poppins;text-align:center"><path style="-inkscape-font-specification:Poppins;text-align:center" d="M320.934 500.013v-.402h.912v3.507h-.446v-3.105z" transform="matrix(.74373 -1.14237 .17085 1.08214 -304.8 -159.808)" aria-label="1" font-size="4.851" fill="#8c8c8c" stroke="#8c8c8c" stroke-width=".152"/></g><g style="line-height:1.5;-inkscape-font-specification:Poppins;text-align:center"><path style="-inkscape-font-specification:Poppins;text-align:center" d="M206.398-281.832h-1.692v1.1q.11-.155.327-.252.217-.1.468-.1.4 0 .651.168.25.164.357.429.11.26.11.555 0 .347-.13.622-.13.274-.4.434-.265.159-.66.159-.506 0-.82-.26-.313-.261-.38-.695h.428q.063.275.266.43.202.153.51.153.382 0 .574-.226.193-.232.193-.608t-.192-.578q-.193-.208-.57-.208-.255 0-.448.126-.188.12-.275.332h-.414v-1.967h2.097z" transform="matrix(-.49582 .60338 -1.49263 -.20043 -304.8 -159.808)" aria-label="5" font-size="4.822" fill="#b6b6b6" stroke="#b6b6b6" stroke-width=".151"/></g><g style="line-height:1.5;-inkscape-font-specification:Poppins;text-align:center"><path style="-inkscape-font-specification:Poppins;text-align:center" d="M-73.569-403.22v-.334l1.702-2.355h.528v2.307h.485v.383h-.485v.78h-.436v-.78zm1.813-2.229l-1.304 1.847h1.304z" transform="matrix(-.0013 1.30307 -.76675 -.66469 -304.8 -159.808)" aria-label="4" font-size="4.847" fill="#dbdbdb" stroke="#dbdbdb" stroke-width=".151"/></g><g style="line-height:1.5;-inkscape-font-specification:Poppins;text-align:center" aria-label="11" font-size="4.673" fill="#dbdbdb" stroke="#dbdbdb" stroke-width=".146"><path style="-inkscape-font-specification:Poppins;text-align:center" d="M-126.4 205.163v-.388h.88v3.379h-.43v-2.991zM-124.904 205.163v-.388h.879v3.379h-.43v-2.991z" transform="matrix(-.81367 -1.06095 1.06788 .16342 -304.8 -159.808)"/></g><g style="line-height:1.5;-inkscape-font-specification:Poppins;text-align:center"><path style="-inkscape-font-specification:Poppins;text-align:center" d="M-373.756-349.452q.034-.441.34-.69.308-.25.797-.25.327 0 .562.12.24.115.36.316.124.202.124.456 0 .298-.172.514-.168.216-.442.278v.024q.312.077.494.302.183.226.183.59 0 .274-.125.495-.125.215-.374.34-.25.125-.6.125-.509 0-.835-.264-.326-.269-.365-.758h.423q.033.288.235.47.201.183.537.183t.509-.173q.177-.178.177-.456 0-.36-.24-.518-.24-.159-.724-.159h-.11v-.364h.115q.441-.005.667-.144.225-.144.225-.442 0-.254-.168-.407-.163-.154-.47-.154-.298 0-.48.154-.182.153-.216.412z" transform="matrix(-1.244 .4538 .4321 -.96148 -304.8 -159.808)" aria-label="3" font-size="4.798" fill="#f8f8f8" stroke="#f8f8f8" stroke-width=".15"/></g></g></svg>