<svg xmlns="http://www.w3.org/2000/svg" viewBox="0 0 25.4 25.4" height="96" width="96"><g font-weight="400" font-family="Poppins" letter-spacing="0" word-spacing="0" text-anchor="middle" stroke-width=".176" stroke-linecap="round" stroke-linejoin="round"><g style="line-height:1.5;-inkscape-font-specification:Poppins;text-align:center"><path style="-inkscape-font-specification:Poppins;text-align:center" d="M10.41 11.777v-.468h1.062v4.08h-.52v-3.612zm4.545-.022h-1.981v1.287q.13-.18.383-.294.254-.118.548-.118.468 0 .762.197.293.192.418.503.13.304.13.649 0 .406-.153.728-.152.322-.469.508-.31.186-.773.186-.592 0-.96-.305-.366-.304-.445-.812h.502q.073.321.31.502.238.18.599.18.446 0 .672-.265.225-.27.225-.71 0-.441-.225-.678-.226-.243-.667-.243-.299 0-.524.147-.22.14-.322.39h-.486v-2.304h2.456z" aria-label="15" font-size="5.644" fill="#f2f2f2" stroke="#f2f2f2"/></g><g style="line-height:1.5;-inkscape-font-specification:Poppins;text-align:center"><path style="-inkscape-font-specification:Poppins;text-align:center" d="M-168.553 73.482v-.395h.893v3.435h-.437v-3.04zm1.583 2.693q.602-.484.944-.793.342-.314.575-.65.238-.343.238-.67 0-.31-.152-.485-.148-.18-.48-.18-.323 0-.504.204-.175.199-.19.536h-.418q.02-.532.323-.822.304-.29.784-.29.49 0 .775.271.29.271.29.746 0 .395-.238.77-.233.37-.532.655-.3.28-.765.656h1.634v.361h-2.285z" transform="matrix(-.93452 -.17078 -.14027 -1.0957 -127 62.442)" aria-label="12" font-size="4.751" fill="#dbdbdb" stroke="#dbdbdb"/></g><g style="line-height:1.5;-inkscape-font-specification:Poppins;text-align:center"><path style="-inkscape-font-specification:Poppins;text-align:center" d="M49.658-137.924h-1.684v1.095q.11-.154.326-.25.216-.1.466-.1.398 0 .647.167.25.163.356.427.11.26.11.552 0 .346-.13.62-.13.273-.398.431-.264.159-.657.159-.504 0-.816-.26-.312-.259-.38-.69h.428q.062.273.264.427.201.153.508.153.38 0 .571-.225.192-.23.192-.605 0-.374-.192-.576-.192-.206-.566-.206-.254 0-.446.124-.187.12-.274.332h-.413v-1.959h2.088z" transform="matrix(.34839 .88398 -.85596 .69848 -127 62.442)" aria-label="5" font-size="4.799" fill="#f4f4f4" stroke="#f4f4f4"/></g><g style="line-height:1.5;-inkscape-font-specification:Poppins;text-align:center"><path style="-inkscape-font-specification:Poppins;text-align:center" d="M6.56 80.856v-.244h.553v2.126h-.27v-1.882zm1.4.776q-.165-.064-.253-.188-.089-.123-.089-.3 0-.159.08-.285.08-.13.235-.203.159-.076.382-.076.224 0 .38.076.158.074.238.203.082.126.082.285 0 .17-.091.3-.091.126-.25.188.182.056.288.197.109.138.109.335 0 .191-.094.336-.094.14-.268.22-.17.076-.394.076-.223 0-.394-.076-.167-.08-.261-.22-.095-.145-.095-.336 0-.197.106-.338.106-.14.288-.194zm.796-.456q0-.179-.117-.276-.118-.097-.324-.097-.203 0-.32.097-.118.097-.118.28 0 .164.12.264.124.1.318.1.197 0 .318-.1.123-.103.123-.268zm-.44.574q-.218 0-.357.103-.138.1-.138.303 0 .188.133.302.135.115.361.115.227 0 .359-.115.132-.114.132-.302 0-.197-.135-.3-.135-.106-.356-.106z" transform="matrix(-.00186 -.59492 1.67885 -.65577 -127 62.442)" aria-label="18" font-size="2.94" fill="#f8f8f8" stroke="#f8f8f8"/></g><g style="line-height:1.5;-inkscape-font-specification:Poppins;text-align:center"><path style="-inkscape-font-specification:Poppins;text-align:center" d="M89.054 195.276v-.248h.562v2.16h-.275v-1.912z" transform="matrix(-.96273 -1.15093 1.12634 .30782 -127 62.442)" aria-label="1" font-size="2.989" fill="#d3d3d3" stroke="#d3d3d3"/></g><g style="line-height:1.5;-inkscape-font-specification:Poppins;text-align:center"><path style="-inkscape-font-specification:Poppins;text-align:center" d="M14.32-130.525l-1.289 3.022h-.426l1.307-2.98h-1.79v-.362h2.198z" transform="matrix(.61351 .73798 -1.0149 .40915 -127 62.442)" aria-label="7" font-size="4.635" fill="#b6b6b6" stroke="#b6b6b6"/></g><g style="line-height:1.5;-inkscape-font-specification:Poppins;text-align:center"><path style="-inkscape-font-specification:Poppins;text-align:center" d="M-176.671-185.25v-.25h.567v2.183h-.277v-1.932zm1.038.82q0-.52.17-.81.168-.293.591-.293.42 0 .589.293.169.29.169.81 0 .527-.169.82-.17.293-.589.293-.423 0-.592-.293-.169-.293-.169-.82zm1.247 0q0-.264-.036-.445-.033-.184-.142-.296-.105-.111-.308-.111-.205 0-.314.111-.105.112-.142.296-.033.181-.033.444 0 .272.033.456.036.184.142.296.109.112.314.112.203 0 .308-.112.109-.112.142-.296.036-.184.036-.456z" transform="matrix(-.54286 1.42046 -.289 -1.0859 -127 62.442)" aria-label="10" font-size="3.019" fill="#bdbdbd" stroke="#bdbdbd"/></g><g style="line-height:1.5;-inkscape-font-specification:Poppins;text-align:center"><path style="-inkscape-font-specification:Poppins;text-align:center" d="M-3.203-126.637v-.25h.566v2.175h-.277v-1.925zm2.374-.037l-.836 1.962h-.277l.849-1.934h-1.162v-.235h1.426z" transform="matrix(-.93035 1.14205 -1.13608 .31973 -127 62.442)" aria-label="17" font-size="3.009" fill="#8c8c8c" stroke="#8c8c8c"/></g><g style="line-height:1.5;-inkscape-font-specification:Poppins;text-align:center"><path style="-inkscape-font-specification:Poppins;text-align:center" d="M-108.627-219.63v-.243h.55v2.117h-.269v-1.874zm1.001.29q.02-.27.208-.422.188-.152.486-.152.2 0 .343.073.146.07.22.193.076.123.076.278 0 .182-.106.314-.102.131-.27.17v.014q.191.047.302.184.112.138.112.36 0 .168-.076.302-.076.132-.229.208-.152.076-.366.076-.31 0-.51-.16-.198-.165-.222-.463h.258q.02.175.143.287.123.11.328.11.205 0 .31-.105.109-.108.109-.278 0-.22-.146-.316-.147-.097-.443-.097h-.067v-.222h.07q.27-.003.407-.088.138-.088.138-.27 0-.155-.103-.248-.1-.094-.286-.094-.182 0-.293.094-.112.093-.132.251z" transform="matrix(.00568 1.67045 -.60068 -.59857 -127 62.442)" aria-label="13" font-size="2.928" fill="#f3f3f3" stroke="#f3f3f3"/></g><g style="line-height:1.5;-inkscape-font-specification:Poppins;text-align:center"><path style="-inkscape-font-specification:Poppins;text-align:center" d="M21.269 212.505q.369-.297.578-.486.21-.192.352-.399.146-.209.146-.41 0-.189-.093-.296-.09-.11-.294-.11-.198 0-.308.124-.108.122-.117.329h-.256q.012-.326.198-.503.186-.178.48-.178.3 0 .474.166.177.166.177.457 0 .241-.145.47-.143.228-.326.402-.183.172-.468.402h1v.22H21.27z" transform="matrix(-1.49875 -.86902 .83287 -.1843 -127 62.442)" aria-label="2" font-size="2.908" fill="#f4f4f4" stroke="#f4f4f4"/></g></g></svg>