<svg xmlns="http://www.w3.org/2000/svg" viewBox="0 0 25.4 25.4" height="96" width="96"><g font-weight="400" font-family="Poppins" word-spacing="0" text-anchor="middle" stroke-width=".176" stroke-linecap="round" stroke-linejoin="round"><g style="line-height:1.5;-inkscape-font-specification:Poppins;text-align:center"><path style="-inkscape-font-specification:Poppins;text-align:center" d="M14.052 11.755H12.07v1.287q.13-.18.384-.294.254-.118.548-.118.468 0 .762.197.293.192.417.503.13.304.13.649 0 .406-.152.728-.152.322-.469.508-.31.186-.773.186-.593 0-.96-.305-.366-.304-.445-.812h.502q.073.321.31.502.238.18.599.18.446 0 .671-.265.226-.27.226-.71 0-.441-.226-.678-.225-.243-.666-.243-.299 0-.525.147-.22.14-.321.39h-.486v-2.304h2.456z" aria-label="5" font-size="5.644" letter-spacing="0" fill="#1b1b1b" stroke="#1b1b1b"/></g><g style="line-height:1.5;-inkscape-font-specification:Poppins;text-align:center"><path style="-inkscape-font-specification:Poppins;text-align:center" d="M-448.917 129.717v-.395h.893v3.435h-.437v-3.04zm3.824-.019h-1.668v1.083q.11-.152.323-.247.214-.1.461-.1.394 0 .642.166.247.162.351.423.11.257.11.546 0 .342-.129.613-.128.27-.394.428-.262.156-.651.156-.499 0-.808-.256-.308-.257-.375-.684h.423q.062.27.261.423.2.152.504.152.375 0 .565-.224.19-.228.19-.598t-.19-.57q-.19-.205-.56-.205-.252 0-.442.124-.186.119-.271.328h-.409v-1.938h2.067z" transform="matrix(-.93452 -.17078 -.14027 -1.0957 -381 76.2)" aria-label="15" font-size="4.751" letter-spacing="0" fill="#181818" stroke="#181818"/></g><g style="line-height:1.5;-inkscape-font-specification:Poppins;text-align:center"><path style="-inkscape-font-specification:Poppins;text-align:center" d="M212.193-367.23v-.398h.902v3.47h-.441v-3.072zm2.285 1.267q-.27-.105-.413-.307-.144-.201-.144-.49 0-.258.13-.465.13-.211.383-.331.26-.125.624-.125.365 0 .62.125.259.12.388.331.135.207.135.466 0 .278-.15.49-.148.206-.407.306.297.092.47.322.178.226.178.547 0 .312-.154.547-.153.23-.437.36-.278.125-.643.125-.364 0-.643-.125-.273-.13-.427-.36-.154-.235-.154-.547 0-.321.173-.552.173-.23.47-.317zm1.3-.743q0-.293-.192-.452-.192-.158-.528-.158-.33 0-.523.158-.192.159-.192.456 0 .27.197.432.202.163.518.163.322 0 .519-.163.201-.168.201-.436zm-.72.935q-.355 0-.58.168-.226.164-.226.495 0 .307.216.494.22.187.59.187t.586-.187q.216-.187.216-.494 0-.322-.221-.49-.22-.173-.58-.173z" transform="matrix(.34839 .88398 -.85596 .69848 -381 76.2)" aria-label="18" font-size="4.799" letter-spacing="0" fill="#3d3d3d" stroke="#3d3d3d"/></g><g style="line-height:1.5;-inkscape-font-specification:Poppins;text-align:center"><path style="-inkscape-font-specification:Poppins;text-align:center" d="M-136.316 233.658q.373-.3.585-.49.212-.195.356-.403.147-.212.147-.415 0-.191-.094-.3-.091-.112-.297-.112-.2 0-.312.127-.109.123-.118.332h-.258q.012-.33.2-.509t.485-.179q.303 0 .479.168.18.167.18.461 0 .244-.148.476-.144.23-.329.406-.185.174-.473.406h1.011v.223h-1.414z" transform="matrix(-.00186 -.59492 1.67885 -.65577 -381 76.2)" aria-label="2" font-size="2.94" letter-spacing="0" fill="#7e7e7e" stroke="#7f7f7f"/></g><g style="line-height:1.5;-inkscape-font-specification:Poppins;text-align:center"><path style="-inkscape-font-specification:Poppins;text-align:center" d="M181.993 500.859v-.249h.562v2.161h-.275v-1.912zm1.486 0v-.249h.562v2.161h-.275v-1.912z" transform="matrix(-.96273 -1.15093 1.12634 .30782 -381 76.2)" aria-label="11" font-size="2.989" letter-spacing=".529" fill="#171717" stroke="#171717"/></g><g style="line-height:1.5;-inkscape-font-specification:Poppins;text-align:center"><path style="-inkscape-font-specification:Poppins;text-align:center" d="M101.267-326.357v-.385h.87v3.35h-.425v-2.965zm1.585.458q.032-.426.329-.667.296-.241.77-.241.314 0 .541.116.232.111.348.306.12.194.12.44 0 .287-.166.496-.162.209-.427.269v.023q.302.074.478.292.176.218.176.57 0 .264-.12.478-.121.208-.362.329-.241.12-.58.12-.49 0-.806-.255-.315-.26-.352-.732h.408q.032.278.227.454.194.176.519.176.324 0 .491-.167.172-.171.172-.44 0-.348-.232-.5-.232-.153-.7-.153h-.107v-.353h.112q.426-.005.644-.139.218-.139.218-.426 0-.246-.162-.394-.158-.149-.455-.149-.287 0-.463.149-.176.148-.209.398z" transform="matrix(.61351 .73798 -1.0149 .40915 -381 76.2)" aria-label="13" font-size="4.635" letter-spacing="0" fill="#141414" stroke="#141414"/></g><g style="line-height:1.5;-inkscape-font-specification:Poppins;text-align:center"><path style="-inkscape-font-specification:Poppins;text-align:center" d="M-454.443-538.614l-.84 1.968h-.277l.851-1.941h-1.165v-.236h1.431z" transform="matrix(-.54286 1.42046 -.289 -1.0859 -381 76.2)" aria-label="7" font-size="3.019" letter-spacing="0" fill="#141414" stroke="#141414"/></g><g style="line-height:1.5;-inkscape-font-specification:Poppins;text-align:center"><path style="-inkscape-font-specification:Poppins;text-align:center" d="M63.2-403.92v-.25h.566v2.176h-.277v-1.925z" transform="matrix(-.93035 1.14205 -1.13608 .31973 -381 76.2)" aria-label="1" font-size="3.009" letter-spacing="0" fill="#0f0f0f" stroke="#0f0f0f"/></g><g style="line-height:1.5;-inkscape-font-specification:Poppins;text-align:center"><path style="-inkscape-font-specification:Poppins;text-align:center" d="M-268.513-642.6v-.203l1.027-1.423h.32v1.394h.292v.231h-.292v.472h-.264v-.472zm1.095-1.348l-.788 1.116h.788z" transform="matrix(.00568 1.67045 -.60068 -.59857 -381 76.2)" aria-label="4" font-size="2.928" letter-spacing="0" fill="#292929" stroke="#292929"/></g><g style="line-height:1.5;-inkscape-font-specification:Poppins;text-align:center"><path style="-inkscape-font-specification:Poppins;text-align:center" d="M-14.587 452.207v-.241h.547v2.102h-.268v-1.861zm.968 1.649q.37-.297.58-.486.209-.192.351-.398.146-.21.146-.41 0-.19-.094-.297-.09-.11-.293-.11-.198 0-.309.125-.107.122-.116.328h-.256q.012-.325.198-.503.186-.177.48-.177.3 0 .474.166.177.165.177.456 0 .242-.145.471-.143.227-.326.402-.183.171-.468.401h1v.221h-1.399z" transform="matrix(-1.49875 -.86902 .83287 -.1843 -381 76.2)" aria-label="12" font-size="2.908" letter-spacing="0" fill="#434343" stroke="#434343"/></g></g></svg>