<svg xmlns="http://www.w3.org/2000/svg" viewBox="0 0 25.4 25.4" height="96" width="96"><g font-weight="400" font-family="Poppins" letter-spacing="0" word-spacing="0" text-anchor="middle" stroke-linecap="round" stroke-linejoin="round"><g style="line-height:1.5;-inkscape-font-specification:Poppins;text-align:center" aria-label="12" font-size="7.964" fill="#1b1b1b" stroke="#1b1b1b" stroke-width=".249"><path style="-inkscape-font-specification:Poppins;text-align:center" d="M9.538 10.755v-.661h1.498v5.758h-.733v-5.097zM12.19 15.27q1.012-.812 1.585-1.33.573-.525.964-1.09.398-.574.398-1.124 0-.517-.255-.812-.247-.303-.804-.303-.542 0-.844.343-.295.334-.319.9h-.7q.031-.892.54-1.378.51-.486 1.315-.486.82 0 1.298.454.486.454.486 1.25 0 .661-.399 1.29-.39.622-.891 1.1-.502.47-1.283 1.099h2.74v.605h-3.83z"/></g><g style="line-height:1.5;-inkscape-font-specification:Poppins;text-align:center"><path style="-inkscape-font-specification:Poppins;text-align:center" d="M493.185 649.652l-1.348 3.163h-.447l1.368-3.12h-1.872v-.378h2.3z" transform="matrix(.74373 -1.14237 .17085 1.08214 -457.2 -127)" aria-label="7" font-size="4.851" fill="#101010" stroke="#0f0f0f" stroke-width=".152"/></g><g style="line-height:1.5;-inkscape-font-specification:Poppins;text-align:center" aria-label="9." font-size="4.822" fill="#141414" stroke="#141414" stroke-width=".151"><path style="-inkscape-font-specification:Poppins;text-align:center" d="M124.712-355.35q.048.274.222.424.178.15.477.15.4 0 .588-.314.193-.314.184-1.056-.102.217-.338.342-.236.12-.526.12-.323 0-.578-.13-.25-.135-.396-.39-.144-.256-.144-.617 0-.516.299-.83.299-.318.848-.318.675 0 .945.439.275.439.275 1.307 0 .607-.11 1.003-.107.395-.367.602-.256.208-.704.208-.492 0-.767-.266-.275-.265-.313-.675zm.68-.705q.323 0 .53-.197.208-.203.208-.545 0-.362-.203-.584-.203-.221-.569-.221-.338 0-.54.212-.198.212-.198.56 0 .351.198.563.198.212.574.212zM127.398-354.386q-.126 0-.212-.087-.087-.087-.087-.212 0-.126.087-.212.086-.087.212-.087.12 0 .202.087.087.086.087.212 0 .125-.087.212-.082.087-.202.087z" transform="matrix(-.49582 .60338 -1.49263 -.20043 -457.2 -127)"/></g><g style="line-height:1.5;-inkscape-font-specification:Poppins;text-align:center" aria-label="11" font-size="4.847" fill="#171717" stroke="#171717" stroke-width=".151"><path style="-inkscape-font-specification:Poppins;text-align:center" d="M-200.06-604.085v-.402h.912v3.504h-.446v-3.102zM-198.509-604.085v-.402h.911v3.504h-.445v-3.102z" transform="matrix(-.0013 1.30307 -.76675 -.66469 -457.2 -127)"/></g><g style="line-height:1.5;-inkscape-font-specification:Poppins;text-align:center"><path style="-inkscape-font-specification:Poppins;text-align:center" d="M-65.709 394.78q-.262-.102-.402-.298-.14-.197-.14-.477 0-.252.126-.453.126-.206.374-.323.252-.121.608-.121.355 0 .602.121.253.117.379.323.13.2.13.453 0 .27-.144.477-.145.2-.397.299.29.088.458.313.173.22.173.532 0 .304-.15.533-.15.225-.425.35-.271.122-.626.122-.356 0-.627-.121-.266-.126-.416-.35-.15-.23-.15-.534 0-.313.17-.537.167-.224.457-.308zm1.266-.724q0-.285-.186-.439-.187-.154-.514-.154-.323 0-.51.154t-.187.444q0 .262.192.42.196.16.505.16.313 0 .504-.16.196-.163.196-.425zm-.7.912q-.346 0-.566.163-.22.159-.22.481 0 .3.21.482.216.182.576.182t.57-.182q.21-.182.21-.482 0-.313-.215-.476-.215-.168-.565-.168z" transform="matrix(-.81367 -1.06095 1.06788 .16342 -457.2 -127)" aria-label="8" font-size="4.673" fill="#171717" stroke="#171717" stroke-width=".146"/></g><g style="line-height:1.5;-inkscape-font-specification:Poppins;text-align:center"><path style="-inkscape-font-specification:Poppins;text-align:center" d="M-506.109-377.797q.034-.441.341-.69.307-.25.797-.25.326 0 .561.12.24.115.36.317.125.201.125.455 0 .298-.173.514-.168.216-.442.278v.024q.312.077.495.302.182.226.182.59 0 .274-.125.495-.125.216-.374.34-.25.125-.6.125-.508 0-.835-.264-.326-.268-.364-.758h.422q.034.288.235.47.202.183.537.183.336 0 .509-.173.178-.178.178-.456 0-.36-.24-.518-.24-.158-.725-.158h-.11v-.365h.115q.441-.005.667-.144.225-.144.225-.441 0-.255-.168-.408-.163-.154-.47-.154-.297 0-.48.154-.182.153-.216.412z" transform="matrix(-1.244 .4538 .4321 -.96148 -457.2 -127)" aria-label="3" font-size="4.798" fill="#7f7f7f" stroke="#7f7f7f" stroke-width=".15"/></g></g></svg>