<svg xmlns="http://www.w3.org/2000/svg" viewBox="0 0 25.4 25.4" height="96" width="96"><g font-weight="400" font-family="Poppins" word-spacing="0" text-anchor="middle" stroke-linecap="round" stroke-linejoin="round"><path style="line-height:1.5;-inkscape-font-specification:Poppins;font-variant-ligatures:normal;font-variant-position:normal;font-variant-caps:normal;font-variant-numeric:normal;font-variant-alternates:normal;font-feature-settings:normal;text-indent:0;text-align:center;text-decoration-line:none;text-decoration-style:solid;text-decoration-color:#000;text-transform:none;text-orientation:mixed;white-space:normal;shape-padding:0" d="M13.974 17.11q.206-1.447.279-2.314.066-.874-.049-1.64-.114-.778-.538-1.23-.399-.426-.836-.472-.436-.058-.894.371-.445.418-.43.933.015.502.431.985l-.576.54q-.661-.758-.616-1.55.044-.792.706-1.412.674-.632 1.417-.627.749-.002 1.363.653.51.544.667 1.368.158.811.113 1.591-.05.773-.207 1.892l2.253-2.112.466.498-3.15 2.952z" aria-label="2" font-size="10.559" letter-spacing="-.619" fill="#f2f2f2" stroke="#f2f2f2" stroke-width=".0697"/><path style="line-height:1.5;-inkscape-font-specification:Poppins;font-variant-ligatures:normal;font-variant-position:normal;font-variant-caps:normal;font-variant-numeric:normal;font-variant-alternates:normal;font-feature-settings:normal;text-indent:0;text-align:center;text-decoration-line:none;text-decoration-style:solid;text-decoration-color:#000;text-transform:none;text-orientation:mixed;white-space:normal;shape-padding:0" d="M-284.7 135.128q-.443-.175-.68-.507-.238-.333-.238-.808 0-.428.214-.769.214-.348.634-.546.427-.206 1.03-.206.601 0 1.021.206.428.198.642.546.222.341.222.769 0 .46-.246.808-.245.34-.673.507.49.15.776.53.293.373.293.903 0 .515-.253.903-.254.38-.721.595-.46.205-1.062.205-.602 0-1.061-.205-.452-.214-.705-.595-.254-.388-.254-.903 0-.53.286-.91.285-.38.776-.523zm2.148-1.228q0-.483-.317-.745-.317-.261-.872-.261-.546 0-.863.261-.317.262-.317.753 0 .443.325.713.333.269.855.269.531 0 .856-.27.333-.277.333-.72zm-1.189 1.545q-.586 0-.958.277-.372.27-.372.816 0 .507.356.816.364.308.974.308t.967-.308q.356-.31.356-.816 0-.531-.364-.808-.365-.285-.959-.285z" transform="matrix(-.1303 -.66064 1.11098 .08792 -170.815 -192.405)" aria-label="8" font-size="7.921" letter-spacing="-.464" fill="#f4f4f4" stroke="#f4f4f4" stroke-width=".062"/><g style="line-height:1.5;-inkscape-font-specification:Poppins;font-variant-ligatures:normal;font-variant-position:normal;font-variant-caps:normal;font-variant-numeric:normal;font-variant-alternates:normal;font-feature-settings:normal;text-indent:0;text-align:center;text-decoration-line:none;text-decoration-style:solid;text-decoration-color:#000;text-transform:none;text-orientation:mixed;white-space:normal;shape-padding:0" aria-label="6." font-size="7.953" letter-spacing="-.466" fill="#f4f4f4" stroke="#f4f4f4" stroke-width=".062"><path style="line-height:1.5;-inkscape-font-specification:Poppins;font-variant-ligatures:normal;font-variant-position:normal;font-variant-caps:normal;font-variant-numeric:normal;font-variant-alternates:normal;font-feature-settings:normal;text-indent:0;text-align:center;text-decoration-line:none;text-decoration-style:solid;text-decoration-color:#000;text-transform:none;text-orientation:mixed;white-space:normal;shape-padding:0" d="M252.584 134.418q-.174-.883-1.09-.883-.707 0-1.057.55-.35.54-.342 1.788.183-.413.605-.644.43-.238.954-.238.82 0 1.304.509.493.509.493 1.407 0 .541-.214.97-.207.43-.637.684-.421.255-1.026.255-.819 0-1.28-.366-.461-.366-.644-1.01t-.183-1.59q0-2.92 2.036-2.92.78 0 1.225.422.445.422.525 1.066zm-1.081 1.185q-.342 0-.644.143-.302.135-.493.422-.183.278-.183.684 0 .604.35.986.35.374 1.002.374.556 0 .882-.342.334-.35.334-.939 0-.62-.318-.97-.318-.358-.93-.358zM254.313 138.848q-.206 0-.35-.143-.143-.144-.143-.35 0-.207.144-.35.143-.143.35-.143.198 0 .333.143.144.143.144.35 0 .206-.144.35-.135.143-.334.143z" transform="matrix(.66765 .23046 .06872 1.10588 -170.815 -192.405)"/></g><path style="line-height:1.5;-inkscape-font-specification:Poppins;font-variant-ligatures:normal;font-variant-position:normal;font-variant-caps:normal;font-variant-numeric:normal;font-variant-alternates:normal;font-feature-settings:normal;text-indent:0;text-align:center;text-decoration-line:none;text-decoration-style:solid;text-decoration-color:#000;text-transform:none;text-orientation:mixed;white-space:normal;shape-padding:0" d="M-452.15-965.432h-.972v.632q.064-.09.189-.145.124-.058.268-.058.23 0 .375.097.144.094.205.247.063.15.063.319 0 .199-.075.357-.074.158-.23.25-.152.09-.38.09-.29 0-.47-.149-.18-.15-.219-.399h.247q.036.158.152.247.116.088.294.088.219 0 .33-.13.11-.133.11-.349 0-.216-.11-.332-.111-.12-.328-.12-.146 0-.257.072-.108.07-.158.192h-.238v-1.13h1.205z" transform="matrix(-1.0948 2.47468 .31608 -1.3744 -170.815 -192.405)" aria-label="5" font-size="2.771" letter-spacing="-.162" fill="#8c8c8c" stroke="#8c8c8c" stroke-width=".022"/><g style="line-height:1.5;-inkscape-font-specification:Poppins;font-variant-ligatures:normal;font-variant-position:normal;font-variant-caps:normal;font-variant-numeric:normal;font-variant-alternates:normal;font-feature-settings:normal;text-indent:0;text-align:center;text-decoration-line:none;text-decoration-style:solid;text-decoration-color:#000;text-transform:none;text-orientation:mixed;white-space:normal;shape-padding:0" aria-label="9." font-size="3.139" letter-spacing="-.184" fill="#b6b6b6" stroke="#b6b6b6" stroke-width=".025"><path style="line-height:1.5;-inkscape-font-specification:Poppins;font-variant-ligatures:normal;font-variant-position:normal;font-variant-caps:normal;font-variant-numeric:normal;font-variant-alternates:normal;font-feature-settings:normal;text-indent:0;text-align:center;text-decoration-line:none;text-decoration-style:solid;text-decoration-color:#000;text-transform:none;text-orientation:mixed;white-space:normal;shape-padding:0" d="M359.64-758.549q.032.18.145.277.116.097.31.097.26 0 .383-.204.126-.204.12-.688-.066.142-.22.223-.154.079-.342.079-.21 0-.377-.085-.163-.088-.257-.254t-.094-.402q0-.336.194-.54.195-.207.553-.207.439 0 .615.286.179.285.179.85 0 .396-.073.653-.069.258-.238.393-.166.135-.458.135-.32 0-.5-.173-.178-.173-.203-.44zm.443-.458q.21 0 .345-.129.135-.131.135-.354 0-.236-.132-.38-.132-.144-.37-.144-.22 0-.352.138-.128.138-.128.364 0 .229.128.367.129.138.374.138zM361.205-757.92q-.082 0-.138-.057-.057-.057-.057-.138 0-.082.057-.139.056-.056.138-.056.078 0 .131.056.057.057.057.139 0 .081-.057.138-.053.056-.131.056z" transform="matrix(-1.90262 .78802 -1.14505 .09451 -170.815 -192.405)"/></g></g></svg>