<svg xmlns="http://www.w3.org/2000/svg" viewBox="0 0 25.4 25.4" height="96" width="96"><g font-weight="400" font-family="Poppins" letter-spacing="0" word-spacing="0" text-anchor="middle" stroke-linecap="round" stroke-linejoin="round"><g style="line-height:1.5;-inkscape-font-specification:Poppins;text-align:center"><path style="-inkscape-font-specification:Poppins;text-align:center" d="M9.756 14.131v-.613l3.12-4.32h.97v4.23h.889v.703h-.89v1.431h-.8v-1.43zm3.325-4.09L10.69 13.43h2.391z" aria-label="4" font-size="9.878" fill="#1b1b1b" stroke="#1b1b1b" stroke-width=".15839999999999999"/></g><g style="line-height:1.5;-inkscape-font-specification:Poppins;text-align:center"><path style="-inkscape-font-specification:Poppins;text-align:center" d="M-253.122-35.833l-1.572 3.686h-.52l1.594-3.635h-2.182v-.441h2.68z" transform="matrix(-1.57217 0 0 -.51521 -387.35 1.27)" aria-label="7" font-size="5.655" fill="#141414" fill-opacity=".98" stroke="#141414" stroke-width=".101"/></g><g style="line-height:1.5;-inkscape-font-specification:Poppins;text-align:center"><path style="-inkscape-font-specification:Poppins;text-align:center" d="M511.442-439.445h-2.013v1.308q.132-.184.39-.298.258-.12.556-.12.476 0 .774.2.298.195.424.51.132.31.132.66 0 .413-.154.74-.155.326-.476.515-.316.19-.786.19-.602 0-.975-.31t-.453-.826h.51q.075.327.316.51.24.184.608.184.453 0 .682-.27.23-.275.23-.722 0-.447-.23-.688-.23-.247-.677-.247-.303 0-.533.15-.224.143-.327.395h-.493v-2.34h2.495z" transform="matrix(0 .89912 -.90089 1.02997 -387.35 1.27)" aria-label="5" font-size="5.734" fill="#3d3d3d" stroke="#3c3c3c" stroke-width=".102" stroke-opacity=".992"/></g><g style="line-height:1.5;-inkscape-font-specification:Poppins;text-align:center"><path style="-inkscape-font-specification:Poppins;text-align:center" d="M505.276 448.654v-.476h1.078v4.146h-.528v-3.67z" transform="matrix(0 -.89912 .90089 1.0278 -387.35 1.27)" aria-label="1" font-size="5.734" fill="#181818" stroke="#181818" stroke-width=".102"/></g></g></svg>