<svg xmlns="http://www.w3.org/2000/svg" viewBox="0 0 25.4 25.4" height="96" width="96"><g font-weight="400" font-family="Poppins" letter-spacing="0" word-spacing="0" text-anchor="middle" stroke-width=".176" stroke-linecap="round" stroke-linejoin="round"><g style="line-height:1.5;-inkscape-font-specification:Poppins;text-align:center"><path style="-inkscape-font-specification:Poppins;text-align:center" d="M10.642 11.777v-.468h1.062v4.08h-.52v-3.612zm4.454-.067l-1.57 3.68h-.519l1.592-3.63H12.42v-.44h2.676z" aria-label="17" font-size="5.644" fill="#f2f2f2" stroke="#f2f2f2"/></g><g style="line-height:1.5;-inkscape-font-specification:Poppins;text-align:center"><path style="-inkscape-font-specification:Poppins;text-align:center" d="M-112.06 65.277q.033-.437.337-.685.304-.247.789-.247.323 0 .556.12.237.113.356.313.124.2.124.451 0 .295-.171.508-.167.214-.437.276v.024q.308.076.489.299.18.223.18.584 0 .271-.123.49-.124.213-.37.337-.248.123-.594.123-.504 0-.827-.26-.323-.267-.361-.751h.418q.033.285.233.465.2.18.532.18t.503-.17q.176-.176.176-.452 0-.356-.237-.513-.238-.157-.718-.157h-.109v-.36h.114q.437-.005.66-.143.224-.143.224-.437 0-.252-.167-.404-.161-.152-.465-.152-.295 0-.475.152t-.214.409z" transform="matrix(-.93452 -.17078 -.14027 -1.0957 -76.2 62.442)" aria-label="3" font-size="4.751" fill="#dbdbdb" stroke="#dbdbdb"/></g><g style="line-height:1.5;-inkscape-font-specification:Poppins;text-align:center"><path style="-inkscape-font-specification:Poppins;text-align:center" d="M11.08-92.998v-.398h.902v3.47h-.442v-3.072zm1.65 1.301q0-.826.27-1.287.268-.465.94-.465.667 0 .936.465.269.461.269 1.287 0 .84-.269 1.305-.269.466-.936.466-.672 0-.94-.466-.27-.465-.27-1.305zm1.983 0q0-.418-.058-.706-.053-.293-.225-.47-.168-.178-.49-.178-.326 0-.499.178-.168.177-.226.47-.052.288-.052.706 0 .432.052.724.058.293.226.47.173.178.5.178.32 0 .489-.177.172-.178.225-.47.058-.293.058-.725z" transform="matrix(.34839 .88398 -.85596 .69848 -76.2 62.442)" aria-label="10" font-size="4.799" fill="#f4f4f4" stroke="#f4f4f4"/></g><g style="line-height:1.5;-inkscape-font-specification:Poppins;text-align:center"><path style="-inkscape-font-specification:Poppins;text-align:center" d="M40.802 51.41q-.165-.064-.253-.188-.088-.123-.088-.3 0-.159.08-.285.079-.13.235-.203.158-.076.382-.076.223 0 .379.076.159.074.238.203.082.126.082.285 0 .17-.09.3-.092.127-.25.188.182.056.288.197.108.138.108.335 0 .192-.094.336-.094.14-.267.22-.17.077-.394.077t-.394-.077q-.168-.08-.262-.22-.094-.144-.094-.336 0-.197.106-.338.106-.14.288-.194zm.797-.455q0-.18-.118-.277-.117-.097-.323-.097-.203 0-.32.097-.118.097-.118.28 0 .164.12.264.124.1.318.1.197 0 .317-.1.124-.103.124-.267zm-.441.573q-.218 0-.356.103-.138.1-.138.303 0 .188.132.302.135.115.362.115.226 0 .358-.115.133-.114.133-.302 0-.197-.136-.3-.135-.106-.355-.106z" transform="matrix(-.00186 -.59492 1.67885 -.65577 -76.2 62.442)" aria-label="8" font-size="2.94" fill="#f8f8f8" stroke="#f8f8f8"/></g><g style="line-height:1.5;-inkscape-font-specification:Poppins;text-align:center"><path style="-inkscape-font-specification:Poppins;text-align:center" d="M72.479 136.808v-.248h.562v2.161h-.275v-1.913zm2.406-.012h-1.05v.682q.07-.096.204-.156.134-.062.29-.062.248 0 .403.104.156.102.221.266.07.162.07.344 0 .215-.082.385-.08.17-.248.27-.164.098-.41.098-.313 0-.507-.161-.194-.162-.236-.43h.266q.039.17.164.265.126.096.317.096.236 0 .356-.14.12-.144.12-.377t-.12-.359q-.12-.128-.353-.128-.158 0-.278.077-.117.075-.17.207h-.257v-1.22h1.3z" transform="matrix(-.96273 -1.15093 1.12634 .30782 -76.2 62.442)" aria-label="15" font-size="2.989" fill="#d3d3d3" stroke="#d3d3d3"/></g><g style="line-height:1.5;-inkscape-font-specification:Poppins;text-align:center"><path style="-inkscape-font-specification:Poppins;text-align:center" d="M-6.465-93.036l-1.289 3.022h-.426l1.307-2.98h-1.79v-.362h2.198z" transform="matrix(.61351 .73798 -1.0149 .40915 -76.2 62.442)" aria-label="7" font-size="4.635" fill="#b6b6b6" stroke="#b6b6b6"/></g><g style="line-height:1.5;-inkscape-font-specification:Poppins;text-align:center"><path style="-inkscape-font-specification:Poppins;text-align:center" d="M-121.449-113.09v-.25h.568v2.183h-.278v-1.933zm1.033.3q.02-.279.214-.436.193-.157.501-.157.206 0 .354.076.15.072.226.2.079.126.079.286 0 .187-.11.323-.105.136-.277.175v.015q.196.049.311.19.115.143.115.372 0 .172-.079.311-.078.136-.235.214-.157.079-.378.079-.32 0-.525-.166-.205-.17-.23-.477h.266q.021.18.148.296.127.114.338.114.212 0 .32-.108.112-.112.112-.287 0-.227-.15-.326-.152-.1-.457-.1h-.07v-.23h.073q.278-.002.42-.09.142-.09.142-.278 0-.16-.106-.256-.103-.097-.296-.097-.187 0-.302.097-.114.096-.136.26z" transform="matrix(-.54286 1.42046 -.289 -1.0859 -76.2 62.442)" aria-label="13" font-size="3.019" fill="#bdbdbd" stroke="#bdbdbd"/></g><g style="line-height:1.5;-inkscape-font-specification:Poppins;text-align:center"><path style="-inkscape-font-specification:Poppins;text-align:center" d="M-18.624-68.621v-.25h.566v2.176h-.277v-1.926z" transform="matrix(-.93035 1.14205 -1.13608 .31973 -76.2 62.442)" aria-label="1" font-size="3.009" fill="#8c8c8c" stroke="#8c8c8c"/></g><g style="line-height:1.5;-inkscape-font-specification:Poppins;text-align:center"><path style="-inkscape-font-specification:Poppins;text-align:center" d="M-78.2-134.771v-.243h.551v2.117h-.269v-1.874zm.976 1.66q.372-.299.583-.49.21-.192.354-.4.146-.211.146-.413 0-.19-.093-.299-.091-.111-.296-.111-.2 0-.31.126-.109.123-.118.33h-.257q.012-.327.199-.506t.483-.179q.302 0 .477.167.179.167.179.46 0 .243-.146.474-.144.229-.328.405-.185.172-.472.404h1.007v.222h-1.408z" transform="matrix(.00568 1.67045 -.60068 -.59857 -76.2 62.442)" aria-label="12" font-size="2.928" fill="#f3f3f3" stroke="#f3f3f3"/></g><g style="line-height:1.5;-inkscape-font-specification:Poppins;text-align:center"><path style="-inkscape-font-specification:Poppins;text-align:center" d="M30.04 166.71v-.242h.547v2.103h-.267v-1.862zm2.173.258q-.064-.323-.398-.323-.26 0-.387.201-.128.198-.125.654.067-.15.22-.235.158-.087.35-.087.3 0 .477.186.18.186.18.515 0 .197-.078.354-.076.157-.233.25-.154.094-.375.094-.3 0-.469-.134-.168-.134-.235-.37-.067-.235-.067-.581 0-1.068.744-1.068.286 0 .448.155.163.154.192.39zm-.396.434q-.125 0-.235.052-.11.05-.18.154-.067.102-.067.25 0 .221.128.36.128.138.366.138.204 0 .323-.126.122-.127.122-.343 0-.227-.116-.355-.117-.13-.34-.13z" transform="matrix(-1.49875 -.86902 .83287 -.1843 -76.2 62.442)" aria-label="16" font-size="2.908" fill="#f4f4f4" stroke="#f4f4f4"/></g></g></svg>