<svg xmlns="http://www.w3.org/2000/svg" viewBox="0 0 25.4 25.4" height="96" width="96"><g font-weight="400" font-family="Poppins" word-spacing="0" text-anchor="middle" stroke-width=".176" stroke-linecap="round" stroke-linejoin="round"><g style="line-height:1.5;-inkscape-font-specification:Poppins;text-align:center" aria-label="6." font-size="5.644" letter-spacing="0" fill="#f2f2f2" stroke="#f2f2f2"><path style="-inkscape-font-specification:Poppins;text-align:center" d="M13.112 12.28q-.124-.627-.773-.627-.503 0-.751.39-.249.384-.243 1.27.13-.294.43-.457.304-.17.676-.17.582 0 .926.361.35.362.35 1 0 .383-.152.688-.147.305-.452.486-.299.18-.728.18-.581 0-.909-.26-.327-.26-.457-.716-.13-.457-.13-1.13 0-2.07 1.445-2.07.553 0 .87.298.316.3.372.757zm-.768.84q-.243 0-.457.102-.214.096-.35.3-.13.197-.13.485 0 .429.249.7.248.265.71.265.396 0 .627-.242.237-.249.237-.667 0-.44-.225-.688-.226-.254-.66-.254zM14.67 15.424q-.147 0-.249-.102-.101-.101-.101-.248t.101-.249q.102-.101.249-.101.14 0 .237.101.101.102.101.249 0 .147-.101.248-.096.102-.237.102z"/></g><g style="line-height:1.5;-inkscape-font-specification:Poppins;text-align:center" aria-label="16" font-size="4.751" letter-spacing="0" fill="#dbdbdb" stroke="#dbdbdb"><path style="-inkscape-font-specification:Poppins;text-align:center" d="M-419.173 112.521v-.394h.893v3.435h-.437v-3.04zM-415.624 112.944q-.105-.527-.651-.527-.423 0-.632.328-.21.323-.204 1.069.109-.247.36-.385.257-.143.57-.143.49 0 .78.304.294.304.294.841 0 .323-.128.58-.123.256-.38.408-.252.152-.613.152-.49 0-.765-.218-.275-.219-.384-.604-.11-.384-.11-.95 0-1.743 1.216-1.743.466 0 .732.252.266.251.314.636zm-.647.708q-.204 0-.384.086-.18.08-.295.251-.11.167-.11.409 0 .361.21.589.209.223.598.223.333 0 .528-.204.2-.209.2-.56 0-.371-.19-.58-.19-.214-.557-.214z" transform="matrix(-.93452 -.17078 -.14027 -1.0957 -355.6 62.442)"/></g><g style="line-height:1.5;-inkscape-font-specification:Poppins;text-align:center" aria-label="9." font-size="4.799" letter-spacing="0" fill="#f4f4f4" stroke="#f4f4f4"><path style="-inkscape-font-specification:Poppins;text-align:center" d="M207.171-337.843q.048.274.221.423.178.149.475.149.399 0 .586-.312.192-.312.182-1.051-.1.216-.336.34-.235.12-.523.12-.322 0-.576-.13-.25-.134-.393-.388-.144-.254-.144-.614 0-.514.297-.826.298-.317.845-.317.672 0 .94.437.274.437.274 1.3 0 .605-.11.999-.106.394-.365.6-.254.206-.7.206-.49 0-.764-.264-.273-.264-.312-.672zm.677-.7q.322 0 .528-.197.206-.202.206-.542 0-.36-.201-.581-.202-.22-.567-.22-.335 0-.537.21-.197.211-.197.557 0 .35.197.562.197.21.571.21zM209.845-336.883q-.125 0-.212-.086-.086-.087-.086-.211 0-.125.086-.211.087-.087.212-.087.12 0 .201.087.087.086.087.21 0 .126-.087.212-.081.086-.201.086z" transform="matrix(.34839 .88398 -.85596 .69848 -355.6 62.442)"/></g><g style="line-height:1.5;-inkscape-font-specification:Poppins;text-align:center" aria-label="19" font-size="2.94" letter-spacing="0" fill="#f8f8f8" stroke="#f8f8f8"><path style="-inkscape-font-specification:Poppins;text-align:center" d="M-143.347 216.855v-.244h.553v2.125h-.27v-1.881zM-141.992 218.166q.03.168.135.259.11.09.292.09.244 0 .358-.19.118-.191.112-.644-.062.132-.206.209-.144.073-.32.073-.197 0-.353-.08-.153-.082-.241-.237-.088-.156-.088-.377 0-.314.182-.506.182-.194.517-.194.412 0 .577.268.167.268.167.797 0 .37-.067.611-.065.241-.224.368-.156.126-.43.126-.299 0-.467-.161-.167-.162-.19-.412zm.415-.43q.197 0 .323-.12.127-.123.127-.332 0-.22-.124-.356-.123-.135-.347-.135-.206 0-.33.13-.12.129-.12.34 0 .215.12.344.121.13.35.13z" transform="matrix(-.00186 -.59492 1.67885 -.65577 -355.6 62.442)"/></g><g style="line-height:1.5;-inkscape-font-specification:Poppins;text-align:center"><path style="-inkscape-font-specification:Poppins;text-align:center" d="M158.965 459.81v-.205l1.05-1.453h.325v1.423h.299v.236h-.3v.48h-.268v-.48zm1.118-1.374l-.804 1.139h.804z" transform="matrix(-.96273 -1.15093 1.12634 .30782 -355.6 62.442)" aria-label="4" font-size="2.989" letter-spacing="0" fill="#d3d3d3" stroke="#d3d3d3"/></g><g style="line-height:1.5;-inkscape-font-specification:Poppins;text-align:center" aria-label="14" font-size="4.635" letter-spacing="0" fill="#b6b6b6" stroke="#b6b6b6"><path style="-inkscape-font-specification:Poppins;text-align:center" d="M104.745-299.172v-.384h.871v3.35h-.426v-2.966zM106.237-296.952v-.32l1.627-2.252h.505v2.206h.464v.366h-.464v.747h-.417v-.747zm1.734-2.132l-1.247 1.766h1.247z" transform="matrix(.61351 .73798 -1.0149 .40915 -355.6 62.442)"/></g><g style="line-height:1.5;-inkscape-font-specification:Poppins;text-align:center"><path style="-inkscape-font-specification:Poppins;text-align:center" d="M-423.958-509.17q-.17-.066-.26-.193t-.09-.308q0-.163.08-.293.082-.133.242-.208.164-.079.393-.079.23 0 .39.079.163.075.244.208.085.13.085.293 0 .175-.094.308-.094.13-.257.193.188.057.296.202.112.142.112.345 0 .196-.097.344-.096.145-.274.226-.176.079-.405.079-.23 0-.405-.079-.172-.081-.268-.226-.097-.148-.097-.344 0-.203.109-.348.108-.145.296-.199zm.818-.468q0-.184-.12-.284-.122-.1-.333-.1-.208 0-.33.1-.12.1-.12.287 0 .17.124.272.127.102.326.102.202 0 .326-.102.127-.106.127-.275zm-.453.589q-.223 0-.365.105-.142.103-.142.311 0 .194.136.311.139.118.371.118.233 0 .368-.118.136-.117.136-.31 0-.203-.139-.308-.138-.11-.365-.11z" transform="matrix(-.54286 1.42046 -.289 -1.0859 -355.6 62.442)" aria-label="8" font-size="3.019" letter-spacing="0" fill="#bdbdbd" stroke="#bdbdbd"/></g><g style="line-height:1.5;-inkscape-font-specification:Poppins;text-align:center" aria-label="20" font-size="3.009" letter-spacing="0" fill="#8c8c8c" stroke="#8c8c8c"><path style="-inkscape-font-specification:Poppins;text-align:center" d="M69.42-386.005q.382-.307.599-.503.217-.198.364-.412.15-.216.15-.424 0-.196-.096-.307-.093-.114-.304-.114-.204 0-.319.129-.111.126-.12.34h-.265q.012-.337.205-.52.192-.184.496-.184.31 0 .49.171.184.172.184.473 0 .25-.15.487-.148.235-.337.416-.19.177-.485.415h1.035v.228H69.42zM71.183-386.896q0-.517.169-.806.168-.292.59-.292.418 0 .586.292.169.289.169.806 0 .527-.169.819-.168.292-.586.292-.422 0-.59-.292-.169-.292-.169-.819zm1.243 0q0-.262-.036-.442-.033-.184-.141-.295-.106-.111-.307-.111-.205 0-.313.111-.106.111-.142.295-.033.18-.033.442 0 .271.033.455.036.183.142.294.108.112.313.112.201 0 .307-.112.108-.11.141-.294.036-.184.036-.455z" transform="matrix(-.93035 1.14205 -1.13608 .31973 -355.6 62.442)"/></g><g style="line-height:1.5;-inkscape-font-specification:Poppins;text-align:center" aria-label="11" font-size="2.928" letter-spacing=".529" fill="#f3f3f3" stroke="#f3f3f3"><path style="-inkscape-font-specification:Poppins;text-align:center" d="M-245.332-601.496v-.243h.55v2.117h-.269v-1.874zM-243.866-601.496v-.243h.55v2.117h-.268v-1.874z" transform="matrix(.00568 1.67045 -.60068 -.59857 -355.6 62.442)"/></g><g style="line-height:1.5;-inkscape-font-specification:Poppins;text-align:center"><path style="-inkscape-font-specification:Poppins;text-align:center" d="M-20.856 409.801q.02-.267.207-.418.186-.152.482-.152.198 0 .34.073.146.07.219.192.075.122.075.276 0 .18-.104.311-.102.131-.268.17v.014q.19.046.3.183.11.137.11.358 0 .165-.075.3-.076.13-.227.206-.152.075-.364.075-.308 0-.506-.16-.198-.163-.22-.46h.255q.02.175.143.286.122.11.325.11.204 0 .309-.104.107-.108.107-.277 0-.218-.145-.314-.146-.096-.44-.096h-.066v-.22h.07q.267-.004.404-.088.136-.087.136-.268 0-.154-.101-.247-.1-.093-.285-.093-.18 0-.291.093-.11.093-.131.25z" transform="matrix(-1.49875 -.86902 .83287 -.1843 -355.6 62.442)" aria-label="3" font-size="2.908" letter-spacing="0" fill="#f4f4f4" stroke="#f4f4f4"/></g></g></svg>