<svg xmlns="http://www.w3.org/2000/svg" viewBox="0 0 25.4 25.4" height="96" width="96"><g font-weight="400" font-family="Poppins" word-spacing="0" text-anchor="middle" stroke-linecap="round" stroke-linejoin="round"><g style="line-height:1.5;-inkscape-font-specification:Poppins;font-variant-ligatures:normal;font-variant-position:normal;font-variant-caps:normal;font-variant-numeric:normal;font-variant-alternates:normal;font-feature-settings:normal;text-indent:0;text-align:center;text-decoration-line:none;text-decoration-style:solid;text-decoration-color:#000;text-transform:none;text-orientation:mixed;white-space:normal;shape-padding:0" aria-label="9." font-size="10.559" letter-spacing="-.619" fill="#f2f2f2" stroke="#f2f2f2" stroke-width=".082"><path style="line-height:1.5;-inkscape-font-specification:Poppins;font-variant-ligatures:normal;font-variant-position:normal;font-variant-caps:normal;font-variant-numeric:normal;font-variant-alternates:normal;font-feature-settings:normal;text-indent:0;text-align:center;text-decoration-line:none;text-decoration-style:solid;text-decoration-color:#000;text-transform:none;text-orientation:mixed;white-space:normal;shape-padding:0" d="M13.394 16.166q.416.312.842.294.432-.024.838-.405.544-.509.4-1.174-.137-.671-1.095-1.667.138.423-.023.894-.167.465-.56.833-.439.411-.952.56-.512.136-1.034-.027t-.982-.654q-.657-.701-.65-1.507.001-.813.748-1.513.916-.859 1.842-.607.932.246 2.036 1.425.774.825 1.126 1.503.36.672.27 1.285-.083.607-.692 1.178-.668.626-1.379.616-.71-.01-1.285-.518zm.027-1.821q.44-.411.469-.944.024-.539-.412-1.004-.46-.49-1.018-.534-.557-.044-1.055.423-.458.43-.463.975.002.54.443 1.012.449.478.987.514.539.036 1.05-.442zM17.885 14.417q-.17.16-.398.152-.229-.007-.388-.178-.16-.17-.152-.398.007-.229.177-.388.164-.154.386-.14.228.007.388.178.16.17.152.398 0 .222-.165.376z" stroke-width=".0697"/></g><path style="line-height:1.5;-inkscape-font-specification:Poppins;font-variant-ligatures:normal;font-variant-position:normal;font-variant-caps:normal;font-variant-numeric:normal;font-variant-alternates:normal;font-feature-settings:normal;text-indent:0;text-align:center;text-decoration-line:none;text-decoration-style:solid;text-decoration-color:#000;text-transform:none;text-orientation:mixed;white-space:normal;shape-padding:0" d="M-266.312 271.226v-.657h1.49v5.727h-.73v-5.07z" transform="matrix(-.1303 -.66064 1.11098 .08792 -321.945 -192.405)" aria-label="1" font-size="7.921" letter-spacing="-.464" fill="#f4f4f4" stroke="#f4f4f4" stroke-width=".062"/><path style="line-height:1.5;-inkscape-font-specification:Poppins;font-variant-ligatures:normal;font-variant-position:normal;font-variant-caps:normal;font-variant-numeric:normal;font-variant-alternates:normal;font-feature-settings:normal;text-indent:0;text-align:center;text-decoration-line:none;text-decoration-style:solid;text-decoration-color:#000;text-transform:none;text-orientation:mixed;white-space:normal;shape-padding:0" d="M485 85.471h-2.792v1.813q.183-.254.541-.413.358-.167.772-.167.66 0 1.073.278.414.27.589.708.183.43.183.914 0 .573-.215 1.026-.215.454-.66.716-.437.263-1.09.263-.835 0-1.352-.43-.517-.43-.628-1.145h.708q.103.453.437.708.334.254.843.254.629 0 .947-.374.318-.381.318-1.002 0-.62-.318-.954-.318-.342-.939-.342-.421 0-.74.207-.31.199-.453.549h-.684v-3.245H485z" transform="matrix(.66765 .23046 .06872 1.10588 -321.945 -192.405)" aria-label="5" font-size="7.953" letter-spacing="-.466" fill="#f4f4f4" stroke="#f4f4f4" stroke-width=".062"/><g style="line-height:1.5;-inkscape-font-specification:Poppins;font-variant-ligatures:normal;font-variant-position:normal;font-variant-caps:normal;font-variant-numeric:normal;font-variant-alternates:normal;font-feature-settings:normal;text-indent:0;text-align:center;text-decoration-line:none;text-decoration-style:solid;text-decoration-color:#000;text-transform:none;text-orientation:mixed;white-space:normal;shape-padding:0" aria-label="6." font-size="2.771" letter-spacing="-.162" fill="#8c8c8c" stroke="#8c8c8c" stroke-width=".022"><path style="line-height:1.5;-inkscape-font-specification:Poppins;font-variant-ligatures:normal;font-variant-position:normal;font-variant-caps:normal;font-variant-numeric:normal;font-variant-alternates:normal;font-feature-settings:normal;text-indent:0;text-align:center;text-decoration-line:none;text-decoration-style:solid;text-decoration-color:#000;text-transform:none;text-orientation:mixed;white-space:normal;shape-padding:0" d="M-740.02-1482.82q-.061-.307-.38-.307-.247 0-.369.19-.121.19-.119.624.064-.144.21-.224.15-.083.333-.083.286 0 .455.177.172.177.172.49 0 .189-.075.338-.072.15-.222.239-.147.089-.357.089-.286 0-.446-.128-.161-.127-.225-.352-.064-.224-.064-.554 0-1.017.71-1.017.271 0 .426.147.156.147.183.372zm-.377.413q-.12 0-.225.05-.105.047-.172.147-.063.097-.063.238 0 .21.122.344.122.13.349.13.194 0 .307-.12.117-.121.117-.326 0-.216-.111-.338-.11-.125-.324-.125zM-739.418-1481.277q-.072 0-.122-.05t-.05-.121q0-.072.05-.122t.122-.05q.07 0 .116.05.05.05.05.121 0 .073-.05.122-.047.05-.116.05z" transform="matrix(-1.0948 2.47468 .31608 -1.3744 -321.945 -192.405)"/></g><path style="line-height:1.5;-inkscape-font-specification:Poppins;font-variant-ligatures:normal;font-variant-position:normal;font-variant-caps:normal;font-variant-numeric:normal;font-variant-alternates:normal;font-feature-settings:normal;text-indent:0;text-align:center;text-decoration-line:none;text-decoration-style:solid;text-decoration-color:#000;text-transform:none;text-orientation:mixed;white-space:normal;shape-padding:0" d="M379.332-923.004q.399-.32.625-.524.226-.207.38-.43.157-.226.157-.443 0-.204-.1-.32-.098-.12-.318-.12-.213 0-.332.136-.117.132-.126.355h-.276q.012-.352.213-.543.201-.192.518-.192.323 0 .512.179.191.179.191.493 0 .26-.157.508-.154.245-.351.433-.198.186-.506.434h1.08v.238h-1.51z" transform="matrix(-1.90262 .78802 -1.14505 .09451 -321.945 -192.405)" aria-label="2" font-size="3.139" letter-spacing="-.184" fill="#b6b6b6" stroke="#b6b6b6" stroke-width=".025"/></g></svg>