<svg xmlns="http://www.w3.org/2000/svg" viewBox="0 0 25.4 25.4" height="96" width="96"><g font-weight="400" font-family="Poppins" letter-spacing="0" word-spacing="0" text-anchor="middle" stroke-linecap="round" stroke-linejoin="round"><g style="line-height:1.5;-inkscape-font-specification:Poppins;text-align:center"><path d="M11.593 12.214q-.498-.195-.765-.569-.267-.373-.267-.906 0-.48.24-.863.24-.391.712-.613.48-.231 1.155-.231.676 0 1.147.23.48.223.72.614.25.382.25.863 0 .515-.276.906-.276.383-.756.57.551.168.871.595.329.418.329 1.013 0 .578-.284 1.014-.285.427-.81.667-.515.23-1.19.23-.676 0-1.192-.23-.507-.24-.791-.667-.285-.436-.285-1.014 0-.595.32-1.022.32-.427.872-.587zm2.409-1.378q0-.542-.356-.835-.355-.294-.978-.294-.613 0-.969.294-.355.293-.355.844 0 .498.364.8.374.303.96.303.596 0 .96-.303.374-.31.374-.809zm-1.334 1.734q-.658 0-1.075.311-.418.302-.418.916 0 .569.4.915.409.347 1.093.347.685 0 1.085-.347.4-.346.4-.915 0-.596-.409-.907-.409-.32-1.076-.32z" style="-inkscape-font-specification:Poppins;text-align:center" aria-label="8" font-size="9.878" fill="#f2f2f2" stroke="#f2f2f2" stroke-width=".15839999999999999"/></g><g style="line-height:1.5;-inkscape-font-specification:Poppins;text-align:center"><path d="M-197.61-35.206q.04-.52.402-.814.362-.294.939-.294.384 0 .661.141.283.136.424.374.147.237.147.537 0 .35-.203.605-.198.254-.52.328v.028q.367.09.582.356.215.266.215.696 0 .322-.147.582-.147.255-.441.402-.294.147-.707.147-.6 0-.984-.311-.385-.317-.43-.894h.498q.04.34.277.554.237.215.633.215t.6-.203q.209-.21.209-.537 0-.425-.283-.611-.283-.187-.854-.187h-.13v-.43h.136q.52-.005.786-.17.266-.169.266-.52 0-.299-.198-.48-.193-.18-.554-.18-.351 0-.566.18-.215.181-.254.486z" style="-inkscape-font-specification:Poppins;text-align:center" transform="matrix(-1.57217 0 0 -.51521 -295.91 1.264)" aria-label="3" font-size="5.655" fill="#b6b6b6" stroke="#b6b6b6" stroke-width=".101"/></g><g style="line-height:1.5;-inkscape-font-specification:Poppins;text-align:center"><path d="M393.272-337.922v-.476h1.078v4.146h-.528v-3.67z" style="-inkscape-font-specification:Poppins;text-align:center" transform="matrix(0 .89912 -.90089 1.02997 -295.91 1.264)" aria-label="1" font-size="5.734" fill="#f4f4f4" stroke="#f4f4f4" stroke-width=".102"/></g><g style="line-height:1.5;-inkscape-font-specification:Poppins;text-align:center"><path d="M391.147 347.13h-2.012v1.308q.131-.183.39-.298.258-.12.556-.12.476 0 .774.2.298.195.424.51.132.31.132.66 0 .413-.155.74-.154.327-.476.516-.315.19-.785.19-.602 0-.975-.31t-.453-.826h.51q.075.327.316.51.24.184.608.184.453 0 .682-.27.23-.275.23-.722 0-.448-.23-.688-.23-.247-.677-.247-.304 0-.533.15-.224.143-.327.395h-.493v-2.34h2.494z" style="-inkscape-font-specification:Poppins;text-align:center" transform="matrix(0 -.89912 .90089 1.0278 -295.91 1.264)" aria-label="5" font-size="5.734" fill="#dbdbdb" stroke="#dbdbdb" stroke-width=".102"/></g></g></svg>