<svg xmlns="http://www.w3.org/2000/svg" viewBox="0 0 25.4 25.4" height="96" width="96"><g font-weight="400" font-family="Poppins" word-spacing="0" text-anchor="middle" stroke-linecap="round" stroke-linejoin="round"><path style="line-height:1.5;-inkscape-font-specification:Poppins;font-variant-ligatures:normal;font-variant-position:normal;font-variant-caps:normal;font-variant-numeric:normal;font-variant-alternates:normal;font-feature-settings:normal;text-indent:0;text-align:center;text-decoration-line:none;text-decoration-style:solid;text-decoration-color:#000;text-transform:none;text-orientation:mixed;white-space:normal;shape-padding:0" d="M13.387 10.637l-2.298 2.155 1.399 1.493q-.046-.351.126-.758.166-.414.506-.733.544-.51 1.1-.6.548-.096 1.03.13.482.212.856.611.442.471.615 1.01.174.54.01 1.1-.158.553-.695 1.056-.688.645-1.445.69-.757.045-1.4-.458l.582-.546q.435.293.906.245.472-.048.89-.441.518-.485.492-1.038-.033-.56-.512-1.07-.479-.512-.998-.541-.526-.036-1.037.443-.347.325-.45.74-.101.404.05.802l-.562.528-2.504-2.672 2.848-2.67z" aria-label="5" font-size="10.559" letter-spacing="-.619" fill="#f2f2f2" stroke="#f2f2f2" stroke-width=".0697"/><g style="line-height:1.5;-inkscape-font-specification:Poppins;font-variant-ligatures:normal;font-variant-position:normal;font-variant-caps:normal;font-variant-numeric:normal;font-variant-alternates:normal;font-feature-settings:normal;text-indent:0;text-align:center;text-decoration-line:none;text-decoration-style:solid;text-decoration-color:#000;text-transform:none;text-orientation:mixed;white-space:normal;shape-padding:0" aria-label="9." font-size="7.921" letter-spacing="-.464" fill="#f4f4f4" stroke="#f4f4f4" stroke-width=".062"><path style="line-height:1.5;-inkscape-font-specification:Poppins;font-variant-ligatures:normal;font-variant-position:normal;font-variant-caps:normal;font-variant-numeric:normal;font-variant-alternates:normal;font-feature-settings:normal;text-indent:0;text-align:center;text-decoration-line:none;text-decoration-style:solid;text-decoration-color:#000;text-transform:none;text-orientation:mixed;white-space:normal;shape-padding:0" d="M-277.532 195.793q.08.452.365.698.293.245.784.245.657 0 .966-.515.317-.515.301-1.735-.166.357-.554.563-.388.198-.864.198-.53 0-.95-.214-.412-.222-.65-.642-.237-.42-.237-1.014 0-.847.49-1.362.492-.523 1.395-.523 1.109 0 1.552.721.452.72.452 2.147 0 .998-.182 1.647-.175.65-.602.99-.42.341-1.157.341-.808 0-1.26-.436-.45-.435-.514-1.109zm1.117-1.156q.53 0 .871-.325.341-.333.341-.895 0-.594-.333-.958-.332-.365-.934-.365-.555 0-.887.349-.325.348-.325.919 0 .578.324.926.325.349.943.349zM-273.584 197.378q-.206 0-.348-.143-.143-.142-.143-.348t.143-.349q.142-.143.348-.143.198 0 .333.143.142.143.142.349t-.142.348q-.135.143-.333.143z" transform="matrix(-.1303 -.66064 1.11098 .08792 -235.585 -192.405)"/></g><path style="line-height:1.5;-inkscape-font-specification:Poppins;font-variant-ligatures:normal;font-variant-position:normal;font-variant-caps:normal;font-variant-numeric:normal;font-variant-alternates:normal;font-feature-settings:normal;text-indent:0;text-align:center;text-decoration-line:none;text-decoration-style:solid;text-decoration-color:#000;text-transform:none;text-orientation:mixed;white-space:normal;shape-padding:0" d="M349.288 113.837q.055-.731.564-1.145.51-.413 1.32-.413.541 0 .93.198.398.191.597.525.207.334.207.756 0 .493-.286.85-.279.359-.732.462v.04q.517.127.82.5.301.375.301.979 0 .453-.206.82-.207.357-.62.564-.414.207-.995.207-.843 0-1.384-.438-.54-.445-.604-1.256h.7q.056.477.39.779.334.302.89.302.557 0 .843-.286.295-.294.295-.756 0-.596-.398-.859-.398-.262-1.201-.262h-.183v-.604h.191q.732-.008 1.105-.239.374-.239.374-.732 0-.421-.278-.676-.27-.254-.78-.254-.493 0-.795.254-.302.255-.358.684z" transform="matrix(.66765 .23046 .06872 1.10588 -235.585 -192.405)" aria-label="3" font-size="7.953" letter-spacing="-.466" fill="#f4f4f4" stroke="#f4f4f4" stroke-width=".062"/><path style="line-height:1.5;-inkscape-font-specification:Poppins;font-variant-ligatures:normal;font-variant-position:normal;font-variant-caps:normal;font-variant-numeric:normal;font-variant-alternates:normal;font-feature-settings:normal;text-indent:0;text-align:center;text-decoration-line:none;text-decoration-style:solid;text-decoration-color:#000;text-transform:none;text-orientation:mixed;white-space:normal;shape-padding:0" d="M-576.594-1185.698q.352-.283.551-.463.2-.183.336-.38.138-.199.138-.39 0-.18-.089-.283-.085-.105-.28-.105-.188 0-.293.12-.103.116-.11.312h-.245q.011-.31.189-.479.177-.169.457-.169.285 0 .451.158.17.158.17.435 0 .23-.139.449-.136.216-.31.382-.175.164-.446.382h.953v.211h-1.333z" transform="matrix(-1.0948 2.47468 .31608 -1.3744 -235.585 -192.405)" aria-label="2" font-size="2.771" letter-spacing="-.162" fill="#8c8c8c" stroke="#8c8c8c" stroke-width=".022"/><path style="line-height:1.5;-inkscape-font-specification:Poppins;font-variant-ligatures:normal;font-variant-position:normal;font-variant-caps:normal;font-variant-numeric:normal;font-variant-alternates:normal;font-feature-settings:normal;text-indent:0;text-align:center;text-decoration-line:none;text-decoration-style:solid;text-decoration-color:#000;text-transform:none;text-orientation:mixed;white-space:normal;shape-padding:0" d="M368.396-829.763q-.176-.07-.27-.201-.094-.132-.094-.32 0-.17.085-.305.085-.138.25-.217.17-.081.409-.081.238 0 .405.081.17.079.254.217.088.135.088.305 0 .182-.097.32-.098.135-.267.2.194.06.307.21.117.148.117.359 0 .204-.1.357-.101.151-.286.236-.183.081-.421.081-.239 0-.42-.081-.18-.085-.28-.236-.1-.153-.1-.357 0-.21.113-.361t.307-.207zm.85-.487q0-.191-.125-.295-.125-.104-.345-.104-.217 0-.342.104-.126.104-.126.298 0 .176.129.283.132.106.339.106.21 0 .339-.106.132-.11.132-.286zm-.47.612q-.232 0-.38.11-.147.107-.147.323 0 .201.141.324.144.122.386.122.242 0 .383-.122.141-.123.141-.324 0-.21-.144-.32-.145-.113-.38-.113z" transform="matrix(-1.90262 .78802 -1.14505 .09451 -235.585 -192.405)" aria-label="8" font-size="3.139" letter-spacing="-.184" fill="#b6b6b6" stroke="#b6b6b6" stroke-width=".025"/></g></svg>