<svg xmlns="http://www.w3.org/2000/svg" viewBox="0 0 25.4 25.4" height="96" width="96"><g font-weight="400" font-family="Poppins" letter-spacing="0" word-spacing="0" text-anchor="middle" stroke-linecap="round" stroke-linejoin="round"><path d="M13.58 10.658q-.196-.986-1.218-.986-.791 0-1.183.613-.39.605-.382 2 .205-.462.676-.72.48-.266 1.067-.266.915 0 1.458.569.55.568.55 1.573 0 .605-.24 1.085-.23.48-.71.764-.472.285-1.147.285-.916 0-1.432-.41-.515-.408-.72-1.128-.204-.72-.204-1.778 0-3.263 2.276-3.263.87 0 1.369.471.498.471.587 1.191zm-1.21 1.325q-.382 0-.72.16-.337.151-.55.471-.205.311-.205.765 0 .675.391 1.102.391.418 1.12.418.623 0 .987-.382.373-.391.373-1.05 0-.693-.355-1.084-.356-.4-1.04-.4zM15.504 15.61q-.23 0-.391-.16-.16-.16-.16-.391t.16-.391q.16-.16.391-.16.222 0 .374.16.16.16.16.391t-.16.391q-.152.16-.374.16z" style="line-height:1.5;-inkscape-font-specification:Poppins;text-align:center" font-size="9.878" fill="#f2f2f2" stroke="#f2f2f2" stroke-width=".158"/><g style="line-height:1.5;-inkscape-font-specification:Poppins;text-align:center"><path style="-inkscape-font-specification:Poppins;text-align:center" d="M-226.054-35.765v-.47h1.063v4.088h-.52v-3.618z" transform="matrix(-1.57217 0 0 -.51521 -341.63 1.264)" aria-label="1" font-size="5.655" fill="#b6b6b6" stroke="#b6b6b6" stroke-width=".101"/></g><g style="line-height:1.5;-inkscape-font-specification:Poppins;text-align:center"><path style="-inkscape-font-specification:Poppins;text-align:center" d="M450.763-388.104q.04-.528.407-.826.367-.298.952-.298.39 0 .67.143.287.138.43.379.15.24.15.545 0 .355-.207.613-.2.258-.527.333v.029q.372.091.59.36.218.27.218.706 0 .327-.149.59-.149.259-.447.408-.298.149-.717.149-.608 0-.998-.315-.39-.322-.436-.906h.505q.04.344.281.562.24.217.642.217t.608-.206q.212-.212.212-.545 0-.43-.286-.62-.287-.188-.866-.188h-.132v-.436h.137q.528-.006.798-.172.27-.172.27-.528 0-.304-.202-.487-.195-.184-.562-.184-.355 0-.573.184-.218.183-.258.493z" transform="matrix(0 .89912 -.90089 1.02997 -341.63 1.264)" aria-label="3" font-size="5.734" fill="#f4f4f4" stroke="#f4f4f4" stroke-width=".102"/></g><g style="line-height:1.5;-inkscape-font-specification:Poppins;text-align:center"><path style="-inkscape-font-specification:Poppins;text-align:center" d="M449.304 397.835l-1.594 3.739h-.528l1.617-3.687h-2.213v-.448h2.718z" transform="matrix(0 -.89912 .90089 1.0278 -341.63 1.264)" aria-label="7" font-size="5.734" fill="#dbdbdb" stroke="#dbdbdb" stroke-width=".102"/></g></g></svg>