<svg xmlns="http://www.w3.org/2000/svg" viewBox="0 0 25.4 25.4" height="96" width="96"><g font-weight="400" font-family="Poppins" word-spacing="0" text-anchor="middle" stroke-linecap="round" stroke-linejoin="round"><path style="line-height:1.5;-inkscape-font-specification:Poppins;font-variant-ligatures:normal;font-variant-position:normal;font-variant-caps:normal;font-variant-numeric:normal;font-variant-alternates:normal;font-feature-settings:normal;text-indent:0;text-align:center;text-decoration-line:none;text-decoration-style:solid;text-decoration-color:#000;text-transform:none;text-orientation:mixed;white-space:normal;shape-padding:0" d="M12.056 15.268Q11 14.14 10.778 13.169q-.229-.979.688-1.838.91-.853 1.872-.562.956.285 2.012 1.411 1.074 1.146 1.303 2.125.228.979-.682 1.832-.917.86-1.879.568-.962-.291-2.036-1.437zm2.705-2.535q-.534-.57-.981-.89-.447-.331-.91-.352-.456-.028-.895.383-.445.418-.453.88-.003.458.293.931.297.46.83 1.03.553.59 1 .921.452.326.909.354.462.021.908-.396.438-.412.44-.869.01-.463-.293-.93-.296-.473-.848-1.062z" aria-label="0" font-size="10.559" letter-spacing="-.619" fill="#f2f2f2" stroke="#f2f2f2" stroke-width=".0697"/><g style="line-height:1.5;-inkscape-font-specification:Poppins;font-variant-ligatures:normal;font-variant-position:normal;font-variant-caps:normal;font-variant-numeric:normal;font-variant-alternates:normal;font-feature-settings:normal;text-indent:0;text-align:center;text-decoration-line:none;text-decoration-style:solid;text-decoration-color:#000;text-transform:none;text-orientation:mixed;white-space:normal;shape-padding:0" aria-label="4." font-size="7.921" letter-spacing="-.464" fill="#f4f4f4" stroke="#f4f4f4" stroke-width=".062"><path style="line-height:1.5;-inkscape-font-specification:Poppins;font-variant-ligatures:normal;font-variant-position:normal;font-variant-caps:normal;font-variant-numeric:normal;font-variant-alternates:normal;font-feature-settings:normal;text-indent:0;text-align:center;text-decoration-line:none;text-decoration-style:solid;text-decoration-color:#000;text-transform:none;text-orientation:mixed;white-space:normal;shape-padding:0" d="M-265.492 294.762v-.547l2.78-3.85h.863v3.771h.792v.626h-.792v1.275h-.713v-1.275zm2.962-3.644l-2.13 3.018h2.13z" transform="matrix(-.1303 -.66064 1.11098 .08792 -343.535 -192.405)"/><path style="line-height:1.5;-inkscape-font-specification:Poppins;font-variant-ligatures:normal;font-variant-position:normal;font-variant-caps:normal;font-variant-numeric:normal;font-variant-alternates:normal;font-feature-settings:normal;text-indent:0;text-align:center;text-decoration-line:none;text-decoration-style:solid;text-decoration-color:#000;text-transform:none;text-orientation:mixed;white-space:normal;shape-padding:0" d="M19.344 5.69q.027.137-.113.218-.14.082-.368.064-.229-.018-.406-.125-.177-.107-.204-.243-.026-.13.115-.207.14-.082.369-.063.229.018.406.124.176.102.201.233z" fill="none" stroke="none"/></g><path style="line-height:1.5;-inkscape-font-specification:Poppins;font-variant-ligatures:normal;font-variant-position:normal;font-variant-caps:normal;font-variant-numeric:normal;font-variant-alternates:normal;font-feature-settings:normal;text-indent:0;text-align:center;text-decoration-line:none;text-decoration-style:solid;text-decoration-color:#000;text-transform:none;text-orientation:mixed;white-space:normal;shape-padding:0" d="M515.418 80.716q-.446-.175-.684-.51-.239-.333-.239-.81 0-.43.215-.772.215-.35.636-.549.43-.206 1.034-.206.604 0 1.026.206.43.2.644.55.223.341.223.77 0 .462-.247.812-.246.342-.676.509.493.15.78.533.294.373.294.906 0 .517-.255.907-.254.381-.723.596-.462.207-1.066.207-.604 0-1.066-.207-.453-.215-.707-.596-.255-.39-.255-.907 0-.533.286-.914.287-.382.78-.525zm2.155-1.233q0-.485-.318-.748-.318-.262-.875-.262-.549 0-.867.262-.318.263-.318.756 0 .445.326.716.334.27.86.27.532 0 .858-.27.334-.279.334-.724zm-1.193 1.55q-.588 0-.962.28-.374.27-.374.818 0 .51.358.82.366.31.978.31t.97-.31q.358-.31.358-.82 0-.533-.366-.81-.365-.287-.962-.287z" transform="matrix(.66765 .23046 .06872 1.10588 -343.535 -192.405)" aria-label="8" font-size="7.953" letter-spacing="-.466" fill="#f4f4f4" stroke="#f4f4f4" stroke-width=".062"/><path style="line-height:1.5;-inkscape-font-specification:Poppins;font-variant-ligatures:normal;font-variant-position:normal;font-variant-caps:normal;font-variant-numeric:normal;font-variant-alternates:normal;font-feature-settings:normal;text-indent:0;text-align:center;text-decoration-line:none;text-decoration-style:solid;text-decoration-color:#000;text-transform:none;text-orientation:mixed;white-space:normal;shape-padding:0" d="M-780.641-1557.049l-.77 1.807h-.255l.78-1.782h-1.069v-.216h1.314z" transform="matrix(-1.0948 2.47468 .31608 -1.3744 -343.535 -192.405)" aria-label="7" font-size="2.771" letter-spacing="-.162" fill="#8c8c8c" stroke="#8c8c8c" stroke-width=".022"/><path style="line-height:1.5;-inkscape-font-specification:Poppins;font-variant-ligatures:normal;font-variant-position:normal;font-variant-caps:normal;font-variant-numeric:normal;font-variant-alternates:normal;font-feature-settings:normal;text-indent:0;text-align:center;text-decoration-line:none;text-decoration-style:solid;text-decoration-color:#000;text-transform:none;text-orientation:mixed;white-space:normal;shape-padding:0" d="M382.163-948.02q.022-.29.223-.453.2-.163.52-.163.214 0 .368.079.157.075.235.207.082.132.082.298 0 .195-.113.336-.11.141-.289.182v.015q.204.05.324.198.119.148.119.386 0 .18-.082.324-.081.14-.245.222-.163.082-.392.082-.333 0-.546-.173-.214-.175-.239-.496h.277q.022.189.153.308.132.12.352.12.22 0 .333-.114.116-.116.116-.298 0-.235-.157-.339-.157-.103-.474-.103h-.072v-.239h.075q.289-.003.436-.094.148-.094.148-.289 0-.166-.11-.267-.107-.1-.308-.1-.194 0-.314.1-.119.1-.14.27z" transform="matrix(-1.90262 .78802 -1.14505 .09451 -343.535 -192.405)" aria-label="3" font-size="3.139" letter-spacing="-.184" fill="#b6b6b6" stroke="#b6b6b6" stroke-width=".025"/></g></svg>