<svg xmlns="http://www.w3.org/2000/svg" viewBox="0 0 25.4 25.4" height="96" width="96"><g font-weight="400" font-family="Poppins" word-spacing="0" text-anchor="middle" stroke-linecap="round" stroke-linejoin="round"><g style="line-height:1.5;-inkscape-font-specification:Poppins;text-align:center"><path style="-inkscape-font-specification:Poppins;text-align:center" d="M13.387 10.637l-2.298 2.155 1.399 1.493q-.046-.351.126-.758.166-.414.506-.733.544-.51 1.1-.6.548-.096 1.03.13.482.212.856.611.442.471.615 1.01.174.54.01 1.1-.158.553-.695 1.056-.688.645-1.445.69-.757.045-1.4-.458l.582-.546q.435.293.906.245.472-.048.89-.441.518-.485.492-1.038-.033-.56-.512-1.07-.479-.512-.998-.541-.526-.036-1.037.442-.347.326-.45.742-.101.403.05.801l-.562.528-2.504-2.672 2.848-2.67z" letter-spacing="-.619" aria-label="5" font-size="10.559" fill="#1b1b1b" stroke="#1b1b1b" stroke-width=".0697"/></g><g style="line-height:1.5;-inkscape-font-specification:Poppins;font-variant-ligatures:normal;font-variant-position:normal;font-variant-caps:normal;font-variant-numeric:normal;font-variant-alternates:normal;font-feature-settings:normal;text-indent:0;text-align:center;text-decoration-line:none;text-decoration-style:solid;text-decoration-color:#000;text-transform:none;text-orientation:mixed;white-space:normal;shape-padding:0" aria-label="9." font-size="7.921" letter-spacing="-.794" fill="#3d3d3d" stroke="#3d3d3d" stroke-width=".062"><path style="line-height:1.5;-inkscape-font-specification:Poppins;font-variant-ligatures:normal;font-variant-position:normal;font-variant-caps:normal;font-variant-numeric:normal;font-variant-alternates:normal;font-feature-settings:normal;text-indent:0;text-align:center;text-decoration-line:none;text-decoration-style:solid;text-decoration-color:#000;text-transform:none;text-orientation:mixed;white-space:normal;shape-padding:0" d="M-244.168 199.687q.079.451.364.697.293.246.784.246.658 0 .967-.515.317-.515.3-1.735-.166.356-.554.562-.388.198-.863.198-.53 0-.95-.214-.413-.221-.65-.641-.238-.42-.238-1.014 0-.848.491-1.363.491-.522 1.394-.522 1.11 0 1.553.72.451.721.451 2.147 0 .998-.182 1.648-.174.65-.602.99-.42.34-1.156.34-.808 0-1.26-.435-.451-.436-.515-1.11zm1.117-1.157q.53 0 .871-.324.34-.333.34-.895 0-.595-.332-.959-.333-.364-.935-.364-.554 0-.887.348-.325.349-.325.92 0 .577.325.926.325.348.943.348zM-240.55 201.271q-.206 0-.348-.142-.143-.143-.143-.349t.143-.349q.142-.142.348-.142.198 0 .333.142.142.143.142.349t-.142.349q-.135.142-.333.142z" transform="matrix(-.1303 -.66064 1.11098 .08792 -235.585 -170.815)"/></g><path style="line-height:1.5;-inkscape-font-specification:Poppins;font-variant-ligatures:normal;font-variant-position:normal;font-variant-caps:normal;font-variant-numeric:normal;font-variant-alternates:normal;font-feature-settings:normal;text-indent:0;text-align:center;text-decoration-line:none;text-decoration-style:solid;text-decoration-color:#000;text-transform:none;text-orientation:mixed;white-space:normal;shape-padding:0" d="M351.341 93.886q.056-.731.565-1.145.509-.413 1.32-.413.54 0 .93.199.398.19.597.524.207.334.207.756 0 .493-.287.85-.278.359-.731.462v.04q.517.127.819.5.302.375.302.98 0 .452-.207.818-.207.358-.62.565-.414.207-.994.207-.843 0-1.384-.438-.54-.445-.604-1.256h.7q.055.477.39.78.333.301.89.301.557 0 .843-.286.294-.294.294-.756 0-.596-.398-.858-.397-.263-1.2-.263h-.183v-.604h.19q.732-.008 1.106-.239.374-.238.374-.732 0-.421-.279-.676-.27-.254-.779-.254-.493 0-.795.254-.302.255-.358.684z" letter-spacing="-.794" transform="matrix(.66765 .23046 .06872 1.10588 -235.585 -170.815)" aria-label="3" font-size="7.953" fill="#3d3d3d" stroke="#3d3d3d" stroke-width=".062"/><g style="line-height:1.5;-inkscape-font-specification:Poppins;text-align:center"><path style="-inkscape-font-specification:Poppins;text-align:center" d="M-567.149-1152.983q.352-.282.552-.463.199-.182.335-.38.138-.199.138-.39 0-.18-.088-.282-.086-.106-.28-.106-.189 0-.294.12-.102.116-.11.313h-.245q.012-.31.189-.48.177-.169.457-.169.285 0 .452.158.169.158.169.435 0 .23-.139.449-.136.216-.31.382-.175.164-.446.383h.953v.21h-1.333z" letter-spacing="-.162" transform="matrix(-1.0948 2.47468 .31608 -1.3744 -235.585 -170.815)" aria-label="2" font-size="2.771" fill="#0f0f0f" stroke="#0f0f0f" stroke-width=".022"/></g><g style="line-height:1.5;-inkscape-font-specification:Poppins;text-align:center"><path style="-inkscape-font-specification:Poppins;text-align:center" d="M334.18-772.909q-.176-.069-.27-.2-.095-.132-.095-.32 0-.17.085-.305.085-.138.251-.217.17-.081.408-.081.239 0 .405.081.17.079.254.217.088.135.088.304 0 .182-.097.32-.097.135-.267.201.195.06.308.21.116.148.116.358 0 .204-.1.358-.101.15-.286.236-.182.081-.42.081-.24 0-.421-.081-.18-.085-.28-.236-.1-.154-.1-.358 0-.21.113-.36.113-.151.307-.208zm.85-.486q0-.192-.126-.295-.125-.104-.345-.104-.216 0-.342.104-.125.103-.125.298 0 .176.128.282.132.107.34.107.21 0 .338-.107.132-.11.132-.285zm-.47.612q-.233 0-.38.11-.148.106-.148.323 0 .2.141.323.145.123.386.123.242 0 .383-.123.141-.122.141-.323 0-.21-.144-.32-.144-.113-.38-.113z" transform="matrix(-1.90262 .78802 -1.14505 .09451 -235.585 -170.815)" aria-label="8" font-size="3.139" letter-spacing="-.331" fill="#141414" stroke="#141414" stroke-width=".025"/></g></g></svg>