<svg xmlns="http://www.w3.org/2000/svg" viewBox="0 0 25.4 25.4" height="96" width="96"><g font-weight="400" font-family="Poppins" word-spacing="0" text-anchor="middle" stroke-width=".176" stroke-linecap="round" stroke-linejoin="round"><g style="line-height:1.5;-inkscape-font-specification:Poppins;text-align:center"><path style="-inkscape-font-specification:Poppins;text-align:center" d="M11.512 14.295q.056.322.26.497.208.175.558.175.469 0 .689-.367.225-.367.214-1.236-.118.254-.395.4-.277.141-.615.141-.378 0-.678-.152-.293-.158-.462-.457-.17-.3-.17-.723 0-.604.35-.97.35-.373.994-.373.79 0 1.106.514.322.513.322 1.53 0 .71-.13 1.173-.124.463-.43.706-.298.243-.823.243-.576 0-.898-.31-.321-.311-.367-.791zm.795-.824q.379 0 .621-.232.243-.237.243-.637 0-.424-.237-.683-.237-.26-.666-.26-.395 0-.632.248-.232.249-.232.655 0 .412.232.66.231.249.671.249zm2.349 1.953q-.147 0-.249-.102-.101-.101-.101-.248t.101-.249q.102-.101.249-.101.14 0 .237.101.101.102.101.249 0 .147-.101.248-.096.102-.237.102z" aria-label="9." font-size="5.644" letter-spacing="0" fill="#1b1b1b" stroke="#1b1b1b"/></g><g style="line-height:1.5;-inkscape-font-specification:Poppins;text-align:center"><path style="-inkscape-font-specification:Poppins;text-align:center" d="M-337.127 112.366v-.394h.893v3.435h-.437v-3.04zm2.049 0v-.394h.893v3.435h-.437v-3.04z" transform="matrix(-.93452 -.17078 -.14027 -1.0957 -279.4 76.2)" aria-label="11" font-size="4.751" letter-spacing=".529" fill="#181818" stroke="#181818"/></g><g style="line-height:1.5;-inkscape-font-specification:Poppins;text-align:center"><path style="-inkscape-font-specification:Poppins;text-align:center" d="M143.53-276.99q-.105-.533-.657-.533-.427 0-.639.331-.21.327-.206 1.08.11-.25.365-.388.259-.144.576-.144.494 0 .787.307.297.307.297.85 0 .326-.13.585-.124.259-.383.413-.254.153-.62.153-.494 0-.772-.22-.278-.221-.389-.61-.11-.389-.11-.96 0-1.761 1.229-1.761.47 0 .739.254.268.254.316.643zm-.652.715q-.207 0-.39.087-.182.081-.297.254-.11.168-.11.413 0 .364.211.595.211.225.605.225.336 0 .533-.206.201-.211.201-.566 0-.375-.192-.586-.192-.216-.561-.216zm1.977 1.958q-.125 0-.211-.086-.087-.087-.087-.211 0-.125.087-.211.086-.087.21-.087.12 0 .202.087.087.086.087.21 0 .125-.087.212-.081.086-.201.086z" transform="matrix(.34839 .88398 -.85596 .69848 -279.4 76.2)" aria-label="6." font-size="4.799" letter-spacing="0" fill="#3d3d3d" stroke="#3d3d3d"/></g><g style="line-height:1.5;-inkscape-font-specification:Poppins;text-align:center"><path style="-inkscape-font-specification:Poppins;text-align:center" d="M-70.277 171.547v-.244h.553v2.126h-.27v-1.882zm.947 1.409v-.203l1.032-1.429h.32v1.4h.295v.232h-.294v.473h-.265v-.473zm1.1-1.353l-.791 1.12h.79z" transform="matrix(-.00186 -.59492 1.67885 -.65577 -279.4 76.2)" aria-label="14" font-size="2.94" letter-spacing="0" fill="#7e7e7e" stroke="#7f7f7f"/></g><g style="line-height:1.5;-inkscape-font-specification:Poppins;text-align:center"><path style="-inkscape-font-specification:Poppins;text-align:center" d="M151.127 384.22q.02-.275.212-.43.191-.155.496-.155.203 0 .35.074.15.072.224.198.078.125.078.283 0 .186-.108.32-.105.135-.275.174v.014q.194.048.308.189.113.14.113.367 0 .17-.077.308-.078.135-.233.212-.156.078-.374.078-.317 0-.52-.164-.203-.168-.227-.472h.263q.02.179.146.292.126.114.335.114.21 0 .317-.108.11-.11.11-.284 0-.224-.15-.322-.148-.099-.45-.099h-.069v-.227h.072q.275-.003.415-.09.14-.09.14-.275 0-.158-.104-.254-.102-.095-.293-.095-.185 0-.299.095-.113.096-.134.257z" transform="matrix(-.96273 -1.15093 1.12634 .30782 -279.4 76.2)" aria-label="3" font-size="2.989" letter-spacing="0" fill="#171717" stroke="#171717"/></g><g style="line-height:1.5;-inkscape-font-specification:Poppins;text-align:center"><path style="-inkscape-font-specification:Poppins;text-align:center" d="M59.6-251.38v-.384h.872v3.351h-.426v-2.966zm2.137 2.068q.047.264.213.408.172.144.46.144.384 0 .565-.302.185-.301.176-1.015-.097.209-.325.33-.227.115-.505.115-.31 0-.556-.125-.24-.13-.38-.375-.139-.246-.139-.594 0-.496.287-.797.288-.306.816-.306.649 0 .909.422.264.422.264 1.256 0 .584-.107.964-.102.38-.352.58-.246.199-.677.199-.473 0-.737-.255t-.301-.649zm.654-.677q.31 0 .51-.19.199-.194.199-.524 0-.347-.195-.56-.194-.214-.547-.214-.324 0-.519.204-.19.204-.19.538 0 .338.19.542.19.204.552.204z" transform="matrix(.61351 .73798 -1.0149 .40915 -279.4 76.2)" aria-label="19" font-size="4.635" letter-spacing="0" fill="#141414" stroke="#141414"/></g><g style="line-height:1.5;-inkscape-font-specification:Poppins;text-align:center"><path style="-inkscape-font-specification:Poppins;text-align:center" d="M-346.08-394.259v-.25h.568v2.183h-.278v-1.933zm1.033.299q.02-.277.214-.434.193-.157.501-.157.206 0 .354.075.15.073.226.2.079.126.079.286 0 .187-.11.323-.105.136-.277.175v.016q.196.048.311.19.115.142.115.371 0 .172-.079.311-.078.136-.235.214-.157.079-.378.079-.32 0-.525-.166-.205-.17-.23-.477h.266q.021.181.148.296.127.114.338.114.212 0 .32-.108.112-.112.112-.287 0-.226-.15-.326-.152-.1-.457-.1h-.07v-.23h.073q.278-.002.42-.09.142-.09.142-.278 0-.16-.106-.256-.103-.097-.296-.097-.187 0-.302.097-.114.096-.136.26z" transform="matrix(-.54286 1.42046 -.289 -1.0859 -279.4 76.2)" aria-label="13" font-size="3.019" letter-spacing="0" fill="#141414" stroke="#141414"/></g><g style="line-height:1.5;-inkscape-font-specification:Poppins;text-align:center"><path style="-inkscape-font-specification:Poppins;text-align:center" d="M30.714-287.886v-.25h.566v2.176h-.277v-1.926z" transform="matrix(-.93035 1.14205 -1.13608 .31973 -279.4 76.2)" aria-label="1" font-size="3.009" letter-spacing="0" fill="#0f0f0f" stroke="#0f0f0f"/></g><g style="line-height:1.5;-inkscape-font-specification:Poppins;text-align:center"><path style="-inkscape-font-specification:Poppins;text-align:center" d="M-208.182-474.285v-.243h.55v2.117h-.269v-1.874zm2.187.26q-.064-.325-.4-.325-.261 0-.39.202-.129.2-.126.659.067-.152.222-.237.159-.088.352-.088.301 0 .48.187.182.188.182.519 0 .199-.08.357-.076.158-.234.252-.155.094-.377.094-.302 0-.472-.135-.17-.135-.237-.372-.068-.237-.068-.586 0-1.074.75-1.074.287 0 .451.155.164.155.193.392zm-.398.436q-.126 0-.237.053-.111.05-.182.155-.067.103-.067.252 0 .223.129.363.129.138.369.138.205 0 .325-.126.123-.129.123-.346 0-.228-.117-.357-.117-.132-.343-.132z" transform="matrix(.00568 1.67045 -.60068 -.59857 -279.4 76.2)" aria-label="16" font-size="2.928" letter-spacing="0" fill="#292929" stroke="#292929"/></g><g style="line-height:1.5;-inkscape-font-specification:Poppins;text-align:center"><path style="-inkscape-font-specification:Poppins;text-align:center" d="M4.53 365.309v-.2l1.022-1.414h.317v1.384h.29v.23h-.29v.468h-.262v-.468zm1.089-1.338l-.783 1.108h.783z" transform="matrix(-1.49875 -.86902 .83287 -.1843 -279.4 76.2)" aria-label="4" font-size="2.908" letter-spacing="0" fill="#434343" stroke="#434343"/></g></g></svg>