<svg xmlns="http://www.w3.org/2000/svg" viewBox="0 0 25.4 25.4" height="96" width="96"><g font-weight="400" font-family="Poppins" letter-spacing="0" word-spacing="0" text-anchor="middle" stroke-linecap="round" stroke-linejoin="round"><g style="line-height:1.5;-inkscape-font-specification:Poppins;text-align:center"><path style="-inkscape-font-specification:Poppins;text-align:center" d="M14.464 10.723h-2.795v1.816q.183-.255.541-.414.359-.168.773-.168.66 0 1.075.279.414.27.59.709.182.43.182.916 0 .573-.215 1.027-.215.454-.66.717-.439.263-1.092.263-.836 0-1.354-.43-.517-.43-.629-1.147h.71q.103.454.437.708.335.255.844.255.63 0 .948-.374.318-.382.318-1.003 0-.622-.318-.956-.319-.343-.94-.343-.422 0-.74.208-.311.199-.454.549H11v-3.25h3.464z" aria-label="5" font-size="7.964" fill="#f2f2f2" stroke="#f2f2f2" stroke-width=".249"/></g><g style="line-height:1.5;-inkscape-font-specification:Poppins;text-align:center" aria-label="10" font-size="4.851" fill="#8c8c8c" stroke="#8c8c8c" stroke-width=".152"><path style="-inkscape-font-specification:Poppins;text-align:center" d="M291.924 470.997v-.403h.912v3.508h-.446v-3.105zM293.593 472.312q0-.835.272-1.3.271-.471.95-.471.675 0 .947.47.271.466.271 1.3 0 .85-.271 1.32-.272.47-.946.47-.68 0-.951-.47-.272-.47-.272-1.32zm2.004 0q0-.422-.059-.713-.053-.296-.228-.476-.17-.18-.494-.18-.33 0-.505.18-.17.18-.228.476-.053.29-.053.713 0 .436.053.732.058.296.228.476.175.18.505.18.325 0 .494-.18.175-.18.228-.476.059-.296.059-.732z" transform="matrix(.74373 -1.14237 .17085 1.08214 -279.4 -159.808)"/></g><g style="line-height:1.5;-inkscape-font-specification:Poppins;text-align:center"><path style="-inkscape-font-specification:Poppins;text-align:center" d="M209.893-266.487v-.4h.907v3.486h-.444v-3.086z" transform="matrix(-.49582 .60338 -1.49263 -.20043 -279.4 -159.808)" aria-label="1" font-size="4.822" fill="#b6b6b6" stroke="#b6b6b6" stroke-width=".151"/></g><g style="line-height:1.5;-inkscape-font-specification:Poppins;text-align:center" aria-label="6." font-size="4.847" fill="#dbdbdb" stroke="#dbdbdb" stroke-width=".151"><path style="-inkscape-font-specification:Poppins;text-align:center" d="M-55.15-372.012q-.106-.538-.663-.538-.431 0-.645.335-.213.33-.208 1.09.111-.252.368-.392.262-.146.582-.146.5 0 .795.31.3.31.3.858 0 .33-.13.592-.127.261-.388.416-.257.155-.626.155-.499 0-.78-.222-.281-.223-.392-.616-.112-.393-.112-.97 0-1.778 1.24-1.778.476 0 .747.257.272.257.32.65zm-.658.722q-.209 0-.393.088-.184.082-.3.256-.112.17-.112.417 0 .369.213.601.214.228.611.228.34 0 .538-.208.204-.214.204-.572 0-.378-.194-.592-.194-.218-.567-.218zM-53.811-369.312q-.126 0-.214-.087-.087-.088-.087-.214t.087-.213q.088-.087.214-.087.12 0 .203.087.087.087.087.213t-.087.214q-.082.087-.203.087z" transform="matrix(-.0013 1.30307 -.76675 -.66469 -279.4 -159.808)"/></g><g style="line-height:1.5;-inkscape-font-specification:Poppins;text-align:center" aria-label="9." font-size="4.673" fill="#dbdbdb" stroke="#dbdbdb" stroke-width=".146"><path style="-inkscape-font-specification:Poppins;text-align:center" d="M-130.358 180.299q.046.266.214.411.173.145.463.145.388 0 .57-.304.187-.304.178-1.023-.098.21-.327.331-.23.117-.51.117-.313 0-.56-.126-.243-.13-.384-.378-.14-.248-.14-.599 0-.5.29-.803.29-.309.822-.309.655 0 .916.425.267.426.267 1.267 0 .589-.108.972-.103.383-.355.584-.248.201-.682.201-.477 0-.743-.257-.267-.257-.304-.654zm.658-.683q.314 0 .514-.191.201-.196.201-.528 0-.35-.196-.566-.196-.215-.551-.215-.327 0-.524.206-.191.206-.191.542 0 .341.191.547.192.205.556.205zM-127.755 181.233q-.122 0-.206-.084-.084-.084-.084-.205 0-.122.084-.206.084-.084.206-.084.116 0 .196.084.084.084.084.206 0 .121-.084.205-.08.084-.196.084z" transform="matrix(-.81367 -1.06095 1.06788 .16342 -279.4 -159.808)"/></g><g style="line-height:1.5;-inkscape-font-specification:Poppins;text-align:center" aria-label="11" font-size="4.798" fill="#f8f8f8" stroke="#f8f8f8" stroke-width=".15"><path style="-inkscape-font-specification:Poppins;text-align:center" d="M-349.562-338.4v-.399h.902v3.47h-.441v-3.071zM-348.027-338.4v-.399h.902v3.47h-.441v-3.071z" transform="matrix(-1.244 .4538 .4321 -.96148 -279.4 -159.808)"/></g></g></svg>