<svg xmlns="http://www.w3.org/2000/svg" viewBox="0 0 25.4 25.4" height="96" width="96"><g font-weight="400" font-family="Poppins" letter-spacing="0" word-spacing="0" text-anchor="middle" stroke-linecap="round" stroke-linejoin="round"><g style="line-height:1.5;-inkscape-font-specification:Poppins;text-align:center"><path style="-inkscape-font-specification:Poppins;text-align:center" d="M11.828 10.755v-.661h1.497v5.758h-.732v-5.097z" aria-label="1" font-size="7.964" fill="#1b1b1b" stroke="#1b1b1b" stroke-width=".249"/></g><g style="line-height:1.5;-inkscape-font-specification:Poppins;text-align:center"><path style="-inkscape-font-specification:Poppins;text-align:center" d="M188.552 333.282q.616-.495.965-.81.35-.32.587-.664.243-.35.243-.685 0-.315-.155-.494-.15-.185-.49-.185-.33 0-.514.209-.18.204-.195.548h-.426q.019-.543.33-.84.31-.295.8-.295.5 0 .79.276.297.277.297.762 0 .403-.243.786-.238.378-.543.67-.306.286-.781.669h1.668v.369h-2.333z" transform="matrix(.74373 -1.14237 .17085 1.08214 -177.8 -127)" aria-label="2" font-size="4.851" fill="#101010" stroke="#0f0f0f" stroke-width=".152"/></g><g style="line-height:1.5;-inkscape-font-specification:Poppins;text-align:center"><path style="-inkscape-font-specification:Poppins;text-align:center" d="M180.55-186.607v-.333l1.693-2.343h.526v2.295h.482v.381h-.482v.776h-.434v-.776zm1.804-2.218l-1.297 1.837h1.297z" transform="matrix(-.49582 .60338 -1.49263 -.20043 -177.8 -127)" aria-label="4" font-size="4.822" fill="#141414" stroke="#141414" stroke-width=".151"/></g><g style="line-height:1.5;-inkscape-font-specification:Poppins;text-align:center" aria-label="9." font-size="4.847" fill="#171717" stroke="#171717" stroke-width=".151"><path style="-inkscape-font-specification:Poppins;text-align:center" d="M-14.147-237.847q.049.276.223.426.18.15.48.15.402 0 .592-.314.193-.315.184-1.062-.102.218-.34.344-.237.122-.528.122-.325 0-.581-.131-.252-.136-.398-.393-.145-.257-.145-.62 0-.519.3-.834.3-.32.853-.32.679 0 .95.441.276.441.276 1.314 0 .61-.111 1.008-.107.397-.368.606-.257.208-.708.208-.494 0-.77-.266-.277-.267-.316-.679zm.684-.708q.325 0 .533-.198.208-.204.208-.548 0-.364-.203-.586-.204-.223-.572-.223-.34 0-.543.213-.199.213-.199.562 0 .354.2.567.198.213.576.213zM-11.447-236.878q-.126 0-.213-.087t-.087-.213q0-.126.087-.213.087-.088.213-.088.121 0 .204.088.087.087.087.213t-.087.213q-.083.087-.204.087z" transform="matrix(-.0013 1.30307 -.76675 -.66469 -177.8 -127)"/></g><g style="line-height:1.5;-inkscape-font-specification:Poppins;text-align:center" aria-label="10" font-size="4.673" fill="#171717" stroke="#171717" stroke-width=".146"><path style="-inkscape-font-specification:Poppins;text-align:center" d="M-112.838 97.117v-.388h.879v3.379h-.43v-2.991zM-111.23 98.383q0-.803.262-1.252.261-.453.915-.453.65 0 .912.453.261.449.261 1.252 0 .818-.261 1.271-.262.454-.912.454-.654 0-.915-.454-.262-.453-.262-1.27zm1.93 0q0-.406-.056-.687-.052-.285-.22-.458-.163-.173-.477-.173-.317 0-.486.173-.163.173-.22.458-.05.28-.05.687 0 .421.05.706.057.285.22.458.169.173.486.173.314 0 .477-.173.168-.173.22-.458.056-.285.056-.706z" transform="matrix(-.81367 -1.06095 1.06788 .16342 -177.8 -127)"/></g><g style="line-height:1.5;-inkscape-font-specification:Poppins;text-align:center"><path style="-inkscape-font-specification:Poppins;text-align:center" d="M-235.343-251.5h-1.684v1.094q.11-.154.326-.25.216-.1.465-.1.399 0 .648.167.25.163.355.427.11.26.11.552 0 .346-.13.619-.129.274-.397.432-.264.158-.658.158-.503 0-.815-.259-.312-.259-.38-.69h.428q.062.273.264.426.201.154.508.154.38 0 .571-.226.192-.23.192-.604 0-.375-.192-.576-.192-.206-.566-.206-.254 0-.446.124-.187.12-.274.331h-.412v-1.957h2.087z" transform="matrix(-1.244 .4538 .4321 -.96148 -177.8 -127)" aria-label="5" font-size="4.798" fill="#7f7f7f" stroke="#7f7f7f" stroke-width=".15"/></g></g></svg>