<svg xmlns="http://www.w3.org/2000/svg" viewBox="0 0 25.4 25.4" height="96" width="96"><g font-weight="400" font-family="Poppins" letter-spacing="0" word-spacing="0" text-anchor="middle" stroke-linecap="round" stroke-linejoin="round"><g style="line-height:1.5;-inkscape-font-specification:Poppins;text-align:center"><path style="-inkscape-font-specification:Poppins;text-align:center" d="M14.753 9.766l-2.471 5.796h-.818l2.507-5.716h-3.432v-.693h4.214z" aria-label="7" font-size="9.878" fill="#1b1b1b" stroke="#1b1b1b" stroke-width=".15839999999999999"/></g><g style="line-height:1.5;-inkscape-font-specification:Poppins;text-align:center"><path style="-inkscape-font-specification:Poppins;text-align:center" d="M-212.679-33.057v-.39l1.985-2.748h.616v2.691h.566v.447h-.566v.91h-.509v-.91zm2.115-2.601l-1.521 2.154h1.52z" transform="matrix(-1.57217 0 0 -.51521 -318.77 1.27)" aria-label="4" font-size="5.655" fill="#141414" fill-opacity=".98" stroke="#141414" stroke-width=".101"/></g><g style="line-height:1.5;-inkscape-font-specification:Poppins;text-align:center" aria-label="6." font-size="5.734" fill="#3d3d3d" stroke="#3c3c3c" stroke-width=".102" stroke-opacity=".992"><path style="-inkscape-font-specification:Poppins;text-align:center" d="M423.283-362.786q-.126-.637-.786-.637-.51 0-.762.396-.253.39-.247 1.29.132-.298.436-.464.31-.172.688-.172.59 0 .94.367.356.367.356 1.015 0 .39-.155.7-.149.309-.459.492-.303.184-.74.184-.59 0-.922-.264-.333-.264-.465-.728-.132-.465-.132-1.147 0-2.105 1.468-2.105.562 0 .883.304.321.304.379.769zm-.78.854q-.246 0-.464.103-.218.098-.356.304-.132.201-.132.493 0 .436.253.711.252.27.722.27.401 0 .637-.247.24-.252.24-.676 0-.448-.229-.7-.23-.258-.67-.258zM424.866-359.592q-.15 0-.253-.103-.103-.104-.103-.253 0-.149.103-.252.104-.103.253-.103.143 0 .24.103.104.103.104.252 0 .15-.103.253-.098.103-.241.103z" transform="matrix(0 .89912 -.90089 1.02997 -318.77 1.27)"/></g><g style="line-height:1.5;-inkscape-font-specification:Poppins;text-align:center"><path style="-inkscape-font-specification:Poppins;text-align:center" d="M417.6 375.78q.728-.585 1.14-.957.413-.379.694-.786.287-.413.287-.808 0-.373-.183-.585-.178-.218-.58-.218-.39 0-.607.246-.213.241-.23.648h-.504q.022-.642.39-.992.366-.35.946-.35.59 0 .934.327.35.327.35.9 0 .477-.287.93-.28.447-.642.79-.361.34-.923.792h1.973v.436h-2.759z" transform="matrix(0 -.89912 .90089 1.0278 -318.77 1.27)" aria-label="2" font-size="5.734" fill="#181818" stroke="#181818" stroke-width=".102"/></g></g></svg>