<svg xmlns="http://www.w3.org/2000/svg" viewBox="0 0 25.4 25.4" height="96" width="96"><g font-weight="400" font-family="Poppins" letter-spacing="0" word-spacing="0" text-anchor="middle" stroke-linecap="round" stroke-linejoin="round"><g style="line-height:1.5;-inkscape-font-specification:Poppins;text-align:center" aria-label="9." font-size="7.964" fill="#1b1b1b" stroke="#1b1b1b" stroke-width=".249"><path style="-inkscape-font-specification:Poppins;text-align:center" d="M10.88 14.307q.08.454.367.7.294.247.788.247.661 0 .972-.517.318-.518.302-1.744-.167.358-.557.565-.39.2-.868.2-.534 0-.956-.216-.414-.223-.653-.645-.239-.422-.239-1.02 0-.851.494-1.37.494-.525 1.402-.525 1.114 0 1.56.725.454.725.454 2.158 0 1.004-.183 1.657-.175.653-.605.995-.422.343-1.163.343-.812 0-1.266-.438-.454-.438-.518-1.115zm1.123-1.163q.534 0 .876-.327.343-.334.343-.9 0-.597-.335-.963-.334-.366-.94-.366-.557 0-.891.35-.327.35-.327.924 0 .581.327.931.326.35.947.35zM15.316 15.9q-.207 0-.35-.144-.144-.143-.144-.35t.144-.35q.143-.144.35-.144.2 0 .335.143.143.144.143.35 0 .208-.143.351-.136.143-.335.143z"/></g><g style="line-height:1.5;-inkscape-font-specification:Poppins;text-align:center" aria-label="11" font-size="4.851" fill="#101010" stroke="#0f0f0f" stroke-width=".152"><path style="-inkscape-font-specification:Poppins;text-align:center" d="M408.223 562.661v-.402h.912v3.507h-.447v-3.105zM409.775 562.661v-.402h.912v3.507h-.446v-3.105z" transform="matrix(.74373 -1.14237 .17085 1.08214 -381 -127)"/></g><g style="line-height:1.5;-inkscape-font-specification:Poppins;text-align:center"><path style="-inkscape-font-specification:Poppins;text-align:center" d="M142.275-311.581l-1.34 3.143h-.444l1.36-3.1h-1.861v-.376h2.285z" transform="matrix(-.49582 .60338 -1.49263 -.20043 -381 -127)" aria-label="7" font-size="4.822" fill="#141414" stroke="#141414" stroke-width=".151"/></g><g style="line-height:1.5;-inkscape-font-specification:Poppins;text-align:center" aria-label="12" font-size="4.847" fill="#171717" stroke="#171717" stroke-width=".151"><path style="-inkscape-font-specification:Poppins;text-align:center" d="M-150.028-504.792v-.402h.91v3.504h-.445v-3.102zM-148.414-502.043q.615-.495.964-.81.35-.32.587-.664.242-.349.242-.683 0-.315-.155-.495-.15-.184-.49-.184-.33 0-.513.209-.18.203-.194.547h-.427q.02-.543.33-.838.31-.296.8-.296.499 0 .79.276.295.277.295.761 0 .403-.242.786-.238.378-.543.668-.305.286-.78.67h1.667v.368h-2.331z" transform="matrix(-.0013 1.30307 -.76675 -.66469 -381 -127)"/></g><g style="line-height:1.5;-inkscape-font-specification:Poppins;text-align:center"><path style="-inkscape-font-specification:Poppins;text-align:center" d="M-76.617 312.684h-1.64v1.065q.107-.15.318-.243.21-.098.453-.098.388 0 .63.164.244.159.347.416.107.252.107.537 0 .336-.126.603-.126.266-.388.42-.257.155-.64.155-.49 0-.795-.253-.303-.252-.369-.673h.416q.06.267.257.416.196.15.495.15.37 0 .557-.22.186-.224.186-.589 0-.364-.186-.56-.187-.201-.552-.201-.248 0-.435.121-.182.117-.266.323h-.402v-1.907h2.033z" transform="matrix(-.81367 -1.06095 1.06788 .16342 -381 -127)" aria-label="5" font-size="4.673" fill="#171717" stroke="#171717" stroke-width=".146"/></g><g style="line-height:1.5;-inkscape-font-specification:Poppins;text-align:center" aria-label="10" font-size="4.798" fill="#7f7f7f" stroke="#7f7f7f" stroke-width=".15"><path style="-inkscape-font-specification:Poppins;text-align:center" d="M-433.81-343.692v-.399h.901v3.47h-.441v-3.071zM-432.16-342.392q0-.825.269-1.286.268-.465.94-.465.667 0 .936.465.268.46.268 1.286 0 .84-.268 1.305-.269.465-.936.465-.672 0-.94-.465-.27-.465-.27-1.305zm1.982 0q0-.418-.058-.705-.053-.293-.226-.47-.168-.178-.489-.178-.326 0-.499.177-.168.178-.225.47-.053.288-.053.706 0 .432.053.724.057.293.225.47.173.178.499.178.321 0 .49-.177.172-.178.225-.47.058-.293.058-.725z" transform="matrix(-1.244 .4538 .4321 -.96148 -381 -127)"/></g></g></svg>