<svg xmlns="http://www.w3.org/2000/svg" viewBox="0 0 25.4 25.4" height="96" width="96"><g font-weight="400" font-family="Poppins" letter-spacing="0" word-spacing="0" text-anchor="middle" stroke-width=".176" stroke-linecap="round" stroke-linejoin="round"><g style="line-height:1.5;-inkscape-font-specification:Poppins;text-align:center"><path style="-inkscape-font-specification:Poppins;text-align:center" d="M10.642 11.777v-.468h1.062v4.08h-.52v-3.612zm4.454-.067l-1.57 3.68h-.519l1.592-3.63H12.42v-.44h2.676z" aria-label="17" font-size="5.644" fill="#1b1b1b" stroke="#1b1b1b"/></g><g style="line-height:1.5;-inkscape-font-specification:Poppins;text-align:center"><path style="-inkscape-font-specification:Poppins;text-align:center" d="M-113.99 78.135q.033-.437.337-.684.304-.247.789-.247.323 0 .556.118.237.115.356.314.124.2.124.451 0 .295-.171.509-.167.213-.437.275v.024q.308.076.489.3.18.223.18.584 0 .27-.123.489-.124.214-.37.337-.248.124-.595.124-.503 0-.826-.262-.323-.266-.361-.75h.418q.033.285.233.465.2.18.532.18t.503-.17q.176-.176.176-.451 0-.357-.237-.514-.238-.156-.718-.156h-.11v-.361h.115q.437-.005.66-.143.224-.142.224-.437 0-.252-.167-.404-.161-.152-.465-.152-.295 0-.475.152t-.214.409z" transform="matrix(-.93452 -.17078 -.14027 -1.0957 -76.2 76.2)" aria-label="3" font-size="4.751" fill="#181818" stroke="#181818"/></g><g style="line-height:1.5;-inkscape-font-specification:Poppins;text-align:center"><path style="-inkscape-font-specification:Poppins;text-align:center" d="M-.698-97.791v-.399h.903v3.47h-.442v-3.071zM.953-96.49q0-.826.27-1.287.268-.466.94-.466.667 0 .936.466.268.46.268 1.286 0 .84-.268 1.306-.27.465-.936.465-.672 0-.94-.465-.27-.466-.27-1.306zm1.982 0q0-.418-.057-.706-.053-.293-.226-.47-.168-.178-.49-.178-.326 0-.498.177-.168.178-.226.47-.053.289-.053.706 0 .432.053.725.058.293.226.47.172.178.499.178.321 0 .49-.178.172-.177.225-.47.057-.293.057-.725z" transform="matrix(.34839 .88398 -.85596 .69848 -76.2 76.2)" aria-label="10" font-size="4.799" fill="#3d3d3d" stroke="#3d3d3d"/></g><g style="line-height:1.5;-inkscape-font-specification:Poppins;text-align:center"><path style="-inkscape-font-specification:Poppins;text-align:center" d="M63.902 51.436q-.165-.065-.253-.188-.088-.124-.088-.3 0-.159.079-.285.08-.13.235-.203.159-.077.382-.077.224 0 .38.077.158.073.238.203.082.126.082.285 0 .17-.091.3-.091.126-.25.188.182.056.288.197.109.138.109.335 0 .191-.094.335-.094.141-.268.22-.17.077-.394.077-.223 0-.394-.076-.167-.08-.261-.22-.094-.145-.094-.336 0-.197.106-.338.105-.141.288-.194zm.796-.456q0-.18-.117-.276-.118-.097-.324-.097-.202 0-.32.097t-.118.28q0 .164.12.264.124.1.318.1.197 0 .318-.1.123-.103.123-.268zm-.44.573q-.218 0-.356.103-.139.1-.139.303 0 .188.133.303.135.115.361.115.227 0 .36-.115.131-.115.131-.303 0-.197-.135-.3-.135-.106-.356-.106z" transform="matrix(-.00186 -.59492 1.67885 -.65577 -76.2 76.2)" aria-label="8" font-size="2.94" fill="#7e7e7e" stroke="#7f7f7f"/></g><g style="line-height:1.5;-inkscape-font-specification:Poppins;text-align:center"><path style="-inkscape-font-specification:Poppins;text-align:center" d="M87.976 150.055v-.248h.562v2.16h-.275v-1.912zm2.406-.012h-1.049v.681q.069-.095.203-.155.135-.063.29-.063.248 0 .404.105.155.101.22.266.07.161.07.343 0 .215-.081.386-.08.17-.248.269-.164.098-.41.098-.313 0-.508-.161-.194-.161-.236-.43h.266q.04.17.165.266.125.095.316.095.237 0 .356-.14.12-.144.12-.377t-.12-.358q-.12-.129-.353-.129-.158 0-.277.078-.117.074-.17.206h-.258v-1.22h1.3z" transform="matrix(-.96273 -1.15093 1.12634 .30782 -76.2 76.2)" aria-label="15" font-size="2.989" fill="#171717" stroke="#171717"/></g><g style="line-height:1.5;-inkscape-font-specification:Poppins;text-align:center"><path style="-inkscape-font-specification:Poppins;text-align:center" d="M-20.43-101.477l-1.288 3.022h-.426l1.307-2.98h-1.79v-.362h2.197z" transform="matrix(.61351 .73798 -1.0149 .40915 -76.2 76.2)" aria-label="7" font-size="4.635" fill="#141414" stroke="#141414"/></g><g style="line-height:1.5;-inkscape-font-specification:Poppins;text-align:center"><path style="-inkscape-font-specification:Poppins;text-align:center" d="M-125.425-105.62v-.251h.567v2.183h-.277v-1.932zm1.032.299q.021-.278.215-.435.193-.157.5-.157.206 0 .354.075.151.073.227.2.078.126.078.286 0 .188-.109.323-.105.136-.277.176v.015q.196.048.31.19.115.142.115.371 0 .172-.078.311-.079.136-.236.215-.157.078-.377.078-.32 0-.525-.166-.206-.169-.23-.477h.266q.02.181.148.296.127.115.338.115.211 0 .32-.11.112-.11.112-.286 0-.226-.151-.326t-.456-.1h-.07v-.23h.073q.278-.002.42-.09.142-.09.142-.277 0-.16-.106-.257-.103-.097-.296-.097-.187 0-.302.097-.115.097-.136.26z" transform="matrix(-.54286 1.42046 -.289 -1.0859 -76.2 76.2)" aria-label="13" font-size="3.019" fill="#141414" stroke="#141414"/></g><g style="line-height:1.5;-inkscape-font-specification:Poppins;text-align:center"><path style="-inkscape-font-specification:Poppins;text-align:center" d="M-34.255-55.82v-.25h.565v2.176h-.276v-1.926z" transform="matrix(-.93035 1.14205 -1.13608 .31973 -76.2 76.2)" aria-label="1" font-size="3.009" fill="#0f0f0f" stroke="#0f0f0f"/></g><g style="line-height:1.5;-inkscape-font-specification:Poppins;text-align:center"><path style="-inkscape-font-specification:Poppins;text-align:center" d="M-86.464-134.85v-.243h.55v2.117h-.269v-1.874zm.975 1.66q.372-.298.583-.488.21-.194.354-.401.147-.211.147-.413 0-.19-.094-.299-.09-.111-.296-.111-.199 0-.31.126-.109.123-.117.33h-.258q.012-.327.2-.506.186-.179.482-.179.302 0 .478.167.178.167.178.46 0 .243-.146.474-.144.229-.328.404-.185.173-.472.404h1.008v.223h-1.409z" transform="matrix(.00568 1.67045 -.60068 -.59857 -76.2 76.2)" aria-label="12" font-size="2.928" fill="#292929" stroke="#292929"/></g><g style="line-height:1.5;-inkscape-font-specification:Poppins;text-align:center"><path style="-inkscape-font-specification:Poppins;text-align:center" d="M41.5 187.331v-.241h.547v2.102h-.268v-1.861zm2.173.259q-.064-.323-.399-.323-.259 0-.387.2-.127.198-.125.655.067-.151.221-.235.158-.088.35-.088.299 0 .476.186.18.187.18.515 0 .198-.078.355-.075.157-.232.25-.155.093-.376.093-.3 0-.468-.134-.169-.133-.235-.369-.067-.235-.067-.582 0-1.067.744-1.067.285 0 .448.154.163.154.192.39zm-.396.433q-.125 0-.235.053-.11.049-.18.154-.068.101-.068.25 0 .22.128.36.128.137.367.137.203 0 .323-.125.122-.128.122-.343 0-.227-.117-.355-.116-.13-.34-.13z" transform="matrix(-1.49875 -.86902 .83287 -.1843 -76.2 76.2)" aria-label="16" font-size="2.908" fill="#434343" stroke="#434343"/></g></g></svg>