<svg xmlns="http://www.w3.org/2000/svg" viewBox="0 0 25.4 25.4" height="96" width="96"><g style="line-height:1.5;-inkscape-font-specification:Poppins;text-align:center"><path style="-inkscape-font-specification:Poppins;text-align:center" d="M9.798 10.478q.089-1.169.902-1.83.813-.66 2.108-.66.864 0 1.486.318.635.305.952.838.33.533.33 1.207 0 .787-.457 1.358-.444.572-1.168.737v.064q.825.203 1.308.8.483.597.483 1.562 0 .724-.33 1.308-.33.571-.991.902-.66.33-1.588.33-1.346 0-2.21-.699-.863-.711-.965-2.006h1.118q.089.762.622 1.244.534.483 1.423.483t1.346-.457q.47-.47.47-1.207 0-.952-.635-1.371-.635-.42-1.918-.42h-.292v-.965h.305q1.168-.012 1.765-.38.597-.382.597-1.17 0-.672-.445-1.079-.431-.406-1.244-.406-.788 0-1.27.406-.483.407-.572 1.093z" aria-label="3" font-weight="400" font-size="12.7" font-family="Poppins" letter-spacing="0" word-spacing="0" text-anchor="middle" fill="#1a1a1a" stroke="#1a1a1a" stroke-width=".176" stroke-linecap="round" stroke-linejoin="round"/></g></svg>