<svg xmlns="http://www.w3.org/2000/svg" viewBox="0 0 25.4 25.4" height="96" width="96"><g font-weight="400" font-family="Poppins" letter-spacing="0" word-spacing="0" text-anchor="middle" stroke-linecap="round" stroke-linejoin="round"><g style="line-height:1.5;-inkscape-font-specification:Poppins;text-align:center"><path style="-inkscape-font-specification:Poppins;text-align:center" d="M-.812-424.737q.621-.5.973-.818.353-.323.593-.67.244-.353.244-.69 0-.318-.156-.5-.152-.185-.495-.185-.332 0-.518.21-.181.206-.196.553h-.43q.019-.548.332-.847.313-.298.808-.298.504 0 .797.279.299.279.299.768 0 .406-.245.793-.24.382-.548.675-.308.29-.788.676h1.684v.372H-.812z" transform="matrix(-.44776 1.67108 -.55833 -.1496 -228.6 -50.8)" aria-label="2" font-size="4.894" fill="#f4f4f4" stroke="#f4f4f4" stroke-width=".135"/></g><g style="line-height:1.5;-inkscape-font-specification:Poppins;text-align:center"><path style="-inkscape-font-specification:Poppins;text-align:center" d="M-367.471 206.82q.034-.45.347-.705.313-.255.813-.255.332 0 .572.122.245.118.367.323.127.206.127.465 0 .304-.176.524-.171.22-.45.284v.024q.318.079.504.309.186.23.186.602 0 .279-.127.504-.127.22-.382.347-.254.127-.612.127-.518 0-.851-.269-.333-.274-.372-.773h.43q.035.294.24.48.206.186.548.186.343 0 .52-.177.18-.18.18-.464 0-.368-.244-.529-.245-.162-.74-.162h-.112v-.371h.117q.45-.005.68-.147.23-.147.23-.45 0-.26-.17-.416-.167-.157-.48-.157-.304 0-.49.157-.186.156-.22.42z" transform="matrix(-.25965 -.9651 .66694 -1.3724 -228.6 -50.8)" aria-label="3" font-size="4.894" fill="#f4f4f4" stroke="#f4f4f4" stroke-width=".135"/></g><g style="line-height:1.5;-inkscape-font-specification:Poppins;text-align:center"><path style="-inkscape-font-specification:Poppins;text-align:center" d="M365.341 206.956v-.406h.92v3.538h-.45v-3.132z" transform="matrix(.70741 -.70598 -.1086 1.522 -228.6 -50.8)" aria-label="1" font-size="4.894" fill="#f4f4f4" stroke="#f4f4f4" stroke-width=".135"/></g><g style="line-height:1.5;-inkscape-font-specification:Poppins;text-align:center"><path style="-inkscape-font-specification:Poppins;text-align:center" d="M-137.617-221.19v-.33l1.676-2.32h.52v2.273h.478v.377h-.478v.769h-.43v-.769zm1.785-2.196l-1.284 1.82h1.284z" transform="matrix(.28154 .97226 -1.28522 -.88643 -228.6 -50.8)" aria-label="4" font-size="4.775" fill="#dbdbdb" stroke="#dbdbdb" stroke-width=".132"/></g><g style="line-height:1.5;-inkscape-font-specification:Poppins;text-align:center"><path style="-inkscape-font-specification:Poppins;text-align:center" d="M-122.732 225.185q.606-.487.95-.797.344-.315.578-.654.238-.344.238-.674 0-.31-.152-.487-.148-.181-.483-.181-.324 0-.506.205-.177.2-.19.54h-.421q.019-.535.325-.826.305-.292.787-.292.492 0 .779.273.291.272.291.75 0 .396-.239.773-.234.372-.534.659-.301.282-.77.659h1.643v.363h-2.296z" transform="rotate(-135 -124.821 21.945) scale(1.77314 .56397)" aria-label="2" font-size="4.775" fill="#dbdbdb" stroke="#dbdbdb" stroke-width=".132"/></g><g style="line-height:1.5;-inkscape-font-specification:Poppins;text-align:center"><path style="-inkscape-font-specification:Poppins;text-align:center" d="M256.876-12.877v-.396h.898v3.452h-.44v-3.056z" transform="matrix(.97226 .28154 .88643 1.28522 -228.6 -50.8)" aria-label="1" font-size="4.775" fill="#dbdbdb" stroke="#dbdbdb" stroke-width=".132"/></g><g style="line-height:1.5;-inkscape-font-specification:Poppins;text-align:center"><path style="-inkscape-font-specification:Poppins;text-align:center" d="M130.802-221.672v-.336l1.71-2.366h.53v2.317h.487v.385h-.487v.784h-.438v-.784zm1.821-2.24l-1.31 1.855h1.31z" transform="matrix(-.71096 .70608 -1.5291 .11205 -228.6 -50.8)" aria-label="4" font-size="4.869" fill="#8c8c8c" stroke="#8c8c8c" stroke-width=".134"/></g><g style="line-height:1.5;-inkscape-font-specification:Poppins;text-align:center"><path style="-inkscape-font-specification:Poppins;text-align:center" d="M-257.35-9.4q.034-.449.346-.702.311-.253.808-.253.331 0 .57.122.243.117.365.321.126.205.126.463 0 .302-.175.52-.17.22-.448.283v.024q.317.078.502.307.185.229.185.599 0 .277-.127.501-.127.22-.38.346-.253.127-.608.127-.516 0-.848-.268-.33-.273-.37-.77h.429q.034.293.238.478.205.185.546.185.34 0 .516-.175.18-.18.18-.463 0-.365-.243-.526-.244-.16-.736-.16h-.112v-.37h.117q.448-.005.677-.147.229-.146.229-.448 0-.258-.17-.413-.166-.156-.478-.156-.302 0-.487.156-.185.155-.219.418z" transform="matrix(-.96875 -.256 1.38026 -.6675 -228.6 -50.8)" aria-label="3" font-size="4.869" fill="#8c8c8c" stroke="#8c8c8c" stroke-width=".134"/></g><g style="line-height:1.5;-inkscape-font-specification:Poppins;text-align:center"><path style="-inkscape-font-specification:Poppins;text-align:center" d="M122.458 222.499q.619-.497.97-.813.35-.322.588-.667.244-.35.244-.687 0-.316-.156-.496-.151-.185-.492-.185-.33 0-.516.209-.18.204-.195.55h-.428q.02-.545.33-.842.313-.297.804-.297.502 0 .794.277.297.278.297.765 0 .404-.244.788-.238.38-.545.672-.307.288-.784.672h1.675v.37h-2.342z" transform="matrix(1.67972 -.45008 .14883 .55546 -228.6 -50.8)" aria-label="2" font-size="4.869" fill="#8c8c8c" stroke="#8c8c8c" stroke-width=".134"/></g></g></svg>