<svg xmlns="http://www.w3.org/2000/svg" viewBox="0 0 25.4 25.4" height="96" width="96"><g font-weight="400" font-family="Poppins" letter-spacing="0" word-spacing="0" text-anchor="middle" stroke-width=".176" stroke-linecap="round" stroke-linejoin="round"><g style="line-height:1.5;-inkscape-font-specification:Poppins;text-align:center" aria-label="12" font-size="5.644" fill="#1b1b1b" stroke="#1b1b1b"><path style="-inkscape-font-specification:Poppins;text-align:center" d="M10.56 11.777v-.468h1.062v4.08h-.52v-3.612zM12.44 14.978q.717-.576 1.123-.943.407-.372.683-.773.283-.406.283-.796 0-.367-.181-.576-.175-.214-.57-.214-.384 0-.598.243-.21.237-.226.637h-.497q.023-.632.384-.976t.931-.344q.582 0 .92.321.345.322.345.887 0 .468-.283.914-.276.44-.632.779-.355.333-.909.779h1.942v.429H12.44z"/></g><g style="line-height:1.5;-inkscape-font-specification:Poppins;text-align:center" aria-label="15" font-size="4.751" fill="#181818" stroke="#181818"><path style="-inkscape-font-specification:Poppins;text-align:center" d="M-254.101 99.353v-.394h.893v3.435h-.437v-3.04zM-250.277 99.334h-1.668v1.083q.11-.152.323-.247.214-.1.461-.1.394 0 .641.167.248.161.352.423.11.256.11.546 0 .342-.129.613-.128.27-.394.427-.262.157-.651.157-.499 0-.808-.256-.309-.257-.375-.685h.423q.062.271.261.423.2.152.504.152.375 0 .565-.223.19-.228.19-.599 0-.37-.19-.57-.19-.204-.56-.204-.252 0-.442.124-.186.118-.271.327h-.409v-1.938h2.067z" transform="matrix(-.93452 -.17078 -.14027 -1.0957 -203.2 76.2)"/></g><g style="line-height:1.5;-inkscape-font-specification:Poppins;text-align:center" aria-label="10" font-size="4.799" fill="#3d3d3d" stroke="#3d3d3d"><path style="-inkscape-font-specification:Poppins;text-align:center" d="M88.01-210.057v-.399h.902v3.47h-.442v-3.071zM89.66-208.757q0-.825.27-1.286.268-.466.94-.466.667 0 .936.466.269.46.269 1.286 0 .84-.27 1.306-.268.465-.935.465-.672 0-.94-.465-.27-.466-.27-1.306zm1.983 0q0-.417-.058-.705-.053-.293-.226-.47-.168-.178-.49-.178-.325 0-.498.177-.168.178-.226.47-.053.289-.053.706 0 .432.053.725.058.293.226.47.173.178.499.178.321 0 .49-.178.172-.177.225-.47.058-.293.058-.725z" transform="matrix(.34839 .88398 -.85596 .69848 -203.2 76.2)"/></g><g style="line-height:1.5;-inkscape-font-specification:Poppins;text-align:center" aria-label="17" font-size="2.94" fill="#7e7e7e" stroke="#7f7f7f"><path style="-inkscape-font-specification:Poppins;text-align:center" d="M-20.185 126.215v-.245h.553v2.126h-.27v-1.881zM-17.865 126.18l-.818 1.916h-.27l.829-1.89h-1.135v-.23h1.394z" transform="matrix(-.00186 -.59492 1.67885 -.65577 -203.2 76.2)"/></g><g style="line-height:1.5;-inkscape-font-specification:Poppins;text-align:center" aria-label="20" font-size="2.989" fill="#171717" stroke="#171717"><path style="-inkscape-font-specification:Poppins;text-align:center" d="M126.727 297.918q.38-.305.595-.5.215-.196.361-.409.15-.215.15-.421 0-.194-.096-.305-.093-.113-.302-.113-.203 0-.317.128-.11.126-.12.338h-.262q.012-.335.203-.517.191-.183.493-.183.308 0 .487.17.183.171.183.47 0 .248-.15.484-.146.233-.335.413-.188.176-.48.412h1.027v.227h-1.437zM128.478 297.033q0-.514.167-.8.168-.29.586-.29.416 0 .583.29.167.286.167.8 0 .523-.167.813-.167.29-.583.29-.418 0-.586-.29-.167-.29-.167-.813zm1.234 0q0-.26-.036-.44-.032-.181-.14-.292-.105-.11-.305-.11-.203 0-.31.11-.105.11-.141.293-.033.18-.033.44 0 .268.033.45.036.183.14.293.108.111.311.111.2 0 .305-.11.108-.111.14-.293.036-.183.036-.452z" transform="matrix(-.96273 -1.15093 1.12634 .30782 -203.2 76.2)"/></g><g style="line-height:1.5;-inkscape-font-specification:Poppins;text-align:center"><path style="-inkscape-font-specification:Poppins;text-align:center" d="M29.352-192.517q.589-.473.923-.774.333-.306.56-.635.232-.334.232-.654 0-.301-.148-.472-.144-.177-.468-.177-.315 0-.491.2-.172.194-.186.523h-.408q.019-.519.315-.801.297-.283.765-.283.478 0 .756.264.282.264.282.728 0 .384-.231.75-.227.362-.52.64-.291.274-.746.64h1.595v.352h-2.23z" transform="matrix(.61351 .73798 -1.0149 .40915 -203.2 76.2)" aria-label="2" font-size="4.635" fill="#141414" stroke="#141414"/></g><g style="line-height:1.5;-inkscape-font-specification:Poppins;text-align:center"><path style="-inkscape-font-specification:Poppins;text-align:center" d="M-261.446-286.031h-1.06v.688q.07-.097.206-.157.136-.063.293-.063.25 0 .407.105.157.103.224.27.07.162.07.346 0 .218-.082.39-.082.172-.251.272-.166.1-.414.1-.317 0-.513-.164-.196-.163-.238-.435h.268q.04.172.166.269.127.097.32.097.239 0 .36-.142.12-.145.12-.38 0-.236-.12-.363-.121-.13-.357-.13-.16 0-.28.079-.118.075-.172.208h-.26v-1.232h1.313z" transform="matrix(-.54286 1.42046 -.289 -1.0859 -203.2 76.2)" aria-label="5" font-size="3.019" fill="#141414" stroke="#141414"/></g><g style="line-height:1.5;-inkscape-font-specification:Poppins;text-align:center" aria-label="18" font-size="3.009" fill="#0f0f0f" stroke="#0f0f0f"><path style="-inkscape-font-specification:Poppins;text-align:center" d="M5.401-200.861v-.25h.566v2.176H5.69v-1.926zM6.834-200.067q-.169-.066-.26-.192-.09-.127-.09-.307 0-.163.082-.292.081-.133.24-.208.163-.078.392-.078.228 0 .388.078.162.075.244.208.084.13.084.292 0 .174-.093.307-.094.129-.256.192.186.057.295.202.111.141.111.343 0 .195-.096.343-.096.144-.274.226-.175.078-.403.078-.229 0-.403-.078-.172-.082-.268-.226-.097-.148-.097-.343 0-.202.109-.346.108-.145.295-.199zm.815-.466q0-.184-.12-.283-.12-.1-.331-.1-.208 0-.328.1-.12.1-.12.286 0 .168.123.27.126.103.325.103.201 0 .325-.102.126-.106.126-.274zm-.451.587q-.223 0-.364.105-.142.102-.142.31 0 .192.136.31.138.117.37.117.231 0 .367-.117.135-.118.135-.31 0-.202-.138-.307-.139-.108-.364-.108z" transform="matrix(-.93035 1.14205 -1.13608 .31973 -203.2 76.2)"/></g><g style="line-height:1.5;-inkscape-font-specification:Poppins;text-align:center"><path style="-inkscape-font-specification:Poppins;text-align:center" d="M-161.64-346.224q-.163-.064-.251-.187t-.088-.3q0-.157.079-.283.079-.129.234-.202.158-.076.38-.076.223 0 .379.076.158.073.237.202.082.126.082.284 0 .17-.091.299-.09.126-.249.187.182.056.287.196.108.138.108.334 0 .19-.093.334-.094.14-.267.22-.17.076-.392.076-.223 0-.393-.077-.166-.079-.26-.22-.094-.143-.094-.333 0-.196.106-.337.105-.14.287-.193zm.794-.454q0-.178-.117-.275-.117-.097-.322-.097-.202 0-.32.097-.116.097-.116.278 0 .164.12.264.123.1.316.1.196 0 .316-.1.123-.103.123-.267zm-.44.571q-.216 0-.353.103-.138.1-.138.301 0 .188.132.302.134.114.36.114.225 0 .357-.114.132-.114.132-.302 0-.196-.135-.298-.135-.106-.354-.106z" transform="matrix(.00568 1.67045 -.60068 -.59857 -203.2 76.2)" aria-label="8" font-size="2.928" fill="#292929" stroke="#292929"/></g><g style="line-height:1.5;-inkscape-font-specification:Poppins;text-align:center"><path style="-inkscape-font-specification:Poppins;text-align:center" d="M20.053 297.662l-.808 1.896h-.268l.82-1.87h-1.122v-.227h1.378z" transform="matrix(-1.49875 -.86902 .83287 -.1843 -203.2 76.2)" aria-label="7" font-size="2.908" fill="#434343" stroke="#434343"/></g></g></svg>