<svg xmlns="http://www.w3.org/2000/svg" viewBox="0 0 25.4 25.4" height="96" width="96"><g font-weight="400" font-family="Poppins" letter-spacing="0" word-spacing="0" text-anchor="middle" stroke-linecap="round" stroke-linejoin="round"><g style="line-height:1.5;-inkscape-font-specification:Poppins;text-align:center" aria-label="9." font-size="7.964" fill="#f2f2f2" stroke="#f2f2f2" stroke-width=".249"><path style="-inkscape-font-specification:Poppins;text-align:center" d="M10.88 14.307q.08.454.367.7.294.247.788.247.661 0 .972-.517.318-.518.302-1.744-.167.358-.557.565-.39.2-.868.2-.534 0-.956-.216-.414-.223-.653-.645-.239-.422-.239-1.02 0-.851.494-1.37.494-.525 1.402-.525 1.114 0 1.56.725.454.725.454 2.158 0 1.004-.183 1.657-.175.653-.605.995-.422.343-1.163.343-.812 0-1.266-.438-.454-.438-.518-1.115zm1.123-1.163q.534 0 .876-.327.343-.334.343-.9 0-.597-.335-.963-.334-.366-.94-.366-.557 0-.891.35-.327.35-.327.924 0 .581.327.932.326.35.947.35zM15.316 15.9q-.207 0-.35-.144-.144-.143-.144-.35t.144-.35q.143-.144.35-.144.2 0 .335.143.143.144.143.35 0 .208-.143.351-.136.143-.335.143z"/></g><g style="line-height:1.5;-inkscape-font-specification:Poppins;text-align:center" aria-label="11" font-size="4.851" fill="#8c8c8c" stroke="#8c8c8c" stroke-width=".152"><path style="-inkscape-font-specification:Poppins;text-align:center" d="M402.617 587.062v-.403h.912v3.507h-.446v-3.104zM404.17 587.062v-.403h.912v3.507h-.447v-3.104z" transform="matrix(.74373 -1.14237 .17085 1.08214 -381 -159.808)"/></g><g style="line-height:1.5;-inkscape-font-specification:Poppins;text-align:center"><path style="-inkscape-font-specification:Poppins;text-align:center" d="M191.246-327.848l-1.34 3.143h-.444l1.36-3.1h-1.862v-.376h2.286z" transform="matrix(-.49582 .60338 -1.49263 -.20043 -381 -159.808)" aria-label="7" font-size="4.822" fill="#b6b6b6" stroke="#b6b6b6" stroke-width=".151"/></g><g style="line-height:1.5;-inkscape-font-specification:Poppins;text-align:center" aria-label="12" font-size="4.847" fill="#dbdbdb" stroke="#dbdbdb" stroke-width=".151"><path style="-inkscape-font-specification:Poppins;text-align:center" d="M-124.872-504.835v-.402h.91v3.504h-.445v-3.102zM-123.258-502.087q.615-.494.964-.809.349-.32.587-.664.242-.349.242-.683 0-.315-.155-.495-.15-.184-.49-.184-.33 0-.514.209-.179.203-.193.547h-.427q.02-.543.33-.838.31-.296.8-.296.499 0 .79.276.295.277.295.761 0 .403-.242.785-.238.379-.543.67-.305.285-.78.668h1.667v.369h-2.331z" transform="matrix(-.0013 1.30307 -.76675 -.66469 -381 -159.808)"/></g><g style="line-height:1.5;-inkscape-font-specification:Poppins;text-align:center"><path style="-inkscape-font-specification:Poppins;text-align:center" d="M-111.652 285.988h-1.64v1.066q.107-.15.317-.243.21-.098.454-.098.387 0 .63.163.243.16.346.416.108.253.108.538 0 .336-.126.603-.127.266-.388.42-.257.154-.64.154-.491 0-.795-.252-.304-.252-.37-.673h.417q.06.267.257.416.196.15.495.15.37 0 .556-.22.187-.224.187-.589 0-.364-.187-.56-.187-.202-.551-.202-.248 0-.435.122-.182.117-.266.322h-.402v-1.906h2.033z" transform="matrix(-.81367 -1.06095 1.06788 .16342 -381 -159.808)" aria-label="5" font-size="4.673" fill="#dbdbdb" stroke="#dbdbdb" stroke-width=".146"/></g><g style="line-height:1.5;-inkscape-font-specification:Poppins;text-align:center" aria-label="10" font-size="4.798" fill="#f8f8f8" stroke="#f8f8f8" stroke-width=".15"><path style="-inkscape-font-specification:Poppins;text-align:center" d="M-447.987-384.506v-.398h.902v3.469h-.442v-3.071zM-446.337-383.206q0-.825.269-1.286.269-.465.94-.465.667 0 .936.465.269.461.269 1.286 0 .84-.27 1.305-.268.466-.935.466-.671 0-.94-.466-.269-.465-.269-1.305zm1.982 0q0-.417-.058-.705-.053-.293-.225-.47-.168-.178-.49-.178-.326 0-.499.178-.168.177-.225.47-.053.288-.053.705 0 .432.053.725.057.292.225.47.173.178.5.178.32 0 .489-.178.172-.178.225-.47.058-.293.058-.725z" transform="matrix(-1.244 .4538 .4321 -.96148 -381 -159.808)"/></g></g></svg>