<svg xmlns="http://www.w3.org/2000/svg" viewBox="0 0 25.4 25.4" height="96" width="96"><g font-weight="400" font-family="Poppins" letter-spacing="0" word-spacing="0" text-anchor="middle" stroke-linecap="round" stroke-linejoin="round"><g style="line-height:1.5;-inkscape-font-specification:Poppins;text-align:center"><path style="-inkscape-font-specification:Poppins;text-align:center" d="M14.663 10.66l-2.214 5.192h-.733l2.246-5.121h-3.074v-.621h3.775z" aria-label="7" font-size="7.964" fill="#1b1b1b" stroke="#1b1b1b" stroke-width=".249"/></g><g style="line-height:1.5;-inkscape-font-specification:Poppins;text-align:center" aria-label="9." font-size="4.851" fill="#101010" stroke="#0f0f0f" stroke-width=".152"><path style="-inkscape-font-specification:Poppins;text-align:center" d="M353.449 506.792q.048.277.223.427.18.15.48.15.403 0 .592-.315.194-.315.184-1.062-.102.218-.34.344-.237.122-.528.122-.325 0-.582-.131-.252-.136-.398-.393-.146-.257-.146-.621 0-.52.301-.835.301-.32.854-.32.68 0 .95.442.277.441.277 1.314 0 .612-.111 1.01-.107.397-.369.606-.257.208-.708.208-.495 0-.771-.266-.277-.267-.316-.68zm.684-.708q.325 0 .533-.199.209-.203.209-.548 0-.364-.204-.587-.204-.223-.572-.223-.34 0-.544.213-.198.214-.198.563 0 .354.198.568.2.213.578.213zM356.15 507.763q-.125 0-.213-.088-.087-.087-.087-.213t.087-.213q.088-.088.214-.088.121 0 .204.088.087.087.087.213t-.087.213q-.083.088-.204.088z" transform="matrix(.74373 -1.14237 .17085 1.08214 -330.2 -127)"/></g><g style="line-height:1.5;-inkscape-font-specification:Poppins;text-align:center" aria-label="12" font-size="4.822" fill="#141414" stroke="#141414" stroke-width=".151"><path style="-inkscape-font-specification:Poppins;text-align:center" d="M149.354-280.872v-.4h.907v3.486h-.444v-3.086zM150.96-278.138q.612-.492.96-.805.347-.318.583-.66.241-.348.241-.68 0-.314-.154-.492-.15-.184-.487-.184-.328 0-.511.208-.179.202-.193.545h-.425q.02-.54.328-.835.309-.294.796-.294.497 0 .786.275.294.275.294.757 0 .4-.241.781-.236.376-.54.666-.304.284-.777.665h1.66v.367h-2.32z" transform="matrix(-.49582 .60338 -1.49263 -.20043 -330.2 -127)"/></g><g style="line-height:1.5;-inkscape-font-specification:Poppins;text-align:center"><path style="-inkscape-font-specification:Poppins;text-align:center" d="M-114.866-437.316q-.272-.107-.417-.31-.145-.204-.145-.495 0-.262.13-.47.131-.213.388-.334.262-.126.63-.126.369 0 .626.126.261.12.392.334.136.208.136.47 0 .281-.15.495-.15.208-.412.31.3.092.475.324.179.228.179.553 0 .315-.155.552-.155.233-.441.364-.281.126-.65.126-.368 0-.65-.126-.275-.13-.43-.364-.156-.237-.156-.552 0-.325.175-.557.174-.233.475-.32zm1.313-.752q0-.295-.194-.455-.193-.16-.533-.16-.334 0-.528.16t-.194.46q0 .272.199.437.203.164.523.164.325 0 .524-.164.203-.17.203-.442zm-.727.946q-.358 0-.586.17-.228.164-.228.498 0 .31.218.5.223.189.596.189.374 0 .592-.19.218-.188.218-.499 0-.324-.223-.494-.223-.174-.587-.174z" transform="matrix(-.0013 1.30307 -.76675 -.66469 -330.2 -127)" aria-label="8" font-size="4.847" fill="#171717" stroke="#171717" stroke-width=".151"/></g><g style="line-height:1.5;-inkscape-font-specification:Poppins;text-align:center" aria-label="10" font-size="4.673" fill="#171717" stroke="#171717" stroke-width=".146"><path style="-inkscape-font-specification:Poppins;text-align:center" d="M-87.933 258.806v-.388h.879v3.379h-.43v-2.991zM-86.325 260.072q0-.803.261-1.252.262-.453.916-.453.65 0 .912.453.261.449.261 1.252 0 .818-.261 1.272-.262.453-.912.453-.654 0-.916-.453-.261-.454-.261-1.272zm1.93 0q0-.406-.056-.687-.052-.285-.22-.458-.163-.172-.477-.172-.317 0-.486.172-.163.173-.22.458-.05.28-.05.687 0 .421.05.706.057.285.22.458.169.173.486.173.314 0 .477-.173.168-.173.22-.458.056-.285.056-.706z" transform="matrix(-.81367 -1.06095 1.06788 .16342 -330.2 -127)"/></g><g style="line-height:1.5;-inkscape-font-specification:Poppins;text-align:center"><path style="-inkscape-font-specification:Poppins;text-align:center" d="M-384.01-317.92q.61-.488.955-.8.345-.317.58-.658.24-.345.24-.676 0-.312-.153-.49-.15-.182-.485-.182-.326 0-.509.206-.177.202-.192.543h-.422q.02-.538.326-.83.308-.293.792-.293.494 0 .782.273.293.274.293.754 0 .398-.24.777-.235.374-.537.662-.303.283-.773.662h1.65v.365h-2.307z" transform="matrix(-1.244 .4538 .4321 -.96148 -330.2 -127)" aria-label="2" font-size="4.798" fill="#7f7f7f" stroke="#7f7f7f" stroke-width=".15"/></g></g></svg>