<svg xmlns="http://www.w3.org/2000/svg" viewBox="0 0 25.4 25.4" height="96" width="96"><g font-weight="400" font-family="Poppins" word-spacing="0" text-anchor="middle" stroke-linecap="round" stroke-linejoin="round"><path style="line-height:1.5;-inkscape-font-specification:Poppins;font-variant-ligatures:normal;font-variant-position:normal;font-variant-caps:normal;font-variant-numeric:normal;font-variant-alternates:normal;font-feature-settings:normal;text-indent:0;text-align:center;text-decoration-line:none;text-decoration-style:solid;text-decoration-color:#000;text-transform:none;text-orientation:mixed;white-space:normal;shape-padding:0" d="M11.115 14.034q-.519-.645-.419-1.379.1-.733.768-1.36.445-.417.92-.554.474-.15.896-.028.428.116.753.463.38.406.421.921.047.51-.246.945l.03.033q.524-.295 1.062-.22.537.074 1.003.572.35.373.462.834.106.454-.075.944-.18.49-.659.937-.694.65-1.477.708-.789.05-1.467-.568l.576-.54q.414.35.923.34.508-.008.966-.438.459-.43.473-.886.016-.47-.34-.85-.46-.49-.99-.4-.53.091-1.192.711l-.15.141-.467-.497.157-.148q.596-.57.726-1.05.124-.484-.257-.89-.325-.347-.75-.342-.42 0-.839.392-.406.38-.458.823-.053.443.233.84z" aria-label="3" font-size="10.559" letter-spacing="-.619" fill="#f2f2f2" stroke="#f2f2f2" stroke-width=".0697"/><path style="line-height:1.5;-inkscape-font-specification:Poppins;font-variant-ligatures:normal;font-variant-position:normal;font-variant-caps:normal;font-variant-numeric:normal;font-variant-alternates:normal;font-feature-settings:normal;text-indent:0;text-align:center;text-decoration-line:none;text-decoration-style:solid;text-decoration-color:#000;text-transform:none;text-orientation:mixed;white-space:normal;shape-padding:0" d="M-279.454 152.746h-2.78v1.806q.182-.253.538-.412.357-.166.769-.166.657 0 1.07.277.411.27.585.705.183.428.183.911 0 .57-.214 1.022-.214.451-.658.713-.435.261-1.085.261-.832 0-1.347-.427-.514-.428-.625-1.141h.705q.103.451.435.705.333.253.84.253.626 0 .943-.372.316-.38.316-.998t-.316-.95q-.317-.341-.935-.341-.42 0-.737.206-.309.198-.451.546h-.682v-3.232h3.446z" transform="matrix(-.1303 -.66064 1.11098 .08792 -192.405 -192.405)" aria-label="5" font-size="7.921" letter-spacing="-.464" fill="#f4f4f4" stroke="#f4f4f4" stroke-width=".062"/><path style="line-height:1.5;-inkscape-font-specification:Poppins;font-variant-ligatures:normal;font-variant-position:normal;font-variant-caps:normal;font-variant-numeric:normal;font-variant-alternates:normal;font-feature-settings:normal;text-indent:0;text-align:center;text-decoration-line:none;text-decoration-style:solid;text-decoration-color:#000;text-transform:none;text-orientation:mixed;white-space:normal;shape-padding:0" d="M286.92 126.728l-2.21 5.185h-.732l2.243-5.113h-3.07v-.62h3.77z" transform="matrix(.66765 .23046 .06872 1.10588 -192.405 -192.405)" aria-label="7" font-size="7.953" letter-spacing="-.466" fill="#f4f4f4" stroke="#f4f4f4" stroke-width=".062"/><path style="line-height:1.5;-inkscape-font-specification:Poppins;font-variant-ligatures:normal;font-variant-position:normal;font-variant-caps:normal;font-variant-numeric:normal;font-variant-alternates:normal;font-feature-settings:normal;text-indent:0;text-align:center;text-decoration-line:none;text-decoration-style:solid;text-decoration-color:#000;text-transform:none;text-orientation:mixed;white-space:normal;shape-padding:0" d="M-494.135-1038.639q-.155-.06-.238-.177-.083-.117-.083-.283 0-.15.074-.269.075-.122.222-.19.15-.073.36-.073t.358.072q.15.07.224.191.078.12.078.27 0 .16-.086.282-.086.119-.236.177.172.053.272.186.102.13.102.316 0 .18-.088.315-.09.133-.253.208-.16.072-.37.072-.211 0-.372-.072-.158-.075-.247-.208-.088-.135-.088-.315 0-.186.1-.32.099-.132.27-.182zm.75-.43q0-.168-.11-.26-.11-.09-.305-.09-.191 0-.302.09-.11.091-.11.263 0 .156.113.25.116.094.3.094.185 0 .298-.094.117-.097.117-.252zm-.415.54q-.205 0-.335.098-.13.094-.13.285 0 .178.124.286.128.108.341.108.214 0 .338-.108.125-.108.125-.286 0-.185-.128-.282-.127-.1-.335-.1z" transform="matrix(-1.0948 2.47468 .31608 -1.3744 -192.405 -192.405)" aria-label="8" font-size="2.771" letter-spacing="-.162" fill="#8c8c8c" stroke="#8c8c8c" stroke-width=".022"/><path style="line-height:1.5;-inkscape-font-specification:Poppins;font-variant-ligatures:normal;font-variant-position:normal;font-variant-caps:normal;font-variant-numeric:normal;font-variant-alternates:normal;font-feature-settings:normal;text-indent:0;text-align:center;text-decoration-line:none;text-decoration-style:solid;text-decoration-color:#000;text-transform:none;text-orientation:mixed;white-space:normal;shape-padding:0" d="M362.338-782.646q0-.54.176-.841.176-.304.615-.304.436 0 .612.304.176.301.176.841 0 .55-.176.854-.176.304-.612.304-.44 0-.615-.304-.176-.305-.176-.854zm1.296 0q0-.273-.037-.461-.035-.192-.148-.308-.11-.116-.32-.116-.213 0-.326.116-.11.116-.148.308-.034.188-.034.461 0 .283.034.474.038.192.148.308.113.116.326.116.21 0 .32-.116.113-.116.148-.308.037-.191.037-.474z" transform="matrix(-1.90262 .78802 -1.14505 .09451 -192.405 -192.405)" aria-label="0" font-size="3.139" letter-spacing="-.184" fill="#b6b6b6" stroke="#b6b6b6" stroke-width=".025"/></g></svg>