<svg xmlns="http://www.w3.org/2000/svg" viewBox="0 0 25.4 25.4" height="96" width="96"><g font-weight="400" font-family="Poppins" letter-spacing="0" word-spacing="0" text-anchor="middle" stroke-linecap="round" stroke-linejoin="round"><g style="line-height:1.5;-inkscape-font-specification:Poppins;text-align:center"><path style="-inkscape-font-specification:Poppins;text-align:center" d="M-334.276 185.589q.619-.497.97-.813.35-.321.588-.667.244-.35.244-.687 0-.316-.156-.496-.15-.185-.492-.185-.33 0-.516.21-.18.204-.195.55h-.428q.02-.546.331-.843.312-.297.803-.297.502 0 .794.277.297.278.297.765 0 .404-.243.789-.239.38-.546.672-.306.287-.784.671h1.675v.37h-2.342z" transform="matrix(-.256 -.96875 .6675 -1.38026 -203.2 -50.8)" aria-label="2" font-size="4.869" fill="#f4f4f4" stroke="#f4f4f4" stroke-width=".134"/></g><g style="line-height:1.5;-inkscape-font-specification:Poppins;text-align:center"><path style="-inkscape-font-specification:Poppins;text-align:center" d="M327.819 190.476q.034-.448.345-.701.312-.253.809-.253.33 0 .57.121.243.117.364.322.127.204.127.462 0 .302-.175.521-.17.22-.448.283v.024q.316.078.501.307.185.228.185.598 0 .278-.126.502-.127.219-.38.346-.253.126-.609.126-.516 0-.847-.268-.331-.272-.37-.769h.429q.034.292.238.477.205.185.545.185.341 0 .516-.175.18-.18.18-.463 0-.365-.243-.525-.243-.161-.735-.161h-.112v-.37h.117q.448-.005.677-.146.228-.146.228-.448 0-.258-.17-.414-.165-.156-.477-.156-.302 0-.487.156t-.22.419z" transform="matrix(.70608 -.71096 -.11205 1.5291 -203.2 -50.8)" aria-label="3" font-size="4.869" fill="#f4f4f4" stroke="#f4f4f4" stroke-width=".134"/></g><g style="line-height:1.5;-inkscape-font-specification:Poppins;text-align:center"><path style="-inkscape-font-specification:Poppins;text-align:center" d="M3.53-386.97v-.405h.915v3.52h-.448v-3.116z" transform="matrix(-.45008 1.67971 -.55546 -.14883 -203.2 -50.8)" aria-label="1" font-size="4.869" fill="#f4f4f4" stroke="#f4f4f4" stroke-width=".134"/></g><g style="line-height:1.5;-inkscape-font-specification:Poppins;text-align:center"><path style="-inkscape-font-specification:Poppins;text-align:center" d="M127.166-203.697v-.337l1.714-2.374h.533v2.325h.488v.386h-.488v.786h-.44v-.786zm1.827-2.247l-1.314 1.861h1.314z" transform="matrix(-.70787 .7069 -1.52469 .10992 -203.2 -50.8)" aria-label="4" font-size="4.884" fill="#8c8c8c" stroke="#8c8c8c" stroke-width=".135"/></g><g style="line-height:1.5;-inkscape-font-specification:Poppins;text-align:center"><path style="-inkscape-font-specification:Poppins;text-align:center" d="M-239.975-12.975q.62-.499.972-.816.352-.322.591-.67.244-.35.244-.688 0-.317-.156-.498-.151-.186-.493-.186-.332 0-.518.21-.18.205-.195.552h-.43q.02-.547.332-.845.313-.298.806-.298.503 0 .796.279.298.278.298.767 0 .405-.244.79-.24.382-.547.675-.308.288-.787.674h1.68v.371h-2.349z" transform="matrix(-.96648 -.25826 1.37538 -.66715 -203.2 -50.8)" aria-label="2" font-size="4.884" fill="#8c8c8c" stroke="#8c8c8c" stroke-width=".135"/></g><g style="line-height:1.5;-inkscape-font-specification:Poppins;text-align:center"><path style="-inkscape-font-specification:Poppins;text-align:center" d="M109.256 207.588v-.406h.918v3.532h-.45v-3.126z" transform="matrix(1.67435 -.44864 .14931 .55724 -203.2 -50.8)" aria-label="1" font-size="4.884" fill="#8c8c8c" stroke="#8c8c8c" stroke-width=".135"/></g><g style="line-height:1.5;-inkscape-font-specification:Poppins;text-align:center"><path style="-inkscape-font-specification:Poppins;text-align:center" d="M223.695-5.253q.033-.44.339-.688.305-.248.792-.248.325 0 .559.12.239.114.358.315.124.2.124.453 0 .296-.172.511-.167.215-.439.277v.024q.31.076.492.3.181.225.181.588 0 .272-.124.492-.124.215-.372.339-.249.124-.597.124-.506 0-.831-.262-.325-.268-.363-.755h.42q.034.287.234.468.2.181.535.181.334 0 .506-.171.177-.177.177-.454 0-.358-.239-.516-.239-.157-.721-.157h-.11v-.363h.115q.44-.005.664-.143.224-.144.224-.44 0-.253-.167-.406-.163-.152-.468-.152-.296 0-.478.152-.181.153-.214.411z" transform="matrix(.97226 .28154 .88643 1.28522 -203.2 -50.8)" aria-label="3" font-size="4.775" fill="#dbdbdb" stroke="#dbdbdb" stroke-width=".132"/></g><g style="line-height:1.5;-inkscape-font-specification:Poppins;text-align:center"><path style="-inkscape-font-specification:Poppins;text-align:center" d="M-115.102-196.494v-.33l1.676-2.32h.52v2.273h.478v.377h-.478v.769h-.43v-.77zm1.786-2.197l-1.285 1.82h1.285z" transform="matrix(.28154 .97226 -1.28522 -.88643 -203.2 -50.8)" aria-label="4" font-size="4.775" fill="#dbdbdb" stroke="#dbdbdb" stroke-width=".132"/></g><g style="line-height:1.5;-inkscape-font-specification:Poppins;text-align:center"><path style="-inkscape-font-specification:Poppins;text-align:center" d="M-112.056 190.631v-.396h.897v3.452h-.439v-3.056z" transform="rotate(-135 -112.121 16.684) scale(1.77314 .56397)" aria-label="1" font-size="4.775" fill="#dbdbdb" stroke="#dbdbdb" stroke-width=".132"/></g></g></svg>