<svg xmlns="http://www.w3.org/2000/svg" viewBox="0 0 25.4 25.4" height="96" width="96"><g font-weight="400" font-family="Poppins" word-spacing="0" text-anchor="middle" stroke-linecap="round" stroke-linejoin="round"><g style="line-height:1.5;-inkscape-font-specification:Poppins;text-align:center" aria-label="6." font-size="10.559" letter-spacing="-.794" fill="#1b1b1b" stroke="#1b1b1b" stroke-width=".082"><path style="-inkscape-font-specification:Poppins;text-align:center" d="M13.114 12.038q-.826-.592-1.579.114-.582.546-.447 1.268.13.715 1.1 1.737-.17-.482 0-.997.17-.528.601-.933.675-.632 1.467-.587.799.038 1.493.778.417.445.572.965.16.513.004 1.054-.151.535-.649 1.001-.674.632-1.336.687-.662.055-1.31-.334-.648-.39-1.378-1.169-2.253-2.403-.577-3.974.642-.602 1.334-.598.692.003 1.255.472zm.024 1.81q-.282.264-.42.615-.145.345-.08.728.063.37.376.704.467.498 1.05.542.576.038 1.113-.466.458-.43.463-.963.005-.546-.45-1.03-.478-.51-1.01-.553-.538-.05-1.042.423zM17.847 14.452q-.17.16-.398.152-.229-.007-.388-.177-.16-.17-.152-.399.007-.228.177-.388.164-.153.386-.14.228.008.388.178.16.17.152.399 0 .222-.165.375z" stroke-width=".0697"/></g><path style="line-height:1.5;-inkscape-font-specification:Poppins;font-variant-ligatures:normal;font-variant-position:normal;font-variant-caps:normal;font-variant-numeric:normal;font-variant-alternates:normal;font-feature-settings:normal;text-indent:0;text-align:center;text-decoration-line:none;text-decoration-style:solid;text-decoration-color:#000;text-transform:none;text-orientation:mixed;white-space:normal;shape-padding:0" d="M-241.902 220.387q1.006-.808 1.576-1.323.57-.523.959-1.085.396-.57.396-1.117 0-.515-.254-.808-.245-.301-.8-.301-.538 0-.84.34-.293.333-.316.896h-.697q.031-.888.538-1.37.507-.484 1.307-.484.816 0 1.291.451.484.452.484 1.244 0 .658-.396 1.283-.389.618-.888 1.093-.499.468-1.275 1.094h2.725v.602h-3.81z" transform="matrix(-.1303 -.66064 1.11098 .08792 -257.175 -170.815)" aria-label="2" font-size="7.921" letter-spacing="-.464" fill="#3d3d3d" stroke="#3d3d3d" stroke-width=".062"/><g style="line-height:1.5;-inkscape-font-specification:Poppins;font-variant-ligatures:normal;font-variant-position:normal;font-variant-caps:normal;font-variant-numeric:normal;font-variant-alternates:normal;font-feature-settings:normal;text-indent:0;text-align:center;text-decoration-line:none;text-decoration-style:solid;text-decoration-color:#000;text-transform:none;text-orientation:mixed;white-space:normal;shape-padding:0" aria-label="4." font-size="7.953" letter-spacing="-.466" fill="#3d3d3d" stroke="#3d3d3d" stroke-width=".062"><path style="line-height:1.5;-inkscape-font-specification:Poppins;font-variant-ligatures:normal;font-variant-position:normal;font-variant-caps:normal;font-variant-numeric:normal;font-variant-alternates:normal;font-feature-settings:normal;text-indent:0;text-align:center;text-decoration-line:none;text-decoration-style:solid;text-decoration-color:#000;text-transform:none;text-orientation:mixed;white-space:normal;shape-padding:0" d="M383.631 90.022v-.549l2.792-3.865h.866v3.785h.796v.629h-.796v1.28h-.715v-1.28zm2.974-3.659l-2.139 3.03h2.14z" letter-spacing="-.794" transform="matrix(.66765 .23046 .06872 1.10588 -257.175 -170.815)"/><path d="M8.393 19.71q-.138-.047-.243-.238-.106-.192-.12-.42-.014-.229.071-.354.086-.126.224-.078.133.046.233.235.105.192.12.42.014.229-.072.354-.08.127-.213.082z" fill="none" stroke="none"/></g><g style="line-height:1.5;-inkscape-font-specification:Poppins;text-align:center" aria-label="9." font-size="2.771" letter-spacing="-.162" fill="#0f0f0f" stroke="#0f0f0f" stroke-width=".022"><path style="-inkscape-font-specification:Poppins;text-align:center" d="M-608.15-1227.267q.027.158.127.243.103.086.274.086.23 0 .338-.18.111-.18.106-.606-.058.124-.194.196-.136.07-.302.07-.186 0-.333-.076-.144-.077-.227-.224-.083-.147-.083-.355 0-.296.172-.476.172-.183.487-.183.388 0 .543.252.158.252.158.75 0 .35-.063.577-.061.227-.21.346-.148.12-.405.12-.283 0-.44-.153-.159-.152-.181-.388zm.39-.405q.186 0 .305-.114.12-.116.12-.313 0-.207-.117-.335-.116-.127-.327-.127-.194 0-.31.122-.114.122-.114.321 0 .202.114.324.113.122.33.122zM-606.77-1226.713q-.071 0-.121-.05t-.05-.122q0-.072.05-.122t.122-.05q.069 0 .116.05.05.05.05.122t-.05.122q-.047.05-.116.05z" transform="matrix(-1.0948 2.47468 .31608 -1.3744 -257.175 -170.815)"/></g><g style="line-height:1.5;-inkscape-font-specification:Poppins;text-align:center"><path style="-inkscape-font-specification:Poppins;text-align:center" d="M337.002-797.285v-.26h.59v2.269h-.289v-2.01z" transform="matrix(-1.90262 .78802 -1.14505 .09451 -257.175 -170.815)" aria-label="1" font-size="3.139" letter-spacing="-.331" fill="#141414" stroke="#141414" stroke-width=".025"/></g></g></svg>