<svg xmlns="http://www.w3.org/2000/svg" viewBox="0 0 25.4 25.4" height="96" width="96"><g font-weight="400" font-family="Poppins" letter-spacing="0" word-spacing="0" text-anchor="middle" stroke-width=".176" stroke-linecap="round" stroke-linejoin="round"><g style="line-height:1.5;-inkscape-font-specification:Poppins;text-align:center"><path style="-inkscape-font-specification:Poppins;text-align:center" d="M11.548 12.336q.04-.519.401-.813.361-.293.937-.293.384 0 .66.141.283.136.424.373.147.237.147.536 0 .35-.204.604-.197.254-.519.327v.028q.367.09.581.356.215.265.215.694 0 .322-.147.582-.147.254-.44.4-.294.147-.706.147-.598 0-.982-.31-.384-.316-.429-.892h.497q.04.339.277.553.237.215.632.215t.598-.204q.209-.209.209-.536 0-.423-.282-.61-.283-.186-.853-.186h-.13v-.429h.136q.52-.005.785-.17.265-.168.265-.518 0-.3-.198-.48-.192-.18-.553-.18-.35 0-.564.18-.215.18-.254.485z" aria-label="3" font-size="5.644" fill="#1b1b1b" stroke="#1b1b1b"/></g><g style="line-height:1.5;-inkscape-font-specification:Poppins;text-align:center"><path style="-inkscape-font-specification:Poppins;text-align:center" d="M-504.596 138.392v-.394h.893v3.434h-.437v-3.04zm3.549.423q-.105-.527-.65-.527-.424 0-.633.327-.209.323-.204 1.07.11-.248.361-.386.257-.142.57-.142.49 0 .78.304.294.304.294.84 0 .324-.129.58-.123.257-.38.409-.251.152-.612.152-.49 0-.765-.219-.276-.218-.385-.603-.11-.385-.11-.95 0-1.743 1.217-1.743.465 0 .731.251.266.252.314.637zm-.646.708q-.204 0-.385.085-.18.081-.294.252-.11.166-.11.409 0 .36.21.589.208.223.598.223.332 0 .527-.204.2-.21.2-.56 0-.371-.19-.58-.19-.214-.556-.214z" transform="matrix(-.93452 -.17078 -.14027 -1.0957 -431.8 76.2)" aria-label="16" font-size="4.751" fill="#181818" stroke="#181818"/></g><g style="line-height:1.5;-inkscape-font-specification:Poppins;text-align:center"><path style="-inkscape-font-specification:Poppins;text-align:center" d="M247.88-412.136v-.398h.902v3.47h-.441v-3.072zm3.787-.058l-1.335 3.13h-.441l1.353-3.086h-1.852v-.375h2.275z" transform="matrix(.34839 .88398 -.85596 .69848 -431.8 76.2)" aria-label="17" font-size="4.799" fill="#3d3d3d" stroke="#3d3d3d"/></g><g style="line-height:1.5;-inkscape-font-specification:Poppins;text-align:center"><path style="-inkscape-font-specification:Poppins;text-align:center" d="M-170.216 262.213v-.244h.553v2.126h-.27v-1.882zm1.012.797q0-.506.164-.788.165-.285.577-.285.408 0 .573.285.165.282.165.788 0 .514-.165.8-.165.285-.573.285-.412 0-.577-.285-.164-.286-.164-.8zm1.214 0q0-.256-.035-.432-.033-.18-.138-.288-.103-.11-.3-.11-.2 0-.306.11-.103.108-.138.288-.033.176-.033.432 0 .265.033.444.035.18.138.288.106.109.306.109.197 0 .3-.109.105-.109.138-.288.035-.18.035-.444z" transform="matrix(-.00186 -.59492 1.67885 -.65577 -431.8 76.2)" aria-label="10" font-size="2.94" fill="#7e7e7e" stroke="#7f7f7f"/></g><g style="line-height:1.5;-inkscape-font-specification:Poppins;text-align:center"><path style="-inkscape-font-specification:Poppins;text-align:center" d="M198.373 559.326v-.248h.562v2.16h-.275v-1.912z" transform="matrix(-.96273 -1.15093 1.12634 .30782 -431.8 76.2)" aria-label="1" font-size="2.989" fill="#171717" stroke="#171717"/></g><g style="line-height:1.5;-inkscape-font-specification:Poppins;text-align:center"><path style="-inkscape-font-specification:Poppins;text-align:center" d="M121.957-363.847v-.385h.87v3.352h-.425v-2.967zm2.136 2.067q.047.265.213.408.172.144.46.144.384 0 .565-.301.185-.302.176-1.015-.097.208-.324.329-.228.116-.506.116-.31 0-.556-.126-.24-.13-.38-.375-.139-.246-.139-.593 0-.496.287-.798.288-.305.816-.305.649 0 .909.421.264.422.264 1.256 0 .584-.107.965-.102.38-.352.579-.246.2-.677.2-.473 0-.737-.256-.264-.255-.301-.649zm.654-.676q.31 0 .51-.19.199-.195.199-.524 0-.348-.195-.561-.194-.213-.547-.213-.324 0-.519.204-.19.204-.19.537 0 .339.19.543.19.204.552.204z" transform="matrix(.61351 .73798 -1.0149 .40915 -431.8 76.2)" aria-label="19" font-size="4.635" fill="#141414" stroke="#141414"/></g><g style="line-height:1.5;-inkscape-font-specification:Poppins;text-align:center"><path style="-inkscape-font-specification:Poppins;text-align:center" d="M-510.185-610.469q-.066-.335-.413-.335-.27 0-.402.208-.133.206-.13.68.07-.157.23-.245.163-.09.362-.09.311 0 .495.193.187.193.187.534 0 .205-.081.368-.079.164-.242.26-.16.097-.39.097-.31 0-.485-.14-.175-.138-.245-.383-.07-.244-.07-.603 0-1.109.774-1.109.296 0 .465.16.169.16.199.405zm-.41.45q-.13 0-.245.054-.115.052-.187.16-.07.106-.07.26 0 .23.133.374.133.142.38.142.212 0 .336-.13.127-.132.127-.356 0-.235-.121-.368-.12-.136-.353-.136zm1.244 1.232q-.079 0-.133-.054-.055-.055-.055-.133 0-.079.055-.133.054-.054.133-.054.075 0 .126.054.055.054.055.133 0 .078-.055.133-.05.054-.126.054z" transform="matrix(-.54286 1.42046 -.289 -1.0859 -431.8 76.2)" aria-label="6." font-size="3.019" fill="#141414" stroke="#141414"/></g><g style="line-height:1.5;-inkscape-font-specification:Poppins;text-align:center"><path style="-inkscape-font-specification:Poppins;text-align:center" d="M79.085-460.594q.03.172.138.265.111.093.298.093.25 0 .367-.195.12-.196.114-.66-.063.136-.21.214-.148.076-.328.076-.202 0-.361-.082-.157-.084-.247-.243-.09-.16-.09-.386 0-.322.186-.517.187-.199.53-.199.421 0 .59.274.171.274.171.816 0 .379-.07.625-.065.247-.228.377-.16.129-.44.129-.306 0-.478-.166-.171-.165-.195-.42zm.424-.44q.201 0 .33-.122.13-.127.13-.34 0-.226-.126-.365-.127-.138-.355-.138-.21 0-.337.132-.124.133-.124.35 0 .22.124.352.123.132.358.132zm1.251 1.042q-.078 0-.132-.054-.054-.054-.054-.133 0-.078.054-.132.054-.054.133-.054.075 0 .126.054.054.054.054.132 0 .079-.054.133-.051.054-.126.054z" transform="matrix(-.93035 1.14205 -1.13608 .31973 -431.8 76.2)" aria-label="9." font-size="3.009" fill="#0f0f0f" stroke="#0f0f0f"/></g><g style="line-height:1.5;-inkscape-font-specification:Poppins;text-align:center"><path style="-inkscape-font-specification:Poppins;text-align:center" d="M-297.432-728.897l-.814 1.909h-.27l.826-1.883h-1.13v-.228h1.388z" transform="matrix(.00568 1.67045 -.60068 -.59857 -431.8 76.2)" aria-label="7" font-size="2.928" fill="#292929" stroke="#292929"/></g><g style="line-height:1.5;-inkscape-font-specification:Poppins;text-align:center"><path style="-inkscape-font-specification:Poppins;text-align:center" d="M-23.112 497.121q-.163-.064-.25-.186t-.087-.297q0-.157.078-.282.079-.128.233-.2.157-.076.378-.076t.375.075q.157.073.236.201.081.125.081.282 0 .169-.09.297-.09.125-.247.186.18.055.285.195.108.137.108.331 0 .19-.093.332-.094.14-.265.218-.169.076-.39.076-.22 0-.39-.076-.165-.078-.258-.218-.093-.143-.093-.332 0-.194.104-.334.105-.14.285-.192zm.788-.45q0-.178-.116-.274-.116-.096-.32-.096-.2 0-.317.096-.116.096-.116.276 0 .163.12.262.121.099.313.099.195 0 .314-.1.122-.101.122-.264zm-.436.566q-.215 0-.352.102-.136.099-.136.3 0 .186.13.3.134.113.358.113.224 0 .355-.114.13-.113.13-.3 0-.194-.133-.296-.134-.105-.352-.105z" transform="matrix(-1.49875 -.86902 .83287 -.1843 -431.8 76.2)" aria-label="8" font-size="2.908" fill="#434343" stroke="#434343"/></g></g></svg>