<svg xmlns="http://www.w3.org/2000/svg" viewBox="0 0 25.4 25.4" height="96" width="96"><g font-weight="400" font-family="Poppins" letter-spacing="0" word-spacing="0" text-anchor="middle" stroke-linecap="round" stroke-linejoin="round"><g style="line-height:1.5;-inkscape-font-specification:Poppins;text-align:center"><path style="-inkscape-font-specification:Poppins;text-align:center" d="M10.916 15.27q1.012-.812 1.585-1.33.573-.525.964-1.09.398-.574.398-1.124 0-.517-.255-.812-.247-.303-.804-.303-.542 0-.845.343-.294.334-.318.9h-.701q.032-.892.542-1.378.51-.486 1.314-.486.82 0 1.298.454.485.454.485 1.25 0 .662-.398 1.29-.39.622-.892 1.1-.501.47-1.282 1.099h2.74v.605h-3.83z" aria-label="2" font-size="7.964" fill="#f2f2f2" stroke="#f2f2f2" stroke-width=".249"/></g><g style="line-height:1.5;-inkscape-font-specification:Poppins;text-align:center"><path style="-inkscape-font-specification:Poppins;text-align:center" d="M210.988 383.948v-.402h.913v3.507h-.447v-3.105z" transform="matrix(.74373 -1.14237 .17085 1.08214 -203.2 -159.808)" aria-label="1" font-size="4.851" fill="#8c8c8c" stroke="#8c8c8c" stroke-width=".152"/></g><g style="line-height:1.5;-inkscape-font-specification:Poppins;text-align:center" aria-label="10" font-size="4.822" fill="#b6b6b6" stroke="#b6b6b6" stroke-width=".151"><path style="-inkscape-font-specification:Poppins;text-align:center" d="M223.652-220.51v-.4h.906v3.487h-.443v-3.086zM225.31-219.203q0-.83.27-1.292.27-.468.946-.468.67 0 .94.468.27.463.27 1.292 0 .844-.27 1.312-.27.468-.94.468-.675 0-.945-.468-.27-.468-.27-1.312zm1.992 0q0-.42-.058-.709-.053-.294-.227-.472-.168-.179-.491-.179-.328 0-.502.179-.169.178-.227.472-.053.29-.053.71 0 .433.053.727.058.295.227.473.174.178.502.178.323 0 .491-.178.174-.178.227-.473.058-.294.058-.728z" transform="matrix(-.49582 .60338 -1.49263 -.20043 -203.2 -159.808)"/></g><g style="line-height:1.5;-inkscape-font-specification:Poppins;text-align:center"><path style="-inkscape-font-specification:Poppins;text-align:center" d="M-6.036-270.828v-.334l1.701-2.356h.528v2.307h.485v.383h-.485v.78h-.436v-.78zm1.813-2.23l-1.304 1.847h1.304z" transform="matrix(-.0013 1.30307 -.76675 -.66469 -203.2 -159.808)" aria-label="4" font-size="4.847" fill="#dbdbdb" stroke="#dbdbdb" stroke-width=".151"/></g><g style="line-height:1.5;-inkscape-font-specification:Poppins;text-align:center"><path style="-inkscape-font-specification:Poppins;text-align:center" d="M-142.253 98.604q-.261-.103-.401-.3-.14-.196-.14-.476 0-.252.126-.453.126-.206.373-.323.253-.121.608-.121t.603.121q.252.117.378.323.131.2.131.453 0 .271-.145.477-.145.2-.397.299.29.089.458.313.173.22.173.533 0 .303-.15.532-.15.225-.425.35-.27.122-.626.122-.355 0-.626-.121-.267-.126-.416-.35-.15-.23-.15-.533 0-.314.168-.538.169-.224.458-.308zm1.267-.725q0-.285-.187-.439-.187-.154-.514-.154-.323 0-.51.154-.186.154-.186.444 0 .262.191.42.196.16.505.16.313 0 .505-.16.196-.163.196-.425zm-.701.912q-.346 0-.566.163-.22.16-.22.482 0 .299.211.48.215.183.575.183t.57-.182q.21-.182.21-.481 0-.314-.215-.477-.215-.168-.565-.168z" transform="matrix(-.81367 -1.06095 1.06788 .16342 -203.2 -159.808)" aria-label="8" font-size="4.673" fill="#dbdbdb" stroke="#dbdbdb" stroke-width=".146"/></g><g style="line-height:1.5;-inkscape-font-specification:Poppins;text-align:center"><path style="-inkscape-font-specification:Poppins;text-align:center" d="M-273.822-303.879l-1.333 3.128h-.442l1.353-3.085h-1.852v-.374h2.274z" transform="matrix(-1.244 .4538 .4321 -.96148 -203.2 -159.808)" aria-label="7" font-size="4.798" fill="#f8f8f8" stroke="#f8f8f8" stroke-width=".15"/></g></g></svg>