<svg xmlns="http://www.w3.org/2000/svg" viewBox="0 0 25.4 25.4" height="96" width="96"><path style="font-variant-east_asian:normal" fill="#f2f2f2" aria-label="C" d="M5.845 12.67q0-2.054.85-3.654.869-1.62 2.449-2.51 1.58-.908 3.635-.908 2.608 0 4.386 1.403 1.778 1.382 2.291 3.773h-4.168q-.375-.79-1.047-1.205-.652-.415-1.521-.415-1.344 0-2.154.968-.79.948-.79 2.548 0 1.62.79 2.588.81.949 2.154.949.869 0 1.52-.415.673-.415 1.048-1.205h4.168q-.513 2.39-2.291 3.793-1.778 1.383-4.386 1.383-2.055 0-3.635-.89-1.58-.908-2.45-2.508-.85-1.62-.85-3.695z"/></svg>