<svg xmlns="http://www.w3.org/2000/svg" viewBox="0 0 25.4 25.4" height="96" width="96"><g style="line-height:1.5;-inkscape-font-specification:'Poppins ExtraBold, ';text-align:center"><path style="-inkscape-font-specification:'Poppins ExtraBold, '" d="M11.494 15.298q.237 1.343 1.462 1.343.889 0 1.205-.83.336-.85.336-2.706-.395.573-1.106.909-.712.335-1.6.335-1.897 0-3.082-1.185-1.185-1.185-1.185-3.417 0-1.462.612-2.548Q8.75 6.093 9.874 5.5q1.146-.593 2.667-.593 3.022 0 4.208 1.837 1.205 1.818 1.205 5.294 0 3.892-1.166 5.808-1.146 1.916-3.95 1.916-1.522 0-2.628-.613-1.086-.632-1.679-1.64-.573-1.026-.652-2.211zm1.225-3.951q.691 0 1.086-.395.395-.415.395-1.106 0-.79-.414-1.186-.395-.395-1.107-.395-.71 0-1.125.415-.396.395-.396 1.146 0 .691.396 1.106.414.415 1.165.415z" aria-label="9" font-weight="400" font-size="19.753" font-family="Poppins ExtraBold" letter-spacing="0" word-spacing="0" text-anchor="middle" fill="#f2f2f2"/></g></svg>