<svg xmlns="http://www.w3.org/2000/svg" viewBox="0 0 25.4 25.4" height="96" width="96"><g style="line-height:1.5;-inkscape-font-specification:'Poppins ExtraBold, ';text-align:center"><path style="-inkscape-font-specification:'Poppins ExtraBold, '" d="M17.51 8.64h-5.927v2.193q.375-.395 1.027-.632.652-.237 1.442-.237 1.423 0 2.37.652.969.652 1.423 1.719.454 1.066.454 2.33 0 2.331-1.323 3.675-1.324 1.323-3.674 1.323-1.64 0-2.845-.553-1.185-.573-1.817-1.58-.632-1.008-.652-2.311h3.773q.06.454.395.79.336.335.988.335.691 0 1.047-.474.355-.474.355-1.264 0-.77-.375-1.165-.376-.415-1.087-.415-.533 0-.869.276-.316.257-.375.652H8.067v-8.73h9.442z" aria-label="5" font-weight="400" font-size="19.753" font-family="Poppins ExtraBold" letter-spacing="0" word-spacing="0" text-anchor="middle" fill="#f2f2f2"/></g></svg>