<svg xmlns="http://www.w3.org/2000/svg" viewBox="0 0 25.4 25.4" height="96" width="96"><g style="line-height:1.5;-inkscape-font-specification:'Poppins ExtraBold, ';text-align:center"><path style="-inkscape-font-specification:'Poppins ExtraBold, '" d="M7.731 16.562q1.916-1.501 3.141-2.588 1.225-1.086 2.054-2.232.83-1.165.83-2.212 0-.632-.296-.988-.277-.356-.83-.356-.573 0-.889.494-.316.474-.296 1.403H7.692q.059-1.758.77-2.904.711-1.165 1.857-1.699 1.146-.553 2.548-.553 2.43 0 3.615 1.205t1.185 3.121q0 2.054-1.383 3.852-1.363 1.797-3.417 3.22h4.938v3.14H7.731z" aria-label="2" font-weight="400" font-size="19.753" font-family="Poppins ExtraBold" letter-spacing="0" word-spacing="0" text-anchor="middle" fill="#f2f2f2"/></g></svg>