<svg xmlns="http://www.w3.org/2000/svg" viewBox="0 0 25.4 25.4" height="96" width="96"><g style="line-height:1.5;-inkscape-font-specification:'Poppins ExtraBold, ';text-align:center"><path style="-inkscape-font-specification:'Poppins ExtraBold, '" d="M14.052 9.372q-.138-.672-.454-.988-.316-.316-.928-.316-.929 0-1.304.869-.356.87-.375 2.726.395-.612 1.145-.968t1.66-.356q1.916 0 3.061 1.186 1.166 1.185 1.166 3.397 0 1.462-.613 2.568-.592 1.087-1.738 1.68-1.126.592-2.667.592-3.061 0-4.266-1.897-1.186-1.916-1.186-5.412 0-3.872 1.265-5.689 1.264-1.817 4.069-1.817 2.271 0 3.437 1.284 1.185 1.264 1.323 3.14zm-1.205 3.97q-.691 0-1.145.395-.435.395-.435 1.126 0 .77.415 1.185.415.415 1.185.415.711 0 1.106-.395.415-.415.415-1.166 0-.73-.415-1.145-.395-.415-1.126-.415z" aria-label="6" font-weight="400" font-size="19.753" font-family="Poppins ExtraBold" letter-spacing="0" word-spacing="0" text-anchor="middle" fill="#f2f2f2"/></g></svg>