<svg xmlns="http://www.w3.org/2000/svg" width="14in" height="12in" viewBox="0 0 355.6 304.8"><defs><pattern id="a" height="5.181" width="30.066" patternUnits="userSpaceOnUse"><path d="M7.597.061C5.079-.187 2.656.302-.01 1.788v1.273c2.783-1.63 5.183-2.009 7.482-1.781 2.298.228 4.497 1.081 6.781 1.938 4.567 1.713 9.551 3.458 15.813-.157l-.004-1.273c-6.44 3.709-10.816 1.982-15.371.273-2.278-.854-4.576-1.75-7.094-2z"/></pattern></defs><path style="font-variant-east_asian:normal" d="M12.7 292.1l12.7-127 12.7 127z" fill="url(#a)" stroke="#000" stroke-width="1.27" stroke-linecap="round" stroke-linejoin="round"/><path d="M38.1 292.1l12.7-127 12.7 127z" fill="none" stroke="#000" stroke-width="1.27" stroke-linecap="round" stroke-linejoin="round"/><path style="font-variant-east_asian:normal" d="M63.5 292.1l12.7-127 12.7 127z" fill="url(#a)" stroke="#000" stroke-width="1.27" stroke-linecap="round" stroke-linejoin="round"/><path d="M88.9 292.1l12.7-127 12.7 127z" fill="none" stroke="#000" stroke-width="1.27" stroke-linecap="round" stroke-linejoin="round"/><path style="font-variant-east_asian:normal" d="M114.3 292.1l12.7-127 12.7 127z" fill="url(#a)" stroke="#000" stroke-width="1.27" stroke-linecap="round" stroke-linejoin="round"/><path d="M139.7 292.1l12.7-127 12.7 127z" fill="none" stroke="#000" stroke-width="1.27" stroke-linecap="round" stroke-linejoin="round"/><path d="M190.5 292.1l12.7-127 12.7 127z" style="font-variant-east_asian:normal" fill="url(#a)" stroke="#000" stroke-width="1.27" stroke-linecap="round" stroke-linejoin="round"/><path d="M215.9 292.1l12.7-127 12.7 127z" fill="none" stroke="#000" stroke-width="1.27" stroke-linecap="round" stroke-linejoin="round"/><path d="M241.3 292.1l12.7-127 12.7 127z" fill="url(#a)" stroke="#000" stroke-width="1.27" stroke-linecap="round" stroke-linejoin="round"/><path d="M266.7 292.1l12.7-127 12.7 127z" fill="none" stroke="#000" stroke-width="1.27" stroke-linecap="round" stroke-linejoin="round"/><path d="M292.1 292.1l12.7-127 12.7 127z" fill="url(#a)" stroke="#000" stroke-width="1.27" stroke-linecap="round" stroke-linejoin="round"/><path d="M317.5 292.1l12.7-127 12.7 127z" fill="none" stroke="#000" stroke-width="1.27" stroke-linecap="round" stroke-linejoin="round"/><path d="M342.9 12.7l-12.7 127-12.7-127z" style="font-variant-east_asian:normal" fill="url(#a)" stroke="#000" stroke-width="1.27" stroke-linecap="round" stroke-linejoin="round"/><path d="M317.5 12.7l-12.7 127-12.7-127z" fill="none" stroke="#000" stroke-width="1.27" stroke-linecap="round" stroke-linejoin="round"/><path d="M292.1 12.7l-12.7 127-12.7-127z" style="font-variant-east_asian:normal" fill="url(#a)" stroke="#000" stroke-width="1.27" stroke-linecap="round" stroke-linejoin="round"/><path d="M266.7 12.7l-12.7 127-12.7-127z" fill="none" stroke="#000" stroke-width="1.27" stroke-linecap="round" stroke-linejoin="round"/><path d="M241.3 12.7l-12.7 127-12.7-127z" style="font-variant-east_asian:normal" fill="url(#a)" stroke="#000" stroke-width="1.27" stroke-linecap="round" stroke-linejoin="round"/><path d="M215.9 12.7l-12.7 127-12.7-127z" fill="none" stroke="#000" stroke-width="1.27" stroke-linecap="round" stroke-linejoin="round"/><path style="font-variant-east_asian:normal" d="M165.1 12.7l-12.7 127-12.7-127z" fill="url(#a)" stroke="#000" stroke-width="1.27" stroke-linecap="round" stroke-linejoin="round"/><path d="M139.7 12.7l-12.7 127-12.7-127z" fill="none" stroke="#000" stroke-width="1.27" stroke-linecap="round" stroke-linejoin="round"/><path style="font-variant-east_asian:normal" d="M114.3 12.7l-12.7 127-12.7-127z" fill="url(#a)" stroke="#000" stroke-width="1.27" stroke-linecap="round" stroke-linejoin="round"/><path d="M88.9 12.7l-12.7 127-12.7-127z" fill="none" stroke="#000" stroke-width="1.27" stroke-linecap="round" stroke-linejoin="round"/><path style="font-variant-east_asian:normal" d="M63.5 12.7l-12.7 127-12.7-127z" fill="url(#a)" stroke="#000" stroke-width="1.27" stroke-linecap="round" stroke-linejoin="round"/><path d="M38.1 12.7l-12.7 127-12.7-127z" fill="none" stroke="#000" stroke-width="1.27" stroke-linecap="round" stroke-linejoin="round"/><path d="M177.8 0v304.8" fill="none" stroke="#000" stroke-width="1.27" stroke-linejoin="round"/></svg>