<svg xmlns="http://www.w3.org/2000/svg" width="9in" height="9in" viewBox="0 0 228.6 228.6"><path fill="#deb887" d="M0 0h228.6v228.6H0z"/><path d="M63.5 12.7v203.2M38.1 12.7v203.2" fill="none" stroke="#000"/><path d="M12.7 12.7v203.2" fill="none" stroke="#000" stroke-linecap="round"/><path d="M139.7 12.7v203.2M114.3 12.7v203.2M88.9 12.7v203.2" fill="none" stroke="#000"/><path d="M215.9 12.7v203.2" fill="none" stroke="#000" stroke-linecap="round"/><path d="M190.5 12.7v203.2M165.1 12.7v203.2m50.8-152.4H12.7m203.2-25.4H12.7" fill="none" stroke="#000"/><path d="M215.9 12.7H12.7" fill="none" stroke="#000" stroke-linecap="round"/><path d="M215.9 139.7H12.7m203.2-25.4H12.7m203.2-25.4H12.7" fill="none" stroke="#000"/><path d="M215.9 215.9H12.7" fill="none" stroke="#000" stroke-linecap="round"/><path d="M215.9 190.5H12.7m203.2-25.4H12.7" fill="none" stroke="#000"/><circle cx="63.5" cy="63.894" r="2.54"/><circle cx="165.1" cy="63.803" r="2.54"/><circle cx="165.1" cy="165.274" r="2.54"/><circle cx="63.629" cy="165.168" r="2.54"/><circle cx="165.1" cy="165.274" r="2.54"/><circle cx="114.365" cy="114.433" r="2.54"/></svg>