<svg xmlns="http://www.w3.org/2000/svg" viewBox="0 0 228.6 228.6" height="9in" width="9in"><circle cx="114.3" cy="114.3" r="2.54"/><path d="M12.7 12.7v203.2M38.1 12.7v203.2M63.5 12.7v203.2M88.9 12.7v203.2M114.3 12.7v203.2M139.7 12.7v203.2M165.1 12.7v203.2M190.5 12.7v203.2M215.9 12.7v203.2M12.7 12.7h203.2M12.7 38.1h203.2M12.7 63.5h203.2M12.7 88.9h203.2M12.7 114.3h203.2M12.7 139.7h203.2M12.7 165.1h203.2M12.7 190.5h203.2M12.7 215.9h203.2" fill="none" stroke="#000" stroke-width="1.27" stroke-linecap="round" stroke-linejoin="round"/><circle r="2.54" cy="63.5" cx="63.5"/><circle cx="165.1" cy="63.5" r="2.54"/><circle r="2.54" cy="165.1" cx="165.1"/><circle cx="63.5" cy="165.1" r="2.54"/></svg>