<svg xmlns="http://www.w3.org/2000/svg" width="19in" height="19in" viewBox="0 0 482.6 482.6"><path d="M12.692 12.708h457.2m-457.2 25.4h457.2m-457.2 25.4h457.2m-457.2 25.4h457.2m-457.2 25.4h457.2m-457.2 25.4h457.2m-457.2 25.4h457.2m-457.2 25.4h457.2m-457.2 25.4h457.2m-457.2 25.4h457.2m-457.2 25.4h457.2m-457.2 25.4h457.2m-457.2 25.4h457.2m-457.2 25.4h457.2m-457.2 25.4h457.2m-457.2 25.4h457.2m-457.2 25.4h457.2m-457.2 25.4h457.2m-457.2 25.4h457.2m-457.2-457.2v457.2m25.4-457.2v457.2m25.4-457.2v457.2m25.4-457.2v457.2m25.4-457.2v457.2m25.4-457.2v457.2m25.4-457.2v457.2m25.4-457.2v457.2m25.4-457.2v457.2m25.4-457.2v457.2m25.4-457.2v457.2m25.4-457.2v457.2m25.4-457.2v457.2m25.4-457.2v457.2m25.4-457.2v457.2m25.4-457.2v457.2m25.4-457.2v457.2m25.4-457.2v457.2m25.4-457.2v457.2" fill="none" stroke="#000" stroke-width="1.236" stroke-linecap="round" stroke-linejoin="round"/><circle r="2.54" cy="241.308" cx="241.292"/><circle cx="88.892" cy="241.308" r="2.54"/><circle r="2.54" cy="241.308" cx="393.692"/><circle cx="241.292" cy="88.908" r="2.54"/><circle r="2.54" cy="88.9" cx="393.692"/><circle cx="88.892" cy="88.9" r="2.54"/><circle cx="241.292" cy="393.708" r="2.54"/><circle r="2.54" cy="393.7" cx="88.892"/><circle cx="393.692" cy="393.7" r="2.54"/></svg>