<svg xmlns="http://www.w3.org/2000/svg" width="19in" height="19in" viewBox="0 0 482.6 482.6"><path fill="#deb887" d="M0 0h482.6v482.6H0z"/><path d="M63.5 12.7v457.2M38.1 12.7v457.2" fill="none" stroke="#000" stroke-width="1.5"/><path d="M12.7 12.7v457.2" fill="none" stroke="#000" stroke-width="1.5" stroke-linecap="round"/><path d="M139.7 12.7v457.2M114.3 12.7v457.2M88.9 12.7v457.2" fill="none" stroke="#000" stroke-width="1.5"/><path d="M215.9 12.7v457.2" fill="none" stroke="#000" stroke-width="1.5" stroke-linecap="round"/><path d="M190.5 12.7v457.2M165.1 12.7v457.2M469.9 63.5H12.7m457.2-25.4H12.7" fill="none" stroke="#000" stroke-width="1.5"/><path d="M469.9 12.7H12.7" fill="none" stroke="#000" stroke-width="1.5" stroke-linecap="round"/><path d="M469.9 139.7H12.7m457.2-25.4H12.7m457.2-25.4H12.7" fill="none" stroke="#000" stroke-width="1.5"/><path d="M469.9 215.9H12.7" fill="none" stroke="#000" stroke-width="1.5" stroke-linecap="round"/><path d="M469.9 190.5H12.7m457.2-25.4H12.7" fill="none" stroke="#000" stroke-width="1.5"/><circle cx="88.9" cy="88.9" r="2.54"/><circle cx="241.3" cy="88.9" r="2.54"/><circle cx="88.9" cy="393.7" r="2.54"/><circle cx="88.9" cy="241.3" r="2.54"/><circle cx="393.7" cy="393.7" r="2.54"/><circle cx="393.7" cy="89.027" r="2.54"/><path d="M292.1 12.7v457.2M266.7 12.7v457.2" fill="none" stroke="#000" stroke-width="1.5"/><path d="M241.3 12.7v457.2" fill="none" stroke="#000" stroke-width="1.5" stroke-linecap="round"/><path d="M368.3 12.7v457.2M342.9 12.7v457.2M317.5 12.7v457.2" fill="none" stroke="#000" stroke-width="1.5"/><path d="M444.5 12.7v457.2" fill="none" stroke="#000" stroke-width="1.5" stroke-linecap="round"/><path d="M419.1 12.7v457.2M393.7 12.7v457.2" fill="none" stroke="#000" stroke-width="1.5"/><path d="M469.9 12.7v457.2" fill="none" stroke="#000" stroke-width="1.5" stroke-linecap="round"/><path d="M469.9 292.1H12.7m457.2-25.4H12.7" fill="none" stroke="#000" stroke-width="1.5"/><path d="M469.9 241.3H12.7" fill="none" stroke="#000" stroke-width="1.5" stroke-linecap="round"/><path d="M469.9 368.3H12.7m457.2-25.4H12.7m457.2-25.4H12.7" fill="none" stroke="#000" stroke-width="1.5"/><path d="M469.9 444.5H12.7" fill="none" stroke="#000" stroke-width="1.5" stroke-linecap="round"/><path d="M469.9 419.1H12.7m457.2-25.4H12.7" fill="none" stroke="#000" stroke-width="1.5"/><path d="M469.9 469.9H12.7" fill="none" stroke="#000" stroke-width="1.5" stroke-linecap="round"/><circle cx="241.3" cy="241.3" r="2.54"/><circle cx="393.7" cy="241.3" r="2.54"/><circle cx="241.3" cy="393.7" r="2.54"/></svg>