<svg xmlns="http://www.w3.org/2000/svg" width="13in" height="13in" viewBox="0 0 330.2 330.2"><path fill="#deb887" d="M0 0h330.2v330.2H0z"/><path d="M63.5 12.7v304.8M38.1 12.7v304.8" fill="none" stroke="#000" stroke-width="1.225"/><path d="M12.7 12.7v304.8" fill="none" stroke="#000" stroke-width="1.225" stroke-linecap="round"/><path d="M139.7 12.7v304.8M114.3 12.7v304.8M88.9 12.7v304.8" fill="none" stroke="#000" stroke-width="1.225"/><path d="M215.9 12.7v304.8" fill="none" stroke="#000" stroke-width="1.225" stroke-linecap="round"/><path d="M190.5 12.7v304.8M165.1 12.7v304.8m152.4-254H12.7m304.8-25.4H12.7" fill="none" stroke="#000" stroke-width="1.225"/><path d="M317.5 12.7H12.7" fill="none" stroke="#000" stroke-width="1.225" stroke-linecap="round"/><path d="M317.5 139.7H12.7m304.8-25.4H12.7m304.8-25.4H12.7" fill="none" stroke="#000" stroke-width="1.225"/><path d="M317.5 215.9H12.7" fill="none" stroke="#000" stroke-width="1.225" stroke-linecap="round"/><path d="M317.5 190.5H12.7m304.8-25.4H12.7" fill="none" stroke="#000" stroke-width="1.225"/><circle cx="88.783" cy="88.648" r="2.54"/><circle cx="241.391" cy="89.443" r="2.54"/><circle cx="89.114" cy="241.134" r="2.54"/><path d="M292.1 12.7v304.8M266.7 12.7v304.8" fill="none" stroke="#000" stroke-width="1.225"/><path d="M241.3 12.7v304.8" fill="none" stroke="#000" stroke-width="1.225" stroke-linecap="round"/><path d="M317.5 12.7v304.8m0-25.4H12.7m304.8-25.4H12.7" fill="none" stroke="#000" stroke-width="1.225"/><path d="M317.5 241.3H12.7" fill="none" stroke="#000" stroke-width="1.225" stroke-linecap="round"/><path d="M317.5 317.5H12.7" fill="none" stroke="#000" stroke-width="1.225"/><circle cx="241.045" cy="241.771" r="2.54"/><circle cx="165.1" cy="165.1" r="2.54"/></svg>