<svg xmlns="http://www.w3.org/2000/svg" width="13in" height="13in" viewBox="0 0 330.2 330.2"><circle r="2.54" cy="165.1" cx="165.1"/><circle cx="88.9" cy="88.9" r="2.54"/><circle cx="241.3" cy="88.9" r="2.54"/><circle r="2.54" cy="241.3" cx="88.9"/><circle cx="241.3" cy="241.3" r="2.54"/><path d="M12.7 12.7v304.8M38.1 12.7v304.8M63.5 12.7v304.8M88.9 12.7v304.8M114.3 12.7v304.8M139.7 12.7v304.8M165.1 12.7v304.8M190.5 12.7v304.8M215.9 12.7v304.8M241.3 12.7v304.8M266.7 12.7v304.8M292.1 12.7v304.8M317.5 12.7v304.8M12.7 12.7h304.8M12.7 38.1h304.8M12.7 63.5h304.8M12.7 88.9h304.8M12.7 114.3h304.8M12.7 139.7h304.8M12.7 165.1h304.8M12.7 190.5h304.8M12.7 215.9h304.8M12.7 241.3h304.8M12.7 266.7h304.8M12.7 292.1h304.8M12.7 317.5h304.8" fill="none" stroke="#000" stroke-width="1.27" stroke-linecap="round" stroke-linejoin="round"/></svg>