<svg xmlns="http://www.w3.org/2000/svg" viewBox="0 0 254 254" height="960" width="960"><path d="M30.435 24.765a5.08 5.08 0 01.045.635 5.08 5.08 0 01-.046.636h91.531a5.08 5.08 0 01-.045-.636 5.08 5.08 0 01.047-.635zm101.6 0a5.08 5.08 0 01.045.635 5.08 5.08 0 01-.046.636h91.531a5.08 5.08 0 01-.045-.636 5.08 5.08 0 01.047-.635zm-107.27 5.668v91.532a5.08 5.08 0 01.635-.045 5.08 5.08 0 01.637.047V30.435a5.08 5.08 0 01-.637.045 5.08 5.08 0 01-.635-.047zm101.6 0v15.332a5.08 5.08 0 01.635-.045 5.08 5.08 0 01.636.047V30.435a5.08 5.08 0 01-.636.045 5.08 5.08 0 01-.636-.047zm101.6.001v91.53a5.08 5.08 0 01.635-.044 5.08 5.08 0 01.635.047V30.435a5.08 5.08 0 01-.635.045 5.08 5.08 0 01-.634-.046zM55.836 50.165a5.08 5.08 0 01.045.635 5.08 5.08 0 01-.046.635h66.13a5.08 5.08 0 01-.044-.635 5.08 5.08 0 01.047-.635zm76.2 0a5.08 5.08 0 01.045.635 5.08 5.08 0 01-.046.635h66.13a5.08 5.08 0 01-.044-.635 5.08 5.08 0 01.047-.635zm-81.87 5.668v66.132a5.08 5.08 0 01.635-.045 5.08 5.08 0 01.635.047V55.836a5.08 5.08 0 01-.635.044 5.08 5.08 0 01-.635-.047zm76.2 0v15.332a5.08 5.08 0 01.635-.045 5.08 5.08 0 01.636.047V55.835a5.08 5.08 0 01-.636.045 5.08 5.08 0 01-.636-.047zm76.2.001v66.13a5.08 5.08 0 01.635-.044 5.08 5.08 0 01.635.047V55.836a5.08 5.08 0 01-.635.044 5.08 5.08 0 01-.634-.046zM81.236 75.566a5.08 5.08 0 01.045.634 5.08 5.08 0 01-.046.635h40.73a5.08 5.08 0 01-.044-.635 5.08 5.08 0 01.046-.634zm50.8 0a5.08 5.08 0 01.045.634 5.08 5.08 0 01-.046.635h40.73a5.08 5.08 0 01-.044-.635 5.08 5.08 0 01.046-.634zm45.13 5.667v40.732a5.08 5.08 0 01.635-.045 5.08 5.08 0 01.635.047V81.236a5.08 5.08 0 01-.635.044 5.08 5.08 0 01-.635-.047zm-101.6.001v40.73a5.08 5.08 0 01.635-.044 5.08 5.08 0 01.635.047V81.236a5.08 5.08 0 01-.635.044 5.08 5.08 0 01-.634-.046zm-45.13 45.13a5.08 5.08 0 01.045.636 5.08 5.08 0 01-.046.636h15.331a5.08 5.08 0 01-.045-.636 5.08 5.08 0 01.047-.636zm25.4 0a5.08 5.08 0 01.045.636 5.08 5.08 0 01-.046.636h15.331a5.08 5.08 0 01-.045-.636 5.08 5.08 0 01.047-.636zm127 0a5.08 5.08 0 01.045.636 5.08 5.08 0 01-.046.636h15.331a5.08 5.08 0 01-.045-.636 5.08 5.08 0 01.047-.636zm25.4 0a5.08 5.08 0 01.045.636 5.08 5.08 0 01-.046.636h15.331a5.08 5.08 0 01-.045-.636 5.08 5.08 0 01.047-.636zm-183.47 5.67v91.531a5.08 5.08 0 01.635-.045 5.08 5.08 0 01.637.047v-91.532a5.08 5.08 0 01-.637.045 5.08 5.08 0 01-.635-.047zm25.4 0v66.13a5.08 5.08 0 01.635-.044 5.08 5.08 0 01.635.047v-66.131a5.08 5.08 0 01-.635.044 5.08 5.08 0 01-.635-.047zm127 0v40.73a5.08 5.08 0 01.635-.044 5.08 5.08 0 01.635.047v-40.731a5.08 5.08 0 01-.635.044 5.08 5.08 0 01-.635-.047zm-101.6 0v40.73a5.08 5.08 0 01.635-.044 5.08 5.08 0 01.635.047v-40.731a5.08 5.08 0 01-.635.044 5.08 5.08 0 01-.634-.046zm127 0v66.13a5.08 5.08 0 01.635-.044 5.08 5.08 0 01.635.047v-66.131a5.08 5.08 0 01-.635.044 5.08 5.08 0 01-.634-.046zm25.4 0v91.53a5.08 5.08 0 01.635-.044 5.08 5.08 0 01.635.047v-91.532a5.08 5.08 0 01-.635.045 5.08 5.08 0 01-.634-.046zm-146.73 45.131a5.08 5.08 0 01.045.635 5.08 5.08 0 01-.046.635h40.73a5.08 5.08 0 01-.044-.635 5.08 5.08 0 01.047-.635zm50.8 0a5.08 5.08 0 01.045.635 5.08 5.08 0 01-.046.635h40.73a5.08 5.08 0 01-.044-.635 5.08 5.08 0 01.047-.635zm-5.67 5.668v15.332a5.08 5.08 0 01.635-.045 5.08 5.08 0 01.636.047v-15.332a5.08 5.08 0 01-.636.045 5.08 5.08 0 01-.636-.047zm-70.53 19.733a5.08 5.08 0 01.045.634 5.08 5.08 0 01-.046.635h66.13a5.08 5.08 0 01-.044-.635 5.08 5.08 0 01.046-.634zm76.2 0a5.08 5.08 0 01.045.634 5.08 5.08 0 01-.046.635h66.13a5.08 5.08 0 01-.044-.635 5.08 5.08 0 01.046-.634zm-5.67 5.667v15.332a5.08 5.08 0 01.635-.045 5.08 5.08 0 01.636.047v-15.332a5.08 5.08 0 01-.636.045 5.08 5.08 0 01-.636-.047zm-95.93 19.733a5.08 5.08 0 01.045.634 5.08 5.08 0 01-.046.635h91.531a5.08 5.08 0 01-.045-.635 5.08 5.08 0 01.046-.634zm101.6 0a5.08 5.08 0 01.045.634 5.08 5.08 0 01-.046.635h91.531a5.08 5.08 0 01-.045-.635 5.08 5.08 0 01.046-.634z" style="line-height:normal;font-variant-ligatures:normal;font-variant-position:normal;font-variant-caps:normal;font-variant-numeric:normal;font-variant-alternates:normal;font-feature-settings:normal;text-indent:0;text-align:start;text-decoration-line:none;text-decoration-style:solid;text-decoration-color:#000;text-transform:none;text-orientation:mixed;white-space:normal;shape-padding:0;isolation:auto;mix-blend-mode:normal;solid-color:#000;solid-opacity:1" color="#000" font-weight="400" font-family="sans-serif" overflow="visible"/><path d="M25.4 20.32a5.08 5.08 0 00-5.08 5.08 5.08 5.08 0 005.08 5.08 5.08 5.08 0 005.08-5.08 5.08 5.08 0 00-5.08-5.08zm101.6 0a5.08 5.08 0 00-5.08 5.08 5.08 5.08 0 005.08 5.08 5.08 5.08 0 005.08-5.08 5.08 5.08 0 00-5.08-5.08zm101.6 0a5.08 5.08 0 00-5.08 5.08 5.08 5.08 0 005.08 5.08 5.08 5.08 0 005.08-5.08 5.08 5.08 0 00-5.08-5.08zM50.8 45.72a5.08 5.08 0 00-5.08 5.08 5.08 5.08 0 005.08 5.08 5.08 5.08 0 005.08-5.08 5.08 5.08 0 00-5.08-5.08zm76.2 0a5.08 5.08 0 00-5.08 5.08 5.08 5.08 0 005.08 5.08 5.08 5.08 0 005.08-5.08 5.08 5.08 0 00-5.08-5.08zm76.2 0a5.08 5.08 0 00-5.08 5.08 5.08 5.08 0 005.08 5.08 5.08 5.08 0 005.08-5.08 5.08 5.08 0 00-5.08-5.08zm-127 25.4a5.08 5.08 0 00-5.08 5.08 5.08 5.08 0 005.08 5.08 5.08 5.08 0 005.08-5.08 5.08 5.08 0 00-5.08-5.08zm50.8 0a5.08 5.08 0 00-5.08 5.08 5.08 5.08 0 005.08 5.08 5.08 5.08 0 005.08-5.08 5.08 5.08 0 00-5.08-5.08zm50.8 0a5.08 5.08 0 00-5.08 5.08 5.08 5.08 0 005.08 5.08 5.08 5.08 0 005.08-5.08 5.08 5.08 0 00-5.08-5.08zm-152.4 50.8a5.08 5.08 0 00-5.08 5.08 5.08 5.08 0 005.08 5.08 5.08 5.08 0 005.08-5.08 5.08 5.08 0 00-5.08-5.08zm25.4 0a5.08 5.08 0 00-5.08 5.08 5.08 5.08 0 005.08 5.08 5.08 5.08 0 005.08-5.08 5.08 5.08 0 00-5.08-5.08zm25.4 0a5.08 5.08 0 00-5.08 5.08 5.08 5.08 0 005.08 5.08 5.08 5.08 0 005.08-5.08 5.08 5.08 0 00-5.08-5.08zm101.6 0a5.08 5.08 0 00-5.08 5.08 5.08 5.08 0 005.08 5.08 5.08 5.08 0 005.08-5.08 5.08 5.08 0 00-5.08-5.08zm25.4 0a5.08 5.08 0 00-5.08 5.08 5.08 5.08 0 005.08 5.08 5.08 5.08 0 005.08-5.08 5.08 5.08 0 00-5.08-5.08zm25.4 0a5.08 5.08 0 00-5.08 5.08 5.08 5.08 0 005.08 5.08 5.08 5.08 0 005.08-5.08 5.08 5.08 0 00-5.08-5.08zm-152.4 50.8a5.08 5.08 0 00-5.08 5.08 5.08 5.08 0 005.08 5.08 5.08 5.08 0 005.08-5.08 5.08 5.08 0 00-5.08-5.08zm50.8 0a5.08 5.08 0 00-5.08 5.08 5.08 5.08 0 005.08 5.08 5.08 5.08 0 005.08-5.08 5.08 5.08 0 00-5.08-5.08zm50.8 0a5.08 5.08 0 00-5.08 5.08 5.08 5.08 0 005.08 5.08 5.08 5.08 0 005.08-5.08 5.08 5.08 0 00-5.08-5.08zm-127 25.4a5.08 5.08 0 00-5.08 5.08 5.08 5.08 0 005.08 5.08 5.08 5.08 0 005.08-5.08 5.08 5.08 0 00-5.08-5.08zm76.2 0a5.08 5.08 0 00-5.08 5.08 5.08 5.08 0 005.08 5.08 5.08 5.08 0 005.08-5.08 5.08 5.08 0 00-5.08-5.08zm76.2 0a5.08 5.08 0 00-5.08 5.08 5.08 5.08 0 005.08 5.08 5.08 5.08 0 005.08-5.08 5.08 5.08 0 00-5.08-5.08zm-177.8 25.4a5.08 5.08 0 00-5.08 5.08 5.08 5.08 0 005.08 5.08 5.08 5.08 0 005.08-5.08 5.08 5.08 0 00-5.08-5.08zm101.6 0a5.08 5.08 0 00-5.08 5.08 5.08 5.08 0 005.08 5.08 5.08 5.08 0 005.08-5.08 5.08 5.08 0 00-5.08-5.08zm101.6 0a5.08 5.08 0 00-5.08 5.08 5.08 5.08 0 005.08 5.08 5.08 5.08 0 005.08-5.08 5.08 5.08 0 00-5.08-5.08z" fill="none" stroke="#000" stroke-width="1.27" stroke-linecap="round" stroke-linejoin="round"/></svg>