<svg xmlns="http://www.w3.org/2000/svg" viewBox="0 0 457.2 152.4" height="6in" width="18in"><path fill="none" stroke="#000" stroke-width="1.27" stroke-linecap="round" stroke-linejoin="round" d="M12.7 88.9h50.8v50.8H12.7zm0-76.2h50.8v50.8H12.7zm76.2 76.2h50.8v50.8H88.9zm0-76.2h50.8v50.8H88.9zm76.2 76.2h50.8v50.8h-50.8zm0-76.2h50.8v50.8h-50.8zm76.2 76.2h50.8v50.8h-50.8zm0-76.2h50.8v50.8h-50.8zm76.2 76.2h50.8v50.8h-50.8zm0-76.2h50.8v50.8h-50.8zm76.2 76.2h50.8v50.8h-50.8zm0-76.2h50.8v50.8h-50.8z"/></svg>