<svg xmlns="http://www.w3.org/2000/svg" viewBox="0 0 457.2 152.4" height="6in" width="18in"><defs><pattern patternUnits="userSpaceOnUse" width="30.066" height="5.181" id="a"><path d="M7.597.061C5.079-.187 2.656.302-.01 1.788v1.273c2.783-1.63 5.183-2.009 7.482-1.781 2.298.228 4.497 1.081 6.781 1.938 4.567 1.713 9.551 3.458 15.813-.157l-.004-1.273c-6.44 3.709-10.816 1.982-15.371.273-2.278-.854-4.576-1.75-7.094-2z"/></pattern></defs><path fill="none" stroke="#000" stroke-width="1.27" stroke-linecap="round" stroke-linejoin="round" d="M12.7 88.9h50.8v50.8H12.7zM12.7 12.7h50.8v50.8H12.7zM88.9 88.9h50.8v50.8H88.9zM88.9 12.7h50.8v50.8H88.9zM165.1 88.9h50.8v50.8h-50.8zM165.1 12.7h50.8v50.8h-50.8zM241.3 88.9h50.8v50.8h-50.8zM241.3 12.7h50.8v50.8h-50.8zM317.5 88.9h50.8v50.8h-50.8zM317.5 12.7h50.8v50.8h-50.8zM393.7 88.9h50.8v50.8h-50.8zM393.7 12.7h50.8v50.8h-50.8z"/></svg>