<svg xmlns="http://www.w3.org/2000/svg" viewBox="0 0 152.4 152.4" height="6in" width="6in"><path d="M50.791 4.435a.635.635 0 00-.627.645v45.084H5.08a.636.636 0 000 1.272h45.084v49.529H5.08a.635.635 0 100 1.27h45.084v45.085a.636.636 0 001.272 0v-45.085h49.529v45.085a.635.635 0 101.27 0v-45.085h45.085a.635.635 0 100-1.27h-45.085v-49.53h45.085a.636.636 0 000-1.271h-45.085V5.08a.635.635 0 00-.645-.645.635.635 0 00-.625.645v45.084h-49.53V5.08a.635.635 0 00-.644-.645zm.645 47h49.529v49.53h-49.53v-49.53z" style="line-height:normal;font-variant-ligatures:normal;font-variant-position:normal;font-variant-caps:normal;font-variant-numeric:normal;font-variant-alternates:normal;font-feature-settings:normal;text-indent:0;text-align:start;text-decoration-line:none;text-decoration-style:solid;text-decoration-color:#000;text-transform:none;text-orientation:mixed;white-space:normal;shape-padding:0;isolation:auto;mix-blend-mode:normal;solid-color:#000;solid-opacity:1" color="#000" font-weight="400" font-family="sans-serif" overflow="visible"/></svg>