<svg xmlns="http://www.w3.org/2000/svg" width="4in" height="4in" viewBox="0 0 101.6 101.6"><path style="font-variant-east_asian:normal" fill-opacity=".031" d="M2.54 2.54h96.52v96.52H2.54z"/><path d="M5.08 2.54L2.54 5.08v5.08l7.62-7.62H5.08zm10.16 0l-12.7 12.7v5.08L20.32 2.54h-5.08zm10.16 0L2.54 25.4v5.08L30.48 2.54H25.4zm10.16 0L2.54 35.56v5.08l38.1-38.1h-5.08zm10.16 0L2.54 45.72v5.08L50.8 2.54h-5.08zm10.16 0L2.54 55.88v5.08L60.96 2.54h-5.08zm10.16 0l-63.5 63.5v5.08L71.12 2.54h-5.08zm10.16 0L2.54 76.2v5.08L81.28 2.54H76.2zm10.16 0L2.54 86.36v5.08l88.9-88.9h-5.08zm10.16 0L2.54 96.52v2.54h2.54L99.06 5.08V2.54h-2.54zm2.54 7.62l-88.9 88.9h5.08l83.82-83.82v-5.08zm0 10.16L20.32 99.06h5.08L99.06 25.4v-5.08zm0 10.16L30.48 99.06h5.08l63.5-63.5v-5.08zm0 10.16L40.64 99.06h5.08l53.34-53.34v-5.08zm0 10.16L50.8 99.06h5.08l43.18-43.18V50.8zm0 10.16l-38.1 38.1h5.08l33.02-33.02v-5.08zm0 10.16L71.12 99.06h5.08L99.06 76.2v-5.08zm0 10.16L81.28 99.06h5.08l12.7-12.7v-5.08zm0 10.16l-7.62 7.62h5.08l2.54-2.54v-5.08z" style="font-variant-east_asian:normal" fill-opacity=".502"/></svg>