<svg xmlns="http://www.w3.org/2000/svg" width="2in" height="2in" viewBox="0 0 50.8 50.8"><path style="font-variant-east_asian:normal" fill-opacity=".031" d="M2.54 2.54h45.72v45.72H2.54z"/><path d="M5.08 2.54L2.54 5.08v5.08l7.62-7.62H5.08zm10.16 0l-12.7 12.7v5.08L20.32 2.54h-5.08zm10.16 0L2.54 25.4v5.08L30.48 2.54H25.4zm10.16 0L2.54 35.56v5.08l38.1-38.1h-5.08zm10.16 0L2.54 45.72v2.54h2.54L48.26 5.08V2.54h-2.54zm2.54 7.62l-38.1 38.1h5.08l33.02-33.02v-5.08zm0 10.16L20.32 48.26h5.08L48.26 25.4v-5.08zm0 10.16L30.48 48.26h5.08l12.7-12.7v-5.08zm0 10.16l-7.62 7.62h5.08l2.54-2.54v-5.08z" style="font-variant-east_asian:normal" fill-opacity=".502"/></svg>