<svg xmlns="http://www.w3.org/2000/svg" width="3in" height="3in" viewBox="0 0 76.2 76.2"><path fill-opacity=".031" d="M2.54 2.54h71.12v71.12H2.54z"/><path d="M2.54 2.54v2.54l2.54-2.54zm7.62 0l-7.62 7.62v5.08l12.7-12.7zm10.16 0L2.54 20.32v5.08L25.4 2.54zm10.16 0L2.54 30.48v5.08L35.56 2.54zm10.16 0l-38.1 38.1v5.08L45.72 2.54zm10.16 0L2.54 50.8v5.08L55.88 2.54zm10.16 0L2.54 60.96v5.08l63.5-63.5zm10.16 0L2.54 71.12v2.54h2.54L73.66 5.08V2.54zm2.54 7.62l-63.5 63.5h5.08l58.42-58.42zm0 10.16L20.32 73.66h5.08L73.66 25.4zm0 10.16L30.48 73.66h5.08l38.1-38.1zm0 10.16L40.64 73.66h5.08l27.94-27.94zm0 10.16L50.8 73.66h5.08l17.78-17.78zm0 10.16l-12.7 12.7h5.08l7.62-7.62zm0 10.16l-2.54 2.54h2.54z" fill-opacity=".502"/></svg>