<svg xmlns="http://www.w3.org/2000/svg" viewBox="0 0 25.4 25.4" height="96" width="96"><path style="font-variant-east_asian:normal" fill="#f2f2f2" aria-label="O" d="M12.71 19.802q-1.956 0-3.596-.909-1.64-.928-2.607-2.548-.949-1.64-.949-3.694 0-2.055.949-3.675.968-1.64 2.607-2.548 1.64-.91 3.596-.91 1.975 0 3.595.91 1.64.908 2.588 2.548.949 1.62.949 3.675 0 2.054-.949 3.694-.948 1.62-2.588 2.548-1.64.91-3.595.91zm0-3.595q1.482 0 2.331-.968.87-.968.87-2.588 0-1.66-.87-2.608-.85-.968-2.331-.968-1.502 0-2.351.968-.85.948-.85 2.608 0 1.64.85 2.607.85.949 2.35.949z"/></svg>