<svg xmlns="http://www.w3.org/2000/svg" viewBox="0 0 25.4 25.4" height="96" width="96"><path style="font-variant-east_asian:normal" fill="#f2f2f2" aria-label="B" d="M16.068 12.512q1.225.277 1.936 1.225.731.929.731 2.134 0 1.778-1.225 2.785-1.224 1.008-3.437 1.008H7.178V5.736h6.678q2.133 0 3.338.948 1.225.949 1.225 2.667 0 1.225-.652 2.055-.632.81-1.699 1.106zm-5.018-1.244h1.956q1.462 0 1.462-1.205 0-1.245-1.462-1.245H11.05zm2.253 5.274q1.461 0 1.461-1.224 0-.633-.395-.968-.375-.336-1.086-.336H11.05v2.528z"/></svg>