<svg xmlns="http://www.w3.org/2000/svg" viewBox="0 0 25.4 25.4" height="96" width="96"><g style="line-height:1.5;-inkscape-font-specification:'Poppins ExtraBold, ';text-align:center"><path style="-inkscape-font-specification:'Poppins ExtraBold, '" d="M6.98 12.236q0-3.398 1.383-5.353 1.383-1.956 4.346-1.956t4.346 1.956q1.402 1.955 1.402 5.353 0 3.437-1.382 5.392-1.383 1.956-4.366 1.956-2.983 0-4.365-1.956-1.363-1.955-1.363-5.392zm7.645 0q0-1.778-.375-2.706-.375-.949-1.54-.949-1.166 0-1.542.949-.375.928-.375 2.706 0 1.817.356 2.765.375.929 1.56.929T14.25 15q.376-.948.376-2.765z" aria-label="0" font-weight="400" font-size="19.753" font-family="Poppins ExtraBold" letter-spacing="0" word-spacing="0" text-anchor="middle" fill="#f2f2f2"/></g></svg>