<svg xmlns="http://www.w3.org/2000/svg" viewBox="0 0 25.4 25.4" height="96" width="96"><g style="line-height:1.5;-inkscape-font-specification:'Poppins ExtraBold, ';text-align:center"><path style="-inkscape-font-specification:'Poppins ExtraBold, '" d="M9.351 11.821q-1.758-.968-1.758-3.022 0-1.067.553-1.936.573-.889 1.719-1.403 1.145-.533 2.824-.533 1.68 0 2.825.533 1.146.514 1.699 1.403.573.87.573 1.936 0 1.047-.474 1.817-.455.75-1.284 1.205 1.027.533 1.56 1.422.533.89.533 2.094 0 1.442-.73 2.489-.731 1.027-1.976 1.56-1.224.534-2.726.534-1.5 0-2.745-.534-1.225-.533-1.956-1.56-.73-1.047-.73-2.489 0-1.205.533-2.094.533-.889 1.56-1.422zm4.642-2.41q0-.691-.356-1.067-.355-.395-.948-.395-.573 0-.948.395-.355.395-.355 1.067 0 .672.355 1.047.375.375.948.375t.929-.375q.375-.375.375-1.047zm-1.304 4.07q-.75 0-1.224.454-.455.434-.455 1.185 0 .71.455 1.165.454.455 1.224.455t1.205-.455q.455-.454.455-1.165 0-.75-.455-1.185-.454-.455-1.205-.455z" aria-label="8" font-weight="400" font-size="19.753" font-family="Poppins ExtraBold" letter-spacing="0" word-spacing="0" text-anchor="middle" fill="#f2f2f2"/></g></svg>