<svg xmlns="http://www.w3.org/2000/svg" viewBox="0 0 25.4 25.4" height="96" width="96"><g style="line-height:1.5;-inkscape-font-specification:'Poppins ExtraBold, ';text-align:center"><path style="-inkscape-font-specification:'Poppins ExtraBold, '" d="M7.623 9.53q.079-2.232 1.382-3.418 1.304-1.205 3.635-1.205 1.52 0 2.588.534 1.086.513 1.64 1.422.552.889.552 2.015 0 1.343-.652 2.153-.652.79-1.481 1.067v.079q2.39.888 2.39 3.397 0 1.245-.573 2.193t-1.66 1.481q-1.086.534-2.587.534-2.469 0-3.91-1.186-1.423-1.205-1.482-3.674h3.772q-.04.79.336 1.225.376.434 1.126.434.573 0 .89-.355.335-.356.335-.948 0-.75-.494-1.106-.474-.356-1.56-.356h-.692v-3.14h.672q.75.019 1.264-.238.533-.276.533-1.086 0-.613-.296-.909-.296-.316-.81-.316-.573 0-.85.415-.256.395-.296.988z" aria-label="3" font-weight="400" font-size="19.753" font-family="Poppins ExtraBold" letter-spacing="0" word-spacing="0" text-anchor="middle" fill="#f2f2f2"/></g></svg>