<svg xmlns="http://www.w3.org/2000/svg" width="12in" height="12in" viewBox="0 0 304.8 304.8"><defs><pattern id="a" height="5.181" width="30.066" patternUnits="userSpaceOnUse"><path d="M7.597.061C5.079-.187 2.656.302-.01 1.788v1.273c2.783-1.63 5.183-2.009 7.482-1.781 2.298.228 4.497 1.081 6.781 1.938 4.567 1.713 9.551 3.458 15.813-.157l-.004-1.273c-6.44 3.709-10.816 1.982-15.371.273-2.278-.854-4.576-1.75-7.094-2z"/></pattern></defs><path style="line-height:normal;font-variant-ligatures:normal;font-variant-position:normal;font-variant-caps:normal;font-variant-numeric:normal;font-variant-alternates:normal;font-feature-settings:normal;text-indent:0;text-align:start;text-decoration-line:none;text-decoration-style:solid;text-decoration-color:#000;text-transform:none;text-orientation:mixed;white-space:normal;shape-padding:0;isolation:auto;mix-blend-mode:normal;solid-color:#000;solid-opacity:1" d="M81.879 24.765a5.718 5.718 0 010 1.27h14.045a5.731 5.731 0 01-.038-.634c0-.216.016-.427.039-.636zM107.279 24.765a5.743 5.743 0 010 1.27h14.044a5.731 5.731 0 01-.039-.634c0-.215.016-.427.039-.636zM132.68 24.765a5.718 5.718 0 010 1.27h14.04a5.733 5.733 0 010-1.27zM158.078 24.765a5.718 5.718 0 010 1.27h14.043a5.733 5.733 0 010-1.27zM183.478 24.765a5.718 5.718 0 010 1.27h14.043a5.733 5.733 0 010-1.27zM208.879 24.765a5.718 5.718 0 010 1.27h14.043a5.733 5.733 0 010-1.27zM71.74 28.962L54.361 46.341c.331.265.632.566.898.897L72.638 29.86a5.763 5.763 0 01-.899-.899zM233.06 28.962a5.765 5.765 0 01-.898.899l17.377 17.377c.266-.332.567-.633.899-.898zM46.34 54.363L28.963 71.74c.33.265.631.565.896.896L47.238 55.26a5.766 5.766 0 01-.898-.897zM258.46 54.363a5.767 5.767 0 01-.898.898l17.377 17.376c.265-.331.566-.632.898-.898zM24.765 81.88v14.04a5.728 5.728 0 011.27 0V81.88a5.726 5.726 0 01-1.27 0zM278.764 81.88v14.04a5.728 5.728 0 011.272 0V81.88a5.727 5.727 0 01-1.272 0zM24.765 107.278v14.043a5.733 5.733 0 011.27 0v-14.043a5.721 5.721 0 01-1.27 0zM278.764 107.278v14.043a5.733 5.733 0 011.272 0v-14.043a5.722 5.722 0 01-1.272 0zM24.765 132.679v14.043a5.733 5.733 0 011.27 0v-14.043a5.721 5.721 0 01-1.27 0zM278.764 132.679v14.043a5.733 5.733 0 011.272 0v-14.043a5.722 5.722 0 01-1.272 0zM24.765 158.08v14.042a5.733 5.733 0 011.27 0V158.08a5.721 5.721 0 01-1.27 0zM278.764 158.08v14.042a5.733 5.733 0 011.272 0V158.08a5.722 5.722 0 01-1.272 0zM24.765 183.48v14.04a5.733 5.733 0 011.27 0v-14.04a5.721 5.721 0 01-1.27 0zM278.764 183.48v14.04a5.733 5.733 0 011.272 0v-14.04a5.722 5.722 0 01-1.272 0zM24.765 208.88v14.04a5.733 5.733 0 011.27 0v-14.04a5.721 5.721 0 01-1.27 0zM278.764 208.88v14.04a5.733 5.733 0 011.272 0v-14.04a5.722 5.722 0 01-1.272 0zM29.86 232.162a5.763 5.763 0 01-.898.897l17.378 17.378c.265-.331.567-.632.898-.897zM274.94 232.163l-17.378 17.377c.332.265.633.566.898.898l17.378-17.378a5.764 5.764 0 01-.898-.897zM55.26 257.562a5.763 5.763 0 01-.898.898L71.74 275.84c.266-.332.567-.633.899-.899zM249.54 257.563l-17.378 17.377c.331.266.633.567.898.899l17.379-17.379a5.766 5.766 0 01-.9-.897zM81.879 278.765a5.718 5.718 0 010 1.27h14.045a5.731 5.731 0 01-.038-.634c0-.216.016-.427.039-.636zM107.279 278.765a5.742 5.742 0 010 1.27h14.044a5.731 5.731 0 01-.039-.634c0-.216.016-.427.039-.636zM132.68 278.765a5.718 5.718 0 010 1.27h14.04a5.733 5.733 0 010-1.27zM158.078 278.765a5.718 5.718 0 010 1.27h14.043a5.733 5.733 0 010-1.27zM183.478 278.765a5.718 5.718 0 010 1.27h14.043a5.733 5.733 0 010-1.27zM208.879 278.765a5.718 5.718 0 010 1.27h14.043a5.733 5.733 0 010-1.27z" color="#000" font-weight="400" font-family="sans-serif" overflow="visible"/><path style="line-height:normal;font-variant-ligatures:normal;font-variant-position:normal;font-variant-caps:normal;font-variant-numeric:normal;font-variant-alternates:normal;font-feature-settings:normal;text-indent:0;text-align:start;text-decoration-line:none;text-decoration-style:solid;text-decoration-color:#000;text-transform:none;text-orientation:mixed;white-space:normal;shape-padding:0;isolation:auto;mix-blend-mode:normal;solid-color:#000;solid-opacity:1" d="M31.078 151.765a5.719 5.719 0 010 1.27H45.12a5.709 5.709 0 010-1.27zM56.48 151.765a5.718 5.718 0 010 1.27h14.043a5.731 5.731 0 01-.038-.634c0-.216.016-.427.039-.636zM81.878 151.765a5.742 5.742 0 010 1.27h14.046a5.707 5.707 0 01-.04-.634c0-.216.017-.427.04-.636zM107.278 151.765a5.743 5.743 0 010 1.27h14.046a5.707 5.707 0 01-.039-.634c0-.216.016-.427.04-.636z" color="#000" font-weight="400" font-family="sans-serif" overflow="visible" fill="#b32d35"/><path style="line-height:normal;font-variant-ligatures:normal;font-variant-position:normal;font-variant-caps:normal;font-variant-numeric:normal;font-variant-alternates:normal;font-feature-settings:normal;text-indent:0;text-align:start;text-decoration-line:none;text-decoration-style:solid;text-decoration-color:#000;text-transform:none;text-orientation:mixed;white-space:normal;shape-padding:0;isolation:auto;mix-blend-mode:normal;solid-color:#000;solid-opacity:1" d="M153.035 31.079a5.737 5.737 0 01-1.27 0v14.043a5.728 5.728 0 011.27 0zM151.765 56.48v14.04a5.73 5.73 0 011.27 0V56.48a5.726 5.726 0 01-1.27 0zM151.765 81.88v14.04a5.73 5.73 0 011.27 0V81.88a5.728 5.728 0 01-1.27 0zM151.765 107.278v14.043a5.742 5.742 0 011.27 0v-14.043a5.733 5.733 0 01-1.27 0z" color="#000" font-weight="400" font-family="sans-serif" overflow="visible" fill="#3387b0"/><path style="line-height:normal;font-variant-ligatures:normal;font-variant-position:normal;font-variant-caps:normal;font-variant-numeric:normal;font-variant-alternates:normal;font-feature-settings:normal;text-indent:0;text-align:start;text-decoration-line:none;text-decoration-style:solid;text-decoration-color:#000;text-transform:none;text-orientation:mixed;white-space:normal;shape-padding:0;isolation:auto;mix-blend-mode:normal;solid-color:#000;solid-opacity:1" d="M183.48 151.765a5.718 5.718 0 010 1.27h14.04a5.733 5.733 0 010-1.27zM208.878 151.765a5.718 5.718 0 010 1.27h14.043a5.733 5.733 0 010-1.27zM234.278 151.765a5.718 5.718 0 010 1.27h14.043a5.733 5.733 0 010-1.27zM259.679 151.765a5.718 5.718 0 010 1.27h14.042a5.733 5.733 0 01-.037-.634c0-.215.014-.427.037-.636z" color="#000" font-weight="400" font-family="sans-serif" overflow="visible" fill="#317501"/><path style="line-height:normal;font-variant-ligatures:normal;font-variant-position:normal;font-variant-caps:normal;font-variant-numeric:normal;font-variant-alternates:normal;font-feature-settings:normal;text-indent:0;text-align:start;text-decoration-line:none;text-decoration-style:solid;text-decoration-color:#000;text-transform:none;text-orientation:mixed;white-space:normal;shape-padding:0;isolation:auto;mix-blend-mode:normal;solid-color:#000;solid-opacity:1" d="M151.765 183.48v14.04a5.742 5.742 0 011.27 0v-14.04a5.733 5.733 0 01-1.27 0zM151.765 208.88v14.04a5.742 5.742 0 011.27 0v-14.04a5.733 5.733 0 01-1.27 0zM151.765 234.278v14.043a5.742 5.742 0 011.27 0v-14.043a5.733 5.733 0 01-1.27 0zM151.765 259.679v14.043a5.764 5.764 0 011.27 0v-14.043a5.733 5.733 0 01-1.27 0z" color="#000" font-weight="400" font-family="sans-serif" overflow="visible" fill="#bf40bf"/><path style="line-height:normal;font-variant-ligatures:normal;font-variant-position:normal;font-variant-caps:normal;font-variant-numeric:normal;font-variant-alternates:normal;font-feature-settings:normal;text-indent:0;text-align:start;text-decoration-line:none;text-decoration-style:solid;text-decoration-color:#000;text-transform:none;text-orientation:mixed;white-space:normal;shape-padding:0;isolation:auto;mix-blend-mode:normal;solid-color:#000;solid-opacity:1" d="M152.4 248.285a5.724 5.724 0 00-5.714 5.715 5.724 5.724 0 005.714 5.715 5.724 5.724 0 005.715-5.715 5.725 5.725 0 00-5.715-5.715zm0 1.27a4.436 4.436 0 014.446 4.445 4.436 4.436 0 01-4.446 4.445 4.435 4.435 0 01-4.445-4.445 4.436 4.436 0 014.445-4.445zM152.4 222.885a5.724 5.724 0 00-5.714 5.715 5.724 5.724 0 005.714 5.714 5.724 5.724 0 005.715-5.714 5.725 5.725 0 00-5.715-5.715zm0 1.27a4.436 4.436 0 014.446 4.445 4.436 4.436 0 01-4.446 4.445 4.435 4.435 0 01-4.445-4.445 4.436 4.436 0 014.445-4.446zM152.4 197.484a5.724 5.724 0 00-5.714 5.715 5.725 5.725 0 005.714 5.717 5.726 5.726 0 005.715-5.717 5.725 5.725 0 00-5.715-5.715zm0 1.272a4.435 4.435 0 014.446 4.443 4.436 4.436 0 01-4.446 4.446 4.435 4.435 0 01-4.445-4.446 4.434 4.434 0 014.445-4.443zM152.4 172.086a5.723 5.723 0 00-5.714 5.713 5.725 5.725 0 005.714 5.717 5.726 5.726 0 005.715-5.717 5.723 5.723 0 00-5.715-5.713zm0 1.27a4.436 4.436 0 014.446 4.445 4.434 4.434 0 01-4.446 4.443 4.434 4.434 0 01-4.445-4.443 4.436 4.436 0 014.445-4.446z" color="#000" font-weight="400" font-family="sans-serif" overflow="visible" fill="#bf40bf"/><path style="line-height:normal;font-variant-ligatures:normal;font-variant-position:normal;font-variant-caps:normal;font-variant-numeric:normal;font-variant-alternates:normal;font-feature-settings:normal;text-indent:0;text-align:start;text-decoration-line:none;text-decoration-style:solid;text-decoration-color:#000;text-transform:none;text-orientation:mixed;white-space:normal;shape-padding:0;isolation:auto;mix-blend-mode:normal;solid-color:#000;solid-opacity:1" d="M152.4 121.285a5.724 5.724 0 00-5.714 5.715 5.724 5.724 0 005.714 5.715 5.724 5.724 0 005.715-5.715 5.725 5.725 0 00-5.715-5.715zm0 1.27a4.436 4.436 0 014.446 4.445 4.436 4.436 0 01-4.446 4.445 4.435 4.435 0 01-4.445-4.445 4.436 4.436 0 014.445-4.445zM152.4 95.885a5.724 5.724 0 00-5.714 5.715 5.724 5.724 0 005.714 5.714 5.724 5.724 0 005.715-5.714 5.725 5.725 0 00-5.715-5.715zm0 1.27a4.436 4.436 0 014.446 4.445 4.436 4.436 0 01-4.446 4.445 4.435 4.435 0 01-4.445-4.445 4.436 4.436 0 014.445-4.446zM152.4 70.484a5.724 5.724 0 00-5.714 5.715 5.725 5.725 0 005.714 5.717 5.726 5.726 0 005.715-5.717 5.725 5.725 0 00-5.715-5.715zm0 1.272a4.435 4.435 0 014.446 4.443 4.436 4.436 0 01-4.446 4.446 4.435 4.435 0 01-4.445-4.446 4.434 4.434 0 014.445-4.443zM152.4 45.086a5.723 5.723 0 00-5.714 5.713 5.725 5.725 0 005.714 5.717 5.726 5.726 0 005.715-5.717 5.723 5.723 0 00-5.715-5.713zm0 1.27a4.436 4.436 0 014.446 4.445 4.434 4.434 0 01-4.446 4.443 4.434 4.434 0 01-4.445-4.443 4.436 4.436 0 014.445-4.446z" color="#000" font-weight="400" font-family="sans-serif" overflow="visible" fill="#3387b0"/><path style="line-height:normal;font-variant-ligatures:normal;font-variant-position:normal;font-variant-caps:normal;font-variant-numeric:normal;font-variant-alternates:normal;font-feature-settings:normal;text-indent:0;text-align:start;text-decoration-line:none;text-decoration-style:solid;text-decoration-color:#000;text-transform:none;text-orientation:mixed;white-space:normal;shape-padding:0;isolation:auto;mix-blend-mode:normal;solid-color:#000;solid-opacity:1" d="M127 146.686a5.724 5.724 0 00-5.715 5.714 5.724 5.724 0 005.715 5.715 5.724 5.724 0 005.715-5.715 5.725 5.725 0 00-5.715-5.714zm0 1.27a4.436 4.436 0 014.445 4.444 4.436 4.436 0 01-4.445 4.446 4.435 4.435 0 01-4.445-4.446 4.436 4.436 0 014.445-4.445zM101.6 146.686a5.724 5.724 0 00-5.715 5.714 5.724 5.724 0 005.715 5.715 5.724 5.724 0 005.714-5.715 5.725 5.725 0 00-5.714-5.714zm0 1.27a4.436 4.436 0 014.445 4.444 4.436 4.436 0 01-4.445 4.446 4.435 4.435 0 01-4.446-4.446 4.436 4.436 0 014.446-4.445zM76.2 146.686a5.724 5.724 0 00-5.716 5.714 5.724 5.724 0 005.715 5.715 5.724 5.724 0 005.715-5.715 5.725 5.725 0 00-5.715-5.714zm0 1.27a4.436 4.436 0 014.445 4.444 4.436 4.436 0 01-4.446 4.446 4.435 4.435 0 01-4.445-4.446 4.436 4.436 0 014.445-4.445zM50.8 146.686a5.726 5.726 0 00-5.716 5.714 5.725 5.725 0 005.717 5.715 5.724 5.724 0 005.715-5.715 5.725 5.725 0 00-5.715-5.714zm0 1.27a4.435 4.435 0 014.444 4.444 4.434 4.434 0 01-4.443 4.446 4.435 4.435 0 01-4.446-4.446 4.436 4.436 0 014.446-4.445z" color="#000" font-weight="400" font-family="sans-serif" overflow="visible" fill="#b32d35"/><path style="line-height:normal;font-variant-ligatures:normal;font-variant-position:normal;font-variant-caps:normal;font-variant-numeric:normal;font-variant-alternates:normal;font-feature-settings:normal;text-indent:0;text-align:start;text-decoration-line:none;text-decoration-style:solid;text-decoration-color:#000;text-transform:none;text-orientation:mixed;white-space:normal;shape-padding:0;isolation:auto;mix-blend-mode:normal;solid-color:#000;solid-opacity:1" d="M254 146.686a5.724 5.724 0 00-5.715 5.714 5.724 5.724 0 005.715 5.715 5.724 5.724 0 005.715-5.715 5.725 5.725 0 00-5.715-5.714zm0 1.27a4.436 4.436 0 014.445 4.444 4.436 4.436 0 01-4.445 4.446 4.435 4.435 0 01-4.445-4.446 4.436 4.436 0 014.445-4.445zM228.6 146.686a5.724 5.724 0 00-5.715 5.714 5.724 5.724 0 005.715 5.715 5.724 5.724 0 005.714-5.715 5.725 5.725 0 00-5.714-5.714zm0 1.27a4.436 4.436 0 014.445 4.444 4.436 4.436 0 01-4.445 4.446 4.435 4.435 0 01-4.446-4.446 4.436 4.436 0 014.446-4.445zM203.2 146.686a5.724 5.724 0 00-5.716 5.714 5.724 5.724 0 005.715 5.715 5.724 5.724 0 005.715-5.715 5.725 5.725 0 00-5.715-5.714zm0 1.27a4.436 4.436 0 014.445 4.444 4.436 4.436 0 01-4.446 4.446 4.435 4.435 0 01-4.445-4.446 4.436 4.436 0 014.445-4.445zM177.8 146.686a5.726 5.726 0 00-5.716 5.714 5.725 5.725 0 005.717 5.715 5.724 5.724 0 005.715-5.715 5.725 5.725 0 00-5.715-5.714zm0 1.27a4.435 4.435 0 014.444 4.444 4.434 4.434 0 01-4.443 4.446 4.435 4.435 0 01-4.446-4.446 4.436 4.436 0 014.446-4.445z" color="#000" font-weight="400" font-family="sans-serif" overflow="visible" fill="#317501"/><path style="line-height:normal;font-variant-ligatures:normal;font-variant-position:normal;font-variant-caps:normal;font-variant-numeric:normal;font-variant-alternates:normal;font-feature-settings:normal;text-indent:0;text-align:start;text-decoration-line:none;text-decoration-style:solid;text-decoration-color:#000;text-transform:none;text-orientation:mixed;white-space:normal;shape-padding:0;isolation:auto;mix-blend-mode:normal;solid-color:#000;solid-opacity:1" d="M25.4 146.686a5.724 5.724 0 00-5.714 5.714 5.724 5.724 0 005.714 5.715 5.724 5.724 0 005.715-5.715 5.725 5.725 0 00-5.715-5.714zm0 1.27a4.436 4.436 0 014.446 4.444 4.436 4.436 0 01-4.446 4.446 4.435 4.435 0 01-4.445-4.446 4.436 4.436 0 014.445-4.445zM25.4 121.285A5.724 5.724 0 0019.686 127a5.724 5.724 0 005.714 5.715A5.724 5.724 0 0031.115 127a5.725 5.725 0 00-5.715-5.715zm0 1.27A4.436 4.436 0 0129.846 127a4.436 4.436 0 01-4.446 4.445A4.435 4.435 0 0120.955 127a4.436 4.436 0 014.445-4.445zM25.4 95.885a5.724 5.724 0 00-5.714 5.715 5.724 5.724 0 005.714 5.714 5.724 5.724 0 005.715-5.714 5.725 5.725 0 00-5.715-5.715zm0 1.27a4.436 4.436 0 014.446 4.445 4.436 4.436 0 01-4.446 4.445 4.435 4.435 0 01-4.445-4.445 4.436 4.436 0 014.445-4.446zM25.4 70.484a5.724 5.724 0 00-5.714 5.715 5.725 5.725 0 005.714 5.717 5.726 5.726 0 005.715-5.717 5.725 5.725 0 00-5.715-5.715zm0 1.272a4.435 4.435 0 014.446 4.443 4.436 4.436 0 01-4.446 4.446 4.435 4.435 0 01-4.445-4.446 4.434 4.434 0 014.445-4.443zM25.4 222.885a5.724 5.724 0 00-5.714 5.715 5.724 5.724 0 005.714 5.714 5.724 5.724 0 005.715-5.714 5.725 5.725 0 00-5.715-5.715zm0 1.27a4.436 4.436 0 014.446 4.445 4.436 4.436 0 01-4.446 4.445 4.435 4.435 0 01-4.445-4.445 4.436 4.436 0 014.445-4.446zM25.4 197.484a5.724 5.724 0 00-5.714 5.715 5.725 5.725 0 005.714 5.717 5.726 5.726 0 005.715-5.717 5.725 5.725 0 00-5.715-5.715zm0 1.272a4.435 4.435 0 014.446 4.443 4.436 4.436 0 01-4.446 4.446 4.435 4.435 0 01-4.445-4.446 4.434 4.434 0 014.445-4.443zM25.4 172.086a5.723 5.723 0 00-5.714 5.713 5.725 5.725 0 005.714 5.717 5.726 5.726 0 005.715-5.717 5.723 5.723 0 00-5.715-5.713zm0 1.27a4.436 4.436 0 014.446 4.445 4.434 4.434 0 01-4.446 4.443 4.434 4.434 0 01-4.445-4.443 4.436 4.436 0 014.445-4.446zM279.4 146.686a5.724 5.724 0 00-5.714 5.714 5.724 5.724 0 005.714 5.715 5.724 5.724 0 005.715-5.715 5.725 5.725 0 00-5.715-5.714zm0 1.27a4.436 4.436 0 014.446 4.444 4.436 4.436 0 01-4.446 4.446 4.435 4.435 0 01-4.445-4.446 4.436 4.436 0 014.445-4.445zM279.4 121.285a5.724 5.724 0 00-5.714 5.715 5.724 5.724 0 005.714 5.715 5.724 5.724 0 005.715-5.715 5.725 5.725 0 00-5.715-5.715zm0 1.27a4.436 4.436 0 014.446 4.445 4.436 4.436 0 01-4.446 4.445 4.435 4.435 0 01-4.445-4.445 4.436 4.436 0 014.445-4.445zM279.4 95.885a5.724 5.724 0 00-5.714 5.715 5.724 5.724 0 005.714 5.714 5.724 5.724 0 005.715-5.714 5.725 5.725 0 00-5.715-5.715zm0 1.27a4.436 4.436 0 014.446 4.445 4.436 4.436 0 01-4.446 4.445 4.435 4.435 0 01-4.445-4.445 4.436 4.436 0 014.445-4.446zM279.4 70.484a5.724 5.724 0 00-5.714 5.715 5.725 5.725 0 005.714 5.717 5.726 5.726 0 005.715-5.717 5.725 5.725 0 00-5.715-5.715zm0 1.272a4.435 4.435 0 014.446 4.443 4.436 4.436 0 01-4.446 4.446 4.435 4.435 0 01-4.445-4.446 4.434 4.434 0 014.445-4.443zM279.4 222.885a5.724 5.724 0 00-5.714 5.715 5.724 5.724 0 005.714 5.714 5.724 5.724 0 005.715-5.714 5.725 5.725 0 00-5.715-5.715zm0 1.27a4.436 4.436 0 014.446 4.445 4.436 4.436 0 01-4.446 4.445 4.435 4.435 0 01-4.445-4.445 4.436 4.436 0 014.445-4.446zM279.4 197.484a5.724 5.724 0 00-5.714 5.715 5.725 5.725 0 005.714 5.717 5.726 5.726 0 005.715-5.717 5.725 5.725 0 00-5.715-5.715zm0 1.272a4.435 4.435 0 014.446 4.443 4.436 4.436 0 01-4.446 4.446 4.435 4.435 0 01-4.445-4.446 4.434 4.434 0 014.445-4.443zM279.4 172.086a5.723 5.723 0 00-5.714 5.713 5.725 5.725 0 005.714 5.717 5.726 5.726 0 005.715-5.717 5.723 5.723 0 00-5.715-5.713zm0 1.27a4.436 4.436 0 014.446 4.445 4.434 4.434 0 01-4.446 4.443 4.434 4.434 0 01-4.445-4.443 4.436 4.436 0 014.445-4.446z" color="#000" font-weight="400" font-family="sans-serif" overflow="visible"/><path style="line-height:normal;font-variant-ligatures:normal;font-variant-position:normal;font-variant-caps:normal;font-variant-numeric:normal;font-variant-alternates:normal;font-feature-settings:normal;text-indent:0;text-align:start;text-decoration-line:none;text-decoration-style:solid;text-decoration-color:#000;text-transform:none;text-orientation:mixed;white-space:normal;shape-padding:0;isolation:auto;mix-blend-mode:normal;solid-color:#000;solid-opacity:1" d="M76.2 70.484a5.724 5.724 0 00-5.716 5.715 5.725 5.725 0 005.715 5.717 5.726 5.726 0 005.715-5.717 5.725 5.725 0 00-5.715-5.715zm0 1.272a4.435 4.435 0 014.445 4.443 4.436 4.436 0 01-4.446 4.446 4.435 4.435 0 01-4.445-4.446 4.434 4.434 0 014.445-4.443zM101.6 70.484a5.724 5.724 0 00-5.715 5.715 5.725 5.725 0 005.715 5.717 5.726 5.726 0 005.714-5.717 5.725 5.725 0 00-5.714-5.715zm0 1.272a4.435 4.435 0 014.445 4.443 4.436 4.436 0 01-4.445 4.446 4.435 4.435 0 01-4.446-4.446 4.434 4.434 0 014.446-4.443zM101.6 95.885a5.724 5.724 0 00-5.715 5.715 5.724 5.724 0 005.715 5.714 5.724 5.724 0 005.714-5.714 5.725 5.725 0 00-5.714-5.715zm0 1.27a4.436 4.436 0 014.445 4.445 4.436 4.436 0 01-4.445 4.445 4.435 4.435 0 01-4.446-4.445 4.436 4.436 0 014.446-4.446zM76.2 95.885a5.724 5.724 0 00-5.716 5.715 5.724 5.724 0 005.715 5.714 5.724 5.724 0 005.715-5.714 5.725 5.725 0 00-5.715-5.715zm0 1.27a4.436 4.436 0 014.445 4.445 4.436 4.436 0 01-4.446 4.445 4.435 4.435 0 01-4.445-4.445 4.436 4.436 0 014.445-4.446z" color="#000" font-weight="400" font-family="sans-serif" overflow="visible" fill="#b32d35"/><path style="line-height:normal;font-variant-ligatures:normal;font-variant-position:normal;font-variant-caps:normal;font-variant-numeric:normal;font-variant-alternates:normal;font-feature-settings:normal;text-indent:0;text-align:start;text-decoration-line:none;text-decoration-style:solid;text-decoration-color:#000;text-transform:none;text-orientation:mixed;white-space:normal;shape-padding:0;isolation:auto;mix-blend-mode:normal;solid-color:#000;solid-opacity:1" d="M50.8 45.086c-3.148 0-5.716 2.564-5.716 5.713a5.727 5.727 0 005.717 5.717 5.726 5.726 0 005.715-5.717 5.723 5.723 0 00-5.715-5.713zm0 1.27a4.435 4.435 0 014.444 4.445 4.433 4.433 0 01-4.443 4.443 4.434 4.434 0 01-4.446-4.443 4.436 4.436 0 014.446-4.446z" color="#000" font-weight="400" font-family="sans-serif" overflow="visible"/><path style="line-height:normal;font-variant-ligatures:normal;font-variant-position:normal;font-variant-caps:normal;font-variant-numeric:normal;font-variant-alternates:normal;font-feature-settings:normal;text-indent:0;text-align:start;text-decoration-line:none;text-decoration-style:solid;text-decoration-color:#000;text-transform:none;text-orientation:mixed;white-space:normal;shape-padding:0;isolation:auto;mix-blend-mode:normal;solid-color:#000;solid-opacity:1" d="M203.2 70.484a5.724 5.724 0 00-5.716 5.715 5.725 5.725 0 005.715 5.717 5.726 5.726 0 005.715-5.717 5.725 5.725 0 00-5.715-5.715zm0 1.272a4.435 4.435 0 014.445 4.443 4.436 4.436 0 01-4.446 4.446 4.435 4.435 0 01-4.445-4.446 4.434 4.434 0 014.445-4.443zM228.6 70.484a5.724 5.724 0 00-5.715 5.715 5.725 5.725 0 005.715 5.717 5.726 5.726 0 005.714-5.717 5.725 5.725 0 00-5.714-5.715zm0 1.272a4.435 4.435 0 014.445 4.443 4.436 4.436 0 01-4.445 4.446 4.435 4.435 0 01-4.446-4.446 4.434 4.434 0 014.446-4.443zM228.6 95.885a5.724 5.724 0 00-5.715 5.715 5.724 5.724 0 005.715 5.714 5.724 5.724 0 005.714-5.714 5.725 5.725 0 00-5.714-5.715zm0 1.27a4.436 4.436 0 014.445 4.445 4.436 4.436 0 01-4.445 4.445 4.435 4.435 0 01-4.446-4.445 4.436 4.436 0 014.446-4.446zM203.2 95.885a5.724 5.724 0 00-5.716 5.715 5.724 5.724 0 005.715 5.714 5.724 5.724 0 005.715-5.714 5.725 5.725 0 00-5.715-5.715zm0 1.27a4.436 4.436 0 014.445 4.445 4.436 4.436 0 01-4.446 4.445 4.435 4.435 0 01-4.445-4.445 4.436 4.436 0 014.445-4.446z" color="#000" font-weight="400" font-family="sans-serif" overflow="visible" fill="#3387b0"/><path style="line-height:normal;font-variant-ligatures:normal;font-variant-position:normal;font-variant-caps:normal;font-variant-numeric:normal;font-variant-alternates:normal;font-feature-settings:normal;text-indent:0;text-align:start;text-decoration-line:none;text-decoration-style:solid;text-decoration-color:#000;text-transform:none;text-orientation:mixed;white-space:normal;shape-padding:0;isolation:auto;mix-blend-mode:normal;solid-color:#000;solid-opacity:1" d="M203.2 197.484a5.724 5.724 0 00-5.716 5.715 5.725 5.725 0 005.715 5.717 5.726 5.726 0 005.715-5.717 5.725 5.725 0 00-5.715-5.715zm0 1.272a4.435 4.435 0 014.445 4.443 4.436 4.436 0 01-4.446 4.446 4.435 4.435 0 01-4.445-4.446 4.434 4.434 0 014.445-4.443zM228.6 197.484a5.724 5.724 0 00-5.715 5.715 5.725 5.725 0 005.715 5.717 5.726 5.726 0 005.714-5.717 5.725 5.725 0 00-5.714-5.715zm0 1.272a4.435 4.435 0 014.445 4.443 4.436 4.436 0 01-4.445 4.446 4.435 4.435 0 01-4.446-4.446 4.434 4.434 0 014.446-4.443zM228.6 222.885a5.724 5.724 0 00-5.715 5.715 5.724 5.724 0 005.715 5.714 5.724 5.724 0 005.714-5.714 5.725 5.725 0 00-5.714-5.715zm0 1.27a4.436 4.436 0 014.445 4.445 4.436 4.436 0 01-4.445 4.445 4.435 4.435 0 01-4.446-4.445 4.436 4.436 0 014.446-4.446zM203.2 222.885a5.724 5.724 0 00-5.716 5.715 5.724 5.724 0 005.715 5.714 5.724 5.724 0 005.715-5.714 5.725 5.725 0 00-5.715-5.715zm0 1.27a4.436 4.436 0 014.445 4.445 4.436 4.436 0 01-4.446 4.445 4.435 4.435 0 01-4.445-4.445 4.436 4.436 0 014.445-4.446z" color="#000" font-weight="400" font-family="sans-serif" overflow="visible" fill="#317501"/><path style="line-height:normal;font-variant-ligatures:normal;font-variant-position:normal;font-variant-caps:normal;font-variant-numeric:normal;font-variant-alternates:normal;font-feature-settings:normal;text-indent:0;text-align:start;text-decoration-line:none;text-decoration-style:solid;text-decoration-color:#000;text-transform:none;text-orientation:mixed;white-space:normal;shape-padding:0;isolation:auto;mix-blend-mode:normal;solid-color:#000;solid-opacity:1" d="M76.2 197.484a5.724 5.724 0 00-5.716 5.715 5.725 5.725 0 005.715 5.717 5.726 5.726 0 005.715-5.717 5.725 5.725 0 00-5.715-5.715zm0 1.272a4.435 4.435 0 014.445 4.443 4.436 4.436 0 01-4.446 4.446 4.435 4.435 0 01-4.445-4.446 4.434 4.434 0 014.445-4.443zM101.6 197.484a5.724 5.724 0 00-5.715 5.715 5.725 5.725 0 005.715 5.717 5.726 5.726 0 005.714-5.717 5.725 5.725 0 00-5.714-5.715zm0 1.272a4.435 4.435 0 014.445 4.443 4.436 4.436 0 01-4.445 4.446 4.435 4.435 0 01-4.446-4.446 4.434 4.434 0 014.446-4.443zM101.6 222.885a5.724 5.724 0 00-5.715 5.715 5.724 5.724 0 005.715 5.714 5.724 5.724 0 005.714-5.714 5.725 5.725 0 00-5.714-5.715zm0 1.27a4.436 4.436 0 014.445 4.445 4.436 4.436 0 01-4.445 4.445 4.435 4.435 0 01-4.446-4.445 4.436 4.436 0 014.446-4.446zM76.2 222.885a5.724 5.724 0 00-5.716 5.715 5.724 5.724 0 005.715 5.714 5.724 5.724 0 005.715-5.714 5.725 5.725 0 00-5.715-5.715zm0 1.27a4.436 4.436 0 014.445 4.445 4.436 4.436 0 01-4.446 4.445 4.435 4.435 0 01-4.445-4.445 4.436 4.436 0 014.445-4.446z" color="#000" font-weight="400" font-family="sans-serif" overflow="visible" fill="#bf40bf"/><path style="line-height:normal;font-variant-ligatures:normal;font-variant-position:normal;font-variant-caps:normal;font-variant-numeric:normal;font-variant-alternates:normal;font-feature-settings:normal;text-indent:0;text-align:start;text-decoration-line:none;text-decoration-style:solid;text-decoration-color:#000;text-transform:none;text-orientation:mixed;white-space:normal;shape-padding:0;isolation:auto;mix-blend-mode:normal;solid-color:#000;solid-opacity:1" d="M50.8 248.285A5.726 5.726 0 0045.085 254a5.725 5.725 0 005.717 5.715A5.724 5.724 0 0056.516 254a5.725 5.725 0 00-5.715-5.715zm0 1.27A4.435 4.435 0 0155.245 254a4.434 4.434 0 01-4.443 4.445A4.435 4.435 0 0146.355 254a4.436 4.436 0 014.446-4.445zM254 248.285a5.724 5.724 0 00-5.715 5.715 5.724 5.724 0 005.715 5.715 5.724 5.724 0 005.715-5.715 5.725 5.725 0 00-5.715-5.715zm0 1.27a4.436 4.436 0 014.445 4.445 4.436 4.436 0 01-4.445 4.445 4.435 4.435 0 01-4.445-4.445 4.436 4.436 0 014.445-4.445zM254 45.086a5.723 5.723 0 00-5.715 5.713A5.725 5.725 0 00254 56.516a5.726 5.726 0 005.715-5.717A5.723 5.723 0 00254 45.086zm0 1.27a4.436 4.436 0 014.445 4.445A4.434 4.434 0 01254 55.244a4.434 4.434 0 01-4.445-4.443A4.436 4.436 0 01254 46.355z" color="#000" font-weight="400" font-family="sans-serif" overflow="visible"/><path style="line-height:normal;font-variant-ligatures:normal;font-variant-position:normal;font-variant-caps:normal;font-variant-numeric:normal;font-variant-alternates:normal;font-feature-settings:normal;text-indent:0;text-align:start;text-decoration-line:none;text-decoration-style:solid;text-decoration-color:#000;text-transform:none;text-orientation:mixed;white-space:normal;shape-padding:0;isolation:auto;mix-blend-mode:normal;solid-color:#000;solid-opacity:1" d="M127 146.686a5.724 5.724 0 00-5.715 5.714 5.724 5.724 0 005.715 5.715 5.724 5.724 0 005.715-5.715 5.725 5.725 0 00-5.715-5.714zm0 1.27a4.436 4.436 0 014.445 4.444 4.436 4.436 0 01-4.445 4.446 4.435 4.435 0 01-4.445-4.446 4.436 4.436 0 014.445-4.445zM101.6 146.686a5.724 5.724 0 00-5.715 5.714 5.724 5.724 0 005.715 5.715 5.724 5.724 0 005.714-5.715 5.725 5.725 0 00-5.714-5.714zm0 1.27a4.436 4.436 0 014.445 4.444 4.436 4.436 0 01-4.445 4.446 4.435 4.435 0 01-4.446-4.446 4.436 4.436 0 014.446-4.445zM76.2 146.686a5.724 5.724 0 00-5.716 5.714 5.724 5.724 0 005.715 5.715 5.724 5.724 0 005.715-5.715 5.725 5.725 0 00-5.715-5.714zm0 1.27a4.436 4.436 0 014.445 4.444 4.436 4.436 0 01-4.446 4.446 4.435 4.435 0 01-4.445-4.446 4.436 4.436 0 014.445-4.445z" color="#000" font-weight="400" font-family="sans-serif" overflow="visible" fill="#b32d35"/><path style="line-height:normal;font-variant-ligatures:normal;font-variant-position:normal;font-variant-caps:normal;font-variant-numeric:normal;font-variant-alternates:normal;font-feature-settings:normal;text-indent:0;text-align:start;text-decoration-line:none;text-decoration-style:solid;text-decoration-color:#000;text-transform:none;text-orientation:mixed;white-space:normal;shape-padding:0;isolation:auto;mix-blend-mode:normal;solid-color:#000;solid-opacity:1" d="M127 273.686a5.724 5.724 0 00-5.715 5.714 5.724 5.724 0 005.715 5.715 5.724 5.724 0 005.715-5.715 5.725 5.725 0 00-5.715-5.714zm0 1.27a4.436 4.436 0 014.445 4.444 4.436 4.436 0 01-4.445 4.446 4.435 4.435 0 01-4.445-4.446 4.436 4.436 0 014.445-4.445zM101.6 273.686a5.724 5.724 0 00-5.715 5.714 5.724 5.724 0 005.715 5.715 5.724 5.724 0 005.714-5.715 5.725 5.725 0 00-5.714-5.714zm0 1.27a4.436 4.436 0 014.445 4.444 4.436 4.436 0 01-4.445 4.446 4.435 4.435 0 01-4.446-4.446 4.436 4.436 0 014.446-4.445zM76.2 273.686a5.724 5.724 0 00-5.716 5.714 5.724 5.724 0 005.715 5.715 5.724 5.724 0 005.715-5.715 5.725 5.725 0 00-5.715-5.714zm0 1.27a4.436 4.436 0 014.445 4.444 4.436 4.436 0 01-4.446 4.446 4.435 4.435 0 01-4.445-4.446 4.436 4.436 0 014.445-4.445zM228.6 273.686a5.724 5.724 0 00-5.715 5.714 5.724 5.724 0 005.715 5.715 5.724 5.724 0 005.714-5.715 5.725 5.725 0 00-5.714-5.714zm0 1.27a4.436 4.436 0 014.445 4.444 4.436 4.436 0 01-4.445 4.446 4.435 4.435 0 01-4.446-4.446 4.436 4.436 0 014.446-4.445zM203.2 273.686a5.724 5.724 0 00-5.716 5.714 5.724 5.724 0 005.715 5.715 5.724 5.724 0 005.715-5.715 5.725 5.725 0 00-5.715-5.714zm0 1.27a4.436 4.436 0 014.445 4.444 4.436 4.436 0 01-4.446 4.446 4.435 4.435 0 01-4.445-4.446 4.436 4.436 0 014.445-4.445zM177.8 273.686a5.726 5.726 0 00-5.716 5.714 5.725 5.725 0 005.717 5.715 5.724 5.724 0 005.715-5.715 5.725 5.725 0 00-5.715-5.714zm0 1.27a4.435 4.435 0 014.444 4.444 4.434 4.434 0 01-4.443 4.446 4.435 4.435 0 01-4.446-4.446 4.436 4.436 0 014.446-4.445z" color="#000" font-weight="400" font-family="sans-serif" overflow="visible"/><path style="line-height:normal;font-variant-ligatures:normal;font-variant-position:normal;font-variant-caps:normal;font-variant-numeric:normal;font-variant-alternates:normal;font-feature-settings:normal;text-indent:0;text-align:start;text-decoration-line:none;text-decoration-style:solid;text-decoration-color:#000;text-transform:none;text-orientation:mixed;white-space:normal;shape-padding:0;isolation:auto;mix-blend-mode:normal;solid-color:#000;solid-opacity:1" d="M127 273.686a5.724 5.724 0 00-5.715 5.714 5.724 5.724 0 005.715 5.715 5.724 5.724 0 005.715-5.715 5.725 5.725 0 00-5.715-5.714zm0 1.27a4.436 4.436 0 014.445 4.444 4.436 4.436 0 01-4.445 4.446 4.435 4.435 0 01-4.445-4.446 4.436 4.436 0 014.445-4.445zM101.6 273.686a5.724 5.724 0 00-5.715 5.714 5.724 5.724 0 005.715 5.715 5.724 5.724 0 005.714-5.715 5.725 5.725 0 00-5.714-5.714zm0 1.27a4.436 4.436 0 014.445 4.444 4.436 4.436 0 01-4.445 4.446 4.435 4.435 0 01-4.446-4.446 4.436 4.436 0 014.446-4.445zM76.2 273.686a5.724 5.724 0 00-5.716 5.714 5.724 5.724 0 005.715 5.715 5.724 5.724 0 005.715-5.715 5.725 5.725 0 00-5.715-5.714zm0 1.27a4.436 4.436 0 014.445 4.444 4.436 4.436 0 01-4.446 4.446 4.435 4.435 0 01-4.445-4.446 4.436 4.436 0 014.445-4.445zM127 19.686a5.724 5.724 0 00-5.715 5.714A5.724 5.724 0 00127 31.115a5.724 5.724 0 005.715-5.715A5.725 5.725 0 00127 19.686zm0 1.27a4.436 4.436 0 014.445 4.444A4.436 4.436 0 01127 29.846a4.435 4.435 0 01-4.445-4.446A4.436 4.436 0 01127 20.955zM101.6 19.686a5.724 5.724 0 00-5.715 5.714 5.724 5.724 0 005.715 5.715 5.724 5.724 0 005.714-5.715 5.725 5.725 0 00-5.714-5.714zm0 1.27a4.436 4.436 0 014.445 4.444 4.436 4.436 0 01-4.445 4.446 4.435 4.435 0 01-4.446-4.446 4.436 4.436 0 014.446-4.445zM76.2 19.686a5.724 5.724 0 00-5.716 5.714 5.724 5.724 0 005.715 5.715 5.724 5.724 0 005.715-5.715 5.725 5.725 0 00-5.715-5.714zm0 1.27a4.436 4.436 0 014.445 4.444 4.436 4.436 0 01-4.446 4.446 4.435 4.435 0 01-4.445-4.446 4.436 4.436 0 014.445-4.445zM228.6 19.686a5.724 5.724 0 00-5.715 5.714 5.724 5.724 0 005.715 5.715 5.724 5.724 0 005.714-5.715 5.725 5.725 0 00-5.714-5.714zm0 1.27a4.436 4.436 0 014.445 4.444 4.436 4.436 0 01-4.445 4.446 4.435 4.435 0 01-4.446-4.446 4.436 4.436 0 014.446-4.445zM203.2 19.686a5.724 5.724 0 00-5.716 5.714 5.724 5.724 0 005.715 5.715 5.724 5.724 0 005.715-5.715 5.725 5.725 0 00-5.715-5.714zm0 1.27a4.436 4.436 0 014.445 4.444 4.436 4.436 0 01-4.446 4.446 4.435 4.435 0 01-4.445-4.446 4.436 4.436 0 014.445-4.445zM177.8 19.686a5.726 5.726 0 00-5.716 5.714 5.725 5.725 0 005.717 5.715 5.724 5.724 0 005.715-5.715 5.725 5.725 0 00-5.715-5.714zm0 1.27a4.435 4.435 0 014.444 4.444 4.434 4.434 0 01-4.443 4.446 4.435 4.435 0 01-4.446-4.446 4.436 4.436 0 014.446-4.445z" color="#000" font-weight="400" font-family="sans-serif" overflow="visible"/><path style="line-height:normal;font-variant-ligatures:normal;font-variant-position:normal;font-variant-caps:normal;font-variant-numeric:normal;font-variant-alternates:normal;font-feature-settings:normal;text-indent:0;text-align:start;text-decoration-line:none;text-decoration-style:solid;text-decoration-color:#000;text-transform:none;text-orientation:mixed;white-space:normal;shape-padding:0;isolation:auto;mix-blend-mode:normal;solid-color:#000;solid-opacity:1" d="M127 19.686a5.724 5.724 0 00-5.715 5.714A5.724 5.724 0 00127 31.115a5.724 5.724 0 005.715-5.715A5.725 5.725 0 00127 19.686zm0 1.27a4.436 4.436 0 014.445 4.444A4.436 4.436 0 01127 29.846a4.435 4.435 0 01-4.445-4.446A4.436 4.436 0 01127 20.955zM101.6 19.686a5.724 5.724 0 00-5.715 5.714 5.724 5.724 0 005.715 5.715 5.724 5.724 0 005.714-5.715 5.725 5.725 0 00-5.714-5.714zm0 1.27a4.436 4.436 0 014.445 4.444 4.436 4.436 0 01-4.445 4.446 4.435 4.435 0 01-4.446-4.446 4.436 4.436 0 014.446-4.445zM76.2 19.686a5.724 5.724 0 00-5.716 5.714 5.724 5.724 0 005.715 5.715 5.724 5.724 0 005.715-5.715 5.725 5.725 0 00-5.715-5.714zm0 1.27a4.436 4.436 0 014.445 4.444 4.436 4.436 0 01-4.446 4.446 4.435 4.435 0 01-4.445-4.446 4.436 4.436 0 014.445-4.445zM152.4 19.686a5.724 5.724 0 00-5.714 5.714 5.724 5.724 0 005.714 5.715 5.724 5.724 0 005.715-5.715 5.725 5.725 0 00-5.715-5.714zm0 1.27a4.436 4.436 0 014.446 4.444 4.436 4.436 0 01-4.446 4.446 4.435 4.435 0 01-4.445-4.446 4.436 4.436 0 014.445-4.445zM152.4 273.686a5.724 5.724 0 00-5.714 5.714 5.724 5.724 0 005.714 5.715 5.724 5.724 0 005.715-5.715 5.725 5.725 0 00-5.715-5.714zm0 1.27a4.436 4.436 0 014.446 4.444 4.436 4.436 0 01-4.446 4.446 4.435 4.435 0 01-4.445-4.446 4.436 4.436 0 014.445-4.445z" color="#000" font-weight="400" font-family="sans-serif" overflow="visible"/><path style="line-height:normal;font-variant-ligatures:normal;font-variant-position:normal;font-variant-caps:normal;font-variant-numeric:normal;font-variant-alternates:normal;font-feature-settings:normal;text-indent:0;text-align:start;text-decoration-line:none;text-decoration-style:solid;text-decoration-color:#000;text-transform:none;text-orientation:mixed;white-space:normal;shape-padding:0;isolation:auto;mix-blend-mode:normal;solid-color:#000;solid-opacity:1" d="M55.26 54.362a5.767 5.767 0 01-.897.898L71.74 72.637a5.77 5.77 0 01.897-.898zM81.88 75.564a5.733 5.733 0 010 1.272h14.04a5.731 5.731 0 010-1.272zM75.566 81.88v14.04a5.729 5.729 0 011.27 0V81.88a5.729 5.729 0 01-1.27 0zM100.964 81.88v14.04a5.727 5.727 0 011.272 0V81.88a5.728 5.728 0 01-1.272 0zM81.88 100.965a5.733 5.733 0 010 1.27h14.04a5.718 5.718 0 010-1.27z" color="#000" font-weight="400" font-family="sans-serif" overflow="visible" fill="#b32d35"/><path style="line-height:normal;font-variant-ligatures:normal;font-variant-position:normal;font-variant-caps:normal;font-variant-numeric:normal;font-variant-alternates:normal;font-feature-settings:normal;text-indent:0;text-align:start;text-decoration-line:none;text-decoration-style:solid;text-decoration-color:#000;text-transform:none;text-orientation:mixed;white-space:normal;shape-padding:0;isolation:auto;mix-blend-mode:normal;solid-color:#000;solid-opacity:1" d="M249.54 54.362L232.163 71.74c.331.266.631.566.896.897l17.378-17.377a5.766 5.766 0 01-.897-.898zM208.88 75.564a5.733 5.733 0 010 1.272h14.04a5.731 5.731 0 010-1.272zM202.566 81.88v14.04a5.729 5.729 0 011.27 0V81.88a5.729 5.729 0 01-1.27 0zM227.964 81.88v14.04a5.727 5.727 0 011.272 0V81.88a5.728 5.728 0 01-1.272 0zM208.88 100.965a5.733 5.733 0 010 1.27h14.04a5.718 5.718 0 010-1.27z" color="#000" font-weight="400" font-family="sans-serif" overflow="visible" fill="#3387b0"/><path style="line-height:normal;font-variant-ligatures:normal;font-variant-position:normal;font-variant-caps:normal;font-variant-numeric:normal;font-variant-alternates:normal;font-feature-settings:normal;text-indent:0;text-align:start;text-decoration-line:none;text-decoration-style:solid;text-decoration-color:#000;text-transform:none;text-orientation:mixed;white-space:normal;shape-padding:0;isolation:auto;mix-blend-mode:normal;solid-color:#000;solid-opacity:1" d="M208.88 202.564a5.733 5.733 0 010 1.272h14.04a5.731 5.731 0 010-1.272zM202.566 208.88v14.04a5.734 5.734 0 011.27 0v-14.04a5.733 5.733 0 01-1.27 0zM227.964 208.88v14.04a5.722 5.722 0 011.272 0v-14.04a5.733 5.733 0 01-1.272 0zM208.88 227.965a5.734 5.734 0 010 1.27h14.04a5.718 5.718 0 010-1.27zM233.06 232.162a5.762 5.762 0 01-.898.898l17.377 17.378c.266-.332.567-.633.899-.898z" color="#000" font-weight="400" font-family="sans-serif" overflow="visible" fill="#317501"/><path style="line-height:normal;font-variant-ligatures:normal;font-variant-position:normal;font-variant-caps:normal;font-variant-numeric:normal;font-variant-alternates:normal;font-feature-settings:normal;text-indent:0;text-align:start;text-decoration-line:none;text-decoration-style:solid;text-decoration-color:#000;text-transform:none;text-orientation:mixed;white-space:normal;shape-padding:0;isolation:auto;mix-blend-mode:normal;solid-color:#000;solid-opacity:1" d="M81.88 202.564a5.733 5.733 0 010 1.272h14.04a5.731 5.731 0 010-1.272zM75.566 208.88v14.04a5.733 5.733 0 011.27 0v-14.04a5.733 5.733 0 01-1.27 0zM100.964 208.88v14.04a5.722 5.722 0 011.272 0v-14.04a5.733 5.733 0 01-1.272 0zM81.88 227.965a5.734 5.734 0 010 1.27h14.04a5.718 5.718 0 010-1.27zM71.74 232.163L54.361 249.54c.331.266.633.567.898.898L72.64 233.06a5.767 5.767 0 01-.9-.897z" color="#000" font-weight="400" font-family="sans-serif" overflow="visible" fill="#bf40bf"/></svg>