<svg xmlns="http://www.w3.org/2000/svg" viewBox="0 0 203.2 203.2" height="8in" width="8in"><path d="M76.2 20.32a5.08 5.08 0 00-5.08 5.08 5.08 5.08 0 005.08 5.08 5.08 5.08 0 005.08-5.08 5.08 5.08 0 00-5.08-5.08zm25.4 0a5.08 5.08 0 00-5.08 5.08 5.08 5.08 0 005.08 5.08 5.08 5.08 0 005.08-5.08 5.08 5.08 0 00-5.08-5.08zm25.4 0a5.08 5.08 0 00-5.08 5.08 5.08 5.08 0 005.08 5.08 5.08 5.08 0 005.08-5.08 5.08 5.08 0 00-5.08-5.08zm-50.8 25.4a5.08 5.08 0 00-5.08 5.08 5.08 5.08 0 005.08 5.08 5.08 5.08 0 005.08-5.08 5.08 5.08 0 00-5.08-5.08zm25.4 0a5.08 5.08 0 00-5.08 5.08 5.08 5.08 0 005.08 5.08 5.08 5.08 0 005.08-5.08 5.08 5.08 0 00-5.08-5.08zm25.4 0a5.08 5.08 0 00-5.08 5.08 5.08 5.08 0 005.08 5.08 5.08 5.08 0 005.08-5.08 5.08 5.08 0 00-5.08-5.08zM25.4 71.12a5.08 5.08 0 00-5.08 5.08 5.08 5.08 0 005.08 5.08 5.08 5.08 0 005.08-5.08 5.08 5.08 0 00-5.08-5.08zm25.4 0a5.08 5.08 0 00-5.08 5.08 5.08 5.08 0 005.08 5.08 5.08 5.08 0 005.08-5.08 5.08 5.08 0 00-5.08-5.08zm25.4 0a5.08 5.08 0 00-5.08 5.08 5.08 5.08 0 005.08 5.08 5.08 5.08 0 005.08-5.08 5.08 5.08 0 00-5.08-5.08zm25.4 0a5.08 5.08 0 00-5.08 5.08 5.08 5.08 0 005.08 5.08 5.08 5.08 0 005.08-5.08 5.08 5.08 0 00-5.08-5.08zm25.4 0a5.08 5.08 0 00-5.08 5.08 5.08 5.08 0 005.08 5.08 5.08 5.08 0 005.08-5.08 5.08 5.08 0 00-5.08-5.08zm25.4 0a5.08 5.08 0 00-5.08 5.08 5.08 5.08 0 005.08 5.08 5.08 5.08 0 005.08-5.08 5.08 5.08 0 00-5.08-5.08zm25.4 0a5.08 5.08 0 00-5.08 5.08 5.08 5.08 0 005.08 5.08 5.08 5.08 0 005.08-5.08 5.08 5.08 0 00-5.08-5.08zM25.4 96.52a5.08 5.08 0 00-5.08 5.08 5.08 5.08 0 005.08 5.08 5.08 5.08 0 005.08-5.08 5.08 5.08 0 00-5.08-5.08zm25.4 0a5.08 5.08 0 00-5.08 5.08 5.08 5.08 0 005.08 5.08 5.08 5.08 0 005.08-5.08 5.08 5.08 0 00-5.08-5.08zm25.4 0a5.08 5.08 0 00-5.08 5.08 5.08 5.08 0 005.08 5.08 5.08 5.08 0 005.08-5.08 5.08 5.08 0 00-5.08-5.08zm25.4 0a5.08 5.08 0 00-5.08 5.08 5.08 5.08 0 005.08 5.08 5.08 5.08 0 005.08-5.08 5.08 5.08 0 00-5.08-5.08zm25.4 0a5.08 5.08 0 00-5.08 5.08 5.08 5.08 0 005.08 5.08 5.08 5.08 0 005.08-5.08 5.08 5.08 0 00-5.08-5.08zm25.4 0a5.08 5.08 0 00-5.08 5.08 5.08 5.08 0 005.08 5.08 5.08 5.08 0 005.08-5.08 5.08 5.08 0 00-5.08-5.08zm25.4 0a5.08 5.08 0 00-5.08 5.08 5.08 5.08 0 005.08 5.08 5.08 5.08 0 005.08-5.08 5.08 5.08 0 00-5.08-5.08zm-152.4 25.4a5.08 5.08 0 00-5.08 5.08 5.08 5.08 0 005.08 5.08 5.08 5.08 0 005.08-5.08 5.08 5.08 0 00-5.08-5.08zm25.4 0a5.08 5.08 0 00-5.08 5.08 5.08 5.08 0 005.08 5.08 5.08 5.08 0 005.08-5.08 5.08 5.08 0 00-5.08-5.08zm25.4 0a5.08 5.08 0 00-5.08 5.08 5.08 5.08 0 005.08 5.08 5.08 5.08 0 005.08-5.08 5.08 5.08 0 00-5.08-5.08zm25.4 0a5.08 5.08 0 00-5.08 5.08 5.08 5.08 0 005.08 5.08 5.08 5.08 0 005.08-5.08 5.08 5.08 0 00-5.08-5.08zm25.4 0a5.08 5.08 0 00-5.08 5.08 5.08 5.08 0 005.08 5.08 5.08 5.08 0 005.08-5.08 5.08 5.08 0 00-5.08-5.08zm25.4 0a5.08 5.08 0 00-5.08 5.08 5.08 5.08 0 005.08 5.08 5.08 5.08 0 005.08-5.08 5.08 5.08 0 00-5.08-5.08zm25.4 0a5.08 5.08 0 00-5.08 5.08 5.08 5.08 0 005.08 5.08 5.08 5.08 0 005.08-5.08 5.08 5.08 0 00-5.08-5.08zm-101.6 25.4a5.08 5.08 0 00-5.08 5.08 5.08 5.08 0 005.08 5.08 5.08 5.08 0 005.08-5.08 5.08 5.08 0 00-5.08-5.08zm25.4 0a5.08 5.08 0 00-5.08 5.08 5.08 5.08 0 005.08 5.08 5.08 5.08 0 005.08-5.08 5.08 5.08 0 00-5.08-5.08zm25.4 0a5.08 5.08 0 00-5.08 5.08 5.08 5.08 0 005.08 5.08 5.08 5.08 0 005.08-5.08 5.08 5.08 0 00-5.08-5.08zm-50.8 25.4a5.08 5.08 0 00-5.08 5.08 5.08 5.08 0 005.08 5.08 5.08 5.08 0 005.08-5.08 5.08 5.08 0 00-5.08-5.08zm25.4 0a5.08 5.08 0 00-5.08 5.08 5.08 5.08 0 005.08 5.08 5.08 5.08 0 005.08-5.08 5.08 5.08 0 00-5.08-5.08zm25.4 0a5.08 5.08 0 00-5.08 5.08 5.08 5.08 0 005.08 5.08 5.08 5.08 0 005.08-5.08 5.08 5.08 0 00-5.08-5.08z" fill="none" stroke="#000" stroke-width="1.27" stroke-linecap="round" stroke-linejoin="round"/></svg>