<?xml version="1.0" encoding="UTF-8" standalone="no"?>
<svg
   xmlns:dc="http://purl.org/dc/elements/1.1/"
   xmlns:cc="http://creativecommons.org/ns#"
   xmlns:rdf="http://www.w3.org/1999/02/22-rdf-syntax-ns#"
   xmlns:svg="http://www.w3.org/2000/svg"
   xmlns="http://www.w3.org/2000/svg"
   id="svg817"
   version="1.1"
   width="96"
   height="96"
   viewBox="0 0 25.4 25.4">
  <metadata
     id="metadata823">
    <rdf:RDF>
      <cc:Work
         rdf:about="">
        <dc:format>image/svg+xml</dc:format>
        <dc:type
           rdf:resource="http://purl.org/dc/dcmitype/StillImage" />
        <dc:title></dc:title>
      </cc:Work>
    </rdf:RDF>
  </metadata>
  <defs
     id="defs821" />
  <path
     id="path862"
     d="m 12.512156,12.675454 a 6.677,7.1879999 0 0 1 0.375688,0.04909 7.164638,7.164638 0 0 0 -0.375688,-0.04909 z"
     style="opacity:1;vector-effect:none;fill:#1a1a1a;fill-opacity:1;stroke:none;stroke-width:1;stroke-linecap:butt;stroke-linejoin:miter;stroke-miterlimit:4;stroke-dasharray:none;stroke-dashoffset:0;stroke-opacity:1" />
  <path
     id="path825"
     transform="scale(0.26458333)"
     d="M 48 20.921875 A 27.078947 27.078947 0 0 0 20.921875 48 A 27.078947 27.078947 0 0 0 48 75.078125 A 27.078947 27.078947 0 0 0 75.078125 48 A 27.078947 27.078947 0 0 0 48 20.921875 z M 47.980469 38.373047 A 13.731024 13.731024 0 0 1 50.705078 38.671875 A 9.7776374 9.7776374 0 0 1 57.546875 45.550781 C 57.875694 46.752671 57.875694 49.251362 57.546875 50.457031 A 9.7662988 9.7662988 0 0 1 52.505859 56.654297 C 50.990269 57.391301 49.980442 57.626953 48.173828 57.626953 C 47.096659 57.626953 46.332856 57.543252 45.716797 57.376953 A 9.7133854 9.7133854 0 0 1 39.042969 44.814453 C 40.105016 41.605634 43.098626 39.080527 46.564453 38.453125 A 6.6028343 6.6028343 0 0 1 47.470703 38.376953 A 13.731024 13.731024 0 0 1 47.980469 38.373047 z M 48.453125 42.451172 C 47.436432 42.390703 46.442221 42.635689 45.417969 43.1875 C 43.505528 44.22687 42.288823 46.741953 42.689453 48.832031 C 43.256382 51.931244 46.128826 54.027181 49.039062 53.498047 C 52.081582 52.923559 54.199056 50.04495 53.669922 47.191406 C 53.246619 44.855658 51.715869 43.203014 49.474609 42.617188 C 49.130672 42.526479 48.793282 42.473849 48.453125 42.451172 z M 48.064453 42.882812 L 48.121094 42.886719 L 48.089844 42.886719 L 48.064453 42.882812 z M 46.626953 43.173828 L 46.626953 43.177734 L 46.621094 43.177734 C 46.613535 43.185456 46.605215 43.185543 46.597656 43.185547 L 46.626953 43.173828 z M 33.917969 44.859375 L 33.917969 44.863281 C 34.78726 44.859464 35.645008 44.922657 35.833984 45.0625 C 36.079654 45.240138 36.090351 45.44164 36.105469 48.011719 C 36.105469 51.371734 36.267389 51.148438 33.931641 51.148438 C 32.113688 51.148438 31.773833 51.042635 31.203125 50.275391 C 30.995251 50.018383 30.341687 49.485252 29.755859 49.103516 C 28.168457 48.079264 28.168457 47.944047 29.755859 46.916016 C 30.341687 46.538063 30.995251 46.004928 31.203125 45.744141 A 2.8988976 2.8988976 0 0 1 31.914062 45.074219 C 32.16729 44.938156 33.048678 44.866934 33.917969 44.859375 z M 62.384766 44.859375 L 62.386719 44.859375 L 62.388672 44.859375 C 63.241503 44.851967 64.105638 44.904508 64.332031 45.021484 A 7.4759051 7.4759051 0 0 1 65.384766 45.947266 A 10.711181 10.711181 0 0 0 66.791016 47.164062 C 67.32391 47.519342 67.433594 47.671561 67.433594 48.011719 C 67.433594 48.351876 67.323929 48.502146 66.791016 48.857422 C 66.424401 49.103091 65.792955 49.650912 65.384766 50.074219 C 64.972797 50.497526 64.49833 50.901606 64.332031 50.996094 C 63.886047 51.2305 60.87676 51.204654 60.521484 50.958984 C 60.264363 50.770008 60.25 50.634711 60.25 48.011719 C 60.265118 45.44164 60.275815 45.240138 60.521484 45.0625 C 60.691283 44.938002 61.528279 44.870714 62.384766 44.859375 z M 48.121094 44.884766 A 4.1650394 4.1650394 0 0 1 50.037109 45.539062 C 52.11207 47.164259 51.385542 50.455748 48.845703 51 A 3.0500787 3.0500787 0 0 1 45.226562 47.164062 A 3.1370079 3.1370079 0 0 1 47.207031 45.089844 C 47.550968 44.980237 47.958574 44.884766 48.121094 44.884766 z "
     style="opacity:1;vector-effect:none;fill:#1a1a1a;fill-opacity:1;stroke:none;stroke-width:3.77952766;stroke-linecap:butt;stroke-linejoin:miter;stroke-miterlimit:4;stroke-dasharray:none;stroke-dashoffset:0;stroke-opacity:1" />
</svg>
