<svg xmlns="http://www.w3.org/2000/svg" viewBox="0 0 25.4 25.4" height="96" width="96"><g font-weight="400" font-family="Poppins" word-spacing="0" text-anchor="middle" stroke-width=".176" stroke-linecap="round" stroke-linejoin="round"><g style="line-height:1.5;-inkscape-font-specification:Poppins;text-align:center"><path style="-inkscape-font-specification:Poppins;text-align:center" d="M10.521 11.777v-.468h1.061v4.08h-.52v-3.612zm1.93.559q.04-.519.401-.813.361-.293.937-.293.384 0 .66.141.283.136.424.373.147.237.147.536 0 .35-.204.604-.197.254-.519.327v.028q.367.09.582.356.214.265.214.694 0 .322-.147.582-.147.254-.44.4-.294.147-.706.147-.598 0-.982-.31-.384-.316-.429-.892h.497q.04.339.277.553.237.215.632.215t.598-.204q.209-.209.209-.536 0-.423-.282-.61-.283-.186-.853-.186h-.13v-.429h.136q.52-.005.785-.17.265-.168.265-.518 0-.3-.198-.48-.192-.18-.553-.18-.35 0-.564.18-.215.18-.254.485z" aria-label="13" font-size="5.644" letter-spacing="0" fill="#1b1b1b" stroke="#1b1b1b"/></g><g style="line-height:1.5;-inkscape-font-specification:Poppins;text-align:center"><path style="-inkscape-font-specification:Poppins;text-align:center" d="M-223.206 94.996h-1.668v1.084q.11-.152.323-.247.214-.1.46-.1.395 0 .642.166.247.162.352.423.11.256.11.546 0 .342-.13.613-.127.27-.393.428-.262.156-.651.156-.5 0-.808-.256-.309-.257-.375-.684h.423q.061.27.26.423.2.152.504.152.376 0 .566-.224.19-.228.19-.598t-.19-.57q-.19-.205-.56-.205-.253 0-.443.124-.185.119-.27.328h-.409v-1.939h2.067z" transform="matrix(-.93452 -.17078 -.14027 -1.0957 -177.8 76.2)" aria-label="5" font-size="4.751" letter-spacing="0" fill="#181818" stroke="#181818"/></g><g style="line-height:1.5;-inkscape-font-specification:Poppins;text-align:center"><path style="-inkscape-font-specification:Poppins;text-align:center" d="M70.743-187.604v-.399h.902v3.47h-.442v-3.071zm2.065 0v-.399h.902v3.47h-.442v-3.071z" transform="matrix(.34839 .88398 -.85596 .69848 -177.8 76.2)" aria-label="11" font-size="4.799" letter-spacing=".529" fill="#3d3d3d" stroke="#3d3d3d"/></g><g style="line-height:1.5;-inkscape-font-specification:Poppins;text-align:center"><path style="-inkscape-font-specification:Poppins;text-align:center" d="M-3.174 112.512v-.203l1.032-1.429h.32v1.4h.294v.232h-.294v.473h-.264v-.473zm1.1-1.353l-.791 1.12h.79z" transform="matrix(-.00186 -.59492 1.67885 -.65577 -177.8 76.2)" aria-label="4" font-size="2.94" letter-spacing="0" fill="#7e7e7e" stroke="#7f7f7f"/></g><g style="line-height:1.5;-inkscape-font-specification:Poppins;text-align:center"><path style="-inkscape-font-specification:Poppins;text-align:center" d="M119.247 266.99v-.248h.562v2.16h-.275v-1.912zm1.378 1.332q.03.17.138.263.11.093.296.093.248 0 .364-.194.12-.194.114-.655-.063.135-.21.213-.146.074-.325.074-.2 0-.359-.08-.155-.084-.245-.243-.09-.158-.09-.382 0-.32.186-.514.185-.197.526-.197.418 0 .585.272.17.272.17.81 0 .376-.068.621-.066.245-.227.374-.158.128-.436.128-.305 0-.476-.164-.17-.165-.194-.419zm.422-.436q.2 0 .328-.122.129-.126.129-.338 0-.224-.126-.362-.125-.137-.352-.137-.21 0-.335.131-.123.132-.123.347 0 .218.123.35.122.131.356.131z" transform="matrix(-.96273 -1.15093 1.12634 .30782 -177.8 76.2)" aria-label="19" font-size="2.989" letter-spacing="0" fill="#171717" stroke="#171717"/></g><g style="line-height:1.5;-inkscape-font-specification:Poppins;text-align:center"><path style="-inkscape-font-specification:Poppins;text-align:center" d="M19.49-176.4v-.385h.872v3.35h-.427v-2.965z" transform="matrix(.61351 .73798 -1.0149 .40915 -177.8 76.2)" aria-label="1" font-size="4.635" letter-spacing="0" fill="#141414" stroke="#141414"/></g><g style="line-height:1.5;-inkscape-font-specification:Poppins;text-align:center"><path style="-inkscape-font-specification:Poppins;text-align:center" d="M-235.811-249.94v-.25h.567v2.183h-.278v-1.932zm2.431-.012h-1.06v.689q.069-.097.205-.157.136-.064.293-.064.25 0 .407.106.157.103.224.269.069.163.069.347 0 .218-.082.39-.081.172-.25.271-.166.1-.414.1-.317 0-.513-.163t-.239-.435h.27q.038.172.165.269.127.096.32.096.239 0 .36-.141.12-.145.12-.38 0-.236-.12-.363-.121-.13-.357-.13-.16 0-.28.078-.118.076-.173.209h-.26v-1.232h1.314z" transform="matrix(-.54286 1.42046 -.289 -1.0859 -177.8 76.2)" aria-label="15" font-size="3.019" letter-spacing="0" fill="#141414" stroke="#141414"/></g><g style="line-height:1.5;-inkscape-font-specification:Poppins;text-align:center"><path style="-inkscape-font-specification:Poppins;text-align:center" d="M-.7-171.89l-.836 1.963h-.277l.849-1.935h-1.162v-.235h1.427z" transform="matrix(-.93035 1.14205 -1.13608 .31973 -177.8 76.2)" aria-label="7" font-size="3.009" letter-spacing="0" fill="#0f0f0f" stroke="#0f0f0f"/></g><g style="line-height:1.5;-inkscape-font-specification:Poppins;text-align:center"><path style="-inkscape-font-specification:Poppins;text-align:center" d="M-146.786-303.261q.03.166.135.257.108.091.29.091.243 0 .357-.19.117-.19.112-.642-.062.132-.205.208-.144.073-.32.073-.196 0-.351-.079-.152-.082-.24-.237-.088-.155-.088-.375 0-.313.182-.503.181-.194.515-.194.41 0 .574.267.167.266.167.793 0 .37-.068.61-.064.24-.222.366-.155.125-.428.125-.298 0-.465-.16-.167-.162-.19-.41zm.413-.428q.196 0 .322-.12.126-.123.126-.331 0-.22-.123-.354-.123-.135-.345-.135-.205 0-.328.129-.12.129-.12.34 0 .213.12.342.12.129.348.129zm1.218 1.013q-.076 0-.128-.053-.053-.052-.053-.128 0-.076.053-.13.052-.052.128-.052.074 0 .123.053.053.052.053.129 0 .076-.053.128-.05.053-.123.053z" transform="matrix(.00568 1.67045 -.60068 -.59857 -177.8 76.2)" aria-label="9." font-size="2.928" letter-spacing="0" fill="#292929" stroke="#292929"/></g><g style="line-height:1.5;-inkscape-font-specification:Poppins;text-align:center"><path style="-inkscape-font-specification:Poppins;text-align:center" d="M22.781 275.623v-.241h.547v2.103h-.267v-1.862zm1.385.768q-.163-.064-.25-.186-.088-.122-.088-.297 0-.157.079-.282.079-.128.233-.2.157-.076.378-.076.22 0 .375.076.157.072.235.2.082.125.082.282 0 .17-.09.297-.09.125-.247.186.18.056.285.195.107.137.107.332 0 .189-.093.331-.093.14-.265.218-.168.076-.39.076-.22 0-.389-.076-.166-.078-.259-.218-.093-.142-.093-.331 0-.195.105-.335.104-.14.285-.192zm.788-.45q0-.178-.116-.274-.117-.096-.32-.096-.201 0-.317.096-.117.096-.117.276 0 .163.12.262.122.099.314.099.195 0 .314-.099.122-.102.122-.265zm-.436.567q-.215 0-.352.101-.137.1-.137.3 0 .186.131.3.134.113.358.113.224 0 .355-.114.13-.113.13-.3 0-.194-.133-.296-.134-.104-.352-.104z" transform="matrix(-1.49875 -.86902 .83287 -.1843 -177.8 76.2)" aria-label="18" font-size="2.908" letter-spacing="0" fill="#434343" stroke="#434343"/></g></g></svg>