<svg xmlns="http://www.w3.org/2000/svg" viewBox="0 0 25.4 25.4" height="96" width="96"><g font-weight="400" font-family="Poppins" word-spacing="0" text-anchor="middle" stroke-width=".176" stroke-linecap="round" stroke-linejoin="round"><g style="line-height:1.5;-inkscape-font-specification:Poppins;text-align:center"><path style="-inkscape-font-specification:Poppins;text-align:center" d="M10.408 11.777v-.468h1.061v4.08h-.519v-3.612zm1.818 2.704v-.39l1.98-2.742h.616v2.686h.565v.446h-.565v.909h-.508v-.909zm2.11-2.596l-1.518 2.15h1.519z" aria-label="14" font-size="5.644" letter-spacing="0" fill="#1b1b1b" stroke="#1b1b1b"/></g><g style="line-height:1.5;-inkscape-font-specification:Poppins;text-align:center"><path style="-inkscape-font-specification:Poppins;text-align:center" d="M-196.167 91.1q-.104-.527-.65-.527-.423 0-.632.328-.21.323-.205 1.069.11-.247.362-.385.256-.142.57-.142.489 0 .779.304.294.304.294.84 0 .324-.128.58-.124.257-.38.409-.252.152-.613.152-.49 0-.765-.219-.275-.218-.385-.603-.109-.385-.109-.95 0-1.744 1.216-1.744.466 0 .732.252.266.252.313.637zm-.646.708q-.204 0-.384.086-.181.08-.295.252-.11.166-.11.408 0 .361.21.59.209.223.598.223.333 0 .528-.205.2-.209.2-.56 0-.37-.19-.58-.19-.214-.557-.214zm1.958 1.939q-.124 0-.21-.086-.085-.085-.085-.209 0-.123.086-.209.085-.085.209-.085.118 0 .2.085.085.086.085.21 0 .123-.086.208-.08.086-.2.086z" transform="matrix(-.93452 -.17078 -.14027 -1.0957 -152.4 76.2)" aria-label="6." font-size="4.751" letter-spacing="0" fill="#181818" stroke="#181818"/></g><g style="line-height:1.5;-inkscape-font-specification:Poppins;text-align:center"><path style="-inkscape-font-specification:Poppins;text-align:center" d="M53.302-162.852v-.331l1.684-2.333h.523v2.285h.48v.379h-.48v.772h-.432v-.772zm1.795-2.208l-1.291 1.829h1.29z" transform="matrix(.34839 .88398 -.85596 .69848 -152.4 76.2)" aria-label="4" font-size="4.799" letter-spacing="0" fill="#3d3d3d" stroke="#3d3d3d"/></g><g style="line-height:1.5;-inkscape-font-specification:Poppins;text-align:center"><path style="-inkscape-font-specification:Poppins;text-align:center" d="M13.196 95.993v-.244h.552v2.125h-.27v-1.881zm1.47 0v-.244h.552v2.125h-.27v-1.881z" transform="matrix(-.00186 -.59492 1.67885 -.65577 -152.4 76.2)" aria-label="11" font-size="2.94" letter-spacing=".529" fill="#7e7e7e" stroke="#7f7f7f"/></g><g style="line-height:1.5;-inkscape-font-specification:Poppins;text-align:center"><path style="-inkscape-font-specification:Poppins;text-align:center" d="M112.028 239.45q.38-.304.595-.499.215-.197.362-.41.149-.214.149-.42 0-.195-.096-.305-.092-.114-.302-.114-.203 0-.316.129-.11.125-.12.337h-.263q.012-.334.203-.517.192-.182.494-.182.307 0 .487.17.182.17.182.47 0 .248-.15.484-.146.233-.334.412-.188.176-.481.413h1.028v.227h-1.438z" transform="matrix(-.96273 -1.15093 1.12634 .30782 -152.4 76.2)" aria-label="2" font-size="2.989" letter-spacing="0" fill="#171717" stroke="#171717"/></g><g style="line-height:1.5;-inkscape-font-specification:Poppins;text-align:center"><path style="-inkscape-font-specification:Poppins;text-align:center" d="M7.112-155.028q.589-.472.922-.774.334-.306.561-.635.232-.333.232-.653 0-.302-.148-.473-.144-.176-.469-.176-.315 0-.49.2-.172.194-.186.523h-.408q.018-.52.315-.802.297-.283.765-.283.477 0 .755.264.283.265.283.728 0 .385-.232.751-.227.362-.519.64-.292.273-.746.64H9.34v.352H7.11zm2.716-1.372q0-.797.26-1.242.26-.45.908-.45.644 0 .904.45.26.445.26 1.242 0 .811-.26 1.261-.26.45-.904.45-.649 0-.908-.45-.26-.45-.26-1.26zm1.914 0q0-.403-.055-.681-.051-.283-.218-.454-.162-.172-.473-.172-.315 0-.482.172-.162.171-.218.454-.05.278-.05.681 0 .417.05.7.056.283.218.454.167.172.482.172.31 0 .473-.172.167-.171.218-.454.055-.283.055-.7z" transform="matrix(.61351 .73798 -1.0149 .40915 -152.4 76.2)" aria-label="20" font-size="4.635" letter-spacing="0" fill="#141414" stroke="#141414"/></g><g style="line-height:1.5;-inkscape-font-specification:Poppins;text-align:center"><path style="-inkscape-font-specification:Poppins;text-align:center" d="M-208.24-213.86v-.25h.567v2.183h-.277v-1.933zm2.255.269q-.066-.335-.413-.335-.27 0-.402.208-.133.206-.13.68.07-.157.23-.245.163-.09.362-.09.311 0 .495.193.187.193.187.534 0 .205-.081.368-.079.163-.242.26-.16.097-.39.097-.31 0-.485-.14-.175-.138-.245-.383-.07-.244-.07-.604 0-1.108.774-1.108.296 0 .465.16.169.16.199.405zm-.41.45q-.13 0-.245.054-.115.052-.187.16-.07.106-.07.26 0 .23.133.374.133.142.38.142.212 0 .336-.13.127-.132.127-.356 0-.235-.121-.368-.12-.136-.353-.136z" transform="matrix(-.54286 1.42046 -.289 -1.0859 -152.4 76.2)" aria-label="16" font-size="3.019" letter-spacing="0" fill="#141414" stroke="#141414"/></g><g style="line-height:1.5;-inkscape-font-specification:Poppins;text-align:center"><path style="-inkscape-font-specification:Poppins;text-align:center" d="M-9.89-142.05q-.169-.067-.259-.193t-.09-.307q0-.162.081-.292.081-.132.24-.207.163-.079.392-.079t.388.079q.163.075.244.207.084.13.084.292 0 .175-.093.307-.094.13-.256.193.187.057.295.201.111.142.111.343 0 .196-.096.343-.096.145-.274.226-.174.078-.403.078-.229 0-.403-.078-.172-.081-.268-.226-.096-.147-.096-.343 0-.201.108-.346.108-.144.295-.198zm.815-.467q0-.183-.12-.283-.12-.099-.331-.099-.208 0-.328.1-.12.099-.12.285 0 .169.123.271.126.102.325.102.201 0 .325-.102.126-.105.126-.274zm-.451.587q-.223 0-.364.105-.142.103-.142.31 0 .193.136.31.138.118.37.118.232 0 .367-.118.135-.117.135-.31 0-.201-.138-.307-.138-.108-.364-.108z" transform="matrix(-.93035 1.14205 -1.13608 .31973 -152.4 76.2)" aria-label="8" font-size="3.009" letter-spacing="0" fill="#0f0f0f" stroke="#0f0f0f"/></g><g style="line-height:1.5;-inkscape-font-specification:Poppins;text-align:center"><path style="-inkscape-font-specification:Poppins;text-align:center" d="M-132.157-262.138v-.243h.55v2.117h-.27v-1.874zm1.394.773q-.164-.064-.252-.187t-.088-.299q0-.158.079-.284.08-.129.234-.202.158-.076.38-.076.223 0 .379.076.158.073.237.202.082.126.082.284 0 .17-.091.299-.09.126-.249.187.182.056.287.196.108.138.108.334 0 .19-.093.334-.094.14-.267.22-.17.076-.392.076-.223 0-.392-.077-.167-.079-.261-.22-.094-.143-.094-.333 0-.196.106-.337.105-.14.287-.193zm.793-.454q0-.178-.117-.275-.117-.097-.322-.097-.202 0-.32.097-.116.097-.116.278 0 .164.12.264.123.1.316.1.196 0 .316-.1.123-.103.123-.267zm-.44.571q-.216 0-.353.103-.138.1-.138.301 0 .188.132.302.134.114.36.114.225 0 .357-.114.132-.114.132-.302 0-.196-.135-.298-.134-.106-.354-.106z" transform="matrix(.00568 1.67045 -.60068 -.59857 -152.4 76.2)" aria-label="18" font-size="2.928" letter-spacing="0" fill="#292929" stroke="#292929"/></g><g style="line-height:1.5;-inkscape-font-specification:Poppins;text-align:center"><path style="-inkscape-font-specification:Poppins;text-align:center" d="M28.034 254.847q.03.166.134.256.107.09.288.09.241 0 .355-.189.116-.189.11-.636-.061.13-.203.206-.143.073-.317.073-.195 0-.35-.079-.15-.081-.238-.235-.087-.155-.087-.373 0-.31.18-.5.18-.192.512-.192.407 0 .57.265.166.264.166.788 0 .366-.067.605-.064.238-.221.363-.154.126-.425.126-.296 0-.462-.16-.166-.16-.19-.408zm.41-.424q.195 0 .32-.12.125-.122.125-.328 0-.218-.122-.352-.122-.134-.343-.134-.204 0-.326.128-.12.128-.12.338 0 .212.12.34.12.128.346.128zm1.21 1.007q-.076 0-.128-.053-.052-.053-.052-.128 0-.076.052-.128.052-.053.128-.053.073 0 .122.053.053.052.053.128 0 .075-.053.128-.05.052-.122.052z" transform="matrix(-1.49875 -.86902 .83287 -.1843 -152.4 76.2)" aria-label="9." font-size="2.908" letter-spacing="0" fill="#434343" stroke="#434343"/></g></g></svg>