<svg xmlns="http://www.w3.org/2000/svg" viewBox="0 0 25.4 25.4" height="96" width="96"><g font-weight="400" font-family="Poppins" letter-spacing="0" word-spacing="0" text-anchor="middle" stroke-linecap="round" stroke-linejoin="round"><g style="line-height:1.5;-inkscape-font-specification:Poppins;text-align:center"><path d="M10.57 14.908q1.13-.907 1.77-1.485.64-.586 1.075-1.218.444-.64.444-1.253 0-.578-.284-.907-.276-.338-.898-.338-.604 0-.942.383-.33.373-.356 1.004h-.782q.035-.996.604-1.538.57-.542 1.467-.542.916 0 1.45.507.542.506.542 1.395 0 .738-.445 1.44-.436.694-.996 1.227-.56.525-1.43 1.227h3.057v.676H10.57z" style="-inkscape-font-specification:Poppins;text-align:center" aria-label="2" font-size="9.878" fill="#f2f2f2" stroke="#f2f2f2" stroke-width=".158"/></g><g style="line-height:1.5;-inkscape-font-specification:Poppins;text-align:center"><path d="M-282.344-35.788h-1.985v1.29q.13-.182.385-.295.254-.119.548-.119.47 0 .764.198.294.193.418.504.13.305.13.65 0 .407-.153.73-.152.322-.469.508-.31.187-.775.187-.593 0-.96-.306-.368-.305-.448-.814h.504q.073.322.31.503.238.181.6.181.447 0 .673-.265.226-.272.226-.713 0-.44-.226-.678-.226-.244-.667-.244-.3 0-.526.147-.22.142-.322.39h-.487v-2.306h2.46z" style="-inkscape-font-specification:Poppins;text-align:center" transform="matrix(-1.57217 0 0 -.51521 -433.07 1.264)" aria-label="5" font-size="5.655" fill="#b6b6b6" stroke="#b6b6b6" stroke-width=".101"/></g><g style="line-height:1.5;-inkscape-font-specification:Poppins;text-align:center"><path d="M569.72-490.24l-1.593 3.738h-.528l1.617-3.687h-2.213v-.447h2.718z" style="-inkscape-font-specification:Poppins;text-align:center" transform="matrix(0 .89912 -.90089 1.02997 -433.07 1.264)" aria-label="7" font-size="5.734" fill="#f4f4f4" stroke="#f4f4f4" stroke-width=".102"/></g><g style="line-height:1.5;-inkscape-font-specification:Poppins;text-align:center"><path d="M562.644 499.972q.04-.528.407-.826.367-.298.952-.298.39 0 .67.143.288.138.43.379.15.24.15.544 0 .356-.206.614-.201.258-.528.333v.028q.373.092.59.362.219.27.219.705 0 .327-.15.59-.149.259-.447.408-.298.149-.717.149-.607 0-.997-.316-.39-.32-.436-.906h.504q.04.344.281.562.241.218.643.218.401 0 .608-.206.212-.212.212-.545 0-.43-.287-.62-.287-.189-.866-.189h-.132v-.435h.138q.527-.006.797-.172.27-.172.27-.528 0-.304-.201-.487-.195-.184-.562-.184-.356 0-.574.184-.218.183-.258.493z" style="-inkscape-font-specification:Poppins;text-align:center" transform="matrix(0 -.89912 .90089 1.0278 -433.07 1.264)" aria-label="3" font-size="5.734" fill="#dbdbdb" stroke="#dbdbdb" stroke-width=".102"/></g></g></svg>