<svg xmlns="http://www.w3.org/2000/svg" viewBox="0 0 25.4 25.4" height="96" width="96"><g font-weight="400" font-family="Poppins" letter-spacing="0" word-spacing="0" text-anchor="middle" stroke-linecap="round" stroke-linejoin="round"><g style="line-height:1.5;-inkscape-font-specification:Poppins;text-align:center"><path style="-inkscape-font-specification:Poppins;text-align:center" d="M11.593 12.22q-.498-.196-.765-.57-.267-.373-.267-.906 0-.48.24-.862.24-.391.712-.614.48-.23 1.155-.23.676 0 1.147.23.48.223.72.614.25.382.25.862 0 .516-.276.907-.276.382-.756.569.551.169.871.595.329.418.329 1.014 0 .578-.284 1.013-.285.427-.81.667-.515.231-1.19.231-.676 0-1.192-.23-.507-.24-.791-.668-.285-.435-.285-1.013 0-.596.32-1.022.32-.427.872-.587zm2.409-1.378q0-.542-.356-.836-.355-.293-.978-.293-.613 0-.969.293-.355.294-.355.845 0 .498.364.8.374.302.96.302.596 0 .96-.302.374-.311.374-.81zm-1.334 1.733q-.658 0-1.075.312-.418.302-.418.915 0 .57.4.916.409.347 1.093.347.685 0 1.085-.347.4-.347.4-.916 0-.595-.409-.907-.409-.32-1.076-.32z" aria-label="8" font-size="9.878" fill="#1b1b1b" stroke="#1b1b1b" stroke-width=".158"/></g><g style="line-height:1.5;-inkscape-font-specification:Poppins;text-align:center"><path style="-inkscape-font-specification:Poppins;text-align:center" d="M-197.61-35.206q.04-.52.402-.814.362-.294.939-.294.384 0 .661.141.283.136.424.374.147.237.147.537 0 .35-.203.605-.198.254-.52.328v.028q.367.09.582.356.215.266.215.696 0 .322-.147.582-.147.255-.441.402-.294.147-.707.147-.6 0-.984-.311-.385-.317-.43-.894h.498q.04.34.277.554.237.215.633.215t.6-.203q.209-.21.209-.537 0-.425-.283-.611-.283-.187-.854-.187h-.13v-.43h.136q.52-.005.786-.17.266-.169.266-.52 0-.299-.198-.48-.193-.18-.554-.18-.351 0-.566.18-.215.181-.254.486z" transform="matrix(-1.57217 0 0 -.51521 -295.91 1.27)" aria-label="3" font-size="5.655" fill="#141414" fill-opacity=".98" stroke="#141414" stroke-width=".101"/></g><g style="line-height:1.5;-inkscape-font-specification:Poppins;text-align:center"><path style="-inkscape-font-specification:Poppins;text-align:center" d="M393.272-337.922v-.476h1.078v4.146h-.528v-3.67z" transform="matrix(0 .89912 -.90089 1.02997 -295.91 1.27)" aria-label="1" font-size="5.734" fill="#3d3d3d" stroke="#3c3c3c" stroke-width=".102" stroke-opacity=".992"/></g><g style="line-height:1.5;-inkscape-font-specification:Poppins;text-align:center"><path style="-inkscape-font-specification:Poppins;text-align:center" d="M391.147 347.13h-2.012v1.308q.131-.183.39-.298.258-.12.556-.12.476 0 .774.2.298.195.424.51.132.31.132.66 0 .413-.155.74-.154.327-.476.516-.315.19-.785.19-.602 0-.975-.31t-.453-.826h.51q.075.327.316.51.24.184.608.184.453 0 .682-.27.23-.275.23-.722 0-.448-.23-.688-.23-.247-.677-.247-.304 0-.533.15-.224.143-.327.395h-.493v-2.34h2.494z" transform="matrix(0 -.89912 .90089 1.0278 -295.91 1.27)" aria-label="5" font-size="5.734" fill="#181818" stroke="#181818" stroke-width=".102"/></g></g></svg>