<svg version="1.0" xmlns="http://www.w3.org/2000/svg" width="682.667" height="682.667" viewBox="0 0 512 512"><g fill="#f2f2f2"><path d="M195.2 39.3c-5.3 5.7-33.2 78-33.2 86.1 0 1.4.9 3.5 1.9 4.5 3.8 3.8 42 14.2 64.6 17.7 15 2.3 39.5 2.3 55-.1 22.5-3.3 60.7-13.7 64.6-17.6 1-1 1.9-3.1 1.9-4.5 0-5.8-20.8-62.3-29.3-79.4-5.1-10.4-5.7-10.4-22-3.1-23.6 10.6-27.1 11.5-42.7 11.5-15.6 0-19-.9-42.2-11.3-7.4-3.4-14.2-6.1-15-6.1-.8 0-2.4 1-3.6 2.3z"/><path d="M24.2 141c-7 4.3-9.3 16.9-4.8 26.6 3.2 6.8 7.6 11.6 17.1 18.7 8.6 6.4 30.7 17.6 44.7 22.7 68 24.5 158.8 33.8 239.8 24.5 66.1-7.7 125.9-26 154.8-47.5 9.2-6.8 13.7-11.7 16.8-18.4 4.5-9.7 2.2-22.2-5-26.8-2.7-1.7-4.3-1.9-12.6-1.4-12.6.8-92.7 11.4-95 12.6-2.4 1.3-3 3.2-3 9.3 0 2.9-.8 6.7-1.8 8.7-4.6 9.3-35.1 20.7-70.3 26.2-12.9 2-18 2.2-48.9 2.2s-36-.2-48.9-2.2c-35.2-5.5-65.7-16.9-70.3-26.2-1.1-2.1-1.8-5.8-1.8-9.3 0-6.9-1.9-9.3-8.2-10.2-17.9-2.4-66.7-8.8-77.3-10-17.3-2-21.3-1.9-25.3.5z"/><path d="M155.6 153.2c-3 7 .9 10.8 15.7 15.7 28.7 9.4 54.2 12.7 92.7 11.8 31.9-.7 51.4-3.6 74.6-11.1 14.2-4.6 17.8-6.9 18.2-11.8.4-5.2-1.2-7.8-4.8-7.8-1.6 0-9.2 1.8-16.8 3.9-34.3 9.7-52.1 12.5-79.2 12.5s-44.9-2.8-79.2-12.5c-17.3-4.9-19.5-5-21.2-.7zm-15.8 116.9c-2.3 1.3-2.4 10.7-.3 22.4 1.1 6.5 1.9 8.4 4.1 10.4 2.5 2.1 3.4 2.3 9.1 1.7 12.5-1.3 36.5-8.5 41.5-12.5 3.5-2.9 1.7-4.7-6.3-6-9.7-1.6-19.2-4.9-33.6-11.6-13.4-6.2-12.2-5.8-14.5-4.4zm221.1 3c-13.3 6.5-24.8 10.7-35 12.7-10.8 2.1-12.2 3.6-6.4 7.2 7.2 4.5 34.4 12 43.4 12 5.3 0 8-3.5 9.6-12.5.8-4.4 1.4-11 1.5-14.7 0-5.7-.3-6.9-1.9-7.8-2.5-1.3-1.5-1.6-11.2 3.1zm-95.2 15.3c-.9 2.2 1.1 8.5 4.6 14.6 1.7 3 8.4 11 15 17.7 7.4 7.6 11.6 12.6 11.2 13.3-1.1 1.8-9 .7-16.3-2.2-15.9-6.5-27.7-16.8-35.3-30.8-6-11.2-6.9-11.3-21.4-3-13.3 7.7-26.8 13.7-41 18.3-10.7 3.4-26.8 6.7-32.9 6.7-5.7 0-10.6 1.9-10.6 4.1 0 2.9 1.3 5.1 9.6 16 14.1 18.6 43.3 37.7 71 46.3 21.5 6.7 24.5 8.4 18.7 10.7-4.1 1.6-26.5 2.3-35.8 1.1-8.4-1.1-11.5-.4-11.5 2.5 0 .9 2.5 7.1 5.6 13.7 3.1 6.7 9.9 22.4 15.1 35.1 12.6 30.6 15.6 36.9 18.4 38.8 2 1.5 5.6 1.7 25.7 1.7 14.1 0 24.1-.4 25.3-1 2.8-1.6 5.3-7.1 11.9-26.7 5.9-17.3 7-22.6 5-23.8-.6-.4-5.7 1-11.4 2.9-10.6 3.7-14 4.2-16.6 2.6-2-1.2.2-3.5 9.9-10.1 21.4-14.7 44.9-38.5 60.2-61 5.6-8.3 14.8-21.3 20.5-28.9 11.4-15.4 12.4-17 12.4-19.9 0-2.2-4.9-4.1-10.6-4.1-6.8 0-22.7-3.4-35.2-7.6-15.4-5.1-31.3-12.6-46.2-21.9-10.4-6.5-14.3-7.8-15.3-5.1zM468 299.7c-16.4 2.5-49.4 11-56.7 14.4-6.1 2.9-18.3 18.5-18.3 23.3 0 .9-1.7 2.7-3.8 4-6.1 3.8-11.8 12.2-10.7 15.6.4 1.1 4.4 5.2 9 9.1 9.1 7.6 13.7 13.5 11.5 14.9-1.5 1-4.9.1-18.6-4.5-7.8-2.7-11.9-3.6-13.8-3.1-3.3.8-7.7 5.4-10.8 11.3-3.9 7.2-1 9.4 19.2 14.7 13.2 3.5 74.7 15.6 78.9 15.6 2.5 0 3.6-2 2.7-5.3-.7-3-15.2-20.9-26.7-33.1-5.1-5.4-15-14.7-22-20.8-12-10.2-14.8-13.5-13.5-15.7.3-.4 3.4-1.4 6.8-2 10.5-2.1 33.1-7.9 43-11.2 19.2-6.3 42.8-19.8 42.8-24.4 0-.8-.9-1.9-1.9-2.5-1.9-1-11.8-1.2-17.1-.3z"/></g></svg>