<svg version="1.0" xmlns="http://www.w3.org/2000/svg" width="682.667" height="682.667" viewBox="0 0 512 512"><g fill="#f2f2f2"><path d="M194.7 83.9c-2.8 3.4-8.1 19.3-9.8 29.5-.6 3.8-.9 11-.6 16 1 19 8.1 29.1 28.7 40.9 7.4 4.3 8.4 7.3 4.2 12.1-5.4 6.2-5.2 13.9.8 27.3 6 13.2 19.1 28.3 24.6 28.3.4 0 3.3-2.7 6.5-6 3.1-3.3 6.3-6 6.9-6 .6 0 3.8 2.7 7 6.1 4.9 5.1 6.2 6 8.2 5.4 6.1-1.8 19.6-18.9 23.7-30 5.1-13.6 5.1-19.2-.1-25.1-4.5-5.2-3.3-7.6 6.5-13.4 19.3-11.4 26.7-23.4 26.7-43.3 0-18.6-8.7-44.7-14.9-44.7-2.8 0-13.3 7.2-19.4 13.4-11.2 11.1-19.7 27-28.7 53.1-5 14.6-7.7 19.4-9.9 18.1-1.9-1.2-4-6.2-8.7-19.9-8.2-24.1-17.2-40.4-28.1-51.3-6.1-6.2-16.6-13.4-19.4-13.4-.9 0-2.8 1.3-4.2 2.9zM236.6 186c8.9 4.9 10.6 6.7 7.9 8.6-2.5 1.9-12.8 1.8-16.5-.1-3.1-1.6-5.5-7.2-4.5-10.5 1-3.1 5.1-2.5 13.1 2zm51.9-2c1 3.3-1.4 8.9-4.5 10.5-3.7 1.9-14 2-16.5.1-2.7-1.9-1-3.7 7.9-8.6 8-4.5 12.1-5.1 13.1-2zM95.9 108.7c-1.9 2.2-2.4 17.4-.9 24.6.6 3 2.9 9.2 5.1 13.7 2.1 4.5 3.9 9.1 3.9 10.3 0 1.2-2.3 6-5.1 10.7C73 210.8 50 268.3 33.1 332c-6.8 25.8-13.9 62-15.7 80.1-.7 7.3.5 11.2 3.2 10.2 1.8-.7 15-19.1 16.9-23.6.7-1.7 1.8-9.1 2.5-16.2 3.9-44.4 18.7-97.5 42-151 7.1-16.3 25.5-52.5 33.6-66.2 9.3-15.6 8.4-15.4 27.5-5.5 34 17.6 47.7 20.1 35.3 6.2-3.1-3.3-7.1-6.3-11.8-8.7-9.5-4.7-21.4-12.6-30.6-20.2-4.3-3.5-9.9-7-13-8.2-8.5-3.1-12.5-6.3-18.5-14.4-3.1-4.1-6-7.5-6.4-7.5-.5 0-1.5.7-2.2 1.7zm311.7 5.7c-6.1 8.2-10.1 11.4-18.6 14.5-3.1 1.2-8.7 4.7-13 8.2-9.2 7.6-21.1 15.5-30.6 20.2-4.7 2.4-8.7 5.4-11.8 8.7-12.4 13.9 1.3 11.4 35.3-6.2 14-7.3 15.5-7.9 18.1-6.8 3.5 1.5 12.3 16 26.9 45 32.9 65 53.4 130 58.2 185 .6 7.9 1.8 14.8 2.7 16.5 2.6 5.3 15.1 22.2 16.7 22.9 1 .4 1.9-.2 2.6-1.8 3-6.5-6.9-59.3-19.1-102.4-17-60.1-37.6-110.1-61.9-150.2-2.8-4.7-5.1-9.5-5.1-10.8 0-1.2 1.6-5.4 3.5-9.2 4.7-9.4 6.5-16.7 6.5-27 0-8.3-1.3-12.9-3.7-13.7-.6-.2-3.6 3-6.7 7.1z"/><path d="M157.2 189.2c-1.7 1.7-1.5 4.6.8 11.4 3.4 9.9 8.8 33 11.4 49.1 4.5 27.4 5.9 47.1 5.2 74.3-.3 13.5-.9 26.1-1.2 28.2-.8 4.7 1.5 7 9.1 9.3 8 2.3 10.5 4.1 10.5 7.6 0 2.3-1.3 3.9-6.9 8.4-9.1 7.4-10 9.5-5.1 12 3.6 1.9 3.8 4.2 1.4 15.6-1 4.2-1.4 8.4-1.1 9.3 1 2.7 5.5 1.8 12.7-2.4 7.6-4.4 11.8-5 14.5-2 1 1.1 2.4 2 3.2 2 1.9 0 8.5-14.4 9.1-19.8.4-3.6-.3-5.9-4.6-15-17.2-36.4-21.8-88.5-12-138.3l2-10.6-2.7-6.4c-1.4-3.5-3.8-9.3-5.1-12.9-1.4-3.6-3.3-7.3-4.3-8.4-1.5-1.4-32.4-12.6-35.1-12.6-.3 0-1.1.5-1.8 1.2zm178.4 4.3c-8.7 2.9-16.6 6.1-17.6 7.1-1 1.1-3 4.8-4.4 8.4-1.3 3.6-3.7 9.4-5.1 12.9l-2.7 6.4 2 10.6c3.2 16.2 4.2 25.2 4.9 42.1 1.3 35.7-4.8 70.6-16.9 96.2-4.3 9.1-5 11.4-4.6 15 .6 5.4 7.2 19.8 9.1 19.8.8 0 2.2-.9 3.2-2 2.7-2.9 6.9-2.5 13.8 1.6 7.5 4.4 12.4 5.4 13.3 2.9.4-.9 0-5.2-1-9.4-2.4-11.4-2.2-13.7 1.5-15.6 4.6-2.4 3.5-5-5.1-12-11.3-9.3-10.7-12.4 3.3-16.6 9.3-2.8 10-4.1 8.7-15.5-1.5-13.1-1.2-45.8.5-64 2.7-28.4 9.3-62.9 15.5-80.8 2.3-6.8 2.5-9.7.8-11.4-1.7-1.7-1.4-1.7-19.2 4.3zm-204 2.7c-1.7 2.7-3.4 10.5-7.5 35.3-7.3 43.5-9.4 67.6-9 100 .4 21 .6 24.4 2.2 26.8 2 3.1 3.8 3.3 9.8 1.1 2.4-.9 9.1-1.9 14.9-2.3 10.1-.6 10.5-.7 11.8-3.3 3-6.2 4.1-39.8 2.2-64.4-2.9-36.5-12-80.8-19-92.2-2.3-3.8-3.4-4-5.4-1zm243.4 1c-5.8 9.4-13.5 42.9-17.6 76.3-3.2 26.2-2.8 73.2.8 79.9 1.7 3.2 2.7 3.6 11 3.6 4.8 0 10 .7 14 2 8.3 2.6 9.4 2.5 11.5-.7 1.6-2.4 1.8-5.8 2.2-26.8.4-32.4-1.7-56.5-9-100-4.1-24.8-5.8-32.6-7.5-35.3-2-3-3.1-2.8-5.4 1zm-275.8 43c-4.5 5.7-17.7 40.2-25.7 67.3-7.9 26.6-14.2 56.4-13.1 61.1.3 1.2 1.2 2.4 2 2.7.7.3 5.3-1.5 10.2-3.9 4.9-2.4 11.6-4.9 14.9-5.6 10.1-1.9 9.9-1.4 9.1-22.3-.8-21.5.4-43.9 4-74.6 1.5-12.5 2.4-23.4 2.1-24.3-.8-1.9-2.1-2.1-3.5-.4zm310.1.3c-.3 1 .4 10.1 1.6 20.4 4.2 35.9 4.4 39.8 4.4 68.3-.1 32.8-.7 30.8 9.2 32.6 3.3.7 10 3.2 14.9 5.6 4.9 2.4 9.5 4.2 10.2 3.9 2.4-.9 2.6-4.6.9-14.4-5.5-31.7-22.7-87.2-34.2-109.8-3.9-7.7-5.8-9.5-7-6.6zm-188.7 13.4c-2.3 4.3-4 27.5-3.3 44.6 1.8 41 12.3 75.2 27.3 88.4 10.6 9.3 21.8 5.4 31.5-11 13.9-23.4 21.5-67.9 18-105.7-1.2-13.1-3-19.2-5.6-19.2-.9 0-4.6 1.8-8.2 4-9.2 5.5-15.4 7.5-24.3 7.5s-15.1-2-24.3-7.5c-3.6-2.2-7.3-4-8.1-4-.9 0-2.2 1.3-3 2.9zM243 412.4c0 1.2 2.1 5.4 4.8 9.2 4.3 6.3 5 6.9 8.2 6.9 3.2 0 3.9-.6 8.2-6.9 2.7-3.8 4.8-8 4.8-9.2 0-2.3-.2-2.3-13-2.3s-13 0-13 2.3z"/></g></svg>