<svg version="1.0" xmlns="http://www.w3.org/2000/svg" width="682.667" height="682.667" viewBox="0 0 512 512"><g fill="#f2f2f2"><path d="M98.6 66.5c-17.1 4.4-31.9 16-38.9 30.5-4.5 9.4-8.5 25.6-9.4 37.5-.5 7.3-.2 10.6 1.6 17.4 2.9 11.7 11.1 28.2 21.6 43.6 8.5 12.3 8.9 13.3 8.8 18-.1 2.7-.4 15.6-.8 28.5-.9 29.8 0 38.2 5.5 49.8 5.2 10.9 13.5 23.3 32.5 48.2 41.8 55.1 54.9 72.8 65.2 88.1 6.2 9.2 11.9 16.9 12.8 17.3 3 1.1 8.3.6 9.9-1 2.3-2.3 2-6.5-1.9-24.5-10.7-49.3-18.9-74.9-33.1-103.1-2.4-4.8-4.4-9.7-4.4-10.8 0-3.3 4-3.4 15.1-.1 21.2 6.1 36.4 8.1 61.4 8.1 24.9 0 45.4-2.6 64.8-8.2 10.2-2.9 11-3 14.1-1.6 3.3 1.6 17.6 17.3 31.3 34.3 8 10 10.5 13.3 43.5 57.5 20.8 27.8 35.6 45.8 39.3 47.8 5.1 2.6 9.9-.7 9.7-6.9 0-1.4-4.4-16.1-9.7-32.5-23.8-73.8-28.3-85.8-42.2-113.2-5.4-10.6-9.3-19.6-9.3-21.3 0-7.4 10.8-29.3 20.4-41.3 6.8-8.5 18-18.6 23.5-21.2 3.4-1.6 3.8-1.6 11.5 1 9.4 3.1 15.5 3.3 21.1.7 10.8-4.9 27.5-26.2 27.5-35 0-2.3-.9-3.7-3.6-5.8-8.1-6.2-8.4-6.7-12.3-18-7.1-20.9-14.1-28.9-34.1-39.2-6.6-3.4-12.4-7.1-13-8.1-.5-1-1-4.7-1-8.2 0-6.5-1.8-10.8-4.4-10.8-4.9 0-22.4 18.9-47.2 51.2-22.4 29-35.4 44.1-39.4 45.8-2.5 1-5.1 1.1-12.8.2-43.5-5.2-115.9-5-170.2.4-27.3 2.7-32.7 1.7-45.2-7.6-16.2-12.2-23.9-28.6-20.8-44.3 3.3-17.3 11.8-25.6 27-26.5 10.7-.6 17.7 1.4 47.5 13.2 39.7 15.8 53.3 19.6 70.4 19.6 14.9-.1 24.1-4.7 40.8-20.4 16.2-15.4 32.3-37.7 32.3-44.8 0-8-13-3-42.9 16.1-18 11.6-22.6 13.8-31 15.3-14.1 2.4-27-1.2-59.6-16.9s-42.6-19.1-57-19.8c-6-.3-11 0-14.9 1zM456.8 147c1.6 2.3 2.2 4.6 2 7-.3 3.3-.5 3.5-4.2 3.8-8.4.7-11.6-3.1-8.1-9.8 3-5.9 6.7-6.2 10.3-1zM73.5 317.3c-.8 1.2-3.9 9.5-6.9 18.2-9.8 29-20.5 54.4-35.6 84.4-4.9 10-9 19.2-9 20.6 0 3.7 4 6 8.2 4.6 8.6-2.9 42.8-36 66.6-64.5 15.1-18.1 15.5-19.2 10-27C85.9 324.2 78.7 315 76.4 315c-.7 0-2 1-2.9 2.3z"/><path d="M303 326.1c-4.5 1.2-8.4 2.9-9.8 4.2-1.2 1.3-4.4 8.1-7.1 15.2-8.2 21.9-19.1 45.2-34.6 74-4.8 8.8-8.9 17.7-9.2 19.7-.5 3.3-.2 3.9 1.9 4.9 2 .9 3.2.8 5.9-.6 4.4-2.3 30-28.1 40.8-41 19.4-23.4 41.1-54.7 41.1-59.4 0-3.3-4-9-10.3-14.9-5.4-4.9-7.1-5.1-18.7-2.1z"/></g></svg>