<svg version="1.0" xmlns="http://www.w3.org/2000/svg" width="682.667" height="682.667" viewBox="0 0 512 512"><path d="M405.3 64.7c-2.4.9-1.3 4.2 3.3 9.5 15.1 17.5 23.1 42.8 24.1 75.8.5 17.2-1.2 34.5-3.7 37.5-2.5 3.1-6.4 1.7-14.1-4.8-16.9-14.5-31.8-32.5-44.4-53.5-3.7-6.3-7.4-11.6-8.2-11.9-.8-.3-2.2.2-3.1 1.1-1.4 1.4-1.7 3.7-1.6 13.9.3 52.7 35.6 106.7 76.4 117.2 3.6.9 7.5 2.3 8.7 3.1 3.1 2 4.5 8.3 4.1 18.3-.4 10.5-3.1 16.9-9.1 21.2-6.5 4.7-7 4.5-18.1-8.6-13.7-16-42.2-30.5-77.1-39.1-21.6-5.3-21.5-5.3-22.7-7.9-.9-1.9-.6-4.3 1.2-11.2 2.2-8.5 2.6-9 9.1-15.4 7.5-7.2 8.9-9.8 8.9-16.4 0-5.5-1.4-9.2-4.8-12.9-10.4-11.1-29.8-4.8-31.8 10.4-.4 3.1.1 6.4 1.5 10.8 2.3 7 2.1 8.7-2.1 22.5-2.8 9.2-4.3 10.9-9.9 10.9-2.4-.1-19.4-.2-37.6-.4-38.9-.4-36 .6-39.9-12.8-2.9-10.2-3-14.4-.4-20.1 5.8-12.8-1.6-26.4-15-27.7-13.4-1.3-23.5 12.3-18.6 25.2.9 2.4 3.7 6.2 6.1 8.5 5.5 5.2 6.8 7.6 9.5 17.7 2 7.7 2 8 .2 10.3-1 1.4-3.2 2.8-4.8 3.2-1.6.4-8.5 1.9-15.4 3.4-25.7 5.5-52.6 16.1-69 27.1-8.1 5.4-15.4 12.3-20.8 19.6-4.8 6.5-7.7 7.6-14.4 5.6-8.8-2.6-14.7-11.5-16.4-24.3-.5-4.1-.2-5.4 1.5-7.6 1.7-2.2 3-2.7 9.4-3.2 12.7-1.1 24.8-5.7 37.2-14 8.9-6.1 23.4-20.6 30.5-30.5 11.6-16.3 23-43.4 23-54.7 0-7.9-2.1-7.1-18.2 7.3-11.1 9.9-27.7 21.3-41.3 28.2-14.8 7.5-17.5 6.9-17.5-4.3 0-14.3 6.2-36.6 14.7-52.8 9.3-17.7 19-27.9 33.5-35.2 9.4-4.7 10.4-6.7 5.1-10.3-8-5.4-24.1-5.6-38.6-.6-38.6 13.3-72.8 61.8-75.4 106.9-1.1 18.2 2 30.5 11.1 44.2l5.3 7.9.6 12.4c.9 19.2 5.3 30.5 15.6 40 6.7 6.2 12.5 8.9 23.6 10.7 7.6 1.3 8.1 1.6 23.6 15 11.8 10.1 12 10.6 5.8 19.6C93 367 86.3 387.8 84.4 413.1c-.9 13.3.5 15.9 8.7 15.9 7.7 0 8.8-1.6 10-14 2.3-25.6 8.7-44.7 18.9-56.3 5.2-5.8 7.5-6.5 13.6-3.7 9.5 4.2 10.1 6 5.4 18.8-4 11.1-7 26.2-7.7 39.7-.6 10.6-.5 11.3 1.6 13.4 1.6 1.6 3.3 2.1 7.1 2.1 7 0 8.7-1.9 9.4-10.7 1.9-21.9 7.1-42.3 12-47.2 2.8-2.7 6.7-3.1 11.4-1.2 4.8 2 5.3 4.4 3.7 18-.8 6.6-1.6 17.7-1.7 24.7-.3 12.2-.2 12.6 2.1 14.5 1.6 1.3 3.9 1.9 7.1 1.9 7.6 0 8.5-1.8 9.4-18.7 1.2-24.7 3-32.9 7.3-33.9 1.3-.4 11.1-.1 21.8.6 23.3 1.6 60.4.8 78.8-1.5 17.9-2.3 18.6-1.8 20.7 17.7.5 5.4 1 13.2 1 17.5.1 9.5 1.3 15.3 3.6 17 2.9 2.1 11.1 1.6 13.4-.7 1.7-1.7 2-3.3 2-11.3 0-5-.5-13.5-1-18.7-.6-5.2-1.3-13.4-1.7-18.2l-.6-8.7 3.4-2c4.6-2.8 9-2.7 11.8.3 2.7 2.8 7.5 15 9.6 24.2.9 3.6 2.2 12.5 3 19.7 1.6 15.3 2.4 16.7 10.5 16.7 4.9 0 7.1-1.5 8.4-5.6.9-3-1.1-23.1-3.3-33.4-1.7-7.5-3.2-12.4-8.7-27.3-1-2.7-1.1-4.3-.4-5.7 1.6-3 6.8-6.2 11.1-6.7 3.9-.6 4.3-.3 9.8 5.4 11.3 11.6 19 32.1 21.2 56.7 1.4 14.7 2.5 16.6 10.1 16.6 7.3 0 8.8-2 8.8-11.8 0-9.3-2.3-24.8-5.1-35.2-2.9-10.6-11.8-28.3-18.3-36.4-3.1-3.8-5.6-7.4-5.6-8.2 0-2.8 1.6-4.8 9.6-11.8 6.9-6 9.8-7.8 16.1-10.1 10.5-3.7 15.1-6.5 21.2-13 9.7-10.2 12.7-20.9 11.7-41.3l-.7-13.2 4.3-3.8c8.6-7.4 13-12.9 16.8-20.7 6.6-13.6 7.5-18.4 7.5-40 0-17.2-.3-20-2.7-29.5-11.2-44.6-40.2-80.1-72.1-88.6-5.2-1.4-11.1-1.7-13.4-.7zM272 285.2c23.1 17.6 24.8 18.8 28.2 18.8 3.3 0 3.4-.1 21.1-19.3 13.9-14.9 13.6-14.9 27-3.6 13 10.8 19.7 17.4 19.7 19.4 0 2.2-2.5 1.6-14.7-3.6-5.1-2.1-10.2-3.9-11.5-3.9-1.7 0-5.4 3.3-13.3 11.7-23.6 25.2-23 24.6-26.3 24.6-3.1 0-3.9-.5-33-22.7-8.7-6.6-12-8.6-14.5-8.6-2.8 0-5.1 1.9-20.2 17.5-14.5 14.8-17.5 17.5-20 17.5-2.6 0-5.4-2.4-19.5-17-9.1-9.3-17.7-17.4-19.2-17.9-3-1.1-3.1-1.1-12.5 2.5-6.6 2.6-9.3 3-9.3 1.4 0-1.7 6-7.9 15.2-15.5 12.6-10.6 11.9-10.8 28.8 6 11.2 11.1 14.2 13.5 16.6 13.5 2.4 0 5.4-2.7 18.9-16.5 14.2-14.7 16.4-16.5 19.2-16.5 2.6 0 6.5 2.5 19.3 12.2z" fill="#f2f2f2"/></svg>