<svg xmlns="http://www.w3.org/2000/svg" viewBox="0 0 512 512" height="682.667" width="682.667" version="1.0"><path d="M165.457 49.682c-4.702 1.815-8.497 5.61-8.497 8.497 0 .99 2.392 8.992 5.362 17.819 12.87 38.277 25.986 81.505 25.986 85.547 0 2.722-2.392 5.445-6.105 6.847-4.62 1.732-6.187.247-20.046-19.304-35.143-49.744-44.96-63.19-47.352-65.17-1.402-1.155-3.547-2.145-4.784-2.145-3.465 0-10.477 3.877-13.695 7.672-3.794 4.372-4.454 7.92-2.144 11.796.99 1.568 13.199 18.974 27.223 38.525 28.378 39.763 28.955 40.588 28.955 43.393 0 2.887-6.517 9.156-9.651 9.156-1.733 0-11.385-5.774-35.803-21.53-46.28-29.946-44.382-28.791-47.847-28.791-2.475 0-3.547.577-5.692 3.052-6.352 7.177-8.58 17.736-4.702 22.026 3.382 3.795 73.585 49.002 88.929 57.334 11.962 6.434 14.189 8.58 14.189 13.529-.083 4.207-1.98 8.332-4.62 9.982-.99.66-7.59 2.722-14.601 4.537-29.286 7.507-42.32 14.107-46.692 23.511-2.31 4.867-2.558 10.807-.66 13.53.907 1.32 2.062 1.814 4.29 1.814 3.712 0 68.388-14.437 100.396-22.356 30.11-7.507 34.812-9.982 46.444-24.583 3.052-3.795 5.445-4.29 10.477-2.228 3.712 1.568 4.785 3.712 3.547 7.26-3.217 9.404-12.54 18.396-26.81 25.738-6.188 3.217-7.178 4.372-6.188 7.012.33.825 4.95 6.517 10.395 12.54 21.778 24.583 38.112 48.011 50.404 72.595 4.455 8.827 7.424 10.889 10.724 7.59 1.98-1.98 1.238-7.013-3.3-22.522-5.857-19.551-6.847-26.728-4.042-27.8 3.135-1.156 5.115 1.237 11.714 14.766 7.425 15.179 13.034 23.428 16.334 24.253 3.218.825 4.208-1.072 4.867-8.992.66-8.414 1.733-11.879 3.795-12.539 4.042-1.32 6.352 1.733 8.58 11.632 1.732 7.425 3.052 9.404 6.27 9.404 2.722 0 11.961-3.382 16.25-5.94 7.508-4.536 19.387-34.152 22.852-57.25 1.732-11.797 1.65-18.562-.413-21.202-.907-1.155-8.25-5.857-16.251-10.476-47.93-27.636-73.585-48.012-83.155-66.079-5.032-9.652-5.114-10.642-7.424-76.225-1.073-33.163-2.228-61.788-2.475-63.686-.66-4.372-3.547-7.342-8.91-8.91-7.754-2.309-16.004-1.154-18.478 2.558-1.238 1.898-1.238 5.527-.248 45.785 1.155 48.92 1.32 46.857-4.702 48.507-7.837 2.227-10.23.495-13.53-9.487-6.929-20.541-29.615-86.042-30.522-88.022-.578-1.32-2.063-2.887-3.3-3.547-3.217-1.65-10.312-1.403-15.344.577zm199.967 312.325c-.99 1.155-3.795 4.207-6.105 6.682-2.722 2.805-4.372 5.28-4.372 6.435 0 1.072 2.475 5.527 5.527 9.981 14.52 21.284 18.067 26.894 22.109 34.978 2.557 5.115 5.527 9.652 7.012 10.972 5.28 4.455 11.88 1.65 14.437-6.105 1.814-5.61 2.64-6.104 9.074-5.362 6.847.66 10.147-.412 13.942-4.62 2.887-3.134 3.382-4.62 2.97-8.909-.413-5.032-5.61-8.827-16.005-11.632-8.002-2.144-9.651-3.3-25.408-18.23-18.809-17.902-19.716-18.48-23.181-14.19z" fill="#f2f2f2"/></svg>