<svg xmlns="http://www.w3.org/2000/svg" viewBox="0 0 512 512" height="682.667" width="682.667" version="1.0"><g fill="#f2f2f2"><path d="M30.881-1.464C25.561.622 29.525 5.629 45.38 17.103c12.1 8.762 23.052 14.394 31.084 16.272 5.841 1.252 32.023 3.755 40.055 3.755 3.546 0 4.276-3.234 2.19-9.91-.939-2.92-2.086-9.909-2.608-15.646-.834-8.657-1.356-10.743-3.233-12.308-1.982-1.565-5.529-1.773-40.994-1.67-21.279 0-39.741.418-40.993.94zm108.481 0c-3.65 1.46-4.694 4.798-4.276 12.934.417 9.18 4.38 17.941 12.308 27.746 3.025 3.755 7.614 10.014 10.222 14.082 7.093 10.952 22.114 25.347 30.771 29.52 8.136 3.963 18.463 6.466 27.12 6.466 5.007 0 6.468.418 8.554 2.608 3.025 2.92 3.65 10.222 1.252 13.456-3.234 4.38-22.844 2.92-38.282-2.92-8.24-3.026-12.204-5.425-25.451-14.813-4.59-3.233-5.32-3.442-7.302-2.19-3.233 1.982-7.197 10.952-11.474 25.243-1.982 6.884-6.05 18.775-8.866 26.494-6.78 17.628-8.449 24.304-8.449 32.649 0 11.891 5.32 24.825 15.855 38.803 6.676 8.866 10.118 11.578 13.352 10.535 1.251-.417 5.32-3.442 9.074-6.884 7.302-6.676 20.028-13.56 29.52-16.064 14.707-3.964 29.728-2.92 43.184 3.025 8.449 3.755 17.002 5.111 31.918 5.111 14.603-.104 22.74-1.565 39.638-7.197 11.995-3.964 21.174-8.658 29.623-15.02 6.78-5.112 10.118-5.32 14.29-.94 4.486 4.799 4.799 7.51 1.46 12.413-3.441 4.903-3.233 8.762.94 18.359 1.46 3.442 3.233 9.805 3.86 14.081 2.711 17.733 4.171 19.193 16.271 16.272 11.891-2.92 16.168-7.51 16.794-17.836.73-11.683-2.92-19.923-21.8-48.713-19.09-29.206-24.305-41.306-24.305-57.265-.104-14.29 1.67-17.941 15.543-32.336 12.62-13.143 13.977-15.646 12.1-22.635-1.565-5.424-4.382-8.866-7.51-8.97-1.357 0-6.677 1.251-11.892 2.816-17.524 5.424-39.012 3.755-64.88-4.798-6.989-2.295-17.628-6.572-23.47-9.597-10.118-5.007-10.744-5.528-11.056-8.762-.418-4.172 3.755-10.326 7.614-11.265 1.67-.417 5.633.834 12.204 3.755 12.83 5.841 31.814 11.996 41.62 13.56 4.38.73 13.038 1.148 19.297.835 9.492-.313 12.308-.835 17.21-3.13 12.413-5.737 19.506-15.854 18.359-26.494-.73-6.78-3.234-11.683-6.572-12.934-3.337-1.356-221.134-1.252-224.368 0zm162.513 122.458c13.456 3.442 27.746 8.762 30.876 11.579 2.295 1.877 2.607 2.816 1.982 5.945-1.043 5.424-4.277 9.18-8.136 9.18-1.67 0-7.093-1.357-11.996-3.13-13.039-4.59-24.408-7.302-30.98-7.302-10.013 0-25.868 3.964-46.417 11.683-6.885 2.608-11.787 3.86-13.352 3.442-3.129-.73-6.571-6.258-6.571-10.535 0-5.424 3.233-7.197 26.181-15.02 25.869-8.762 40.994-10.327 58.413-5.842zM391.79-.943c-1.982 1.356-2.191 2.817-2.608 13.247-.417 8.45-1.148 13.77-2.817 18.567-1.46 4.173-2.086 8.137-1.773 10.223.73 5.11 4.694 12.621 7.406 14.394 3.13 1.982 4.694 1.252 14.603-7.093 8.45-7.197 22.948-17.21 29.728-20.653 5.633-2.92 16.064-3.755 26.808-2.295 13.038 1.878 19.297-1.356 23.156-11.682 3.443-9.284 3.651-11.683 1.252-14.082-2.19-2.19-3.13-2.19-47.878-2.19-38.594 0-46 .208-47.877 1.564zM110.677 207.362c-2.086 3.964-2.399 27.85-.417 41.515 2.92 19.401 9.492 42.975 16.272 58.1 2.295 5.111 3.547 6.571 5.216 6.571 3.129 0 4.38-3.755 8.762-25.66 2.086-10.326 5.006-22.53 6.362-27.12 4.173-13.351 4.173-13.456-7.614-25.764-5.633-5.841-12.517-13.978-15.334-17.941-6.362-9.18-8.866-11.996-10.535-11.996-.73 0-1.982 1.043-2.712 2.295z"/><path d="M314.914 214.56c-6.363 2.294-12.1 4.693-12.83 5.319-2.295 1.878-1.565 6.467 2.399 15.542 7.197 17.002 12.413 38.49 15.02 61.96 1.46 12.934 2.4 16.167 4.59 16.167s3.964-3.755 7.823-16.167c9.597-31.293 11.683-62.586 5.111-77.92-2.294-5.319-6.154-9.178-9.074-9.074-.94 0-6.78 1.878-13.04 4.172zm-113.801-1.044c-13.456 2.712-28.58 13.456-30.875 22.114-2.504 9.387 2.399 38.594 9.492 56.64 6.05 15.333 23.782 47.147 30.875 55.7 1.46 1.67 3.65 3.13 4.798 3.13 2.086 0 2.19-.313 1.252-14.917-.522-8.136-.939-27.537-.834-42.975 0-30.145 1.251-41.202 7.093-63.524 2.712-10.43 2.503-12.517-1.044-14.916-3.129-1.982-13.768-2.608-20.757-1.252zm45.166 10.327c-3.547 2.19-9.701 24.617-8.97 32.857.416 5.32 3.128 6.78 12.83 6.78 9.908 0 33.482-2.816 36.924-4.485 4.903-2.295 4.173-8.24-3.337-23.47-2.295-4.798-5.216-9.387-6.468-10.222-2.92-1.982-28.372-3.13-30.98-1.46zm153.855 27.016c-6.884 5.007-12.621 7.51-22.948 10.013-5.424 1.356-10.535 3.025-11.37 3.756-1.877 1.564-1.773 2.503 2.087 17.106 2.19 8.24 2.92 13.665 3.338 25.556.313 8.345.73 16.585 1.043 18.463 1.147 7.614 6.571 4.068 16.585-11.057 13.247-19.819 20.34-39.116 20.34-55.18 0-7.927-1.147-11.682-3.546-11.682-.73 0-3.234 1.356-5.529 3.025zM267.35 281.943c-3.13 1.147-5.216 3.86-5.216 6.676 0 1.669 1.877 14.186 4.068 27.746 2.294 13.664 4.694 29.52 5.424 35.256 1.982 15.646 1.669 41.828-.417 53.72-2.713 14.394-10.118 42.557-16.899 64.045-4.798 15.125-5.632 19.193-4.798 21.174 2.086 4.59 12.413 4.486 16.481-.208 3.755-4.277 16.69-47.148 21.696-71.973 3.547-17.524 4.381-29.728 3.547-49.338-.939-19.506-3.025-38.595-6.78-61.23-3.338-20.027-4.173-23.052-6.989-25.034-2.19-1.564-7.093-1.982-10.118-.834zM163.666 369.77c-2.608 2.817-6.676 16.377-8.658 28.477-1.46 8.45-1.46 11.161-.417 15.855 1.774 7.823 5.737 12.1 11.266 12.1 8.449 0 12.83-6.78 12.83-19.61 0-13.769-7.198-37.76-11.579-38.594-.834-.105-2.399.625-3.442 1.773zm153.125 46.523c-2.503 3.755-6.571 16.167-9.387 28.58-3.443 15.334-3.443 29.833 0 37.238 5.945 12.83 21.07 13.352 28.372.835 5.32-9.075 4.172-24.826-3.338-46.522-7.302-20.862-11.578-26.39-15.647-20.131z"/></g></svg>