<svg xmlns="http://www.w3.org/2000/svg" viewBox="0 0 512 512" height="682.667" width="682.667" version="1.0"><g fill="#f2f2f2"><path d="M196.8 95.6c-.3.9-.2 2.4.4 3.3 2.7 4.5 35.1 24 71.8 43.4 34.7 18.3 33.7 17.6 37.3 25.1 5.9 12.3 16.2 19.6 27.8 19.6 3.5 0 11.8-1.4 20-3.4 27.9-6.9 51.3-16.7 60.1-25.1 8.4-8.1 5.7-8.5-16.4-2.9-27.8 7-41 7.9-43 2.8-1.7-4.4 12.4-10.4 52-22.3 31.8-9.6 35.1-11.9 20.1-14.3-8.5-1.3-45.7-.5-60.4 1.3-10.4 1.2-10.5 1.2-17.2-1.4-8.6-3.5-19.1-3.7-27.6-.6-9.7 3.6-10.7 3.5-23.8-1.9-32.5-13.7-75.7-25.2-94.7-25.2-4.4 0-5.9.4-6.4 1.6z"/><path d="M111 98.1c-17.7 2.7-35.8 12.5-52.3 28.3-13.3 12.7-25.3 29.1-32.2 43.7-5.1 11-3.3 11.8 15.3 7 35.7-9.2 61.4-4.5 80.7 14.9 12.6 12.7 18.3 24.1 28 56.2 13.6 45.2 18.2 57.2 25.9 67.9 5.5 7.7 9 9.2 18.9 8.4 15-1.3 33.6 2.5 49.4 10.1 4 1.8 8.1 3.4 9.1 3.4 5.7 0 19.7-11.8 29.4-24.9 3.1-4.2 7.2-9.7 9.2-12.3 1.9-2.7 3.9-4.8 4.3-4.8 1.4 0 .8 6.6-1.1 12.1-3 8.7-9.4 20.8-16 29.9-3.4 4.7-6 9.2-5.8 10 .3 2.2 6 2.4 12 .4 8-2.6 16.9-7.4 32.2-17.3 16.8-10.9 35.9-20.9 48.7-25.3 8.9-3.1 9.9-3.3 23.3-3.2 12.1.1 15.2.4 22.9 2.8 23.3 7 45.3 22.7 60.5 43.1 2.9 3.8 5.9 7.3 6.6 7.8 5 2.7 7.9-6.7 9.2-29.3 1.5-29.5-6.8-59.3-22.2-78.8-9-11.5-23.1-22.2-29.2-22.2-1.2 0-8.9 2.3-17.3 5-21.8 7.3-41.2 12.6-57.9 15.9-26.9 5.4-51.2 7.6-53.9 4.9-3.1-3.1 0-16.1 8.2-34.5 2-4.5 3.6-9.1 3.6-10.2 0-1.3-1.4-3.1-3.7-4.6-14.2-9.5-17.6-11.5-19.6-11.5-1.5 0-6.5 4.5-17 15.5-20.1 21-30.1 28.4-38.4 28.5-6.7 0-25.6-12.2-36.1-23.4-15-16.1-22.4-34.5-25.6-63.8-1.1-10.5-1.8-13.4-4.1-17.3-4-6.9-15.8-18.9-23.1-23.5-12.1-7.6-28.1-11-41.9-8.9zm84.8 245c-1.9.6-5 3.1-7.8 6.4-5.6 6.5-23.3 22.3-27.8 24.7-4.2 2.4-11.2 2.3-21.5-.2-9.2-2.2-14.2-2.5-14.2-.9 0 2.5 2.4 5 8.5 8.8 8 5.1 8.4 7 1.8 10.7-5.4 3.1-8.3 5.3-8.3 6.5 0 1.8 7.2 3 13.9 2.3 8.4-.8 9.1-.1 7.2 7.8-1.9 8.6.7 9.5 9.8 3.6 4.5-2.9 4.8-3 14-2.4 13.6.9 14.6 2.3 8 10.6-6.9 8.7-3.3 11 8.2 5 8.7-4.5 9.6-4.2 10.7 3.7 1.9 13.2 11 3.6 14.2-15 1.4-7.7 2.7-9.9 10.5-16.6 10.9-9.4 27.5-30.6 27.5-35 0-3.8-6.2-9.1-10.8-9.1-2.1 0-5.7 3.7-14.2 15-13.3 17.5-31.6 29.8-47.3 31.6-6.9.8-9.2-.5-8.3-4.9.9-4.5 3.9-7.9 16-18.6 15.9-14 25.2-26.1 23.9-31.2-.9-3.3-7.6-4.6-14-2.8z"/></g></svg>