<svg version="1.0" xmlns="http://www.w3.org/2000/svg" width="682.667" height="682.667" viewBox="0 0 512 512"><path d="M33.6 29.9c-1 1.1-2.9 5.5-4.2 9.8-3 9.5-8.4 35.5-8.4 40.3 0 4.3 2 7.3 5.7 8.8 1.5.7 22.4 6.4 46.3 12.8 23.9 6.3 44.5 12.2 45.7 13 3 1.9 3.8 5.4 2.3 9.9-1.6 4.8-3.5 6.5-7.3 6.5-1.8 0-21.6-5-44.2-11-22.5-6.1-42.4-11-44.2-11-2.4 0-3.7.7-5 2.6-1.5 2.4-1.5 3.9-.5 16.3 1.3 15.4 2.4 19.6 5.6 21.4 1.5.9 13.3 1.3 44.6 1.5 48.9.4 46-.2 46 9.3 0 9.3 2 8.9-43 8.9-28.9 0-39.1.3-41 1.3-3.8 1.9-3.7 6.2.5 18.8 4.1 12.1 7.2 16.9 11.2 16.9 1.5 0 17.1-3.9 34.7-8.6 17.7-4.7 33.5-8.6 35.3-8.7 4.1-.1 6 1.6 7.4 6.6 1.4 5.2.5 8.3-2.9 10.1-1.5.8-15.6 4.9-31.2 9-31.1 8.3-34.5 9.5-35.5 12.5-1.1 3.6 11.4 24.2 16.1 26.3 3.5 1.6 4.8 1.1 32.8-15.1 16.7-9.7 25.3-14.1 27.4-14.1 5.5 0 10.8 8.7 8.2 13.4-.7 1.4-10.6 7.8-25.2 16.2-13.2 7.7-24.7 14.9-25.5 16.1-2.2 3.3-.9 5.8 7 13.5 8.1 7.9 11.8 10.2 15 9.2 1.2-.4 10.8-9.2 21.3-19.5 21.4-21.2 22-21.5 28-15.5 2.5 2.5 3.4 4.3 3.4 6.7 0 2.8-2 5.3-17.4 20.8-9.5 9.7-17.7 18.6-18.1 19.9-1 3.5 1.3 6.2 10.1 11.4 9.8 5.8 12.3 6.5 15.3 4.1 1.2-1 7.3-10.6 13.5-21.3 12.4-21.5 14-23.1 19.8-20.7 5.2 2.3 8.2 6 7.4 9.4-.4 1.5-5.4 10.9-11.2 20.9-10.4 18.1-11.8 21.9-8.9 24.7 1.7 1.7 11.8 5.7 22.3 8.8 9.6 2.8 13.2 5.8 13.2 11 0 3.7-.6 4.4-14.6 17.1-8 7.3-15.6 13.8-16.8 14.5-1.4.8-5.3 1-12.2.6-11.6-.7-15.4.2-23.1 5.3-5.6 3.8-9.8 9.2-11.3 14.4-1.5 5.4.1 5.8 7.7 2.1 6.5-3.1 13.6-4.3 16.2-2.7 2.7 1.7 1.2 5.7-5.6 15-8.3 11.2-10.5 17.6-6 17.6 1.2 0 7.6-3.1 14.2-7 6.6-3.8 13-7 14.2-7 5.3 0 5.4 7.9.2 18.1-1.6 3.3-2.7 6.4-2.4 6.9 1.9 3.1 10.5-1 16.9-8.1 5.9-6.5 9.2-16.2 8.3-24.5-.3-3-.1-6.8.4-8.4 1.2-3.3 20.6-19.6 24.6-20.6 4.1-1.1 10.3 6.7 10.3 12.9 0 1.4-8.8 20.2-19.5 41.7-10.7 21.5-19.5 40.2-19.5 41.5 0 3.6 4.1 6.1 15.9 9.9 22.4 7.3 44.3 10.2 70 9.3 23.2-.7 43.4-4.7 58.3-11.4 6.8-3 8.1-4.4 8-8.2 0-1.5-8.5-19.6-18.7-40.2-20.7-41.3-20.6-41.1-15-48.4 3.5-4.7 5.9-5.9 8.8-4.4 5 2.7 19.7 15.2 20.1 17.2.3 1.2.7 6.3.9 11.2.5 10.8 2.6 16.3 8.8 23 6.1 6.6 14.5 10.5 16.4 7.6.3-.6-.8-3.6-2.6-6.9-5.1-9.8-4.9-18.2.5-18.2 1.2 0 6 2.3 10.6 5.1 15.6 9.4 20 10.9 20 6.9 0-2.9-2.4-7.3-9.1-16.7-5.7-7.9-7.3-12.3-4.8-13.9 2.6-1.6 10-.4 15.8 2.6 3.3 1.6 6.5 3 7.1 3 1.7 0 1.1-6.3-.9-9.6-2.9-4.7-8.7-10-13.9-12.6-4.1-2-6.3-2.3-16.7-2.4-6.6-.1-12.6-.2-13.2-.3-1.7-.1-28-23.8-28.7-25.7-1.7-4.4.9-14.1 4.6-17.2.9-.7 4.4-2.4 7.8-3.7 7.6-3 10-5 10-8.3 0-1.5-4.9-11.1-11-21.7-13.5-23.6-13.8-25.8-4-29.8 6.5-2.7 7.5-1.7 20.2 20.5 12.1 21.1 14.6 24.3 18.7 23.5 3.3-.7 13.6-6.6 18-10.3 5.7-4.7 4.9-6.1-13.4-24.4-18-17.9-21-21.7-20.1-25.4.8-3.3 7.1-8.6 10.3-8.6 2 0 7 4.4 22.9 20.1 23.7 23.4 22.2 22.8 33.1 13.3 11.3-9.9 13.4-14.2 9.1-18.1-1.3-1.1-12-7.6-23.8-14.3-27.1-15.5-28-16.2-28-20.4 0-4.9 3.8-10 7.7-10.4 3.8-.4 4.4-.1 34.3 17.2 12.9 7.5 24.6 13.6 25.9 13.6 3.2 0 8.6-5.8 14.4-15.6 4.9-8.1 5.8-12.3 3.2-14.4-.8-.7-16.2-5.2-34.1-10.1-19.9-5.3-33.4-9.5-34.6-10.6-3-2.7-2.1-10.8 1.7-14 3.3-2.9 0-3.5 40.5 7.4 17.3 4.7 33.2 8.6 35.3 8.6 4.9.2 6.5-1.7 10.7-12.3 6.6-17.2 6.8-22 1.4-24-1.5-.6-19.4-1-42-1h-39.5l-2.6-2.6c-2.2-2.2-2.5-3.2-2.1-7.6.4-3.4 1.2-5.6 2.4-6.5 1.4-1 10.2-1.3 42.3-1.3 40.7-.1 48.1-.5 50.7-3.2 1.8-1.8 3.2-10.1 4-24 .8-12.2-.4-15.8-5.2-15.8-1.4 0-21.9 5.2-45.4 11.5-23.6 6.3-44.5 11.5-46.5 11.5-2.9 0-3.9-.6-5.5-3.3-2-3.2-2.6-9.2-1.2-11.3 1.4-2.2 5.7-3.5 50.3-15.5 25-6.7 46.6-12.8 48.1-13.5 1.6-.8 3.1-2.6 3.5-4.2.8-3.5-1-15.8-4.6-30.7-5.1-20.7-7.7-25.8-12.3-24-.8.3-4.3 4-7.8 8.2-25 29.7-69.2 54.2-122 67.8-13.5 3.4-18 5.4-18 7.8 0 .5 2.5 5.8 5.5 11.7 7.5 14.8 9.6 22.6 10.2 38.6.8 20.5-3.3 36.6-13.5 52.4-9.4 14.5-19.7 24-26.1 24-6.9 0-32-19.1-39-29.7-5.1-7.6-3.8-11.9 4.2-13.8 3.4-.9 6.7-4.9 6.7-8.2 0-1.5 1.2-3.6 2.9-5.2 5.8-5.4 18.1-7.3 31.3-4.6 11.3 2.2 13.3 1.9 13.2-2-.2-3.7-9.8-25.2-12.6-28.3-2.7-2.8-6.9-2.9-19.1-.1-16.5 3.7-18.5 3.9-21.2 2.7-1.3-.6-2.7-1.9-3-2.8-1.1-3.4-4.5-6-8.1-6-1.9 0-17.9 3.1-35.6 7-32.1 6.9-35.8 8.2-35.8 12.1 0 .9 3.4 6.8 7.6 13 7.4 11.1 7.6 11.4 7 16.4-1.8 16.5-1.8 25.2-.1 33 1 4.4 2 9.7 2.2 11.7.5 3.5.3 3.8-2 3.8-3.6 0-11.1-6.2-18.1-15.1-13-16.4-19.6-35.4-19.6-56.4 0-16.1 3.5-29.3 11.6-44.3 6.6-12.2 5.9-13.3-9.1-16.7-50.4-11.3-99.9-38.1-125.4-67.9-8.9-10.3-10.4-11.1-13.5-7.7zm225.5 129c8 8.1-1.3 21.4-11.6 16.5-1.9-.9-4-3-4.9-4.9-4.9-10.3 8.4-19.6 16.5-11.6z" fill="#f2f2f2"/></svg>