<svg version="1.0" xmlns="http://www.w3.org/2000/svg" width="682.667" height="682.667" viewBox="0 0 512 512"><g fill="#f2f2f2"><path d="M154.2 24.1c-5.4 2.7-9.7 7.9-12.3 14.9-1.7 4.5-2 7.2-1.7 15 .3 8.7.7 10.2 4.5 18 2.4 4.9 6.4 11 9.5 14.4 2.9 3.2 7.1 9.3 9.3 13.5 4.7 8.9 9 12.1 16.6 12.1 8.5 0 12.2-5.9 10.1-16-1.6-7.3-1.5-10.5.2-18.2 4.5-19.6 2.1-35.4-6.9-46.4-7.2-8.7-19.9-11.9-29.3-7.3zm258.5 8.2c-6.3 2-10.3 6.1-14.8 15.2-3.6 7.2-4.2 9.4-4.3 15.1-.1 6.2.1 6.7 3.2 9.5 1.8 1.7 4.4 2.9 5.9 2.9 9.2 0 25.7-16.8 28.4-29 1.1-4.8-.7-10.1-4.3-12.4-3.3-2.1-9.7-2.7-14.1-1.3zm-44.8 71.5c-1.4.9-12.5 11.2-24.5 22.9-25.1 24.3-34.6 32.5-49.3 42.4-17.9 12.1-33.5 18.8-53.4 23.1-8 1.6-13.7 2.1-26.2 2.2-22.2 0-39.5-3.1-64.6-11.5-6.4-2.1-12.6-3.9-13.7-3.9-3.6 0-4.4 3.1-2.8 10.7 3.5 17.1 2.8 28.2-2.5 39-6.1 12.6-24 23.5-34.2 20.9-3.5-.8-16.6-13.4-25.7-24.6-10.6-13-12.5-14.7-14.6-12.9-1.5 1.2-1.6 2.8-1 12.3 3.6 60 22 105.3 55.6 136.9 27.4 25.8 63.8 41.5 112 48.2 15.7 2.2 56.5 3.1 70 1.6 37-4.2 72.1-16.8 102.5-36.8 39.6-26.1 70.2-63.8 86.9-107 5.8-14.9 4.8-16.9-7.7-15.7-6.1.5-7.6.4-9-1.1-.9-.9-1.7-2.3-1.7-3.2 0-.8 5.2-11.6 11.6-23.9 11.5-22.2 12.9-26.5 9.2-27.2-1-.2-7.9 2.4-15.3 5.7-7.4 3.4-14.4 6.1-15.5 6.1-1.2 0-2.5-1-3.2-2.4-1.5-3.4 1.6-16.5 9.9-42 3.5-10.9 6.3-20.8 6.1-22-.8-5.9-5-3.1-48.8 32.4-30.8 24.9-44.8 35.6-47.7 36.5-11.1 3.2-11.4-37.5-.7-85.8 4.6-20.6 4.2-24.9-1.7-20.9zm62.7 95.4c-2.5 30.3-1.7 41.9 3.8 52.6 3.3 6.2 5.9 9.1 12.9 14.1 6.2 4.5 7.2 7.1 3.5 9.5-6.2 3.9-21 5-29.5 2.2-6.7-2.2-12.6-7.5-15.9-14.1-2.1-4.5-2.8-7.5-3.3-15.8-.8-14.1-1.9-14.2-13.7-.5-41.3 47.7-81.9 72.8-117.9 72.8-24.6 0-44-13.2-58.8-40.1-2-3.7-4.3-6.9-5.1-7.2-1.6-.6-5.6 3.6-5.6 5.8 0 .6-2 5.2-4.4 10.1-4.9 10.1-12.7 19.3-20.6 24.4-12.2 7.9-29.5 9.6-44.5 4.6-18.7-6.4-34.7-20-43.9-37.6-6.7-12.7-4.5-14.5 9.3-7.2 29.3 15.4 56.2 14.8 78.3-1.8 8.3-6.2 16.1-16.6 22.4-29.7 4.1-8.7 5.8-11.3 7.3-11.3 1.2 0 4 2.4 6.8 5.7 22.6 26.8 39.9 36.3 66.4 36.3 18.5 0 32.7-3.8 54.4-14.5 22-10.8 40.7-23.5 75.7-51.3 12.4-9.8 18.7-14.2 20.5-14.2h2.5l-.6 7.2zM25.9 143.3c-5.1 3.5-7.9 9.1-7.9 16.2.1 16 13.6 26.1 23.4 17.4 5.6-4.9 7.1-13.6 4-23.9-2.2-7.4-6.8-12-12.2-12-2.4 0-5.2.9-7.3 2.3z"/><path d="M441.6 371.9c-.4.6.4 4 1.8 7.5 4.5 11.2 2.9 18.8-5.6 27.5-32.5 33.2-148 50.7-250.8 38-53.9-6.7-94.7-20.5-111.7-37.9-8.3-8.5-10-16.4-6-27.2 1.4-3.6 2.3-6.9 2-7.2-3.7-3.7-28.3 8.8-40.3 20.4-9.2 8.9-11.5 13.4-11.5 23 0 5.7.5 8.4 2.2 11.6 20.1 37.9 127.1 64.6 249.3 62.1 75.9-1.6 141.7-13.3 182.7-32.7 19.1-9 32.9-20.3 37.5-30.7 4.7-10.6 1.5-22.7-8.5-32.8-11.4-11.3-38.6-25.7-41.1-21.6z"/></g></svg>