<svg version="1.0" xmlns="http://www.w3.org/2000/svg" width="682.667" height="682.667" viewBox="0 0 512 512"><g fill="#f2f2f2"><path d="M348.1 19.6c-1.2.9-3.6 4.5-5.4 8.1-2.9 6.1-3.5 6.7-9.1 9.3-7.6 3.4-10 6-10 10.7 0 2.9.7 4.2 4.1 7.2 2.3 2 4.3 4.3 4.6 5.1.8 2.7-2 7.7-11 19.7-12.8 17-15.3 20.7-20.3 30.8-5.7 11.3-6.8 11.9-17.6 10.4-4.4-.7-14.7-1.2-23-1.3-17.8-.1-16.6-.7-25.1 12.3-9.9 15.2-22.2 26.2-35.7 31.9-5.3 2.3-7.6 2.6-17.1 2.7-10.2 0-11.4-.2-16.8-2.9-7.4-3.8-14.6-11.4-19.1-20.4-4.8-9.5-7-10.9-14.5-9.4-15.9 3.3-34.2 16.8-68.9 50.9-15.3 15-16.3 17.3-16.9 37.8-.4 11.9 0 17.1 2.7 35 2.7 18.7 3 22.4 2.4 34.2l-.7 13.1 3 6.4c3.4 7.2 8.9 13.3 13.9 15.4 9.2 3.9 20.6.4 29.2-9 9-9.9 8.5-12.6-3.8-23.1-12.3-10.5-14-12.9-15.3-22-1.2-8.4.4-42 2.4-48.8.9-3.4 1.7-4.2 6.7-6.4 3.1-1.3 7.9-3.4 10.7-4.6 2.7-1.2 8.9-5 13.7-8.5 10.2-7.3 13.2-7.9 15.2-3 .8 1.8 3.5 13.6 6.1 26.2 5.8 28.5 11.1 49.6 17 67.5 2.5 7.5 4.5 15.4 4.5 17.4 0 1.9-2 15.4-4.5 29.9-8.4 49.2-10.3 65.4-11.3 95.8-.9 24-.2 22.9-14.4 25.4-5.1.9-13.3 2.4-18.1 3.2-10.9 2-14.1 4.3-15.6 11.3-1.2 5.7-.1 10.9 3 13.7 2 1.8 4.4 1.9 37.8 2.2 34.2.3 35.9.2 38.2-1.7 2.3-1.8 2.4-2.5 3-19.8.6-15.2 1.2-19.5 3.7-29.5 4.1-15.8 12.1-35.7 25.3-62.6l10.9-22.3 11.2-11.2c7.4-7.4 18.4-16.6 31.8-26.7 15-11.2 24.1-19 33.7-28.7 9.3-9.3 14-13.3 15.6-13.3 2.9 0 5.3 1.7 14.9 10.2 13.6 12.2 27.4 30.1 35.3 45.8 4.9 9.8 7.2 13 9.5 13 1 0 4-2.4 6.6-5.3 15.3-16.6 26.4-26.5 39.1-34.9 7.3-4.8 13.7-9.7 14.4-10.9 3.8-7.1-4.9-20.9-13.2-20.9-4.2 0-16.6 4.7-24.8 9.3-9.9 5.8-11.6 6.2-14.6 4.3-1.4-.9-6-6.9-10.4-13.4-4.3-6.5-10.7-15.3-14.1-19.6-9.8-12.1-24.2-22.8-32.6-24.1-8.2-1.4-37.2 10.5-58.4 23.9-5.8 3.6-11.5 6.6-12.6 6.6-3.2 0-3.5-2.9-1.4-16 2.2-13.3 5.5-40.3 6.5-52.7.9-10.6 2.2-12.3 12.8-16.3 9-3.5 48.2-22.1 53.7-25.6 4.4-2.8 16.6-15.4 20.9-21.7 5.4-7.9 8.9-16.8 14.1-35.9 2.8-9.9 5.8-19.4 6.8-21 .9-1.6 3.8-4.5 6.3-6.3 3.8-2.7 5.5-5 9.2-12.6 4.7-9.7 8.7-21.4 8.7-25.4 0-3.9-3.5-7.1-9.8-8.9-7.7-2.1-20-2.1-23.1 0z"/><path d="M198.9 52.9c-6.8 2.6-12.9 7.2-19.7 14.6-19.3 21.1-25.7 56.1-13.2 73.3 13.2 18.2 43.4 4.6 58.4-26.3 5.7-11.9 7-17.6 7.1-31.5 0-11-.3-13.1-2.3-17.5-5.9-12.8-17.5-17.6-30.3-12.6zm242.6 288.3c-3.3 2.3-6 5.4-8.6 9.8-2.1 3.6-4.6 7.6-5.7 9l-1.9 2.4-1.7-3.2c-2.5-4.9-5.8-6.6-11.1-5.7-4.8.7-6.8 2.6-8 7.8-.7 2.8-3.7 4.9-8.7 6.1-1.5.3-3.5 1.7-4.3 3-1.4 2.1-1.4 3.2.4 12.2 3.8 19.7 8.9 27.7 19.8 31.1 7.2 2.3 8.1 4.2 5.8 11.4-2.2 6.4-14.8 31.2-23.4 45.9-3.3 5.8-6.1 11.3-6.1 12.3 0 4.6 5.1 8.7 11 8.7 3.3 0 4-.9 15.7-20.4 5.4-8.9 7.4-10.7 10-9 1 .6 4.6 6.4 8 12.9 3.4 6.5 7.2 12.8 8.4 14.1 2.8 3 6.6 3.1 11 .1 5.4-3.6 5-6.2-2.9-21.7-8.2-16.2-10.6-23.3-9.9-29.8.2-2.6 2.2-11.9 4.5-20.7 2.2-8.8 4.5-18.5 5.1-21.5.9-4.3 2.2-6.8 6.3-11.5 7-8.1 10-15.1 10.6-24.2.4-6.4.1-7.9-2.2-12.7-4.9-10-13.3-12.4-22.1-6.4z"/></g></svg>