<svg xmlns="http://www.w3.org/2000/svg" viewBox="0 0 512 512" height="682.667" width="682.667" version="1.0"><path d="M255.591 25.207c-4.015.012-8.02.45-12.833 1.33-56.56 10.183-116.543 92.846-156.996 216.24C70.766 288.784 60.77 333.772 57.9 369.411c-1.296 15.459-.833 20.087 2.407 25.641 12.867 21.94 83.68 46.191 161.901 55.356 28.14 3.24 48.784 2.778 81.923-1.943 74.425-10.646 135.52-32.862 147.832-53.783 2.5-4.258 2.592-4.906 2.407-16.014-.463-40.452-18.7-116.082-42.49-176.066C371.057 99.388 318.85 35.239 268.492 26.445c-4.86-.833-8.886-1.25-12.901-1.238zm-67.64 91.997c1.884-.044 5.723.971 18.705 4.217 41.378 10.46 58.41 10.46 99.326-.186 7.868-2.037 15.46-3.795 16.94-3.795 3.24-.093 5.925 2.407 7.313 6.758 2.037 7.035-1.018 8.793-26.66 15.088-21.013 5.091-31.473 6.48-48.042 6.48-16.94 0-29.159-1.851-51.838-7.683-16.94-4.35-20.55-5.833-21.846-8.795-1.389-3.055 1.11-10.09 4.073-11.478.723-.347 1.174-.586 2.03-.606zm38.173 62.041c.702-.004 1.44.053 2.23.162 11.335 1.525 34.768 1.962 46.648.763 11.335-1.09 13.296-1.091 16.566.544 7.084 3.378 17.112 20.272 21.472 36.076 3.379 12.643 3.379 35.531 0 48.283-3.052 11.118-11.226 27.25-15.804 31.173-4.142 3.488-6.54 2.942-15.477-3.489-9.156-6.43-9.482-7.737-3.596-12.423 13.733-11.118 19.4-19.62 21.797-32.698 3.27-17.548-7.084-37.713-23.651-45.887-11.553-5.667-20.163-5.34-20.163.764 0 5.885-2.398 12.207-6.104 15.803-2.943 2.943-4.687 3.597-9.592 4.033-5.014.436-6.975 0-11.661-2.507-7.194-3.706-9.919-3.052-12.97 3.16-3.597 7.521-5.015 16.895-3.49 24.634 2.399 13.079 8.068 21.58 21.8 32.698 5.886 4.686 5.559 5.993-3.597 12.423-9.809 7.085-11.77 7.302-16.675 2.07-2.18-2.288-5.887-8.064-8.176-12.75-14.169-28.884-11.879-65.941 5.56-91.554 2.943-4.36 6.757-8.393 8.937-9.592 2.044-1.145 3.841-1.676 5.946-1.686zm222.031 3.547c-1.978.024-4.292.742-7.022 2.13-6.11 3.148-11.109 9.812-11.109 14.719 0 1.666 2.406 9.811 5.461 18.143 2.962 8.33 6.572 18.606 7.961 22.956 7.128 21.754 9.35 19.995 10.832-8.33 1.203-24.902.74-45.822-1.112-47.58-1.389-1.39-3.032-2.06-5.01-2.038zm-384.26.022c-1.084-.016-2.108.153-3.034.534-1.11.463-2.499 1.944-2.961 3.24-1.852 4.906-.37 61.003 1.758 66.372.556 1.482 1.388 2.592 1.943 2.592 1.296 0 3.98-5.647 6.943-14.812 1.389-4.35 4.999-14.625 7.961-22.956 3.055-8.332 5.462-16.477 5.462-18.143 0-7.614-10.49-16.717-18.073-16.827zm82.45 68.6c1.508-.011 3.037.04 4.586.158 3.055.185 7.775.833 10.46 1.388 6.943 1.296 17.773 5.092 19.81 6.943.925.833 1.666 2.684 1.666 4.258 0 3.332-3.147 8.701-5.554 9.442-1.018.277-6.203-.74-11.664-2.222-17.773-5.09-31.195-3.61-40.36 4.536-5.091 4.444-10.368 14.162-12.404 22.771-1.76 7.59-1.944 22.587-.463 30.826 1.481 7.498.926 9.627-3.147 12.126-4.536 2.777-8.701 2.222-10.83-1.48C95.853 335.716 94 325.533 94 315.629c-.088-37.674 21.688-63.995 52.344-64.216zm217.122.073c5.442-.092 10.623.559 15.644 1.936 23.513 6.387 38.88 30.917 38.88 61.928 0 9.534-1.945 20.55-4.444 24.9-2.13 3.611-6.387 4.166-10.83 1.39-3.981-2.5-4.629-4.63-3.24-12.127 1.574-8.239 1.295-23.42-.464-30.918-1.944-8.516-7.22-18.235-12.31-22.679-9.165-8.146-22.587-9.627-40.36-4.536-5.462 1.482-10.646 2.5-11.664 2.222-2.407-.741-5.554-6.11-5.554-9.258 0-4.073 2.314-5.831 11.848-8.793 8.07-2.604 15.498-3.948 22.494-4.065zM152.412 313.87c.925 0 18.884 8.609 39.897 19.069 34.343 17.125 38.6 18.977 41.933 18.607 2.037-.185 7.776-.926 12.775-1.667 7.498-1.018 10.46-1.018 18.05 0 4.907.74 10.646 1.482 12.682 1.667 3.333.37 7.59-1.482 42.026-18.7 21.106-10.46 38.972-18.976 39.713-18.79 4.443.833 3.794 2.59-12.59 35.638-10.831 21.938-16.015 33.14-15.923 35.176 0 2.222 1.205 4.444 4.908 8.702 10.645 12.682 11.755 14.162 11.755 17.124 0 2.222-.833 3.703-3.24 5.833-5.276 4.628-7.128 3.98-15.181-4.814-24.068-26.382-39.25-38.046-56.56-43.415-9.72-2.962-23.605-2.962-33.324 0-17.31 5.37-32.492 17.033-56.56 43.415-8.053 8.794-9.903 9.442-15.18 4.814-2.407-2.13-3.24-3.61-3.24-5.833 0-2.962 1.111-4.442 11.85-17.124 3.702-4.444 4.812-6.48 4.812-8.887 0-2.13-4.72-12.59-15.736-34.714-8.61-17.402-15.737-32.306-15.737-33.232 0-2.036.833-2.87 2.87-2.87zm169.956 37.028c-.093 0-2.592 1.017-5.554 2.22-9.072 3.796-11.017 6.388-8.147 11.109 5.091 8.239 11.015 5.647 15.366-6.943 1.11-3.147 1.111-3.794-.092-4.998-.833-.74-1.48-1.388-1.573-1.388zm-132.594.566c-.706.012-1.168.313-1.723.914-1.204 1.111-1.205 1.852-.094 4.906 1.852 5.277 3.703 8.702 5.925 10.646 1.85 1.759 2.129 1.76 5.183.278 1.944-.926 3.889-2.87 4.814-4.814 1.481-3.054 1.481-3.332-.278-5.184-1.944-2.221-5.368-4.072-10.644-5.924-1.528-.555-2.477-.833-3.183-.822z" fill="#f2f2f2"/></svg>