<svg xmlns="http://www.w3.org/2000/svg" version="1.0" width="682.667" height="682.667" viewBox="0 0 512 512"><path d="M255.68 47.392c-.97-.07-1.864 1.32-2.88 3.936-.775 2.093-3.099 8.837-5.035 14.883-6.002 18.37-13.262 32.323-16.263 31.044-.87-.348-1.065-4.42-.871-15.581.387-15.93 0-17.44-3.678-16.045-2.033.814-130.2 176.498-132.523 181.73-1.84 4.186-.387 6.279 5.324 7.79 6.777 1.628 6.873 4.769.387 13.722-6.002 8.487-6.68 11.277-4.163 17.556 3.098 7.325 81.606 167.313 83.348 169.755 2.517 3.255 4.744 4.417 39.109 19.416 23.91 10.464 33.493 14.185 37.075 14.301 3.872 0 10.84-2.556 36.3-13.602 17.328-7.558 33.3-14.883 35.527-16.046 3-1.744 5.034-4.186 7.841-9.535 7.841-14.999 81.314-165.452 81.895-167.777.871-3.488-.677-7.791-5.033-13.488-5.42-7.093-6.582-10.115-4.743-12.208.774-.93 3.193-1.976 5.323-2.325 4.937-.814 6.39-2.56 5.131-6.28-.87-2.79-117.712-164.639-127.683-176.963-3-3.605-6.002-6.627-6.68-6.627-2.323 0-3 5.115-2.033 16.277 1.356 16.743-1.064 20.231-6.873 10-3.872-6.744-8.42-18.022-12.39-30.346-2.964-9.302-4.795-13.471-6.412-13.587zm162.783 23.586c-4.762.121-9.808 2.006-12.783 4.782-3.156 2.885-46.659 57.562-47.91 60.154-.535 1.242-.602 2.751-.149 4.008.78 2.406 16.749 23.983 19.434 26.402 2.253 2.007 4.552 1.966 8.483-.04 4.29-2.224 4.627-4.203 1.112-7.59-1.532-1.524-2.743-3.425-2.728-4.414-.003-.916 1.157-3.76 2.606-6.227 3.846-6.607 3.466-7.54-2.787-6.948-3.918.407-4.548-.13-3.89-2.792.55-2.23 25.578-37.12 29.646-41.229 3.495-3.64 7.536-4.857 12.284-3.684 2.015.497 4.552 1.66 5.543 2.591 4.631 4.121 11.85 20.33 14.455 32.653 2.46 11.37 2.305 19.73-.597 29.319-3.437 11.441-9.343 20.211-22.445 33.388-8.119 8.148-7.645 10.555 1.46 7.383 11.886-4.24 24.404-13.82 30.452-23.471 4.562-7.347 7.691-19.4 7.573-29.123-.318-16.949-7.97-40.06-20.234-60.874-6.231-10.623-11.599-14.545-19.525-14.288zm-327.833.448c-2.841.021-5.614.683-8.029 2.007-4.395 2.384-5.956 4.16-10.27 11.775-10.778 19.193-17.793 42.216-18.373 60.088-.206 6.09.073 7.553 2.885 17.309 3.579 12.08 5.64 15.643 13.303 22.726 8.844 8.2 27.681 16.997 31.026 14.46 1.445-1.123.639-2.276-5.658-8.14-12.687-11.777-18.355-18.91-22.757-28.813-6.825-15.214-5.548-33.602 3.878-55.795 3.9-9.27 8.288-13.507 14.201-13.636 4.53-.105 8.306 1.945 12.506 6.73 6.907 7.924 28.647 35.649 29.089 37.14.61 2.061-.97 2.994-4.618 2.683-5.563-.516-6.102 1.576-1.962 7.46 3.086 4.42 3.135 6.413.22 10.137-1.42 1.734-2.519 3.761-2.38 4.493.158 1.576 5.756 4.556 8.432 4.459 2.982-.11 4.322-1.59 12.883-14.174 9.496-13.866 9.947-14.695 9.02-17.821-1.073-3.624-47.972-57.054-52.725-60.052-3.255-2.035-7.018-3.064-10.671-3.036zm241.827 154.74c2.879 0 5.871.315 8.95.964 7.56 1.597 19.913 7.454 23.215 10.969l2.556 2.875-1.81 5.111c-2.45 7.135-2.345 7.987 1.915 12.78 2.024 2.236 3.728 5.111 3.728 6.389 0 2.769-8.733 11.608-12.46 12.46-1.81.532-5.218-.534-11.288-3.409-15.867-7.454-25.025-5.217-34.929 8.414-6.07 8.307-7.88 8.732-10.969 2.343-2.982-5.964-3.726-25.56-1.277-33.76 4.582-15.903 16.822-25.134 32.369-25.136zm-153.336.14a41.34 41.34 0 011.535.002c4.875.097 9.412 1.075 13.365 2.952 15.229 7.454 22.47 26.73 18.317 48.88-2.45 12.78-6.283 14.908-11.608 6.495-7.028-10.862-15.759-15.974-25.023-14.59-2.343.426-7.669 2.451-11.822 4.581-9.265 4.58-11.715 4.366-18.318-2.237-5.75-5.857-5.963-8.732-.745-14.483 4.046-4.472 4.154-5.538 1.386-12.46-2.13-5.111-.214-7.88 8.412-12.353 8.299-4.368 16.78-6.65 24.501-6.786zm75.998 50.404c3.887-.01 9.387 2.537 24.096 10.498 9.159 4.898 17.57 10.009 18.53 11.393 2.342 2.982 2.556 12.46.32 16.72-.958 1.81-2.876 3.514-4.474 3.833-2.449.64-3.406.107-7.133-4.26-2.45-2.662-5.22-4.898-6.285-4.898-3.194 0-7.135 4.792-7.135 8.839 0 4.473 3.09 7.455 9.48 9.372 5.643 1.704 6.494 3.406 3.192 7.027-4.898 5.218-18.848 9.904-29.816 9.904-13.418 0-31.309-7.24-31.309-12.778 0-2.13.851-2.876 5.324-4.474 5.963-2.13 9.052-5.11 9.052-8.837 0-3.088-4.897-9.053-7.24-9.053-1.065 0-3.728 2.236-6.178 4.899-3.727 4.366-4.684 4.898-7.133 4.26-1.598-.32-3.622-1.917-4.58-3.301-2.45-3.727-2.556-13.206-.213-16.72 1.81-2.769 33.011-20.445 38.975-22.043a8.87 8.87 0 012.527-.38zm1.838 104.34c6.398-.02 12.627.3 18.61.96 11.634 1.376 26.971 4.549 37.442 7.722 9.837 2.961 12.48 5.816 10.787 11.845-1.375 4.97-4.018 7.933-7.085 7.933-1.27 0-7.933-1.48-14.808-3.173-18.192-4.76-29.932-6.347-45.903-6.347-15.97 0-27.605 1.588-45.69 6.347-6.77 1.693-13.54 3.173-14.915 3.173-3.173 0-5.817-2.857-7.192-7.933-2.115-7.721 2.221-10.364 24.961-15.441 14.834-3.345 29.718-5.04 43.793-5.086z" fill="#f2f2f2"/></svg>