<svg xmlns="http://www.w3.org/2000/svg" viewBox="0 0 512 512" height="682.667" width="682.667" version="1.0"><g fill="#f2f2f2"><path d="M173 53c-22.6 2.3-45.1 8.4-60.2 16.2-8.3 4.3-10.5 7.5-4.5 6.5 1.7-.3 12-1.3 22.7-2.2 22.8-2 51.7-1.6 65 .9 37.4 6.8 65.9 29.8 75 60.3 2.1 6.9 4.6 8.5 14.7 9.4 12.1 1.1 27.5 1 29.2 0 3.7-2.3-3.7-21.7-14.5-38.1-17.7-27-48.2-45.7-83.9-51.5-11.5-1.9-32.6-2.6-43.5-1.5zm140 38.9c0 .6 3.3 7.7 7.4 15.8 4.1 8.1 9.1 19.7 11.2 25.6 4.2 12.2 5.6 13.7 13.3 14.5 6.1.6 9.1-1 9.1-4.6 0-3.1-8.9-18.8-16.6-29.3-10.6-14.4-24.4-26.8-24.4-22zm-54.2 68.2c-3.2 1.8-1.9 3.8 4.2 6.9 3.2 1.6 6.4 3.9 7 5 1.2 2.3 9 50.6 9 55.9 0 2.9-.9 4.3-5.1 8.3-6.3 5.9-18.2 11.9-24.7 12.6-6.2.6-10.9-1.5-22.5-9.7-12.6-9.1-23.6-15.1-27.4-15.1-2.3 0-4.4 1-7 3.3-2.1 1.8-4.5 3.8-5.4 4.5-.9.7-21.9 8.3-46.5 16.8-36.2 12.6-46.3 15.7-51.9 16.1-3.8.3-24.4-.2-45.7-1.1C2.4 261.8 1.2 261.9-1 266c-.7 1.2-1 42.2-1 122.5v120.6l2.5 2.4 2.4 2.5H70c54.2 0 67.7-.3 70.3-1.4 3.1-1.3 62.8-60.8 125.1-124.6 14.8-15.1 27.8-28 29-28.7 2.9-1.7 12.5-1.6 17.2.1 2.2.8 16.7 7.6 32.4 15.1 15.7 7.6 29.9 14.1 31.5 14.6 3.9 1.2 29.3 3.9 37.2 3.9 9.1 0 11.3-3.2 5.6-8.1-1-.9-13.3-8.3-27.3-16.4-14-8-26.5-15.6-27.7-16.8-3.8-3.5-2.4-10 2.8-12.7 3-1.7 2.5-1.9 55.4 28.7 2.2 1.2 5.5 2.3 7.2 2.3 3.9 0 5-1.5 10-13.5 2.7-6.8 3.4-9.7 3-12.9-.3-3.3-57.7-152.3-64.8-168.6-2.8-6.4-5.5-8.8-10.3-9.5-4.7-.6-98.3-6.5-103-6.5-1.7 0-3.9.5-4.8 1.1zM318 214c9.6 2.6 18.2 12.1 16.6 18.3-1.6 6.5-13.7 7.5-23.7 2.1-10.4-5.7-15.2-17-8.7-20.2 2.9-1.4 11.2-1.5 15.8-.2zm100.8 121.5c7.2 7.3 8 10.5 3.6 14.9s-7.6 3.6-14.5-3.7c-6.2-6.5-7.5-9.1-6.4-12.7.9-2.8 6.4-6.1 9-5.4 1.1.3 4.8 3.4 8.3 6.9z"/><path d="M187.6 171.1c-14.7 1.5-23.6 5.6-23.6 10.7 0 2.8 3.4 6.7 11.8 13.4 8.6 6.8 15.5 10.5 28.5 15.2 11.5 4.2 22.9 9.9 32.7 16.5 5.8 3.9 8.4 5.1 11.3 5.1 5.5 0 10.6-2.7 12.4-6.6 1.5-3 1.4-4.4-.6-17.6-3.1-20.4-3.9-23.5-6.8-25.8-1.4-1.1-8.1-3.8-14.9-6-16.5-5.4-32.1-6.9-50.8-4.9zm222.8 9.8c-5.2 2.4-8.4 6.4-8.4 10.7 0 3.4 4.9 16.9 7.6 21.1 2.6 4.2 6.4 3 22.8-6.8 8.3-5 16.1-10 17.4-11.2 4.2-3.9 2.4-6.9-6.3-10.8-11.8-5.2-25.5-6.5-33.1-3zm-80.8 207.6c-.9.9-1.6 2.4-1.6 3.3 0 5 14 78.4 15.5 81.3 3.4 6.5 15.7 24 17.8 25.1 3.2 1.7 4.7-1.3 4.7-9.3 0-8.7 1.2-9.9 7.7-7.4 4.6 1.8 4.6 1.8 6.5-.5 1.5-1.8 1.8-4 1.8-11.9s.8-13 4.5-28.6c2.5-10.5 5.5-21.6 6.6-24.8 3.1-8.2 2.1-9-11.4-9.8l-10.2-.5-18-8.6c-21.2-10.2-21.8-10.4-23.9-8.3zm-47.9 6.5c-1.3 1.1-2.8 3.1-3.1 4.5-1 4.1 4 12.5 7.4 12.5 2.4 0 3-2 3-9.1 0-9.5-2.2-11.9-7.3-7.9zm-17.3 17.9c-1.6 1-7.1 6.1-12.1 11.4-8.8 9.1-9.3 9.8-9.3 14 0 4.2 6.4 24.2 9.2 28.7 1.6 2.5 3.6 2.5 6.8 0 2.7-2.1 5.5-2.6 6.5-1 1.3 2.1 4.5.9 6.1-2.2 2.4-4.6 2.8-13.8 1.5-30.1-1.9-21.7-3-24.3-8.7-20.8z"/></g></svg>