<svg version="1.0" xmlns="http://www.w3.org/2000/svg" width="682.667" height="682.667" viewBox="0 0 512 512"><g fill="#f2f2f2"><path d="M175.7 27.2c-2.9 1-89.1 50.1-91.4 52-.7.6-1.3 2.4-1.3 4.1 0 2.6 3.1 6.1 22.8 25.9 12.5 12.6 24.2 23.8 26 25 2.2 1.3 14.4 4.3 37.4 8.9 18.8 3.8 35.2 7.6 36.5 8.4 3.1 2.1 3.2 9.1.2 12.9-2.8 3.5-4.4 3.4-30.9-1.9-26.2-5.3-28.6-5.4-30.1-2.1-.9 2 .7 7.6 10.1 36 7.1 21.5 11 34.7 10.8 36.7-.3 3.7-3.6 6.6-8.5 7.5-6 1.2-6.8-.6-21.8-45.7-7.5-22.8-14.8-43.2-16-45.4-1.3-2.2-10.2-11.8-19.9-21.3-13.9-13.8-18-17.3-19.8-17-2 .3-2.3 1-2.6 5.3-.2 2.7.4 13.5 1.3 23.9 1 10.3 1.5 20.9 1.2 23.5-.3 2.5-8.5 32.9-18.2 67.5C51.9 266.1 44 295.5 44 297c0 1.4.7 3.6 1.6 4.8.9 1.3 11.6 9.8 23.7 18.9 12.2 9.1 23.7 17.9 25.4 19.6 3.7 3.5 4.2 6.9 1.7 10.7-5 7.5-7.2 7-24.6-5.9-17.3-13-20.3-14.7-22.4-13-.8.6-1.4 2.3-1.4 3.7 0 4.5 22.1 113.5 23.6 116.5.8 1.5 2.6 3.2 4 3.7 1.4.6 15.9 3.1 32.2 5.6 31.8 4.9 34.2 4.9 34.2 0 0-1.3-4.5-13.7-10-27.5s-10-25.8-10-26.7c0-2.9 2.1-5.6 5.5-7 5.2-2.1 7.1-1.7 11.6 2.3 6.7 6.1 10.7 5.9 64.9-3.2 25-4.2 48.4-7.7 52-7.7 3.6 0 27 3.5 52 7.7 60.7 10.2 61.3 10.2 64.5-3.9 2.3-10 3.5-11.6 8.9-11.6 5.7 0 9.6 2.9 9.6 7.3 0 1.7-2.5 15.7-5.6 31.1-6.1 31-6.1 32.6-.3 32.6 3.6 0 45.6-11.2 50.6-13.5 1.8-.8 3.9-2.5 4.7-3.7 1.5-2.4 29.6-113.3 29.6-117 0-3.5-27.9-86.4-30.3-90-2.9-4.3-53.5-42.4-58.1-43.6-2.8-.8-11.5.3-44.5 5.8-22.5 3.7-42.1 6.5-43.6 6.3-4.7-1-7.5-11.1-4-14.7 2.3-2.3 5.4-2.9 45.2-9.6 19.9-3.3 37.3-6.4 38.6-6.9 3.8-1.5 5.3-4.3 10.8-21 5.9-17.6 8-20.7 13.2-19.7 4.8.9 8.2 3.8 8.5 7.4.2 1.8-1.9 9.8-4.9 19-4.8 14.7-5 16.1-3.8 18.8 1.3 2.6 18.9 16.8 33.6 27 5.5 3.8 9.4 4.1 10.7.8.9-2.3 11.6-88.5 11.6-93.2 0-2.4-.8-4.9-1.9-6.3-1.1-1.4-19-10.9-43.8-23.3l-41.9-20.8-42.5-7.1c-41.1-6.9-42.7-7.1-45.2-5.4-1.8 1.2-6.3 9-14.6 25.6-6.6 13.1-12.8 24.6-13.6 25.5-4.2 4.2-14.5-.4-14.5-6.5 0-1.7 4.2-11.3 10-22.9 11.2-22.4 11.9-25.2 6.8-27.5-2.9-1.2-68.7-12.6-72-12.4-.7 0-2.6.5-4.1 1.1zm-.3 236.3c37.8 8 70.7 14.5 72.9 14.5 2.3 0 38.5-6.5 80.3-14.5 41.9-8 77.7-14.5 79.7-14.5 4.6 0 7.7 3.7 7.7 9.1 0 5-2.4 7.4-8.6 8.7-2.7.6-7.5 1.5-10.6 2.2-3.2.6-6.8 2-8 3l-2.3 1.8 3.5 6.8c3.1 6.1 3.5 7.8 3.5 14.4 0 6-.5 8.6-2.7 13.3-5.9 12.5-20.2 22.4-35.9 24.8-9 1.4-15.8.4-24.9-3.7-10-4.5-10.6-3.8-14.5 18.1-3.1 17.1-4.3 20.1-8.3 20.9-2.6.6-97.2-6.9-101.8-8-4-1-5.4-3.9-7.9-16-2.7-13.1-4.7-18.4-6.9-18.4-.7 0-4.2 1.3-7.8 3-9.5 4.4-16.4 5.6-25.7 4.1-15.7-2.4-30-12.3-35.9-24.8-3.9-8.3-3.8-18.7.1-26.2 4.8-9.3 3.7-10.6-11.3-14-5.2-1.2-10.5-2.9-11.8-3.7-2.2-1.4-2.4-2.2-2-6.5.6-6 3-8.9 7.2-8.9 1.8 0 34.1 6.5 72 14.5z"/><path d="M141.3 286.9c-6.6 4.1-5.9 14.3 1.3 20 6 4.7 8.4 1.7 8.4-10.5 0-6.1-.4-7.8-2-9.4-2.5-2.5-3.7-2.5-7.7-.1zm221.7.1c-1.6 1.6-2 3.3-2 9.4 0 12.2 2.4 15.2 8.4 10.5 5.1-4 7.3-11.8 4.7-16.8-1.1-2-5.9-5.1-8.1-5.1-.5 0-1.9.9-3 2zm-65 .7c-1.4.2-11.9 2.2-23.5 4.5-11.5 2.2-23.2 4-26 4-2.7.1-12-1.4-20.6-3.2-16.8-3.5-20.5-3.5-21.4.3-.8 2.9 7.2 43.5 9.1 46.4.8 1.2 2.3 2.7 3.3 3.3 3.1 1.6 70.9 7 74.1 5.8 1.5-.5 3.2-2 3.8-3.3.6-1.3 3.2-13.9 5.7-27.9 3.6-19.8 4.4-26 3.5-27.6-.6-1.1-1.5-2-2-2-.4 0-1.4-.2-2.2-.4-.7-.2-2.4-.1-3.8.1zm-127.4 8.5c-3.1 4.4-1.5 15.8 2.3 15.8 2.5 0 6.1-4.5 6.1-7.7s-2.6-8-5-9.3c-1.5-.8-2.2-.6-3.4 1.2zm166-.1c-3.8 3.3-4.6 9.4-1.6 13.1 4.3 5.5 8 2.5 8-6.7 0-2.6-.7-5.1-1.8-6.5l-1.8-2.2-2.8 2.3zM153.3 426c-3.5 1.4-2.9 5.6 2.8 20.4 6.5 16.6 9.2 21.8 11.9 23.4 2.4 1.4 95.7 16.2 102.4 16.2 4.3 0 80.1-20.2 84.8-22.6 3.8-2 4.5-3.5 7.5-18.8 3.1-15.9 2.8-18-3.4-19.2-2.8-.5-16.9 1.4-51.3 7.1-26.1 4.4-50 7.9-53 7.8-3-.1-25.8-3.6-50.7-7.7-24.9-4.2-46-7.6-47-7.5-1 0-2.8.4-4 .9z"/></g></svg>