<svg version="1.0" xmlns="http://www.w3.org/2000/svg" width="682.667" height="682.667" viewBox="0 0 512 512"><path d="M111 27c-6.6 1.4-9.3 3.1-17.8 11.3C71.9 59 54 86.1 46.4 109c-2.6 7.8-2.8 9.8-2.9 23.5 0 17 1.3 22.4 8.5 34.5 8.3 14 29.3 32.6 34.6 30.6 2.3-.9 1.7-2.7-4.2-12.7-11.9-20.1-16.5-31.5-18.4-46-3-22.3 5.7-45.6 26.4-70.7C99 57.7 106.3 53.9 114 56c5.9 1.6 10 5.7 13.6 13.5 5.9 12.9 23.4 57.1 23.4 59.2 0 2.9-2.4 3.5-7 1.7-7-2.8-8.5-.3-5.4 8.9 2.3 6.9 1.6 9.5-3.6 13.2-2.5 1.7-4.7 3.9-4.8 4.9-.4 2.1 5.7 8.1 9.2 9 3.9 1 6.2-.4 22.1-13.4 17.6-14.3 18.5-15.2 18.5-19.6 0-5.1-40.2-92.2-45.2-97.9-6.1-6.9-15.5-10.3-23.8-8.5zm278.8.4c-6.2 1.7-12.2 5.8-15.2 10.4-3.2 4.8-42.5 90.5-43.3 94.3-.3 1.8.1 3.8 1.1 5.3 1.8 2.9 29.7 26 34 28.3 3.6 1.9 6.6 1.1 11.1-2.8 4.9-4.3 4.7-7-1-10.3-2.5-1.5-4.7-3.6-5-4.9-.3-1.2.3-5.3 1.4-9 2.9-9.9 2.1-11-5.9-8.2-5 1.8-6 1.3-6-2.4 0-3.1 21.5-56.9 25.5-63.6 3.4-5.9 8.3-8.8 14.9-8.8 2.8 0 6.5.7 8.1 1.6 7.4 3.9 22.1 22.8 29.5 38.1 6.9 14.1 9.4 25.1 8.7 38.6-.8 16.1-5.7 29.5-18.6 51-8 13.3-6.6 16.3 4.3 9.2 14.2-9.4 27.5-26 32.3-40.6 3.6-11.1 3.8-27.9.5-40.6-5.9-22.1-23.4-49.9-46.2-73.2-11.6-11.9-19.9-15.3-30.2-12.4zm-137.1 74.8c-.8 1.8-3.2 7.6-5.2 12.8-6.2 15.8-13.7 27.8-16.8 26.7-.9-.3-1.1-3.8-.9-13.4.4-13.7 0-15-3.8-13.8-2.1.7-134.5 151.8-136.9 156.3-1.9 3.6-.4 5.4 5.5 6.7 7 1.4 7.1 4.1.4 11.8-6.2 7.3-6.9 9.7-4.3 15.1 3.2 6.3 84.3 143.9 86.1 146 2.6 2.8 4.9 3.8 40.4 16.7 24.7 9 34.6 12.2 38.3 12.3 4 0 11.2-2.2 37.5-11.7 17.9-6.5 34.4-12.8 36.7-13.8 3.1-1.5 5.2-3.6 8.1-8.2 8.1-12.9 84-142.3 84.6-144.3.9-3-.7-6.7-5.2-11.6-5.6-6.1-6.8-8.7-4.9-10.5.8-.8 3.3-1.7 5.5-2 5.1-.7 6.6-2.2 5.3-5.4-.9-2.4-121.6-141.6-131.9-152.2-3.1-3.1-6.2-5.7-6.9-5.7-2.4 0-3.1 4.4-2.1 14 1.4 14.4-1.1 17.4-7.1 8.6-4-5.8-8.7-15.5-12.8-26.1-4.9-12.8-6.8-14.3-9.6-8.3zm-54.9 170.9c14.3 7 21.1 25.1 17.2 45.9-2.3 12-5.9 14-10.9 6.1-6.6-10.2-14.8-15-23.5-13.7-2.2.4-7.2 2.3-11.1 4.3-8.7 4.3-11 4.1-17.2-2.1-5.4-5.5-5.6-8.2-.7-13.6 3.8-4.2 3.9-5.2 1.3-11.7-2-4.8-.2-7.4 7.9-11.6 13.3-7 27.1-8.3 37-3.6zm138.4-2c7.1 1.5 18.7 7 21.8 10.3l2.4 2.7-1.7 4.8c-2.3 6.7-2.2 7.5 1.8 12 1.9 2.1 3.5 4.8 3.5 6 0 2.6-8.2 10.9-11.7 11.7-1.7.5-4.9-.5-10.6-3.2-14.9-7-23.5-4.9-32.8 7.9-5.7 7.8-7.4 8.2-10.3 2.2-2.8-5.6-3.5-24-1.2-31.7 5.1-17.7 20.3-26.6 38.8-22.7zm-58.4 70.5c8.6 4.6 16.5 9.4 17.4 10.7 2.2 2.8 2.4 11.7.3 15.7-.9 1.7-2.7 3.3-4.2 3.6-2.3.6-3.2.1-6.7-4-2.3-2.5-4.9-4.6-5.9-4.6-3 0-6.7 4.5-6.7 8.3 0 4.2 2.9 7 8.9 8.8 5.3 1.6 6.1 3.2 3 6.6-4.6 4.9-17.7 9.3-28 9.3-12.6 0-29.4-6.8-29.4-12 0-2 .8-2.7 5-4.2 5.6-2 8.5-4.8 8.5-8.3 0-2.9-4.6-8.5-6.8-8.5-1 0-3.5 2.1-5.8 4.6-3.5 4.1-4.4 4.6-6.7 4-1.5-.3-3.4-1.8-4.3-3.1-2.3-3.5-2.4-12.4-.2-15.7 1.7-2.6 31-19.2 36.6-20.7 4.1-1.2 8 .3 25 9.5zm-2.4 79.5c18.6 5.9 20.2 5.9 32.4.4 13.1-5.9 13.5-3 1.5 12.3-4.2 5.4-7.8 8.9-9.9 9.8-4.9 2.1-81.9 2-86.8 0-4.5-1.9-19.6-20.3-19.6-23.8 0-2.3 3.7-1.6 11.8 2.1 5.6 2.6 10.3 4.1 12.8 4.1 2.1 0 10.7-2.3 18.9-5 8.3-2.7 16.8-5 18.9-5 2.2 0 11.2 2.3 20 5.1z" fill="#f2f2f2"/></svg>