<svg version="1.0" xmlns="http://www.w3.org/2000/svg" width="682.667" height="682.667" viewBox="0 0 512 512"><path d="M139.7 63.1C115.6 65.7 93 76.9 76 94.7c-9.9 10.3-14.1 17.2-12.1 19.7 1.6 1.9 1.9 1.8 15.6-3.4 18.9-7.2 25.7-8.4 46.5-8.5 15 0 19.6.3 24.3 1.8 8.3 2.5 8.6 3.8 5.1 17.8-2.6 10.5-2.9 12.9-2.9 30.4 0 22.7 1.3 29 10.2 47.9l5.6 11.8-1.2 5.2c-1.5 6.2-4 11.6-6.2 12.9-.9.5-2.7.7-4 .4-3.1-.8-14.7-12.5-19.5-19.6-9-13.4-15.8-32.3-18.4-51.1-1.7-12.2-3.7-17.7-8.3-22.8-6.1-6.5-10.6-8.5-18.6-8-17 1-44.4 21.8-57.5 43.6-8.2 13.8-14.6 33.8-14.6 45.5.1 9.5 3.1 8.9 12.9-2.8 10.3-12.2 20-21.5 28.8-27.6 8.4-5.8 23.6-13.2 30.6-15 7.9-1.9 8.9-1 13.2 12.8 8.8 28.1 20.9 46.2 41.1 61.3 5.2 3.9 9.9 8 10.4 9 1.8 3.3 1.2 12.5-.8 14.3-2.6 2.4-4.7 2.1-13.3-1.7-15.7-6.8-30.5-18.9-44.4-36.2-4.2-5.1-9.1-10.5-10.9-11.9-7.2-5.5-17.7-7-25.1-3.6-11.2 5.1-24 27.3-28.7 50.1-1.6 7.8-1.9 12.1-1.5 24.5.5 16.9 2.6 26.5 8 37.4 6.2 12.5 8.7 10.9 11.7-7.4 3.7-22.5 10.9-40.5 22.1-55.7C80 257.9 85.3 253 88 253c1.1 0 5.6 3.3 10.1 7.3 18.3 16.4 30 23.4 50.4 30.2l12 4 3.4 7c1.8 3.8 3.6 8.7 3.9 10.7.7 5.5-2.1 6.4-15.9 4.9-12.9-1.4-23.1-4-36.9-9.4-17.8-7-29.4-5.9-37.4 3.5-4.9 5.7-6.1 11.1-6.1 27.3.1 11.3.5 15.7 2.4 22.9 3.2 12.3 7.8 22.7 14.6 33.2 12 18.6 35.5 36.7 35.5 27.4 0-1.1-1.8-6.6-3.9-12.3-7.7-20.1-10.8-37.6-9.7-54.2.8-12.5 2.8-21.1 5.5-23.8 2.3-2.3 2-2.3 19.6 1.9 9 2.2 32 2.9 43.6 1.4l9.8-1.3 9.6 4.6c10.8 5.3 11.5 6.5 6.8 13.3-9.4 13.8-11.6 26.9-6.9 41.8 1.4 4.6 2.6 9.1 2.6 9.9 0 .8-2.9 4-6.4 7.1-8.3 7.3-11.7 13.9-12.4 23.9-.8 12.9 3.9 25.2 12.6 32.8 10.4 9.1 33 14 34 7.3.2-1.1-1.3-4.1-3.3-6.7-7.8-10.2-11.2-20.7-10.1-30.9.7-6.9 2.8-11.5 6-12.9 1.8-.9 4.3-.5 11.9 2 17 5.4 31.1 5.2 48.9-1 8.5-3 9-3 11.4-1.4 1.4.9 3.2 3.2 4 5.2 4.8 11.3 1.5 26.4-8.3 39.2-1.9 2.5-3.3 5.4-3.1 6.5 1 6.9 24 1.7 34.7-7.9 6.3-5.8 11.1-16.4 11.8-26.2 1-13.9-3.3-23.2-14.2-31.3-3.1-2.3-5.9-4.9-6.2-5.7-.3-.9.4-4.8 1.7-8.7 1.8-5.3 2.4-9.3 2.4-15.6 0-9.7-1.7-15-8.4-26-5.1-8.5-4.8-9.3 5.7-14.5 7.2-3.6 8.3-3.8 14.8-3.5 16.4 1 41 .3 47.5-1.3 18.8-4.5 18-4.4 20.5-1.5 3.3 3.8 5 14.1 5 29.8-.1 15.9-1.8 25.3-7.6 42-6.2 17.4-6.5 18.8-5.1 20.2 2.1 2.1 11.7-3.7 20.8-12.7 13.7-13.4 23.4-30.5 28.5-50.1 2.8-10.7 3.4-33.6 1-41.6-1.8-6.4-6.9-12-13.2-14.8-7.8-3.3-15.5-2.5-29.2 2.9-13.8 5.4-23.6 7.9-36.2 9.2-16.7 1.8-18.5-.4-12.1-14.5 3.9-8.4 4.5-8.9 17.6-12.9 16.1-5 29.7-13.2 46.7-28.4 5.2-4.6 10.3-8.3 11.3-8.3 2.7 0 8 4.9 13.9 12.8 11.2 15.2 18.4 33.2 22.1 55.7 3 18.3 5.5 19.9 11.7 7.4 5.2-10.4 7.4-20.6 8-36.2 1-24.8-4.3-44.5-16.7-62.7-9.4-13.6-18.9-17.8-31.1-13.5-6.2 2.2-10 5.5-18.2 15.8-13.4 16.8-28.1 28.9-43.3 35.8-11.8 5.4-15.4 4.1-15.4-5.1 0-3.2.3-6.6.6-7.4.3-.9 4.8-4.8 9.9-8.6 21.1-15.8 33.9-35.7 42.5-65.8 2.6-8.9 4.3-10.1 11.7-8.3 7 1.8 22.2 9.2 30.5 15 9 6.2 19 15.7 28.9 27.6 7.5 8.9 10.4 10.9 12 8.3 2.3-3.6-.1-19.3-5-32.6-9.1-25-27.7-46-51-57.5-14.7-7.3-24.8-6.3-33.5 3.3-5.1 5.7-6.5 9.3-8.7 23.4-2.4 15.8-5.1 25.1-10.3 36.2-5.6 11.7-10.9 19.6-18.6 27.1-9.7 9.7-12.8 9.3-16.9-2-3.1-8.4-2.7-11.2 2.9-22.9 7.3-15.3 9.2-23.2 9.7-42 .6-16.1 0-21.9-3.8-37.7-2.6-10.9-2-12.4 5.8-14.8 4.7-1.5 9.3-1.8 24.3-1.8 20.9.1 27.8 1.4 46.5 8.6 11.8 4.5 14.3 5 15.8 2.7 2.7-4.1-14-23.5-28.9-33.4-19.9-13.3-45.3-19.9-66.5-17.5-10.2 1.2-14.7 3-19.3 7.7-7.9 8.1-8.5 19.3-1.8 35.9 8.2 20.3 11.4 39.4 9.4 56.3-1.3 11.1-4.1 20.6-7 23.4-2.6 2.6-4.8 1.5-11.9-6.2-11.5-12.4-27.9-22.6-43.8-27.2-6.6-1.9-10.4-2.3-22-2.3s-15.4.4-22 2.3c-16.4 4.8-32 14.5-44.8 28.2-9.9 10.6-13 9.4-17.1-7-4.9-19.9-2.3-43.1 7.6-67.5 6.8-16.9 6.1-27.9-2.2-36.3-6.5-6.5-20.6-9.1-38.3-7.1z" fill="#f2f2f2"/></svg>