<svg version="1.0" xmlns="http://www.w3.org/2000/svg" width="682.667" height="682.667" viewBox="0 0 512 512"><path d="M199.8 20.4c-13.5 5-14.9 12.2-6 31.3 5.7 12.2 7.8 19.6 6.8 23.6-.8 3.3-8.4 6.5-12.4 5.1-2.9-1-3.8-2.4-8.3-13.7-3.9-9.6-8.2-15.6-13.2-18-3.4-1.7-4-1.8-9.2-.3-7 2.1-17.1 9.7-20.9 15.8-6.2 10.2-2.1 19.8 12.6 29.7 5.1 3.4 6.3 5.6 5.3 10.1-1 4.6-4.2 8-7.6 8-1.6 0-7.3-2.2-12.7-4.9-18.6-9.4-25.9-10.3-31.8-3.8-4 4.3-7.5 13.5-8.1 21.2-.9 10.8 4.4 15.5 20.4 18.1 4.8.7 9.4 2.1 10.2 2.9 1.1 1 1.6 3.4 1.6 7 0 8.1-1.1 8.8-14.8 9.5-17 .9-20.2 3.6-20.2 17.2 0 6 .3 7 3 9.8 4.5 4.7 10.7 6.1 29.7 6.9 18.6.7 19.4 1 20.5 7.4 1.5 9.7-1.9 11.7-20.6 11.7-7.1 0-13.6.3-14.5.6-4.5 1.7 0 11 7.6 15.7 6.9 4.3 15.9 4.9 66.3 4.5 42.1-.3 44.2-.4 48.5-2.4 5.1-2.3 10.5-8 12.8-13.3.8-2 2.8-8.3 4.3-14 2.7-10 5-15.1 6.8-15.1 1.7 0 3.3 3.1 7 14.1 6 17.9 9.7 23.5 18.5 28.2 4.1 2.2 4.7 2.2 55.1 2.2h51l5.8-2.9c8.7-4.2 14.1-12.8 10.5-16.4-.8-.8-5.6-1.2-15-1.2-19.6 0-23.2-1.9-21.4-11.6 1.3-6.7 2.9-7.4 17.9-7.4 13.8 0 25.2-1.8 29.4-4.5 4-2.7 6.3-7.5 6.3-13.3 0-12.2-5-16.1-20.5-16.2-5.1 0-10.1-.6-11.4-1.3-3-1.5-4.5-5.7-3.7-10.1 1.1-5.6 2.4-6.5 11.6-8 10.1-1.6 14.6-3.4 18-7.1 2.2-2.3 2.5-3.5 2.4-9.8-.1-12.4-6.5-24.4-13.8-26.3-4.2-1-15 2.1-26.4 7.6-5.7 2.8-11.4 5-12.7 5-2.9 0-6.4-4.6-7.2-9.4-.6-3.9.7-5.5 9.8-11.9 6.3-4.5 10.8-10.3 11.6-15 2.2-14-24-33.6-35.2-26.3-3.5 2.3-7 7.8-11.9 19.2-5.1 11.7-7.1 13.5-13.4 11.6-2.3-.7-4.8-1.9-5.7-2.8-3.4-3.4-1.1-12 8-30.4 4-8.1 4.6-10.1 4.2-14-.6-5.6-5.3-10.2-12.8-12.4-14.3-4.3-27.9.1-35 11.2-7.5 11.9-10 24.2-10.8 53.8-.7 27.3-.8 27.4-9.7 27.4-5.6 0-8.1-1.5-8.8-5.3-.3-1.2-.7-11.7-1-23.2-.6-22.4-1.8-31.2-6.1-43-5.6-15.3-13.8-21.6-28.9-22.2-5.2-.2-9.4.2-11.8 1.1zm51 222.9c-12.6 9.6-16.9 10.7-40.9 10.7-10.3 0-19.9.4-21.3 1-4.2 1.5-3.4 5.1 2.1 10 7.4 6.5 15.9 10 38.8 16 6.5 1.6 7.4 2.7 4.6 5-1.9 1.7-3.8 2-11.7 2-11.9 0-15.8-.8-39.4-8.5-26.3-8.6-38.6-10.9-56.5-11-16.2 0-25.9 1.8-37.2 7-27.2 12.5-49 38.1-57.9 68.2-3.6 12-4.4 30.1-1.9 42.3 8 39.7 41.1 84.4 72.8 98.5 14.1 6.2 29.5 7.3 42.4 3 23.6-8 35.5-25.5 34-50-1.3-20.1-10.5-40.8-27.6-61.9-10.3-12.7-21.1-19.5-21.1-13.2 0 1.4 2.9 9.8 6.4 18.8 8.5 21.5 11 30.9 11 42.3.1 10.8-2.1 15.9-8.6 20.2-3.8 2.6-4.9 2.8-13.8 2.8-9.1 0-10-.2-17.4-3.8-17.5-8.7-33.6-29.5-39.8-51.4-3.2-11.5-3.1-25.3.4-35.1 7.9-22 23.5-37.3 42.4-41.8 15.6-3.7 41.4.1 59 8.6 19.4 9.3 29.4 28.7 39.8 76.5 9.9 45.4 14.5 60.6 22.1 71.9 7.7 11.7 15.5 16.1 28.5 16.1 10 0 16.4-1.9 26.2-7.6 16.7-9.8 30.5-27.9 35.3-46.4 3.3-12.9 1-32.7-4.6-39.9-3.9-5-5.3-3.4-8.4 10.2-5.1 22.4-17.4 39.4-30.8 42.6-7.3 1.7-18.3-5.7-20.6-13.9-1.5-5.4-1.4-13.9.3-20 6.5-24.2 32.1-59 54.6-74.2 7-4.7 17.7-9.8 26.5-12.6 33.6-10.5 60.6-2.4 67.2 20.2 3.3 11.3-.5 21.9-15.3 43.2-18.1 25.9-21.7 33.6-21.8 46.5-.1 7.4.2 8.6 3.8 15.9 7.4 15.1 22.2 27 38.6 31.1 8.3 2.1 23 1.4 31.3-1.5 13.6-4.8 30.7-16.6 36.4-25.2 4.3-6.5 2.4-6.9-11.2-2.6-24.1 7.7-39.7 7.4-49.5-1.1-7.3-6.2-10-15.4-6.5-22.1 2.6-5.2 11.4-11.9 28.5-21.7 24.9-14.3 33.3-21.8 38.1-34.2 3.1-7.9 3.1-25.2 0-36.7-4.7-17.5-14.8-34.1-29.4-48.2-17.3-16.7-27.1-21.3-45.2-21.3-12.7 0-19.2 1.2-50.4 9.5-29.9 7.8-39.1 9.5-53.3 9.5-11.3 0-17.8-1.6-17.8-4.3 0-1.6 1.7-2.3 12.5-5.8 15-4.7 28.5-13.5 28.5-18.5 0-1.2-.6-2.6-1.2-3.1-.7-.4-10.3-1-21.3-1.3-22.7-.6-25.6-1.4-36.3-9.7-3-2.3-6.3-4.3-7.3-4.3s-3.7 1.5-6.1 3.3z" fill="#f2f2f2"/></svg>