<svg xmlns="http://www.w3.org/2000/svg" viewBox="0 0 512 512" height="682.667" width="682.667" version="1.0"><path d="M394.962 71.62c-8.7 1.421-20.077 6.775-35.134 16.479-5.689 3.597-9.37 5.521-10.457 5.27a563.67 563.67 0 00-7.194-1.84c-5.186-1.339-5.856-1.339-10.29-.084-11.794 3.43-16.646 15.894-10.623 27.522 2.426 4.6 2.593 5.688 2.593 13.468.084 8.616.418 10.206 5.521 23.172 1.422 3.764 1.422 4.015-.083 7.947-1.088 2.844-3.096 5.52-6.609 8.7-2.76 2.51-8.365 7.863-12.548 11.795-8.783 8.281-10.707 9.452-14.054 8.783-6.19-1.255-24.76-16.898-34.297-28.86-6.441-8.114-6.441-10.038.25-14.388 8.282-5.521 11.88-11.042 10.29-15.643-1.84-5.02-9.202-7.11-18.738-5.27-6.274 1.254-7.278.752-11.628-5.689-5.521-8.114-10.373-11.21-14.974-9.62-5.186 1.84-7.027 8.867-5.186 18.906.836 4.099.92 6.274.25 7.277-.418.753-3.764 3.43-7.36 6.023-7.195 5.103-10.457 9.035-10.457 12.716 0 7.612 7.445 9.787 21.498 6.44 8.7-2.09 9.704-1.672 14.556 6.108 8.784 14.053 20.244 26.768 32.54 36.054 6.61 4.935 7.53 6.107 7.53 8.783 0 1.172-2.844 6.442-6.609 12.13-3.597 5.605-8.7 13.887-11.21 18.487-4.517 8.198-12.296 24.845-12.296 26.267 0 1.59-3.597 5.103-5.27 5.103-1.004 0-5.187-1.673-9.37-3.764-4.099-2.008-9.787-4.266-12.547-5.02-6.442-1.672-18.488-1.589-25.43.084-6.693 1.673-19.074 7.278-25.682 11.795-5.605 3.848-9.871 6.107-11.293 6.107-.502 0-3.849-2.76-7.362-6.19-7.11-6.86-10.373-8.867-14.556-8.867-7.194 0-8.95 8.448-4.099 20.327 1.506 3.597 2.677 7.11 2.677 7.78 0 .67-2.258 3.68-5.102 6.692-5.354 5.772-7.446 9.62-7.446 13.636 0 3.597.753 5.019 3.43 6.357 3.43 1.84 8.365 1.506 14.64-.836 7.863-2.928 9.034-2.76 14.304 2.175 14.89 14.053 26.602 5.772 18.32-13.05-2.593-5.856-2.51-8.45.335-10.624 5.604-4.1 24.092-6.86 32.708-4.852 10.457 2.426 20.328 9.955 25.347 19.24l2.426 4.434-.586 11.795c-.67 13.886-1.004 14.639-9.955 27.94-16.06 23.757-31.955 39.317-49.271 48.267-21.75 11.294-46.01 9.119-64.078-5.772-14.138-11.544-25.849-33.21-31.286-58.055-2.677-12.046-2.677-33.879 0-43.08 2.007-6.944 5.186-13.72 9.285-19.827 3.179-4.6 3.263-5.855.418-5.855-3.597 0-11.962 5.019-17.483 10.456-13.3 13.134-19.993 32.541-19.91 58.14 0 26.684 7.948 53.202 22.169 74.283 27.94 41.408 86.162 51.195 141.791 23.84 24.26-11.878 45.675-29.78 61.987-51.613 9.034-12.13 25.681-30.45 28.275-31.119 1.589-.418 3.931.335 8.532 2.677 8.282 4.183 20.83 16.312 26.016 25.18 6.86 11.544 10.038 22.168 7.362 24.426-.67.502-3.848 1.255-7.195 1.757-19.909 2.844-20.494 16.48-.836 22.168 2.593.67 5.354 2.008 6.107 2.844.752.837 1.673 4.183 2.175 7.863.836 6.944 3.178 12.548 5.772 13.97 2.426 1.255 6.943 1.004 9.118-.418 2.593-1.84 5.604-7.529 7.361-13.635 1.757-6.358 2.928-7.278 10.54-8.03 10.792-1.005 17.4-4.936 17.4-10.206 0-5.689-6.776-10.206-18.57-12.465-8.366-1.59-9.035-2.426-9.955-13.384-2.259-26.1-11.293-44.504-32.29-65.668-4.769-4.768-8.868-9.62-9.202-10.707-.335-1.422 1.338-5.605 5.856-15.058 3.43-7.194 7.612-16.48 9.285-20.578 2.928-7.362 4.936-10.54 6.609-10.54.501 0 3.346 1.505 6.357 3.262 9.202 5.52 19.324 7.529 30.199 5.94 3.43-.503 8.616-1.088 11.46-1.423l5.103-.502 2.426 3.514c7.947 11.878 11.126 14.555 16.48 14.137 6.357-.502 8.532-7.362 6.023-19.324-1.59-7.696-1.004-9.62 3.43-12.38 7.36-4.601 11.962-10.122 11.962-14.556 0-6.776-6.86-9.37-18.655-7.027-6.692 1.339-8.365.67-12.297-5.103-3.931-5.855-7.947-9.118-11.962-9.787-2.342-.335-3.346 0-5.605 2.008-2.51 2.258-2.844 3.095-3.179 7.612-.25 3.262.168 7.278 1.088 11.042 2.342 9.537.083 11.712-11.21 10.624-9.118-.753-17.483-7.11-22.419-16.898-2.51-4.935-2.593-6.776-1.17-24.008.836-10.373.836-15.56.083-25.18-.753-9.034-.753-12.966 0-15.56 1.255-4.684 6.358-9.787 11.042-10.958 2.008-.418 6.609-1.84 10.206-3.011 6.274-2.091 6.943-2.091 12.966-1.088 5.605.837 6.943.837 10.624-.418 12.631-4.183 16.814-18.99 8.365-29.948-3.179-4.266-3.346-6.274-1.004-13.719 4.434-14.053 5.605-19.909 6.107-30.868.418-9.787.25-11.376-1.339-15.643-3.513-9.118-11.627-13.468-21.833-11.795z" fill="#f2f2f2"/></svg>