<svg xmlns="http://www.w3.org/2000/svg" viewBox="0 0 512 512" height="682.667" width="682.667" version="1.0"><g fill="#f2f2f2"><path d="M249.122 73.727c-18.912 2.132-36.062 21.878-41.995 48.299-2.41 10.753-2.04 28.645.834 39.77 4.45 17.057 13.535 31.148 24.752 38.75 7.88 5.191 14.091 6.86 23.732 6.396 6.49-.37 8.715-.927 14.555-3.8 12.978-6.397 23.268-20.396 29.016-39.122 2.318-7.509 2.596-9.734 2.596-23.176 0-11.587-.278-16.223-1.669-21.136-3.986-15.018-10.29-26.142-19.56-34.764-9.641-9.085-19.746-12.607-32.261-11.217zm-3.894 71.753c4.172 4.079 2.781 12.422-2.41 14.276-3.708 1.298-14.09 1.298-18.54.093-4.821-1.39-6.768-6.582-4.543-12.515 1.298-3.338 3.708-4.08 14.183-4.08 8.436-.092 9.27.093 11.31 2.226zm41.717 0c4.172 4.079 2.781 12.422-2.41 14.276-3.709 1.298-14.091 1.298-18.634.093-2.966-.835-3.615-1.576-4.542-4.635-1.39-4.728-.186-9.27 2.874-10.847 1.39-.741 6.025-1.205 11.402-1.205 8.436 0 9.27.185 11.31 2.318z"/><path d="M54.259 114.795c-5.84 1.854-9.178 3.893-12.7 7.787-4.821 5.284-6.582 10.753-6.212 18.911.371 6.026 2.41 12.423 17.985 56.179 9.641 27.162 18.262 50.245 19.19 51.172 1.112 1.205 2.966 1.854 5.006 1.854 1.854 0 23.36-5.098 47.835-11.31 35.598-8.992 44.868-11.124 46.908-10.382 3.615 1.205 10.012 11.124 19.19 29.572 8.806 17.8 13.163 29.202 17.057 44.312 4.635 17.892 5.84 26.884 6.304 46.538.648 27.347-2.596 48.762-11.403 75.368-4.357 13.163-6.767 18.633-9.085 20.487-2.318 1.947-3.894-2.04-6.026-15.203-1.112-6.675-4.264-21.878-7.045-33.837-6.397-27.719-7.88-36.989-7.88-49.411 0-8.065-.278-10.105-1.39-10.476-4.914-1.946-15.204 18.17-18.449 35.97-.834 4.264-2.317 16.779-3.337 27.81-2.41 26.42-4.542 36.155-11.032 51.08-2.503 5.748-9.733 16.965-13.349 20.858-5.47 5.748-6.675 3.894-7.416-11.495-.927-16.594-3.894-30.685-6.49-29.85-.556.278-1.668 3.337-2.317 6.86-2.41 12.885-4.079 18.633-7.787 26.142-5.84 11.866-19.468 25.4-34.115 33.837-2.318 1.298-5.191 3.337-6.397 4.45-1.946 1.854-2.04 9.632-.649 11.022 1.391 1.39 17.892 1.484 196.254 1.762 133.864.092 195.883-.093 198.386-.742 2.04-.556 3.615-1.576 3.615-2.317 0-.742-4.079-12.228-8.992-16.307-19.283-16.13-24.474-25.865-27.07-50.524-1.39-12.793-2.688-18.17-6.025-24.752-3.06-6.025-7.324-10.104-8.9-8.528-.556.556-1.39 4.357-1.854 8.528-.556 4.172-2.781 13.999-5.006 21.786-2.225 7.694-4.635 16.594-5.284 19.653-1.298 6.026-3.616 9.085-6.119 8.158-2.688-.927-13.905-12.237-19.653-19.839-16.872-22.249-23.64-44.312-25.586-83.711-.834-15.574-1.483-17.428-4.357-11.31-5.933 12.422-11.866 61.37-10.568 87.327.463 8.158.278 12.978-.371 14.832l-1.112 2.689-2.41-2.967c-4.914-5.747-15.111-34.764-20.025-56.827-5.655-25.772-7.138-55.251-3.893-78.242 3.986-27.996 14.09-56.642 28.738-81.579 5.47-9.178 7.045-10.754 11.31-10.754 1.39 0 21.507 4.821 44.683 10.754 25.215 6.397 43.385 10.568 45.425 10.383 2.132-.186 3.8-1.02 5.006-2.596.927-1.298 9.455-24.01 18.911-50.523 15.667-43.664 17.336-48.948 17.707-55.622.463-6.397.185-8.251-1.576-12.33-8.251-19.097-38.287-21.322-48.577-3.708-1.205 2.225-6.86 15.852-12.515 30.314-5.655 14.554-11.032 27.255-12.052 28.182-1.02 1.112-2.966 1.854-4.542 1.761-1.576 0-17.706-5.099-35.876-11.217-18.17-6.211-34.115-11.217-35.32-11.217-3.152 0-4.821 2.317-8.158 11.217-12.237 32.539-35.97 51.265-63.131 49.69-26.143-1.391-47.094-19.654-58.311-50.71-4.635-12.607-2.04-12.607-39.677 0-38.565 12.979-39.214 13.164-41.995 11.866-2.596-1.205-3.8-3.708-15.296-33.558-9.363-24.196-12.144-29.387-17.8-33.56-6.117-4.542-16.593-6.21-24.38-3.707z"/><path d="M383.357 347.017c-5.47 2.503-11.403 8.714-14.462 15.204-2.225 4.82-2.689 6.952-2.689 12.793 0 6.025.464 7.88 2.874 12.7 3.338 6.767 9.456 12.422 12.886 12.052 2.132-.279 2.318-.65 2.132-4.45-.185-2.318-.278-8.992-.37-14.833-.186-11.031.092-12.422 6.118-28.645 1.112-3.06 1.205-4.265.37-5.284-1.39-1.669-2.41-1.576-6.86.463z"/></g></svg>