<svg version="1.0" xmlns="http://www.w3.org/2000/svg" width="682.667" height="682.667" viewBox="0 0 512 512"><g fill="#f2f2f2"><path d="M219.4 27.5c-2.5 2.5-2.6 2.8-2.2 15 .3 10.9.6 12.7 2.3 14.4 2.9 2.9 30.7 12.1 36.4 12.1 6 0 34.2-9.3 36.7-12.1 1.6-1.8 2-4.1 2.2-14.5.4-12.1.3-12.4-2.2-14.9l-2.5-2.5h-68.2l-2.5 2.5zm3.6 54c-1 1.2-.6 2.5 2 7.2 6.2 11 17.4 26.6 20.4 28.4 3.9 2.4 16.3 2.6 20.6.4 3.1-1.6 8.5-8.7 17.4-22.9 5.7-9.1 6.9-13.2 4-14.3-.8-.3-7.3 1.3-14.3 3.6C266 86.1 258.3 88 256 88c-2.4 0-9.9-1.8-16.6-4-13.8-4.5-14.6-4.6-16.4-2.5z"/><path d="M187.5 117.8c-21.1 7.1-23.1 8-25.1 11-3 4.4-9.8 32.4-9 36.7.7 3.3 8.3 23.4 12.8 33.5 1.4 3 12.7 19.2 25.3 36 12.5 16.8 23.4 31.9 24.2 33.7.7 1.8 1.3 6.8 1.3 11.3 0 7.3.3 8.3 2.5 10.5l2.4 2.5h68.2l2.4-2.5c2.2-2.2 2.5-3.2 2.5-10.5 0-4.5.6-9.5 1.3-11.3.8-1.8 11.7-16.9 24.2-33.7 12.6-16.8 23.9-33 25.3-36 4.5-10.1 12.1-30.2 12.8-33.5.8-4.3-6-32.3-9-36.7-1.9-3-4-4-24.6-11-12.4-4.2-23.7-7.7-25.1-7.7-3.9-.1-7 2.8-14.8 14.3-5.3 7.9-7.8 10.7-10.2 11.5-4.2 1.5-33.6 1.4-37.8 0-2.5-.9-4.8-3.5-10.1-11.4-7.3-10.8-10.9-14.5-14.4-14.5-1.1 0-12.4 3.5-25.1 7.8zm75 44.7c2.5 2.4 2.5 2.5 2.5 22.4 0 23.4.4 25.1 6.2 25.1 2.1 0 11.9-2 21.8-4.5s18.8-4.5 19.8-4.5c3.8 0 6.4 3.3 6.9 8.6.4 4 .2 5.2-1.5 6.8-2.9 2.5-54.8 15.5-62.2 15.6-7.2 0-59.4-13.2-62.2-15.7-1.6-1.5-1.9-2.7-1.5-6.7.5-5.3 3.1-8.6 6.9-8.6 1 0 9.9 2 19.8 4.5s19.5 4.5 21.4 4.5c6.2 0 6.6-1.6 6.6-24.8 0-20.2 0-20.3 2.5-22.7 3.4-3.5 9.6-3.5 13 0zm-140.3-37.6c-9.2 4.7-16.9 9.2-18.1 10.7-1.1 1.4-6.1 15-11.2 30.1-9.8 29.6-10 31.5-4.6 32.8 1.3.4 9.4.5 18 .3 14.3-.3 15.8-.5 17.8-2.4 1.5-1.6 4.3-11 11.2-38.8 9.6-38.3 9.8-39.7 5-40.4-1.1-.2-9.2 3.3-18.1 7.7zm247-6.7c-.7.7-1.2 2-1.2 3 0 .9 4 17.8 8.9 37.4 6.7 26.9 9.5 36.2 11.1 37.8 1.9 1.9 3.4 2.1 17.7 2.4 8.6.2 16.7.1 18-.3 5.4-1.3 5.2-3.2-4.6-32.8-5.1-15.1-10.1-28.7-11.2-30.1-2.1-2.7-32.7-18.6-35.8-18.6-.9 0-2.2.5-2.9 1.2zm-277 100.4c-1.2.8-2.2 2.4-2.2 3.5 0 1.8 18.5 59.4 22.7 70.7 2 5.4 4.3 6.8 8 4.8 5.8-3 12.3-11.5 12.3-16.1 0-4.1-10.6-56.5-12.1-59.7-1.7-3.8-4.9-4.8-16.2-4.8-7.7 0-10.8.4-12.5 1.6zm302.2-.4c-1.2.5-2.7 2.2-3.3 3.6-1.5 3.2-12.1 55.6-12.1 59.7 0 4.6 6.5 13.1 12.3 16.1 3.7 2 6 .6 8-4.8 4.2-11.3 22.7-68.9 22.7-70.7 0-3.9-3.6-5.1-15-5-5.8 0-11.5.5-12.6 1.1zm-218.5 79.9c-18.5 9.2-21.7 11.1-23 14.5-1 2.8-4.9 38.2-4.9 45 0 3.4.6 5.1 2.4 6.9 2.5 2.5 19.7 8.5 24.5 8.5 4.7 0 20.8-8.6 22.6-12 2.3-4.4 2.2-65.5-.1-68.8-.8-1.2-2.3-2.2-3.4-2.2-1 0-9.1 3.6-18.1 8.1zm138.7-5.9c-2.3 3.3-2.4 64.4-.1 68.8 1.8 3.5 18 12 22.8 12 4.8 0 21.8-6 24.4-8.6 1.7-1.7 2.3-3.4 2.3-6.8 0-6.8-3.9-42.2-4.9-45-.6-1.3-2.2-3.3-3.8-4.4C350.8 305 320 290 318 290c-1.1 0-2.6 1-3.4 2.2zm-95.1 21.3c-1.6 1.5-2.5 3.6-2.5 5.5s.9 4 2.5 5.5l2.4 2.5h68.2l2.4-2.5c1.6-1.5 2.5-3.6 2.5-5.5s-.9-4-2.5-5.5l-2.4-2.5h-68.2l-2.4 2.5zm-73.3 73.8c-1.6 1.9-2 4.6-4.2 26.2-3 29.7-2.7 33.5 2.4 33.5 2.1 0 40.1-14.8 47.7-18.6 2.5-1.2 5-3.4 5.7-4.9.8-1.6 1.2-8.1 1.2-17.8 0-21-1-22.3-12.8-16.7-8.1 3.8-12.4 3.8-23.7 0-9.5-3.2-14.6-3.8-16.3-1.7zm168.4.9c-1.3 1.8-1.6 5.3-1.6 17.5 0 16.5.7 19.6 5 21.8 5.4 2.8 48.1 19.5 49.8 19.5 3 0 4.2-2.2 4.2-7.9 0-8.9-4.1-47.4-5.4-50.1-1.6-3.6-6.4-3.7-17 0-11.4 3.8-15.7 3.8-23.8 0-7.5-3.6-9.2-3.7-11.2-.8zM166 458.5c-24.7 9.9-28.9 11.9-31.7 15.1-4.4 5-5.2 9.2-2.3 11.6 2 1.7 5 1.8 37.9 1.8 40.1 0 40.1 0 40.1-6.6 0-3.9-5.5-26.5-7.2-29.8-1.5-2.8-2.8-3.6-5.8-3.5-1.4 0-15.3 5.1-31 11.4zm143.6-8.7c-2.1 4-7.6 26.3-7.6 30.6 0 6.6 0 6.6 40.1 6.6 32.9 0 35.9-.1 37.9-1.8 3.1-2.5 2-7.1-2.8-12.1-3.2-3.3-7.7-5.4-31.8-14.9C330 452 315.9 447 314.2 447c-2.4 0-3.5.6-4.6 2.8z"/></g></svg>