<svg version="1.0" xmlns="http://www.w3.org/2000/svg" width="682.667" height="682.667" viewBox="0 0 512 512"><g fill="#f2f2f2"><path d="M196.5 29.3c-.8 1.3-3.6 7.9-6.1 14.8-2.5 6.8-5.2 13.2-6.1 14.1-2.5 2.8-7 2.2-20.7-2.7-16.9-6-21.5-5.9-18.2.2.8 1.5 6.6 8.9 13 16.3 9 10.5 11.6 14.1 11.6 16.4 0 2.4-2.1 4.9-11.2 14-12.3 12.2-20 22.3-27.5 36.1-6 11.2-7.3 11.9-16.8 9.8-9.7-2.2-27.1-2.1-36 .1-27.5 7-49.5 28.8-57.1 56.6-2.7 9.9-2.5 29.1.4 39.4 7.7 26.8 28.1 47.2 54.8 54.7 6.1 1.8 10.6 2.3 19.9 2.3 15 0 23.7-2.2 38.3-10 5.7-3 11.1-5.4 12.1-5.4 1.7 0 14.3 8.2 18.9 12.3 3.1 2.9 2.8 5.9-1.8 13.7-5.4 9.2-9.7 20.3-12 30.8-3.5 15.8-2.5 19.1 8.7 26.5 42.1 28 132.9 30.8 182.7 5.7 16.6-8.4 21.4-13.9 20.2-23.4-1.5-11.1-4.9-21.5-11.1-34.2-3.6-7.2-6.5-14-6.5-15.1 0-1 1.2-3.1 2.8-4.5 4.4-4.1 16.5-11.8 18.6-11.8 1 0 5.3 2 9.5 4.4 23.9 13.8 49.4 15.1 73.5 3.7 35.7-16.8 53-58.5 39.8-96-4.2-11.7-8.7-18.6-18.7-28.6-10.2-10.2-18.3-15.4-30-19.1-14.8-4.7-26.4-5.2-42.5-1.9-8.8 1.8-10.4 1-15.8-9-2.5-4.4-7.1-11.9-10.3-16.6-8.2-11.9-7.9-13.2 3.1-16.5 5.1-1.5 7.3-3.3 6.2-5-1.2-2-6.3-4-25.7-10.4-12.5-4.1-19.8-7-21.5-8.6l-2.4-2.4 2.2-4.2c1.3-2.4 3.9-6.8 5.8-9.8 1.9-3 3.3-6.1 3.2-6.9-.7-3.6-3.2-3.6-30 .7L287.5 64l-21.5-.6c-17.3-.5-23.4-.3-31.2 1-12.5 2-15.1 2-17.2-.2-.9-1-4.4-9-7.7-17.8-7.6-19.8-9.8-22.6-13.4-17.1zm-89.6 138.8c7.1 1.5 10.1 4.1 10.1 8.9 0 2.2-.8 4.7-1.9 6.1-1.8 2.3-1.9 2.3-11.3 1-7.6-1-10.7-1.1-15.4-.1-16.4 3.4-29.1 16.1-32.4 32.5-3.6 17.4 5.6 35.7 22.1 43.9 11.9 6 23.6 5.8 36.8-.4 7.9-3.8 9.3-3.7 12.6.1 5.6 6.8.7 13.3-13.6 18-10.4 3.4-26.4 3.4-36.1.1-16.5-5.7-30.1-19.2-35.8-35.5-3-8.6-3.8-23.1-1.6-31.7 3.6-14.3 12.8-27.2 24.9-35.1 5.4-3.5 14.8-7.2 20.7-8.2 5.1-.9 16.1-.7 20.9.4zm325.5.9c10.9 2.8 16.9 6.3 25.7 15 8.7 8.7 12.9 16.2 15.5 27.7 6.7 30.4-12 60.2-42.6 67.9-13.1 3.3-33.2 0-42.4-7.1-4.8-3.6-5.6-6.6-3-11.3 2.5-4.7 5.3-5 13.4-1.3 13.9 6.4 26.1 6.4 38.2-.1 14.9-8 24-26.1 21-42.1-4.2-22.5-25.2-37.8-46.6-33.9-9.1 1.7-11.3 1.5-13-1-2.3-3.2-2-9.1.4-11.3 5-4.6 20.8-5.8 33.4-2.5zm-224.1 17c10.1 3.9 19.4 13.7 22.3 23.8 2.5 8.4 1.6 20.1-2.1 27.5-3.8 7.7-12.6 15.8-20.2 18.7-8.4 3.1-21.6 2.6-29.3-1.2-11-5.4-19.3-16.7-20.9-28.2-3.9-28.7 23.4-50.7 50.2-40.6zm125.2 3.1c7.3 2.7 15.6 10.4 19.2 17.7 2.5 5.1 2.8 6.8 2.8 15.7 0 8.9-.3 10.6-2.8 15.6-3 6.2-10.3 13.6-16.3 16.7-9.5 4.9-22.5 4.7-32.4-.3-6.4-3.2-14.4-12.2-16.9-19-2.9-7.6-2.8-18.5.1-26.2 2.9-7.8 12.1-17.1 19.8-20.1 7.5-2.9 18.9-2.9 26.5-.1zM243 270.5c1.3 1.1 2 3.1 2 5.3 0 4.6-5.7 24.2-7.7 26.4-3.2 3.5-13.5 1.1-15.3-3.6-1-2.8 2.6-18.5 6.1-26.5l1.9-4.3 5.5.4c3.4.3 6.2 1.2 7.5 2.3zm40.6-1.7c1.8 1.2 3 4.2 5.8 14.3 4.4 16.2 3.3 19.5-6.7 20.6-5.8.7-7.3-1.2-10.8-13.9-4.3-15.1-4-18.6 1.6-20.8 2.5-1.1 8.7-1.2 10.1-.2z"/><path d="M155 394.6c0 10 16 29.6 31 38.1 9 5 25.1 10.6 37.5 12.8 12.4 2.3 41.6 3.1 55.7 1.5 37.1-4 64.4-19.2 76.3-42.3 5.7-11.3 4.4-15.7-3.9-12.4-25.1 9.9-36.5 13.2-56.6 16.3-14.5 2.3-58.5 2.6-72.5.6-20.9-3.2-38.9-8-54.7-14.8-4.4-1.9-9.1-3.4-10.4-3.4-2.1 0-2.4.5-2.4 3.6z"/></g></svg>