<svg xmlns="http://www.w3.org/2000/svg" viewBox="0 0 512 512" height="682.667" width="682.667" version="1.0"><g fill="#f2f2f2"><path d="M231.888 48.592c-1 .273-4.09 1-6.817 1.727-4.363 1.091-139.162 49.539-158.25 56.901-13.634 5.272-16.634 9.999-17.634 27.905-1.181 22.088-6.908 215.06-6.635 225.149.272 10.09.454 11.271 2.818 15.27 3.18 5.454 8.635 9 23.632 15.544 6.09 2.726 46.266 20.27 89.26 39.176 42.994 18.815 80.988 34.995 84.533 35.994 9.18 2.545 19.997 2.364 29.996-.545 28.36-8.271 170.157-52.901 174.974-55.083 3.272-1.545 6.636-3.454 7.544-4.272 3.091-2.818 5.272-8.362 6.181-15.907.818-6.999 7.09-203.697 7.363-232.875.182-11.998 0-14.088-1.636-17.724-2.363-5.09-6.636-9.363-12.09-11.908-7.09-3.363-183.518-72.534-193.698-75.989-7.817-2.635-11.09-3.272-18.634-3.544-5-.182-9.907-.091-10.907.181zm25.269 23.542c11.18 1.91 25.36 6.454 50.174 15.907 53.81 20.543 83.533 33.722 94.804 42.176 10.363 7.635 11.544 14.816 3.636 21.997-6.453 5.817-31.268 16.27-66.626 28.086-46.72 15.543-80.898 18.543-105.894 9.272-9.18-3.363-106.712-46.175-115.62-50.811-10.27-5.272-15.27-9.999-15.27-14.634 0-9.09 11.817-16.089 50.902-30.178 37.358-13.452 55.628-19.179 70.444-21.815 8.817-1.636 24.178-1.636 33.45 0zm-162.25 77.353c23.997 7.908 99.895 42.902 119.983 55.355 36.086 22.27 44.812 42.994 42.085 99.44-1.364 27.723-4.272 67.808-6 82.806-5.09 43.994-15.542 51.538-53.446 38.994-16.816-5.635-71.08-28.086-91.532-37.903-32.632-15.725-43.266-27.541-45.448-50.447-.636-6.817 3.636-154.705 4.909-172.43 1.545-20.087 7.18-23.178 29.45-15.815zm340.86 26.723c8.999 5 12.362 15.543 13.452 41.176.637 14.18-.727 66.081-2.363 93.804-4.09 67.172-14.998 84.079-66.354 102.53-13.089 4.727-63.354 20.089-79.534 24.27-13.907 3.636-23.632 4.09-27.45 1.272-5.09-3.817-6.181-6.999-6-18.088.183-14.907 10.09-159.34 11.635-170.43 3.364-23.723 12.999-32.358 54.083-48.629 15.998-6.272 54.083-20.179 62.355-22.724 20.542-6.271 32.904-7.271 40.176-3.181z"/><path d="M265.52 112.038c-11.363 2.636-20.089 7.362-26.633 14.543-8.908 9.726-11.362 22.178-6.272 32.54 7.817 15.998 27.996 20.816 59.718 14.362 46.175-9.453 79.989-23.815 79.989-33.995 0-3.727-1.727-6.09-7-9.453-9.452-6-27.813-11.817-51.628-16.18-15.725-2.908-39.54-3.817-48.175-1.817zm-85.897 107.984c-1.182.636-3.09 2.545-4.272 4.181-1.91 2.909-2.455 4.817-5.182 19.543-3.18 16.997-12.452 27.541-27.814 31.904-2.727.727-11.089 2.272-18.633 3.272-24.36 3.454-32.45 7.817-39.176 21.088-10.362 20.452-7.817 37.813 7.726 53.447 13.725 13.907 30.723 23.087 75.989 41.176 24.087 9.634 30.268 11.543 37.721 11.543 7.727 0 11.544-1.454 16.27-6.18 5.09-5.09 8.272-12.362 11.18-25.815 1.728-8.272 2-12.09 2-32.995.092-18.816-.272-25.724-1.545-33.632-3.272-19.542-8.362-36.54-15.18-50.901-5.998-12.544-10.998-19.816-18.542-27.36-8.635-8.544-15.725-11.725-20.542-9.271zm219.058-7.272c-4.999 2.545-9.453 8.817-10.816 15.27-.546 2.546-1 9.181-1 14.817 0 18.088-3.09 30.54-11.816 47.72-6.181 12.18-12.999 21.36-20.906 27.996-7.272 6.18-13.635 9.09-25.906 12.18-13.361 3.272-19.36 6.09-25.814 12.27-7.726 7.363-11.271 14.908-11.726 25.179-.545 11.544 1.273 16.816 8.454 24.087 7.817 7.817 13.361 9.544 30.904 9.544 20.179-.09 35.722-4 51.174-13.089 7.908-4.635 22.543-19.724 27.815-28.905 14.452-24.632 21.815-61.9 20.178-102.257-1-23.542-3-32.086-9.362-39.54-6.09-7.09-13.816-8.999-21.179-5.272z"/><path d="M339.872 225.294c-33.995 3.636-47.811 18.36-39.54 41.903 3.454 9.816 11.817 20.906 19.088 25.087 13.09 7.726 31.814-3.09 42.358-24.542 7.271-14.816 8.544-29.632 3.09-36.54-4.09-5.272-12.634-7.272-24.996-5.908z"/></g></svg>