<svg xmlns="http://www.w3.org/2000/svg" version="1.0" width="682.667" height="682.667" viewBox="0 0 512 512"><g fill="#f2f2f2"><path d="M251.5 38.66c-3.14 3.35-16.953 29.616-19.151 36.21-1.465 4.604-1.57 5.755-.314 9.209 3.767 9.941 27.104 13.5 41.65 6.279 3.664-1.884 5.129-3.35 6.28-6.28 1.883-5.232.314-10.15-9.628-28.674C262.174 39.916 259.349 36.15 256 36.15c-1.256 0-3.244 1.151-4.5 2.511z"/><path d="M193.21 94.23c-21.872 7.43-60.174 28.988-66.034 37.255-5.547 7.744-19.465 94.08-23.546 145.777-3.14 40.814-.733 108.104 4.395 117.941 2.302 4.605 12.244 8.267 15.593 5.756 1.883-1.36 1.883-1.884.628-8.477-1.466-7.011-1.466-7.011 1.36-9.732 1.465-1.57 6.907-5.233 11.93-8.058 11.093-6.489 11.407-7.535 5.965-19.884-1.988-4.604-5.756-14.965-8.267-23.023-10.988-34.325-16.326-52.534-16.326-55.255 0-5.128 4.082-3.663 16.954 6.384 17.79 13.709 27.627 20.616 49.5 34.743 10.987 7.012 26.894 17.582 35.476 23.442l15.592 10.57h39.035l24.488-16.326c13.5-9 32.232-21.348 41.546-27.523 9.314-6.07 23.546-16.325 31.709-22.604 15.802-12.244 19.883-14.023 19.883-8.686 0 2.72-5.337 20.93-16.325 55.255-2.512 8.058-6.279 18.419-8.267 23.023-5.442 12.349-5.128 13.395 5.965 19.884 5.023 2.825 10.465 6.488 11.93 8.058 2.825 2.72 2.825 2.72 1.36 9.732-1.255 6.593-1.255 7.116.628 8.477 3.663 2.72 13.71-1.36 15.802-6.489.733-1.883 2.198-9.209 3.245-16.325 1.465-10.465 1.883-20.407 1.883-53.162 0-50.65-2.302-77.127-12.035-135.522-6.383-38.092-9.837-54.313-12.558-58.08-3.244-4.605-25.325-18.838-41.336-26.686-16.012-7.85-35.058-14.547-38.512-13.5-1.255.418-4.709 3.349-7.744 6.593-9.418 10.465-23.441 15.802-41.127 15.802-17.79 0-31.709-5.337-41.232-15.802-2.93-3.35-6.593-6.28-7.954-6.593-1.674-.419-6.802.732-13.604 3.035zm30.348 57.034c1.152.628 5.024 3.349 8.582 6.07 18.418 13.918 32.441 13.709 49.29-.733 3.244-2.826 6.907-5.546 8.058-5.86 4.71-1.465 13.081 7.116 11.825 12.139-1.046 3.663-14.965 15.488-22.709 19.256-17.79 8.476-34.848 6.802-52.953-5.233-8.895-5.965-14.86-12.244-14.86-15.488 0-3.244 2.93-7.744 6.384-9.628 3.349-1.779 3.872-1.884 6.383-.523zm-62.79 4.71c23.337 7.43 60.697 28.569 76.29 43.22 6.593 6.174 6.803 8.476 1.256 13.918-5.965 5.965-8.058 5.651-19.465-3.244-21.872-17.163-51.802-32.442-72.732-37.256-3.767-.941-7.848-2.302-9.104-3.034-3.977-2.617-4.081-13.71 0-16.535 2.198-1.465 14.546.105 23.755 2.93zm214.219-2.826c2.198 1.36 3.558 6.802 2.93 10.883-.837 4.919-3.035 6.488-12.035 8.581-21.348 4.919-47.301 18.21-74.092 38.093-5.337 3.977-9.837 6.488-11.407 6.488-3.244 0-10.779-7.116-10.779-10.15 0-3.245 3.454-6.908 13.919-14.756 22.918-17.268 52.116-32.337 73.464-37.988 7.64-1.989 15.907-2.512 18-1.151zm-224.579 45.418c18.523 16.22 31.395 24.906 46.046 31.185 14.546 6.175 34.744 9.837 40.918 7.535 1.465-.628 5.337-4.604 8.477-8.79 3.035-4.186 6.384-8.268 7.325-9.105 3.14-2.512 6.28-.419 12.558 8.267 3.558 4.919 7.221 8.896 8.896 9.524 6.174 2.406 26.371-1.256 40.918-7.43 14.65-6.28 27.523-14.966 46.046-31.186 4.081-3.558 8.372-6.489 9.523-6.489 1.151 0 3.977 1.675 6.279 3.768 6.488 5.86 5.965 8.581-3.558 17.79-4.186 4.082-11.512 10.36-16.22 13.919-9.838 7.535-10.675 9.418-7.536 17.058 7.744 18.523-4.918 38.51-24.488 38.51-10.779 0-22.081-7.534-25.116-16.638-1.988-6.175-4.71-8.896-7.744-7.954-3.244.942-2.72 4.71 1.256 10.047 1.988 2.511 6.907 10.046 10.988 16.639 10.047 16.116 10.151 17.581.523 27.104-7.534 7.43-14.337 11.302-24.383 13.814-7.849 1.988-42.279 1.988-50.232 0-10.256-2.512-18.942-7.325-25.849-14.337-9-8.895-8.895-10.36.838-26.372 4.186-6.697 9-14.128 10.883-16.43 4.082-5.023 4.71-6.802 3.454-9.21-2.093-4.08-6.07-.94-8.268 6.49-3.558 12.139-20.72 19.778-34.116 15.383-15.07-5.023-22.29-21.767-15.906-37.046 3.14-7.64 2.302-9.523-7.535-17.058-4.71-3.558-12.035-9.837-16.221-13.919-9.523-9.209-10.046-11.93-3.558-17.79 2.302-2.093 5.128-3.768 6.279-3.768 1.151 0 5.442 2.93 9.523 6.489z"/><path d="M182.222 252.251c-3.035 2.93-3.244 4.395-.942 7.64 1.884 2.72 6.802 3.14 9.209.627 2.512-2.406 2.093-7.325-.628-9.209-3.244-2.302-4.71-2.093-7.64.942zm139.917-.941c-2.721 1.883-3.14 6.802-.628 9.208 2.407 2.512 7.325 2.093 9.209-.627 2.302-3.245 2.093-4.71-.942-7.64-2.93-3.035-4.395-3.244-7.64-.942zM251.5 255.6c-1.465 1.674-8.372 11.197-15.279 21.244-13.395 19.36-14.546 22.081-10.256 25.848 4.605 4.186 9.524 5.024 30.558 5.024 18.105 0 20.302-.21 24.802-2.303 5.86-2.72 7.535-5.337 5.965-9.418-1.36-3.558-23.232-36.314-26.895-40.395-1.465-1.57-3.453-2.826-4.395-2.826-.942 0-2.93 1.256-4.5 2.826zM11.851 208.298c-1.15 1.151-1.57 2.616-1.15 4.081.941 3.35 8.267 14.86 22.185 35.163 13.29 19.255 24.698 37.674 33.802 54.627 6.28 11.826 8.686 14.651 11.72 14.233 3.036-.419 3.664-3.872 4.082-21.977l.314-15.802-10.674-10.046c-5.86-5.547-10.78-10.78-10.884-11.617-.418-3.872.314-5.65 3.663-9 4.081-4.08 7.116-4.5 11.616-1.465 3.663 2.407 7.116 2.721 8.79.733.629-.837 1.57-4.814 2.198-9 1.466-10.151 0-13.5-7.534-17.79-11.93-6.907-33.907-12.35-54.21-13.396-10.673-.523-12.348-.418-13.918 1.256zm466.007-.838c-15.698 1.675-36.523 7.536-45.837 12.978-7.535 4.29-9 7.639-7.535 17.79.628 4.186 1.57 8.163 2.198 9 1.675 1.988 5.128 1.674 8.79-.733 1.78-1.15 4.187-2.093 5.338-2.093 4.814 0 11.302 8.058 10.15 12.663-.313.942-5.127 6.07-10.778 11.302-7.849 7.221-10.36 10.256-10.884 12.872-.837 5.023.942 33.174 2.303 34.535.628.628 2.197.837 3.558.523 2.616-.733 3.767-2.407 16.43-25.325 4.186-7.535 14.965-24.593 23.965-37.988 26.476-39.244 27.732-41.546 24.802-44.581-1.36-1.256-3.663-1.675-10.256-1.465-4.71 0-10.256.314-12.244.523zM156.582 326.553c-.732.941-1.046 2.825-.627 4.709 1.046 5.756 6.802 18.314 10.15 22.29 3.873 4.71 7.535 5.024 17.372 1.675 7.64-2.512 10.36-5.023 8.791-8.058-1.151-2.093-28.36-20.407-32.127-21.558-1.36-.419-2.721-.105-3.559.942zm192.138.627c-7.43 3.977-28.57 18.524-29.198 20.093-1.046 2.721 2.303 5.756 8.896 7.954 9.942 3.349 13.604 3.035 17.476-1.675 3.35-3.976 9.105-16.534 10.151-22.29.628-2.826-.837-6.28-2.616-6.28-.314 0-2.511.943-4.71 2.199zm-130.185 46.465c-22.918 2.616-45.418 7.535-59.65 13.081-9.837 3.872-11.721 5.547-11.721 10.675 0 5.128 10.046 45.522 12.14 48.767 2.302 3.453 6.697 5.023 22.604 7.953 27.418 5.128 42.069 6.279 74.615 6.279 32.546 0 45.104-1.151 73.778-6.279 16.221-2.93 19.989-4.29 22.396-8.058 2.407-3.767 12.244-44.372 11.93-49.186-.21-3.558-.942-4.709-3.663-6.593-7.326-4.918-35.267-12.348-58.918-15.592-16.953-2.407-66.244-3.035-83.51-1.047zm55.779 9.942c6.383.628 16.22 2.093 21.976 3.244 14.128 2.93 35.372 9.837 37.674 12.453 2.303 2.512 2.303 7.012 0 11.512-3.035 5.756-4.918 5.86-19.779 1.151-23.127-7.43-33.488-9-58.185-8.895-19.151 0-22.814.314-34.535 2.825-7.22 1.465-18.418 4.396-24.906 6.489-6.907 2.197-12.663 3.453-13.919 3.14-5.232-1.675-8.162-13.082-4.29-16.536 4.29-3.976 34.534-12.244 51.592-14.232a1448.14 1448.14 0 0012.977-1.57c6.907-.732 20.511-.523 31.395.419z"/></g></svg>