<svg xmlns="http://www.w3.org/2000/svg" viewBox="0 0 512 512" height="682.667" width="682.667" version="1.0"><path d="M244.346 31.354c-53.193 8.375-102.82 45.594-122.05 91.188-4.962 12.097-9.149 31.172-9.149 41.717.155 21.402 11.631 48.54 23.417 54.9 4.498 2.325 8.84-.776 25.124-18.766 26.053-29 59.24-56.915 95.995-81.107 28.845-18.92 44.354-27.605 81.108-45.44 16.749-8.064 30.861-15.818 31.326-17.214 2.482-6.203-18.61-15.198-52.727-22.331-16.439-3.567-58.466-5.118-73.044-2.947zm166.558 42.958c-4.032 1.55-7.754 5.428-7.754 8.374 0 2.792 14.112 16.439 23.572 22.797 7.29 4.653 11.321 3.722 9.926-2.481-1.706-6.979-9.77-23.107-13.182-26.519-3.102-3.102-7.754-3.877-12.562-2.171zm-69.787 29.62c-4.032 2.327-5.583 4.188-5.893 7.6-.465 4.032.775 5.737 7.444 11.786 9.925 8.53 14.578 11.166 17.99 9.77 2.17-.776 2.48-2.326 1.55-10.546-1.395-13.337-5.117-20.47-11.01-21.09-2.482-.156-7.134.93-10.08 2.48zm53.193 19.696c-2.17 5.738 3.877 31.171 8.375 35.824 3.101 2.946 9.46 2.326 19.695-2.327 12.562-5.427 9.77-11.32-13.492-29-9.77-7.289-13.027-8.22-14.578-4.497zm-119.413 17.834c-7.909 4.498-12.872 9.77-12.872 13.492 0 4.498 20.006 17.525 26.985 17.525 6.048 0 7.444-4.343 5.428-17.37-1.861-12.406-4.653-18.3-8.84-18.3-1.396 0-6.203 2.172-10.7 4.653zm51.023 11.166c-4.653 4.653-.311 28.69 5.582 31.637 6.358 3.101 22.797-2.326 24.813-8.375.776-2.48-11.01-14.732-19.54-20.47-7.91-5.273-8.22-5.428-10.856-2.792zm79.556 40.166c-72.888 25.279-135.852 42.803-196.644 55.054-18.454 3.567-30.55 6.824-32.567 8.53-3.256 2.636-3.256 2.946-.775 7.134 3.412 5.893 22.797 18.92 36.91 24.813 24.192 10.08 47.454 14.422 78.626 14.422 23.262 0 38.305-1.706 58.776-6.978 53.038-13.493 98.167-55.83 106.23-99.718 1.862-10.08-.464-16.439-6.358-16.904-2.17-.155-22.021 6.048-44.198 13.647zm-166.092-2.481c-3.412 8.22-2.947 17.37 1.24 19.54 6.669 3.567 29.156-3.722 29.156-9.46 0-4.962-16.284-15.508-24.038-15.508-3.102 0-4.497 1.24-6.358 5.428zm-40.322 13.182c-4.342 1.706-11.476 10.39-11.476 13.957s4.653 5.118 9.615 3.257c4.808-1.861 7.134-4.808 8.375-10.546 1.085-5.427-1.706-8.374-6.514-6.668zm-51.642 86.07c-3.257 4.343-8.685 25.279-10.39 40.477-4.188 38.925 22.331 73.819 64.358 84.52 13.803 3.566 45.595 6.047 79.247 6.047 37.22.155 52.883 4.498 53.969 15.198.465 4.188-.776 6.204-7.29 12.562-11.165 11.321-34.427 26.054-42.647 27.294-11.476 1.861-28.07-2.016-42.492-9.46-7.134-3.722-14.112-6.823-15.663-6.823-3.877 0-9.15 4.187-11.942 9.615-3.566 6.979-.93 11.631 11.476 20.005 5.739 3.878 10.546 8.22 10.856 9.616.31 1.395-.93 4.807-2.946 7.443-2.482 3.567-2.947 5.118-1.551 6.514 1.396 1.396 15.508 1.86 51.177 1.86h49.316l8.684-5.737c24.348-16.129 43.423-37.53 49.316-55.364 4.498-13.337 3.567-28.225-2.48-41.252-5.739-12.096-23.108-29.466-35.36-35.359-18.454-8.84-29.155-10.545-76.3-11.941-58.776-1.861-69.011-3.567-77.54-12.407-4.498-4.652-4.653-5.272-4.808-20.78-.155-8.84-.776-17.06-1.551-18.455-1.55-2.637-38.15-27.45-40.631-27.45-.93 0-3.102 1.706-4.808 3.877zm233.398 53.969c-6.668 2.016-9.615 5.583-8.22 9.305.466 1.395 4.498 5.117 8.84 8.219 9.305 6.669 45.905 25.433 49.627 25.433 3.101 0 11.63-8.84 13.182-13.647 2.636-8.84-29.31-29-48.076-30.55-5.273-.466-11.941.154-15.353 1.24zm-358.859 57.38c-4.342 4.652-6.514 11.631-4.808 16.129 2.327 6.513 42.803 23.107 67.46 27.604 15.044 2.947 26.21 2.171 37.996-2.326 9.15-3.412 17.99-10.08 20.936-15.818 2.016-3.878 2.016-4.808-.155-8.84-2.792-5.583-9.46-11.011-13.492-11.011-1.706 0-7.289 2.481-12.252 5.583-8.994 5.583-9.305 5.738-21.246 4.808-14.112-1.241-27.45-4.808-46.214-12.717-18.145-7.754-23.573-8.375-28.225-3.412z" fill="#f2f2f2"/></svg>