<svg xmlns="http://www.w3.org/2000/svg" viewBox="0 0 512 512" height="682.667" width="682.667" version="1.0"><path d="M295.83 44.052c-10.022 1.367-20.956 5.285-28.336 10.205-4.19 2.824-11.57 9.658-20.864 19.316-9.476 10.022-15.58 15.67-18.223 16.946-3.917 1.914-4.1 1.914-12.026.365-19.134-3.554-34.987 1.184-47.834 14.395-33.438 34.35-43.369 124.095-22.504 203.726 4.1 15.854 4.282 14.305-2.37 29.794-9.93 23.142-19.315 52.024-27.242 83.002-4.738 18.77-5.102 23.143-2.278 25.967 3.827 3.827 27.243 13.485 43.005 17.676 21.138 5.74 48.654 7.835 68.06 5.102 18.04-2.551 43.37-10.113 47.925-14.396 1.367-1.275 2.187-3.006 2.187-4.737 0-5.923-7.562-41.183-13.758-63.96-1.913-7.38-3.553-14.305-3.553-15.307 0-3.19 4.009-6.014 11.57-8.383 5.923-1.822 9.021-2.186 18.952-2.186 14.396 0 21.047 1.822 33.438 9.293 4.465 2.733 8.838 4.829 9.658 4.647 2.551-.456 2.369-5.65-.273-11.48-4.465-9.75-12.847-16.127-26.15-19.772-2.915-.729-6.013-2.277-7.015-3.28-1.002-1.093-5.376-9.566-9.749-18.86-9.384-19.953-9.749-21.684-4.647-27.607 17.494-20.5 28.154-35.807 36.263-51.933 13.849-27.79 17.584-51.66 12.209-79.996-3.098-16.674-2.005-22.05 6.56-31.16 7.38-7.836 18.769-14.032 34.349-18.587 13.211-3.736 22.96-5.103 40.18-5.558 19.225-.547 20.5-.729 20.5-3.007 0-6.469-30.34-19.953-55.578-24.691-5.74-1.093-11.389-2.551-12.482-3.28-1.093-.729-3.645-3.645-5.65-6.56-13.12-19.316-37.72-29.156-64.324-25.694zm29.52 21.412c6.378 3.189 10.023 11.206 8.291 17.766-2.733 10.296-14.122 14.943-23.324 9.567-4.373-2.551-7.654-8.291-7.654-13.302.092-6.105 4.465-12.665 10.023-14.76 2.733-1.002 10.204-.638 12.664.729zm-56.398 255.841c1.002 1.64 3.462 6.742 5.558 11.48 3.007 6.925 3.553 8.93 2.824 10.57-.637 1.275-4.646 3.917-11.48 7.288-10.295 5.194-10.569 5.285-12.39 3.645-2.46-2.278-7.563-18.223-6.834-21.503.638-2.733 12.118-14.122 15.489-15.398 2.46-.91 4.738.365 6.833 3.918z" fill="#f2f2f2"/></svg>