<svg version="1.0" xmlns="http://www.w3.org/2000/svg" width="682.667" height="682.667" viewBox="0 0 512 512"><g fill="#f2f2f2"><path d="M244.6 21.4c-4.2.9-6.6 2.1-8.3 4-2.7 3.2-2.7 3.5-.9 10.1 2 7.5 1.1 8.8-9.6 13.8-17.4 8.2-29 19.3-36.7 35.1-7.8 16-8.9 31.6-3.6 50.2 5.1 17.4 13.4 31.9 41.4 71.4 7.1 10.2 14.5 21.4 16.3 24.9 3.1 6.1 3.3 7.1 3.3 17 0 8.5-.5 12.1-2.4 18.1-3.6 10.8-12.6 27.9-30 56.9-30.2 50.3-42 75.1-47.6 100.5-5.6 25.2 5.5 47 30.5 60 27.7 14.3 52 11.6 69.6-7.8 13.3-14.7 19.2-40.1 12.7-54.6-6.3-13.9-25.6-22.4-40.1-17.6-11.6 3.9-19.6 15.5-19 27.5.4 8.2 2.2 8 11.7-1.3 8.4-8.1 11-9.6 17.2-9.6 17.9 0 22.8 28.3 8 45.3-1.8 2-6.3 5.1-9.9 6.9-5.8 2.9-7.9 3.3-15.9 3.6-11.3.5-19.9-1.8-28.8-7.6-7.6-4.9-12-9.9-15.9-18.2-2.5-5.4-3.1-8-3.4-15.5-.9-20.3 9-39.9 31.2-62 11-11 21-19 42-33.8 39.6-28 53.6-39.5 64.8-53.5 7.1-8.9 14.1-23.1 16.2-32.9 2-9.2 2.1-25.1.1-32.8-7.5-28.9-37.7-57.1-93.7-87.5-12.1-6.6-15.2-9-17.4-13.2-4.4-8.5 4.1-24.4 14.1-26.2 5.1-1 10.7 1.8 14.4 7 1.8 2.4 4.6 5.1 6.3 6 7.5 3.9 31.4 3.4 54.3-1 7.2-1.4 15.5-2.8 18.5-3.2 7.1-.8 21.3.9 33.5 4.1 12 3.1 14.3 3.2 15.4.2 1.3-3.2 3.3-22 2.5-24-.9-2.5-3.9-3-10.2-1.6-8.6 1.9-31.3 1.7-39-.5-14.4-3.9-24.9-10.7-32.8-21.3-4.2-5.5-6.1-7.1-12.9-10.5-6.8-3.4-9.7-5.7-19.6-15.9-11.4-11.8-11.6-11.9-16-11.8-2.4 0-7.1.6-10.3 1.3zm36.7 40.4c3.7 3.8 4.7 10.3 2.3 15.1-3.6 6.9-13.1 9.2-19.7 4.8-4.2-2.8-5.9-6-5.9-11.5 0-3.4.6-4.9 3.3-7.8 5.5-6 14.3-6.3 20-.6zm-51.7 86.1c4.6 2.8 27.8 26.1 36.9 37.1 21.3 25.7 31.3 46.9 32.3 68.5.5 13.2-.9 20.2-6.8 32-4.9 10.1-12.9 19.7-23.2 27.9-13.9 11.2-17.8 11.7-22 3.2-2.8-5.8-1.9-7.7 6.6-13.9 12.8-9.4 22.2-21.3 25.6-32.6 6.2-19.8-2.2-43.5-25.4-72.1-3.3-4.1-13.2-14.8-21.8-23.6C221 163.3 216 157.5 216 156c0-2.4 6.9-10 9.1-10 .8 0 2.8.9 4.5 1.9z"/><path d="M128.8 167.1c-2.7 1.5-2.2 4.7 2.1 13.5 5.1 10.5 14 23.8 23.3 34.9 9.1 11 32.4 33.7 36.7 35.9 4.4 2.3 6.3 1 10.5-7.6 1.9-4 5.5-9.7 8-12.6 6.9-8 6.7-8.5-7.6-28.6-16.4-23.1-16.6-23.4-18.6-24.5-.9-.5-7.3-1.9-14.2-3-10.1-1.7-22.6-4.6-37-8.6-.8-.2-2.3 0-3.2.6z"/></g></svg>