<svg xmlns="http://www.w3.org/2000/svg" version="1.0" width="682.667" height="682.667" viewBox="0 0 512 512"><g fill="#f2f2f2"><path d="M236.5 36c-36.7 3.1-66.8 12.7-91.7 29.1-12.6 8.4-31.4 27.4-38.7 39.2-7 11.4-12.2 23.7-15.7 37.2-2.7 10.3-2.9 12.2-2.8 30 0 17.4.3 19.8 2.7 29 3.2 11.8 13 32 16.8 34.8 2.4 1.7 2.9 1.8 5.6.4 1.6-.9 3.6-2.3 4.3-3.2 2.7-3.2 13.1-9.6 19.8-12.2 8.9-3.4 24.4-4.3 34.6-1.9 15.3 3.6 31.5 16 38 28.9 4.6 9.2 4.2 11-5.9 28.2-15 25.5-26.4 50.8-32.4 72-10.9 38.3-9.1 78.8 5.4 119.1 4.8 13.4 7.7 16.1 12.2 11.1 3.1-3.2 24.9-40 25.7-43.1.4-1.5-.4-8.1-1.8-15.4-6.8-35.1-7.1-63.6-1-94 3-15.3 8.7-33.1 11.4-36 2.6-2.7 6.5-2.8 10.8-.2 5.6 3.5 5.8 5.3 1.9 17.6-13.2 40.7-12.8 85.1 1.3 132.2 5 17 15.6 41.7 19.8 46.4 2.7 3.1 5.8 2.2 8.5-2.5 6.3-11 15.1-35 19.8-54.2 5.5-22.7 7.3-37.5 7.3-63.5.1-25.3-1.1-35.9-5.9-55.8-3.2-13.2-3.2-15.5.1-18.1 3.2-2.5 9.1-3.7 11.3-2.4 2.5 1.5 4.6 6.9 7.4 18.8 4.9 20.6 6.1 32.2 6.1 57 0 23.9-.9 33.9-4.9 55.6-1.3 6.9-2.1 13.7-1.8 15 .7 2.8 22.8 40 25.5 42.9 4.8 5.2 7.9 1.4 13.9-17 16.6-50.8 13.8-96.5-9.1-147.9-5.7-12.8-9.7-20.5-20.9-39.6-6.3-10.7-7.6-13.7-7.5-17.1.1-5.9 4.7-13.8 12.9-22 11.5-11.7 25.3-17.4 42-17.4 13.2 0 22.3 2.9 35.2 11 2.6 1.6 5.4 3 6.3 3 2.7 0 5.9-4.2 9.4-12.7 11.2-26.5 12.7-59.9 3.9-87.7-8.3-26.2-26.7-51.1-49.3-66.3-20.9-14.1-48-23.5-78-27.3-12-1.4-40.7-2-52.5-1z"/><path d="M150.2 236.1c-12.3 2-23.1 10.2-28.6 21.9-2.8 5.9-3.1 7.4-3.1 16.5.1 8.8.4 10.7 2.8 15.6 4.2 8.7 9.8 14.3 18.3 18.6 6.3 3.1 8.5 3.7 14.3 3.7 5.5.1 7.3-.3 9.1-1.9 1.2-1.1 5.7-9 10-17.5s10.1-19.6 12.9-24.5c6.3-11.2 6.5-13.7 1.2-19.7-8.4-9.5-23.8-14.8-36.9-12.7zm206.3-.1c-10.2 1.6-19.1 6.3-25.3 13.5-4.9 5.5-4.4 8.6 3.4 22.1 3.6 6.3 9.5 17.6 13.1 25 5.9 12.3 6.9 13.8 10.2 15.1 3 1.3 4.7 1.4 10.4.4 13.3-2.2 23.3-9.8 29-21.9 2.9-6.1 3.2-7.6 3.2-16.2 0-8.2-.4-10.3-2.7-15.2-5.1-11-16.9-20.6-27.4-22.3-7.4-1.2-8.9-1.3-13.9-.5zm-227.9 94.3c-2.1 3.1-4.3 9.5-7.2 21.1-5.8 23.1-8.9 42.3-10.4 65.8-1 17-.3 21.8 3.4 21.8 4.2 0 28.2-23.3 30.7-29.7.5-1.3.9-6.6.9-11.6 0-15.5 2.3-32.3 6.6-50 3.5-13.8 3.1-14.6-9.1-17.7-10.2-2.6-13.1-2.6-14.9.3zm246.9-.4c-9.7 2.7-10.5 3.1-11.1 5.7-.3 1.3.5 7.2 2 13.2 3.9 15.8 5.5 27.9 6.2 45.2.4 8.5 1.1 16.4 1.7 17.5 3.6 7 25.4 27.5 29.3 27.5 3.2 0 3.8-2.7 3.6-15.5-.5-25.1-5.7-56.4-13.8-83.3-3.8-12.6-5.6-13.7-17.9-10.3z"/></g></svg>