<svg version="1.0" xmlns="http://www.w3.org/2000/svg" width="682.667" height="682.667" viewBox="0 0 512 512"><g fill="#f2f2f2"><path d="M226.5 43c-16.1 2.4-34.1 10.7-48.3 22.4-3.7 3-7.9 5.7-9.2 6.1-1.6.4-8.5-.9-18-3.4-28.5-7.3-48.5-8.9-63.6-5.1-32.3 8.2-57.3 37.5-66 77.5-2.6 12-2.4 32.4.5 44 3.1 13 8.9 24 17.2 32.9 8.5 9.1 15.8 14.1 26.9 18.3 27.9 10.5 116.2 12.8 182.7 4.8 15-1.8 21.7-1.9 23.1-.2.6.7 1.8 4.5 2.7 8.5 1.2 5.4 2.4 8 4.7 10.3 5.5 5.4 20.1 11.5 33.2 13.8 13.1 2.4 33.5.3 43.2-4.4 10.1-4.9 25.2-18.3 30.6-27 2.4-3.9 2.3-9.2-.3-15.7-4.3-11-6.1-20.8-6.5-36.2-.3-12.7-.6-15.3-2.1-16.8-1.9-1.8-11.9-4.8-16.3-4.8-5.4 0-8.3-3.2-17.4-19.6-17.5-31.3-43.1-69.4-55.6-82.7-16.4-17.5-39.3-25.9-61.5-22.7zm23 19.5c12.2 3.2 21.4 10.3 32.4 24.8 15.6 20.8 38.1 55.8 46.8 73 3 5.8 3.4 7.3 2.4 9.3-1.8 4-6 3.2-13.3-2.7-53-43.1-76.8-59.6-112.6-77.9-5.6-2.8-10.7-6.1-11.3-7.2-1.5-2.8.9-5.9 7.8-10.1 15.4-9.4 33.6-12.9 47.8-9.2zM143.1 85.4c44.4 11.4 90.9 37.7 146.7 82.9 12.4 10.1 14.8 12.7 13.8 15.3-1.3 3.3 3.5 4.8-109.6-35-55.4-19.5-76.1-27.2-77.9-29-2-2.1-2.5-3.9-3.2-11.3-1.4-15.7-1.1-23.9.8-25.9 2.4-2.4 12.5-1.4 29.4 3zm-51.7-.2c1.1 1.7 2 11 3.6 36.3 1.2 18.7 2 36.7 1.8 40-.5 9.4-.9 9.4-28.5-1.5-12.8-5-24.2-9.9-25.5-11-2.9-2.3-2.9-7.2.2-16.6 6.7-20.4 21.1-38.8 36.1-46.3 7.4-3.7 10.3-3.9 12.3-.9zm77 74.2c25.6 9 47.7 17.1 49.1 18 4.4 2.9 3.3 5.6-6.8 16.8-31.3 34.5-29.4 33.1-43.9 32.6-7.9-.2-10.2-.7-12.5-2.4-5.5-4-35.2-39.5-36.3-43.3-.5-2-1.3-10.8-1.7-19.5-.6-14.8-.5-16 1.2-17.2 1-.8 2.5-1.4 3.2-1.4.7 0 22.2 7.4 47.7 16.4zm-94.1 23.2c14.3 5.6 26.8 11.1 27.9 12.1 3.9 3.4 19.9 22.5 21.1 25 .9 2.1.8 2.7-.8 3.9-1 .8-3.2 1.4-4.7 1.4-6.3 0-32.7-3.1-38.3-4.6-18.4-4.6-30.9-15.7-37.1-33-4.1-11.3-2.8-17.2 3.6-15.7 1.4.3 14.1 5.2 28.3 10.9zm191.3 11c17.9 6.2 20.4 7.5 20.4 10.7 0 3-3.9 9.6-7 11.8-3.8 2.8-46.2 8.4-58.5 7.7-10.3-.5-9.3-2.9 10.1-23.5 10.8-11.5 11.8-12.3 15.4-12.3 2 0 10.9 2.5 19.6 5.6zM402.1 83.2c-1.2 1.2-2.4 3.6-2.7 5.5-1.1 5.9.1 7.8 7.3 11.9 18.6 10.2 34.8 25.7 42.2 40.1 2.2 4.4 2.8 8.3 1.2 8.3-.5 0-3.1-1.7-5.8-3.7-23.2-18-35.4-25.2-52.3-31.1-15.8-5.5-34.9-8.2-38.3-5.4-2.4 2-3.1 8.4-1.4 12.5 1.6 3.8 1.8 3.8 13.7 5.7 14.5 2.2 30.1 8 43.9 16.4 13.5 8.2 14.2 11.1 4.4 18.9-8.9 7.1-13.8 12.6-15.3 17.2-1.9 5.7-.7 24.2 2 33 3.7 11.7 8.6 20 15.4 25.9 12.2 10.7 24.3 17.5 38.6 22 8.6 2.8 22.6 4.4 27.3 3.3 7.2-1.9 10.7-27.1 7.7-56.2-5.7-56.2-32.7-101.5-72.7-122.3-9.1-4.7-12.3-5.2-15.2-2zm44.9 93.2c6.6 3.3 10.3 9 10.8 17 .4 5.6.1 7.1-2.3 11.5-3.8 6.9-9 10.4-16.5 10.9-12.2.9-20.9-5.6-23.5-17.6-1.6-7.5 3.7-18.2 10.8-21.9 7.2-3.7 13.1-3.7 20.7.1zm-194.5 96.3c-14.1 3.4-37.8 18.6-40.6 26-1.3 3.4 1 7.2 7.3 12.5 20.9 17.6 42.9 24.8 75.3 24.8 20.3 0 45.4-3.7 51.2-7.6 4.9-3.1 1.7-15.8-6.4-25.9-6.2-7.6-9.7-9.2-21.6-10.5-16.1-1.6-25.7-4.6-41.5-12.7-14.3-7.2-17.4-8.1-23.7-6.6z"/><path d="M194.8 323.2c-4.7 7.2-8.8 24.7-8.8 37.2 0 7.7.2 8.7 2.7 11.7 6.7 7.9 37 24.5 53.4 29.3 36 10.4 69.3 2.2 96.5-23.7 7.6-7.2 9.4-10.9 9.4-19.7 0-8.8-1.4-9.2-19.5-6-14.7 2.7-40 3.6-53.4 2.1-25.9-3.1-46.7-11.7-66.6-27.5-7.8-6.2-11.3-7.1-13.7-3.4z"/><path d="M334.5 404.7c-37.4 24.7-77 26.4-121.4 5.2-11.8-5.6-15.1-6.2-15.1-2.5 0 3.8 9.1 16.5 17.6 24.5 17.8 16.9 41.8 28.6 64.4 31.2 20.5 2.3 40.3-.5 54.5-7.9 9.1-4.7 21.8-17.1 23.6-23.1 1.1-3.8 1-4.4-2.1-10.3-1.8-3.5-4.1-8.8-5.1-11.7-2.6-7.4-4.5-10.1-7.2-10.1-1.2.1-5.3 2.2-9.2 4.7zm141.8 12.4c-20.4 7.2-31.9 9.2-55.3 9.5-11.3.1-21 .3-21.6.3-.6.1-2.8 2.8-4.9 6.2-3.9 6.3-8.9 9.8-14.5 9.9-3.9.1-6.2 1.8-15 11.2-4.5 4.9-10.8 10.6-14 12.9-6.1 4.3-7.3 5.9-6.3 8.4 1.6 4.4 17.3 8.4 35.3 9.2 44.1 1.8 84.4-16.6 104.7-48 5.7-8.7 9.5-17.3 9.1-20.6-.4-3.8-4.3-3.6-17.5 1z"/></g></svg>