<svg version="1.0" xmlns="http://www.w3.org/2000/svg" width="682.667" height="682.667" viewBox="0 0 512 512"><path d="M174.7 47.3c-3.4 5.2-8.8 17-12.1 26.5-5.8 16.7-8 30-8 49.2 0 20.8 2.1 34.5 7.6 49.3 3.4 9.1 3.9 11.2 3 13.3-1.4 3-6.9 6.4-10.4 6.4-4.7 0-6.7-3.1-12.3-19-4.6-13.4-5.4-14.5-10.9-15.9-10.2-2.5-31.6-4.3-52.6-4.3-25.7 0-35.7 1.6-33.4 5.4.3.4 6.8 4 14.4 7.8 15.3 7.8 26.5 15.3 37.7 25.5 7.7 7 8.9 9.8 5.6 12.7-1 .9-6.3 3.8-11.8 6.6-11.3 5.6-24.8 14.3-34.5 22.1-17.1 13.8-33 30.2-33 34 0 3 3.2 3.1 18.8.4 12-2.1 18.2-2.6 33.9-2.7 16.6-.1 19.5.1 20.9 1.5 2.5 2.6 1 5-6.9 11C68.2 294 47 321 30.4 354.1c-7.6 15.2-8.5 17.9-7.2 20.2 1.3 2.3 3.2 2.1 13.3-1.4 20.5-7.1 39.3-10.2 62.4-10.3 20.9-.1 20.5-1.1 9.8 20.4-12.2 24.4-20.7 52.7-22.4 74.2-.7 9 .4 11.5 4.1 9.6 1.1-.6 11.6-10.4 23.1-21.7 29.6-29 49-45.1 54.5-45.1 3.6 0 4.2 1.1 6.5 11.5 3.7 16.7 10 32.8 19 48 5.8 9.9 9.6 14.1 11.9 13.2 1.7-.7 2.1-2.5 4.1-21.6 2.8-26.4 8.7-50.3 19.5-79.2 3.3-8.7 5.7-16.6 5.4-17.4-1.4-3.7-8.6-.8-27.6 11.2-9.5 5.9-14 6.8-14.6 2.6-.2-1.1 2.9-16.6 6.8-34.2 3.9-17.7 7-33.6 6.8-35.4-.6-6.7-8.1-6-33.6 3.3-17.6 6.4-19.9 6.5-19.2.6.3-3 39.8-82.7 42.2-85.3 1.2-1.3 3.2-2.3 4.5-2.3 4.8 0 11.3 4.9 11.3 8.6 0 1.2-4.7 11.6-10.3 23.1-10.8 21.6-12.1 25-10.9 27 1.1 1.7 3.4 1.9 13.2 1.1 10.3-.9 21.4.4 24.1 2.8 2.7 2.5 2.5 5.5-2.6 28.4-2.6 11.2-4.5 21.8-4.3 23.4.5 4.7 4 4.5 15.9-.9 38.3-17.3 105.9-32.5 168.4-38 9.9-.8 22.5-1.9 28-2.4 9.7-.8 10-.9 13-4.4 3.2-3.7 13.2-21.6 15.3-27.6 2.3-6.3-2.1-22.1-6.1-22.1-1.4 0-7.3 5.9-13.2 13.3-6.4 8-9.1 8.4-12 1.4-4.3-10.6-4.4-10.7-6.9-10.7-1.9 0-4.2 2.1-9.6 8.6-6 7.1-7.6 8.5-9.8 8.2-2.1-.2-3-1.4-5.1-6.8-2.2-5.5-3-6.5-5.3-6.8-2.3-.3-3.7.9-10.2 9.1-4.1 5.2-8.2 9.7-9.2 10.1-2.4.9-4.9-1.7-6.4-6.7-3.9-13.3-5.5-13-18.3 2.7-2.8 3.4-4.5 4.6-6 4.4-3.1-.4-3.7-4.8-2.8-20.3l.8-13.2 8.2-15.6c4.6-8.6 9.2-16.4 10.3-17.3 2.8-2.6 4.9-.9 7.3 5.9 1.1 3.1 2.6 6.2 3.2 6.8 2.2 2.2 5.9 0 11.2-7.1 10.3-13.5 13.5-14.4 16.6-4.8 2.3 7 4.1 9.8 6.5 9.8 1.2 0 4.6-3.3 9.1-8.6 3.9-4.7 7.8-8.8 8.6-9.1 2.6-1 4.7 1.1 6.8 7 1.1 3.1 2.6 6.2 3.2 6.8 2.1 2.1 5.7-.4 11.7-7.9 10.5-13.2 12.8-13.6 16.7-2.7 2.4 6.7 4.5 9 7.3 7.9 1.9-.7 14.4-16.3 18.7-23.3 3.3-5.3 8.2-25.9 7.7-32.6-.5-6.6-1.1-6.7-34.3-6.1-31.1.5-33.2.7-82.7 6.2l-32.8 3.7-5.2-2.1c-2.9-1.1-9.6-3.8-15-6.1-11.9-5-28.7-9.5-44.4-11.7-9.3-1.3-15.9-1.5-30.4-1-10.2.3-20.1.9-22.1 1.2-6.5 1.1-8.1-1.4-26.4-41.6-9.2-20.1-17.4-37.3-18.3-38.3-2.1-2.4-5.7-2.1-7.5.6zm127.4 103.6c12.3 3.1 18.6 5.7 20.2 8.2 3.9 6.2-10.1 18.9-20.9 18.9-13.9 0-38.4-23.8-29.6-28.9 3.6-2.1 18.4-1.2 30.3 1.8z" fill="#f2f2f2"/></svg>