<svg xmlns="http://www.w3.org/2000/svg" viewBox="0 0 512 512" height="682.667" width="682.667" version="1.0"><path d="M240.555 240.54C141.746 339.35 60.19 421.578 59.293 423.37c-1.008 1.681-1.456 4.258-1.12 5.602.336 1.344 5.041 6.834 10.53 12.211 7.954 7.73 10.755 9.747 13.22 9.747 2.8 0 27.67-24.423 184.399-181.263C425.066 111.035 447.584 88.07 447.584 85.268c0-2.688-2.017-5.377-10.419-13.78-8.402-8.401-11.09-10.418-13.667-10.418-2.913 0-25.99 22.63-182.943 179.47zm-18.709-136.227C143.202 114.956 67.583 162.12 13.473 234.154 3.727 247.262.59 252.415.59 255.664c0 10.195 42.123 59.039 72.258 83.685 15.348 12.547 17.7 14.116 21.958 14.116 3.36 0 6.61-2.913 34.28-30.472 16.693-16.692 31.033-31.816 31.817-33.608 1.008-2.577.896-4.93-.672-12.436-2.801-12.883-2.689-30.92.448-43.69 8.402-35.178 33.608-61.28 69.233-72.035 8.627-2.689 11.763-3.025 25.543-3.025 9.858 0 18.373.672 22.966 1.68 4.705 1.12 8.402 1.345 10.643.785 4.705-1.345 43.13-39.995 43.13-43.355 0-1.569-1.232-3.25-3.472-4.594-4.033-2.464-20.95-6.161-38.538-8.514-15.46-2.016-52.99-2.016-68.338.112zm158.409 80.773c-20.277 20.277-30.248 31.032-30.808 33.272-.448 1.905.224 7.506 1.568 14.004 3.25 14.9 3.697 21.51 2.465 33.16-4.817 43.58-36.521 78.084-79.316 86.374-10.643 2.017-26.663 1.905-36.634-.224-4.257-.896-10.754-2.016-14.34-2.352l-6.385-.56-19.157 18.82c-20.389 20.166-23.078 23.75-21.173 27.335 1.904 3.585 22.518 8.963 47.612 12.548 15.012 2.128 53.214 1.792 68.898-.673 58.03-8.738 107.21-32.488 155.72-75.283 25.542-22.517 60.27-63.744 62.287-74.163.896-4.257-1.68-9.186-11.427-22.07-18.597-24.87-48.06-54.893-69.345-70.913-9.859-7.394-12.996-9.187-16.133-9.187-3.584 0-6.161 2.24-33.832 29.912z" fill="#f2f2f2"/></svg>