<svg xmlns="http://www.w3.org/2000/svg" viewBox="0 0 512 512" height="682.667" width="682.667" version="1.0"><path d="M353.332 21.817c-23.275 4.759-43.653 15.103-62.17 31.447-3.724 3.414-7.551 7.759-8.275 9.62-1.862 4.242-3-1.24 17.792 79.86 8.793 34.343 15.93 63.928 15.724 65.687-.414 4.551-3.62 5.793-15.31 5.793-11.069 0-14.482 1.345-14.482 5.793 0 1.344 6 25.033 13.344 52.55 7.448 27.62 13.551 52.342 13.758 55.135.414 6.517-1.448 6.62-6.413.104-4.862-6.517-100.342-160.753-101.686-164.373-1.552-3.931.413-6.104 5.482-6.104 2.173 0 10.448.724 18.413 1.655 16.241 1.759 18.827 1.242 18.827-3.31 0-3.517-43.964-107.478-47.274-111.927-5.069-6.723-29.999-16.861-50.48-20.378-6.518-1.138-15.724-1.759-24.827-1.759-36.102 0-67.86 13.138-91.031 37.55-9.414 9.828-13.965 16.241-19.758 27.517C4 108.297-.964 135.089 1.208 162.605c3.31 44.17 23.068 81.1 66.618 124.547 7.965 7.965 31.137 29.068 51.412 46.86 41.998 36.62 56.377 49.964 73.135 67.86 23.689 25.344 39.826 47.688 53.274 73.86 4.344 8.585 8.586 15.826 9.413 16.137 3 1.137 4.448-.621 10.862-12.62 22.137-41.792 50.998-74.17 109.65-123.306 44.896-37.55 59.895-50.688 73.446-64.136 44.068-43.964 62.377-82.342 62.274-130.34-.104-31.964-7.552-57.929-23.482-82.238-20.172-30.827-51.826-51.619-88.135-57.929-12.31-2.172-34.55-1.862-46.343.517z" fill="#f2f2f2"/></svg>