<svg xmlns="http://www.w3.org/2000/svg" viewBox="0 0 512 512" height="682.667" width="682.667" version="1.0"><g fill="#f2f2f2"><path d="M234.938 1.563c-50.668 5.679-93.653 27.505-118.374 60.022-7.684 10.023-15.925 27.506-19.266 40.646-4.565 17.93-5.122 34.522-4.788 148.442.334 101.671.445 105.123 2.45 106.571 1.782 1.336 2.561 1.336 5.345-.334 5.123-3.007 41.871-40.646 43.208-44.321.89-2.116 1.67-23.497 2.338-61.693 1.336-77.283 2.561-104.9 5.345-117.039 11.359-50.334 47.105-77.617 98.108-75.167 26.17 1.225 49.332 8.797 68.709 22.494 11.358 8.13 13.251 13.364 6.904 18.709-4.9 4.12-8.352 3.675-16.704-2.227-29.288-21.047-71.27-26.281-100-12.695-12.25 5.902-23.498 16.926-29.4 28.842-7.572 15.145-5.456 16.258 12.918 6.904 7.461-3.786 16.593-7.572 20.267-8.463 13.14-3.341 32.183-1.56 43.097 4.009 7.015 3.563 8.017 8.352 3.006 14.7-2.784 3.674-6.57 3.897-16.37.779-23.608-7.35-52.338 6.013-71.492 33.296-2.227 3.23-2.784 5.79-3.564 17.038-1.559 20.936-.334 23.163 13.586 24.944 12.25 1.448 24.722 7.239 35.412 16.482 7.016 6.013 9.243 6.793 13.252 4.677 1.67-.891 37.862-36.415 80.29-78.843 88.865-89.087 81.85-79.956 70.713-92.428-14.922-16.37-35.19-32.294-53.786-41.982-18.709-9.689-35.19-13.363-63.475-14.032-10.134-.222-22.606.112-27.729.669zm7.907 240.647C116.564 368.603 12.888 473.058 12.554 474.283c-.89 3.563 1.893 7.906 10.356 16.147 8.575 8.352 11.693 10.356 15.145 9.465 3.452-.89 461.807-459.58 461.807-462.03 0-3.563-3.007-7.906-10.802-15.367-7.906-7.795-11.024-9.91-14.476-9.91-1.225 0-95.435 93.43-231.739 229.622zm167.262-84.967c-2.339 1.782-57.35 56.236-122.05 121.047-82.072 82.295-117.93 118.932-118.486 121.048-1.56 6.681 2.56 22.272 7.906 29.176 3.23 4.343 9.132 6.57 14.254 5.568 1.893-.445 7.016-2.561 11.359-4.566 4.231-2.116 8.686-3.786 9.8-3.786 1.113 0 3.563 1.448 5.345 3.34 2.784 2.673 3.34 4.121 3.006 7.462-.334 3.675-1.002 4.677-5.902 7.906-8.018 5.234-16.704 8.241-25.612 8.798-6.46.445-8.91.111-13.698-1.893-7.127-3.118-14.922-11.136-19.042-20.045-7.016-14.81-6.793-14.922-34.299 12.584-21.937 21.937-22.606 22.717-22.606 27.06 0 9.354 14.254 25.947 28.62 33.074 12.472 6.347 19.933 7.906 36.526 7.795 16.035 0 24.721-1.782 40.089-8.24 28.397-11.805 52.116-37.64 62.472-68.264 4.01-11.693 5.903-22.495 7.127-39.978 1.225-17.483 2.673-24.165 7.127-33.074 6.682-13.363 17.261-24.276 38.865-40.423 7.127-5.345 18.93-14.031 26.17-19.377 15.7-11.692 33.741-28.842 42.761-40.869 16.37-21.826 26.95-54.343 29.4-90.535.667-9.576.445-11.804-1.115-14.254-2.338-3.563-2.672-3.452-8.017.446z"/><path d="M170.573 226.397c-4.343 1.782-4.9 4.788-5.568 31.18-1.002 36.638-.891 36.638 24.944 10.802 19.71-19.71 20.49-21.047 15.925-27.505-2.562-3.675-11.916-10.023-18.375-12.473-6.013-2.338-13.92-3.34-16.926-2.004z"/></g></svg>