<svg xmlns="http://www.w3.org/2000/svg" viewBox="0 0 512 512" height="682.667" width="682.667" version="1.0"><path d="M9.53 1.34c-1.724.646-1.831 4.095-.215 7.112.755 1.186 11.532 15.088 24.033 30.822C61.908 75.27 63.093 77.102 63.093 83.03c0 8.406-4.203 29.422-8.622 43-9.484 29.099-34.163 69.836-48.497 79.858l-4.85 3.45.108 7.974c0 5.82.755 10.023 2.802 15.52 5.82 15.518 8.407 34.378 8.407 61.536 0 30.068-4.635 70.913-9.269 81.151-1.724 3.988-2.586 7.76-2.586 11.963 0 7.005 1.293 9.052 6.466 10.238 1.832.43 4.419 2.263 5.927 4.31 6.359 8.191 25.326 56.472 25.326 64.34 0 4.203-.646 5.065-16.057 20.691C4.68 504.95 3.172 506.89 5.22 509.692c1.078 1.401 3.125 1.832 8.945 1.94 4.203 0 8.837-.323 10.238-.754 1.401-.431 8.73-6.79 16.166-14.118 7.544-7.329 15.088-13.903 16.704-14.657 2.263-.97 15.627-1.401 47.311-1.724 72.53-.647 131.157 2.91 172.325 10.669 15.304 2.802 17.136 3.88 21.123 11.747 3.772 7.436 5.496 8.622 12.825 8.622 8.621 0 10.13-2.695 7.113-12.502-1.94-6.358-2.048-11.962-.216-15.195 2.371-4.203 22.955-26.512 38.043-41.277 25.218-24.679 45.264-39.336 71.56-52.807 17.243-8.73 27.05-12.286 31.36-11.316 1.725.431 11.64 4.095 22.201 8.298 25.111 9.915 25.865 10.13 28.452 7.76 2.586-2.371 2.91-12.825.43-16.273-.969-1.401-8.728-5.066-20.907-10.023-10.561-4.203-20.045-8.514-21.015-9.592-4.957-5.496-4.31-28.882 1.509-51.19 4.634-18.322 23.925-65.525 28.775-71.021 1.077-1.078 4.203-3.233 6.897-4.634 2.802-1.401 5.28-3.233 5.712-4.203.862-2.264.862-10.562 0-12.825-.323-.862-6.035-4.31-12.61-7.544-33.3-16.381-60.135-45.587-78.24-84.923-9.161-19.938-19.507-49.143-19.507-55.179 0-3.88 1.509-6.142 28.128-42.677C440.72 7.698 442.337 4.68 440.29 2.201c-2.155-2.586-16.273-2.155-19.722.54-1.509 1.185-10.346 12.608-19.614 25.325-9.268 12.717-18.429 24.356-20.261 25.973l-3.449 2.91-29.637-.647c-31.145-.646-39.012-1.4-59.381-5.604-22.847-4.634-42.677-12.501-59.381-23.494-11.64-7.544-14.442-10.561-16.382-17.35-2.155-7.437-4.418-9.27-10.777-9.27-8.513 0-9.268.863-9.268 10.562 0 10.346-1.185 12.394-12.717 22.524-17.35 15.304-34.917 25.11-53.885 30.176-8.837 2.371-12.932 2.802-26.835 2.91-15.95.108-16.38 0-19.29-2.587-1.617-1.508-13.256-15.626-25.758-31.36C41.323 16.965 29.9 3.278 28.498 2.308 26.666 1.124 23.756.585 18.368.693c-4.095 0-8.19.323-8.837.646zm225.456 52.699c27.59 12.825 53.023 19.075 90.42 21.985 7.651.539 17.459 1.078 21.877 1.078 15.088 0 15.627 2.586 3.341 19.614-15.303 21.339-18.536 25.434-21.554 27.158-5.927 3.557-40.845 1.509-60.675-3.556-16.812-4.203-36.75-14.55-41.06-21.015-2.587-4.096-8.622-44.294-7.005-47.635.646-1.401 1.832-2.586 2.586-2.586.862 0 6.25 2.263 12.07 4.957zm-37.72-1.401c.863 1.401 3.126 12.394 5.066 25.326 3.34 21.77 3.34 22.955 1.617 26.512-2.48 5.173-16.705 16.273-27.159 21.23-14.872 7.005-34.594 9.484-42.569 5.497-5.712-2.802-31.253-35.134-31.253-39.444 0-3.126 2.802-4.311 14.549-6.035 21.877-3.234 43.216-12.61 64.662-28.452 5.28-3.88 10.454-7.113 11.531-7.113 1.078 0 2.587 1.078 3.557 2.479zm188.276 40.306c.97 1.078 4.418 8.945 7.867 17.567 15.303 38.581 33.409 66.494 56.58 87.401 18.213 16.274 18.536 16.49 17.781 18.43-.97 2.586-4.418 3.663-24.787 7.974-22.524 4.742-25.002 4.527-35.348-2.263-18.537-12.394-33.194-30.715-43.432-54.64-6.358-14.872-11.208-29.852-11.208-34.81 0-4.957.216-5.28 18.644-30.39 8.622-11.748 10.562-13.04 13.903-9.269zM101.567 125.6c7.867 9.807 14.872 19.398 15.519 21.338 2.478 7.436-3.88 31.038-13.04 48.605-7.545 14.225-16.92 27.05-21.231 28.882-3.233 1.293-5.173.97-24.033-3.88-21.123-5.388-25.865-7.328-25.865-10.777 0-1.077 4.095-7.975 9.053-15.303 17.135-25.434 26.511-44.617 33.516-68.865 5.497-18.645 5.389-18.537 8.945-18.106 2.371.216 5.712 3.88 17.136 18.106zm144.089 8.621c14.118 5.604 31.792 9.268 53.777 11.316 10.777 1.078 12.394 3.772 6.897 11.855-9.16 13.148-23.71 32.008-25.972 33.409-3.557 2.37-6.035 1.724-14.55-3.772-8.19-5.281-28.558-24.788-30.175-28.883-3.018-7.76-4.31-23.602-2.048-25.865 1.833-1.832 3.126-1.616 12.07 1.94zm-37.397-1.293c2.048 1.293 3.233 5.604 5.173 18.213 1.94 13.795 1.51 16.273-4.526 20.153-4.742 3.126-21.662 9.807-27.481 10.885-7.006 1.293-8.945.108-18.106-11.424-11.64-14.549-11.531-17.027.97-19.937 9.16-2.048 22.416-7.329 28.667-11.316 5.927-3.772 12.61-7.436 13.471-7.436.324 0 1.078.43 1.832.862zm130.403 25.865c.646 1.185 3.017 6.358 5.173 11.639 8.729 21.23 17.674 35.456 32.438 51.73 4.419 4.85 7.975 9.591 7.975 10.454 0 3.125-4.526 4.85-25.757 9.268-23.494 4.957-25.972 5.173-30.499 2.479-8.406-4.85-27.697-37.397-26.188-44.186.647-3.126 22.309-33.948 28.344-40.414 3.233-3.341 6.681-3.772 8.514-.97zm-194.957 20.26c13.148 13.795 13.902 20.477 4.634 42.678-4.31 10.346-8.945 16.812-12.61 17.674-2.586.647-18.428-2.802-23.924-5.28-4.526-2.048-4.203-5.497 1.724-15.089 6.682-11.1 13.04-23.817 16.812-33.947 3.018-7.76 5.173-10.993 7.329-10.993.646 0 3.34 2.263 6.035 4.958zm75.008 15.735c2.371 3.664 6.25 30.176 4.958 33.625-1.294 3.448-5.389 5.496-8.945 4.526-2.802-.647-18.106-18.752-21.447-25.326-2.694-5.173-1.293-6.79 9.592-11.208 11.208-4.527 13.687-4.85 15.842-1.617zm33.624 7.436c7.437 4.634 11.209 8.514 11.209 11.316 0 3.88-9.7 15.95-13.148 16.381-3.88.431-4.742-1.508-6.898-14.872-1.293-8.298-1.4-11.64-.539-13.58 1.51-3.34 2.91-3.232 9.376.755zm-75.331 19.83c2.586 1.832 16.489 19.075 18.536 22.955 1.833 3.557.647 7.652-2.694 8.837-2.047.862-5.496.431-13.579-1.724-14.441-3.556-17.028-4.957-17.028-9.053 0-3.017 6.251-18.213 8.73-21.23 1.616-1.833 3.233-1.725 6.035.215zm118.547 14.01c3.665 5.928 6.79 11.855 6.79 13.148 0 3.341-3.449 5.173-13.364 7.22-11.423 2.372-12.178 2.264-16.38-1.94-4.958-4.957-4.958-9.267.215-16.919 10.992-16.273 13.363-16.489 22.74-1.509zm-242.375 3.88c9.268 2.479 18.536 5.065 20.476 5.927 7.113 2.91 10.454 17.244 10.346 44.617-.108 26.404-3.017 46.45-7.328 50.545-3.341 3.125-39.336 19.722-43.108 19.937-5.281.216-5.604-1.616-3.234-22.74 2.91-27.158 2.695-67.787-.43-85.892-2.587-14.55-2.156-16.813 3.125-16.813 1.832 0 10.885 1.94 20.153 4.419zm415.993 2.802c1.294 2.263.863 3.664-7.759 24.68-10.346 25.649-16.812 50.76-16.812 66.17 0 7.329-1.617 12.61-4.203 13.472-2.371.754-5.389-.216-23.602-7.544-18.86-7.544-19.614-8.406-19.614-19.938 0-10.669 3.556-24.895 10.777-42.892 6.574-16.49 10.454-23.602 14.01-26.189 2.91-2.155 34.379-9.268 41.707-9.483 3.233-.108 4.85.43 5.496 1.724zm-351.008 14.441c9.592 2.587 12.933 5.173 14.873 11.855 3.556 11.962 3.34 39.013-.431 44.725-1.617 2.478-17.675 11.1-23.71 12.717-5.173 1.4-5.28.97-5.388-35.134 0-18.752.323-34.378.862-35.133 1.4-1.832 4.203-1.616 13.794.97zm271.366.862c2.048 1.294 1.186 5.604-5.173 23.818-3.017 8.945-5.927 19.398-6.574 24.787-1.4 10.022-3.233 14.01-6.466 14.01-3.449 0-28.128-10.023-30.822-12.61-5.389-4.957-2.264-23.17 6.035-35.671 5.173-7.76 7.436-8.945 23.71-12.394 13.686-3.017 17.027-3.34 19.29-1.94zm-215.433 13.687c12.825 3.557 15.95 5.173 16.812 8.73 1.51 5.927-.43 8.082-13.04 14.225-6.466 3.126-13.687 6.035-15.842 6.359-3.557.43-4.203.215-5.065-2.156-.54-1.508-1.186-8.082-1.294-14.549-.538-17.135.216-17.566 18.43-12.609zm146.245 2.263c.862 2.156-1.401 15.735-3.234 19.615-.862 1.832-2.37 2.91-4.418 3.125-3.664.431-28.02-8.837-31.038-11.855-4.203-4.203-1.293-6.035 16.381-9.807 15.196-3.34 21.339-3.664 22.309-1.078zm-38.798 33.733c21.123 7.975 21.339 9.16 4.958 21.015-15.627 11.208-16.058 11.423-19.291 7.76-2.91-3.45-7.975-18.537-7.975-24.034 0-4.634 3.987-9.052 8.083-9.052 1.616 0 7.975 1.94 14.225 4.31zm-92.359 8.729c0 1.509-3.987 6.358-11.1 13.471-13.472 13.687-16.274 14.334-21.231 4.958-3.018-5.82 1.078-9.269 19.83-17.028 10.346-4.31 12.501-4.526 12.501-1.401zm46.557 1.078c1.078.538 2.479 2.047 3.125 3.34 2.263 4.096 7.436 20.585 7.436 23.387 0 5.82-.215 5.927-26.619 7.22-13.579.647-25.65.755-26.943.324-1.4-.54-2.478-1.725-2.478-2.695 0-2.37 27.589-30.39 31.792-32.33 3.34-1.51 10.13-1.078 13.687.754zm107.231 14.44c14.442 5.497 14.442 8.191.431 17.567-14.44 9.592-23.494 17.028-39.012 32.224-14.334 14.01-16.813 15.303-19.938 10.561-2.263-3.448-7.975-21.77-7.975-25.757 0-9.376 41.6-37.073 55.717-37.288 1.94 0 6.79 1.185 10.777 2.694zM137.023 343.51c4.634 4.096 7.867 10.67 7.975 15.843 0 3.233-1.509 5.173-13.148 17.027-16.812 17.028-18.644 17.244-21.877 2.91-.97-4.095-2.802-10.993-3.988-15.303-3.017-10.239-2.263-11.855 7.975-17.028 8.837-4.419 14.55-6.682 17.244-6.79 1.077-.107 3.664 1.51 5.82 3.341zm268.78 13.256c19.937 8.083 20.476 10.023 4.634 18.86-29.96 17.028-60.352 41.6-86.001 69.835-10.238 11.316-14.441 14.657-17.028 13.58-2.479-.863-8.298-16.274-11.64-30.5-1.292-5.604.648-8.945 13.364-22.847 21.878-24.14 44.294-41.384 66.495-51.299 10.238-4.634 13.471-4.31 30.176 2.371zm-323.958 8.19c3.987 1.833 7.22 11.532 10.992 33.194 2.587 15.519 2.695 15.303-15.626 33.732-10.13 10.238-16.597 15.95-17.998 15.95-3.449 0-5.389-2.91-10.562-16.381-2.694-7.005-7.543-18.537-10.884-25.865-8.73-19.075-9.269-17.782 12.393-28.56 14.01-7.004 25.973-12.5 28.775-13.147.108-.108 1.4.431 2.91 1.078zm172.54 8.73c3.125 2.694 9.16 19.399 9.16 25.218 0 5.82-1.293 6.143-19.075 4.634-11.1-.862-29.206-1.077-59.273-.646-46.126.539-46.665.539-45.049-4.419 1.186-3.88 17.998-18.967 22.632-20.476 10.562-3.233 43.755-6.25 71.883-6.574 16.058-.108 17.028 0 19.722 2.263zm-25.218 49.359c26.296 1.4 38.043 3.017 42.246 5.82 3.017 2.047 4.095 4.202 8.621 17.89 2.802 8.62 4.958 17.027 4.85 18.751-.539 5.389-2.37 5.604-20.476 3.018-37.935-5.389-71.452-7.544-130.726-8.406-24.248-.323-45.263-.755-46.557-1.078-1.832-.323-2.478-1.185-2.478-3.233 0-3.664 20.26-24.68 26.403-27.481 9.484-4.203 79.104-7.329 118.117-5.281z" fill="#9dcce3"/></svg>