<svg xmlns="http://www.w3.org/2000/svg" viewBox="0 0 25.4 25.4" height="96" width="96"><path d="M20.638 18.052c-.004.534 3.063 4.145 2.746 4.574-.316.43-4.67-1.438-5.18-1.277-.508.161-2.994 4.194-3.5 4.025-.506-.169-.076-4.887-.386-5.32-.31-.434-4.914-1.553-4.91-2.086.004-.534 4.624-1.582 4.94-2.012.318-.429-.041-5.153.467-5.314.509-.16 2.934 3.909 3.44 4.078.506.168 4.888-1.633 5.198-1.199.31.434-2.81 3.998-2.815 4.531zm1.285-12.025c-.169.3.432 3.293.119 3.436-.313.143-2.183-2.27-2.52-2.338-.337-.068-2.998 1.428-3.23 1.174-.233-.253 1.484-2.777 1.444-3.119-.039-.341-2.284-2.41-2.115-2.71.17-.299 3.1.554 3.413.411.313-.143 1.586-2.917 1.923-2.849.337.068.432 3.12.665 3.373.232.253 3.264.607 3.304.948.039.342-2.834 1.375-3.003 1.674zM9.66 8.924c.046.457 2.999 3.262 2.767 3.658-.231.396-4.125-.8-4.545-.617-.42.185-2.175 3.86-2.624 3.762-.448-.097-.512-4.17-.818-4.513-.305-.342-4.343-.876-4.388-1.333-.046-.456 3.808-1.776 4.04-2.172.23-.396-.51-4.402-.09-4.586.42-.184 2.867 3.073 3.315 3.17.448.098 4.03-1.843 4.334-1.5.305.342-2.036 3.675-1.99 4.131z" fill="#f9f9f9"/></svg>