<?xml version="1.0" encoding="UTF-8" standalone="no"?>
<svg
   xmlns:dc="http://purl.org/dc/elements/1.1/"
   xmlns:cc="http://creativecommons.org/ns#"
   xmlns:rdf="http://www.w3.org/1999/02/22-rdf-syntax-ns#"
   xmlns:svg="http://www.w3.org/2000/svg"
   xmlns="http://www.w3.org/2000/svg"
   id="svg128"
   preserveAspectRatio="xMidYMid meet"
   viewBox="0 0 512.000000 512.000000"
   height="512.000000pt"
   width="512.000000pt"
   version="1.0">
  <defs
     id="defs132" />
  <metadata
     id="metadata96">
Created by potrace 1.16, written by Peter Selinger 2001-2019
<rdf:RDF>
  <cc:Work
     rdf:about="">
    <dc:format>image/svg+xml</dc:format>
    <dc:type
       rdf:resource="http://purl.org/dc/dcmitype/StillImage" />
    <dc:title></dc:title>
  </cc:Work>
</rdf:RDF>
</metadata>
  <g
     transform="matrix(2.7300904,0,0,2.7300904,-52.726532,-78.391476)"
     id="g7185">
    <path
       style="fill:#f2f2f2;stroke:none;stroke-width:0.1"
       id="path98"
       d="m 51.4,30.9 c -1.7,1 -3.3,2.8 -3.6,3.8 -0.3,1 0.5,6.1 1.8,11.3 3.4,13.7 2.1,15.1 -11.5,12 -11.5,-2.6 -14,-1.4 -15.6,7.2 -1,5.3 2,8 11.5,10.3 15.6,3.7 16.3,5.6 6,17 -7.4,8.2 -8.4,11 -5.4,15.3 1.5,2.2 6.3,5.2 8.4,5.2 0.5,0 4.4,-3.2 8.6,-7 4.1,-3.9 8.3,-7 9.3,-7 2.9,0 4.8,3 7.2,11.2 1.2,4.3 3,8.6 4.1,9.8 2.4,2.6 7.3,2.6 11.6,0 3.9,-2.4 4.2,-5.5 1.2,-16.2 -4,-14.5 -2.5,-16.2 11.4,-12.9 15.2,3.6 18.5,2.5 19.4,-6.8 0.4,-4.3 0.2,-5.1 -1.9,-6.4 -1.3,-0.9 -5.5,-2.3 -9.4,-3.3 -15.4,-3.8 -16.1,-5.7 -5.9,-16.8 3.6,-3.9 6.7,-8.1 7.1,-9.4 0.8,-3.2 -1.4,-6.8 -5.4,-9.3 C 95.7,36 93.2,37.2 84,46.5 76.6,53.9 73.5,55.5 71.2,52.7 70.6,52.1 69.2,48.3 68,44.5 65,34.7 63.9,32 62.3,30.4 c -2,-2 -7.2,-1.7 -10.9,0.5 z" />
    <path
       style="fill:#f2f2f2;stroke:none;stroke-width:0.1"
       id="path102"
       d="m 167.7301,67.280012 c -0.9,0.5 -2.6,3.2 -3.8,5.9 -1.8,4.3 -4.4,7.1 -6.4,7.1 -0.3,0 -2.4,-1.6 -4.7,-3.5 -5.2,-4.3 -8.8,-4.5 -12.9,-0.8 -4.8,4.4 -4.8,7 -0.1,13.3 2.2,3 3.9,6.1 3.8,7 -0.3,1.4 -3,3 -11,6.399998 -4.7,2 -5.7,5.1 -3.3,11.1 1.9,5.1 4.1,6.1 10.6,5.1 2.2,-0.4 4.8,-0.2 6,0.5 1.9,1 2,1.6 1.3,9 l -0.7,7.9 4.9,2.1 c 6.9,3.1 9.1,2 13.2,-6.4 4,-8.4 6.1,-8.8 13.1,-2.2 6,5.6 8.9,5.9 13.7,1.1 4.3,-4.3 4.3,-7 -0.1,-12.5 -3.6,-4.5 -4.4,-8.1 -2.2,-9.8 0.6,-0.6 3.6,-1.8 6.5,-2.8 3,-0.9 5.7,-2.5 6.3,-3.7 1.4,-2.499998 0.6,-8.199998 -1.6,-11.499998 -1.6,-2.5 -1.8,-2.5 -10.6,-1.8 -10.6,0.8 -10.9,0.6 -9,-9 1.5,-7.5 0.6,-10 -4.4,-12.1 -4,-1.6 -6.3,-1.7 -8.6,-0.4 z" />
    <path
       style="fill:#f2f2f2;stroke:none;stroke-width:0.1"
       id="path124"
       d="m 102.12879,133.52134 c -0.9,1.2 -2.500001,5.1 -3.700001,8.6 -2.6,7.9 -5.2,9.6 -9.7,6.4 -1.6,-1.2 -3.7,-3.3 -4.6,-4.7 -0.9,-1.3 -3,-3.2 -4.7,-4.1 -3.7,-1.9 -7.8,-0.6 -10.9,3.4 -3.2,3.9 -2.5,7.2 2.5,13.1 5.7,6.7 6.8,8.7 6,11.1 -0.6,1.9 -2.3,2.6 -14.4,5.6 -4.9,1.3 -7.4,5.1 -6.5,9.9 1.3,7.1 5.3,8.7 16,6.6 4.6,-0.9 7.8,0 8.7,2.3 0.3,0.8 -0.3,4.5 -1.4,8.3 -1,3.7 -1.9,7.8 -1.9,9 0,4.4 9.4,8.8 13.8,6.4 1.2,-0.6 3.1,-4.1 4.7,-8.3 5.400001,-14.4 6.800001,-14.8 16.300001,-4.8 8.7,8.9 10.9,9.5 16.2,4.2 5.7,-5.7 5.4,-7.1 -3.7,-17.5 -3.9,-4.3 -4.3,-8.1 -1.1,-9.8 1.2,-0.6 4.9,-1.8 8.2,-2.6 8.7,-2 10.6,-3.5 10.6,-8.3 0,-5.3 -1.8,-8.9 -4.8,-9.7 -1.4,-0.3 -6.1,0 -10.6,0.7 -13.7,2.1 -15.1,0.9 -11.8,-10.3 3.1,-10.7 2.9,-13.3 -1,-15.7 -4.5,-2.7 -10.2,-2.6 -12.2,0.2 z" />
  </g>
</svg>
