<svg xmlns="http://www.w3.org/2000/svg" viewBox="0 0 512 512" height="682.667" width="682.667" version="1.0"><path d="M425.581 45c-2.367.002-4.493.154-6.09.473-1.915.48-4.308 1.755-5.265 3.032-2.395 2.874-.642 6.067 10.533 18.679 26.182 29.853 43.903 65.452 52.683 106.64 3.991 18.678 4.153 63.537.162 83.492-8.142 40.868-26.82 78.226-54.438 109.356-5.748 6.546-10.857 13.73-11.335 16.124-.48 2.554.318 8.142 1.914 13.091 2.554 7.503 3.512 8.62 7.503 9.1 4.15.479 6.705-1.436 20.115-15.166 30.971-31.609 54.12-75.191 63.859-120.21 15.804-71.84-.96-147.51-45.66-206.737-4.948-6.705-11.175-13.253-13.89-14.53-3.71-2.035-12.99-3.351-20.091-3.344zm-344.64.281c-3.973-.018-7.654.19-9.63.668-6.545 1.756-11.175 5.907-21.232 19.636-62.261 83.813-65.613 200.354-8.461 288.157 14.846 22.83 38.155 49.17 48.212 54.598 5.428 2.873 9.26.797 12.133-6.387 4.95-12.452 3.99-15.644-11.176-32.886-17.88-20.274-27.777-35.121-38.313-56.992-15.007-31.45-21.391-59.867-21.391-95.786 0-26.182 2.873-45.817 9.738-67.688 9.578-29.853 24.106-55.715 45.977-81.417 10.696-12.453 13.408-18.042 9.896-20.117-1.696-1.098-9.13-1.756-15.753-1.786zm169.7 4.464c-10.055.067-19.327.695-25.433 1.952-62.9 13.091-112.07 57.63-129.31 117.337-14.05 49.33-5.908 99.139 23.466 141.763 9.1 13.091 12.612 16.284 18.998 16.284 5.587 0 15.644-9.42 15.644-14.688 0-2.076-3.352-8.46-7.343-14.206-9.419-12.932-20.274-35.761-23.946-50.129-2.235-8.301-2.874-16.762-2.874-33.524.16-19.636.638-24.106 4.47-36.718 7.343-24.106 22.03-48.213 38.793-63.06 56.194-50.128 139.05-47.574 190.614 5.906 12.452 12.931 18.836 21.871 26.18 37.676 20.434 42.944 15.168 98.022-12.929 137.134-8.46 11.973-8.622 14.686-.8 22.03 10.377 9.898 15.326 8.622 26.182-6.863 21.392-30.013 31.29-64.815 29.374-103.928-3.352-72.637-53.32-133.623-125.319-152.94-10.077-2.693-29.01-4.139-45.767-4.026zm3.587 87.624c-.37-.004-.736 0-1.103.016-2.933.12-5.887.84-11.314 2.276-32.089 8.62-55.079 44.382-56.995 88.443-1.277 29.853 5.429 52.2 23.309 76.466 4.15 5.747 8.143 11.656 8.622 13.253 1.596 4.63-2.713 7.661-15.644 11.014-7.025 1.756-16.923 5.589-22.032 8.303-23.786 12.611-43.741 48.369-53.48 96.102-4.636 22.643-8.247 51.254-10.107 78.758h283.702c-2.79-70.507-14.303-121.797-34.13-150.915-12.772-18.678-27.462-28.256-50.45-33.045-13.889-2.874-19.156-6.068-17.56-10.857.48-1.756 4.629-8.301 9.259-14.687 15.166-21.073 21.713-42.145 21.713-69.603 0-48.213-26.342-87.167-63.699-94.191-4.68-.838-7.495-1.309-10.091-1.333z" fill="#f2f2f2"/></svg>