<svg xmlns="http://www.w3.org/2000/svg" viewBox="0 0 512 512" height="682.667" width="682.667" version="1.0"><path d="M204.534 18.956C201.39 19.93 24.6 123.23 19.506 127.132c-4.01 2.927-4.552 5.637-1.517 8.347 1.95 1.734 109.91 51.27 118.69 54.413 4.987 1.843 152.185 13.875 160.206 13.116 4.01-.325 8.997-2.71 23.305-10.84 21.461-12.356 23.738-13.223 28.073-11.598 5.42 2.06 10.19 6.396 10.19 9.214 0 3.36-2.06 4.878-22.98 17.018-11.923 6.828-18.102 11.056-19.402 13.332-1.951 3.035-2.06 7.154-2.06 78.043 0 83.03-.325 79.67 6.829 79.67 1.951 0 9.864-1.735 17.56-3.794 14.633-3.903 19.402-4.553 20.594-2.71 1.301 2.06-3.143 6.287-22.762 22.22-30.567 24.822-30.676 24.93-35.12 24.822-3.035 0-16.259-6.612-60.158-30.241-31-16.584-58.207-30.892-60.592-31.651-3.252-1.192-6.503-1.192-15.175-.434-24.822 2.493-38.696 3.36-41.298 2.71-7.37-1.843-1.409-5.311 33.385-19.944 20.27-8.563 24.28-9.972 28.183-9.43 3.035.325 19.727 8.346 51.595 24.93 25.906 13.44 48.452 24.822 49.97 25.147 1.95.434 3.36.109 4.66-1.084 1.518-1.626 1.734-8.563 1.734-75.983 0-71.974-.108-74.25-2.06-76.201-1.191-1.192-3.793-2.385-5.744-2.818-1.951-.325-35.011-3.035-73.49-5.962-38.48-2.926-72.407-5.853-75.55-6.395-3.253-.65-30.351-12.357-65.579-28.4-37.83-17.234-61.35-27.314-63.627-27.423-3.035-.108-4.119.434-5.203 2.602-2.06 4.119-1.95 229.577.109 235.539.867 2.276 6.287 10.405 12.14 18.101 8.13 10.84 11.598 14.525 14.958 16.15 7.588 3.686 81.62 22.005 85.414 21.246 1.843-.434 6.395-3.685 10.406-7.588 13.44-12.573 14.633-12.248 21.245 5.203 3.577 9.647 5.528 12.249 10.189 14.092 5.745 2.276 127.47 33.276 130.722 33.276 5.637 0 6.07-1.626 6.07-23.196 0-11.273.542-21.245 1.193-23.196 1.3-3.685 3.36-4.553 11.598-4.553 5.094 0 5.745.326 6.72 2.819.65 1.517 1.084 10.73 1.084 20.486 0 9.755.542 19.077 1.084 20.703.976 2.493 1.626 2.818 4.661 2.276 1.951-.325 43.032-23.521 91.267-51.703 101.89-59.4 97.337-56.69 98.963-60.159.976-2.06 1.301-16.8 1.301-51.27 0-42.381-.217-48.777-1.734-50.945-.867-1.3-5.095-4.119-9.214-6.286-8.78-4.336-11.815-7.046-11.815-10.406 0-1.3 4.553-9.756 10.19-18.644 5.636-8.996 10.839-17.776 11.38-19.402 1.627-4.12 1.627-106.334.11-109.26-.651-1.085-2.277-2.06-3.578-2.06-2.818 0-85.63 47.584-89.533 51.487-2.384 2.276-2.71 3.902-3.577 15.825-1.084 15.609-1.95 17.777-6.395 16.801-4.66-.867-77.61-49.97-78.477-52.788-1.626-4.986.542-5.094 45.309-2.167 31.109 2.06 35.336 1.95 41.406-1.193 12.574-6.612 69.697-40.43 71.214-42.165 2.819-3.36.76-6.07-5.961-7.912-22.98-6.504-178.09-45.417-182.86-45.85-3.252-.326-16.8.541-30.025 1.733-28.616 2.71-35.336 2.819-37.07.76-.868-1.085-1.084-4.011-.542-9.54.867-9.863 0-10.839-12.032-13.874-9.213-2.384-9.539-2.384-13.55-1.192z" fill="#f2f2f2"/></svg>