<svg xmlns="http://www.w3.org/2000/svg" viewBox="0 0 512 512" height="682.667" width="682.667" version="1.0"><path d="M132.767 1.13C77.145 3.59 28.367 20.812 11.253 44.024c-8.665 11.766-8.45 10.269-8.45 63.431v47.066l3.422 7.06c3.637 7.38 12.302 16.793 20.645 22.463 17.97 12.087 45.354 21.18 79.477 26.42 17.328 2.568 69.85 2.568 87.927-.106 36.048-5.349 65.784-16.045 83.755-30.165 12.836-10.055 19.36-22.035 19.468-35.834.107-9.306 1.39-16.794 3.102-18.505 1.604-1.605 12.301-1.498 17.436.214 4.492 1.497 5.669 3.957 6.632 13.37 2.139 20.645 17.328 41.932 36.582 51.452 4.386 2.139 8.45 4.813 8.986 5.99 2.246 4.065-5.135 12.729-10.697 12.729-1.284 0-5.455-1.712-9.2-3.85-8.77-4.921-16.044-6.847-26.206-6.847-23.32 0-46.531 13.05-56.372 31.77-1.925 3.743-4.386 7.166-5.455 7.701-.963.535-8.879 1.39-17.436 1.818-14.975.75-15.831.642-20.324-1.711-9.092-4.707-15.724-6.418-25.779-6.418-17.435 0-32.839 5.99-45.675 17.864-10.162 9.413-13.905 17.007-14.868 30.485-.749 9.413-1.07 10.483-5.776 18.078-5.028 8.45-8.772 16.58-11.98 26.527-1.284 3.958-3.745 7.809-7.702 12.195-7.702 8.343-10.162 14.012-10.804 24.816-.856 17.329 6.204 34.764 19.682 48.35 12.836 12.942 25.137 17.22 41.075 14.226 6.74-1.284 7.916-1.177 18.292 1.39 6.097 1.605 14.226 3.102 18.077 3.53 12.408 1.284 12.943 1.926 14.44 17.008 2.889 31.235 45.14 55.41 110.284 63.11 18.184 2.14 56.478 2.14 74.663 0 54.981-6.524 93.917-24.602 106.218-49.525l4.065-8.13.32-42.252c.429-45.14-.106-51.023-4.599-60.008-12.408-24.603-55.623-43.643-111.673-49.205-14.227-1.39-49.098-1.39-63.325 0-57.548 5.776-99.265 24.388-111.995 50.06l-3.957 8.13-.535 23.96c-.535 22.143-.642 24.068-2.567 25.459-4.065 2.888-19.575 1.07-24.71-2.888-2.46-2.033-2.674-2.781-2.674-11.125 0-12.194-1.497-18.612-7.06-30.271-5.455-11.339-15.19-22.25-24.495-27.491-8.023-4.493-9.092-5.776-9.092-10.055 0-4.707 4.064-13.692 7.808-17.115 2.995-2.674 3.958-2.674 17.864-.107 11.766 2.14 23.532 0 38.08-7.06 15.617-7.38 24.602-17.435 29.844-33.373 2.46-7.595 5.241-8.772 20.217-8.772 11.017 0 11.124 0 16.259 3.744 11.98 8.558 19.789 11.232 33.16 11.232 24.923 0 47.172-12.943 56.906-33.267 3.744-7.702 5.67-10.162 13.585-17.329 9.948-9.199 15.724-16.793 20.537-27.597 1.819-3.85 4.707-8.985 6.525-11.553 5.242-7.273 6.953-13.905 6.418-24.602-.962-16.9-10.91-34.443-26.1-45.889-13.691-10.376-26.741-13.157-41.396-8.771-7.274 2.14-8.878 2.246-14.333 1.176-3.423-.641-10.055-1.604-14.762-2.246-10.804-1.39-11.98-1.818-13.585-4.6-.748-1.39-1.497-10.268-1.925-22.142-.642-19.147-.749-20.003-3.85-26.207C277.28 18.566 210.853-2.4 132.766 1.13zm56.158 21.821c35.085 4.707 63.646 14.655 77.872 27.384 11.767 10.483 13.585 20.43 5.456 30.272-3.744 4.492-10.911 9.199-13.906 9.199-1.284 0-6.632-1.605-11.873-3.637-29.523-11.125-66.427-16.473-106.647-15.297-32.732.963-55.943 4.921-83.006 14.334-16.794 5.67-18.078 5.67-25.244-.963-14.441-13.37-11.232-26.741 9.52-39.898 19.04-11.98 48.99-19.896 89.531-23.426 9.841-.856 45.89.428 58.297 2.032zm-4.492 69.529c19.896 2.353 34.87 5.562 38.722 8.45 2.14 1.605 2.14 1.605 0 3.744-8.772 8.878-77.872 13.799-114.99 8.13-28.667-4.386-38.08-8.558-29.416-13.157 3.316-1.712 22.57-5.563 35.513-7.167 16.26-1.926 53.484-1.926 70.17 0zm181.309 34.443c12.408 6.311 22.89 21.715 23.533 34.765.428 6.846.32 7.38-2.781 10.482-3.744 3.744-6.953 4.065-14.762 1.391-7.06-2.353-19.254-14.44-23.319-23.105-9.306-19.896-.107-32.411 17.329-23.533zm-28.881 94.452c3.316 1.498 5.027 3.102 6.204 5.883 1.39 3.53 1.39 4.172-.428 8.344-3.316 7.488-13.478 14.761-24.602 17.863-6.418 1.712-19.575 1.498-23.961-.32-4.493-1.926-8.343-6.525-8.343-10.162 0-7.595 10.161-17.115 22.997-21.5 8.665-2.996 21.715-2.996 28.133-.108zm-126.542 32.946c4.813 2.888 6.418 6.953 4.813 12.194-4.278 14.441-31.769 27.277-47.172 22.143-19.79-6.632-4.6-30.38 23.105-36.262 5.883-1.284 15.296-.321 19.254 1.925zm188.797 67.176c41.289 5.348 71.347 17.114 84.718 33.373 6.418 7.809 5.883 16.901-1.498 25.351-4.706 5.242-8.985 8.023-12.729 8.023-1.284 0-8.45-2.14-15.831-4.707-29.63-10.268-53.59-13.905-92.634-13.905-37.866 0-62.79 3.637-89.638 12.943-21.394 7.38-21.928 7.38-30.379-1.284-11.552-11.873-9.627-22.998 6.097-34.871 28.347-21.5 94.56-32.304 151.894-24.923zm-259.289 31.448c6.311 3.102 14.976 12.622 18.934 21.072 2.995 6.525 3.422 8.344 3.422 16.687 0 9.092-.107 9.627-2.995 12.088-12.515 10.696-37.224-14.227-37.117-37.439.107-12.729 6.953-17.543 17.756-12.408zM402.86 391.88c44.712 7.06 43.75 12.943-3.21 20.003-12.836 1.925-63.859 2.032-77.016.107-30.378-4.386-41.61-8.985-32.839-13.478 3.851-2.032 20.859-5.562 33.374-6.953 5.562-.642 11.66-1.39 13.37-1.604 7.81-1.07 56.159.32 66.32 1.925z" fill="#f2f2f2"/></svg>