<svg xmlns="http://www.w3.org/2000/svg" class="feather feather-layers" height="96" width="96" fill="none" stroke="currentColor" stroke-width="2" stroke-linecap="round" stroke-linejoin="round"><path fill="#0d0d0d" stroke="none" d="M0 0h96v96H0z"/><path stroke="#40bfbf" d="M24 72l7.522-3.76L24 64.477l-7.522 3.761z" stroke-width="1.50436"/><path stroke="#bf40bf" d="M16.478 75.76L24 79.523l7.522-3.761" stroke-width="1.50436"/><path stroke="#fff" d="M16.478 72L24 75.76 31.522 72" stroke-width="1.50436"/><path stroke="#40bfbf" d="M79.522 68.24L72 64.477l-7.522 3.761L72 72z" stroke-width="1.50436"/><path stroke="#bf40bf" d="M64.478 75.76L72 79.523l7.522-3.761" stroke-width="1.50436"/><path stroke="#fff" d="M64.478 72L72 75.76 79.522 72" stroke-width="1.50436"/><path stroke="#40bfbf" d="M72 16.478l-7.522 3.761L72 24l7.522-3.76z" stroke-width="1.50436"/><path stroke="#bf40bf" d="M64.478 27.76L72 31.523l7.522-3.761" stroke-width="1.50436"/><path stroke="#fff" d="M64.478 24L72 27.76 79.522 24" stroke-width="1.50436"/><path stroke="#40bfbf" d="M16.478 20.24L24 24l7.522-3.76L24 16.477z" stroke-width="1.50436"/><path stroke="#bf40bf" d="M16.478 27.76L24 31.523l7.522-3.761" stroke-width="1.50436"/><path stroke="#fff" d="M16.478 24L24 27.76 31.522 24" stroke-width="1.50436"/><path stroke="#40bfbf" d="M48 48l7.522-3.76L48 40.477l-7.522 3.761z" stroke-width="1.50436"/><path stroke="#bf40bf" d="M40.478 51.76L48 55.523l7.522-3.761" stroke-width="1.50436"/><path stroke="#fff" d="M40.478 48L48 51.76 55.522 48" stroke-width="1.50436"/><g><path stroke="#40bfbf" d="M55.522-3.76L48-7.523 40.478-3.76 48 0z" stroke-width="1.50436"/><path stroke="#bf40bf" d="M40.478 3.76L48 7.523l7.522-3.761" stroke-width="1.50436"/><path stroke="#fff" d="M40.478 0L48 3.76 55.522 0" stroke-width="1.50436"/></g><g><path stroke="#40bfbf" d="M0-7.522L-7.522-3.76 0 0l7.522-3.76z" stroke-width="1.50436"/><path stroke="#bf40bf" d="M-7.522 3.76L0 7.523 7.522 3.76" stroke-width="1.50436"/><path stroke="#fff" d="M-7.522 0L0 3.76 7.522 0" stroke-width="1.50436"/></g><g><path stroke="#40bfbf" d="M-7.522 44.24L0 48l7.522-3.76L0 40.477z" stroke-width="1.50436"/><path stroke="#bf40bf" d="M-7.522 51.76L0 55.523l7.522-3.761" stroke-width="1.50436"/><path stroke="#fff" d="M-7.522 48L0 51.76 7.522 48" stroke-width="1.50436"/></g><g><path stroke="#40bfbf" d="M0 96l7.522-3.76L0 88.477l-7.522 3.761z" stroke-width="1.50436"/><path stroke="#bf40bf" d="M-7.522 99.76L0 103.523l7.522-3.761" stroke-width="1.50436"/><path stroke="#fff" d="M-7.522 96L0 99.76 7.522 96" stroke-width="1.50436"/></g><g><path stroke="#40bfbf" d="M55.522 92.24L48 88.477l-7.522 3.761L48 96z" stroke-width="1.50436"/><path stroke="#bf40bf" d="M40.478 99.76L48 103.523l7.522-3.761" stroke-width="1.50436"/><path stroke="#fff" d="M40.478 96L48 99.76 55.522 96" stroke-width="1.50436"/></g><g><path stroke="#40bfbf" d="M96 88.478l-7.522 3.761L96 96l7.522-3.76z" stroke-width="1.50436"/><path stroke="#bf40bf" d="M88.478 99.76L96 103.523l7.522-3.761" stroke-width="1.50436"/><path stroke="#fff" d="M88.478 96L96 99.76l7.522-3.76" stroke-width="1.50436"/></g><g><path stroke="#40bfbf" d="M88.478 44.24L96 48l7.522-3.76L96 40.477z" stroke-width="1.50436"/><path stroke="#bf40bf" d="M88.478 51.76L96 55.523l7.522-3.761" stroke-width="1.50436"/><path stroke="#fff" d="M88.478 48L96 51.76l7.522-3.76" stroke-width="1.50436"/></g><g><path stroke="#40bfbf" d="M96 0l7.522-3.76L96-7.523 88.478-3.76z" stroke-width="1.50436"/><path stroke="#bf40bf" d="M88.478 3.76L96 7.523l7.522-3.761" stroke-width="1.50436"/><path stroke="#fff" d="M88.478 0L96 3.76 103.522 0" stroke-width="1.50436"/></g></svg>