<?xml version="1.0" encoding="UTF-8" standalone="no"?>
<svg
   xmlns:dc="http://purl.org/dc/elements/1.1/"
   xmlns:cc="http://creativecommons.org/ns#"
   xmlns:rdf="http://www.w3.org/1999/02/22-rdf-syntax-ns#"
   xmlns:svg="http://www.w3.org/2000/svg"
   xmlns="http://www.w3.org/2000/svg"
   xmlns:sodipodi="http://sodipodi.sourceforge.net/DTD/sodipodi-0.dtd"
   xmlns:inkscape="http://www.inkscape.org/namespaces/inkscape"
   id="svg8"
   version="1.1"
   class="feather feather-layers"
   viewBox="0 0 96.000002 96"
   height="1in"
   width="1in"
   style="fill:none;stroke:currentColor;stroke-width:2;stroke-linecap:round;stroke-linejoin:round"
   sodipodi:docname="backside.svg"
   inkscape:version="0.92.5 (2060ec1f9f, 2020-04-08)">
  <sodipodi:namedview
     pagecolor="#ffffff"
     bordercolor="#666666"
     borderopacity="1"
     objecttolerance="10"
     gridtolerance="10"
     guidetolerance="10"
     inkscape:pageopacity="0"
     inkscape:pageshadow="2"
     inkscape:window-width="2488"
     inkscape:window-height="1376"
     id="namedview930"
     showgrid="true"
     inkscape:zoom="5.0202851"
     inkscape:cx="33.07417"
     inkscape:cy="41.63208"
     inkscape:window-x="72"
     inkscape:window-y="27"
     inkscape:window-maximized="1"
     inkscape:current-layer="svg8"
     units="in"
     inkscape:snap-page="true">
    <inkscape:grid
       type="xygrid"
       id="grid964"
       units="in"
       spacingx="9.6000001"
       spacingy="9.6000001" />
  </sodipodi:namedview>
  <metadata
     id="metadata14">
    <rdf:RDF>
      <cc:Work
         rdf:about="">
        <dc:format>image/svg+xml</dc:format>
        <dc:type
           rdf:resource="http://purl.org/dc/dcmitype/StillImage" />
        <dc:title></dc:title>
      </cc:Work>
    </rdf:RDF>
  </metadata>
  <defs
     id="defs12" />
  <rect
     style="opacity:1;vector-effect:none;fill:#0d0d0d;fill-opacity:1;stroke:none;stroke-width:6.69817066;stroke-linecap:round;stroke-linejoin:round;stroke-miterlimit:4;stroke-dasharray:none;stroke-dashoffset:0;stroke-opacity:1"
     id="rect962"
     width="96"
     height="96"
     x="0"
     y="0" />
  <g
     id="g919"
     transform="matrix(0.7973133,0,0,0.7973133,14.43224,62.43224)"
     style="stroke-linecap:round;stroke-linejoin:round">
    <polygon
       transform="matrix(0.94339375,0,0,0.94339375,0.679275,0.67927505)"
       points="12,12 22,7 12,2 2,7 "
       id="polygon2"
       style="stroke:#40bfbf;stroke-linecap:round;stroke-linejoin:round;stroke-opacity:1" />
    <polyline
       transform="matrix(0.94339375,0,0,0.94339375,0.679275,0.67927505)"
       points="2 17 12 22 22 17"
       id="polyline4"
       style="stroke:#bf40bf;stroke-linecap:round;stroke-linejoin:round;stroke-opacity:1" />
    <polyline
       transform="matrix(0.94339375,0,0,0.94339375,0.679275,0.67927505)"
       points="2 12 12 17 22 12"
       id="polyline6"
       style="stroke:#ffffff;stroke-linecap:round;stroke-linejoin:round;stroke-opacity:1" />
  </g>
  <g
     style="stroke-linecap:round;stroke-linejoin:round"
     transform="matrix(0.7973133,0,0,0.7973133,62.432241,62.432239)"
     id="g976">
    <polygon
       style="stroke:#40bfbf;stroke-linecap:round;stroke-linejoin:round;stroke-opacity:1"
       id="polygon970"
       points="22,7 12,2 2,7 12,12 "
       transform="matrix(0.94339375,0,0,0.94339375,0.679275,0.67927505)" />
    <polyline
       style="stroke:#bf40bf;stroke-linecap:round;stroke-linejoin:round;stroke-opacity:1"
       id="polyline972"
       points="2 17 12 22 22 17"
       transform="matrix(0.94339375,0,0,0.94339375,0.679275,0.67927505)" />
    <polyline
       style="stroke:#ffffff;stroke-linecap:round;stroke-linejoin:round;stroke-opacity:1"
       id="polyline974"
       points="2 12 12 17 22 12"
       transform="matrix(0.94339375,0,0,0.94339375,0.679275,0.67927505)" />
  </g>
  <g
     id="g986"
     transform="matrix(0.7973133,0,0,0.7973133,62.432242,14.432238)"
     style="stroke-linecap:round;stroke-linejoin:round">
    <polygon
       transform="matrix(0.94339375,0,0,0.94339375,0.679275,0.67927505)"
       points="12,2 2,7 12,12 22,7 "
       id="polygon980"
       style="stroke:#40bfbf;stroke-linecap:round;stroke-linejoin:round;stroke-opacity:1" />
    <polyline
       transform="matrix(0.94339375,0,0,0.94339375,0.679275,0.67927505)"
       points="2 17 12 22 22 17"
       id="polyline982"
       style="stroke:#bf40bf;stroke-linecap:round;stroke-linejoin:round;stroke-opacity:1" />
    <polyline
       transform="matrix(0.94339375,0,0,0.94339375,0.679275,0.67927505)"
       points="2 12 12 17 22 12"
       id="polyline984"
       style="stroke:#ffffff;stroke-linecap:round;stroke-linejoin:round;stroke-opacity:1" />
  </g>
  <g
     style="stroke-linecap:round;stroke-linejoin:round"
     transform="matrix(0.7973133,0,0,0.7973133,14.432242,14.432238)"
     id="g996">
    <polygon
       style="stroke:#40bfbf;stroke-linecap:round;stroke-linejoin:round;stroke-opacity:1"
       id="polygon990"
       points="2,7 12,12 22,7 12,2 "
       transform="matrix(0.94339375,0,0,0.94339375,0.679275,0.67927505)" />
    <polyline
       style="stroke:#bf40bf;stroke-linecap:round;stroke-linejoin:round;stroke-opacity:1"
       id="polyline992"
       points="2 17 12 22 22 17"
       transform="matrix(0.94339375,0,0,0.94339375,0.679275,0.67927505)" />
    <polyline
       style="stroke:#ffffff;stroke-linecap:round;stroke-linejoin:round;stroke-opacity:1"
       id="polyline994"
       points="2 12 12 17 22 12"
       transform="matrix(0.94339375,0,0,0.94339375,0.679275,0.67927505)" />
  </g>
  <g
     id="g1006"
     transform="matrix(0.7973133,0,0,0.7973133,38.432242,38.432239)"
     style="stroke-linecap:round;stroke-linejoin:round">
    <polygon
       transform="matrix(0.94339375,0,0,0.94339375,0.679275,0.67927505)"
       points="12,12 22,7 12,2 2,7 "
       id="polygon1000"
       style="stroke:#40bfbf;stroke-linecap:round;stroke-linejoin:round;stroke-opacity:1" />
    <polyline
       transform="matrix(0.94339375,0,0,0.94339375,0.679275,0.67927505)"
       points="2 17 12 22 22 17"
       id="polyline1002"
       style="stroke:#bf40bf;stroke-linecap:round;stroke-linejoin:round;stroke-opacity:1" />
    <polyline
       transform="matrix(0.94339375,0,0,0.94339375,0.679275,0.67927505)"
       points="2 12 12 17 22 12"
       id="polyline1004"
       style="stroke:#ffffff;stroke-linecap:round;stroke-linejoin:round;stroke-opacity:1" />
  </g>
  <g
     style="stroke-linecap:round;stroke-linejoin:round"
     transform="matrix(0.7973133,0,0,0.7973133,38.432244,-9.567764)"
     id="g1023">
    <polygon
       style="stroke:#40bfbf;stroke-linecap:round;stroke-linejoin:round;stroke-opacity:1"
       id="polygon1017"
       points="22,7 12,2 2,7 12,12 "
       transform="matrix(0.94339375,0,0,0.94339375,0.679275,0.67927505)" />
    <polyline
       style="stroke:#bf40bf;stroke-linecap:round;stroke-linejoin:round;stroke-opacity:1"
       id="polyline1019"
       points="2 17 12 22 22 17"
       transform="matrix(0.94339375,0,0,0.94339375,0.679275,0.67927505)" />
    <polyline
       style="stroke:#ffffff;stroke-linecap:round;stroke-linejoin:round;stroke-opacity:1"
       id="polyline1021"
       points="2 12 12 17 22 12"
       transform="matrix(0.94339375,0,0,0.94339375,0.679275,0.67927505)" />
  </g>
  <g
     id="g1035"
     transform="matrix(0.7973133,0,0,0.7973133,-9.567758,-9.567762)"
     style="stroke-linecap:round;stroke-linejoin:round">
    <polygon
       transform="matrix(0.94339375,0,0,0.94339375,0.679275,0.67927505)"
       points="12,2 2,7 12,12 22,7 "
       id="polygon1029"
       style="stroke:#40bfbf;stroke-linecap:round;stroke-linejoin:round;stroke-opacity:1" />
    <polyline
       transform="matrix(0.94339375,0,0,0.94339375,0.679275,0.67927505)"
       points="2 17 12 22 22 17"
       id="polyline1031"
       style="stroke:#bf40bf;stroke-linecap:round;stroke-linejoin:round;stroke-opacity:1" />
    <polyline
       transform="matrix(0.94339375,0,0,0.94339375,0.679275,0.67927505)"
       points="2 12 12 17 22 12"
       id="polyline1033"
       style="stroke:#ffffff;stroke-linecap:round;stroke-linejoin:round;stroke-opacity:1" />
  </g>
  <g
     style="stroke-linecap:round;stroke-linejoin:round"
     transform="matrix(0.7973133,0,0,0.7973133,-9.567756,38.432237)"
     id="g1047">
    <polygon
       style="stroke:#40bfbf;stroke-linecap:round;stroke-linejoin:round;stroke-opacity:1"
       id="polygon1041"
       points="2,7 12,12 22,7 12,2 "
       transform="matrix(0.94339375,0,0,0.94339375,0.679275,0.67927505)" />
    <polyline
       style="stroke:#bf40bf;stroke-linecap:round;stroke-linejoin:round;stroke-opacity:1"
       id="polyline1043"
       points="2 17 12 22 22 17"
       transform="matrix(0.94339375,0,0,0.94339375,0.679275,0.67927505)" />
    <polyline
       style="stroke:#ffffff;stroke-linecap:round;stroke-linejoin:round;stroke-opacity:1"
       id="polyline1045"
       points="2 12 12 17 22 12"
       transform="matrix(0.94339375,0,0,0.94339375,0.679275,0.67927505)" />
  </g>
  <g
     id="g1059"
     transform="matrix(0.7973133,0,0,0.7973133,-9.567758,86.43224)"
     style="stroke-linecap:round;stroke-linejoin:round">
    <polygon
       transform="matrix(0.94339375,0,0,0.94339375,0.679275,0.67927505)"
       points="12,12 22,7 12,2 2,7 "
       id="polygon1053"
       style="stroke:#40bfbf;stroke-linecap:round;stroke-linejoin:round;stroke-opacity:1" />
    <polyline
       transform="matrix(0.94339375,0,0,0.94339375,0.679275,0.67927505)"
       points="2 17 12 22 22 17"
       id="polyline1055"
       style="stroke:#bf40bf;stroke-linecap:round;stroke-linejoin:round;stroke-opacity:1" />
    <polyline
       transform="matrix(0.94339375,0,0,0.94339375,0.679275,0.67927505)"
       points="2 12 12 17 22 12"
       id="polyline1057"
       style="stroke:#ffffff;stroke-linecap:round;stroke-linejoin:round;stroke-opacity:1" />
  </g>
  <g
     style="stroke-linecap:round;stroke-linejoin:round"
     transform="matrix(0.7973133,0,0,0.7973133,38.432244,86.432238)"
     id="g1071">
    <polygon
       style="stroke:#40bfbf;stroke-linecap:round;stroke-linejoin:round;stroke-opacity:1"
       id="polygon1065"
       points="22,7 12,2 2,7 12,12 "
       transform="matrix(0.94339375,0,0,0.94339375,0.679275,0.67927505)" />
    <polyline
       style="stroke:#bf40bf;stroke-linecap:round;stroke-linejoin:round;stroke-opacity:1"
       id="polyline1067"
       points="2 17 12 22 22 17"
       transform="matrix(0.94339375,0,0,0.94339375,0.679275,0.67927505)" />
    <polyline
       style="stroke:#ffffff;stroke-linecap:round;stroke-linejoin:round;stroke-opacity:1"
       id="polyline1069"
       points="2 12 12 17 22 12"
       transform="matrix(0.94339375,0,0,0.94339375,0.679275,0.67927505)" />
  </g>
  <g
     id="g1083"
     transform="matrix(0.7973133,0,0,0.7973133,86.432242,86.43224)"
     style="stroke-linecap:round;stroke-linejoin:round">
    <polygon
       transform="matrix(0.94339375,0,0,0.94339375,0.679275,0.67927505)"
       points="12,2 2,7 12,12 22,7 "
       id="polygon1077"
       style="stroke:#40bfbf;stroke-linecap:round;stroke-linejoin:round;stroke-opacity:1" />
    <polyline
       transform="matrix(0.94339375,0,0,0.94339375,0.679275,0.67927505)"
       points="2 17 12 22 22 17"
       id="polyline1079"
       style="stroke:#bf40bf;stroke-linecap:round;stroke-linejoin:round;stroke-opacity:1" />
    <polyline
       transform="matrix(0.94339375,0,0,0.94339375,0.679275,0.67927505)"
       points="2 12 12 17 22 12"
       id="polyline1081"
       style="stroke:#ffffff;stroke-linecap:round;stroke-linejoin:round;stroke-opacity:1" />
  </g>
  <g
     style="stroke-linecap:round;stroke-linejoin:round"
     transform="matrix(0.7973133,0,0,0.7973133,86.432244,38.432237)"
     id="g1095">
    <polygon
       style="stroke:#40bfbf;stroke-linecap:round;stroke-linejoin:round;stroke-opacity:1"
       id="polygon1089"
       points="2,7 12,12 22,7 12,2 "
       transform="matrix(0.94339375,0,0,0.94339375,0.679275,0.67927505)" />
    <polyline
       style="stroke:#bf40bf;stroke-linecap:round;stroke-linejoin:round;stroke-opacity:1"
       id="polyline1091"
       points="2 17 12 22 22 17"
       transform="matrix(0.94339375,0,0,0.94339375,0.679275,0.67927505)" />
    <polyline
       style="stroke:#ffffff;stroke-linecap:round;stroke-linejoin:round;stroke-opacity:1"
       id="polyline1093"
       points="2 12 12 17 22 12"
       transform="matrix(0.94339375,0,0,0.94339375,0.679275,0.67927505)" />
  </g>
  <g
     id="g1107"
     transform="matrix(0.7973133,0,0,0.7973133,86.432244,-9.567764)"
     style="stroke-linecap:round;stroke-linejoin:round">
    <polygon
       transform="matrix(0.94339375,0,0,0.94339375,0.679275,0.67927505)"
       points="12,12 22,7 12,2 2,7 "
       id="polygon1101"
       style="stroke:#40bfbf;stroke-linecap:round;stroke-linejoin:round;stroke-opacity:1" />
    <polyline
       transform="matrix(0.94339375,0,0,0.94339375,0.679275,0.67927505)"
       points="2 17 12 22 22 17"
       id="polyline1103"
       style="stroke:#bf40bf;stroke-linecap:round;stroke-linejoin:round;stroke-opacity:1" />
    <polyline
       transform="matrix(0.94339375,0,0,0.94339375,0.679275,0.67927505)"
       points="2 12 12 17 22 12"
       id="polyline1105"
       style="stroke:#ffffff;stroke-linecap:round;stroke-linejoin:round;stroke-opacity:1" />
  </g>
</svg>
