<?xml version="1.0" encoding="UTF-8" standalone="no"?>
<svg
   xmlns:dc="http://purl.org/dc/elements/1.1/"
   xmlns:cc="http://creativecommons.org/ns#"
   xmlns:rdf="http://www.w3.org/1999/02/22-rdf-syntax-ns#"
   xmlns:svg="http://www.w3.org/2000/svg"
   xmlns="http://www.w3.org/2000/svg"
   style="fill:none;stroke:currentColor;stroke-width:2;stroke-linecap:round;stroke-linejoin:round"
   width="137.1174"
   height="24"
   viewBox="0 0 137.1174 24"
   class="feather feather-layers"
   version="1.1"
   id="svg8">
  <metadata
     id="metadata14">
    <rdf:RDF>
      <cc:Work
         rdf:about="">
        <dc:format>image/svg+xml</dc:format>
        <dc:type
           rdf:resource="http://purl.org/dc/dcmitype/StillImage" />
        <dc:title></dc:title>
      </cc:Work>
    </rdf:RDF>
  </metadata>
  <defs
     id="defs12" />
  <g
     style="stroke-linecap:round;stroke-linejoin:round"
     transform="matrix(0.7973133,0,0,0.7973133,4.1807345,2.4322404)"
     id="g919">
    <polygon
       style="stroke:#40bfbf;stroke-linecap:round;stroke-linejoin:round;stroke-opacity:1"
       id="polygon2"
       points="22,7 12,2 2,7 12,12 "
       transform="matrix(0.94339375,0,0,0.94339375,0.679275,0.67927505)" />
    <polyline
       style="stroke:#bf40bf;stroke-linecap:round;stroke-linejoin:round;stroke-opacity:1"
       id="polyline4"
       points="2 17 12 22 22 17"
       transform="matrix(0.94339375,0,0,0.94339375,0.679275,0.67927505)" />
    <polyline
       style="stroke:#ffffff;stroke-linecap:round;stroke-linejoin:round;stroke-opacity:1"
       id="polyline6"
       points="2 12 12 17 22 12"
       transform="matrix(0.94339375,0,0,0.94339375,0.679275,0.67927505)" />
  </g>
  <path
     id="path1109"
     d="m 103.43639,5.799349 c -1.11214,0 -2.13075,0.265284 -3.04102,0.794922 -0.910795,0.518813 -1.635222,1.254562 -2.164056,2.197266 -0.518709,0.933675 -0.777344,1.99608 -0.777344,3.173828 0,1.177748 0.259061,2.243073 0.777344,3.1875 a 0.1750175,0.1750175 0 0 0 0.002,0.002 c 0.528822,0.931186 1.250546,1.66762 2.160156,2.197266 a 0.1750175,0.1750175 0 0 0 0.002,0 c 0.91054,0.518662 1.92882,0.777343 3.04102,0.777343 1.07826,0 2.05548,-0.247408 2.92187,-0.74414 0.87478,-0.494939 1.57543,-1.171087 2.09375,-2.023438 a 0.1750175,0.1750175 0 0 0 0,-0.0019 c 0.51819,-0.863644 0.80595,-1.827773 0.86328,-2.882812 a 0.1750175,0.1750175 0 0 0 0,-0.0098 v -0.855469 a 0.1750175,0.1750175 0 0 0 -0.17382,-0.175781 h -6.17579 A 0.1750175,0.1750175 0 0 0 102.79,11.611915 v 0.957031 a 0.1750175,0.1750175 0 0 0 0.17578,0.173829 h 4.70508 c -0.0754,0.760652 -0.25493,1.452304 -0.60937,2.033203 a 0.1750175,0.1750175 0 0 0 0,0.002 c -0.37643,0.623793 -0.87789,1.101539 -1.51172,1.445312 -0.62152,0.331831 -1.32209,0.5 -2.11328,0.5 -0.84567,0 -1.59568,-0.193347 -2.26172,-0.580078 -0.66555,-0.386446 -1.18903,-0.936012 -1.578125,-1.660156 -0.387806,-0.721496 -0.584081,-1.557097 -0.584081,-2.517691 0,-0.960594 0.194955,-1.792314 0.582031,-2.501953 a 0.1750175,0.1750175 0 0 0 0.002,0 c 0.389095,-0.724144 0.912575,-1.273711 1.578125,-1.660156 0.66604,-0.386731 1.41605,-0.580079 2.26172,-0.580078 0.90041,-1e-6 1.66834,0.215055 2.32031,0.642578 a 0.1750175,0.1750175 0 0 0 0.002,0.002 c 0.66499,0.4183 1.15373,0.989888 1.47657,1.732422 a 0.1750175,0.1750175 0 0 0 0.16015,0.105468 h 1.37696 a 0.1750175,0.1750175 0 0 0 0.16211,-0.236328 c -0.43647,-1.148586 -1.14371,-2.054787 -2.11329,-2.701172 -0.96957,-0.646385 -2.10265,-0.96875 -3.38476,-0.96875 z"
     style="font-style:normal;font-variant:normal;font-weight:normal;font-stretch:normal;font-size:16.78052139px;line-height:1.5;font-family:'Poppins Light';-inkscape-font-specification:'Poppins Light, ';letter-spacing:0.4951863px;word-spacing:0px;fill:#bf40bf;fill-opacity:1;stroke:none;stroke-width:0.34999999;stroke-linecap:round;stroke-linejoin:round;stroke-miterlimit:4;stroke-dasharray:none;stroke-opacity:1" />
  <path
     id="path1107"
     d="m 28.58483,5.932162 a 0.1750175,0.1750175 0 0 0 -0.173828,0.175781 v 11.730469 a 0.1750175,0.1750175 0 0 0 0.173828,0.173828 h 1.175781 a 0.1750175,0.1750175 0 0 0 0.173828,-0.173828 v -5.228516 h 4.1875 a 0.1750175,0.1750175 0 0 0 0.175781,-0.175781 v -0.972656 a 0.1750175,0.1750175 0 0 0 -0.175781,-0.175782 h -4.1875 V 7.256381 H 34.92858 A 0.1750175,0.1750175 0 0 0 35.102408,7.080599 V 6.107943 A 0.1750175,0.1750175 0 0 0 34.92858,5.932162 Z"
     style="font-style:normal;font-variant:normal;font-weight:normal;font-stretch:normal;font-size:16.78052139px;line-height:1.5;font-family:'Poppins Light';-inkscape-font-specification:'Poppins Light, ';letter-spacing:0.4951863px;word-spacing:0px;fill:#40bfbf;fill-opacity:1;stroke:none;stroke-width:0.34999999;stroke-linecap:round;stroke-linejoin:round;stroke-miterlimit:4;stroke-dasharray:none;stroke-opacity:1" />
  <path
     id="path1105"
     d="m 65.770376,5.932162 a 0.1750175,0.1750175 0 0 0 -0.158203,0.175781 v 11.730469 a 0.1750175,0.1750175 0 0 0 0.175782,0.173828 h 4.060547 c 0.813996,0 1.524199,-0.138112 2.123046,-0.419922 a 0.1750175,0.1750175 0 0 0 0.002,0 c 0.594716,-0.29155 1.053644,-0.68927 1.363281,-1.189453 0.319268,-0.508464 0.480469,-1.080496 0.480469,-1.703125 0,-0.763951 -0.247362,-1.448019 -0.730469,-2.025391 -0.403446,-0.482167 -0.933177,-0.723112 -1.492188,-0.894531 0.503818,-0.196202 0.978491,-0.431333 1.322266,-0.824219 a 0.1750175,0.1750175 0 0 0 0.002,-0.002 c 0.421195,-0.4934 0.628906,-1.134012 0.628906,-1.892578 0,-0.914467 -0.338895,-1.683252 -1,-2.261719 -0.657024,-0.584512 -1.604472,-0.86714 -2.816499,-0.86714 h -3.943359 a 0.1750175,0.1750175 0 0 0 -0.01758,0 z m 1.367188,1.341797 h 2.509766 c 0.801825,0 1.382979,0.177468 1.765625,0.509765 a 0.1750175,0.1750175 0 0 0 0.002,0.0019 c 0.3977,0.336515 0.591797,0.782955 0.591797,1.392578 0,0.621474 -0.195251,1.082278 -0.59375,1.429687 -0.384367,0.333792 -0.947679,0.509766 -1.714844,0.509766 h -2.560594 z m 0,5.167969 h 2.578125 c 0.809471,0 1.425856,0.200792 1.880859,0.59375 a 0.1750175,0.1750175 0 0 0 0.0039,0.0039 c 0.465778,0.382973 0.691406,0.879853 0.691406,1.542969 0,0.664967 -0.215688,1.156866 -0.658203,1.527343 a 0.1750175,0.1750175 0 0 0 -0.002,0 c -0.430255,0.368789 -1.044606,0.5625 -1.867188,0.5625 h -2.626899 z"
     style="font-style:normal;font-variant:normal;font-weight:normal;font-stretch:normal;font-size:16.78052139px;line-height:1.5;font-family:'Poppins Light';-inkscape-font-specification:'Poppins Light, ';letter-spacing:0.4951863px;word-spacing:0px;fill:#ffffff;fill-opacity:1;stroke:none;stroke-width:0.34999999;stroke-linecap:round;stroke-linejoin:round;stroke-miterlimit:4;stroke-dasharray:none;stroke-opacity:1" />
  <path
     id="path1101"
     d="m 41.664908,8.332552 c -0.795576,0 -1.48228,0.162515 -2.050782,0.494141 a 0.1750175,0.1750175 0 0 0 -0.002,0 C 39.206005,9.068638 38.957543,9.465654 38.70197,9.854037 V 8.676302 A 0.1750175,0.1750175 0 0 0 38.528142,8.500521 h -1.175781 a 0.1750175,0.1750175 0 0 0 -0.173828,0.175781 v 9.16211 a 0.1750175,0.1750175 0 0 0 0.173875,0.173828 h 1.175781 a 0.1750175,0.1750175 0 0 0 0.173828,-0.173828 v -5.119141 c 0,-1.046002 0.250887,-1.754442 0.714844,-2.167968 0.478866,-0.426816 1.110944,-0.644532 1.929687,-0.644532 h 0.31836 A 0.1750175,0.1750175 0 0 0 41.840689,9.732943 V 8.508334 A 0.1750175,0.1750175 0 0 0 41.664908,8.332552 Z"
     style="font-style:normal;font-variant:normal;font-weight:normal;font-stretch:normal;font-size:16.78052139px;line-height:1.5;font-family:'Poppins Light';-inkscape-font-specification:'Poppins Light, ';letter-spacing:0.4951863px;word-spacing:0px;fill:#40bfbf;fill-opacity:1;stroke:none;stroke-width:0.34999999;stroke-linecap:round;stroke-linejoin:round;stroke-miterlimit:4;stroke-dasharray:none;stroke-opacity:1" />
  <path
     id="path1099"
     d="m 47.883658,8.365756 c -0.898015,0 -1.707854,0.197948 -2.417969,0.59375 -0.711118,0.39636 -1.269385,0.97192 -1.664063,1.714843 -0.395417,0.744316 -0.591796,1.607802 -0.591796,2.582032 0,0.974229 0.196379,1.837715 0.591796,2.582031 a 0.1750175,0.1750175 0 0 0 0.002,0.0039 c 0.405824,0.730484 0.966591,1.304026 1.675781,1.710938 a 0.1750175,0.1750175 0 0 0 0.002,0 c 0.70976,0.395603 1.515186,0.59375 2.402344,0.59375 1.136975,0 2.096233,-0.289471 2.857422,-0.875 0.766607,-0.592379 1.273255,-1.364508 1.505859,-2.294922 a 0.1750175,0.1750175 0 0 0 -0.167969,-0.216797 h -1.242187 a 0.1750175,0.1750175 0 0 0 -0.169922,0.128906 c -0.158209,0.590646 -0.475848,1.049033 -0.970703,1.396484 a 0.1750175,0.1750175 0 0 0 -0.002,0 c -0.481417,0.345365 -1.078139,0.521485 -1.810547,0.521485 -0.557046,0 -1.065639,-0.117781 -1.533203,-0.351563 C 45.887013,16.212759 45.515889,15.863859 45.229407,15.397 44.975773,14.98367 44.857292,14.462254 44.803626,13.885281 h 7.375 a 0.1750175,0.1750175 0 0 0 0.173828,-0.158203 c 0.02358,-0.223997 0.03516,-0.535433 0.03516,-0.941406 0,-0.808247 -0.18703,-1.549514 -0.558594,-2.212891 l -0.002,-0.002 C 51.465422,9.895401 50.937185,9.356142 50.252798,8.961459 49.574425,8.563792 48.781672,8.365756 47.883658,8.365756 Z m -0.05078,1.357422 c 0.557046,0 1.06564,0.115827 1.533204,0.349609 0.463295,0.231647 0.820213,0.569751 1.083984,1.023437 a 0.1750175,0.1750175 0 0 0 0.002,0.002 c 0.243161,0.402151 0.336307,0.912441 0.353516,1.480468 h -5.97461 c 0.09871,-0.866386 0.355967,-1.579997 0.886719,-2.0625 0.584818,-0.531652 1.280041,-0.792968 2.115234,-0.792968 z"
     style="font-style:normal;font-variant:normal;font-weight:normal;font-stretch:normal;font-size:16.78052139px;line-height:1.5;font-family:'Poppins Light';-inkscape-font-specification:'Poppins Light, ';letter-spacing:0.4951863px;word-spacing:0px;fill:#40bfbf;fill-opacity:1;stroke:none;stroke-width:0.34999999;stroke-linecap:round;stroke-linejoin:round;stroke-miterlimit:4;stroke-dasharray:none;stroke-opacity:1" />
  <path
     id="path1097"
     d="m 58.815298,8.365756 c -0.898014,0 -1.707853,0.197948 -2.417968,0.59375 -0.711118,0.39636 -1.267432,0.97192 -1.66211,1.714843 -0.395418,0.744316 -0.591797,1.607802 -0.591797,2.582032 0,0.974229 0.196379,1.837715 0.591797,2.582031 a 0.1750175,0.1750175 0 0 0 0,0.0039 c 0.405825,0.730484 0.968545,1.304026 1.677735,1.710938 a 0.1750175,0.1750175 0 0 0 0.002,0 c 0.709759,0.395603 1.513233,0.59375 2.40039,0.59375 1.136976,0 2.098187,-0.289471 2.859375,-0.875 0.766608,-0.592379 1.273256,-1.364508 1.50586,-2.294922 A 0.1750175,0.1750175 0 0 0 63.010658,14.760281 H 61.76847 a 0.1750175,0.1750175 0 0 0 -0.167968,0.128906 c -0.158209,0.590646 -0.477801,1.049033 -0.972657,1.396484 a 0.1750175,0.1750175 0 0 0 -0.002,0 c -0.481416,0.345365 -1.078138,0.521485 -1.810547,0.521485 -0.555542,0 -1.062777,-0.117087 -1.529296,-0.34961 l -0.0039,-0.002 c -0.46289,-0.242807 -0.832922,-0.592164 -1.11914,-1.058593 -0.253558,-0.413205 -0.37207,-0.934971 -0.425782,-1.511719 h 7.375 a 0.1750175,0.1750175 0 0 0 0.173829,-0.158203 c 0.02358,-0.223997 0.0332,-0.535433 0.0332,-0.941406 0,-0.808247 -0.185077,-1.549514 -0.556641,-2.212891 l -0.002,-0.002 C 62.399235,9.895809 61.870176,9.356079 61.186392,8.961459 60.508019,8.563792 59.713313,8.365756 58.815298,8.365756 Z m -0.05078,1.357422 c 0.557045,0 1.065639,0.115827 1.533203,0.349609 0.463296,0.231647 0.822167,0.569751 1.085938,1.023437 a 0.1750175,0.1750175 0 0 0 0,0.002 c 0.243161,0.402151 0.336307,0.912441 0.353515,1.480468 h -5.972656 c 0.0987,-0.866386 0.355966,-1.579997 0.886719,-2.0625 0.584818,-0.531652 1.278087,-0.792968 2.113281,-0.792968 z"
     style="font-style:normal;font-variant:normal;font-weight:normal;font-stretch:normal;font-size:16.78052139px;line-height:1.5;font-family:'Poppins Light';-inkscape-font-specification:'Poppins Light, ';letter-spacing:0.4951863px;word-spacing:0px;fill:#40bfbf;fill-opacity:1;stroke:none;stroke-width:0.34999999;stroke-linecap:round;stroke-linejoin:round;stroke-miterlimit:4;stroke-dasharray:none;stroke-opacity:1" />
  <path
     id="path1095"
     d="m 80.260611,8.365756 c -0.898015,0 -1.705901,0.197948 -2.416016,0.59375 -0.711118,0.39636 -1.269384,0.97192 -1.664062,1.714843 -0.395418,0.744316 -0.591797,1.607802 -0.591797,2.582032 0,0.974229 0.196379,1.837715 0.591797,2.582031 a 0.1750175,0.1750175 0 0 0 0.002,0.0039 c 0.405824,0.730484 0.966592,1.304026 1.675781,1.710938 a 0.1750175,0.1750175 0 0 0 0.002,0 c 0.70976,0.395603 1.513233,0.59375 2.400391,0.59375 1.136976,0 2.098186,-0.289471 2.859375,-0.875 0.766607,-0.592379 1.273256,-1.364508 1.505859,-2.294922 a 0.1750175,0.1750175 0 0 0 -0.169922,-0.216797 h -1.240234 a 0.1750175,0.1750175 0 0 0 -0.169922,0.128906 c -0.158209,0.590646 -0.477801,1.049033 -0.972656,1.396484 -0.481417,0.345365 -1.080092,0.521485 -1.8125,0.521485 -0.557045,0 -1.063686,-0.117781 -1.53125,-0.351563 C 78.265967,16.212759 77.894843,15.863859 77.608361,15.397 77.354804,14.983795 77.236292,14.462029 77.18258,13.885281 h 7.375 a 0.1750175,0.1750175 0 0 0 0.173828,-0.158203 c 0.02358,-0.223997 0.03516,-0.535433 0.03516,-0.941406 0,-0.808247 -0.187029,-1.549514 -0.558594,-2.212891 l -0.002,-0.002 C 83.844328,9.895401 83.316091,9.356142 82.631705,8.961459 81.953331,8.563792 81.158625,8.365756 80.260611,8.365756 Z m -0.04883,1.357422 c 0.557045,0 1.063686,0.115827 1.53125,0.349609 0.463295,0.231647 0.822166,0.569751 1.085937,1.023437 a 0.1750175,0.1750175 0 0 0 0.002,0.002 c 0.243154,0.402138 0.334348,0.912464 0.351563,1.480468 h -5.972656 c 0.0987,-0.866386 0.355966,-1.579997 0.886718,-2.0625 0.584818,-0.531652 1.280041,-0.79297 2.115235,-0.792968 z"
     style="font-style:normal;font-variant:normal;font-weight:normal;font-stretch:normal;font-size:16.78052139px;line-height:1.5;font-family:'Poppins Light';-inkscape-font-specification:'Poppins Light, ';letter-spacing:0.4951863px;word-spacing:0px;fill:#ffffff;fill-opacity:1;stroke:none;stroke-width:0.34999999;stroke-linecap:round;stroke-linejoin:round;stroke-miterlimit:4;stroke-dasharray:none;stroke-opacity:1" />
  <path
     id="path1093"
     d="m 91.194205,8.365756 c -0.898015,0 -1.707854,0.197948 -2.417969,0.59375 -0.711118,0.39636 -1.269385,0.97192 -1.664063,1.714843 -0.395417,0.744316 -0.589843,1.607802 -0.589843,2.582032 0,0.974229 0.194426,1.837715 0.589843,2.582031 a 0.1750175,0.1750175 0 0 0 0.002,0.0039 c 0.405825,0.730484 0.968545,1.304026 1.677735,1.710938 a 0.1750175,0.1750175 0 0 0 0.002,0 c 0.70976,0.395603 1.513233,0.59375 2.400391,0.59375 1.136975,0 2.098186,-0.289471 2.859375,-0.875 0.766607,-0.592379 1.273255,-1.364508 1.505859,-2.294922 a 0.1750175,0.1750175 0 0 0 -0.169922,-0.216797 h -1.242187 a 0.1750175,0.1750175 0 0 0 -0.167969,0.128906 c -0.158209,0.590646 -0.477801,1.049033 -0.972656,1.396484 a 0.1750175,0.1750175 0 0 0 -0.002,0 c -0.481417,0.345365 -1.078139,0.521485 -1.810547,0.521485 -0.555543,0 -1.062777,-0.117087 -1.529297,-0.34961 l -0.0039,-0.002 c -0.463052,-0.242764 -0.834928,-0.59211 -1.121147,-1.05854 -0.253634,-0.41333 -0.372113,-0.934746 -0.425782,-1.511719 h 7.375 a 0.1750175,0.1750175 0 0 0 0.173829,-0.158203 c 0.02358,-0.223997 0.03516,-0.535433 0.03516,-0.941406 0,-0.808247 -0.185077,-1.549514 -0.556641,-2.212891 l -0.002,-0.002 C 94.778141,9.895809 94.249082,9.356079 93.565298,8.961459 92.886925,8.563792 92.092219,8.365756 91.194205,8.365756 Z m -0.05078,1.357422 c 0.557046,0 1.06564,0.115827 1.533203,0.349609 0.463296,0.231647 0.820214,0.569751 1.083985,1.023437 a 0.1750175,0.1750175 0 0 0 0.002,0.002 c 0.243161,0.402151 0.336307,0.912441 0.353516,1.480468 h -5.972657 c 0.0987,-0.866386 0.355967,-1.579997 0.886719,-2.0625 0.584818,-0.531652 1.278087,-0.79297 2.113281,-0.792968 z"
     style="font-style:normal;font-variant:normal;font-weight:normal;font-stretch:normal;font-size:16.78052139px;line-height:1.5;font-family:'Poppins Light';-inkscape-font-specification:'Poppins Light, ';letter-spacing:0.4951863px;word-spacing:0px;fill:#ffffff;fill-opacity:1;stroke:none;stroke-width:0.34999999;stroke-linecap:round;stroke-linejoin:round;stroke-miterlimit:4;stroke-dasharray:none;stroke-opacity:1" />
  <path
     id="path1091"
     d="m 115.74498,8.365756 c -0.89801,0 -1.70785,0.197948 -2.41797,0.59375 -0.71111,0.39636 -1.26938,0.97192 -1.66406,1.714843 -0.39542,0.744316 -0.5918,1.607802 -0.5918,2.582032 0,0.974229 0.19638,1.837715 0.5918,2.582031 a 0.1750175,0.1750175 0 0 0 0.002,0.0039 c 0.40583,0.730484 0.9666,1.304026 1.67578,1.710938 a 0.1750175,0.1750175 0 0 0 0.002,0 c 0.70976,0.395603 1.51518,0.59375 2.40234,0.59375 1.13698,0 2.09624,-0.289471 2.85742,-0.875 0.76661,-0.592379 1.27326,-1.364508 1.50586,-2.294922 a 0.1750175,0.1750175 0 0 0 -0.16797,-0.216797 h -1.24218 a 0.1750175,0.1750175 0 0 0 -0.16993,0.128906 c -0.15819,0.590646 -0.47584,1.049033 -0.9707,1.396484 a 0.1750175,0.1750175 0 0 0 -0.002,0 c -0.48142,0.345365 -1.07814,0.521485 -1.81055,0.521485 -0.55704,0 -1.06564,-0.117781 -1.5332,-0.351563 -0.46349,-0.242834 -0.8346,-0.591734 -1.1211,-1.058593 -0.25363,-0.41333 -0.37211,-0.934746 -0.42578,-1.511719 h 7.375 a 0.1750175,0.1750175 0 0 0 0.17383,-0.158203 c 0.0236,-0.223997 0.0352,-0.535433 0.0352,-0.941406 0,-0.808247 -0.18703,-1.549514 -0.5586,-2.212891 l -0.002,-0.002 c -0.36159,-0.675433 -0.88983,-1.214692 -1.57422,-1.609375 -0.67837,-0.397667 -1.47112,-0.595703 -2.36914,-0.595703 z m -0.0508,1.357422 c 0.55705,0 1.06564,0.115827 1.5332,0.349609 0.4633,0.231647 0.82022,0.569751 1.08399,1.023437 a 0.1750175,0.1750175 0 0 0 0.002,0.002 c 0.24316,0.402151 0.33631,0.912441 0.35352,1.480468 h -5.97461 c 0.0987,-0.866386 0.35596,-1.579997 0.88672,-2.0625 0.58481,-0.531652 1.28004,-0.79297 2.11523,-0.792968 z"
     style="font-style:normal;font-variant:normal;font-weight:normal;font-stretch:normal;font-size:16.78052139px;line-height:1.5;font-family:'Poppins Light';-inkscape-font-specification:'Poppins Light, ';letter-spacing:0.4951863px;word-spacing:0px;fill:#bf40bf;fill-opacity:1;stroke:none;stroke-width:0.34999999;stroke-linecap:round;stroke-linejoin:round;stroke-miterlimit:4;stroke-dasharray:none;stroke-opacity:1" />
  <path
     id="path1089"
     d="m 126.67662,8.365756 c -0.89801,0 -1.70785,0.197948 -2.41797,0.59375 -0.71111,0.39636 -1.26743,0.97192 -1.66211,1.714843 -0.39541,0.744316 -0.59179,1.607802 -0.59179,2.582032 0,0.974229 0.19638,1.837715 0.59179,2.582031 a 0.1750175,0.1750175 0 0 0 0,0.0039 c 0.40583,0.730484 0.96855,1.304026 1.67774,1.710938 a 0.1750175,0.1750175 0 0 0 0.002,0 c 0.70976,0.395603 1.51323,0.59375 2.40039,0.59375 1.13698,0 2.09819,-0.289471 2.85938,-0.875 0.7666,-0.592379 1.27325,-1.364508 1.50586,-2.294922 a 0.1750175,0.1750175 0 0 0 -0.16992,-0.216797 h -1.24219 a 0.1750175,0.1750175 0 0 0 -0.16797,0.128906 c -0.15821,0.590646 -0.4778,1.049033 -0.97266,1.396484 a 0.1750175,0.1750175 0 0 0 -0.002,0 c -0.48142,0.345365 -1.07814,0.521485 -1.81055,0.521485 -0.55554,0 -1.06277,-0.117087 -1.52929,-0.34961 l -0.004,-0.002 c -0.46289,-0.242807 -0.83292,-0.592164 -1.11914,-1.058593 -0.25356,-0.413205 -0.37207,-0.934971 -0.42578,-1.511719 h 7.375 a 0.1750175,0.1750175 0 0 0 0.17383,-0.158203 c 0.0236,-0.223997 0.0332,-0.535433 0.0332,-0.941406 0,-0.808247 -0.18508,-1.549514 -0.55664,-2.212891 l -0.002,-0.002 C 130.26042,9.895709 129.73136,9.355979 129.04758,8.961359 128.3692,8.563692 127.5745,8.365656 126.67648,8.365656 Z m -0.0508,1.357422 c 0.55705,0 1.06564,0.115827 1.5332,0.349609 0.4633,0.231647 0.82217,0.569751 1.08594,1.023437 a 0.1750175,0.1750175 0 0 0 0,0.002 c 0.24316,0.402151 0.33631,0.912441 0.35352,1.480468 h -5.97266 c 0.0987,-0.866386 0.35597,-1.579997 0.88672,-2.0625 0.58482,-0.531652 1.27809,-0.79297 2.11328,-0.792968 z"
     style="font-style:normal;font-variant:normal;font-weight:normal;font-stretch:normal;font-size:16.78052139px;line-height:1.5;font-family:'Poppins Light';-inkscape-font-specification:'Poppins Light, ';letter-spacing:0.4951863px;word-spacing:0px;fill:#bf40bf;fill-opacity:1;stroke:none;stroke-width:0.34999999;stroke-linecap:round;stroke-linejoin:round;stroke-miterlimit:4;stroke-dasharray:none;stroke-opacity:1" />
</svg>
