<svg width="110" height="64" viewBox="0 0 29.104 16.933" xmlns="http://www.w3.org/2000/svg"><path style="font-variation-settings:normal;opacity:1;vector-effect:none;fill:#000;fill-opacity:.188;stroke-width:1;stroke-linecap:butt;stroke-linejoin:miter;stroke-miterlimit:4;stroke-dasharray:none;stroke-dashoffset:0;stroke-opacity:1;-inkscape-stroke:none;stop-color:#000;stop-opacity:1" d="M8.984-.265c.033.112.052.203.052.265 0 .261-.312.988-.775 1.9L5.757 6.237c-.56.858-1.033 1.493-1.26 1.624-.393.227-2.466.34-4.539.34h-.223v.532l.223-.002c2.073 0 4.146.114 4.539.34.226.131.7.766 1.259 1.622l2.505 4.341c.463.911.775 1.638.775 1.9 0 .061-.019.152-.052.264H20.12a1.03 1.03 0 0 1-.052-.265c0-.261.312-.988.775-1.899l2.506-4.342c.558-.856 1.032-1.49 1.258-1.62.393-.227 2.466-.34 4.539-.34h.223V8.2c-2.146.009-4.355-.103-4.762-.339-.226-.13-.7-.765-1.26-1.622L20.844 1.9C20.38.988 20.068.261 20.068 0c0-.062.019-.153.052-.265H9.887Zm5.568.53c2.073 0 4.146.113 4.539.34.228.132.71.782 1.274 1.649l2.477 4.29c.468.92.788 1.66.788 1.923 0 .263-.32 1.002-.788 1.922l-2.477 4.29c-.564.867-1.046 1.517-1.274 1.649-.786.454-8.292.454-9.078 0-.228-.132-.71-.782-1.274-1.649l-2.477-4.29c-.468-.92-.788-1.66-.788-1.922 0-.264.32-1.003.788-1.923l2.477-4.29C9.303 1.387 9.785.737 10.013.605c.393-.227 2.466-.34 4.539-.34Z"/></svg>