<?xml version="1.0" encoding="UTF-8" standalone="no"?>
<svg
   xmlns:dc="http://purl.org/dc/elements/1.1/"
   xmlns:cc="http://creativecommons.org/ns#"
   xmlns:rdf="http://www.w3.org/1999/02/22-rdf-syntax-ns#"
   xmlns:svg="http://www.w3.org/2000/svg"
   xmlns="http://www.w3.org/2000/svg"
   id="svg1260"
   version="1.1"
   viewBox="0 0 16.933333 16.933334"
   height="64"
   width="64">
  <defs
     id="defs1254" />
  <metadata
     id="metadata1257">
    <rdf:RDF>
      <cc:Work
         rdf:about="">
        <dc:format>image/svg+xml</dc:format>
        <dc:type
           rdf:resource="http://purl.org/dc/dcmitype/StillImage" />
        <dc:title></dc:title>
      </cc:Work>
    </rdf:RDF>
  </metadata>
  <g
     transform="translate(0,-280.06665)"
     id="layer1">
    <path
       id="rect2015"
       transform="matrix(0.26458333,0,0,0.26458333,0,280.06665)"
       d="M -1 -3 L -1 -1 L -3 -1 L -3 1 L -1 1 L -1 3 L 1 3 L 1 1 L 3 1 L 3 -1 L 1 -1 L 1 -3 L -1 -3 z "
       style="opacity:1;vector-effect:none;fill:#050505;fill-opacity:0.1882353;stroke:none;stroke-width:7.55905533;stroke-linecap:round;stroke-linejoin:round;stroke-miterlimit:4;stroke-dasharray:none;stroke-dashoffset:0;stroke-opacity:1" />
    <path
       style="opacity:1;vector-effect:none;fill:#050505;fill-opacity:0.1882353;stroke:none;stroke-width:2;stroke-linecap:round;stroke-linejoin:round;stroke-miterlimit:4;stroke-dasharray:none;stroke-dashoffset:0;stroke-opacity:1"
       d="m 16.66875,279.2729 v 0.52917 h -0.529167 v 0.52916 h 0.529167 v 0.52917 h 0.529167 v -0.52917 h 0.529166 v -0.52916 h -0.529166 v -0.52917 z"
       id="path2020" />
    <path
       id="path2022"
       d="m 16.66875,296.20623 v 0.52917 h -0.529167 v 0.52916 h 0.529167 v 0.52917 h 0.529167 v -0.52917 h 0.529166 v -0.52916 h -0.529166 v -0.52917 z"
       style="opacity:1;vector-effect:none;fill:#050505;fill-opacity:0.1882353;stroke:none;stroke-width:2;stroke-linecap:round;stroke-linejoin:round;stroke-miterlimit:4;stroke-dasharray:none;stroke-dashoffset:0;stroke-opacity:1" />
    <path
       style="opacity:1;vector-effect:none;fill:#050505;fill-opacity:0.1882353;stroke:none;stroke-width:2;stroke-linecap:round;stroke-linejoin:round;stroke-miterlimit:4;stroke-dasharray:none;stroke-dashoffset:0;stroke-opacity:1"
       d="m -0.264583,296.20623 v 0.52917 H -0.79375 v 0.52916 h 0.529167 v 0.52917 h 0.529167 v -0.52917 H 0.79375 V 296.7354 H 0.264584 v -0.52917 z"
       id="path2024" />
  </g>
</svg>
