<svg xmlns="http://www.w3.org/2000/svg" width="110" height="64" viewBox="0 0 29.104 16.933"><path d="m9.79 0 .3.529-4.713 7.938h-.615Z" style="fill:#fff;stroke:none;stroke-width:.264582px;stroke-linecap:butt;stroke-linejoin:miter;stroke-opacity:1;opacity:.25;fill-opacity:.66;font-variation-settings:normal;vector-effect:none;stroke-miterlimit:4;stroke-dasharray:none;stroke-dashoffset:0;-inkscape-stroke:none;stop-color:#000;stop-opacity:1"/><path d="m19.314 0-.3.529H10.09l-.3-.53Z" style="opacity:.25;fill:#fff;fill-opacity:.66;stroke:none;stroke-width:.264582px;stroke-linecap:butt;stroke-linejoin:miter;stroke-opacity:1"/><path d="M24.342 8.467h-.615L19.014.529l.3-.53Z" style="fill:#fff;stroke:none;stroke-width:.264582px;stroke-linecap:butt;stroke-linejoin:miter;stroke-opacity:1;opacity:.25;fill-opacity:.2"/><path d="m19.314 16.933-.3-.529 4.713-7.937h.615z" style="fill:#000;stroke:none;stroke-width:.264582px;stroke-linecap:butt;stroke-linejoin:miter;stroke-opacity:1;opacity:.25;fill-opacity:.66;font-variation-settings:normal;vector-effect:none;stroke-miterlimit:4;stroke-dasharray:none;stroke-dashoffset:0;-inkscape-stroke:none;stop-color:#000;stop-opacity:1"/><path d="m9.79 16.933.3-.529h8.924l.3.53z" style="fill:#000;stroke:none;stroke-width:.264582px;stroke-linecap:butt;stroke-linejoin:miter;stroke-opacity:1;opacity:.25;fill-opacity:.66000003"/><path d="M5.377 8.467h-.615l5.028 8.466.3-.529Z" style="fill:#000;stroke:none;stroke-width:.264582px;stroke-linecap:butt;stroke-linejoin:miter;stroke-opacity:1;opacity:.25;fill-opacity:.2;font-variation-settings:normal;vector-effect:none;stroke-miterlimit:4;stroke-dasharray:none;stroke-dashoffset:0;-inkscape-stroke:none;stop-color:#000;stop-opacity:1"/><path d="m24.342 8.466.3.53-4.713 7.938h-.615z" style="fill:#fff;stroke:none;stroke-width:.264582px;stroke-linecap:butt;stroke-linejoin:miter;stroke-opacity:1;opacity:.25;fill-opacity:.66;font-variation-settings:normal;vector-effect:none;stroke-miterlimit:4;stroke-dasharray:none;stroke-dashoffset:0;-inkscape-stroke:none;stop-color:#000;stop-opacity:1"/><path d="m4.762 8.467-.3-.53L9.175 0h.615Z" style="fill:#000;stroke:none;stroke-width:.264582px;stroke-linecap:butt;stroke-linejoin:miter;stroke-opacity:1;opacity:.25;fill-opacity:.66;font-variation-settings:normal;vector-effect:none;stroke-miterlimit:4;stroke-dasharray:none;stroke-dashoffset:0;-inkscape-stroke:none;stop-color:#000;stop-opacity:1"/><path d="M19.929 0h-.615l5.028 8.466.3-.528z" style="fill:#000;stroke:none;stroke-width:.264582px;stroke-linecap:butt;stroke-linejoin:miter;stroke-opacity:1;opacity:.25;fill-opacity:.2"/><path d="M9.79 16.933h-.615L4.462 8.997l.3-.53z" style="fill:#fff;stroke:none;stroke-width:.264582px;stroke-linecap:butt;stroke-linejoin:miter;stroke-opacity:1;opacity:.25;fill-opacity:.2;font-variation-settings:normal;vector-effect:none;stroke-miterlimit:4;stroke-dasharray:none;stroke-dashoffset:0;-inkscape-stroke:none;stop-color:#000;stop-opacity:1"/><path d="m33.866 8.466-.3.53h-8.924l-.3-.53Zm-29.104 0-.3.53h-8.924l-.3-.53z" style="fill:#fff;stroke:none;stroke-width:.264582px;stroke-linecap:butt;stroke-linejoin:miter;stroke-opacity:1;opacity:.25;fill-opacity:.66;font-variation-settings:normal;vector-effect:none;stroke-miterlimit:4;stroke-dasharray:none;stroke-dashoffset:0;-inkscape-stroke:none;stop-color:#000;stop-opacity:1"/><path d="m24.342 8.466.3-.528h8.924l.3.528zm-29.104.001.3-.53h8.924l.3.53z" style="fill:#000;stroke:none;stroke-width:.264582px;stroke-linecap:butt;stroke-linejoin:miter;stroke-opacity:1;opacity:.25;fill-opacity:.66;font-variation-settings:normal;vector-effect:none;stroke-miterlimit:4;stroke-dasharray:none;stroke-dashoffset:0;-inkscape-stroke:none;stop-color:#000;stop-opacity:1"/></svg>