<svg xmlns="http://www.w3.org/2000/svg" width="64" height="110" viewBox="0 0 16.933 29.104"><path d="M17.198 8.984a1.048 1.048 0 0 1-.265.052c-.26 0-.988-.312-1.9-.775l-4.337-2.504c-.858-.56-1.493-1.033-1.624-1.26-.227-.393-.34-2.466-.34-4.54v-.222H8.2l.002.223c0 2.073-.114 4.146-.34 4.539-.13.226-.766.7-1.622 1.259L1.9 8.26c-.912.463-1.639.775-1.9.775a1.05 1.05 0 0 1-.265-.052V20.12A1.03 1.03 0 0 1 0 20.068c.261 0 .988.312 1.9.775l4.341 2.506c.856.558 1.49 1.032 1.62 1.258.227.393.34 2.466.34 4.539v.223h.532c-.009-2.146.103-4.355.34-4.762.13-.226.764-.7 1.621-1.26l4.34-2.503c.911-.464 1.638-.776 1.9-.776.061 0 .152.019.264.052V9.887zm-.53 5.568c0 2.073-.113 4.146-.34 4.539-.132.228-.782.71-1.649 1.274l-4.29 2.477c-.92.468-1.66.788-1.923.788-.263 0-1.002-.32-1.922-.788l-4.29-2.477C1.387 19.8.737 19.319.605 19.09c-.454-.786-.454-8.292 0-9.078.132-.228.782-.71 1.65-1.274l4.29-2.477c.92-.468 1.66-.788 1.921-.788.264 0 1.003.32 1.923.788l4.29 2.477c.867.564 1.517 1.046 1.65 1.274.226.393.34 2.466.34 4.539z" style="font-variation-settings:normal;opacity:1;vector-effect:none;fill:#000;fill-opacity:.12;stroke-width:1;stroke-linecap:butt;stroke-linejoin:miter;stroke-miterlimit:4;stroke-dasharray:none;stroke-dashoffset:0;stroke-opacity:1;-inkscape-stroke:none;stop-color:#000;stop-opacity:1"/></svg>