<svg width="64" height="110" viewBox="0 0 16.933 29.104" xmlns="http://www.w3.org/2000/svg"><path style="font-variation-settings:normal;opacity:1;vector-effect:none;fill:#fff;fill-opacity:.125;stroke-width:1.90525;stroke-linecap:butt;stroke-linejoin:miter;stroke-miterlimit:4;stroke-dasharray:none;stroke-dashoffset:0;stroke-opacity:1;-inkscape-stroke:none;stop-color:#000;stop-opacity:1" d="M17.198 8.984a1.023 1.023 0 0 1-.265.052c-.261 0-.988-.312-1.9-.775l-4.337-2.504c-.858-.56-1.493-1.034-1.624-1.26-.227-.393-.34-2.466-.34-4.539v-.223H8.2l.002.223c0 2.073-.114 4.146-.34 4.539-.131.226-.765.7-1.622 1.259L1.9 8.26c-.912.462-1.639.775-1.9.775-.062 0-.153-.019-.265-.052V20.12c.112-.033.203-.052.265-.052.261 0 .988.312 1.9.774L6.24 23.35c.856.558 1.49 1.031 1.62 1.258.227.393.341 2.466.341 4.539l-.002.222h.533c-.009-2.145.104-4.354.339-4.761.13-.227.765-.7 1.622-1.26l4.339-2.505c.912-.462 1.638-.774 1.9-.774.062 0 .154.019.265.052zm-.53 5.568c0 2.073-.113 4.146-.34 4.538-.132.229-.782.71-1.649 1.275l-4.29 2.477c-.92.467-1.66.788-1.922.788-.264 0-1.003-.32-1.923-.788l-4.29-2.477C1.387 19.8.737 19.319.605 19.09c-.454-.786-.454-8.29 0-9.077.132-.228.782-.71 1.65-1.274l4.29-2.478c.919-.467 1.658-.787 1.922-.787.263 0 1.002.32 1.922.787l4.29 2.478c.867.564 1.517 1.046 1.65 1.274.226.393.34 2.466.34 4.539z"/></svg>