<svg xmlns="http://www.w3.org/2000/svg" width="110" height="64" viewBox="0 0 29.104 16.933"><path d="M.265 1.058V.53L.723.264 1.18.53z" style="opacity:.66;fill:#fff;fill-opacity:.8;stroke:none;stroke-width:.264582px;stroke-linecap:butt;stroke-linejoin:miter;stroke-opacity:1"/><path d="m-.652.529.458-.265.459.265v.53z" style="opacity:.66;fill:#fff;fill-opacity:.33;stroke:none;stroke-width:.264582px;stroke-linecap:butt;stroke-linejoin:miter;stroke-opacity:1"/><path d="m-.652-.53.458.265v.53l-.458.264z" style="font-variation-settings:normal;opacity:.66;vector-effect:none;fill:#000;fill-opacity:.33;stroke:none;stroke-width:.264582px;stroke-linecap:butt;stroke-linejoin:miter;stroke-miterlimit:4;stroke-dasharray:none;stroke-dashoffset:0;stroke-opacity:1;-inkscape-stroke:none;stop-color:#000"/><path d="M.265-1.058v.529l-.459.264-.458-.264z" style="opacity:.66;fill:#000;fill-opacity:.8;stroke:none;stroke-width:.264582px;stroke-linecap:butt;stroke-linejoin:miter;stroke-opacity:1"/><path d="m.723-.265.458-.264-.916-.53v.53z" style="opacity:.66;fill:#000;fill-opacity:.33;stroke:none;stroke-width:.264582px;stroke-linecap:butt;stroke-linejoin:miter;stroke-opacity:1"/><path d="M.723.264 1.18.53V-.529l-.458.264z" style="font-variation-settings:normal;opacity:.66;vector-effect:none;fill:#fff;fill-opacity:.33;stroke:none;stroke-width:.264582px;stroke-linecap:butt;stroke-linejoin:miter;stroke-miterlimit:4;stroke-dasharray:none;stroke-dashoffset:0;stroke-opacity:1;-inkscape-stroke:none;stop-color:#000"/><path d="M29.104 1.058V.53l.458-.265.459.265z" style="opacity:.66;fill:#fff;fill-opacity:.8;stroke:none;stroke-width:.264582px;stroke-linecap:butt;stroke-linejoin:miter;stroke-opacity:1"/><path d="m28.187.529.459-.265.458.265v.53z" style="opacity:.66;fill:#fff;fill-opacity:.33;stroke:none;stroke-width:.264582px;stroke-linecap:butt;stroke-linejoin:miter;stroke-opacity:1"/><path d="m28.187-.53.459.265v.53l-.459.264z" style="font-variation-settings:normal;opacity:.66;vector-effect:none;fill:#000;fill-opacity:.33;stroke:none;stroke-width:.264582px;stroke-linecap:butt;stroke-linejoin:miter;stroke-miterlimit:4;stroke-dasharray:none;stroke-dashoffset:0;stroke-opacity:1;-inkscape-stroke:none;stop-color:#000"/><path d="M29.104-1.058v.529l-.458.264-.459-.264z" style="opacity:.66;fill:#000;fill-opacity:.8;stroke:none;stroke-width:.264582px;stroke-linecap:butt;stroke-linejoin:miter;stroke-opacity:1"/><path d="m29.562-.265.459-.264-.917-.53v.53z" style="opacity:.66;fill:#000;fill-opacity:.33;stroke:none;stroke-width:.264582px;stroke-linecap:butt;stroke-linejoin:miter;stroke-opacity:1"/><path d="m29.562.264.459.265V-.529l-.459.264z" style="font-variation-settings:normal;opacity:.66;vector-effect:none;fill:#fff;fill-opacity:.33;stroke:none;stroke-width:.264582px;stroke-linecap:butt;stroke-linejoin:miter;stroke-miterlimit:4;stroke-dasharray:none;stroke-dashoffset:0;stroke-opacity:1;-inkscape-stroke:none;stop-color:#000"/><path d="M29.104 17.991v-.529l.458-.264.459.264z" style="opacity:.66;fill:#fff;fill-opacity:.8;stroke:none;stroke-width:.264582px;stroke-linecap:butt;stroke-linejoin:miter;stroke-opacity:1"/><path d="m28.187 17.462.459-.264.458.264v.53z" style="opacity:.66;fill:#fff;fill-opacity:.33;stroke:none;stroke-width:.264582px;stroke-linecap:butt;stroke-linejoin:miter;stroke-opacity:1"/><path d="m28.187 16.404.459.265v.529l-.459.264z" style="font-variation-settings:normal;opacity:.66;vector-effect:none;fill:#000;fill-opacity:.33;stroke:none;stroke-width:.264582px;stroke-linecap:butt;stroke-linejoin:miter;stroke-miterlimit:4;stroke-dasharray:none;stroke-dashoffset:0;stroke-opacity:1;-inkscape-stroke:none;stop-color:#000"/><path d="M29.104 15.875v.529l-.458.265-.459-.265z" style="opacity:.66;fill:#000;fill-opacity:.8;stroke:none;stroke-width:.264582px;stroke-linecap:butt;stroke-linejoin:miter;stroke-opacity:1"/><path d="m29.562 16.669.459-.265-.917-.53v.53z" style="opacity:.66;fill:#000;fill-opacity:.33;stroke:none;stroke-width:.264582px;stroke-linecap:butt;stroke-linejoin:miter;stroke-opacity:1"/><path d="m29.562 17.198.459.264v-1.058l-.459.265z" style="font-variation-settings:normal;opacity:.66;vector-effect:none;fill:#fff;fill-opacity:.33;stroke:none;stroke-width:.264582px;stroke-linecap:butt;stroke-linejoin:miter;stroke-miterlimit:4;stroke-dasharray:none;stroke-dashoffset:0;stroke-opacity:1;-inkscape-stroke:none;stop-color:#000"/><path d="M0 17.991v-.529l.458-.264.459.264z" style="opacity:.66;fill:#fff;fill-opacity:.8;stroke:none;stroke-width:.264582px;stroke-linecap:butt;stroke-linejoin:miter;stroke-opacity:1"/><path d="m-.917 17.462.459-.264.458.264v.53z" style="opacity:.66;fill:#fff;fill-opacity:.33;stroke:none;stroke-width:.264582px;stroke-linecap:butt;stroke-linejoin:miter;stroke-opacity:1"/><path d="m-.917 16.404.459.265v.529l-.459.264z" style="font-variation-settings:normal;opacity:.66;vector-effect:none;fill:#000;fill-opacity:.33;stroke:none;stroke-width:.264582px;stroke-linecap:butt;stroke-linejoin:miter;stroke-miterlimit:4;stroke-dasharray:none;stroke-dashoffset:0;stroke-opacity:1;-inkscape-stroke:none;stop-color:#000"/><path d="M0 15.875v.529l-.458.265-.459-.265z" style="opacity:.66;fill:#000;fill-opacity:.8;stroke:none;stroke-width:.264582px;stroke-linecap:butt;stroke-linejoin:miter;stroke-opacity:1"/><path d="m.458 16.669.459-.265-.917-.53v.53z" style="opacity:.66;fill:#000;fill-opacity:.33;stroke:none;stroke-width:.264582px;stroke-linecap:butt;stroke-linejoin:miter;stroke-opacity:1"/><path d="m.458 17.198.459.264v-1.058l-.459.265z" style="font-variation-settings:normal;opacity:.66;vector-effect:none;fill:#fff;fill-opacity:.33;stroke:none;stroke-width:.264582px;stroke-linecap:butt;stroke-linejoin:miter;stroke-miterlimit:4;stroke-dasharray:none;stroke-dashoffset:0;stroke-opacity:1;-inkscape-stroke:none;stop-color:#000"/><path d="M14.552 9.525v-.53l.458-.264.459.265z" style="opacity:.66;fill:#fff;fill-opacity:.8;stroke:none;stroke-width:.264582px;stroke-linecap:butt;stroke-linejoin:miter;stroke-opacity:1"/><path d="m13.635 8.996.459-.265.458.265v.529z" style="opacity:.66;fill:#fff;fill-opacity:.33;stroke:none;stroke-width:.264582px;stroke-linecap:butt;stroke-linejoin:miter;stroke-opacity:1"/><path d="m13.635 7.937.459.265v.53l-.459.264z" style="font-variation-settings:normal;opacity:.66;vector-effect:none;fill:#000;fill-opacity:.33;stroke:none;stroke-width:.264582px;stroke-linecap:butt;stroke-linejoin:miter;stroke-miterlimit:4;stroke-dasharray:none;stroke-dashoffset:0;stroke-opacity:1;-inkscape-stroke:none;stop-color:#000"/><path d="M14.552 7.408v.53l-.458.264-.459-.265Z" style="opacity:.66;fill:#000;fill-opacity:.8;stroke:none;stroke-width:.264582px;stroke-linecap:butt;stroke-linejoin:miter;stroke-opacity:1"/><path d="m15.01 8.202.459-.265-.917-.529v.53z" style="opacity:.66;fill:#000;fill-opacity:.33;stroke:none;stroke-width:.264582px;stroke-linecap:butt;stroke-linejoin:miter;stroke-opacity:1"/><path d="m15.01 8.731.459.265V7.937l-.459.265z" style="font-variation-settings:normal;opacity:.66;vector-effect:none;fill:#fff;fill-opacity:.33;stroke:none;stroke-width:.264582px;stroke-linecap:butt;stroke-linejoin:miter;stroke-miterlimit:4;stroke-dasharray:none;stroke-dashoffset:0;stroke-opacity:1;-inkscape-stroke:none;stop-color:#000"/></svg>