<svg width="110" height="64" viewBox="0 0 29.104 16.933" xmlns="http://www.w3.org/2000/svg"><path style="font-variation-settings:normal;opacity:1;vector-effect:none;fill:#fff;fill-opacity:.125;stroke-width:7.20102;stroke-linecap:butt;stroke-linejoin:miter;stroke-miterlimit:4;stroke-dasharray:none;stroke-dashoffset:0;stroke-opacity:1;-inkscape-stroke:none;stop-color:#000;stop-opacity:1" d="M33.955-1c.126.42.197.765.197 1 0 .989-1.18 3.736-2.927 7.182L21.76 23.574c-2.114 3.243-3.907 5.644-4.764 6.139C15.51 30.57 7.676 31-.158 31c-.282 0-.56-.005-.842-.006v2.012c.281-.001.56-.006.842-.006 7.834 0 15.668.43 17.154 1.287.856.495 2.647 2.891 4.758 6.129l9.47 16.406c1.747 3.444 2.928 6.19 2.928 7.178 0 .235-.071.58-.197 1h42.09c-.126-.42-.197-.765-.197-1 0-.988 1.18-3.734 2.927-7.178L88.25 40.41c2.11-3.234 3.898-5.629 4.754-6.123C94.49 33.43 102.324 33 110.158 33c.282 0 .56.005.842.006v-2.012c-8.108.032-16.457-.393-17.996-1.281-.857-.495-2.648-2.892-4.76-6.131l-9.469-16.4C77.028 3.736 75.848.989 75.848 0c0-.235.071-.58.197-1h-42.09zM55 1c7.835 0 15.669.43 17.154 1.287.864.499 2.683 2.955 4.817 6.233l9.363 16.214C88.1 28.21 89.311 31.005 89.311 32c0 .995-1.211 3.79-2.977 7.266L76.971 55.48c-2.134 3.278-3.953 5.734-4.817 6.233-2.971 1.715-31.337 1.715-34.308 0-.864-.499-2.683-2.955-4.817-6.233l-9.363-16.214C21.9 35.79 20.689 32.995 20.689 32c0-.995 1.211-3.79 2.977-7.266L33.029 8.52c2.134-3.278 3.953-5.734 4.817-6.233C39.33 1.43 47.166 1 55 1z" transform="scale(.26458)"/></svg>