<svg xmlns="http://www.w3.org/2000/svg" width="64" height="110" viewBox="0 0 16.933 29.104"><path d="M16.933 30.162v-.529l.458-.264.459.264z" style="opacity:.5;fill:#fff;fill-opacity:.8;stroke:none;stroke-width:.264582px;stroke-linecap:butt;stroke-linejoin:miter;stroke-opacity:1"/><path d="m16.016 29.633.459-.264.458.264v.53z" style="opacity:.5;fill:#fff;fill-opacity:.33;stroke:none;stroke-width:.264582px;stroke-linecap:butt;stroke-linejoin:miter;stroke-opacity:1"/><path d="m16.016 28.575.459.264v.53l-.459.264z" style="font-variation-settings:normal;opacity:.5;vector-effect:none;fill:#000;fill-opacity:.33;stroke:none;stroke-width:.264582px;stroke-linecap:butt;stroke-linejoin:miter;stroke-miterlimit:4;stroke-dasharray:none;stroke-dashoffset:0;stroke-opacity:1;-inkscape-stroke:none;stop-color:#000"/><path d="M16.933 28.046v.529l-.458.264-.459-.264z" style="opacity:.5;fill:#000;fill-opacity:.8;stroke:none;stroke-width:.264582px;stroke-linecap:butt;stroke-linejoin:miter;stroke-opacity:1"/><path d="m17.391 28.84.459-.265-.917-.53v.53z" style="opacity:.5;fill:#000;fill-opacity:.33;stroke:none;stroke-width:.264582px;stroke-linecap:butt;stroke-linejoin:miter;stroke-opacity:1"/><path d="m17.391 29.369.459.264v-1.058l-.459.264z" style="font-variation-settings:normal;opacity:.5;vector-effect:none;fill:#fff;fill-opacity:.33;stroke:none;stroke-width:.264582px;stroke-linecap:butt;stroke-linejoin:miter;stroke-miterlimit:4;stroke-dasharray:none;stroke-dashoffset:0;stroke-opacity:1;-inkscape-stroke:none;stop-color:#000"/><path d="M0 30.162v-.529l.458-.264.459.264z" style="opacity:.5;fill:#fff;fill-opacity:.8;stroke:none;stroke-width:.264582px;stroke-linecap:butt;stroke-linejoin:miter;stroke-opacity:1"/><path d="m-.917 29.633.459-.264.458.264v.53z" style="opacity:.5;fill:#fff;fill-opacity:.33;stroke:none;stroke-width:.264582px;stroke-linecap:butt;stroke-linejoin:miter;stroke-opacity:1"/><path d="m-.917 28.575.459.264v.53l-.459.264z" style="font-variation-settings:normal;opacity:.5;vector-effect:none;fill:#000;fill-opacity:.33;stroke:none;stroke-width:.264582px;stroke-linecap:butt;stroke-linejoin:miter;stroke-miterlimit:4;stroke-dasharray:none;stroke-dashoffset:0;stroke-opacity:1;-inkscape-stroke:none;stop-color:#000"/><path d="M0 28.046v.529l-.458.264-.459-.264z" style="opacity:.5;fill:#000;fill-opacity:.8;stroke:none;stroke-width:.264582px;stroke-linecap:butt;stroke-linejoin:miter;stroke-opacity:1"/><path d="m.458 28.84.459-.265-.917-.53v.53z" style="opacity:.5;fill:#000;fill-opacity:.33;stroke:none;stroke-width:.264582px;stroke-linecap:butt;stroke-linejoin:miter;stroke-opacity:1"/><path d="m.458 29.369.459.264v-1.058l-.459.264z" style="font-variation-settings:normal;opacity:.5;vector-effect:none;fill:#fff;fill-opacity:.33;stroke:none;stroke-width:.264582px;stroke-linecap:butt;stroke-linejoin:miter;stroke-miterlimit:4;stroke-dasharray:none;stroke-dashoffset:0;stroke-opacity:1;-inkscape-stroke:none;stop-color:#000"/><path d="M0 1.058V.53L.458.265l.459.264Z" style="opacity:.5;fill:#fff;fill-opacity:.8;stroke:none;stroke-width:.264582px;stroke-linecap:butt;stroke-linejoin:miter;stroke-opacity:1"/><path d="m-.917.53.459-.265L0 .529v.53Z" style="opacity:.5;fill:#fff;fill-opacity:.33;stroke:none;stroke-width:.264582px;stroke-linecap:butt;stroke-linejoin:miter;stroke-opacity:1"/><path d="m-.917-.53.459.265v.53l-.459.264Z" style="font-variation-settings:normal;opacity:.5;vector-effect:none;fill:#000;fill-opacity:.33;stroke:none;stroke-width:.264582px;stroke-linecap:butt;stroke-linejoin:miter;stroke-miterlimit:4;stroke-dasharray:none;stroke-dashoffset:0;stroke-opacity:1;-inkscape-stroke:none;stop-color:#000"/><path d="M0-1.058v.529l-.458.264-.459-.264z" style="opacity:.5;fill:#000;fill-opacity:.8;stroke:none;stroke-width:.264582px;stroke-linecap:butt;stroke-linejoin:miter;stroke-opacity:1"/><path d="m.458-.265.459-.264L0-1.06v.53z" style="opacity:.5;fill:#000;fill-opacity:.33;stroke:none;stroke-width:.264582px;stroke-linecap:butt;stroke-linejoin:miter;stroke-opacity:1"/><path d="m.458.265.459.264V-.529l-.459.264Z" style="font-variation-settings:normal;opacity:.5;vector-effect:none;fill:#fff;fill-opacity:.33;stroke:none;stroke-width:.264582px;stroke-linecap:butt;stroke-linejoin:miter;stroke-miterlimit:4;stroke-dasharray:none;stroke-dashoffset:0;stroke-opacity:1;-inkscape-stroke:none;stop-color:#000"/><path d="M16.933 1.058V.53l.458-.264.459.264z" style="opacity:.5;fill:#fff;fill-opacity:.8;stroke:none;stroke-width:.264582px;stroke-linecap:butt;stroke-linejoin:miter;stroke-opacity:1"/><path d="m16.016.53.459-.265.458.264v.53z" style="opacity:.5;fill:#fff;fill-opacity:.33;stroke:none;stroke-width:.264582px;stroke-linecap:butt;stroke-linejoin:miter;stroke-opacity:1"/><path d="m16.016-.53.459.265v.53l-.459.264z" style="font-variation-settings:normal;opacity:.5;vector-effect:none;fill:#000;fill-opacity:.33;stroke:none;stroke-width:.264582px;stroke-linecap:butt;stroke-linejoin:miter;stroke-miterlimit:4;stroke-dasharray:none;stroke-dashoffset:0;stroke-opacity:1;-inkscape-stroke:none;stop-color:#000"/><path d="M16.933-1.058v.529l-.458.264-.459-.264z" style="opacity:.5;fill:#000;fill-opacity:.8;stroke:none;stroke-width:.264582px;stroke-linecap:butt;stroke-linejoin:miter;stroke-opacity:1"/><path d="m17.391-.265.459-.264-.917-.53v.53z" style="opacity:.5;fill:#000;fill-opacity:.33;stroke:none;stroke-width:.264582px;stroke-linecap:butt;stroke-linejoin:miter;stroke-opacity:1"/><path d="m17.391.265.459.264V-.529l-.459.264z" style="font-variation-settings:normal;opacity:.5;vector-effect:none;fill:#fff;fill-opacity:.33;stroke:none;stroke-width:.264582px;stroke-linecap:butt;stroke-linejoin:miter;stroke-miterlimit:4;stroke-dasharray:none;stroke-dashoffset:0;stroke-opacity:1;-inkscape-stroke:none;stop-color:#000"/><path d="M8.466 15.61v-.529l.459-.264.458.264z" style="opacity:.5;fill:#fff;fill-opacity:.8;stroke:none;stroke-width:.264582px;stroke-linecap:butt;stroke-linejoin:miter;stroke-opacity:1"/><path d="m7.55 15.081.458-.264.458.264v.53z" style="opacity:.5;fill:#fff;fill-opacity:.33;stroke:none;stroke-width:.264582px;stroke-linecap:butt;stroke-linejoin:miter;stroke-opacity:1"/><path d="m7.55 14.023.458.264v.53l-.458.264Z" style="font-variation-settings:normal;opacity:.5;vector-effect:none;fill:#000;fill-opacity:.33;stroke:none;stroke-width:.264582px;stroke-linecap:butt;stroke-linejoin:miter;stroke-miterlimit:4;stroke-dasharray:none;stroke-dashoffset:0;stroke-opacity:1;-inkscape-stroke:none;stop-color:#000"/><path d="M8.466 13.494v.529l-.458.264-.458-.264Z" style="opacity:.5;fill:#000;fill-opacity:.8;stroke:none;stroke-width:.264582px;stroke-linecap:butt;stroke-linejoin:miter;stroke-opacity:1"/><path d="m8.925 14.287.458-.264-.917-.53v.53z" style="opacity:.5;fill:#000;fill-opacity:.33;stroke:none;stroke-width:.264582px;stroke-linecap:butt;stroke-linejoin:miter;stroke-opacity:1"/><path d="m8.925 14.817.458.264v-1.058l-.458.264z" style="font-variation-settings:normal;opacity:.5;vector-effect:none;fill:#fff;fill-opacity:.33;stroke:none;stroke-width:.264582px;stroke-linecap:butt;stroke-linejoin:miter;stroke-miterlimit:4;stroke-dasharray:none;stroke-dashoffset:0;stroke-opacity:1;-inkscape-stroke:none;stop-color:#000"/></svg>