<svg xmlns="http://www.w3.org/2000/svg" width="64" height="64" viewBox="0 0 16.933 16.933"><path d="M0-.794a.264.264 0 0 0-.265.265v.264h-.264a.264.264 0 1 0 0 .53h.264v.264a.264.264 0 1 0 .53 0V.265h.264a.264.264 0 1 0 0-.53H.265v-.264A.264.264 0 0 0 0-.794Zm16.933 0a.264.264 0 0 0-.265.265v.264h-.264a.264.264 0 1 0 0 .53h.264v.264a.264.264 0 1 0 .53 0V.265h.264a.264.264 0 1 0 0-.53h-.264v-.264a.264.264 0 0 0-.265-.265zm0 16.934a.264.264 0 0 0-.265.264v.264h-.264a.264.264 0 1 0 0 .53h.264v.264a.264.264 0 1 0 .53 0v-.264h.264a.264.264 0 1 0 0-.53h-.264v-.264a.264.264 0 0 0-.265-.265zM0 16.14a.264.264 0 0 0-.265.264v.264h-.264a.264.264 0 1 0 0 .53h.264v.264a.264.264 0 1 0 .53 0v-.264h.264a.264.264 0 1 0 0-.53H.265v-.264A.264.264 0 0 0 0 16.139z" style="font-variation-settings:normal;opacity:1;vector-effect:none;fill:#fff;fill-opacity:.23999999;stroke-width:1;stroke-linecap:butt;stroke-linejoin:miter;stroke-miterlimit:4;stroke-dasharray:none;stroke-dashoffset:0;stroke-opacity:1;-inkscape-stroke:none;stop-color:#000;stop-opacity:1"/></svg>