<svg xmlns="http://www.w3.org/2000/svg" width="64" height="64" viewBox="0 0 16.933 16.933"><path d="M0-1.323a.397.397 0 0 0-.397.397v.53h-.519a.397.397 0 0 0-.01 0A.397.397 0 0 0-1.323 0a.397.397 0 0 0 .397.397h.53v.529A.397.397 0 0 0 0 1.323.397.397 0 0 0 .397.926a.397.397 0 0 0 0-.01v-.52h.529A.397.397 0 0 0 1.323 0a.397.397 0 0 0-.397-.397h-.53v-.529A.397.397 0 0 0 0-1.323Zm16.933 0a.397.397 0 0 0-.397.397v.53h-.519a.397.397 0 0 0-.01 0A.397.397 0 0 0 15.61 0a.397.397 0 0 0 .397.397h.53v.529a.397.397 0 0 0 .396.397.397.397 0 0 0 .397-.397.397.397 0 0 0 0-.01v-.52h.529A.397.397 0 0 0 18.256 0a.397.397 0 0 0-.397-.397h-.53v-.529a.397.397 0 0 0-.396-.397zm0 16.933a.397.397 0 0 0-.397.397v.53h-.519a.397.397 0 0 0-.01 0 .397.397 0 0 0-.397.396.397.397 0 0 0 .397.397h.53v.529a.397.397 0 0 0 .396.397.397.397 0 0 0 .397-.397.397.397 0 0 0 0-.01v-.52h.529a.397.397 0 0 0 .397-.396.397.397 0 0 0-.397-.397h-.53v-.529a.397.397 0 0 0-.396-.397zM0 15.61a.397.397 0 0 0-.397.397v.53h-.519a.397.397 0 0 0-.01 0 .397.397 0 0 0-.397.396.397.397 0 0 0 .397.397h.53v.529a.397.397 0 0 0 .396.397.397.397 0 0 0 .397-.397.397.397 0 0 0 0-.01v-.52h.529a.397.397 0 0 0 .397-.396.397.397 0 0 0-.397-.397h-.53v-.529A.397.397 0 0 0 0 15.61Z" style="fill:#fff;fill-opacity:.5;fill-rule:evenodd;stroke-width:.264578;stroke-linecap:round;stop-color:#000"/></svg>