<?xml version="1.0" encoding="UTF-8" standalone="no"?>
<svg
   xmlns:dc="http://purl.org/dc/elements/1.1/"
   xmlns:cc="http://creativecommons.org/ns#"
   xmlns:rdf="http://www.w3.org/1999/02/22-rdf-syntax-ns#"
   xmlns:svg="http://www.w3.org/2000/svg"
   xmlns="http://www.w3.org/2000/svg"
   xmlns:sodipodi="http://sodipodi.sourceforge.net/DTD/sodipodi-0.dtd"
   xmlns:inkscape="http://www.inkscape.org/namespaces/inkscape"
   style="height: 512px; width: 512px;"
   viewBox="0 0 512 512"
   version="1.1"
   id="svg22"
   sodipodi:docname="chess.king.1x1x2.ffffff.svg"
   inkscape:version="0.92.5 (2060ec1f9f, 2020-04-08)">
  <metadata
     id="metadata28">
    <rdf:RDF>
      <cc:Work
         rdf:about="">
        <dc:format>image/svg+xml</dc:format>
        <dc:type
           rdf:resource="http://purl.org/dc/dcmitype/StillImage" />
      </cc:Work>
    </rdf:RDF>
  </metadata>
  <defs
     id="defs26" />
  <sodipodi:namedview
     pagecolor="#ffffff"
     bordercolor="#666666"
     borderopacity="1"
     objecttolerance="10"
     gridtolerance="10"
     guidetolerance="10"
     inkscape:pageopacity="0"
     inkscape:pageshadow="2"
     inkscape:window-width="640"
     inkscape:window-height="480"
     id="namedview24"
     showgrid="false"
     inkscape:zoom="0.57977295"
     inkscape:cx="256"
     inkscape:cy="256"
     inkscape:window-x="72"
     inkscape:window-y="27"
     inkscape:window-maximized="0"
     inkscape:current-layer="svg22" />
  <path
     d="M0 0h512v512H0z"
     fill="#000"
     fill-opacity="1"
     id="path16"
     style="fill:#ffffff" />
  <g
     class=""
     style="fill:#000000"
     transform="translate(0,0)"
     id="g20">
    <path
       d="M405.995 477.15h-300v-60h300v60zm-10.3-107.13h-279.4a96.88 96.88 0 0 1 6.65 31.12h266.1a96.88 96.88 0 0 1 6.65-31.12zm-139.7-241.06a35.76 35.76 0 0 0-35.76 35.76c0 50.16 35.76 99.34 35.76 99.34s35.76-49.18 35.76-99.34a35.76 35.76 0 0 0-35.76-35.76zm8-15.38V94.24h18.36v-16h-18.36V54.85h-16v23.39h-18.36v16h18.36v19.38a51.9 51.9 0 0 1 16-.04zm81.64 51.36a98.74 98.74 0 0 0-38.13 7.61c-3.23 51.75-37.07 98.85-38.58 100.93l-4.93 6.76V354h140c16.57-26.15 40.78-42.41 40.78-90a99.13 99.13 0 0 0-99.14-99.07zm-141.16 7.61a99.16 99.16 0 0 0-137.25 91.51c0 47.55 24.21 63.82 40.78 90h139.99v-73.82l-4.94-6.79c-1.51-2.05-35.34-49.15-38.58-100.9z"
       fill="#fff"
       fill-opacity="1"
       id="path18"
       style="fill:#000000" />
  </g>
</svg>
