<?xml version="1.0" encoding="UTF-8" standalone="no"?>
<svg
   xmlns:dc="http://purl.org/dc/elements/1.1/"
   xmlns:cc="http://creativecommons.org/ns#"
   xmlns:rdf="http://www.w3.org/1999/02/22-rdf-syntax-ns#"
   xmlns:svg="http://www.w3.org/2000/svg"
   xmlns="http://www.w3.org/2000/svg"
   xmlns:sodipodi="http://sodipodi.sourceforge.net/DTD/sodipodi-0.dtd"
   xmlns:inkscape="http://www.inkscape.org/namespaces/inkscape"
   style="height: 512px; width: 512px;"
   viewBox="0 0 512 512"
   version="1.1"
   id="svg64"
   sodipodi:docname="chess.queen.1x1x2.ffffff.svg"
   inkscape:version="0.92.5 (2060ec1f9f, 2020-04-08)">
  <metadata
     id="metadata70">
    <rdf:RDF>
      <cc:Work
         rdf:about="">
        <dc:format>image/svg+xml</dc:format>
        <dc:type
           rdf:resource="http://purl.org/dc/dcmitype/StillImage" />
      </cc:Work>
    </rdf:RDF>
  </metadata>
  <defs
     id="defs68" />
  <sodipodi:namedview
     pagecolor="#ffffff"
     bordercolor="#666666"
     borderopacity="1"
     objecttolerance="10"
     gridtolerance="10"
     guidetolerance="10"
     inkscape:pageopacity="0"
     inkscape:pageshadow="2"
     inkscape:window-width="640"
     inkscape:window-height="480"
     id="namedview66"
     showgrid="false"
     inkscape:zoom="0.57977295"
     inkscape:cx="256"
     inkscape:cy="256"
     inkscape:window-x="72"
     inkscape:window-y="27"
     inkscape:window-maximized="0"
     inkscape:current-layer="svg64" />
  <path
     d="M0 0h512v512H0z"
     fill="#000"
     fill-opacity="1"
     id="path58"
     style="fill:#ffffff" />
  <g
     class=""
     style="fill:#000000"
     transform="translate(0,0)"
     id="g62">
    <path
       d="M477.518 181.966a25 25 0 0 1-34.91 23l-62.29 150.26h-248.92l-62.24-150.19a25 25 0 1 1 9.73-7.29l87 71.2 20.92-126.4a25 25 0 1 1 14.7-1.85l54.31 117 54.42-117.3a25 25 0 1 1 14.58 2.08l20.93 126.42 87.26-71.3a25 25 0 1 1 44.51-15.63zm-71.66 241.25h-300v60h300v-60zm-27.75-52h-244.22v36h244.22v-36z"
       fill="#fff"
       fill-opacity="1"
       id="path60"
       style="fill:#000000" />
  </g>
</svg>
