<?xml version="1.0" encoding="UTF-8" standalone="no"?>
<svg
   xmlns:dc="http://purl.org/dc/elements/1.1/"
   xmlns:cc="http://creativecommons.org/ns#"
   xmlns:rdf="http://www.w3.org/1999/02/22-rdf-syntax-ns#"
   xmlns:svg="http://www.w3.org/2000/svg"
   xmlns="http://www.w3.org/2000/svg"
   xmlns:sodipodi="http://sodipodi.sourceforge.net/DTD/sodipodi-0.dtd"
   xmlns:inkscape="http://www.inkscape.org/namespaces/inkscape"
   style="height: 512px; width: 512px;"
   viewBox="0 0 512 512"
   version="1.1"
   id="svg8"
   sodipodi:docname="chess.bishop.1x1x2.ffffff.svg"
   inkscape:version="0.92.5 (2060ec1f9f, 2020-04-08)">
  <metadata
     id="metadata14">
    <rdf:RDF>
      <cc:Work
         rdf:about="">
        <dc:format>image/svg+xml</dc:format>
        <dc:type
           rdf:resource="http://purl.org/dc/dcmitype/StillImage" />
      </cc:Work>
    </rdf:RDF>
  </metadata>
  <defs
     id="defs12" />
  <sodipodi:namedview
     pagecolor="#ffffff"
     bordercolor="#666666"
     borderopacity="1"
     objecttolerance="10"
     gridtolerance="10"
     guidetolerance="10"
     inkscape:pageopacity="0"
     inkscape:pageshadow="2"
     inkscape:window-width="640"
     inkscape:window-height="480"
     id="namedview10"
     showgrid="false"
     inkscape:zoom="0.57977295"
     inkscape:cx="256"
     inkscape:cy="256"
     inkscape:window-x="72"
     inkscape:window-y="27"
     inkscape:window-maximized="0"
     inkscape:current-layer="svg8" />
  <path
     d="M0 0h512v512H0z"
     fill="#000"
     fill-opacity="1"
     id="path2"
     style="fill:#ffffff" />
  <g
     class=""
     style="fill:#000000"
     transform="translate(0,0)"
     id="g6">
    <path
       d="M406.02 476.915h-300v-60h300v60zm-83.46-181H189.48v17.65h133.08v-17.65zm11.78-77.69a200 200 0 0 1-9.39 61.69H187.09a200 200 0 0 1-9.39-61.69c0-59.09 23.82-109 56.41-124.67a33.34 33.34 0 1 1 43.82 0c32.59 15.71 56.41 65.58 56.41 124.67zm-51.07-48.91h-19.25v-23.92h-16v23.92h-19.26v16h19.26v51.54h16v-51.54h19.25v-16zm38.15 180.69v-20.44h-130.8v20.44H93.29v.11l49.46 49.46h82.08l31.15-36 31.15 36h82.44l48.87-48.87.27-.69h-97.29z"
       fill="#fff"
       fill-opacity="1"
       id="path4"
       style="fill:#000000" />
  </g>
</svg>
