<svg xmlns="http://www.w3.org/2000/svg" width="96" height="96" viewBox="0 0 25.4 25.4"><path fill="#fff" d="M0 0h25.4v25.4H0z"/><path d="M6.98 12.236q0-3.398 1.384-5.354 1.383-1.956 4.346-1.956t4.346 1.956q1.403 1.956 1.403 5.354 0 3.437-1.383 5.393t-4.366 1.956q-2.983 0-4.366-1.956-1.363-1.956-1.363-5.393zm7.646 0q0-1.778-.375-2.707-.376-.948-1.541-.948-1.166 0-1.541.948-.375.929-.375 2.707 0 1.817.355 2.766.376.928 1.56.928 1.186 0 1.542-.928.375-.949.375-2.766z" aria-label="0" fill="#0d0d0d"/></svg>