<svg xmlns="http://www.w3.org/2000/svg" width="96" height="96" viewBox="0 0 25.4 25.4"><path fill="#fff" d="M0 0h25.4v25.4H0z"/><path d="M7.623 9.53q.079-2.233 1.383-3.418 1.304-1.206 3.635-1.206 1.52 0 2.588.534 1.086.513 1.64 1.422.553.89.553 2.015 0 1.344-.652 2.154-.652.79-1.482 1.066v.08q2.39.888 2.39 3.397 0 1.245-.573 2.193-.572.949-1.659 1.482-1.087.533-2.588.533-2.47 0-3.912-1.185-1.422-1.205-1.481-3.675h3.773q-.04.79.336 1.225.375.435 1.126.435.573 0 .889-.356.336-.355.336-.948 0-.75-.494-1.106-.474-.356-1.56-.356h-.692v-3.141h.672q.75.02 1.264-.237.533-.277.533-1.087 0-.612-.296-.908-.296-.316-.81-.316-.573 0-.85.414-.256.396-.296.988z" aria-label="3" fill="#0d0d0d"/></svg>