<svg xmlns="http://www.w3.org/2000/svg" viewBox="0 0 25.4 25.4" height="96" width="96"><path style="font-variant-east_asian:normal" fill="#f2f2f2" aria-label="Q" d="M15.565 21.995l-1.541-2.311q-.652.118-1.324.118-1.956 0-3.596-.909-1.64-.928-2.607-2.548-.949-1.64-.949-3.694 0-2.055.949-3.675.968-1.64 2.607-2.548 1.64-.91 3.596-.91 1.976 0 3.596.91 1.64.908 2.587 2.548.949 1.62.949 3.675 0 1.718-.692 3.18-.691 1.442-1.896 2.41l2.943 3.754zM9.5 12.651q0 1.64.85 2.607.849.949 2.35.949 1.482 0 2.331-.968.87-.968.87-2.588 0-1.66-.87-2.608-.85-.968-2.331-.968-1.501 0-2.35.968-.85.948-.85 2.608z"/></svg>