<svg xmlns="http://www.w3.org/2000/svg" width="96" height="96" viewBox="0 0 25.4 25.4"><path fill="#fff" d="M0 0h25.4v25.4H0z"/><path d="M14.053 9.371q-.138-.671-.454-.988-.316-.316-.929-.316-.928 0-1.304.87-.355.869-.375 2.726.395-.613 1.146-.968.75-.356 1.66-.356 1.916 0 3.062 1.186 1.165 1.185 1.165 3.398 0 1.461-.612 2.568-.593 1.086-1.739 1.679-1.126.593-2.667.593-3.062 0-4.267-1.897-1.185-1.916-1.185-5.413 0-3.872 1.264-5.69 1.264-1.817 4.07-1.817 2.272 0 3.437 1.284 1.185 1.264 1.324 3.141zm-1.205 3.971q-.691 0-1.146.395-.434.395-.434 1.126 0 .77.415 1.186.414.414 1.185.414.711 0 1.106-.395.415-.415.415-1.165 0-.731-.415-1.146-.395-.415-1.126-.415z" aria-label="6" fill="#0d0d0d"/></svg>