<svg xmlns="http://www.w3.org/2000/svg" width="96" height="96" viewBox="0 0 25.4 25.4"><path fill="#fff" d="M0 0h25.4v25.4H0z"/><path d="M17.51 8.64h-5.926v2.193q.375-.395 1.027-.632.652-.237 1.442-.237 1.423 0 2.37.652.969.652 1.423 1.719.455 1.066.455 2.33 0 2.332-1.324 3.675-1.324 1.324-3.674 1.324-1.64 0-2.845-.553-1.186-.573-1.818-1.58-.632-1.008-.652-2.312h3.774q.059.454.395.79t.987.336q.692 0 1.048-.474.355-.474.355-1.265 0-.77-.375-1.165-.376-.415-1.087-.415-.533 0-.869.277-.316.256-.375.651H8.067V5.223h9.443z" aria-label="5" fill="#0d0d0d"/></svg>