<svg xmlns="http://www.w3.org/2000/svg" width="96" height="96" viewBox="0 0 25.4 25.4"><path fill="#fff" d="M0 0h25.4v25.4H0z"/><path d="M9.351 11.82q-1.758-.967-1.758-3.022 0-1.067.553-1.936.573-.889 1.72-1.402 1.145-.534 2.824-.534 1.68 0 2.825.534 1.146.513 1.7 1.402.572.87.572 1.936 0 1.047-.474 1.818-.454.75-1.284 1.205 1.027.533 1.56 1.422.534.89.534 2.094 0 1.443-.731 2.49-.731 1.027-1.976 1.56-1.224.534-2.726.534-1.501 0-2.746-.534-1.225-.533-1.956-1.56-.73-1.047-.73-2.49 0-1.205.533-2.094.533-.889 1.56-1.422zm4.643-2.41q0-.69-.356-1.066-.355-.395-.948-.395-.573 0-.948.395-.356.395-.356 1.067 0 .671.356 1.047.375.375.948.375t.929-.375q.375-.376.375-1.047zm-1.304 4.07q-.75 0-1.225.455-.454.434-.454 1.185 0 .711.454 1.166.455.454 1.225.454t1.205-.454q.455-.455.455-1.166 0-.75-.455-1.185-.454-.455-1.205-.455z" aria-label="8" fill="#0d0d0d"/></svg>