<svg xmlns="http://www.w3.org/2000/svg" viewBox="0 0 25.4 25.4" height="96" width="96"><g font-weight="400" font-family="Poppins" letter-spacing="0" word-spacing="0" text-anchor="middle" stroke-linecap="round" stroke-linejoin="round"><g style="line-height:1.5;-inkscape-font-specification:Poppins;text-align:center"><path style="-inkscape-font-specification:Poppins;text-align:center" d="M10.932 11.543q.056-.732.565-1.147.51-.414 1.322-.414.542 0 .932.2.398.19.598.525.207.334.207.757 0 .493-.287.852-.279.358-.733.462v.04q.518.127.82.501.303.374.303.98 0 .454-.207.82-.207.358-.621.565-.414.207-.996.207-.844 0-1.385-.438-.542-.446-.606-1.258h.701q.056.478.39.78.335.303.892.303.558 0 .845-.287.294-.294.294-.756 0-.597-.398-.86t-1.202-.263h-.184v-.605h.192q.732-.008 1.106-.24.375-.238.375-.732 0-.422-.279-.677-.27-.255-.78-.255-.494 0-.797.255-.302.255-.358.685z" aria-label="3" font-size="7.964" fill="#1b1b1b" stroke="#1b1b1b" stroke-width=".249"/></g><g style="line-height:1.5;-inkscape-font-specification:Poppins;text-align:center"><path style="-inkscape-font-specification:Poppins;text-align:center" d="M244.083 389.845q-.272-.107-.417-.31-.146-.204-.146-.496 0-.262.131-.47.13-.214.388-.335.262-.126.63-.126.37 0 .627.126.262.121.392.335.136.208.136.47 0 .282-.15.495-.15.209-.412.31.3.093.475.326.18.228.18.553 0 .315-.156.553-.155.233-.441.364-.282.126-.65.126-.369 0-.65-.126-.277-.131-.432-.364-.155-.238-.155-.553 0-.325.174-.558.175-.233.476-.32zm1.314-.752q0-.296-.194-.456-.194-.16-.533-.16-.335 0-.53.16-.193.16-.193.46 0 .272.199.437.204.165.524.165.325 0 .524-.165.203-.17.203-.441zm-.727.946q-.36 0-.587.17-.228.165-.228.5 0 .31.218.499.223.19.597.19.373 0 .592-.19.218-.19.218-.5 0-.325-.223-.495-.223-.174-.587-.174z" transform="matrix(.74373 -1.14237 .17085 1.08214 -228.6 -127)" aria-label="8" font-size="4.851" fill="#101010" stroke="#0f0f0f" stroke-width=".152"/></g><g style="line-height:1.5;-inkscape-font-specification:Poppins;text-align:center"><path style="-inkscape-font-specification:Poppins;text-align:center" d="M169.718-219.568v-.4h.907v3.486h-.444v-3.086zm1.606 2.734q.612-.492.96-.806.346-.318.583-.66.24-.347.24-.68 0-.313-.153-.492-.15-.183-.488-.183-.327 0-.51.207-.179.203-.194.545h-.424q.02-.54.328-.834.309-.294.796-.294.496 0 .786.275.294.274.294.757 0 .4-.241.78-.237.377-.54.666-.304.285-.777.666h1.659v.366h-2.32z" transform="matrix(-.49582 .60338 -1.49263 -.20043 -228.6 -127)" aria-label="12" font-size="4.822" fill="#141414" stroke="#141414" stroke-width=".151"/></g><g style="line-height:1.5;-inkscape-font-specification:Poppins;text-align:center"><path style="-inkscape-font-specification:Poppins;text-align:center" d="M-48.112-306.204v-.403h.912v3.505h-.446v-3.102zm1.552 0v-.403h.91v3.505h-.445v-3.102z" transform="matrix(-.0013 1.30307 -.76675 -.66469 -228.6 -127)" aria-label="11" font-size="4.847" fill="#171717" stroke="#171717" stroke-width=".151"/></g><g style="line-height:1.5;-inkscape-font-specification:Poppins;text-align:center"><path style="-inkscape-font-specification:Poppins;text-align:center" d="M-103.781 153.252v-.323l1.64-2.27h.51v2.224h.467v.369h-.468v.752h-.42v-.752zm1.747-2.15l-1.257 1.78h1.257z" transform="matrix(-.81367 -1.06095 1.06788 .16342 -228.6 -127)" aria-label="4" font-size="4.673" fill="#171717" stroke="#171717" stroke-width=".146"/></g><g style="line-height:1.5;-inkscape-font-specification:Poppins;text-align:center"><path style="-inkscape-font-specification:Poppins;text-align:center" d="M-284.985-274.107q-.106-.532-.658-.532-.427 0-.638.33-.21.327-.206 1.08.11-.25.365-.389.259-.143.575-.143.495 0 .787.307.298.307.298.849 0 .326-.13.585-.125.26-.384.413-.254.153-.619.153-.494 0-.772-.22-.278-.221-.389-.61-.11-.388-.11-.96 0-1.76 1.228-1.76.47 0 .74.254.268.254.316.643zm-.653.715q-.206 0-.388.086-.183.082-.298.255-.11.168-.11.412 0 .365.21.595.212.226.605.226.336 0 .533-.207.202-.21.202-.566 0-.374-.192-.585-.192-.216-.562-.216zm1.977 1.958q-.125 0-.211-.087-.087-.086-.087-.21 0-.126.087-.212.086-.086.211-.086.12 0 .202.086.086.086.086.211t-.086.211q-.082.087-.202.087z" transform="matrix(-1.244 .4538 .4321 -.96148 -228.6 -127)" aria-label="6." font-size="4.798" fill="#7f7f7f" stroke="#7f7f7f" stroke-width=".15"/></g></g></svg>