<svg xmlns="http://www.w3.org/2000/svg" viewBox="0 0 25.4 25.4" height="96" width="96"><g font-weight="400" font-family="Poppins" word-spacing="0" text-anchor="middle" stroke-linecap="round" stroke-linejoin="round"><g style="line-height:1.5;-inkscape-font-specification:Poppins;text-align:center"><path style="-inkscape-font-specification:Poppins;text-align:center" d="M11.115 14.034q-.519-.645-.419-1.379.1-.733.768-1.36.445-.417.92-.554.474-.15.896-.028.428.116.753.463.38.406.421.921.047.51-.246.945l.03.033q.524-.295 1.062-.22.537.074 1.003.572.35.373.462.834.106.454-.075.944-.18.49-.659.937-.694.65-1.477.708-.789.05-1.467-.568l.576-.54q.414.35.923.34.508-.008.966-.438.459-.43.473-.886.016-.47-.34-.85-.46-.49-.99-.4-.53.091-1.192.711l-.15.141-.467-.497.157-.148q.596-.57.726-1.05.124-.484-.257-.89-.325-.347-.75-.342-.42 0-.839.392-.406.38-.458.823-.053.443.233.84z" letter-spacing="-.619" aria-label="3" font-size="10.559" fill="#1b1b1b" stroke="#1b1b1b" stroke-width=".07"/></g><path style="line-height:1.5;-inkscape-font-specification:Poppins;font-variant-ligatures:normal;font-variant-position:normal;font-variant-caps:normal;font-variant-numeric:normal;font-variant-alternates:normal;font-feature-settings:normal;text-indent:0;text-align:center;text-decoration-line:none;text-decoration-style:solid;text-decoration-color:#000;text-transform:none;text-orientation:mixed;white-space:normal;shape-padding:0" d="M-246.255 156.64h-2.78v1.806q.182-.254.538-.412.357-.167.769-.167.657 0 1.069.278.412.269.586.705.182.427.182.91 0 .57-.214 1.022-.213.452-.657.713-.436.262-1.085.262-.832 0-1.347-.428t-.626-1.14h.705q.103.45.436.704.333.254.84.254.625 0 .942-.373.317-.38.317-.998 0-.617-.317-.95-.317-.34-.934-.34-.42 0-.737.205-.309.198-.452.547h-.68v-3.232h3.445z" transform="matrix(-.1303 -.66064 1.11098 .08792 -192.405 -170.815)" aria-label="5" font-size="7.921" letter-spacing="-.464" fill="#3d3d3d" stroke="#3d3d3d" stroke-width=".062"/><path style="line-height:1.5;-inkscape-font-specification:Poppins;font-variant-ligatures:normal;font-variant-position:normal;font-variant-caps:normal;font-variant-numeric:normal;font-variant-alternates:normal;font-feature-settings:normal;text-indent:0;text-align:center;text-decoration-line:none;text-decoration-style:solid;text-decoration-color:#000;text-transform:none;text-orientation:mixed;white-space:normal;shape-padding:0" d="M288.974 106.777l-2.21 5.185h-.732l2.242-5.113h-3.07v-.62h3.77z" letter-spacing="-.794" transform="matrix(.66765 .23046 .06872 1.10588 -192.405 -170.815)" aria-label="7" font-size="7.953" fill="#3d3d3d" stroke="#3d3d3d" stroke-width=".062"/><g style="line-height:1.5;-inkscape-font-specification:Poppins;text-align:center"><path style="-inkscape-font-specification:Poppins;text-align:center" d="M-484.69-1005.924q-.155-.06-.238-.177-.083-.116-.083-.283 0-.15.075-.268.074-.122.221-.192.15-.072.36-.072t.358.072q.15.07.224.192.078.119.078.268 0 .161-.086.283-.086.12-.236.177.172.053.272.186.102.13.102.316 0 .18-.088.316-.089.133-.252.207-.161.072-.372.072-.21 0-.37-.072-.159-.075-.248-.207-.088-.136-.088-.316 0-.186.1-.319t.271-.183zm.751-.43q0-.168-.11-.26-.112-.09-.306-.09-.19 0-.302.09-.11.091-.11.264 0 .155.113.249.116.094.3.094.185 0 .299-.094.116-.097.116-.252zm-.416.541q-.205 0-.335.097-.13.094-.13.286 0 .177.125.285.127.108.34.108.214 0 .338-.108.125-.108.125-.285 0-.186-.127-.283-.128-.1-.336-.1z" letter-spacing="-.162" transform="matrix(-1.0948 2.47468 .31608 -1.3744 -192.405 -170.815)" aria-label="8" font-size="2.771" fill="#0f0f0f" stroke="#0f0f0f" stroke-width=".022"/></g><g style="line-height:1.5;-inkscape-font-specification:Poppins;text-align:center"><path style="-inkscape-font-specification:Poppins;text-align:center" d="M328.121-725.791q0-.54.176-.841.176-.305.615-.305.437 0 .612.305.176.301.176.841 0 .55-.176.854-.175.304-.612.304-.44 0-.615-.304-.176-.305-.176-.854zm1.297 0q0-.273-.038-.461-.035-.192-.148-.308-.11-.116-.32-.116-.213 0-.326.116-.11.116-.148.308-.034.188-.034.461 0 .282.034.474.038.191.148.308.113.116.326.116.21 0 .32-.116.113-.117.148-.308.038-.192.038-.474z" transform="matrix(-1.90262 .78802 -1.14505 .09451 -192.405 -170.815)" aria-label="0" font-size="3.139" letter-spacing="-.331" fill="#141414" stroke="#141414" stroke-width=".025"/></g></g></svg>