<svg xmlns="http://www.w3.org/2000/svg" viewBox="0 0 25.4 25.4" height="96" width="96"><g font-weight="400" font-family="Poppins" word-spacing="0" text-anchor="middle" stroke-linecap="round" stroke-linejoin="round"><g style="line-height:1.5;-inkscape-font-specification:Poppins;text-align:center"><path style="-inkscape-font-specification:Poppins;text-align:center" d="M10.157 10.755v-.661h1.497v5.758h-.733v-5.097zm3.343 0v-.661h1.496v5.758h-.732v-5.097z" aria-label="11" font-size="7.964" letter-spacing=".794" fill="#f2f2f2" stroke="#f2f2f2" stroke-width=".249"/></g><g style="line-height:1.5;-inkscape-font-specification:Poppins;text-align:center"><path style="-inkscape-font-specification:Poppins;text-align:center" d="M456.971 645.094v-.403h.912v3.508h-.446v-3.105zm1.616 2.751q.616-.495.965-.81.35-.32.587-.665.243-.35.243-.684 0-.316-.155-.495-.15-.184-.49-.184-.33 0-.515.208-.18.204-.194.548h-.427q.02-.543.33-.839.31-.296.8-.296.5 0 .792.277.295.276.295.761 0 .403-.242.786-.238.379-.543.67-.306.286-.782.67h1.67v.368h-2.334z" transform="matrix(.74373 -1.14237 .17085 1.08214 -431.8 -159.808)" aria-label="12" font-size="4.851" letter-spacing="0" fill="#8c8c8c" stroke="#8c8c8c" stroke-width=".152"/></g><g style="line-height:1.5;-inkscape-font-specification:Poppins;text-align:center"><path style="-inkscape-font-specification:Poppins;text-align:center" d="M178.805-357.965q.033-.444.342-.694.309-.251.8-.251.328 0 .565.12.24.116.361.319.126.202.126.458 0 .299-.174.516-.169.217-.443.28v.024q.313.077.496.303.183.227.183.593 0 .275-.125.497-.125.217-.376.342-.25.126-.603.126-.51 0-.839-.265-.328-.27-.366-.762h.424q.034.289.236.472.203.183.54.183.338 0 .512-.173.178-.179.178-.458 0-.362-.241-.521-.241-.16-.728-.16h-.111v-.366h.116q.443-.005.67-.144.226-.145.226-.444 0-.255-.168-.41-.164-.154-.473-.154-.299 0-.482.154-.183.155-.217.415z" transform="matrix(-.49582 .60338 -1.49263 -.20043 -431.8 -159.808)" aria-label="3" font-size="4.822" letter-spacing="0" fill="#b6b6b6" stroke="#b6b6b6" stroke-width=".151"/></g><g style="line-height:1.5;-inkscape-font-specification:Poppins;text-align:center"><path style="-inkscape-font-specification:Poppins;text-align:center" d="M-157.822-568.868q.049.276.223.426.18.15.48.15.402 0 .591-.315.194-.315.184-1.061-.102.218-.339.344-.237.121-.528.121-.325 0-.582-.13-.252-.136-.397-.393-.146-.257-.146-.62 0-.52.3-.834.301-.32.854-.32.678 0 .95.441.276.441.276 1.313 0 .611-.111 1.009-.107.397-.369.605-.257.209-.707.209-.495 0-.771-.267-.276-.266-.315-.678zm.683-.708q.325 0 .534-.199.208-.203.208-.547 0-.364-.204-.587-.203-.223-.572-.223-.339 0-.542.213-.199.214-.199.563 0 .354.199.567.198.213.576.213zm2.017 1.677q-.126 0-.214-.087-.087-.087-.087-.213t.087-.214q.088-.087.214-.087.12 0 .203.087.087.087.087.214 0 .126-.087.213-.082.087-.203.087z" transform="matrix(-.0013 1.30307 -.76675 -.66469 -431.8 -159.808)" aria-label="9." font-size="4.847" letter-spacing="0" fill="#dbdbdb" stroke="#dbdbdb" stroke-width=".151"/></g><g style="line-height:1.5;-inkscape-font-specification:Poppins;text-align:center"><path style="-inkscape-font-specification:Poppins;text-align:center" d="M-104.129 340.32q-.102-.52-.64-.52-.416 0-.621.323-.206.318-.201 1.052.107-.243.355-.379.252-.14.56-.14.482 0 .767.299.29.3.29.827 0 .318-.126.57-.122.253-.374.402-.248.15-.603.15-.482 0-.753-.215-.27-.215-.378-.594-.108-.378-.108-.934 0-1.715 1.197-1.715.458 0 .72.247.261.248.308.626zm-.635.696q-.201 0-.379.084-.177.08-.29.248-.107.163-.107.401 0 .356.206.58.205.22.588.22.328 0 .52-.201.195-.206.195-.552 0-.364-.186-.57-.187-.21-.547-.21zm1.925 1.906q-.121 0-.205-.084-.085-.084-.085-.205 0-.122.085-.206.084-.084.205-.084.117 0 .196.084.085.084.085.206 0 .121-.085.205-.079.084-.196.084z" transform="matrix(-.81367 -1.06095 1.06788 .16342 -431.8 -159.808)" aria-label="6." font-size="4.673" letter-spacing="0" fill="#dbdbdb" stroke="#dbdbdb" stroke-width=".146"/></g><g style="line-height:1.5;-inkscape-font-specification:Poppins;text-align:center"><path style="-inkscape-font-specification:Poppins;text-align:center" d="M-493.736-407.578h-1.684v1.094q.11-.154.326-.25.216-.1.466-.1.398 0 .648.168.249.163.355.427.11.259.11.551 0 .346-.13.62-.13.273-.398.431-.264.159-.657.159-.504 0-.816-.26-.312-.259-.379-.69h.427q.063.273.264.427.202.153.509.153.379 0 .57-.225.193-.23.193-.605 0-.374-.192-.576-.192-.206-.567-.206-.254 0-.446.125-.187.12-.273.33h-.413v-1.957h2.087z" transform="matrix(-1.244 .4538 .4321 -.96148 -431.8 -159.808)" aria-label="5" font-size="4.798" letter-spacing="0" fill="#f8f8f8" stroke="#f8f8f8" stroke-width=".15"/></g></g></svg>