<svg xmlns="http://www.w3.org/2000/svg" viewBox="0 0 25.4 25.4" height="96" width="96"><g font-weight="400" font-family="Poppins" word-spacing="0" text-anchor="middle" stroke-linecap="round" stroke-linejoin="round"><g style="line-height:1.5;-inkscape-font-specification:Poppins;text-align:center"><path style="-inkscape-font-specification:Poppins;text-align:center" d="M12.056 15.268Q11 14.14 10.778 13.169q-.229-.979.688-1.838.91-.853 1.872-.562.956.285 2.012 1.411 1.074 1.146 1.303 2.125.228.979-.682 1.832-.917.86-1.879.568-.962-.291-2.036-1.437zm2.705-2.535q-.534-.57-.981-.89-.447-.331-.91-.352-.456-.028-.895.383-.445.418-.453.88-.003.458.293.931.297.46.83 1.03.553.59 1 .921.452.326.909.354.462.021.908-.396.438-.412.44-.869.01-.463-.293-.93-.296-.473-.848-1.062z" letter-spacing="-.619" aria-label="0" font-size="10.559" fill="#1b1b1b" stroke="#1b1b1b" stroke-width=".07"/></g><g style="line-height:1.5;-inkscape-font-specification:Poppins;font-variant-ligatures:normal;font-variant-position:normal;font-variant-caps:normal;font-variant-numeric:normal;font-variant-alternates:normal;font-feature-settings:normal;text-indent:0;text-align:center;text-decoration-line:none;text-decoration-style:solid;text-decoration-color:#000;text-transform:none;text-orientation:mixed;white-space:normal;shape-padding:0" aria-label="4." font-size="7.921" letter-spacing="-.464" fill="#3d3d3d" stroke="#3d3d3d" stroke-width=".062"><path style="line-height:1.5;-inkscape-font-specification:Poppins;font-variant-ligatures:normal;font-variant-position:normal;font-variant-caps:normal;font-variant-numeric:normal;font-variant-alternates:normal;font-feature-settings:normal;text-indent:0;text-align:center;text-decoration-line:none;text-decoration-style:solid;text-decoration-color:#000;text-transform:none;text-orientation:mixed;white-space:normal;shape-padding:0" d="M-232.294 298.655v-.546l2.78-3.85h.864v3.77h.792v.626h-.792v1.275h-.713v-1.275zm2.963-3.644l-2.13 3.018h2.13z" transform="matrix(-.1303 -.66064 1.11098 .08792 -343.535 -170.815)"/><path d="M19.344 5.69q.027.137-.113.218-.14.082-.368.064-.23-.018-.406-.125-.177-.107-.204-.243-.026-.13.115-.207.14-.082.369-.063.229.018.406.124.176.102.201.233z" fill="none" stroke="none"/></g><path style="line-height:1.5;-inkscape-font-specification:Poppins;font-variant-ligatures:normal;font-variant-position:normal;font-variant-caps:normal;font-variant-numeric:normal;font-variant-alternates:normal;font-feature-settings:normal;text-indent:0;text-align:center;text-decoration-line:none;text-decoration-style:solid;text-decoration-color:#000;text-transform:none;text-orientation:mixed;white-space:normal;shape-padding:0" d="M517.471 60.765q-.445-.175-.684-.51-.238-.333-.238-.81 0-.43.215-.772.214-.35.636-.549.43-.206 1.034-.206.604 0 1.026.206.429.2.644.55.222.341.222.77 0 .462-.246.812-.247.342-.676.509.493.15.78.533.294.373.294.906 0 .517-.255.907-.254.382-.724.596-.46.207-1.065.207t-1.066-.207q-.453-.214-.708-.596-.254-.39-.254-.907 0-.533.286-.914.286-.382.78-.525zm2.156-1.233q0-.485-.319-.747-.318-.263-.874-.263-.55 0-.867.263-.318.262-.318.755 0 .445.326.716.334.27.859.27.532 0 .859-.27.334-.279.334-.724zm-1.193 1.55q-.589 0-.963.28-.373.27-.373.818 0 .51.357.82.366.31.979.31.612 0 .97-.31t.358-.82q0-.532-.366-.81-.366-.287-.962-.287z" letter-spacing="-.794" transform="matrix(.66765 .23046 .06872 1.10588 -343.535 -170.815)" aria-label="8" font-size="7.953" fill="#3d3d3d" stroke="#3d3d3d" stroke-width=".062"/><g style="line-height:1.5;-inkscape-font-specification:Poppins;text-align:center"><path style="-inkscape-font-specification:Poppins;text-align:center" d="M-771.196-1524.334l-.77 1.807h-.255l.781-1.782h-1.07v-.216h1.314z" letter-spacing="-.162" transform="matrix(-1.0948 2.47468 .31608 -1.3744 -343.535 -170.815)" aria-label="7" font-size="2.771" fill="#0f0f0f" stroke="#0f0f0f" stroke-width=".022"/></g><g style="line-height:1.5;-inkscape-font-specification:Poppins;text-align:center"><path style="-inkscape-font-specification:Poppins;text-align:center" d="M347.946-891.166q.022-.289.223-.452.2-.163.521-.163.213 0 .367.078.157.076.236.208.081.131.081.298 0 .194-.113.336-.11.14-.289.182v.015q.204.05.324.198.119.148.119.386 0 .179-.082.323-.081.142-.244.223-.164.082-.393.082-.332 0-.546-.173-.213-.176-.238-.496h.276q.022.189.154.308.131.12.351.12.22 0 .333-.114.116-.116.116-.298 0-.235-.157-.339-.157-.104-.474-.104h-.072v-.238h.075q.289-.003.436-.094.148-.095.148-.29 0-.165-.11-.266-.107-.1-.308-.1-.194 0-.313.1-.12.1-.142.27z" transform="matrix(-1.90262 .78802 -1.14505 .09451 -343.535 -170.815)" aria-label="3" font-size="3.139" letter-spacing="-.331" fill="#141414" stroke="#141414" stroke-width=".025"/></g></g></svg>