<svg xmlns="http://www.w3.org/2000/svg" viewBox="0 0 25.4 25.4" height="96" width="96"><g font-weight="400" font-family="Poppins" word-spacing="0" text-anchor="middle" stroke-linecap="round" stroke-linejoin="round"><g style="line-height:1.5;-inkscape-font-specification:Poppins;text-align:center"><path style="-inkscape-font-specification:Poppins;text-align:center" d="M12.868 14.42q-.502.2-.956.11-.454-.091-.823-.484-.331-.354-.418-.801-.093-.454.1-.943.194-.502.692-.968.497-.467 1.004-.622.507-.167.954-.045.447.11.779.463.356.38.423.859.06.471-.164.94.523-.256 1.053-.162.53.08.942.519.399.426.49.943.085.51-.135 1.05-.22.526-.718.992-.498.467-1.037.652-.54.173-1.044.056-.51-.125-.909-.55-.411-.44-.47-.975-.059-.535.237-1.033zm.823-2.677q-.374-.4-.839-.37-.464.029-.923.459-.452.423-.51.885-.06.461.32.867.344.367.821.338.484-.035.916-.44.439-.412.498-.886.06-.487-.283-.853zm.215 2.197q-.485.454-.578.972-.099.511.325.963.392.419.926.398.541-.027 1.045-.5.504-.472.56-1.004.055-.531-.338-.95-.411-.439-.927-.386-.522.047-1.013.507z" letter-spacing="-.619" aria-label="8" font-size="10.559" fill="#1b1b1b" stroke="#1b1b1b" stroke-width=".07"/></g><path style="line-height:1.5;-inkscape-font-specification:Poppins;font-variant-ligatures:normal;font-variant-position:normal;font-variant-caps:normal;font-variant-numeric:normal;font-variant-alternates:normal;font-feature-settings:normal;text-indent:0;text-align:center;text-decoration-line:none;text-decoration-style:solid;text-decoration-color:#000;text-transform:none;text-orientation:mixed;white-space:normal;shape-padding:0" d="M-236.77 257.525q0-1.363.443-2.123.444-.768 1.553-.768 1.1 0 1.544.768.444.76.444 2.123 0 1.386-.444 2.154-.443.769-1.544.769-1.11 0-1.553-.769-.443-.768-.443-2.154zm3.271 0q0-.69-.095-1.165-.087-.483-.372-.776-.277-.293-.808-.293-.539 0-.824.293-.277.293-.372.776-.087.476-.087 1.165 0 .713.087 1.196.095.483.372.776.285.293.824.293.53 0 .808-.293.285-.293.372-.776.095-.483.095-1.196z" transform="matrix(-.1303 -.66064 1.11098 .08792 -300.355 -170.815)" aria-label="0" font-size="7.921" letter-spacing="-.464" fill="#3d3d3d" stroke="#3d3d3d" stroke-width=".062"/><path style="line-height:1.5;-inkscape-font-specification:Poppins;font-variant-ligatures:normal;font-variant-position:normal;font-variant-caps:normal;font-variant-numeric:normal;font-variant-alternates:normal;font-feature-settings:normal;text-indent:0;text-align:center;text-decoration-line:none;text-decoration-style:solid;text-decoration-color:#000;text-transform:none;text-orientation:mixed;white-space:normal;shape-padding:0" d="M450.464 76.948q1.01-.811 1.583-1.328.572-.525.962-1.09.398-.572.398-1.12 0-.518-.255-.812-.246-.302-.803-.302-.54 0-.843.342-.294.334-.318.898h-.7q.032-.89.54-1.376.51-.485 1.313-.485.82 0 1.296.454.485.453.485 1.248 0 .66-.397 1.289-.39.62-.89 1.097-.502.47-1.281 1.098h2.735v.604h-3.825z" letter-spacing="-.794" transform="matrix(.66765 .23046 .06872 1.10588 -300.355 -170.815)" aria-label="2" font-size="7.953" fill="#3d3d3d" stroke="#3d3d3d" stroke-width=".062"/><g style="line-height:1.5;-inkscape-font-specification:Poppins;text-align:center"><path style="-inkscape-font-specification:Poppins;text-align:center" d="M-690.354-1376.128q.02-.254.197-.399.177-.143.46-.143.188 0 .324.069.139.067.208.182.072.117.072.264 0 .171-.1.296-.097.125-.255.16v.015q.18.044.286.174.105.13.105.341 0 .158-.072.286-.072.124-.216.196-.144.072-.347.072-.293 0-.482-.152-.188-.155-.21-.438h.244q.019.166.135.272.117.105.31.105.195 0 .294-.1.103-.102.103-.263 0-.208-.139-.3-.138-.09-.418-.09h-.064v-.21h.067q.255 0 .385-.084.13-.083.13-.255 0-.147-.097-.235-.094-.09-.271-.09-.172 0-.277.09-.106.089-.125.238z" letter-spacing="-.162" transform="matrix(-1.0948 2.47468 .31608 -1.3744 -300.355 -170.815)" aria-label="3" font-size="2.771" fill="#0f0f0f" stroke="#0f0f0f" stroke-width=".022"/></g><g style="line-height:1.5;-inkscape-font-specification:Poppins;text-align:center"><path style="-inkscape-font-specification:Poppins;text-align:center" d="M343.69-844.393h-1.102v.715q.072-.1.213-.163.142-.066.305-.066.26 0 .423.11.164.107.233.28.072.169.072.36 0 .226-.085.405-.084.179-.26.283-.173.103-.43.103-.33 0-.534-.17-.204-.169-.248-.451h.28q.04.179.172.279.132.1.333.1.248 0 .373-.147.126-.15.126-.396 0-.244-.126-.376-.125-.135-.37-.135-.166 0-.292.081-.122.079-.179.217h-.27v-1.28h1.366z" transform="matrix(-1.90262 .78802 -1.14505 .09451 -300.355 -170.815)" aria-label="5" font-size="3.139" letter-spacing="-.331" fill="#141414" stroke="#141414" stroke-width=".025"/></g></g></svg>