<svg xmlns="http://www.w3.org/2000/svg" viewBox="0 0 25.4 25.4" height="96" width="96"><g font-weight="400" font-family="Poppins" letter-spacing="0" word-spacing="0" text-anchor="middle" stroke-linecap="round" stroke-linejoin="round"><g style="line-height:1.5;-inkscape-font-specification:Poppins;text-align:center"><path style="-inkscape-font-specification:Poppins;text-align:center" d="M13.138 11.464q-.175-.884-1.091-.884-.709 0-1.06.55-.35.54-.342 1.79.184-.413.606-.644.43-.24.955-.24.82 0 1.306.51.494.51.494 1.41 0 .542-.215.972-.207.43-.637.685-.422.255-1.027.255-.82 0-1.283-.367-.461-.366-.645-1.011-.183-.645-.183-1.593 0-2.923 2.039-2.923.78 0 1.226.422.446.422.526 1.068zm-1.083 1.186q-.342 0-.645.143-.303.136-.494.423-.183.278-.183.684 0 .606.35.988.35.374 1.004.374.557 0 .884-.342.334-.35.334-.94 0-.621-.318-.971-.319-.359-.932-.359zm3.281 3.25q-.207 0-.35-.144-.144-.143-.144-.35t.144-.35q.143-.144.35-.144.2 0 .334.143.144.144.144.35 0 .208-.144.351-.135.143-.334.143z" aria-label="6." font-size="7.964" fill="#1b1b1b" stroke="#1b1b1b" stroke-width=".249"/></g><g style="line-height:1.5;-inkscape-font-specification:Poppins;text-align:center"><path style="-inkscape-font-specification:Poppins;text-align:center" d="M326.54 475.613v-.403h.912v3.507h-.447v-3.104z" transform="matrix(.74373 -1.14237 .17085 1.08214 -304.8 -127)" aria-label="1" font-size="4.851" fill="#101010" stroke="#0f0f0f" stroke-width=".152"/></g><g style="line-height:1.5;-inkscape-font-specification:Poppins;text-align:center"><path style="-inkscape-font-specification:Poppins;text-align:center" d="M157.427-265.565h-1.692v1.1q.11-.155.328-.252.217-.1.468-.1.4 0 .65.168.251.164.357.43.111.26.111.554 0 .347-.13.622t-.4.434q-.265.159-.66.159-.507 0-.82-.26-.314-.261-.381-.695h.429q.062.275.265.43.202.153.511.153.381 0 .574-.226.193-.232.193-.608t-.193-.578q-.193-.208-.57-.208-.255 0-.448.126-.188.12-.274.332h-.415v-1.967h2.097z" transform="matrix(-.49582 .60338 -1.49263 -.20043 -304.8 -127)" aria-label="5" font-size="4.822" fill="#141414" stroke="#141414" stroke-width=".151"/></g><g style="line-height:1.5;-inkscape-font-specification:Poppins;text-align:center"><path style="-inkscape-font-specification:Poppins;text-align:center" d="M-98.725-403.176v-.335l1.702-2.355h.528v2.307h.485v.383h-.485v.78h-.436v-.78zm1.813-2.23l-1.304 1.847h1.304z" transform="matrix(-.0013 1.30307 -.76675 -.66469 -304.8 -127)" aria-label="4" font-size="4.847" fill="#171717" stroke="#171717" stroke-width=".151"/></g><g style="line-height:1.5;-inkscape-font-specification:Poppins;text-align:center"><path style="-inkscape-font-specification:Poppins;text-align:center" d="M-91.364 231.858v-.388h.879v3.379h-.43v-2.991zm1.495 0v-.388h.879v3.379h-.43v-2.991z" transform="matrix(-.81367 -1.06095 1.06788 .16342 -304.8 -127)" aria-label="11" font-size="4.673" fill="#171717" stroke="#171717" stroke-width=".146"/></g><g style="line-height:1.5;-inkscape-font-specification:Poppins;text-align:center"><path style="-inkscape-font-specification:Poppins;text-align:center" d="M-359.58-308.638q.035-.442.342-.691.307-.25.796-.25.326 0 .561.12.24.116.36.317.125.202.125.456 0 .297-.173.513-.168.216-.441.279v.024q.312.076.494.302.182.225.182.59 0 .273-.124.494-.125.216-.375.34-.25.126-.6.126-.508 0-.834-.264-.326-.269-.365-.758h.422q.034.287.235.47.202.182.538.182t.508-.173q.178-.177.178-.455 0-.36-.24-.519-.24-.158-.724-.158h-.11v-.365h.114q.442-.005.667-.144.226-.143.226-.44 0-.255-.168-.409-.163-.153-.47-.153-.298 0-.48.153-.182.154-.216.413z" transform="matrix(-1.244 .4538 .4321 -.96148 -304.8 -127)" aria-label="3" font-size="4.798" fill="#7f7f7f" stroke="#7f7f7f" stroke-width=".15"/></g></g></svg>