<svg xmlns="http://www.w3.org/2000/svg" viewBox="0 0 25.4 25.4" height="96" width="96"><g font-weight="400" font-family="Poppins" letter-spacing="0" word-spacing="0" text-anchor="middle" stroke-width=".176" stroke-linecap="round" stroke-linejoin="round"><g style="line-height:1.5;-inkscape-font-specification:Poppins;text-align:center"><path style="-inkscape-font-specification:Poppins;text-align:center" d="M10.411 11.777v-.468h1.061v4.08h-.52v-3.612zm1.942 1.53q0-.97.316-1.513.316-.547 1.106-.547.785 0 1.1.547.317.542.317 1.513 0 .988-.316 1.535-.316.548-1.101.548-.79 0-1.106-.548-.316-.547-.316-1.535zm2.33 0q0-.49-.067-.83-.062-.344-.265-.553-.198-.209-.576-.209-.384 0-.587.21-.197.208-.265.552-.062.34-.062.83 0 .508.062.852.067.345.265.554.203.208.587.208.378 0 .576-.208.203-.21.265-.554.068-.344.068-.852z" aria-label="10" font-size="5.644" fill="#1b1b1b" stroke="#1b1b1b"/></g><g style="line-height:1.5;-inkscape-font-specification:Poppins;text-align:center"><path style="-inkscape-font-specification:Poppins;text-align:center" d="M-309.637 108.029v-.395h.893v3.435h-.437v-3.04zm1.582 2.693q.603-.484.945-.793.342-.314.575-.65.237-.343.237-.67 0-.31-.152-.485-.147-.18-.48-.18-.322 0-.503.203-.176.2-.19.537h-.418q.019-.532.323-.822.304-.29.784-.29.49 0 .774.271.29.271.29.746 0 .395-.238.77-.232.37-.532.655-.299.28-.765.656h1.635v.361h-2.285z" transform="matrix(-.93452 -.17078 -.14027 -1.0957 -254 76.2)" aria-label="12" font-size="4.751" fill="#181818" stroke="#181818"/></g><g style="line-height:1.5;-inkscape-font-specification:Poppins;text-align:center"><path style="-inkscape-font-specification:Poppins;text-align:center" d="M123.69-254.964v-.398h.901v3.47h-.441v-3.072zm3.786-.057l-1.334 3.129h-.442l1.353-3.086h-1.852v-.375h2.275z" transform="matrix(.34839 .88398 -.85596 .69848 -254 76.2)" aria-label="17" font-size="4.799" fill="#3d3d3d" stroke="#3d3d3d"/></g><g style="line-height:1.5;-inkscape-font-specification:Poppins;text-align:center"><path style="-inkscape-font-specification:Poppins;text-align:center" d="M-51.649 156.401l-.817 1.917h-.27l.829-1.89h-1.135v-.23h1.393z" transform="matrix(-.00186 -.59492 1.67885 -.65577 -254 76.2)" aria-label="7" font-size="2.94" fill="#7e7e7e" stroke="#7f7f7f"/></g><g style="line-height:1.5;-inkscape-font-specification:Poppins;text-align:center"><path style="-inkscape-font-specification:Poppins;text-align:center" d="M142.696 354.69v-.247h.561v2.16h-.275v-1.912zm2.232.267q-.066-.332-.41-.332-.265 0-.397.206-.131.203-.128.673.068-.156.227-.242.161-.09.358-.09.308 0 .49.191.186.191.186.53 0 .202-.08.364-.079.161-.24.257-.158.095-.386.095-.307 0-.48-.137-.174-.138-.243-.38-.068-.242-.068-.597 0-1.097.765-1.097.292 0 .46.158.167.159.197.4zm-.406.445q-.129 0-.243.054-.113.05-.185.158-.069.105-.069.257 0 .227.132.37.131.141.377.141.209 0 .331-.128.126-.132.126-.353 0-.233-.12-.364-.12-.135-.35-.135z" transform="matrix(-.96273 -1.15093 1.12634 .30782 -254 76.2)" aria-label="16" font-size="2.989" fill="#171717" stroke="#171717"/></g><g style="line-height:1.5;-inkscape-font-specification:Poppins;text-align:center"><path style="-inkscape-font-specification:Poppins;text-align:center" d="M50.67-231.41q-.26-.103-.398-.298-.14-.194-.14-.472 0-.25.126-.45.125-.204.37-.32.251-.12.603-.12t.598.12q.25.116.376.32.13.2.13.45 0 .269-.144.472-.144.2-.394.297.287.088.454.31.171.218.171.529 0 .301-.148.528-.148.223-.422.348-.269.12-.62.12-.353 0-.622-.12-.264-.125-.412-.348-.149-.227-.149-.528 0-.31.167-.533.167-.222.454-.306zm1.256-.72q0-.282-.185-.435-.185-.153-.51-.153-.32 0-.505.153t-.185.44q0 .26.19.417.194.158.5.158.31 0 .5-.158.195-.162.195-.421zm-.695.904q-.343 0-.56.163-.218.157-.218.477 0 .297.208.478.213.18.57.18t.566-.18q.208-.181.208-.478 0-.31-.213-.473-.213-.167-.56-.167z" transform="matrix(.61351 .73798 -1.0149 .40915 -254 76.2)" aria-label="8" font-size="4.635" fill="#141414" stroke="#141414"/></g><g style="line-height:1.5;-inkscape-font-specification:Poppins;text-align:center"><path style="-inkscape-font-specification:Poppins;text-align:center" d="M-317.955-356.467q.384-.308.601-.504.218-.2.366-.414.15-.217.15-.425 0-.197-.096-.308-.094-.115-.305-.115-.205 0-.32.13-.112.127-.12.34h-.267q.013-.337.206-.521.193-.185.498-.185.311 0 .492.172.184.173.184.475 0 .25-.15.489-.149.235-.339.416-.19.178-.486.417h1.039v.23h-1.453z" transform="matrix(-.54286 1.42046 -.289 -1.0859 -254 76.2)" aria-label="2" font-size="3.019" fill="#141414" stroke="#141414"/></g><g style="line-height:1.5;-inkscape-font-specification:Poppins;text-align:center"><path style="-inkscape-font-specification:Poppins;text-align:center" d="M21.304-257.171q.382-.307.599-.503.216-.199.364-.412.15-.217.15-.424 0-.196-.096-.307-.093-.115-.304-.115-.205 0-.32.13-.11.126-.12.34h-.264q.012-.337.204-.52.193-.184.497-.184.31 0 .49.171.184.172.184.473 0 .25-.15.487-.148.235-.338.415-.19.178-.484.415h1.035v.23h-1.447zm1.763-.891q0-.518.169-.807.168-.291.59-.291.418 0 .586.291.169.29.169.807 0 .526-.169.818-.168.292-.587.292-.42 0-.59-.292-.168-.292-.168-.818zm1.243 0q0-.262-.036-.442-.033-.184-.142-.295-.105-.112-.307-.112-.204 0-.313.112-.105.111-.141.295-.033.18-.033.442 0 .27.033.454.036.184.141.295.109.111.313.111.202 0 .307-.11.109-.112.142-.296.036-.183.036-.454z" transform="matrix(-.93035 1.14205 -1.13608 .31973 -254 76.2)" aria-label="20" font-size="3.009" fill="#0f0f0f" stroke="#0f0f0f"/></g><g style="line-height:1.5;-inkscape-font-specification:Poppins;text-align:center"><path style="-inkscape-font-specification:Poppins;text-align:center" d="M-192.378-431.566q.02-.27.208-.422.187-.152.486-.152.2 0 .343.073.146.07.22.193.075.123.075.279 0 .181-.105.313-.102.132-.27.17v.014q.19.047.302.185.111.137.111.36 0 .167-.076.302-.076.131-.228.208-.152.076-.366.076-.31 0-.51-.161-.199-.164-.222-.463h.258q.02.176.143.287.123.111.328.111.205 0 .31-.105.109-.109.109-.278 0-.22-.147-.317-.146-.096-.442-.096h-.067v-.223h.07q.27-.003.407-.088.138-.088.138-.27 0-.154-.103-.248-.1-.094-.287-.094-.181 0-.293.094-.11.094-.131.252z" transform="matrix(.00568 1.67045 -.60068 -.59857 -254 76.2)" aria-label="3" font-size="2.928" fill="#292929" stroke="#292929"/></g><g style="line-height:1.5;-inkscape-font-specification:Poppins;text-align:center"><path style="-inkscape-font-specification:Poppins;text-align:center" d="M8.742 341.843v-.242h.547v2.103h-.267v-1.861zm2.342-.012h-1.021v.663q.067-.093.198-.151.13-.061.282-.061.241 0 .392.102.151.099.215.259.067.157.067.334 0 .21-.078.375-.079.166-.242.262-.16.096-.398.096-.305 0-.494-.157-.19-.157-.23-.419h.259q.037.166.16.259.122.093.308.093.23 0 .346-.137.116-.14.116-.366 0-.227-.116-.35-.116-.124-.343-.124-.154 0-.27.075-.114.073-.166.201h-.25v-1.187h1.265z" transform="matrix(-1.49875 -.86902 .83287 -.1843 -254 76.2)" aria-label="15" font-size="2.908" fill="#434343" stroke="#434343"/></g></g></svg>