<svg xmlns="http://www.w3.org/2000/svg" viewBox="0 0 25.4 25.4" height="96" width="96"><g font-weight="400" font-family="Poppins" word-spacing="0" text-anchor="middle" stroke-width=".176" stroke-linecap="round" stroke-linejoin="round"><g style="line-height:1.5;-inkscape-font-specification:Poppins;text-align:center"><path style="-inkscape-font-specification:Poppins;text-align:center" d="M11.537 14.978q.717-.576 1.123-.943.407-.372.683-.773.283-.406.283-.796 0-.367-.181-.576-.175-.214-.57-.214-.384 0-.598.243-.21.237-.226.637h-.497q.023-.632.384-.976t.931-.344q.582 0 .92.321.345.322.345.887 0 .468-.283.914-.276.44-.632.779-.355.333-.909.779h1.942v.429h-2.715z" aria-label="2" font-size="5.644" letter-spacing="0" fill="#1b1b1b" stroke="#1b1b1b"/></g><g style="line-height:1.5;-inkscape-font-specification:Poppins;text-align:center"><path style="-inkscape-font-specification:Poppins;text-align:center" d="M-532.417 142.73v-.394h.893v3.434h-.437v-3.04zm2.261 1.254q-.266-.105-.408-.304-.143-.2-.143-.485 0-.256.128-.46.129-.21.38-.328.257-.124.618-.124t.613.124q.256.119.385.328.133.204.133.46 0 .276-.148.485-.147.204-.403.304.294.09.465.318.176.224.176.542 0 .309-.152.541-.152.228-.432.357-.276.123-.637.123t-.637-.123q-.27-.129-.422-.357-.152-.232-.152-.541 0-.318.17-.546.172-.229.466-.314zm1.288-.736q0-.29-.19-.447-.19-.157-.523-.157-.328 0-.518.157t-.19.451q0 .266.195.428.2.161.513.161.318 0 .513-.161.2-.166.2-.432zm-.713.926q-.352 0-.575.166-.223.162-.223.49 0 .304.214.489.218.185.584.185t.58-.185q.213-.185.213-.49 0-.318-.218-.484-.219-.171-.575-.171z" transform="matrix(-.93452 -.17078 -.14027 -1.0957 -457.2 76.2)" aria-label="18" font-size="4.751" letter-spacing="0" fill="#181818" stroke="#181818"/></g><g style="line-height:1.5;-inkscape-font-specification:Poppins;text-align:center"><path style="-inkscape-font-specification:Poppins;text-align:center" d="M265.552-434.59v-.398h.902v3.47h-.441v-3.071zm1.598 2.722q.61-.49.955-.801.346-.317.58-.658.24-.346.24-.677 0-.312-.153-.49-.149-.182-.485-.182-.326 0-.508.207-.178.201-.192.542h-.423q.02-.537.327-.83.307-.293.792-.293.494 0 .782.274.293.273.293.753 0 .398-.24.778-.235.374-.538.662-.302.283-.773.662h1.651v.365h-2.308z" transform="matrix(.34839 .88398 -.85596 .69848 -457.2 76.2)" aria-label="12" font-size="4.799" letter-spacing="0" fill="#3d3d3d" stroke="#3d3d3d"/></g><g style="line-height:1.5;-inkscape-font-specification:Poppins;text-align:center"><path style="-inkscape-font-specification:Poppins;text-align:center" d="M-186.872 277.324v-.244h.553v2.126h-.27v-1.882zm2.367-.012h-1.032v.67q.067-.093.2-.152.132-.062.285-.062.244 0 .397.103.153.1.217.262.068.158.068.338 0 .211-.08.379-.079.168-.244.265-.161.097-.402.097-.309 0-.5-.16-.191-.158-.232-.423h.261q.038.168.162.262.123.094.312.094.232 0 .35-.138.117-.141.117-.37 0-.23-.117-.353-.118-.127-.347-.127-.156 0-.274.077-.115.073-.167.203h-.253v-1.2h1.279z" transform="matrix(-.00186 -.59492 1.67885 -.65577 -457.2 76.2)" aria-label="15" font-size="2.94" letter-spacing="0" fill="#7e7e7e" stroke="#7f7f7f"/></g><g style="line-height:1.5;-inkscape-font-specification:Poppins;text-align:center"><path style="-inkscape-font-specification:Poppins;text-align:center" d="M206.193 589.349q-.167-.066-.257-.192-.09-.125-.09-.304 0-.162.081-.29.08-.132.24-.207.16-.077.388-.077.227 0 .385.077.161.075.242.207.084.128.084.29 0 .173-.093.304-.092.129-.254.192.185.056.293.2.11.14.11.34 0 .195-.095.341-.096.144-.272.224-.173.078-.4.078-.228 0-.4-.078-.171-.08-.267-.224-.095-.146-.095-.34 0-.2.107-.344.108-.144.293-.197zm.81-.464q0-.182-.12-.28-.12-.1-.328-.1-.207 0-.326.1-.12.098-.12.283 0 .168.123.27.125.101.323.101.2 0 .322-.102.126-.104.126-.272zm-.448.583q-.222 0-.362.105-.14.101-.14.308 0 .19.134.307.137.117.368.117.23 0 .364-.117.135-.116.135-.307 0-.2-.138-.305-.137-.108-.361-.108z" transform="matrix(-.96273 -1.15093 1.12634 .30782 -457.2 76.2)" aria-label="8" font-size="2.989" letter-spacing="0" fill="#171717" stroke="#171717"/></g><g style="line-height:1.5;-inkscape-font-specification:Poppins;text-align:center"><path style="-inkscape-font-specification:Poppins;text-align:center" d="M131.823-379.964q.589-.472.922-.774.334-.305.561-.635.232-.333.232-.653 0-.301-.148-.473-.144-.176-.468-.176-.316 0-.492.2-.171.194-.185.523h-.408q.018-.519.315-.802.297-.283.765-.283.477 0 .755.265.283.264.283.727 0 .385-.232.751-.227.362-.519.64-.292.273-.746.64h1.594v.352h-2.229zm2.717-1.371q0-.798.259-1.243.26-.45.908-.45.644 0 .904.45.26.445.26 1.243 0 .81-.26 1.26-.26.45-.904.45-.649 0-.908-.45-.26-.45-.26-1.26zm1.913 0q0-.404-.055-.682-.051-.283-.218-.454-.162-.172-.473-.172-.315 0-.482.172-.162.171-.218.454-.05.278-.05.682 0 .417.05.7.056.282.218.454.167.171.482.171.31 0 .473-.171.167-.172.218-.455.055-.282.055-.7z" transform="matrix(.61351 .73798 -1.0149 .40915 -457.2 76.2)" aria-label="20" font-size="4.635" letter-spacing="0" fill="#141414" stroke="#141414"/></g><g style="line-height:1.5;-inkscape-font-specification:Poppins;text-align:center"><path style="-inkscape-font-specification:Poppins;text-align:center" d="M-538.724-645.371v-.208l1.06-1.468h.33v1.437h.301v.239h-.302v.486h-.271v-.486zm1.13-1.389l-.813 1.15h.813z" transform="matrix(-.54286 1.42046 -.289 -1.0859 -457.2 76.2)" aria-label="4" font-size="3.019" letter-spacing="0" fill="#141414" stroke="#141414"/></g><g style="line-height:1.5;-inkscape-font-specification:Poppins;text-align:center"><path style="-inkscape-font-specification:Poppins;text-align:center" d="M86.818-490.944v-.25h.565v2.176h-.276v-1.926zm1.492 0v-.25h.566v2.176h-.277v-1.926z" transform="matrix(-.93035 1.14205 -1.13608 .31973 -457.2 76.2)" aria-label="11" font-size="3.009" letter-spacing=".529" fill="#0f0f0f" stroke="#0f0f0f"/></g><g style="line-height:1.5;-inkscape-font-specification:Poppins;text-align:center"><path style="-inkscape-font-specification:Poppins;text-align:center" d="M-314.598-771.292v-.243h.551v2.117h-.27v-1.874zm1.008.794q0-.504.164-.785.164-.284.574-.284.407 0 .57.284.165.281.165.785 0 .512-.164.796-.164.284-.571.284-.41 0-.574-.284-.164-.284-.164-.796zm1.21 0q0-.255-.036-.43-.032-.18-.138-.288-.102-.108-.298-.108-.2 0-.305.108-.102.109-.137.287-.033.176-.033.43 0 .264.033.443.035.179.137.287.106.108.305.108.196 0 .298-.108.106-.108.138-.287.035-.179.035-.442z" transform="matrix(.00568 1.67045 -.60068 -.59857 -457.2 76.2)" aria-label="10" font-size="2.928" letter-spacing="0" fill="#292929" stroke="#292929"/></g><g style="line-height:1.5;-inkscape-font-specification:Poppins;text-align:center"><path style="-inkscape-font-specification:Poppins;text-align:center" d="M-26.832 518.415h-1.02v.663q.066-.093.197-.152.131-.06.282-.06.242 0 .393.101.151.1.215.259.067.157.067.334 0 .21-.078.376-.079.165-.242.261-.16.096-.398.096-.306 0-.495-.157t-.23-.418h.26q.037.165.16.258.122.094.308.094.23 0 .346-.137.116-.14.116-.367 0-.226-.116-.349-.117-.125-.343-.125-.155 0-.27.076-.114.073-.167.2h-.25v-1.186h1.265z" transform="matrix(-1.49875 -.86902 .83287 -.1843 -457.2 76.2)" aria-label="5" font-size="2.908" letter-spacing="0" fill="#434343" stroke="#434343"/></g></g></svg>