<svg xmlns="http://www.w3.org/2000/svg" viewBox="0 0 25.4 25.4" height="96" width="96"><path d="M9.646 16.497q1.613-1.295 2.527-2.12.914-.839 1.537-1.74.635-.915.635-1.791 0-.826-.407-1.296-.393-.482-1.282-.482-.864 0-1.347.546-.47.533-.508 1.435H9.684q.05-1.422.863-2.197.813-.775 2.096-.775 1.308 0 2.07.724.775.724.775 1.994 0 1.054-.635 2.057-.623.991-1.423 1.753-.8.75-2.044 1.753h4.368v.965H9.646z" style="line-height:1.5;-inkscape-font-specification:Poppins;text-align:center" font-weight="400" font-size="12.7" font-family="Poppins" letter-spacing="0" word-spacing="0" text-anchor="middle" fill="#1a1a1a" stroke="#1a1a1a" stroke-width=".176" stroke-linecap="round" stroke-linejoin="round"/></svg>