<svg xmlns="http://www.w3.org/2000/svg" viewBox="0 0 25.4 25.4" height="96" width="96"><g font-weight="400" font-family="Poppins" word-spacing="0" text-anchor="middle" stroke-linecap="round" stroke-linejoin="round"><g style="line-height:1.5;-inkscape-font-specification:Poppins;text-align:center"><path style="-inkscape-font-specification:Poppins;text-align:center" d="M13.974 17.11q.206-1.447.279-2.314.066-.874-.049-1.64-.114-.778-.538-1.23-.399-.426-.836-.472-.436-.058-.894.371-.445.418-.43.933.015.502.431.985l-.576.54q-.661-.758-.617-1.55.045-.792.707-1.412.674-.632 1.417-.627.749-.002 1.363.653.51.544.667 1.368.158.811.113 1.591-.05.773-.207 1.892l2.253-2.112.466.498-3.15 2.952z" letter-spacing="-.619" aria-label="2" font-size="10.559" fill="#1b1b1b" stroke="#1b1b1b" stroke-width=".07"/></g><path style="line-height:1.5;-inkscape-font-specification:Poppins;font-variant-ligatures:normal;font-variant-position:normal;font-variant-caps:normal;font-variant-numeric:normal;font-variant-alternates:normal;font-feature-settings:normal;text-indent:0;text-align:center;text-decoration-line:none;text-decoration-style:solid;text-decoration-color:#000;text-transform:none;text-orientation:mixed;white-space:normal;shape-padding:0" d="M-251.5 139.021q-.444-.174-.682-.507-.237-.333-.237-.808 0-.428.214-.768.214-.349.633-.547.428-.206 1.03-.206.602 0 1.022.206.428.198.642.547.221.34.221.768 0 .46-.245.808-.246.34-.673.507.49.15.776.53.293.373.293.904 0 .515-.254.903-.253.38-.72.594-.46.206-1.062.206-.602 0-1.061-.206-.452-.214-.705-.594-.254-.388-.254-.903 0-.53.285-.911.286-.38.777-.523zm2.146-1.228q0-.483-.317-.744-.316-.262-.87-.262-.547 0-.864.262-.317.261-.317.752 0 .444.325.713.332.27.855.27.53 0 .856-.27.332-.277.332-.72zm-1.188 1.545q-.586 0-.958.277-.373.27-.373.816 0 .507.357.816.364.309.974.309t.967-.31q.356-.308.356-.815 0-.53-.364-.808-.365-.285-.959-.285z" transform="matrix(-.1303 -.66064 1.11098 .08792 -170.815 -170.815)" aria-label="8" font-size="7.921" letter-spacing="-.464" fill="#3d3d3d" stroke="#3d3d3d" stroke-width=".062"/><path style="line-height:1.5;-inkscape-font-specification:Poppins;font-variant-ligatures:normal;font-variant-position:normal;font-variant-caps:normal;font-variant-numeric:normal;font-variant-alternates:normal;font-feature-settings:normal;text-indent:0;text-align:center;text-decoration-line:none;text-decoration-style:solid;text-decoration-color:#000;text-transform:none;text-orientation:mixed;white-space:normal;shape-padding:0" d="M254.802 114.467q-.175-.883-1.09-.883-.707 0-1.057.55-.35.54-.342 1.789.183-.414.604-.645.43-.238.954-.238.82 0 1.305.509.493.509.493 1.407 0 .541-.215.97-.207.43-.636.685-.422.254-1.026.254-.82 0-1.28-.366-.462-.366-.645-1.01t-.183-1.59q0-2.919 2.036-2.919.78 0 1.225.422.445.421.525 1.065zm-1.082 1.185q-.342 0-.644.143-.302.136-.493.422-.183.278-.183.684 0 .604.35.986.35.374 1.002.374.557 0 .883-.342.334-.35.334-.939 0-.62-.318-.97-.318-.358-.93-.358zm2.483 3.245q-.207 0-.35-.143t-.143-.35q0-.207.143-.35t.35-.143q.199 0 .334.143.143.143.143.35t-.143.35q-.135.143-.334.143z" transform="matrix(.66765 .23046 .06872 1.10588 -170.815 -170.815)" aria-label="6." font-size="7.953" letter-spacing="-.794" fill="#3d3d3d" stroke="#3d3d3d" stroke-width=".062"/><g style="line-height:1.5;-inkscape-font-specification:Poppins;text-align:center"><path style="-inkscape-font-specification:Poppins;text-align:center" d="M-442.704-932.717h-.973v.632q.064-.089.189-.144.125-.058.269-.058.23 0 .374.097.144.094.205.246.063.15.063.319 0 .2-.074.357-.075.158-.23.25-.153.091-.38.091-.29 0-.471-.15-.18-.15-.219-.399h.247q.036.158.152.247.116.089.294.089.219 0 .33-.13.11-.134.11-.35 0-.216-.11-.332-.111-.12-.327-.12-.147 0-.258.073-.108.069-.158.19h-.238v-1.13h1.205z" letter-spacing="-.162" transform="matrix(-1.0948 2.47468 .31608 -1.3744 -170.815 -170.815)" aria-label="5" font-size="2.771" fill="#0f0f0f" stroke="#0f0f0f" stroke-width=".022"/></g><g style="line-height:1.5;-inkscape-font-specification:Poppins;text-align:center"><path style="-inkscape-font-specification:Poppins;text-align:center" d="M325.497-701.694q.031.18.144.276.116.098.311.098.26 0 .383-.204.125-.204.12-.688-.067.142-.22.223-.154.079-.343.079-.21 0-.376-.085-.163-.088-.258-.254-.094-.167-.094-.402 0-.336.195-.54.194-.207.552-.207.44 0 .615.286.18.285.18.85 0 .396-.073.653-.069.257-.238.392-.167.135-.459.135-.32 0-.499-.172-.179-.173-.204-.44zm.442-.458q.21 0 .346-.129.135-.132.135-.354 0-.236-.132-.38-.132-.145-.37-.145-.22 0-.352.139-.129.138-.129.364 0 .229.129.367.129.138.373.138zm.975 1.086q-.081 0-.138-.057-.056-.056-.056-.138 0-.081.056-.138.057-.056.138-.056.079 0 .132.056.057.057.057.138 0 .082-.057.138-.053.057-.132.057z" transform="matrix(-1.90262 .78802 -1.14505 .09451 -170.815 -170.815)" aria-label="9." font-size="3.139" letter-spacing="-.331" fill="#141414" stroke="#141414" stroke-width=".025"/></g></g></svg>