<svg xmlns="http://www.w3.org/2000/svg" viewBox="0 0 25.4 25.4" height="96" width="96"><g font-weight="400" font-family="Poppins" letter-spacing="0" word-spacing="0" text-anchor="middle" stroke-linecap="round" stroke-linejoin="round"><g style="line-height:1.5;-inkscape-font-specification:Poppins;text-align:center"><path style="-inkscape-font-specification:Poppins;text-align:center" d="M11.832 12.857q-.446-.175-.685-.51-.239-.334-.239-.812 0-.43.215-.772.215-.35.637-.55.43-.207 1.036-.207.605 0 1.027.207.43.2.645.55.223.342.223.772 0 .462-.247.813-.247.342-.677.51.494.15.78.533.295.374.295.908 0 .517-.255.908-.254.382-.724.597-.462.207-1.067.207-.606 0-1.068-.207-.453-.215-.708-.597-.255-.39-.255-.908 0-.534.287-.916.286-.382.78-.526zm2.158-1.234q0-.486-.318-.749-.319-.263-.876-.263-.55 0-.868.263-.319.263-.319.757 0 .446.327.717.334.27.86.27.533 0 .86-.27.334-.28.334-.725zm-1.194 1.553q-.59 0-.964.279-.374.27-.374.82 0 .51.358.82.366.31.98.31.613 0 .971-.31.359-.31.359-.82 0-.534-.367-.813-.366-.286-.963-.286z" aria-label="8" font-size="7.964" fill="#f2f2f2" stroke="#f2f2f2" stroke-width=".249"/></g><g style="line-height:1.5;-inkscape-font-specification:Poppins;text-align:center"><path style="-inkscape-font-specification:Poppins;text-align:center" d="M377.634 557.987l-1.349 3.163h-.446l1.368-3.12h-1.873v-.378h2.3z" transform="matrix(.74373 -1.14237 .17085 1.08214 -355.6 -159.808)" aria-label="7" font-size="4.851" fill="#8c8c8c" stroke="#8c8c8c" stroke-width=".152"/></g><g style="line-height:1.5;-inkscape-font-specification:Poppins;text-align:center"><path style="-inkscape-font-specification:Poppins;text-align:center" d="M196.216-312.484h-1.692v1.1q.11-.155.328-.251.217-.102.467-.102.4 0 .651.17.251.163.357.428.111.26.111.555 0 .347-.13.622t-.4.434q-.266.159-.661.159-.506 0-.82-.26-.313-.26-.38-.695h.428q.063.275.266.43.202.154.51.154.382 0 .575-.227.192-.231.192-.608 0-.376-.192-.578-.193-.208-.57-.208-.255 0-.448.126-.188.12-.275.333h-.414v-1.968h2.097z" transform="matrix(-.49582 .60338 -1.49263 -.20043 -355.6 -159.808)" aria-label="5" font-size="4.822" fill="#b6b6b6" stroke="#b6b6b6" stroke-width=".151"/></g><g style="line-height:1.5;-inkscape-font-specification:Poppins;text-align:center"><path style="-inkscape-font-specification:Poppins;text-align:center" d="M-107.335-469.415v-.335l1.701-2.355h.529v2.307h.484v.383h-.484v.78h-.437v-.78zm1.813-2.23l-1.304 1.847h1.304z" transform="matrix(-.0013 1.30307 -.76675 -.66469 -355.6 -159.808)" aria-label="4" font-size="4.847" fill="#dbdbdb" stroke="#dbdbdb" stroke-width=".151"/></g><g style="line-height:1.5;-inkscape-font-specification:Poppins;text-align:center"><path style="-inkscape-font-specification:Poppins;text-align:center" d="M-117.885 261.709q.594-.477.93-.78.336-.31.565-.64.234-.337.234-.66 0-.304-.15-.477-.144-.177-.471-.177-.318 0-.496.2-.173.197-.187.529h-.411q.019-.524.318-.809.299-.285.77-.285.482 0 .763.267.285.266.285.733 0 .388-.234.758-.229.364-.523.644-.295.276-.753.645h1.608v.356h-2.248z" transform="matrix(-.81367 -1.06095 1.06788 .16342 -355.6 -159.808)" aria-label="2" font-size="4.673" fill="#dbdbdb" stroke="#dbdbdb" stroke-width=".146"/></g><g style="line-height:1.5;-inkscape-font-specification:Poppins;text-align:center"><path style="-inkscape-font-specification:Poppins;text-align:center" d="M-423.439-372.98v-.398h.902v3.47h-.441v-3.072zm1.599 2.72q.609-.488.954-.8.345-.317.58-.658.24-.345.24-.676 0-.312-.153-.49-.149-.182-.485-.182-.326 0-.508.206-.178.202-.192.543h-.422q.019-.538.326-.83.307-.293.792-.293.494 0 .782.273.292.274.292.754 0 .398-.24.777-.235.374-.537.662-.302.283-.772.662h1.65v.365h-2.308z" transform="matrix(-1.244 .4538 .4321 -.96148 -355.6 -159.808)" aria-label="12" font-size="4.798" fill="#f8f8f8" stroke="#f8f8f8" stroke-width=".15"/></g></g></svg>