<svg xmlns="http://www.w3.org/2000/svg" viewBox="0 0 25.4 25.4" height="96" width="96"><g font-weight="400" font-family="Poppins" word-spacing="0" text-anchor="middle" stroke-width=".176" stroke-linecap="round" stroke-linejoin="round"><g style="line-height:1.5;-inkscape-font-specification:Poppins;text-align:center"><path style="-inkscape-font-specification:Poppins;text-align:center" d="M10.402 11.777v-.468h1.062v4.08h-.52v-3.612zm2.688 1.491q-.317-.125-.486-.362-.17-.237-.17-.575 0-.305.153-.548.152-.248.451-.39.305-.146.734-.146.43 0 .728.147.305.14.458.39.158.242.158.547 0 .327-.175.575-.175.243-.48.362.35.107.553.378.209.265.209.643 0 .367-.18.644-.181.27-.514.423-.328.147-.757.147t-.756-.147q-.322-.152-.502-.423-.181-.277-.181-.644 0-.378.203-.649.203-.27.553-.372zm1.529-.875q0-.345-.226-.53-.226-.187-.62-.187-.39 0-.616.186-.226.186-.226.536 0 .316.232.508.237.192.61.192.377 0 .609-.192.237-.197.237-.513zm-.847 1.1q-.417 0-.683.198-.265.192-.265.581 0 .362.254.582.26.22.694.22.435 0 .689-.22.254-.22.254-.582 0-.378-.26-.575-.26-.204-.683-.204z" aria-label="18" font-size="5.644" letter-spacing="0" fill="#1b1b1b" stroke="#1b1b1b"/></g><g style="line-height:1.5;-inkscape-font-specification:Poppins;text-align:center"><path style="-inkscape-font-specification:Poppins;text-align:center" d="M-86.35 75.602v-.327l1.668-2.31h.518v2.262h.475v.375h-.475v.765h-.427v-.765zm1.778-2.185l-1.278 1.81h1.278z" transform="matrix(-.93452 -.17078 -.14027 -1.0957 -50.8 76.2)" aria-label="4" font-size="4.751" letter-spacing="0" fill="#181818" stroke="#181818"/></g><g style="line-height:1.5;-inkscape-font-specification:Poppins;text-align:center"><path style="-inkscape-font-specification:Poppins;text-align:center" d="M-15.344-75.357h-1.684v1.094q.11-.154.326-.25.216-.1.466-.1.398 0 .648.167.25.164.355.428.11.259.11.551 0 .346-.13.62-.129.273-.398.431-.264.159-.657.159-.504 0-.816-.26-.312-.258-.38-.69h.428q.062.273.264.427.201.153.509.153.379 0 .57-.225.193-.23.193-.605 0-.374-.192-.576-.192-.206-.567-.206-.254 0-.446.125-.187.12-.273.33h-.413v-1.957h2.087z" transform="matrix(.34839 .88398 -.85596 .69848 -50.8 76.2)" aria-label="5" font-size="4.799" letter-spacing="0" fill="#3d3d3d" stroke="#3d3d3d"/></g><g style="line-height:1.5;-inkscape-font-specification:Poppins;text-align:center"><path style="-inkscape-font-specification:Poppins;text-align:center" d="M79.69 35.549v-.244h.554v2.125h-.27v-1.88zm1.006.291q.02-.27.21-.424.187-.152.487-.152.2 0 .344.073.147.07.22.194.077.124.077.28 0 .182-.106.314-.103.132-.27.17v.015q.19.047.303.185.111.139.111.362 0 .168-.076.303-.077.132-.23.209-.152.076-.367.076-.312 0-.512-.162-.2-.164-.223-.464h.259q.02.176.144.288.123.112.33.112.205 0 .31-.106.11-.109.11-.28 0-.22-.147-.317t-.444-.097h-.068v-.223h.07q.271-.003.41-.089.137-.088.137-.27 0-.156-.103-.25-.1-.094-.288-.094-.182 0-.294.094-.111.094-.132.253z" transform="matrix(-.00186 -.59492 1.67885 -.65577 -50.8 76.2)" aria-label="13" font-size="2.94" letter-spacing="0" fill="#7e7e7e" stroke="#7f7f7f"/></g><g style="line-height:1.5;-inkscape-font-specification:Poppins;text-align:center"><path style="-inkscape-font-specification:Poppins;text-align:center" d="M80.237 120.821v-.248h.562v2.16h-.275v-1.912zm.995 1.695q.38-.305.595-.5.215-.197.362-.409.15-.215.15-.421 0-.195-.097-.305-.092-.114-.301-.114-.204 0-.317.129-.11.125-.12.337h-.263q.012-.334.203-.517.192-.182.494-.182.307 0 .487.17.182.17.182.47 0 .248-.15.484-.146.233-.334.412-.188.177-.481.413h1.028v.227h-1.438z" transform="matrix(-.96273 -1.15093 1.12634 .30782 -50.8 76.2)" aria-label="12" font-size="2.989" letter-spacing="0" fill="#171717" stroke="#171717"/></g><g style="line-height:1.5;-inkscape-font-specification:Poppins;text-align:center"><path style="-inkscape-font-specification:Poppins;text-align:center" d="M-33.003-80.049q.589-.473.923-.774.333-.306.56-.635.232-.334.232-.654 0-.3-.148-.472-.144-.176-.468-.176-.315 0-.492.199-.171.195-.185.524h-.408q.019-.52.315-.802.297-.283.765-.283.477 0 .756.264.282.264.282.728 0 .385-.231.75-.228.362-.52.64-.292.274-.746.64h1.595v.352h-2.23z" transform="matrix(.61351 .73798 -1.0149 .40915 -50.8 76.2)" aria-label="2" font-size="4.635" letter-spacing="0" fill="#141414" stroke="#141414"/></g><g style="line-height:1.5;-inkscape-font-specification:Poppins;text-align:center"><path style="-inkscape-font-specification:Poppins;text-align:center" d="M-96.458-69.272q-.066-.335-.413-.335-.269 0-.402.208-.133.206-.13.68.07-.157.23-.245.163-.09.362-.09.311 0 .495.193.188.193.188.534 0 .205-.082.369-.078.163-.242.26-.16.096-.389.096-.311 0-.486-.14-.175-.138-.245-.383-.07-.244-.07-.603 0-1.109.774-1.109.296 0 .465.16.169.16.199.405zm-.41.45q-.13 0-.245.054-.115.052-.187.16-.07.106-.07.26 0 .23.133.374.133.142.38.142.212 0 .336-.13.127-.132.127-.356 0-.235-.121-.368-.12-.136-.353-.136zm1.244 1.232q-.079 0-.133-.054-.054-.055-.054-.133 0-.079.054-.133.054-.055.133-.055.075 0 .127.055.054.054.054.133 0 .078-.054.133-.052.054-.127.054z" transform="matrix(-.54286 1.42046 -.289 -1.0859 -50.8 76.2)" aria-label="6." font-size="3.019" letter-spacing="0" fill="#141414" stroke="#141414"/></g><g style="line-height:1.5;-inkscape-font-specification:Poppins;text-align:center"><path style="-inkscape-font-specification:Poppins;text-align:center" d="M-43.666-25.106q.382-.307.599-.502.217-.199.364-.413.15-.216.15-.424 0-.195-.096-.307-.093-.114-.304-.114-.204 0-.319.13-.111.126-.12.34h-.265q.012-.338.205-.521.192-.184.496-.184.31 0 .49.172.184.171.184.472 0 .25-.15.488-.148.234-.337.415-.19.177-.485.415h1.035v.229h-1.447zm1.763-.891q0-.517.169-.806.168-.292.59-.292.418 0 .586.292.169.289.169.806 0 .527-.169.819-.168.292-.586.292-.422 0-.59-.292-.169-.292-.169-.819zm1.243 0q0-.261-.036-.442-.033-.183-.141-.295-.106-.111-.307-.111-.205 0-.313.111-.106.112-.142.295-.033.18-.033.442 0 .271.033.455.036.183.142.295.108.111.313.111.201 0 .307-.111.108-.112.141-.295.036-.184.036-.455z" transform="matrix(-.93035 1.14205 -1.13608 .31973 -50.8 76.2)" aria-label="20" font-size="3.009" letter-spacing="0" fill="#0f0f0f" stroke="#0f0f0f"/></g><g style="line-height:1.5;-inkscape-font-specification:Poppins;text-align:center"><path style="-inkscape-font-specification:Poppins;text-align:center" d="M-71.338-92.42v-.243h.55v2.117h-.269v-1.874zm2.358-.012h-1.028v.668q.067-.094.199-.152.132-.062.284-.062.243 0 .395.103.152.1.217.26.067.158.067.337 0 .21-.079.378-.079.167-.243.263-.161.097-.401.097-.308 0-.498-.158t-.231-.422h.26q.038.167.161.26.123.094.31.094.232 0 .35-.137.116-.14.116-.37 0-.228-.117-.35-.117-.127-.345-.127-.155 0-.273.077-.114.073-.166.202h-.252v-1.195h1.273z" transform="matrix(.00568 1.67045 -.60068 -.59857 -50.8 76.2)" aria-label="15" font-size="2.928" letter-spacing="0" fill="#292929" stroke="#292929"/></g><g style="line-height:1.5;-inkscape-font-specification:Poppins;text-align:center"><path style="-inkscape-font-specification:Poppins;text-align:center" d="M46.375 165.258v-.241h.547v2.102h-.268v-1.861zm1.46 0v-.241h.546v2.102h-.267v-1.861z" transform="matrix(-1.49875 -.86902 .83287 -.1843 -50.8 76.2)" aria-label="11" font-size="2.908" letter-spacing=".529" fill="#434343" stroke="#434343"/></g></g></svg>