<svg xmlns="http://www.w3.org/2000/svg" viewBox="0 0 25.4 25.4" height="96" width="96"><g font-weight="400" font-family="Poppins" letter-spacing="0" word-spacing="0" text-anchor="middle" stroke-width=".176" stroke-linecap="round" stroke-linejoin="round"><g style="line-height:1.5;-inkscape-font-specification:Poppins;text-align:center"><path style="-inkscape-font-specification:Poppins;text-align:center" d="M12.186 13.268q-.316-.125-.485-.362-.17-.237-.17-.575 0-.305.153-.548.152-.248.451-.39.305-.146.734-.146.43 0 .728.147.305.14.457.39.159.242.159.547 0 .327-.175.575-.175.243-.48.362.35.107.553.378.209.265.209.643 0 .367-.18.644-.181.27-.515.423-.327.147-.756.147t-.756-.147q-.322-.152-.503-.423-.18-.277-.18-.644 0-.378.203-.649.203-.27.553-.372zm1.53-.875q0-.345-.226-.53-.226-.187-.62-.187-.39 0-.616.186-.226.186-.226.536 0 .316.232.508.237.192.61.192.377 0 .609-.192.237-.197.237-.513zm-.847 1.1q-.418 0-.683.198-.265.192-.265.581 0 .362.254.582.26.22.694.22.435 0 .689-.22.254-.22.254-.582 0-.378-.26-.575-.26-.204-.683-.204z" aria-label="8" font-size="5.644" fill="#1b1b1b" stroke="#1b1b1b"/></g><g style="line-height:1.5;-inkscape-font-specification:Poppins;text-align:center"><path style="-inkscape-font-specification:Poppins;text-align:center" d="M-365.425 116.704v-.394h.893v3.435h-.437v-3.04zm1.635 1.288q0-.817.265-1.274.266-.46.931-.46.66 0 .927.46.266.457.266 1.274 0 .831-.266 1.292-.266.46-.927.46-.665 0-.93-.46-.267-.461-.267-1.292zm1.961 0q0-.414-.057-.699-.052-.29-.223-.465-.166-.176-.485-.176-.323 0-.494.176-.166.175-.223.465-.052.285-.052.699 0 .427.052.717.057.29.223.466.171.175.494.175.319 0 .485-.175.171-.176.223-.466.057-.29.057-.717z" transform="matrix(-.93452 -.17078 -.14027 -1.0957 -304.8 76.2)" aria-label="10" font-size="4.751" fill="#181818" stroke="#181818"/></g><g style="line-height:1.5;-inkscape-font-specification:Poppins;text-align:center"><path style="-inkscape-font-specification:Poppins;text-align:center" d="M158.958-299.87v-.399h.903v3.47h-.442v-3.071zm3.586.427q-.106-.533-.658-.533-.427 0-.638.331-.211.327-.207 1.08.11-.25.365-.389.26-.144.576-.144.494 0 .787.308.298.307.298.849 0 .326-.13.586-.125.259-.384.412-.254.154-.619.154-.494 0-.773-.22-.278-.222-.388-.61-.11-.39-.11-.96 0-1.762 1.228-1.762.47 0 .739.255.269.254.317.643zm-.653.715q-.207 0-.389.086-.182.082-.297.255-.11.168-.11.412 0 .365.21.596.211.225.605.225.336 0 .533-.206.201-.211.201-.567 0-.374-.192-.585-.192-.216-.561-.216z" transform="matrix(.34839 .88398 -.85596 .69848 -304.8 76.2)" aria-label="16" font-size="4.799" fill="#3d3d3d" stroke="#3d3d3d"/></g><g style="line-height:1.5;-inkscape-font-specification:Poppins;text-align:center"><path style="-inkscape-font-specification:Poppins;text-align:center" d="M-86.34 186.95q.021-.271.21-.424.188-.153.488-.153.2 0 .344.074.147.07.22.194.077.123.077.279 0 .182-.106.315-.103.132-.27.17v.015q.19.047.302.185.112.138.112.362 0 .167-.077.303-.076.132-.229.208-.153.077-.367.077-.312 0-.512-.162-.2-.165-.223-.465h.258q.02.177.144.289.124.111.33.111.205 0 .311-.106.11-.108.11-.279 0-.22-.148-.317-.147-.097-.444-.097h-.068v-.224h.071q.27-.003.409-.088.138-.088.138-.27 0-.156-.103-.25-.1-.095-.288-.095-.182 0-.294.095-.112.094-.132.252z" transform="matrix(-.00186 -.59492 1.67885 -.65577 -304.8 76.2)" aria-label="3" font-size="2.94" fill="#7e7e7e" stroke="#7f7f7f"/></g><g style="line-height:1.5;-inkscape-font-specification:Poppins;text-align:center"><path style="-inkscape-font-specification:Poppins;text-align:center" d="M158.342 413.158v-.248h.561v2.16h-.275v-1.912zm.962 1.432v-.206l1.049-1.453h.326v1.423h.298v.236h-.298v.48h-.27v-.48zm1.118-1.375l-.804 1.139h.804z" transform="matrix(-.96273 -1.15093 1.12634 .30782 -304.8 76.2)" aria-label="14" font-size="2.989" fill="#171717" stroke="#171717"/></g><g style="line-height:1.5;-inkscape-font-specification:Poppins;text-align:center"><path style="-inkscape-font-specification:Poppins;text-align:center" d="M69.467-267.496q.589-.473.922-.774.334-.306.561-.635.232-.334.232-.653 0-.302-.148-.473-.144-.176-.469-.176-.315 0-.49.199-.172.195-.186.524h-.408q.018-.52.315-.802.297-.283.765-.283.477 0 .755.264.283.265.283.728 0 .385-.232.75-.227.362-.519.64-.292.274-.746.64h1.594v.352h-2.229zm2.716-1.372q0-.797.26-1.242.26-.45.908-.45.644 0 .904.45.26.445.26 1.242 0 .811-.26 1.26-.26.45-.904.45-.649 0-.908-.45-.26-.449-.26-1.26zm1.914 0q0-.403-.055-.681-.051-.283-.218-.454-.162-.172-.473-.172-.315 0-.482.172-.162.171-.218.454-.05.278-.05.681 0 .417.05.7.056.283.218.454.167.172.482.172.31 0 .473-.172.167-.171.218-.454.055-.283.055-.7z" transform="matrix(.61351 .73798 -1.0149 .40915 -304.8 76.2)" aria-label="20" font-size="4.635" fill="#141414" stroke="#141414"/></g><g style="line-height:1.5;-inkscape-font-specification:Poppins;text-align:center"><path style="-inkscape-font-specification:Poppins;text-align:center" d="M-373.64-430.338v-.25h.567v2.182h-.278v-1.932zm1.005 1.712q.383-.308.6-.505.218-.199.366-.413.151-.218.151-.426 0-.196-.097-.308-.093-.115-.305-.115-.205 0-.32.13-.111.127-.12.341h-.266q.012-.338.205-.522.194-.184.498-.184.311 0 .493.172.184.172.184.474 0 .25-.151.49-.148.235-.338.416-.19.178-.486.416h1.038v.23h-1.452z" transform="matrix(-.54286 1.42046 -.289 -1.0859 -304.8 76.2)" aria-label="12" font-size="3.019" fill="#141414" stroke="#141414"/></g><g style="line-height:1.5;-inkscape-font-specification:Poppins;text-align:center"><path style="-inkscape-font-specification:Poppins;text-align:center" d="M38.491-315.188q.382-.307.599-.502.216-.199.364-.413.15-.216.15-.424 0-.195-.096-.307-.093-.114-.304-.114-.204 0-.319.13-.111.126-.12.34H38.5q.012-.338.205-.521.192-.184.496-.184.31 0 .49.172.184.171.184.472 0 .25-.15.488-.148.234-.337.415-.19.177-.485.415h1.035v.229h-1.447z" transform="matrix(-.93035 1.14205 -1.13608 .31973 -304.8 76.2)" aria-label="2" font-size="3.009" fill="#0f0f0f" stroke="#0f0f0f"/></g><g style="line-height:1.5;-inkscape-font-specification:Poppins;text-align:center"><path style="-inkscape-font-specification:Poppins;text-align:center" d="M-221.974-516.454q-.065-.325-.401-.325-.261 0-.39.202-.129.199-.126.659.068-.153.223-.238.158-.087.351-.087.302 0 .48.187.182.187.182.518 0 .2-.08.357-.075.159-.233.252-.156.094-.378.094-.302 0-.472-.135-.17-.134-.237-.372-.067-.237-.067-.585 0-1.075.75-1.075.286 0 .45.155.164.155.194.393zm-.399.436q-.125 0-.237.053-.111.05-.181.155-.068.102-.068.252 0 .222.13.363.128.137.368.137.205 0 .325-.125.123-.13.123-.346 0-.228-.117-.357-.117-.132-.343-.132zm1.207 1.195q-.076 0-.129-.053-.053-.053-.053-.129 0-.076.053-.129.053-.052.129-.052.073 0 .123.052.053.053.053.13 0 .075-.053.128-.05.053-.123.053z" transform="matrix(.00568 1.67045 -.60068 -.59857 -304.8 76.2)" aria-label="6." font-size="2.928" fill="#292929" stroke="#292929"/></g><g style="line-height:1.5;-inkscape-font-specification:Poppins;text-align:center"><path style="-inkscape-font-specification:Poppins;text-align:center" d="M-.5 385.989v-.241h.546v2.102H-.22v-1.861zm2.294-.035l-.809 1.896H.718l.82-1.87H.415v-.227h1.379z" transform="matrix(-1.49875 -.86902 .83287 -.1843 -304.8 76.2)" aria-label="17" font-size="2.908" fill="#434343" stroke="#434343"/></g></g></svg>