<svg xmlns="http://www.w3.org/2000/svg" viewBox="0 0 25.4 25.4" height="96" width="96"><g font-weight="400" font-family="Poppins" letter-spacing="0" word-spacing="0" text-anchor="middle" stroke-width=".176" stroke-linecap="round" stroke-linejoin="round"><g style="line-height:1.5;-inkscape-font-specification:Poppins;text-align:center"><path style="-inkscape-font-specification:Poppins;text-align:center" d="M10.391 11.777v-.468h1.061v4.08h-.519v-3.612zm4.217.503q-.125-.627-.774-.627-.502 0-.75.39-.249.384-.243 1.27.13-.294.429-.457.305-.17.677-.17.582 0 .926.361.35.362.35 1 0 .383-.153.688-.146.305-.451.486-.3.18-.728.18-.582 0-.909-.26-.327-.26-.457-.716-.13-.457-.13-1.13 0-2.07 1.445-2.07.553 0 .87.298.315.3.372.757zm-.768.84q-.243 0-.457.102-.215.096-.35.3-.13.197-.13.485 0 .429.248.7.249.265.711.265.396 0 .627-.242.237-.249.237-.667 0-.44-.226-.688-.225-.254-.66-.254z" aria-label="16" font-size="5.644" fill="#1b1b1b" stroke="#1b1b1b"/></g><g style="line-height:1.5;-inkscape-font-specification:Poppins;text-align:center"><path style="-inkscape-font-specification:Poppins;text-align:center" d="M-141.82 82.473q.033-.437.337-.685.304-.247.788-.247.323 0 .556.12.237.113.356.313.124.2.124.451 0 .295-.171.508-.167.214-.437.276v.024q.308.076.489.299.18.223.18.584 0 .271-.123.49-.124.213-.37.337-.248.123-.594.123-.504 0-.827-.26-.323-.267-.361-.751h.418q.033.285.233.465.2.18.532.18t.503-.17q.176-.176.176-.452 0-.356-.237-.513-.238-.157-.718-.157h-.109v-.36h.114q.437-.005.66-.143.224-.143.224-.437 0-.252-.167-.404-.161-.152-.465-.152-.295 0-.475.152t-.214.409z" transform="matrix(-.93452 -.17078 -.14027 -1.0957 -101.6 76.2)" aria-label="3" font-size="4.751" fill="#181818" stroke="#181818"/></g><g style="line-height:1.5;-inkscape-font-specification:Poppins;text-align:center"><path style="-inkscape-font-specification:Poppins;text-align:center" d="M19.34-119.818q-.105-.532-.657-.532-.427 0-.639.33-.21.327-.206 1.08.11-.249.365-.388.259-.144.576-.144.494 0 .787.307.297.307.297.85 0 .326-.13.585-.124.26-.383.413-.255.153-.62.153-.494 0-.772-.22-.278-.221-.389-.61-.11-.389-.11-.96 0-1.761 1.229-1.761.47 0 .739.254.268.255.316.643zm-.652.716q-.207 0-.39.086-.182.082-.297.254-.11.168-.11.413 0 .365.211.595.211.226.605.226.336 0 .532-.207.202-.21.202-.566 0-.374-.192-.585-.192-.216-.561-.216zm1.977 1.958q-.125 0-.211-.087-.087-.086-.087-.21 0-.126.087-.212.086-.086.21-.086.12 0 .202.086.087.086.087.211t-.087.211q-.081.087-.201.087z" transform="matrix(.34839 .88398 -.85596 .69848 -101.6 76.2)" aria-label="6." font-size="4.799" fill="#3d3d3d" stroke="#3d3d3d"/></g><g style="line-height:1.5;-inkscape-font-specification:Poppins;text-align:center"><path style="-inkscape-font-specification:Poppins;text-align:center" d="M46.894 67.082q.03.168.135.259.109.09.291.09.244 0 .359-.19.117-.191.112-.644-.062.132-.206.209-.144.073-.32.073-.198 0-.354-.08-.152-.082-.24-.237-.089-.156-.089-.377 0-.314.182-.505.183-.195.518-.195.412 0 .576.268.168.268.168.797 0 .37-.068.611-.065.241-.223.368-.156.126-.43.126-.3 0-.467-.161-.168-.162-.191-.412zm.414-.43q.197 0 .324-.12.126-.123.126-.332 0-.22-.123-.356-.124-.135-.347-.135-.206 0-.33.13-.12.129-.12.34 0 .215.12.344.121.13.35.13zm1.223 1.018q-.076 0-.129-.053-.053-.053-.053-.13 0-.076.053-.129.053-.053.13-.053.073 0 .123.053.053.053.053.13 0 .076-.053.129-.05.053-.124.053z" transform="matrix(-.00186 -.59492 1.67885 -.65577 -101.6 76.2)" aria-label="9." font-size="2.94" fill="#7e7e7e" stroke="#7f7f7f"/></g><g style="line-height:1.5;-inkscape-font-specification:Poppins;text-align:center"><path style="-inkscape-font-specification:Poppins;text-align:center" d="M95.453 180.983q.38-.305.594-.5.216-.196.362-.409.15-.215.15-.42 0-.195-.096-.306-.093-.113-.302-.113-.203 0-.317.128-.11.126-.12.338h-.262q.012-.335.203-.517t.493-.182q.308 0 .487.17.182.17.182.47 0 .247-.149.483-.146.233-.335.413-.188.176-.48.412h1.027v.227h-1.437zm1.751-.885q0-.514.167-.8.168-.29.586-.29.416 0 .583.29.167.286.167.8 0 .523-.167.813-.167.29-.583.29-.418 0-.586-.29-.167-.29-.167-.813zm1.234 0q0-.26-.036-.439-.032-.182-.14-.293-.105-.11-.305-.11-.203 0-.31.11-.105.11-.141.293-.033.18-.033.44 0 .268.033.45.036.183.14.294.108.11.311.11.2 0 .305-.11.108-.111.14-.293.036-.183.036-.452z" transform="matrix(-.96273 -1.15093 1.12634 .30782 -101.6 76.2)" aria-label="20" font-size="2.989" fill="#171717" stroke="#171717"/></g><g style="line-height:1.5;-inkscape-font-specification:Poppins;text-align:center"><path style="-inkscape-font-specification:Poppins;text-align:center" d="M-11.685-118.943q-.26-.102-.398-.296-.14-.195-.14-.473 0-.25.126-.45.125-.204.37-.32.25-.12.603-.12.352 0 .598.12.25.116.375.32.13.2.13.45 0 .269-.143.473-.144.199-.394.296.287.088.454.31.171.219.171.53 0 .3-.148.528-.148.222-.422.347-.269.12-.62.12-.353 0-.622-.12-.264-.125-.412-.347-.149-.228-.149-.529 0-.31.167-.533.167-.222.454-.306zm1.256-.718q0-.283-.185-.436-.185-.153-.51-.153-.32 0-.505.153-.186.153-.186.44 0 .26.19.418.195.157.501.157.31 0 .5-.157.195-.163.195-.422zm-.695.904q-.343 0-.56.162-.219.157-.219.477 0 .297.209.478.213.18.57.18t.566-.18q.208-.181.208-.478 0-.31-.213-.472-.213-.167-.56-.167z" transform="matrix(.61351 .73798 -1.0149 .40915 -101.6 76.2)" aria-label="8" font-size="4.635" fill="#141414" stroke="#141414"/></g><g style="line-height:1.5;-inkscape-font-specification:Poppins;text-align:center"><path style="-inkscape-font-specification:Poppins;text-align:center" d="M-152.942-141.7v-.25h.567v2.182h-.277v-1.932zm2.382-.036l-.84 1.968h-.277l.851-1.941h-1.165v-.236h1.431z" transform="matrix(-.54286 1.42046 -.289 -1.0859 -101.6 76.2)" aria-label="17" font-size="3.019" fill="#141414" stroke="#141414"/></g><g style="line-height:1.5;-inkscape-font-specification:Poppins;text-align:center"><path style="-inkscape-font-specification:Poppins;text-align:center" d="M-27.079-84.828v-.25h.566v2.175h-.277v-1.925zm1.035.815q0-.517.169-.806.168-.292.59-.292.418 0 .586.292.169.289.169.806 0 .527-.169.819-.168.291-.587.291-.42 0-.59-.291-.168-.292-.168-.819zm1.243 0q0-.262-.036-.442-.033-.184-.142-.295-.105-.111-.307-.111-.204 0-.313.11-.105.112-.14.296-.034.18-.034.442 0 .27.033.454.036.184.141.295.109.112.313.112.202 0 .307-.112.109-.111.142-.295.036-.183.036-.454z" transform="matrix(-.93035 1.14205 -1.13608 .31973 -101.6 76.2)" aria-label="10" font-size="3.009" fill="#0f0f0f" stroke="#0f0f0f"/></g><g style="line-height:1.5;-inkscape-font-specification:Poppins;text-align:center"><path style="-inkscape-font-specification:Poppins;text-align:center" d="M-101.747-177.28v-.242h.55v2.117h-.269v-1.874zm.943 1.404v-.202l1.028-1.424h.32v1.394h.292v.232h-.293v.471h-.263v-.471zm1.095-1.347l-.787 1.115h.787z" transform="matrix(.00568 1.67045 -.60068 -.59857 -101.6 76.2)" aria-label="14" font-size="2.928" fill="#292929" stroke="#292929"/></g><g style="line-height:1.5;-inkscape-font-specification:Poppins;text-align:center"><path style="-inkscape-font-specification:Poppins;text-align:center" d="M36.826 209.404v-.241h.547v2.102h-.267v-1.86zm1.341 1.297q.03.166.134.256.107.09.288.09.241 0 .355-.189.116-.189.11-.637-.061.131-.203.207-.143.073-.317.073-.195 0-.35-.079-.15-.081-.238-.235-.087-.155-.087-.373 0-.31.18-.5.18-.192.512-.192.407 0 .57.265.166.264.166.788 0 .366-.067.605-.064.238-.221.363-.154.125-.425.125-.296 0-.462-.16-.166-.16-.19-.407zm.41-.424q.195 0 .32-.12.125-.122.125-.328 0-.218-.122-.352-.122-.134-.343-.134-.204 0-.326.128-.12.128-.12.337 0 .213.12.34.12.129.346.129z" transform="matrix(-1.49875 -.86902 .83287 -.1843 -101.6 76.2)" aria-label="19" font-size="2.908" fill="#434343" stroke="#434343"/></g></g></svg>