<svg xmlns="http://www.w3.org/2000/svg" viewBox="0 0 25.4 25.4" height="96" width="96"><g font-weight="400" font-family="Poppins" letter-spacing="0" word-spacing="0" text-anchor="middle" stroke-width=".176" stroke-linecap="round" stroke-linejoin="round"><g style="line-height:1.5;-inkscape-font-specification:Poppins;text-align:center"><path style="-inkscape-font-specification:Poppins;text-align:center" d="M10.411 11.777v-.468h1.061v4.08h-.52v-3.612zm1.942 1.53q0-.97.316-1.513.316-.547 1.106-.547.785 0 1.1.547.317.542.317 1.513 0 .988-.316 1.535-.316.548-1.101.548-.79 0-1.106-.548-.316-.547-.316-1.535zm2.33 0q0-.49-.067-.83-.062-.344-.265-.553-.198-.209-.576-.209-.384 0-.587.21-.197.208-.265.552-.062.34-.062.83 0 .508.062.852.067.345.265.554.203.208.587.208.378 0 .576-.208.203-.21.265-.554.068-.344.068-.852z" aria-label="10" font-size="5.644" fill="#f2f2f2" stroke="#f2f2f2"/></g><g style="line-height:1.5;-inkscape-font-specification:Poppins;text-align:center"><path style="-inkscape-font-specification:Poppins;text-align:center" d="M-307.707 95.17v-.394h.893v3.435h-.437v-3.04zm1.582 2.694q.603-.484.945-.793.342-.314.575-.651.237-.342.237-.67 0-.309-.152-.485-.147-.18-.48-.18-.322 0-.503.204-.176.2-.19.537h-.418q.019-.532.323-.822.304-.29.784-.29.49 0 .774.271.29.271.29.746 0 .394-.238.77-.232.37-.532.655-.299.28-.764.656h1.634v.36h-2.285z" transform="matrix(-.93452 -.17078 -.14027 -1.0957 -254 62.442)" aria-label="12" font-size="4.751" fill="#dbdbdb" stroke="#dbdbdb"/></g><g style="line-height:1.5;-inkscape-font-specification:Poppins;text-align:center"><path style="-inkscape-font-specification:Poppins;text-align:center" d="M135.467-250.17v-.399h.902v3.47h-.442v-3.071zm3.786-.058l-1.334 3.13h-.442l1.354-3.087h-1.853v-.374h2.275z" transform="matrix(.34839 .88398 -.85596 .69848 -254 62.442)" aria-label="17" font-size="4.799" fill="#f4f4f4" stroke="#f4f4f4"/></g><g style="line-height:1.5;-inkscape-font-specification:Poppins;text-align:center"><path style="-inkscape-font-specification:Poppins;text-align:center" d="M-74.748 156.376l-.818 1.916h-.27l.829-1.89h-1.135v-.23h1.394z" transform="matrix(-.00186 -.59492 1.67885 -.65577 -254 62.442)" aria-label="7" font-size="2.94" fill="#f8f8f8" stroke="#f8f8f8"/></g><g style="line-height:1.5;-inkscape-font-specification:Poppins;text-align:center"><path style="-inkscape-font-specification:Poppins;text-align:center" d="M127.198 341.444v-.248h.562v2.161h-.275v-1.913zm2.232.266q-.065-.331-.409-.331-.266 0-.397.206-.132.203-.129.672.069-.155.227-.242.162-.09.359-.09.308 0 .49.192.185.191.185.529 0 .203-.08.364-.078.162-.24.257-.158.096-.385.096-.308 0-.481-.138-.174-.137-.242-.38-.07-.241-.07-.597 0-1.097.766-1.097.293 0 .46.159.168.158.197.4zm-.406.446q-.129 0-.242.053-.114.051-.185.159-.07.104-.07.257 0 .227.132.37.132.14.377.14.21 0 .332-.128.125-.131.125-.352 0-.233-.12-.365-.119-.134-.349-.134z" transform="matrix(-.96273 -1.15093 1.12634 .30782 -254 62.442)" aria-label="16" font-size="2.989" fill="#d3d3d3" stroke="#d3d3d3"/></g><g style="line-height:1.5;-inkscape-font-specification:Poppins;text-align:center"><path style="-inkscape-font-specification:Poppins;text-align:center" d="M64.635-222.97q-.26-.101-.399-.296-.139-.195-.139-.473 0-.25.125-.45.125-.203.371-.32.25-.12.603-.12.352 0 .597.12.25.117.376.32.13.2.13.45 0 .269-.144.473-.144.2-.394.297.287.088.454.31.172.218.172.529 0 .3-.149.528-.148.222-.421.348-.27.12-.621.12-.353 0-.622-.12-.264-.126-.412-.348-.148-.227-.148-.528 0-.311.166-.534.167-.222.455-.305zm1.256-.718q0-.283-.186-.436-.185-.152-.51-.152-.32 0-.505.152-.185.153-.185.44 0 .26.19.418.195.158.5.158.311 0 .501-.158.195-.162.195-.422zm-.695.904q-.343 0-.561.162-.218.158-.218.478 0 .296.208.477.214.18.57.18.357 0 .566-.18.209-.18.209-.477 0-.31-.214-.473-.213-.167-.56-.167z" transform="matrix(.61351 .73798 -1.0149 .40915 -254 62.442)" aria-label="8" font-size="4.635" fill="#b6b6b6" stroke="#b6b6b6"/></g><g style="line-height:1.5;-inkscape-font-specification:Poppins;text-align:center"><path style="-inkscape-font-specification:Poppins;text-align:center" d="M-313.978-363.936q.383-.308.6-.504.218-.2.366-.414.15-.217.15-.426 0-.196-.096-.308-.093-.114-.305-.114-.205 0-.32.13-.111.126-.12.34h-.266q.012-.338.205-.522.193-.184.498-.184.311 0 .493.172.184.172.184.474 0 .25-.151.49-.148.235-.338.416-.19.178-.487.417h1.04v.23h-1.453z" transform="matrix(-.54286 1.42046 -.289 -1.0859 -254 62.442)" aria-label="2" font-size="3.019" fill="#bdbdbd" stroke="#bdbdbd"/></g><g style="line-height:1.5;-inkscape-font-specification:Poppins;text-align:center"><path style="-inkscape-font-specification:Poppins;text-align:center" d="M36.935-269.972q.382-.307.6-.503.216-.198.363-.412.15-.217.15-.424 0-.196-.096-.307-.093-.115-.304-.115-.204 0-.319.13-.11.126-.12.34h-.265q.012-.337.205-.52.193-.184.496-.184.31 0 .49.171.184.172.184.473 0 .25-.15.487-.147.235-.337.415-.19.178-.484.416h1.035v.228h-1.448zm1.764-.891q0-.518.168-.806.169-.292.59-.292.418 0 .587.292.168.288.168.806 0 .527-.168.818-.169.292-.587.292-.421 0-.59-.292-.168-.291-.168-.818zm1.242 0q0-.262-.036-.442-.033-.184-.141-.295-.106-.112-.307-.112-.205 0-.313.112-.105.111-.141.295-.034.18-.034.442 0 .27.034.454.036.184.14.295.11.112.314.112.201 0 .307-.112.108-.111.141-.295.036-.183.036-.454z" transform="matrix(-.93035 1.14205 -1.13608 .31973 -254 62.442)" aria-label="20" font-size="3.009" fill="#8c8c8c" stroke="#8c8c8c"/></g><g style="line-height:1.5;-inkscape-font-specification:Poppins;text-align:center"><path style="-inkscape-font-specification:Poppins;text-align:center" d="M-184.113-431.488q.02-.27.208-.422.187-.152.486-.152.2 0 .343.073.146.07.22.194.075.123.075.278 0 .181-.105.313-.103.132-.27.17v.014q.19.047.302.185.111.138.111.36 0 .167-.076.302-.076.131-.228.208-.152.076-.366.076-.31 0-.51-.161-.199-.164-.222-.463h.257q.02.176.144.287.123.111.328.111.205 0 .31-.105.109-.109.109-.278 0-.22-.147-.317-.146-.096-.442-.096h-.067v-.223h.07q.27-.003.407-.088.138-.087.138-.269 0-.155-.103-.249-.1-.094-.287-.094-.181 0-.293.094-.111.094-.131.252z" transform="matrix(.00568 1.67045 -.60068 -.59857 -254 62.442)" aria-label="3" font-size="2.928" fill="#f3f3f3" stroke="#f3f3f3"/></g><g style="line-height:1.5;-inkscape-font-specification:Poppins;text-align:center"><path style="-inkscape-font-specification:Poppins;text-align:center" d="M-2.717 321.221v-.241h.546v2.102h-.267v-1.861zm2.341-.011h-1.021v.662q.067-.093.198-.15.13-.062.282-.062.241 0 .393.102.15.099.215.259.067.157.067.334 0 .21-.079.375-.078.166-.241.262-.16.096-.399.096-.305 0-.494-.157-.19-.157-.23-.419h.259q.038.166.16.26.122.092.308.092.23 0 .346-.136.117-.14.117-.367 0-.227-.117-.349-.116-.125-.343-.125-.154 0-.27.076-.114.072-.166.2h-.25v-1.186h1.265z" transform="matrix(-1.49875 -.86902 .83287 -.1843 -254 62.442)" aria-label="15" font-size="2.908" fill="#f4f4f4" stroke="#f4f4f4"/></g></g></svg>