<svg xmlns="http://www.w3.org/2000/svg" viewBox="0 0 25.4 25.4" height="96" width="96"><g font-weight="400" font-family="Poppins" letter-spacing="0" word-spacing="0" text-anchor="middle" stroke-width=".176" stroke-linecap="round" stroke-linejoin="round"><g style="line-height:1.5;-inkscape-font-specification:Poppins;text-align:center"><path style="-inkscape-font-specification:Poppins;text-align:center" d="M12.186 13.268q-.316-.125-.485-.362-.17-.237-.17-.575 0-.305.153-.548.152-.248.451-.39.305-.146.734-.146.43 0 .728.147.305.14.457.39.159.242.159.547 0 .327-.175.575-.175.243-.48.362.35.107.553.378.209.265.209.643 0 .367-.18.644-.181.27-.515.423-.327.147-.756.147t-.756-.147q-.322-.152-.503-.423-.18-.277-.18-.644 0-.378.203-.649.203-.27.553-.372zm1.53-.875q0-.345-.226-.53-.226-.187-.62-.187-.39 0-.616.186-.226.186-.226.536 0 .316.232.508.237.192.61.192.377 0 .609-.192.237-.197.237-.513zm-.847 1.1q-.418 0-.683.198-.265.192-.265.581 0 .362.254.582.26.22.694.22.435 0 .689-.22.254-.22.254-.582 0-.378-.26-.575-.26-.204-.683-.204z" aria-label="8" font-size="5.644" fill="#f2f2f2" stroke="#f2f2f2"/></g><g style="line-height:1.5;-inkscape-font-specification:Poppins;text-align:center"><path style="-inkscape-font-specification:Poppins;text-align:center" d="M-363.495 103.846v-.394h.893v3.434h-.437v-3.04zm1.635 1.287q0-.817.265-1.273.266-.46.932-.46.66 0 .926.46.266.456.266 1.273 0 .832-.266 1.293-.266.46-.926.46-.666 0-.932-.46-.266-.461-.266-1.293zm1.961 0q0-.413-.057-.698-.052-.29-.223-.466-.166-.175-.484-.175-.324 0-.495.175-.166.176-.223.466-.052.285-.052.698 0 .428.052.718.057.29.223.465.171.176.495.176.318 0 .484-.176.171-.176.223-.465.057-.29.057-.718z" transform="matrix(-.93452 -.17078 -.14027 -1.0957 -304.8 62.442)" aria-label="10" font-size="4.751" fill="#dbdbdb" stroke="#dbdbdb"/></g><g style="line-height:1.5;-inkscape-font-specification:Poppins;text-align:center"><path style="-inkscape-font-specification:Poppins;text-align:center" d="M170.736-295.077v-.398h.902v3.47h-.441v-3.072zm3.584.427q-.105-.532-.657-.532-.427 0-.638.33-.211.327-.206 1.08.11-.249.364-.388.26-.144.576-.144.495 0 .787.307.298.307.298.85 0 .326-.13.585-.124.26-.383.413-.255.153-.62.153-.494 0-.772-.22-.279-.221-.389-.61-.11-.389-.11-.96 0-1.761 1.228-1.761.47 0 .74.254.268.255.316.643zm-.652.716q-.206 0-.389.086-.182.082-.297.254-.11.168-.11.413 0 .365.21.595.212.226.605.226.336 0 .533-.207.202-.21.202-.566 0-.374-.192-.585-.192-.216-.562-.216z" transform="matrix(.34839 .88398 -.85596 .69848 -304.8 62.442)" aria-label="16" font-size="4.799" fill="#f4f4f4" stroke="#f4f4f4"/></g><g style="line-height:1.5;-inkscape-font-specification:Poppins;text-align:center"><path style="-inkscape-font-specification:Poppins;text-align:center" d="M-109.439 186.924q.02-.27.209-.424.188-.152.488-.152.2 0 .344.073.147.07.22.194.077.124.077.28 0 .182-.106.314-.103.132-.27.17v.015q.19.047.302.185.112.139.112.362 0 .168-.076.303-.077.132-.23.209-.152.076-.367.076-.312 0-.512-.162-.2-.164-.223-.464h.259q.02.176.144.288.123.112.329.112.206 0 .312-.106.108-.109.108-.28 0-.22-.147-.317t-.444-.097h-.067v-.223h.07q.271-.003.41-.089.137-.088.137-.27 0-.156-.103-.25-.1-.094-.288-.094-.182 0-.294.094-.111.094-.132.253z" transform="matrix(-.00186 -.59492 1.67885 -.65577 -304.8 62.442)" aria-label="3" font-size="2.94" fill="#f8f8f8" stroke="#f8f8f8"/></g><g style="line-height:1.5;-inkscape-font-specification:Poppins;text-align:center"><path style="-inkscape-font-specification:Poppins;text-align:center" d="M142.844 399.912v-.248h.562v2.16h-.275v-1.912zm.962 1.431v-.206l1.05-1.452h.325v1.422h.299v.236h-.299v.481h-.269v-.48zm1.118-1.374l-.804 1.138h.804z" transform="matrix(-.96273 -1.15093 1.12634 .30782 -304.8 62.442)" aria-label="14" font-size="2.989" fill="#d3d3d3" stroke="#d3d3d3"/></g><g style="line-height:1.5;-inkscape-font-specification:Poppins;text-align:center"><path style="-inkscape-font-specification:Poppins;text-align:center" d="M83.431-259.054q.589-.473.923-.774.333-.306.56-.635.232-.334.232-.654 0-.301-.148-.473-.144-.176-.468-.176-.315 0-.491.2-.172.194-.186.523h-.408q.019-.519.315-.802.297-.282.765-.282.478 0 .756.264.282.264.282.727 0 .385-.231.751-.227.362-.52.64-.291.273-.746.64h1.595v.352h-2.23zm2.716-1.372q0-.798.26-1.243.26-.45.908-.45.645 0 .904.45.26.445.26 1.243 0 .81-.26 1.26-.26.45-.904.45-.648 0-.908-.45t-.26-1.26zm1.915 0q0-.404-.056-.682-.05-.282-.218-.454-.162-.171-.473-.171-.315 0-.482.171-.162.172-.217.454-.051.278-.051.682 0 .417.05.7.056.282.218.454.167.171.482.171.311 0 .473-.171.167-.172.218-.454.056-.283.056-.7z" transform="matrix(.61351 .73798 -1.0149 .40915 -304.8 62.442)" aria-label="20" font-size="4.635" fill="#b6b6b6" stroke="#b6b6b6"/></g><g style="line-height:1.5;-inkscape-font-specification:Poppins;text-align:center"><path style="-inkscape-font-specification:Poppins;text-align:center" d="M-369.664-437.808v-.25h.567v2.183h-.277v-1.933zm1.005 1.712q.384-.308.601-.504.217-.2.365-.413.151-.218.151-.426 0-.196-.096-.308-.094-.115-.305-.115-.205 0-.32.13-.112.127-.121.341h-.266q.012-.338.206-.522.193-.184.498-.184.31 0 .492.172.184.172.184.474 0 .25-.15.489-.149.235-.339.417-.19.178-.486.416h1.039v.23h-1.453z" transform="matrix(-.54286 1.42046 -.289 -1.0859 -304.8 62.442)" aria-label="12" font-size="3.019" fill="#bdbdbd" stroke="#bdbdbd"/></g><g style="line-height:1.5;-inkscape-font-specification:Poppins;text-align:center"><path style="-inkscape-font-specification:Poppins;text-align:center" d="M54.123-327.989q.382-.307.598-.502.217-.199.364-.413.15-.216.15-.424 0-.195-.095-.307-.094-.114-.304-.114-.205 0-.32.13-.11.126-.12.34h-.264q.012-.338.204-.521.193-.184.497-.184.31 0 .49.172.184.171.184.472 0 .25-.15.488-.148.234-.338.415-.19.177-.484.415h1.035v.229h-1.447z" transform="matrix(-.93035 1.14205 -1.13608 .31973 -304.8 62.442)" aria-label="2" font-size="3.009" fill="#8c8c8c" stroke="#8c8c8c"/></g><g style="line-height:1.5;-inkscape-font-specification:Poppins;text-align:center"><path style="-inkscape-font-specification:Poppins;text-align:center" d="M-213.71-516.376q-.064-.325-.4-.325-.261 0-.39.202-.129.2-.126.659.067-.152.223-.237.158-.088.35-.088.303 0 .481.187.182.188.182.518 0 .2-.08.358-.075.158-.234.252-.155.093-.377.093-.302 0-.472-.134-.17-.135-.237-.372-.067-.238-.067-.586 0-1.075.75-1.075.286 0 .45.156.164.155.194.392zm-.398.436q-.126 0-.237.053-.111.05-.181.155-.068.103-.068.252 0 .223.129.363.129.138.369.138.205 0 .325-.126.123-.129.123-.346 0-.228-.117-.357-.117-.132-.343-.132zm1.207 1.195q-.076 0-.13-.053-.052-.052-.052-.129 0-.076.053-.128.053-.053.129-.053.073 0 .123.053.052.052.052.128 0 .077-.052.13-.05.052-.123.052z" transform="matrix(.00568 1.67045 -.60068 -.59857 -304.8 62.442)" aria-label="6." font-size="2.928" fill="#f3f3f3" stroke="#f3f3f3"/></g><g style="line-height:1.5;-inkscape-font-specification:Poppins;text-align:center"><path style="-inkscape-font-specification:Poppins;text-align:center" d="M-11.96 365.367v-.241h.546v2.103h-.267v-1.862zm2.294-.035l-.808 1.897h-.268l.82-1.87h-1.122v-.227h1.378z" transform="matrix(-1.49875 -.86902 .83287 -.1843 -304.8 62.442)" aria-label="17" font-size="2.908" fill="#f4f4f4" stroke="#f4f4f4"/></g></g></svg>