<svg xmlns="http://www.w3.org/2000/svg" viewBox="0 0 25.4 25.4" height="96" width="96"><g font-weight="400" font-family="Poppins" letter-spacing="0" word-spacing="0" text-anchor="middle" stroke-linecap="round" stroke-linejoin="round"><g style="line-height:1.5;-inkscape-font-specification:Poppins;text-align:center"><path style="-inkscape-font-specification:Poppins;text-align:center" d="M-8.995-511.451v-.337l1.713-2.372h.532v2.323h.488v.386h-.488v.785h-.44v-.785zm1.825-2.245l-1.312 1.86h1.312z" transform="matrix(-.44902 1.67575 -.55677 -.14919 -279.4 -50.8)" aria-label="4" font-size="4.88" fill="#f4f4f4" stroke="#f4f4f4" stroke-width=".135"/></g><g style="line-height:1.5;-inkscape-font-specification:Poppins;text-align:center"><path style="-inkscape-font-specification:Poppins;text-align:center" d="M-438.417 258.824q.62-.497.97-.815.352-.322.591-.668.244-.352.244-.688 0-.318-.156-.498-.151-.186-.493-.186-.332 0-.517.21-.18.205-.195.552h-.43q.02-.547.332-.845.313-.297.805-.297.503 0 .796.278.298.278.298.766 0 .405-.244.79-.24.381-.547.674-.307.288-.786.674h1.68v.37h-2.348z" transform="matrix(-.25767 -.96707 .66725 -1.37665 -279.4 -50.8)" aria-label="2" font-size="4.88" fill="#f4f4f4" stroke="#f4f4f4" stroke-width=".135"/></g><g style="line-height:1.5;-inkscape-font-specification:Poppins;text-align:center"><path style="-inkscape-font-specification:Poppins;text-align:center" d="M443.862 243.55v-.405h.918v3.528h-.45v-3.123z" transform="matrix(.70669 -.70867 -.11047 1.52583 -279.4 -50.8)" aria-label="1" font-size="4.88" fill="#f4f4f4" stroke="#f4f4f4" stroke-width=".135"/></g><g style="line-height:1.5;-inkscape-font-specification:Poppins;text-align:center"><path style="-inkscape-font-specification:Poppins;text-align:center" d="M-175.699-272.019q.034-.448.346-.7.312-.254.808-.254.331 0 .57.122.243.116.365.321.127.204.127.462 0 .302-.176.521-.17.22-.448.283v.024q.317.078.502.307.185.229.185.599 0 .277-.127.501-.126.22-.38.346-.253.127-.608.127-.516 0-.847-.268-.331-.273-.37-.77h.428q.034.293.239.478.204.185.545.185.34 0 .516-.176.18-.18.18-.462 0-.365-.243-.526-.244-.16-.735-.16h-.112v-.37h.117q.447-.006.676-.147.23-.146.23-.448 0-.258-.171-.414-.166-.155-.477-.155-.302 0-.487.155-.185.156-.22.42z" transform="matrix(.26267 .96696 -1.2682 -.86158 -279.4 -50.8)" aria-label="3" font-size="4.869" fill="#dbdbdb" stroke="#dbdbdb" stroke-width=".134"/></g><g style="line-height:1.5;-inkscape-font-specification:Poppins;text-align:center"><path style="-inkscape-font-specification:Poppins;text-align:center" d="M-146.406 282.667v-.335l1.709-2.367h.53v2.318h.488v.384h-.487v.784h-.439v-.784zm1.82-2.24l-1.309 1.856h1.31z" transform="matrix(-1.22964 -1.22964 .40662 -.40662 -279.4 -50.8)" aria-label="4" font-size="4.869" fill="#dbdbdb" stroke="#dbdbdb" stroke-width=".134"/></g><g style="line-height:1.5;-inkscape-font-specification:Poppins;text-align:center"><path style="-inkscape-font-specification:Poppins;text-align:center" d="M318.573-21.983v-.404h.915v3.52h-.448v-3.116z" transform="matrix(.96696 .26267 .86158 1.2682 -279.4 -50.8)" aria-label="1" font-size="4.869" fill="#dbdbdb" stroke="#dbdbdb" stroke-width=".134"/></g><g style="line-height:1.5;-inkscape-font-specification:Poppins;text-align:center"><path style="-inkscape-font-specification:Poppins;text-align:center" d="M150.552 244.114v-.337l1.714-2.374h.532v2.325h.489v.386h-.489v.786h-.44v-.786zm1.826-2.247l-1.313 1.86h1.313z" transform="matrix(1.67435 -.44864 .14931 .55724 -279.4 -50.8)" aria-label="4" font-size="4.884" fill="#8c8c8c" stroke="#8c8c8c" stroke-width=".135"/></g><g style="line-height:1.5;-inkscape-font-specification:Poppins;text-align:center"><path style="-inkscape-font-specification:Poppins;text-align:center" d="M136.158-259.42q.034-.449.346-.703.313-.254.811-.254.332 0 .572.122.244.118.366.323.127.205.127.464 0 .303-.176.522-.17.22-.45.284v.024q.318.078.504.308.185.23.185.6 0 .279-.127.504-.127.22-.38.346-.254.127-.611.127-.518 0-.85-.268-.332-.274-.371-.772h.43q.034.293.239.479.205.185.547.185.342 0 .518-.175.18-.181.18-.464 0-.367-.244-.528-.244-.161-.737-.161h-.113v-.371h.118q.449-.005.679-.147.23-.146.23-.45 0-.258-.172-.414-.166-.157-.478-.157-.303 0-.489.157-.186.156-.22.42z" transform="matrix(-.70787 .7069 -1.52469 .10992 -279.4 -50.8)" aria-label="3" font-size="4.884" fill="#8c8c8c" stroke="#8c8c8c" stroke-width=".135"/></g><g style="line-height:1.5;-inkscape-font-specification:Poppins;text-align:center"><path style="-inkscape-font-specification:Poppins;text-align:center" d="M-290.812 6.704q.62-.498.972-.815.352-.323.591-.67.244-.351.244-.688 0-.318-.156-.498-.151-.186-.493-.186-.332 0-.518.21-.18.205-.195.552h-.43q.02-.547.332-.845.312-.298.806-.298.503 0 .796.278.298.279.298.767 0 .406-.244.792-.24.38-.547.674-.308.288-.787.674h1.68v.37h-2.349z" transform="matrix(-.96648 -.25826 1.37538 -.66715 -279.4 -50.8)" aria-label="2" font-size="4.884" fill="#8c8c8c" stroke="#8c8c8c" stroke-width=".135"/></g></g></svg>