<svg xmlns="http://www.w3.org/2000/svg" viewBox="0 0 25.4 25.4" height="96" width="96"><g font-weight="400" font-family="Poppins" letter-spacing="0" word-spacing="0" text-anchor="middle" stroke-linecap="round" stroke-linejoin="round"><g style="line-height:1.5;-inkscape-font-specification:Poppins;text-align:center"><path style="-inkscape-font-specification:Poppins;text-align:center" d="M10.588 10.753q.062-.818.631-1.28.57-.462 1.476-.462.604 0 1.04.222.445.213.667.587.231.373.231.844 0 .551-.32.951-.311.4-.818.516v.044q.578.143.916.56.338.418.338 1.094 0 .507-.232.916-.23.4-.693.63-.462.232-1.111.232-.943 0-1.547-.489-.605-.498-.676-1.405h.783q.062.534.435.872.374.337.996.337t.942-.32q.33-.329.33-.844 0-.667-.445-.96-.445-.294-1.343-.294h-.204v-.675h.213q.818-.01 1.236-.267.418-.267.418-.818 0-.471-.312-.756-.302-.284-.87-.284-.552 0-.89.284-.338.285-.4.765z" aria-label="3" font-size="9.878" fill="#1b1b1b" stroke="#1b1b1b" stroke-width=".158"/></g><g style="line-height:1.5;-inkscape-font-specification:Poppins;text-align:center"><path style="-inkscape-font-specification:Poppins;text-align:center" d="M-269.672-34.273q-.317-.124-.487-.362-.17-.237-.17-.576 0-.306.153-.549.153-.249.453-.39.305-.147.735-.147t.73.147q.305.141.457.39.159.243.159.549 0 .328-.176.576-.175.244-.48.362.35.108.554.38.209.265.209.644 0 .367-.181.644-.18.272-.515.425-.328.147-.757.147-.43 0-.758-.147-.322-.153-.503-.425-.181-.277-.181-.644 0-.379.203-.65.204-.272.555-.374zm1.532-.876q0-.345-.226-.532-.226-.186-.622-.186-.39 0-.617.186-.226.187-.226.538 0 .316.232.508.238.193.61.193.38 0 .611-.193.238-.197.238-.514zm-.848 1.103q-.419 0-.684.197-.266.193-.266.583 0 .362.254.582.26.22.696.22.435 0 .69-.22.254-.22.254-.582 0-.379-.26-.577-.26-.203-.684-.203z" transform="matrix(-1.57217 0 0 -.51521 -410.21 1.27)" aria-label="8" font-size="5.655" fill="#141414" fill-opacity=".98" stroke="#141414" stroke-width=".101"/></g><g style="line-height:1.5;-inkscape-font-specification:Poppins;text-align:center"><path style="-inkscape-font-specification:Poppins;text-align:center" d="M537.955-461.545q.728-.585 1.14-.958.414-.379.695-.786.287-.413.287-.808 0-.373-.184-.585-.178-.218-.58-.218-.39 0-.607.247-.212.24-.23.648h-.504q.023-.643.39-.993t.946-.35q.59 0 .935.328.35.326.35.9 0 .476-.287.929-.281.447-.642.791-.362.339-.924.792h1.973v.435h-2.758z" transform="matrix(0 .89912 -.90089 1.02997 -410.21 1.27)" aria-label="2" font-size="5.734" fill="#3d3d3d" stroke="#3c3c3c" stroke-width=".102" stroke-opacity=".992"/></g><g style="line-height:1.5;-inkscape-font-specification:Poppins;text-align:center"><path style="-inkscape-font-specification:Poppins;text-align:center" d="M535.226 474.54q-.126-.637-.786-.637-.51 0-.763.396-.252.39-.246 1.29.132-.298.436-.465.31-.172.688-.172.59 0 .94.367.356.367.356 1.015 0 .39-.155.7-.15.31-.459.493-.304.184-.74.184-.59 0-.923-.264-.332-.264-.464-.729-.132-.464-.132-1.146 0-2.105 1.468-2.105.562 0 .883.304.321.304.378.768zm-.78.854q-.247 0-.465.103-.218.098-.355.304-.132.2-.132.493 0 .436.252.711.253.27.723.27.401 0 .636-.247.241-.252.241-.677 0-.447-.23-.7-.229-.257-.67-.257zm2.362 2.339q-.149 0-.252-.103-.103-.103-.103-.252 0-.15.103-.252.103-.104.252-.104.144 0 .241.104.103.103.103.252 0 .149-.103.252-.097.103-.24.103z" transform="matrix(0 -.89912 .90089 1.0278 -410.21 1.27)" aria-label="6." font-size="5.734" fill="#181818" stroke="#181818" stroke-width=".102"/></g></g></svg>