<svg xmlns="http://www.w3.org/2000/svg" width="5in" height="5in" viewBox="0 0 127 127"><path fill-opacity=".031" d="M2.54 2.54h121.92v121.92H2.54z"/><path d="M2.54 2.54v2.54l2.54-2.54H2.54zm7.62 0l-7.62 7.62v5.08l12.7-12.7h-5.08zm10.16 0L2.54 20.32v5.08L25.4 2.54h-5.08zm10.16 0L2.54 30.48v5.08L35.56 2.54h-5.08zm10.16 0l-38.1 38.1v5.08L45.72 2.54h-5.08zm10.16 0L2.54 50.8v5.08L55.88 2.54H50.8zm10.16 0L2.54 60.96v5.08l63.5-63.5h-5.08zm10.16 0L2.54 71.12v5.08L76.2 2.54h-5.08zm10.16 0L2.54 81.28v5.08L86.36 2.54h-5.08zm10.16 0l-88.9 88.9v5.08L96.52 2.54h-5.08zm10.16 0L2.54 101.6v5.08L106.68 2.54h-5.08zm10.16 0L2.54 111.76v5.08l114.3-114.3h-5.08zm10.16 0L2.54 121.92v2.54h2.54L124.46 5.08V2.54h-2.54zm2.54 7.62l-114.3 114.3h5.08L124.46 15.24v-5.08zm0 10.16L20.32 124.46h5.08l99.06-99.06v-5.08zm0 10.16l-93.98 93.98h5.08l88.9-88.9v-5.08zm0 10.16l-83.82 83.82h5.08l78.74-78.74v-5.08zm0 10.16L50.8 124.46h5.08l68.58-68.58V50.8zm0 10.16l-63.5 63.5h5.08l58.42-58.42v-5.08zm0 10.16l-53.34 53.34h5.08l48.26-48.26v-5.08zm0 10.16l-43.18 43.18h5.08l38.1-38.1v-5.08zm0 10.16l-33.02 33.02h5.08l27.94-27.94v-5.08zm0 10.16l-22.86 22.86h5.08l17.78-17.78v-5.08zm0 10.16l-12.7 12.7h5.08l7.62-7.62v-5.08zm0 10.16l-2.54 2.54h2.54v-2.54z" style="font-variant-east_asian:normal" fill-opacity=".502"/></svg>