<svg xmlns="http://www.w3.org/2000/svg" width="2in" height="96" viewBox="0 0 50.8 25.4"><path d="M19.29 0c-1.221 0-1.224.001-1.835 1.06l-.993 1.72c.148.06.306.124.417.166.493.178.518.16 1.8-1.625.462-.641.714-1.002.937-1.321zm1.753 0c-.72.977-1.803 2.48-2.135 2.976-.142.207-.253.439-.253.516 0 .178.166.272 1.221.711.456.19.938.433 1.073.546.13.107 1.086 1.097 2.11 2.194 1.943 2.07 3.04 3.15 3.194 3.15.05 0 .142-.054.204-.119.117-.124 2.171-6.566 2.227-6.998.03-.232-.044-.54-.494-1.987A45.688 45.688 0 0 0 27.871 0zm8.054 0c.06.215.113.413.203.704.438 1.412.55 1.62.845 1.62.147 0 1.962-.35 3.543-.668l-.345-.597C32.733.001 32.73 0 31.508 0Zm5.177 2.671c-.239.047-.412.084-.662.132-1.863.362-3.479.695-3.59.736a.767.767 0 0 0-.29.22c-.13.195-.9 2.68-.9 2.918 0 .237-.05.178 1.468 1.886.74.842 1.246 1.364 1.338 1.387a.666.666 0 0 0 .351-.059c.226-.108 2.554-1.611 4.709-3.022L34.274 2.67zm-18.413 1.15-.212.368c.084.607.877 4.295.977 4.492.11.237.228.297 1.591.79 1.228.444 1.455.497 1.665.385.142-.071 1.808-2.04 1.882-2.219a.557.557 0 0 0 .018-.284c-.05-.19-1.344-1.596-1.64-1.785-.327-.208-3.948-1.709-4.2-1.744-.03-.005-.054-.003-.08-.004zm-1.097 1.9-2.482 4.3c1.032-.359 2.745-.99 2.895-1.079.117-.077.147-.148.147-.362 0-.18-.276-1.545-.56-2.859zm22.498 2.126c-.534.344-1.09.704-1.83 1.184-2.53 1.631-4.713 3.06-4.855 3.173-.351.28-.388.41-.166.617.209.197 4.279 2.636 7.105 4.292l1.937-3.354c.61-1.057.61-1.06 0-2.118l-2.191-3.794Zm-21.26 2.09c-.132.01-.312.052-.493.114-2.017.688-3.996 1.447-4.144 1.59l-.037.033c-.59 1.021-.586 1.04.018 2.085l3.36 5.819c3.116-1.713 7.557-4.183 8.02-4.48 1.578-1.014 2.189-1.465 2.208-1.63a.274.274 0 0 0-.093-.243c-.216-.19-2.14-.95-5.304-2.094-1.776-.641-3.312-1.175-3.423-1.193A.541.541 0 0 0 16 9.937zm15.031 4.751a.424.424 0 0 0-.117.013c-.166.041-2.83 2.806-2.93 3.037-.11.249-.363 2.983-.302 3.286.031.154.556.877 1.863 2.574.651.844 1.07 1.381 1.402 1.802h.56c1.221 0 1.224-.001 1.834-1.06l3.604-6.242c-.895-.536-1.631-.978-2.602-1.558-1.665-.997-3.095-1.827-3.176-1.84a.66.66 0 0 0-.136-.012zm-9.257 2.403c-.074 0-.24.054-.377.113-.586.255-3.435 1.868-3.521 1.993-.062.095-.074.172-.03.273.049.125 2.94 3.805 4.637 5.93h7.016c-.308-.404-.62-.814-1.002-1.31-1.049-1.352-1.925-2.52-1.956-2.598-.08-.195-.067-.635.037-1.785.087-.902.086-1.026.006-1.18-.05-.095-.141-.196-.203-.22-.284-.1-4.496-1.216-4.607-1.216zm-5.298 2.847c-.006 0-.123.054-.26.113a17.92 17.92 0 0 0-.955.493l2.192 3.797c.611 1.058.614 1.059 1.835 1.059h1.742c-3.662-4.64-4.362-5.484-4.554-5.462z" style="vector-effect:none;fill:#e6e6e6;fill-opacity:.871111;stroke:none;stroke-width:.251935;stroke-linecap:round;stroke-linejoin:round;stroke-miterlimit:4;stroke-dasharray:none;stroke-dashoffset:0;stroke-opacity:1"/></svg>