<svg xmlns="http://www.w3.org/2000/svg" width="2in" height="96" viewBox="0 0 50.8 25.4"><path d="M19.29 0c-1.22 0-1.223 0-1.834 1.06l-5.254 9.1h3.038V8.75c0-.626.504-1.13 1.129-1.13h18.062c.625 0 1.13.504 1.13 1.13v1.411h3.037l-5.254-9.1C32.733 0 32.73 0 31.509 0Zm-7.088 15.24 5.254 9.101c.611 1.058.613 1.059 1.835 1.059H31.51c1.221 0 1.223 0 1.834-1.059l5.254-9.1H35.56v1.41c0 .626-.504 1.129-1.129 1.129H16.369c-.625 0-1.13-.503-1.13-1.129v-1.41z" style="vector-effect:none;fill:#e6e6e6;fill-opacity:.871111;stroke:none;stroke-width:.251935;stroke-linecap:round;stroke-linejoin:round;stroke-miterlimit:4;stroke-dasharray:none;stroke-dashoffset:0;stroke-opacity:1"/></svg>