<svg xmlns="http://www.w3.org/2000/svg" width="2in" height="96" viewBox="0 0 50.8 25.4"><path d="M18.144.133c-.23.132-.383.397-.688.926l-6.11 10.582c-.61 1.058-.61 1.06 0 2.119l1.785 3.09 2.2-1.27 2.54 4.4-2.2 1.27 1.785 3.09c.61 1.059.613 1.06 1.835 1.06h12.218c1.222 0 1.224-.001 1.835-1.06l6.11-10.58c.61-1.059.61-1.061 0-2.12l-1.786-3.09-2.2 1.27-2.54-4.4 2.2-1.27-1.784-3.09C32.733 0 32.73 0 31.509 0H19.29c-.61 0-.916 0-1.146.133z" style="vector-effect:none;fill:#e6e6e6;fill-opacity:.871111;stroke:none;stroke-width:.251935;stroke-linecap:round;stroke-linejoin:round;stroke-miterlimit:4;stroke-dasharray:none;stroke-dashoffset:0;stroke-opacity:1"/></svg>