<svg xmlns="http://www.w3.org/2000/svg" width="2in" height="96" viewBox="0 0 50.8 25.4"><path d="M19.29 0c-1.22 0-1.223.001-1.834 1.06l-6.11 10.58c-.61 1.058-.61 1.061 0 2.12l6.11 10.58c.611 1.059.613 1.06 1.835 1.06H31.51c1.222 0 1.224-.001 1.835-1.06l6.11-10.581c.61-1.058.61-1.06 0-2.118l-6.11-10.582C32.734 0 32.73 0 31.509 0Zm4.55 5.89c.322.004.722.04.986.096.263.053.355.097.474.216.123.123.145.171.118.272-.127.523-1.37.87-2.543.716-.628-.084-.905-.242-.905-.514 0-.356.725-.712 1.582-.778.082-.006.18-.008.288-.007zm5.432.786c.175 0 .398 0 .626.004.633.013.94.04 1.26.11 1.691.36 2.456 1.146 1.63 1.669-.268.171-.874.365-1.44.461-.73.123-.857.193-.796.444.044.171.242.233 1.046.32 1.906.216 3.21.708 3.94 1.472.294.316.413.584.413.927 0 .966-1.266 1.69-3.523 2.02-.598.087-.68.114-.777.263-.075.11-.07.132.017.413.053.162.097.343.097.4 0 .171-.172.474-.352.615-.615.487-2.042.83-3.996.962-3.966.268-7.568-.198-8.551-1.107-.36-.334-.413-.598-.19-1.01.238-.449.172-.545-.439-.646-.904-.15-1.83-.43-2.415-.73-.452-.232-.676-.407-.839-.671-.527-.826.54-1.69 2.622-2.13.479-.101 1.05-.176 2.1-.286.474-.048.53-.096.487-.408-.031-.272.048-.457.294-.672.742-.654 2.666-1.142 4.893-1.243l.755-.035.268-.25c.457-.422 1.155-.699 2.047-.817l.483-.066c.037-.005.165-.009.34-.01zm4.564 8.918c.36-.004.866.03 1.14.085.316.07.6.198.698.312.105.128.07.33-.075.461-.246.22-.589.317-1.19.343-1.09.04-1.854-.202-1.854-.589 0-.259.39-.496.984-.592.073-.011.177-.018.297-.02zm-14.926 1.76c.878 0 1.777.144 2.23.376.176.088.37.295.413.44.137.425-.474.944-1.396 1.18-1.186.3-3.1.159-3.746-.28-.308-.207-.404-.492-.264-.769.233-.443 1.155-.839 2.165-.922.195-.017.396-.025.598-.025z" style="vector-effect:none;fill:#e6e6e6;fill-opacity:.871111;stroke:none;stroke-width:.251935;stroke-linecap:round;stroke-linejoin:round;stroke-miterlimit:4;stroke-dasharray:none;stroke-dashoffset:0;stroke-opacity:1"/></svg>