<svg xmlns="http://www.w3.org/2000/svg" width="672" height="672" style="enable-background:new" viewBox="0 0 177.8 177.8"><g style="opacity:1"><path d="M525.188 9.332c-4.624.176-9.518.797-13.184.266h-42.887c-1.148 11.047-4.18 12.028-12.113 20.984 6.993 9.507-11.68 8.647-8.977 19.277 6.236 7.666 10.12 16.525 15.553 24.05 4.47 7.936 6.993 21.568 17.566 19.157-2.57 4.038-7.75 5.612-11.294 15.395-9.008 4.02-3.571 16.83-14.295 20.63 2.927 10.902-14.103 11.164-3.024 20.339-1.093 8.785 9.697 14.462 11.055 23.382 6.673 8.752 7.989 19.419 19.482 19.85-11.333.911-11.36 8.526-19.478 18.508 1.287 8.02-11.062 14.62-12.43 25.266 3.699 10.377-11.58 1.577-24.932 3.554-10.214 1.782-21.253-1.487-30.341 1.44-10.522 12.704-2.82-12.49-15.35-16.118-3.682-10.562-7.263-27.102-22.072-23.714-18.68 1.003-38.44-1.988-56.442 1.449-3.221 11.07-10.262 16.457-13.38 25.789-3.426 9.267-8.473 9.002-3.963 17.945-7.667-12.052-21.848-3.881-34.516-6.752-9.383 1.846-24.523-3.09-27.234 7.953-15.047 8.758 11.962-15.376-6.008-15.257 2.659-12.5-12.412-15.098-10.856-25.961-4.606-10.708-20.019-2.701-29.384-5.166-13.526.782-27.7-1.608-40.795 1.271-3.329 12.342-9.048 15.193-13.373 25.71-9.716 10.75 1.984 19.122-15.135 11.464-13.313.42-26.447.393-39.824 0-9.264 1.321-13.786 9.597-18.967 18.055-.61 8.307-10.445 17.93-15.528 26.892-1.07 8.094 7.375 18.347 13.016 25.278-1.597 8.45 9.574 11.463 9.883 18.894 4.034 6.79 13.94 6 2.826 9.8-7.656 6.277-7.587 18.597-15.375 24.104-1.353 12.205-17.904 17.785-6.47 27.844 1.43 10.728 11.916 14.07 12.38 24.317 7.348 6.659 6.23 18.767 18.727 16.804 10.236-5.873 19.73 4.12 27.914-3.164 7.48 5.674 21.851-2.42 22.558 8.863 4.517 10.763 12.395 22.04 18.403 32.666 21.377-.223 43.304.445 64.342-.33 7.462-7.899 13.17-18.621 16.011-27.65 5.479-7.565 6.408-18.26 16.229-10.39 12.015-2.263 22.153.914 34.353-1.43 10.821-.023 19.582 3.747 20.743 15.076 10.468 5.824 6.1 20.327 19.035 24.724h59.54c7.88-7.716 14.728-19.624 17.782-30.224 2.578-19.12 19.228-2.302 28.797-11.916 5.808 10.245 17.412-4.339 25.289 3.77 10.443-3.902 13.022 5.122 15.047 12.308 7.117 5.336 6.95 13.927 12.312 20.148 5.999 6.936 5.266 13.512 15.213 15.305-9.15 2.738-10.553 10.165-17.54 18.631 4.169 7.628-12.376 12.21-10.378 24.105-13.042 3.82 1.364 11.394 2.95 22.225 5.215 7.263 9.48 16.73 14.585 23.871 2.296 8.04 14.64 6.378 3.94 11.705-11.635 8.294-7.663 19.945-18.338 26.623 3.023 12.015-17.133 12.89-3.764 23.594.382 9.74 9.978 18.777 14.05 28.334 8.19 7.449 22.753 1.726 33.694 3.521h32.9c9.029-9.118 10.72-19.648 18.948-29.43-1.149-13.154 10.454-9.61 19.848-8.948 13.686-.393 27.249-.222 40.892-.229 5.88-13.374 11.234-19.79 14.965-31.668 9.625-3.356 14.063-22.194 2.639-29.37-3.08-9.8-8.558-18.012-15.549-27.97-5.992-11.017 5.147-18.188 9.648-27.246 4.83-8.003 8.958-18.091 15.014-25.99-4.424-10.524-11.89-21.608-16.836-32.127-8.35-9.528-14.261-16.91-3.68-28.34 6.824-11.651 13.428-23.506 20.254-35.08-4.526-6.81-5.7-19.774-15.02-23.789 1.075-12.158-13.692-16.698-10.665-27.703-5.416-10.41 14.884-11.19 8.695-21.78 8.548-6.026 9.718-14.62 16.111-21.167 1.48-10.154-8.501-20.17-14.67-29.497-2.57-12.484-16.296-17.68-8.38-30.671 8.34-5.435 7.098-14.876 13.185-21.297 4.285-7.793 15.026-16.01 7.707-25.184-6.815-4.714-10.273-17.393-14.402-24.943-8.908-10.052-13.549-18.366-1.672-28.801 3.809-11.778 12.703-17.785 14.273-29.656 12.301-5.594-4.973-15.025-5.167-24.645-4.65-11.377-16.66-19.827-16.59-28.746-12.492 2.055-15.438 3.528-27.82-.008-4.615 10.48-16.459-7.45-22.51 3.262-8.31-1.45-16.313 13.785-7.106-2.02-2.217-10.004-8.835-20.677-16.723-29.78.743-9.587-6.211-10.534-13.918-10.241zm21.554 57.107c8.816 8.423-14.2 11.487 0 0zm-9.332 16.788c8.678 10.036-13.566 11.402 0 0zm-18.945 10.582c.268.002.548.008.838.017 8.101 12.16-17.73-.186-.838-.017zm-23.309.238c24.003.92-11.211 10.956 0 0zm36.985 1.057c14.766 13.504-9.748 9.911 0 0zm8.297 17.318c17.316 15.668-10.718 8.058 0 0zm9.351 16.726c13.611 11.105-7.662 10.404 0 0zm6.998 11.2c18.563.984-7.302 10.621 0 .011v-.011zm19.12 1.994c18.398-.156-7.192 10.867 0 0zm24.058.267c8.101 11.505-20.464.41 0 0zm-44.108 3.3c8.911 8.203-14.662 11.248 0 0zm-9.95 16.333c8.55 8.686-14.442 11.07 0 0zm-9.026 16.904c10.406 7.856-15.876 15.367 0 0zm-18.645 10.436c.271-.003.553-.003.846 0 8.472 12.01-17.923.178-.846 0zm13.92.625c13.801 13.173-10.893 9.373 0 0zm-37.146.084c21.842.256-9.579 11.4 0 0zm44.726 17.512c17.13 15.746-10.84 7.926 0 0zm9.965 16.343c15.025 9.818-7.429 9.478 0 0zm31.069 12.961c.804-.013 1.758.026 2.88.13 6.614 12.145-14.953.069-2.88-.13zm17.35.28c18.873.626-8.79 9.832 0 0zm-33.647.69c6.327 7.617-24.264 13.486-4.998.41l4.828-.407h.17v-.004zM456.54 252.974c16.776 15.713-10.705 8.037 0 0zm-73.582.523c8.805 8.343-14.738 11.212 0 0zm-258.248.045c14.035 11.818-7.922 9.556 0 0zm167.746.398c14.41 10.735-7.83 9.195 0 0zm254.586 1.43c8.87 9.716-14.316 11.08 0 0zm-334.842 4.406c9.312 9.901-14.969 10.89 0 0zm253.576 9.93c17.34 14.104-9.894 8.963 0 0zm-92.945.113c10.582 9.23-16.381 10.293 0 0zm-238.576.371c13.992 10.174-7.8 10.661 0 0zm167.521.543c14.341 12.97-10.413 9.264 0 0zm235.389 1.15c7.85 9.459-12.148 9.118 0 0zm-334.48 4.589c9.79 8.657-15.528 12.937 0 0zm126.939 7.984c.67-.003 1.43.023 2.29.082 7.766 11.678-15.14.35-2.93-.07.203-.007.417-.011.64-.012zm146.508.254c16.066 5.356-13.985 13.733 0 .002v-.002zm-129.957.082c18.837.088-6.964 11.242 0 0zm-205.201.3c17.554.727-12.931 19.004 0 0zm171.746.366c3.67 6.93-17.12 16.847-4.998.43l4.828-.422h.17v-.008zm-152.62.385c21.384-.067-7.816 11.406 0 0zm20.096.174c19.147.1-7.991 11.391-.947.003.328-.004.643-.005.947-.003zm338.936.043c8.652 11.411-18.468.454 0 0zm-23.196.787c17.118.142-7.667 11.124-.847.002.293-.004.576-.005.848-.002zm-297.816.7c17.017 13.752-10.332 8.02 0 0zm166.3.423c13.988 11.203-8.509 9.771 0 0zm166.958.945c14.552 10.572-7.77 9.23 0 0zm-64.768 13.275c8.255 9.382-14.096 11.38 0 0zm-333.949 1.041c8.697 8.962-14.899 13.106 0 0zm76.236.204c12.413 9.24-7.681 10.662 0 0zm165.077 1.056c13.78 9.987-7.513 11.056 0 0zm-75.125.772c8.721 8.531-14.271 11.389 0 0zm242.414.037c16.952 14.113-9.792 9.105 0 0zm-84.79 13.265c8.615 8.508-15.146 10.569 0 0zm-333.888 1.092c8.804 8.313-14.86 10.978 0 0zm95.758.414c14.079 10.894-7.455 11.091 0 0zm165.265 1.063c14.004 10.246-7.75 10.707 0 0zm-94.79.523c8.707 8.407-15.024 10.77 0 0zm262.47.13c14.538 12.649-8.451 8.899 0 0zm-159.943 10.228c18.6 1.26-7.533 10.483 0 0zm190.754 1.398c.498-.004 1.039.001 1.623.02 7.194 10.767-17.084.12-1.623-.02zm16.728.215c16.999.08-7.918 10.766-.842.006v-.002c.292-.004.572-.005.842-.004zm-34.238.41c5.505 11.08-16.043-.011 0 0zm-153.326.14c17.04.05-7.808 10.994-.844.007.292-.005.573-.007.844-.006zm18.226.45c20.784.06-7.252 11.454 0 0zm-330.3.07c.765.006 1.676.068 2.748.197 6.708 12.276-14.234-.285-2.749-.197zm168.974.012c8.2 12.195-18.808.101 0 0zm-40.1.041c9.657.232-12.354 17.19-6.835 4.896 1.937-1.196.646-4.768 3.714-4.578 1.041-.195 1.914-.295 2.637-.316.17-.005.331-.006.484-.002zm-150.222.07c18.607.116-7.51 10.736 0 0zm37.513.25c14.366 13.673-9.52 10.057 0 0zm165.483.04c13.891 10.414-7.86 10.634 0 0zm167.941.359c13.882 13.27-10.82 9.377 0 0zm-204.681.037c17.902.266-6.998 10.583 0 0zm144.515 2.287c9.149 8.139-14.726 13.631 0 0zm165.842.564c9.131 9.37-14.099 11.978 0 0zM290.303 351.83c14.455 10.769-7.861 10.803 0 0zm-167.127.873c17.288 16.026-10.896 7.861 0 0zm91.094.158c8.404 8.292-14.461 11.254 0 0zm242.199.182c16.87 15.494-10.69 8.074 0 0zm-77.356 1.432c8.797 9.113-14.756 11.819 0 0zm166.285.79c8.666 8.588-14.32 11.256 0 0zm-245.23 13.153c14.08 11.142-8.545 9.85 0 0zm-167.273.861c14.375 12.16-8.398 8.989 0 0zm71.267.035c9.016 8.06-14.587 11.327 0 0zm262.147.2c14.775 10.274-7.588 9.352 0 0zm-96.836 1.55c8.634 9.65-14.757 11.451 0 0zm165.884.612c8.859 8.253-14.778 11.081 0 0zm-62.382 8.756c16.937.311-10.604 22.874-.393 4.77l-2.008-2.565 2.4-2.205zm-306.63.244c7.796 10.216-17.559.874-1.177.002l1.178-.002zm-19.214.068c7.084 10.792-17.182.444-1.17.012l1.17-.012zm33.504.29c21.47 1.581-8.571 11.184 0 0zm349.806.763c13.65 10.643-7.378 8.754 0 0zm-201.127.08c.663.004 1.413.039 2.258.11 6.74 12.223-15.004.209-2.892-.104.202-.005.413-.007.634-.006zm17.342.207c16.971-.016-7.785 10.826-.84.01.291-.006.57-.01.84-.01zm168.57.81c.268.003.547.007.837.016 8.091 12.15-17.709-.16-.836-.015zm-23.228.004c18.505.082-7.341 10.776 0 0zm-179.738.067c.072.003.246.103.234.023 4.515 8.177-17.35 13.997-5.088.42l4.826-.404c-.009-.031.004-.04.028-.04zm51.869 2.195c15.67 9.388-7.413 9.406 0 0zm-223.338.158c9.675 8.841-17.103 13.038 0 0zm57.193.291c13.911 10.356-7.852 10.635 0 0zm342.05 12.526c13.972 10.192-7.804 10.669 0 0zm-164.39 2.443c14.438 10.743-7.828 9.203 0 0zm88.393.373c9.875 7.975-15.676 14.661 0 0zm-334.514.065c9.017 8.071-14.454 11.442 0 0zm168.729.488c9.073 9.075-15.179 13.239 0 0zm-90.76.783c14.01 9.772-8.095 10.427 0 0zm342.069 12.57c15.983 14.973-10.156 8.688 0 0zm-164.438 2.362c16.783 14.69-10.08 8.76 0 0zm-265.557.207c8.98 8.132-14.637 11.32 0 0zm334.73.115c9.093 9.11-15.178 13.256 0 0zm-165.759.479c8.814 9.488-14.507 10.627 0 0zm-71.058.74c14.562 10.548-7.802 9.178 0 0zm342.34 9.412c18.419 2.127-8.102 10.05 0 0zm42.165 2.598c.269 0 .548.003.838.01 7.808 11.66-17.74-.044-.838-.01zm-23.265.09c18.373-.038-7.298 10.804 0 0zm-23.754 1.464c11.2 7.57-15.146 15.735 0 0zm-8.113 17.414c8.942 8.293-14.027 11.673 0 0zm-9.405 16.662c8.555 8.659-14.476 10.994 0 0zm-43.804 11.512c22.35.868-11.068 10.781 0 0zm19.795.205c17.373-.114-6.62 12.043-.86.016.297-.008.584-.014.86-.016zm17.648 2.346c17.767 14.631-10.813 7.474 0 0zm10.96 15.756c14.374 10.792-7.912 9.111 0 0zm9.194 16.85c14.368 13.046-10.398 9.25 0 0zm31.547 11.42c.265-.003.54-.002.826.001 7.676 11.065-17.505.137-.826-.002zm15.96.097c18.282.017-7.293 11.678-.905.008.312-.006.614-.008.904-.008zm-34.186 1.59c8.718 11.773-18.968 1.187 0 0zm-10.061 4.191c8.578 9.337-14.205 11.956 0 0zm-9.648 16.602c8.772 8.632-14.794 13.365 0 0zm-9.434 16.765c8.724 9.987-13.748 10.959 0 0zm-17.902 10.551c10.914 11-23.05.677 0 0zm-23.946.06c21.917 1.14-9.407 10.624 0 0zm37.47.925c15.898 14.457-10.146 9.29 0 0zm8.401 17.304c14.6 11.355-8.518 10.06 0 0zm9.647 16.598c14.667 10.35-7.693 9.273 0 0z" style="fill:#e6e6e6;fill-opacity:.871111;fill-rule:evenodd;stroke-width:.952195;stroke-linecap:round;stroke-linejoin:round;-inkscape-stroke:none;stop-color:#000" transform="scale(.26458)"/></g></svg>