<svg xmlns="http://www.w3.org/2000/svg" width="672" height="960" style="enable-background:new" viewBox="0 0 177.8 254"><g style="opacity:1"><path d="M482.846 46.768c-12.792-.747-9.29 14.601-19.268 20.89-1.567 9.41-9.76 21.136-19.058 27.48-11.87 1.407-24.122 1.741-35.557.003-14.088-.757-20.927 3.037-24.246 16.275-7.779 6.647-8.228 17.461-16.104 24.719 1.102 15.154 2.093 17.462-9.867 6.984-16.23.956-32.86-.34-49.6-.002-.462 12.017-15.325 16.777-11.505 27.336-10.28 5.886-8.883 12.987-13.856 22.03 5.666 18.062-3.209-10.43-16.547 1.482-11.314-3.746-20.666-1.523-34.033-1.305-13.517-5.603-8.384 14.477-18.842 18.6 1.043 9.089-11.774 12.952-10.525 22.025-3.953 7.823-13.026 8.413-20.67 7.912-9.03-2.744-18.844.217-29.363-1.3-11.386 18.58-21.992 37.917-33.075 56.79 9.021 6.505 8.448 11.914 12.774 22.116 4.604 5.702 16.714 19.808 14.144 18.07-10.87.05-12.745 17.093-19.002 24.313-2.159 7.86-10.498 12.836-10.966 21.568 11.584 16.078-6.8-4.599-12.534 2.803-13.16-2.935-23.414-1.22-35.289-.756l-32.242 55.847c9.64 8.502 8.088 19.48 18.436 25.924 3.898 8.94 2.705 18.378-4.11 27.428-7.108 11.08-16.194 23.645-18.32 35.734 5.873 10.695 15.658 17.982 16.088 27.871 7.83 6.417 6.664 16.454 14.586 17.653.92-.218 1.923-.343 3.033-.352.666-.005 1.37.031 2.12.115-2.086.418-3.745.45-5.153.237-9.344 2.208-9.55 14.81-18.377 23.896-.944 8.451-10.357 13.758-11.65 22.596.006 7.626 8.586 17.998 13.384 26.375 2.572 11.01 18.18 18.119 8.131 29.947.142 8.213-10.701 12.935-10.695 21.76-5.07 6.082-15.058 18.402-8.658 24.402 3.865 11.022 12.258 18.193 15.326 28.918 9.182 7.486 6.667 16.07 4.181 24.58-9.02 8.985-11.811 20.272-19.865 30.465-7.56 9.716 4.558 16.528 7.395 26.594 6.503 6.552 6.777 22.721 19.396 18.748h57.905c-1.992-14.217 14.069-13.316 10.554-26.12 8.28-5.09 13.39-20.079 26.262-12.302 9.414-6.115 18.73 3.9 27.139-2.6 8.373 8.003 17.684-11.132 14.527 2.706 8.693 1.946 3.208 17.18 13.346 19.556 2.942 8.19 4.69 20.528 16.656 18.76h57.744c-2.23-12.415 13.583-13.278 10.47-24.844 16.417-8 8.202-20.557.61-32.789-5.853-10.587-14.639-21.767-18.724-31.02 9.955-7.216 13.01-19.884 20.65-29.892 11.24-13.119 6.404-20.242-.354-32.367-6.982-9.168-11.962-19.39-17.226-29.397-10-.998 9.34-15.79 11.465-23.654 1.597-10.231 13.87-18.936 12.52-26.543-1.849-9.655-9.002-19.641-15.745-29.697.904-11.376-23.843-21.44-6.281-23.324 4.228-11.594 12.885-19.653 16.635-31.5 12.338-8.144 5.65-18.117-2.567-23.157-.649-11.053-8.622-20.207-15.76-29.89-11.04-11.78 9.444-13.54 7.135-24.766 9.82-9.964 12.833-23.855 21.604-33.181 10.435 6.102 22.804 2.036 35.47 3.58 12.956 1.563 18.24-4.289 25.266-13.123-4.798-10.982 14.745-12.087 9.668-24.05 7.617-2.308 11.375-20.61 21.447-10.827 11-5.9 19.44 3.193 29.256-2.69 10.865 6.7 16.096-3.088 22.256-9.537-1.252-10.065 12.097-13.552 10.69-26.123 9.424-5.319 10.264-16.405 25.583-9.605 9.32-3.348 20.879 1.2 30.133-1.448 9.062 6.969 14.445-8.703 19.336-15.287 6.261-9.04 8.076-22.159 16.287-28.222.933-14.463 11.053 1.466 22.104-4.39 10.895 2.942 23.329-.744 30.892.153 11.788-4.912 8.947-17.67 17.801-22.39 2.73-12.21 11.537-16.89.174-29.37l-23.672-41c-13.99-3.666-19.813 2.353-33.334-2.048-8.03 7.444-24.156-9.466-21.87-16.723-9.835-10.49-11.262-21.748-20.321-33.424 9.857-7.133 11.785-18.688 19.861-28.361 8.122-11.984-5.666-22.492-10.502-34.049-8.095-9.202-9.993-28.324-23.088-29.373-9.163-3.447-17.44 1.658-29.234-2.072a20.397 20.397 0 0 0-2.785-.371zM450.697 95.37c14.57 12.977-10.205 7.495 0 0zm10.35 16.236c14.473 14.401-10.5 5.141 0 0zm8.555 16.694c14.217 9.331-7.28 11.378 0 0zm7.474 10.394c34-.25-17.788 10.526 0 0zm41.194 1.448c.268.001.547.006.837.013 7.71 10.92-17.754-.114-.837-.013zm-22.903.38c19.02 1.376-9.362 8.838 0 0zm-26.805 10.868c9.852 7.886-14.104 13.632 0 0zm-93.689 9.427c16.033 11.105-9.04 10.518 0 0zm84.531 7.166c7.202 11.697-13.607 9.692 0 0zm-73.746 9.256c14.302 11.665-9.019 7.87 0 0zm64.711 7.631c8.9 9.285-8.909 13.946-2.299 1.166h.002l1.707-1.15.59-.016zm-57.336 1.363c19.624 3.912-15.314 9.804 0 0zm17.65 1.446c22.258 1.834-11.272 10.269 0 0zm22.184.033c.48.005 1 .022 1.565.055 7.175 11.809-14.958.573-2.889-.032.402-.02.844-.028 1.324-.023zm121.467 11.22c10.255 10.121-15.729 13.058 0 0zm-169.016.954c8.17 8.841-15.491 13.263 0 0zm72.327 3.998c14.734 10.228-7.06 10.618 0 0zm-165.934 5.613c16.002 11.139-9.061 10.5 0 0zm253.539 6.293c8.623 10.572-15.256 9.447 0 0zm-169.484.807c7.178 11.4-13.926 10.321 0 0zm91.412 3.957c14.717 9.312-7.135 11.192 0 0zm-165.028 5.287c15.952 12.114-8.985 8.13 0 0zm232.297 6.101c9.64 7.42-14.998 13.47 0 0zm-167.752 1.602c.07-.001.14 0 .213.004 7.507 10.273-.2 19.664-3.656 3.945.823-1.45 1.3-3.919 3.443-3.95zm112.145 2.12c20.807 1.122-8.329 10.072 0 0zm-166.742.034c18.962 2.14-9.76 8.487 0 0zm185.935 0c22.766.804-10.604 10.78 0 0zm19.242.16c25.463.345-12.65 10.666 0 0zm-163.045.766c.26-.002.528 0 .807.004 6.285 11.511-17.125.109-.807-.004zm-23.11.041c18.99 1.017-9.185 9.004 0 0zm202.593 4.676c15.574 10.293-7.89 10.422 0 0zm-333.508 2.068c14.511 9.213-6.356 11.763 0 0zm270.623 2.447c10.727 9.208-16.816 13.435 0 0zm-167.988.303c10.505 8.23-14.952 12.858 0 0zm73.715 10.162c15.802 10.795-7.738 11.835 0 0zm168.207 1.131c13.553 12.391-10.027 6.358 0 0zm-334.826 2.518c16.627 12.05-9.073 10.54 0 0zm83.322 2.515c8.12 7.906-13.935 12.043-.678.024l.678-.024zm167.713.098c10.849 7.717-14.803 13.481 0 0zm-75.547 10.783c15.294 11.64-9.525 10.398 0 0zm167.65.904c15.86 10.912-9.03 10.805 0 0zm-333.724 2.456c15.791 11.4-9.163 10.444 0 0zm230.806 1.507c10.087 8.742-16.762 11.562 0 0zm-165.789 1.41c.085-.003.171 0 .26.006 3.84 11.08 1.42 23.922-4.291 5.946.82-1.088 1.416-5.854 4.031-5.951zm111.643 3.577c19.612.141-13.39 10.953-2.067.021a64.232 64.232 0 0 1 2.067-.021zm38.87.111c.624-.006 1.328.015 2.118.066 5.525 11.047-14.123.418-2.713-.05.19-.008.388-.014.596-.016zm-21.784.281c19.33.544-8.863 9.458 0 0zm-183.076 1.635c.627 0 1.2.011 1.722.033 15.666.665-14.405 10.717-3.77.002.739-.024 1.42-.035 2.048-.035zm21.126.035c.265-.002.541 0 .827.004 6.334 11.617-17.509.104-.827-.004zm15.237.03c22.703.836-10.672 10.767 0 0zm183.726.94c13.997 12.047-10.07 8.048 0 0zm-63.504 8.075c10.814 10.308-16.592 12.595 0 0zm-167.552 1.881c10.527 8.218-14.873 12.78 0 0zm240.174 6.412c16.183 10.662-8.806 10.747 0 0zM294.8 304.648c13.587 12.438-10.046 6.345 0 0zm81.967 6.489c11.291 3.86-16.612 18.776 0 0zm-167.204 1.42c6.19 11.412-12.133 6.796 0 0zm259.163 6.795c14.78 11.038-7.835 10.311 0 0zm-165.608 2.103c15.816 10.923-9.052 10.795 0 0zm63.22 5.584c10.166 10.448-15.302 10.45 0 0zm-166.222 2.258c.488 3.889 4.86 23.429-3.338 11.418-1.764-3.85-1.7-9.709 3.338-11.418zm132.729 3.133c.608.001 1.293.031 2.062.093 4.847 11.358-13.814.252-2.646-.086.186-.005.38-.008.584-.007zm16.455.074c21.97.385-9.743 11.194 0 0zm-35.799.078c.64-.007 1.364.011 2.18.06 6.271 10.874-14.507.439-2.793-.044.195-.008.4-.014.613-.016zm-151.229.023c19.057.936-9.115 9.067 0 0zm19.248.356c22.65 1.756-11.174 10.32 0 0zm184.643 4.662c14.941 14.714-10.798 6.313 0 0zm-64.06 5.81c10.8 9.794-14.427 11.389 0 0zm-94.397 10.249c16.149 10.809-8.807 10.76 0 0zm168.77.191c13.582 12.401-10.038 6.371 0 0zm-83.688 6.045c9.333 11.849-15.111 10.488 0 0zm-74.361 9.926c15.06 9.688-7.216 9.629 0 0zm167.972.392c15.173 13.638-10.29 5.584 0 0zm-101.994 7c9.72 17.833-9.087 17.915-.57.02l.57-.02zm-34.316 1.778c16.907 7.046-16.465 5.083 0 0zm17.05.472c22.473 2.252-11.406 10.087 0 0zm-34.69.098c.27-.003.552-.003.845 0 7.908 10.808-17.917.158-.846 0zm-12.01 12.018c9.893 8.782-13.933 11.895 0 0zm-92.971 7.593c15.154 9.249-7.31 11.05 0 0zm166.097 2.282c17.059 11.979-9.286 10.61 0 0zm-82.93 6.634c10.849 7.743-14.78 13.434 0 0zm-74.103 8.028c14.802 10.927-8.238 12.033 0 0zm168.012 1.65c14.377 11.6-8.964 7.936 0 0zm-104.67 5.986c10.006 8.677-16.42 12.063 0 0zm-31.986 4.157c.686 0 1.463.027 2.338.086 6.712 10.747-15.553.251-2.995-.079.21-.005.428-.008.657-.007zm16.802.29c22.631 1.532-11.077 10.433 0 0zm-35.81.09c.61 0 1.296.025 2.066.083 4.878 11.221-13.832.316-2.65-.073.186-.006.38-.009.584-.01zm51.834 6.463c17.912 13.53-10.076 7.941 0 0zm-62.668 3.766c10.834 10.157-16.683 12.784 0 0zm73.316 12.037c16.6 11.963-8.97 10.65 0 0zm-83.222 4.676c10.863 7.643-14.861 13.53 0 0zm92.265 12.277c12.518 9.786 12.336 18.717-1.68 3.448l.034-2.24 1.646-1.208zm-103.203 3.217c9.476 10.946-16.205 9.556 0 0zm-33.336 3.492c.68-.001 1.452.028 2.324.09 7.749 11.915-15.383.326-2.974-.078.207-.007.423-.011.65-.012zm16.916.877c22.653 3.18-11.839 9.637 0 0zm-34.01.248c8.243 11.923-18.14.454 0 0zm178.645 1.162c19.019 1.604-9.466 8.718 0 0zm19.041.254c21.927.391-9.754 11.198 0 0zm-148.256 4.908c14.474 11.041-6.985 10.513 0 0zm102.592 4.456c8.013 9.843-15.304 12.278 0 0zm-93.51 12.486c16.04 10.99-9.03 10.515 0 0zm83.873 4.224c10.418 9.498-15.876 13.328 0 0zm-73.347 12.041c14.569 10.316-8.418 8.225 0 0zm65.277 5.36c9.088 14.015-10.814 15.897-.57.027l.57-.027zm-14.123 4.578c.275-.003.56-.003.855 0 5.916 12.684-18.16.197-.855 0zm-42.563.27c22.297 2.906-11.828 9.723 0 0zm18.97 1.294c18.987 1.198-9.21 8.95 0 0zm-28.626 9.348c9.974 8.945-15.488 11.894 0 0zm74.13 6.455c16.252 10.77-8.725 10.787 0 0zm-84.144 9.68c8.318 11.024-15.062 10.763 0 0zm93.711 6.973c14.22 9.91-6.71 11.34 0 0zm-102.98 9.85c7.075 12.006-12.962 8.264 0 0zm-32.256 3.212c.814.003 1.78.063 2.912.191 6.467 12.48-15.123-.243-2.912-.191zm144.781.115c30.999.829-17.095 9.885 0 0zm-127.402.229c22.651.71-10.941 10.823 0 0zm169.25.603c8.478 11.99-17.899.417 0 0zm-23.506 1.006c19.134 1.38-9.359 8.852 0 0zm-129.387 2.59c15.755 11.02-9.185 10.679 0 0zm102.356 8.025c10.743 7.833-14.702 13.58 0 0zm-93.336 8.928c16.033 11.078-9.023 10.544 0 0zm84.049 7.525c10.286 7.818-18.208 14.918 0 0zm-73.371 9.004c15.041 15.24-10.802 6.339 0 0zm62.795 7.457c5.128 8.08 2.739 22.096-4.422 5.39 1.487-1.78 1.944-4.6 4.422-5.39zm-12.25 2.696c.269-.003.548-.003.84 0 7.999 10.76-17.811.178-.84 0zm-42.018.21c22.459 1.72-11.207 10.322 0 0zm19.094.57c23.355 3.363-11.522 8.966 0 0zm-27.328 8.757c10.929 9.315-16.247 13.343 0 0zm71.72 11.34c14.929 10.398-6.683 11.246 0 0zm-80.611 5.494c8.988 12.318-15.425 8.188 0 0zm91.064 10.82c14.91 10.68-8.638 7.54 0 0zm-101.646 5.63c9.671 7.402-14.526 13.314 0 0zm-33.86 4.134c.814.005 1.777.068 2.909.2 6.487 12.482-15.11-.282-2.908-.2zm19.463.586c18.799.009-14.205 9.562-1.984.03.718-.021 1.378-.03 1.984-.03zm-35.857.187c8.426 11.057-20.253 1.178 0 0zm205.58.082c7.355 11.588-18.384-.126 0 0zm-22.045.114c.817.007 1.784.072 2.92.205 6.492 12.477-15.165-.312-2.92-.205zm-16.35.529c6.813 11.163-17.172-.215-.777.023l.778-.023zm-116.95 5.367c17.668 14.957-10.723 7.102 0 0zm104.011 4.492c10.632 11.091-16.294 11.442 0 0zm-93.947 11.63c16.12 10.844-8.83 10.718 0 0zm84.658 5.234c9.374 10.566-15.412 11.383 0 0zm-75.275 11.544c14.764 11.143-7.88 10.338 0 0zm64.744 4.743c9.18 8.93-13.755 10.887 0 0zm-33.46 2.744c.69 0 1.47.026 2.348.084 6.709 10.753-15.619.267-3.007-.076.21-.006.43-.008.66-.008zm-17.06.949c8.135 11.998-18.25.25 0 0zm34.06.197c22.576 4.115-12.261 9.133 0 0zm15.858 7.598c15.043 9.768-7.179 9.687 0 0zm-61.986 4.154c7.872 10.37-15.076 11.716 0 0zm72.125 11.932c16.136 10.618-8.764 10.818 0 0zm-82.397 4.703c10.603 7.492-14.87 13.815 0 0zm92.053 11.89c15.383 9.883-7.337 10.614 0 0zm-103.082 3.417c10.045 8.222-17.789 12.75 0 0zm153.332 4.086c.632 0 1.345.026 2.147.084 5.666 10.925-14.324.284-2.752-.075.193-.006.395-.01.605-.01zm-18.597.296c.49-.004 1.021.002 1.597.022 7.896 11.504-16.796.13-1.597-.022zm-167.112.6c.817.01 1.784.076 2.92.213 6.415 12.514-15.17-.358-2.92-.213zm17.326.33c21.628.755-9.933 10.756 0 0zm131.873.803c10.016 10.657-18.472 1.92 0 0zm-166.523.12a38.9 38.9 0 0 1 .832 0c7.856 11.903-17.631.194-.832 0zm50.525 3.808c15.391 11.83-9.552 10.29 0 0zm101.354 6.173c10.085 8.59-15.63 12.585 0 0zm-92.69 10.936c16.082 11.1-8.938 10.594 0 0zm82.649 5.346c9.46 9.332-15.779 13.05 0 0zm-73.514 11.515c14.016 9.074-6.62 11.248 0 0z" style="fill:#e6e6e6;fill-opacity:.871111;fill-rule:evenodd;stroke-width:.952195;stroke-linecap:round;stroke-linejoin:round;-inkscape-stroke:none;stop-color:#000" transform="scale(.26458)"/></g></svg>