<svg xmlns="http://www.w3.org/2000/svg" width="576" height="576" style="enable-background:new" viewBox="0 0 152.4 152.4"><g style="opacity:1"><path d="M270.773 47.535c-1.223-.062-2.687.065-4.513.469-3.209 6.767-12.065 6.63-14.91 15.478 6.507 8.476-12.25 9.815-8.563 17.938-.758 7.244-8.203 13.435-15.441 14.582-7.408 3.632-10.444 3.096-18.192 0-7.688.064-10.703 8.403-16.246 0-8.432-.175-11.936 1.602-16.295 7.99-11.254 2.732-7.068 13.75-12.629 19.996-9.43.441-2.675 16.594-13.812 18.737 9.147 11.984-1.19 6.574-4.914 1.275-9.215 1.108-13.38 4.717-22.059 0-6.809 3.689-11.795 2.829-19.21 0-5.685.265-9.461 2.18-11.094 8.238-12.296 2.312-4.19 18.438-15.229 20.075-3.425 9.045-3.94 13.063-11.367 19.687 8.696 15.058 17.389 30.119 26.084 45.178 10.277 2.992-6.723 11.232-9.18 21.545 1.607 7.986-11.672 11.914-9.793 20.54-8.8 7.109-3.922 11.72-.42 20.33 8.928 4.484 5.611 14.755 12.989 19.81 4.548 7.51 5.734 15.022 13.332 18.2-6.09 3.45-16.742 11.11-13.616 18.41-6.376 6.952-11.442 12.137-13.21 22.04-10.554 2.328-2.274 11.27.288 17.172 7.232 12.172 14.505 24.156 21.131 36.6 9.82.861 19.091-1.3 28.29.2 9.244-1.497 17.6.353 27.243.002 5.02 5.449 5.89 15.15 12.649 18.291 2.278 8.819 7.895 15.762 12.117 23.205.712 6.77 15.358 9.42 19.094 3.553 9.308 6.002 18.39-1.154 27.826 2.95 6.182-.344 14.98-1.44 15.467 6.954 6.775 10.688 12.35 21.636 19.072 32.276 1.805 8.296 11.015 8.705 18.217 8.767 8.747-1.728 18.251 1.231 27.451-1.212 10.033 4.277 18.728.209 18.434-10.57 9.493-4.88 8.112-16.655 16.144-23.177.813-5.042-.355-13.07 6.887-11.927.916-8.52 17.73 2.47 26.435-1.104 10.05-.066 19.627-.371 29.622.008 1.805-7.783 8.15-12.575 11.505-19.93 4.126-8.516 9.915-17.056 14.493-25.101-3.91-12.544 14.113 2.822 17.578-4.975 8.826.119 16.47 4.217 25.076-.851 2.995 3.891 18.92 5.225 14.41-3.073 5.109-6.196 12.416-9.78 10.799-18.861 10.634-4.145 7.893-17.124 16.887-23.031-7.72-7.082-6.81-9.083-10.82-19.098-5.258-.577-10.924-5.825-6.712-11.603-.857-9.916-17.035-6.363-8.504-14.72-3.537-8.753 7.196-14.946 10.373-23.423 2.82-8.236 16.738-23.492 11.338-26.488 5.311-7.699-6.919-10.743-7.38-21.276-9.246-3.312-4.596-16.148-12.971-18.972-7.896-6.194.867-14.223 1.64-21.412 10.514-1.318 3.577-16.335 12.952-17.522 4.204-7.031 6.847-15.044 8.129-21.209-8.635-6.4-7.098-18.907-17.434-24.635 5.14-10.309-12.812-10.8-9.01-19.802-9.297.116-16.421 2.103-25.451 0-8.489 3.857-17.549-2.993-26.057 1.533-6.901-2.589-12.253-9.055-12.578-17.903-8.356-7-7.2-12.564-13.094-22.68-7.72 7.81-7.808-12.338-2.318-4.013-4.266-10.146-14.974-3.257-18.515-.594-4.201-5.363-14.233-6.426-18.004-.056-6.182-4.58-13.866-6.381-20.248-.508-5.393-.903-11.432 15.166-7.694-.56 14.527-7.268-9.847-11.88-4.078-21.051-4.6-7.367-12.034-8.098-10.299-17.834-5.86-4.777-7.898-12.494-15.574-12.391-6.375 8.4-18.55-6.812-24.006 3.848-6.395-.223-7.208-4.044-12.512-4.315zm-37.8 50.924c15.01 9.893-7.357 9.56 0 0zm10.748 16.008c15.424 13.368-10.22 8.702 0 0zm87.46.646c9.079 5.07-11.846 14.43-2.081 1.293l2.082-1.293zm-78.048 16.012c16.876 14.876-10.143 8.691 0 0zm68.717.775c8.744 9.814-13.026 10.395 0 0zm-61.227 9.303c18.564 1.006-8.048 10.312 0 0zm42.281 1.283c.268.002.548.006.838.014 8.284 12.098-17.726-.105-.838-.014zm-22.474.227c16.95-.009-7.955 10.764-.842.008h.002c.29-.006.57-.008.84-.008zm36.15 1.064c14.71 13.372-9.745 9.932 0 0zm105.656 3.743c8.626 9.83-14.13 11.02 0 0zm-166.15.494c9.014 7.815-14.74 14.527 0 0zm-96.4 11.361c16.852 13.963-9.762 9.124 0 0zm165.191 1.72c17.181 15.528-10.653 8.132 0 0zm87.912 3.116c8.886 5.336-12.117 14.413-2.12 1.24l2.12-1.24zm-165.865.635c7.336 9.56-12.337 8.753 0 0zM168.75 176.3c14.52 12.877-9.408 10.444 0 0zm165.48 1.535c13.216 9.244-7.951 10.351 0 0zm69.752 3.418c9.577 8.137-14.31 14.356 0 0zm-166.625.236c8.786 8.985-14.374 12.397 0 0zm103.864 7.53c18.713.75-7.062 10.966 0 0zm-164.785.097c20.472.71-7.312 11.344 0 0zm43.253.75c8.565 9.9-18.79.61 0 0zm-22.548.145c15.418.149-8.521 10.685-1.618.02.582-.019 1.12-.025 1.618-.02zm164.05 1.004c17.06.04-7.306 11.434-.843.005.292-.005.573-.006.843-.005zm23.213.263c8.536 11.12-21.206.796 0 0zm14.078.223c13.643 9.53-7.856 10.695 0 0zm-166.093.016c15.188 13.018-9.313 10.385 0 0zm-58.907 2.619c7.116 10.014-11.824 8.402 0 0zm166.817.445c10.58 5.915-16.68 16.225 0 0zm67.691 13.59c13.688 9.44-7.806 10.729 0 0zm-166.957.539c16.908 15.196-10.47 8.364 0 0zm89.315 2.207c8.829 5.441-12.28 14.264-2.127 1.203l2.127-1.203zm-165.938.2c8.74 8.485-14.28 11.302 0 0zm253.065 13.788c13.126 10.298-7.46 10.723 0 0zm-167.17.62c16.069 14.77-10.152 8.697 0 0zm-95.426 2.238c8.53 9.125-13.572 11.038 0 0zm166.441.056c8.38 9.449-13.828 10.405 0 0zm149.026 9.03c9.021 10.518-21.638 1.334 0 0zm-321.69.015c12.788 13.015-7.63 7.148 0 0zm300.217.065c.667.001 1.42.032 2.272.097 6.868 12.023-15.096.275-2.91-.09.202-.006.416-.008.638-.007zm-145.355 1.32c8.51 9.887-18.995.895 0 0zm128.425.063c8.868 11.863-18.617.572 0 0zm-115.347.566c13.808 13.178-10.885 9.382 0 0zm-56.348.045c23.892-.311-11.094 11.405 0 0zm19.201.039c24.06-.332-11.424 11.406 0 0zm-145.137.062c8.156 12.197-18.69.027 0 0zm-24.115.616c19.202.65-8.5 10.127 0 0zm312.653 2.257c8.799 8.436-14.157 11.484 0 0zm-166.204.85c11.046 7.817-16.215 15.608 0 0zm-99.263 10.934c14.804 11.103-8.274 10.283 0 0zm166.793 2.79c17.302 15.947-10.915 7.855 0 0zm89.344 2.176c8.09 9.928-13.566 10.887 0 0zm-165.696 1.19c8.732 8.491-14.257 11.276 0 0zm-80.705 10.465c18.244 17.028-10.969 6.218 0 0zm167.022 2.511c15.035 9.88-7.3 9.594 0 0zm69.974 2.622c8.79 9.942-13.602 10.866 0 0zm-166.314.812c8.825 8.308-14.79 11.096 0 0zm-40.746 8.51c.427-.005.89.003 1.388.021 5.037 10.867-14.646.119-1.388-.021zm15.455.06c19.173.089-8.168 10.238 0 0zm19.26.657c15.336 7.935-6.348 10.173 0 0zm-52.583.115c.01 0 .012.003.004.01 7.05 13.682-16.637 2.905-.214.005-.242.131.148-.014.21-.015zm187.311.27c.488.003 1.018.02 1.592.05 7.674 11.702-15.167.612-2.934-.023.408-.021.854-.031 1.342-.028zm17.455.16c.503-.002.964.01 1.387.03 12.694.64-9.292 10.68-3.02.009.587-.025 1.13-.038 1.633-.04zm-34.941.722c7.21 5.706-23.127 15.286-6.932 1.479 1.896-1.766 4.536-1.38 6.932-1.479zm50.703 3.516c14.992 9.903-7.357 9.565 0 0zm-158.733 11.385c16.728 15.65-10.69 8.052 0 0zm-73.584.523c9.806 8.71-15.38 12.45 0 0zm164.323 1.88c7.996 9.733-14.92 11.958 0 0zm78.724 2.243c13.145 9.425-8.295 10.246 0 0zM250.46 318.375c15.578 13.555-10.398 8.465 0 0zm-93.188.11c8.831 8.3-14.843 11.083 0 0zm164.57 2.052.003.008c7.12 10.174-12.454 8.051-.002-.008zm97.856 2.524c15.886 14.932-10.255 8.582 0 0zm-304.199 10.134c.265 0 .54.002.826.008 7.664 11.127-17.494-.003-.826-.008zm145.076.178c16.51 2.473-10.475 14.755-2.29 3.137-2.102-3.002 2.287-1.679 2.29-3.137zm-129.959.082c18.798.094-6.984 11.234 0 0zm317.42.96c.808-.013 1.767.03 2.895.134 6.765 12.102-15.015.044-2.895-.135zm17.986.286c17.052-.017-7.884 10.804-.843.01.292-.006.573-.01.843-.01zm-162.449.01c8.503 11.285-18.573.654 0 0zm126.203.28c.63-.012 1.312-.013 2.051 0 10.283 11.076-21.552.337-2.05 0zm-149.408.495c16.88-.128-7.86 10.814-.838.012l.002.002c.29-.008.568-.012.836-.014zm-131.748 1.135c13.845 9.281-7.599 10.885 0 0zm167.201.945c14.55 10.577-7.76 9.239 0 0zm106.44 2.266c9.599 8.924-15.88 12.208 0 0zM251.05 350.84c8.27 10.292-14.268 10.286 0 0zm-92.634 2.31c13.686 8.91-7.934 10.592 0 0zm167.281.782c15.122 10.63-7.898 10.603 0 0zm86.123 1.986c8.417 10.172-14.1 10.464 0 0zm-170.904 11.281c8.604 8.482-15.099 10.517 0 0zm-72.867 2.567c13.709 9.463-7.721 10.786 0 0zm167.672.654c14.146 11.86-8.2 9.254 0 0zm66.511 2.144c8.12 10.311-13.523 10.903 0 0zm-226.447 8.082c18.615 1.276-7.568 10.472 0 0zm190.11 1.293c.664.01 1.415.05 2.263.125 6.779 12.084-15.049.099-2.9-.123.202-.003.415-.005.637-.002zm17.384.313c17.26-.052-7.354 11.482-.853.012.295-.007.58-.011.853-.012zm-34.248.418c5.49 11.087-15.876-.136 0 0zm-154.172.148v.008c18.5.011-7.518 10.746 0-.008zm20.018.426c14.256-.19-6.916 10.885-.705.018.244-.01.479-.015.705-.018zm18.344.842c13.868 13.2-10.84 9.39 0 0zm-60.166 2.314c8.361 9.545-14.099 12.017 0 0zm226.66.14c14.796 11.146-8.285 10.275 0 0zm-60.819.427c8.633 8.968-13.484 12.143 0 0zm-97.996 14.67c14.658 11.28-8.455 10.136 0 0zm-77.347 1.437c8.695 9.077-14.666 11.793 0 0zm245.463.235c13.521 10.304-7.752 10.72 0 0zm-79.178.546c8.688 8.54-14.292 11.239 0 0zm-79.09 14.249c14.777 10.264-7.609 9.333 0 0zm-96.836 1.556c8.279 9.31-14.577 12.242 0 0zm265.11.121c15.885 13.452-10.285 8.573 0 0zm-99.231.487c8.87 8.245-14.773 11.095 0 0zm-60.799 8.707c14.89.247-13.38 23.544-.744 5.017-2.58.312-5.346-4.47-.834-4.969a17.687 17.687 0 0 1 1.578-.048zm56 1.406c14.013 12.4-7.595 8.114 0 0zm-38.555 1.101v.006c18.522.077-7.363 10.766 0-.006zm24.065.006c8.542 9.887-18.821.714 0 0zm23.969 15.229c13.897 10.562-7.325 10.942 0 0zm-75.992 2.818c10.445 7.57-17.038 15.001 0 0zm85.523 13.902c15.9 14.853-10.132 8.722 0 0zm-95.264 2.686c8.695 9.438-14.208 11.833 0 0z" style="fill:#e6e6e6;fill-opacity:.871111;fill-rule:evenodd;stroke-width:.952195;stroke-linecap:round;stroke-linejoin:round;-inkscape-stroke:none;stop-color:#000" transform="scale(.26458)"/></g></svg>