<svg xmlns="http://www.w3.org/2000/svg" width="864" height="768" style="enable-background:new" viewBox="0 0 228.6 203.2"><g style="opacity:1"><path d="M415.762 47.773a8.41 8.41 0 0 0-2.733.55c-9.233 2.965-12.626 4.315-18.072 15.816-1.633 9.4-10.871 14.263-12.275 23.894-11.618 7.048 5.517 22.504-8.323 8.29-15.158.522-30.021.091-45.386 0-9.57-.053-17.481 12.137-18.178 21.554-10.582 6.302-8.345 24.628-21.42 26.445-17.433.515-36.272-1.373-52.492 1.606-6.66 7.544-6.614 21.316-14.244 24.672-5.294 8.856-7.077 24.3-20.914 21.722-10.67 2.099-25.242-.326-38.38-.002-6.912 2.174-11.365 6.369-16.206 13.032-1.266 11.347-12.56 15.835-12.703 27.685-11.99 3.858-.883 15.104 2.011 23.719 5.652 8.472 10.526 20.245 16.754 26.945 12.936 2.2-7.5 12.931-9.43 24.297-7.224 9.075-8.945 19.65-16.376 27.555 5.707 6.731 7.612 16.985 13.834 24.4 3.602 7.548 9.739 16.344 13.292 20.307 13.783 3.085-9.735 10.886-10.35 23.916-7.348 8.233-9.32 18.783-16.478 26.869 4.727 7.216 5.844 15.621 12.493 21.955 1.91 9.514 10.563 15.324 12.855 24.494 13.402-1.685-.409 9.014-4.293 13.084-4.623 10.424-12.76 18.867-15.08 30.033-12.643 5.808 1.432 20.714 5.78 25.07 2.994 11.503 11.895 18.107 14.292 29.022 13.31 2.501-3.514 4.162-3.94 13.635-6.634 6.921-9.62 16.667-15.97 25.39-7.764 7.746-2.665 20.087 3.637 25.342 1.793 10.24 13.152 16.158 12.765 25.534 2.691 5.748 17.67 10.911 20.131 5.19 11.832.263 15.987 3.399 27.967-.82.65 9.135 23.728-6.174 14.877 8.72 7.034 10.377 12.411 11.459 13.574 23.513 12.265.053 1.256 17.628 14.76 16.035 5.398 9.323 16.012-4.77 21.79 3.057 11.14-3.403 19.106.373 30.396-.86.09-10.629 12.266-14.667 12.048-26.375 11.893-3.383 4.24-22.382 18.514-22.671 10.216 5.926 17.853-5.537 25.3 1.904 9.788-6.903 16.448 3.105 27.487-1.957.168-9.753 12.92-14.293 12.934-26 8.17-9.154 15.306-18.39 9.486-27.979-10.595.424-2.246-18.13-16.455-20.18 7.547-10.849-17.952-14.912-2.703-26.732 6.582-13.281 16.237-25.92 21.756-40.08-1.47-12.613-14.932-22.34-16.637-33.322-12.91-11.934-8.28-23.294 2.053-35.024 6.089-8.478 9-21.128 16.035-27.783-4.59-10.628-11.792-20.676-16.74-30.861-7.233-11.122-15.113-15.229-7.02-28.285 9.095-9.114 15.42-21.221 18.07-33.588 6.17-10.22 15.843-2.191 26.659-6.05 12.327 4.432 23.933-2.018 35.43 2.62 10.062.619 2.36 17.414 13.488 17.12-.668 11.851 9.72 14.024 11.879 23.591.307 7.128 16.627 6.816 24.738 4.865 10.166 4.412 19.137-3.307 29.24 1.676 9.875-8.551 5.89 14.435 16.71 19.86-.414 9.125 10.814 13.428 10.901 22.142 4.235 5.733 13.257 5.01 20.506 6 12.065-.405 24.578-2.64 36.48.008 12.496-5.053 2.485 16.567 14.71 15.953.575 10.516 9.594 16.303 10.508 24.426 3.928 8.796 17.477 8.584 26 6.033 11.423 3.206 22.09-.729 33.826 1.586 1.221-12.742 5.51-12.998 13.341-23.102-1.365-6.51 10.408-16.802 14.372-24.89 2.332-8.781 15.196 4.583 25.521-2.553 9.695 5.923 18.893-2.967 29.168 2.547 3.514-7.531 8.133-14.021 13.203-21.588 2.958-12.131 19.196-22.561 11.336-33.184-5.267-7.757-12.375-18.685-16.545-28.654-11.385-8.749-6.872-22.142 2.182-28.922 1.347-12.452 13.724-16.448 12.447-29.55 14.145-1.164-6.643-12.244-5.111-21.051-7.4-9.104-11.687-19.51-18.014-29.047-14.177.475-27.637.584-41.506 0-9.227-4.296-22.186 18.858-17.652 2.803 8.078-8.039-7.395-20.096-11.258-30.002-5.394-8.527-10.125-26.916-21.28-19.407-10.49.428-20.166-.34-30.605-1.386-17.209 4.62-21.925-9.46-28.035-22.54-6.233-7.444-11.114-22.467-18.56-25.46-11.413 2.103-22.83 1.294-33.584.002-13.604 2.94-23.728-2.09-27.205-15.975-6.586-10.664-12.904-24.56-20.489-32.025-18.119.03-37.376.189-55.006-.034-4.56-12.217-13.053-23.47-19.334-36.19-5.398-17.191-20.016-9.744-34.12-11.78-5.26 5.683-10.242-.776-16.434-.575zm68.472 50.305c11.445 7.21-15.057 16.284 0 0zm-98.558 14.727c15.268 14.5-10.556 8.444 0 0zm90.607 2.715c8.814 8.376-14.164 11.347 0 0zm-80.824 13.74c14.891 9.988-7.52 9.396 0 0zm70.445 2.295c8.215 8.917-15.672 9.934 0 0zm-62.052 8.748c20.874.415-9.092 11.232 0 0zm19.171.254c21.87.597-9.826 11.1 0 0zm19.881.21c17.191-.133-7.615 11.129-.851.016.294-.008.578-.013.851-.015zm17.487 2.934c14.807 10.216-7.476 9.479 0 0zm-166.153.42c15.048 9.81-7.317 9.593 0 0zm107.31.775c8.866 8.27-14.706 11.243 0 0zm165.259.344c8.991 8.766-14.559 12.308 0 0zm-95.93 14.614c15.412 13.34-10.277 8.646 0 0zm-165.838.246c14.911 11.335-8.534 9.798 0 0zm86.522 1.107c8.532 8.715-14.469 11.059 0 0zm165.236.326c9.965 7.517-16.036 14.603 0 0zM480.29 176.52c13.15 10.525-7.502 10.524 0 0zm-166.482.55c14.544 12.67-9.391 10.514 0 0zm68.765 1.082c10.338 7.75-14.954 15.446 0 0zm165.18.287c8.648 5.23-11.28 14.855-2.266 1.374l2.266-1.374zm-37.787 8.682c6.979 10.904-17.626-.201-.049.006l.049-.006zm-19.15.377c10.426 10.963-22.185 1.004 0 0zm33.515 0c18.873.534-7.614 10.816 0 0zm-202.11 1.145c22.404.294-10.394 11.081 0 0zm20.005.074c16.36-.163-7.386 10.651-.811.015.28-.008.55-.013.81-.015zm18.396.058c24.38.222-11.627 11.22 0 0zm182.281 1.942c14.963 13.136-9.557 10.131 0 0zm-164.527.803c13.482 9.532-7.486 10.516 0 0zm106.734 1.738c8.86 8.242-14.72 11.108 0 0zm164.403 1.498c11.397 7.27-15.01 16.092 0 0zm-332.916.056c11.01 7.832-15.908 15.384 0 0zm-105.11.208c15.844 10.013-7.653 10.51 0 0zm177.205 12.746c15.4 13.368-10.263 8.664 0 0zm162.715.19c16.9 15.185-10.46 8.376 0 0zm-76.365 1.564c8.824 5.423-12.273 14.17-2.133 1.203l2.133-1.203zm-252.63 1.425c14.22 10.98-7.974 9.073 0 0zm85.349.916c8.544 8.7-14.524 11.03 0 0zm333.662.246c8.982 5.257-12.144 14.197-2.104 1.256l2.104-1.256zm-79.695 12.04c15.497 9.64-7.62 9.2 0 0zm-163.752.404c15.701 15.5-10.435 8.318 0 0zm67.544 1.705c9.036 10.607-13.89 10.31 0 0zm-233.777 1.394c13.322 10.72-7.836 10.574 0 0zm65.602.356c8.555 8.6-15.157 10.634 0 0zm333.84.377c4.021 9.114-6.285 26.276-4.637 5.027l2.68-3.935 1.957-1.092zm-21.112 7.262c20.329 4.437-13.286 7.426 0 0zm-16.256.087c.269.002.548.006.838.014 8.322 12.103-17.74-.094-.838-.014zm-353.992.233c17.009-.164-7.595 11.105-.842.015.292-.008.572-.013.842-.015zm167.065.56c.424-.006.816 0 1.175.018 10.788.53-6.913 10.985-2.552.037.493-.031.952-.049 1.377-.055zm-148.557.016c22.518.643-11.052 10.876 0 0zm190.475.076c10.567 10.618-21.858 1.573 0 0zm-171.446.258c18.635-.187-7.241 10.9 0 0zm148.897.262c.498-.001.954.008 1.373.029 12.55.619-9.588 10.39-2.992.008a40.55 40.55 0 0 1 1.619-.037zm149.369.373c6.153 11.589-27.903 9.362 0 0zm-114.627 1.611c16.682 15.626-10.605 8.164 0 0zm-166.37 2.904c17.062 14.064-10.643 7.717 0 0zm106.202.098c9.693 8.05-14.471 14.438 0 0zm-167.541 1.815c10.082 9.748-16.926 9.573 0 0zm402.373 10.091c16.8 15.957-10.87 7.823 0 0zm-74.83 1.758c8.688 8.57-14.304 11.32 0 0zm-90.826.234c17.077 14.694-10.226 8.635 0 0zm-164.531 1.82c15.38 13.285-10.168 8.77 0 0zm419.574.942c8.686 8.551-14.324 11.307 0 0zm-332.924.45c8.641 8.574-14.368 11.152 0 0zm-169.51.65c8.53 8.737-14.436 11.143 0 0zm422.268 10.902c13.998 10.286-7.88 10.61 0 0zm-93.67 1.574c8.652 8.274-14.913 13.269 0 0zm-71.131.041c14.735 10.28-7.613 9.353 0 0zm-165.2 2.098c14.1 11.711-8.238 9.825 0 0zm67.192 1.18c9.55 7.713-15.089 13.153 0 0zm333.762 0c9.162 4.855-11.321 15.023-2.045 1.343l2.045-1.343zm-502.123 1.203c9.475 8.243-14.303 14.18 0 0zm108.402 6.996c18.519 1.905-7.262 10.44 0 .002v-.002zm332.168.932c.09.014.124.091.084.25 18.585-2.043-16.356 20.408-2.27 2.736-1.691-.079 1.561-3.084 2.186-2.986zm-168.385.072c12.632.153-.565 6.23-3.463 12.508-5.712-2.336 2.626-10.074 3.463-12.508zm-313.93.246c23.877.886-10.947 11 0 0zm333.315.26c18.883.37-8.793 9.9 0 0zm-314.203.076c22.866-.113-9.272 11.333 0 0zm333.197.162c24.307.826-11.246 10.98 0 0zm171.791.137a35.42 35.42 0 0 1 1.61.027c7.96 12.017-16.909.084-1.61-.027zm-22.619.238c24.172.606-11.148 11.09 0 0zm-129.935.451c14.378 10.603-7.717 11.441 0 0zm167.318.037c14.128 12.455-9.471 11.062 0 0zm-369.656.334c23.864 1.538-11.722 10.613 0 0zm19.244.324c22.358.122-10.35 11.17 0 0zm-150.856.717c15.345 9.925-7.687 9.18 0 0zm169.381.28c16.373 11.414-9.204 10.05 0 0zm-59.892 2.841c10.378 6.285-17.59 15.75 0 0zm323.402 12.141c10.829 6.117-16.311 16.05 0 0zm-421.752.379c14.988 11.21-8.463 9.866 0 0zm331.094.037c17.249 16.079-10.902 7.843 0 0zm-161.922.559c17.402 16.461-10.662 6.68 0 0zm328.62.068c14.482 11.508-8.618 9.995 0 0zm-243.3.799c8.985 9.04-14.699 12.466 0 0zm-166.558 2.148c8.508 8.762-14.504 11.048 0 0zm324.175 12.518c9.59 9.119-16.014 12.25 0 0zm-71.146.28c15.2 9.571-7.246 9.609 0 0zm-331.041.052c14.633 11.404-8.606 9.215 0 0zm497.51.781c14.62 10.394-7.735 9.24 0 0zm-329.647.428c14.183 13.46-9.74 10.093 0 0zm67.598.66c10.303 7.74-14.975 15.504 0 0zm-167.6 1.674c9.267 8.765-15.151 12.089 0 0zm272.405 7.629c.46-.006.88.011 1.261.05 11.438 1.175-11.878 21.823-3.414 5.19 1.558-1.739-5.7-3.951.643-5.148a17.115 17.115 0 0 1 1.51-.092zm-309.963.427c.498-.002 1.04.008 1.625.032 7.988 12.04-17.084.047-1.625-.032zm15.9.477c24.303 2.65-11.794 10.114 0 0zm460.291.096c20.789.358-8.54 11.2 0 0zm21.297.101c20.062.16-13.277 11.192-2.111.02a65.416 65.416 0 0 1 2.11-.02zm17.904.063c16.347-.05-7.418 10.606-.808.01.28-.007.549-.01.808-.01zm-535.511.201a4.22 4.22 0 0 1 .677.035c.547.071 1.166.248 1.877.553 5.169 1.046-18.28 19.75-9.379 4.576 3.173-.953 3.626-5.065 6.825-5.164zm347.587 1.926c23.907 1.667-11.436 10.595 0 0zm23.305.19c.255-.003.521-.002.797.001 6.528 10.815-16.882.12-.797-.002zm14.371.825c14.804 10.173-7.54 9.417 0 0zm-331.299 1.239c13.873 11.026-7.572 10.513 0 0zm439.045.26c9.865 8.517-15.237 13.067 0 0zm-97.248 14.638c14.963 11.293-8.501 9.846 0 0zm-75.215.234c9.738 8.903-15.757 12.766 0 0zm-256.75 1.256c13.294 9.322-7.172 10.93 0 0zm-77.576.201c9.014 5.177-11.96 14.406-2.088 1.27l2.088-1.27zm497.6.487c9.373 8.871-15.3 12.23 0 0zm-173.387 14.38c8.536 8.588-15.167 10.516 0 0zm94.777.102c16.38 15.005-10.176 8.65 0 0zm-331.736 1.41c14.43 10.697-7.438 11.19 0 0zm-96.767.264c8.862 9.382-14.519 12.176 0 0zm497.53.479c8.823 8.609-14.334 12.643 0 0zm-394.214 9.576c20.63.327-7.345 11.475 0 0zm19.355.685c18.991.201-8.564 10.188 0 0zm19.09.502c18.95.952-7.554 10.856 0 0zm318.541 0c8.336 11.166-20.768.603 0 0zm14.235.178c24.398.774-11.09 11.021 0 0zm-33.463.039c8.106 11.54-20.45.358 0 0zm-464.143.772a24.8 24.8 0 0 1 2.744.177c6.95 12.197-14.204-.187-2.744-.177zm16.578.09c14.834 13.642-9.734 9.913 0 0zm-37.064.14c16.997.016-7.839 10.967-.842.008.291-.006.572-.008.842-.008zm536.576 1.295c14.686 10.329-7.553 9.424 0 0zm-61.344 1.71c9.317 8.388-13.91 13.392 0 0zm-330.302.71c8.695 9.244-14.316 12.298 0 0zm-99.62 13.508c14.509 11.38-8.658 9.551 0 0zm501.305.363c16.796 13.892-9.715 9.19 0 0zm-80.367 2.357c10.085 8.016-15.35 14.18 0 0zm-331.115.194c9.744 8.858-15.788 12.696 0 0zm-80.123 13.656c14.68 10.332-7.68 9.277 0 0zm501.636.295c14.968 11.224-8.555 9.762 0 0zm-431.213 2.594c8.571 8.429-14.54 12.67 0 0zm331.905.216c10.61 8.395-15.385 14.79 0 0zm-349.834 9.737c8.461 11.057-20.673.597 0 0zm-22.059.064c.811-.01 1.771.03 2.902.135 6.718 12.11-15.065.032-2.902-.135zm-16.28.592c5.967 6.275-19.841 15.38-7.192 2.457 1.146-3.383 4.788-2.168 7.193-2.457zm50.763 1.967c14.911 13.634-9.693 9.945 0 0zm-67.346 16.513c8.432 8.796-14.596 10.873 0 0zm75.664.805c17.467 16.018-10.873 7.885 0 0zm-85.313 15.863c9.753 7.772-15.297 14.948 0 0zm95.094.688c14.51 10.565-7.83 9.153 0 0zm30.76 10.865c.5-.001 1.04.01 1.627.035 7.942 12.064-17.109.003-1.627-.035zm-147.354.242c.269-.001.548 0 .838.004 8.01 11.58-17.76.104-.838-.004zm163.204.002c24.386 2.043-11.575 10.423 0 0zM177 477.016c11.056 10.569-24.172 1.583 0 0zm146.62.416c.622-.008 1.147.037 1.468.117 5.29 3.619-18.2 20.365-6.7 4.273-1.876-3.089 1.867-4.189 4.579-4.365.226-.015.444-.023.652-.025zm-114.37.242c14.276 11.434-8.178 10.408 0 0zm9.34 16.754c14.795 13.18-7.899 9.286 0 0zm91.195 4.135c8.658 8.58-14.33 11.236 0 0zm-81.596 12.466c14.906 10.795-8.291 9.727 0 0zm71.504 3.907c8.808 8.307-14.879 10.956 0 0zm-38.113 9.16c.501-.005 1.045.003 1.63.021 7.087 10.816-17.166.117-1.63-.021zm15.945.65c18.772.8-7.271 10.95 0 0zm-33.402.746c8.443 11.985-18.96.687 0 0zm-10.039 1.994c8.777 11.049-14.655 9.685 0 0zm60.582 2.348c16.505 15.252-10.476 8.324 0 0zm-70.379 14.18c8.994 10.734-14.087 9.194 0 0zm79.451 2.695c17.413 14.988-10.334 8.524 0 0zm-88.922 14.055c9.09 10.587-13.872 10.346 0 0zm99.28 2.076c15.24 9.51-7.166 9.674 0 0zm5.877 9.904v.016c18.69.231-7.341 10.96 0-.016zm19.015 1.285c24.118.816-11.154 11.004 0 0zm24.116.086c8.132 11.49-20.556.536 0 0zm-166.819.358c.266-.001.543 0 .83.006 8.136 12.055-17.573.052-.83-.006zm14.25.377c14.79 10.216-7.57 9.394 0 0zm-37.404.146c20.842-.053-8.19 11.534 0 0zm145.71 3.578c9.037 9.12-14.435 12.064 0 0zm-97.833 12.447c15.507 13.553-10.3 8.573 0 0zm88.586 4.348c8.623 8.59-14.343 11.094 0 0zm-79.29 12.416c15.722 15.338-10.34 8.474 0 0zm68.99 3.781c10.234 9.616-16.72 9.677 0 0zm-37.769 9.323c.501-.001 1.043.01 1.63.033 7.176 10.811-17.152-.013-1.63-.033zm-20.238.111c.774.011 1.694.08 2.777.217 6.79 12.311-14.391-.385-2.777-.217zm36.32.07c20.662.558-8.976 11.21 0 0zm17.157 3.735c13.515 13.296-8.332 8.638 0 0zm-60.526.71c10.8 8.815-14.46 14.735 0 0zm69.264 16.337c16.989 15.015-10.4 8.424 0 0zm-76.852 1.343c8.929 8.295-14.057 11.591 0 0zm86.391 15.258c14.32 10.44-7.68 10.053 0 0zm-97.014.65c8.633 8.42-15.804 9.895 0 0z" style="fill:#e6e6e6;fill-opacity:.871111;fill-rule:evenodd;stroke-width:.952195;stroke-linecap:round;stroke-linejoin:round;-inkscape-stroke:none;stop-color:#000" transform="scale(.26458)"/></g></svg>