<svg xmlns="http://www.w3.org/2000/svg" width="672" height="576" style="enable-background:new" viewBox="0 0 177.8 152.4"><g style="opacity:1"><path d="M124.99 126.995a1.27 1.27 0 0 0-.635.17l-43.064 24.863a1.27 1.27 0 0 0-.635 1.1v100.134c0 .463.25.89.656 1.113 14.674 8.086 29.063 17.56 44.121 24.893.174.084.364.127.557.127h86.308c.223 0 .442-.06.635-.17l43.065-24.863a1.27 1.27 0 0 0 .634-1.1V153.127c0-.463-.25-.89-.656-1.113-14.674-8.086-29.063-17.559-44.121-24.893a1.27 1.27 0 0 0-.557-.126z" style="color:#000;font-style:normal;font-variant:normal;font-weight:400;font-stretch:normal;font-size:medium;line-height:normal;font-family:sans-serif;font-variant-ligatures:normal;font-variant-position:normal;font-variant-caps:normal;font-variant-numeric:normal;font-variant-alternates:normal;font-feature-settings:normal;text-indent:0;text-align:start;text-decoration:none;text-decoration-line:none;text-decoration-style:solid;text-decoration-color:#000;letter-spacing:normal;word-spacing:normal;text-transform:none;writing-mode:lr-tb;direction:ltr;text-orientation:mixed;dominant-baseline:auto;baseline-shift:baseline;text-anchor:start;white-space:normal;shape-padding:0;clip-rule:nonzero;display:inline;overflow:visible;visibility:visible;isolation:auto;mix-blend-mode:normal;color-interpolation:sRGB;color-interpolation-filters:linearRGB;solid-color:#000;solid-opacity:1;vector-effect:none;fill:#c47951;fill-opacity:1;fill-rule:nonzero;stroke:none;stroke-width:2.54;stroke-linecap:round;stroke-linejoin:round;stroke-miterlimit:4;stroke-dasharray:none;stroke-dashoffset:0;stroke-opacity:1;color-rendering:auto;image-rendering:auto;shape-rendering:auto;text-rendering:auto;enable-background:accumulate" transform="translate(-79.744 -127)"/></g></svg>