<svg xmlns="http://www.w3.org/2000/svg" width="576" height="576" style="enable-background:new" viewBox="0 0 152.4 152.4"><g style="opacity:1"><path d="M210.12 94.918c-6.244.34-10.618 8.046-15.28.375l-8.729.021c-3.511 6.409-11.245.094-14.611 9.416-4.54 5.948-4.834 13.223-10.47 18.137-4.093 6.91-4.653 13.34-10.83 18.76-6.322 3.367-15.673 2.315-23.216 1.682-8.35.797-15.91.053-24.357 0-9.203 1.74-11.793 8.252-17.635 15.263 1.136 8.797-5.45 9.786-10.037 17.385 4.272 8.471-13.678 10.758-4.361 17.707-.03 6.157 2.827 13.454 9.203 15.678 1.862 5.015.715 14.406 8.666 14.992 4.206 6.133-.502 14.28 9.04 10.693 10.09 5.376-8.04 1.89-7.01 12.006-7.31 4.669-5.157 14.812-12.077 18.922-5.948 5.498-2.24 15.24-10.15 17.58.5 4.489 4.02 9.987 4.76 15.772 5.862 4.837 9.366 7.835 9.046 15.662 4.901 6.114 9.008 8.862 9.752 16.888 7.767-3.524 10.473 6.045 1.35 4.526 2.672 7.903-8.248 9.342-9.889 17.129 4.904 7.767-8.82 8.119-9.627 16.672 7.567 7.92-15.566 10.504-2.75 13.8 2.262 5.605-.848 16.334 9.086 15.713 4.186 6.524-1.37 10.424 5.483 17.178 7.613-5.316 7.088 8.035 4.771 8.264 2.268 6.018 9.665 3.693 14.477 6.164 8.4-2.177 12.919-1.912 21.279 0 5.98-3.573 10.97-2.492 17.072-.002 12.66-3.87 9.572 6.01 14.02 13.629 7.63 1.714 7.222 7.857 7.966 13.787 3.261 6.446 12.72 6.838 8.393 14.535 3.125 6.98 11.657 4.99 18.785 6.035 3.966-7.893 9.4-2.497 12.696 0 8.694 2.625 12.652-10.17 17.707 0 7.744 2.17 13.925-3.195 14.931-10.69 4.996-6.248 8.758-13.25 11.395-20.718 5.895-3.46 6.67-11.118 9.318-16.594-3.102-9.13 10.667-2.71 9.127-.004 9.688 2.252 13.976-9.3 19.772.002 9.135 2.027 13.309-8.493 19.527 0 10.235 3.072 12.665-7.17 15.264-13.949 6.683-3.702 6.52-13.348 12.058-18.17 4.753-5.571 4.496-14.05 11.229-17.787 6.703.283 13.598 4.236 20.19.45 7.585 1.563 15.401 2.352 22.665-.745 6.029 6.308 16.05.09 14.342-8.146 5.898-5.236 9.52-12.294 12.232-19.733 6.625-4.161 5.99-13.434 11.467-18.267-4.716-7.933-9.446-13.277-12.601-21.827-5.592-6.091-7.302-13.899-12.104-20.963-6.284-5.905 2.528-11.81 4.6-17.716 6.846-11.67 13.435-23.548 20.299-35.16-5.725-7.364-9.07-11.235-11.583-20.06-8.174-4.119-5.634-11.645-11.166-19.343-3.84-8.532-9.522-10.927-17.673-5.957-8.17-6.572-15.385 1.177-23.682-.594-3.502-6.904-15.974 4.026-19.916-3.552-4.517-6.536-8.92-10.543-10.648-18.446-6.076-5.287-7.035-11.372-10.653-18.45-5.826-4.893-6.46-12.18-15.887-9.58-7.26 2.853-16.128-2.354-23.99 1.081-8.477-1.817-19.739-2.658-23.447 6.902-8.077-1.06 6.391-13.136-4.703-18.943-5.951-12.762-13.802-24.546-20.643-37.039-7.814-1.229-13.185 5.604-19.447 0a7.578 7.578 0 0 0-2.797-.371zm-58.499 47.367c12.638 8.644-6.94 14.325 0 0zm8.594 17.092c14.688 12.29-8.273 10.19 0 0zm87.947.412c8.206 6.342-11.554 13.07-2.133 1.195l2.133-1.195zm-78.433 16.22c12.028 5.76-4.937 15.252 0 0zm69.021.598c9.532 8.378-13.927 13.708 0 0zm-3.973 11.014c17.952 17.928-13.76 2.174 0 0zm-15.736.14c10.822 11.269-21.626.807 0 0zm-19.246.114c7.64 11.28-19.837.62 0 0zm-20.664.684a6.379 6.379 0 0 1 1.557.164l-.004-.014c2.487 2.984-3.59 8.005-7.174 12.754-2.854-3.48-.307-12.761 5.62-12.904zm163.027 3.457-.002.015c8.094 6.2-9.91 12.686-2.043 1.336l2.045-1.351zm-99.703 11.716c12.539 6.971-6.019 15.518 0 0zm-76.166 5.291c8.293 6.245-11.459 13.031-2.125 1.22l2.125-1.22zm167.04 0h.001c8.458 6.034-11.209 13.286-2.094 1.278l2.088-1.276.004-.002zm-81.446 11.442c13.007 6.93-5.714 15.213 0 0zm-95.988 4.71c9.206 8.55-15.79 12.594 0 0zm167.808.358v.014c7.458 6.94-10.936 11.651-2.148 1.148l1.912-1.16.236-.002zm-40.617 10.504c.223.002.453.006.693.014v-.004c5.04 11.17-14.725-.128-.693-.01zm15.154.047c20.395.465-8.804 11.178 0 0zm-160.23.076c7.047 10.646-17.864.051 0 .008v-.008zm-23.405.176c15.329-.139-6.477 11.022-.757.016.262-.008.514-.014.757-.016zm148.606.146c.315-.006.6.004.86.028 7.765.724-8.697 14.738-5.975 4.4-2.336-3.481 1.842-4.108 4.084-4.357.373-.04.716-.064 1.03-.07zm54.037.034c12.918 3.071-4.394 18.506 0 0zm-165.951.547c12.691 6.648-5.627 15.68 0 0zm100.947 15.949c7.101 10.19-12.091 7.982 0 .008v-.008zm73.383.488c12.639 6.876-5.866 15.532 0 0zm-165.098.371c13.282 8.29-6.06 14.49 0 0zm82.051 15.74c11.3 4.177-18.052 17.528 0 0zm92.783.452c13.105 6.603-5.48 15.307 0 0zm-165 .39c9.866 5.497-2.385 12.189-2.164 1.217l2.166-1.201-.002-.016zm8.682 12.084c16.598 1.195-6.212 10.743 0 0zm164.967 1.336v.016c18.12-.55-11.931 19.77-2.131 1.511l2.13-1.527zm43.32.895c8.996 8.756-17.066 3.397-2.535.17l2.365-.165h.17v-.005zm-165.217.084v.002c8.9 8.97-17.129 2.913-2.472.085l2.373-.085.1-.002zm-24.076.037v.004c16.762-.251-6.029 11.08 0-.004zm166.645.377c13.954.093-7.001 10.901-1.461.025a32.19 32.19 0 0 1 1.46-.025zm-188.272 1.392c.107.01.169.087.16.256 8.014 6.173-9.901 12.695-2.172 1.524.203-.538 1.35-1.634 1.891-1.768a.37.37 0 0 1 .121-.012zm58.5.2c12.115 5.881-5.279 15.121 0 0zm98.334 14.068c8.415 6.376-12.085 12.714-1.965 1.064l1.965-1.064zm-88.767 2.576c12.133 5.918-5.21 15.19 0 0zm-76.971.287c8.38 6.145-11.331 13.228-2.106 1.246l2.106-1.246zM323.449 317.4c8.666 9.03-14.087 12.012 0 0zm-69.465 2.803c12.878 9.316-7.613 10.555 0 0zm-96.34.094c.056 0 .111.002.167.008 7.568 6.962-10.837 11.504-2.297 1.388.406-.744 1.294-1.391 2.13-1.396zm-40.638 10.74v.002c8.374 9.628-17.215 2.123-2.46.02l2.417-.02.043-.002zm14.957.04c18.75 1.422-9.828 10.015 0 0zm17.889 1.505c13.03 9.25-6.926 13.828 0 0zm112.603.47c.39 0 .75.013 1.08.036 9.909.675-6.223 10.955-2.344.002.453-.025.874-.037 1.264-.037zm41.994.694c8.69 9.129-16.737 2.64-2.535.135l2.365-.127h.17v-.008zm-22.717.293c13.978.02-6.94 10.95-1.464.035l.002-.002a32.253 32.253 0 0 1 1.462-.033zm35.362 1.209c12.35 6.688-5.683 16.178 0 0zm-59.477 2.068c9.422 7.831-13.845 13.924 0 0zm-98.924 12.26c11.806 7.665-7.111 9.917.002.016l-.002-.016zm166.942 2.918c12.698 6.756-5.693 15.603 0 0zm-76.758 1.96c8.474 6.059-11.295 13.307-2.08 1.276l2.08-1.277zm-80.248 11.573c13.31 6.391-5.03 15.47 0 0zm167.4 2.582c13.832 5.853-4.748 15.11 0 0zm-97.133 2.29c8.674 6.106-11.868 12.864-1.925 1.136l1.925-1.137zm-3.681 9.47c11.413 7.694-7.355 15.799 0 0zm-12.918.078c.026 0 .051.003.076.008 9.54 8.164-17.124 4.366-2.623.322.473 2.013 1.744-.33 2.547-.33zm-42.693.778c.226-.004.447 0 .66.013 5.967.352 6.616 6.928-1.73 5.23-7.33 9.962-8.35-2.67-1.143-4.956a10.625 10.625 0 0 1 2.213-.287zm18.87.54c21.217.148-8.89 11.409 0 0zm-32.288 15.34c8.619 6.134-11.774 13.102-1.934 1.137l1.934-1.137zm75.302 1.344c12.436 6.635-5.636 16.015 0 0zm-84.802 15.303c8.38 9.772-13.252 11.271 0 0zm94.886 1.08c14.736 8.713-6.34 13.029 0 0z" style="fill:#e6e6e6;fill-opacity:.871111;fill-rule:evenodd;stroke-width:.952195;stroke-linecap:round;stroke-linejoin:round;-inkscape-stroke:none;stop-color:#000" transform="scale(.26458)"/></g></svg>