<svg xmlns="http://www.w3.org/2000/svg" width="672" height="672" style="enable-background:new" viewBox="0 0 177.8 177.8"><g style="opacity:1"><path d="M191.91 114.3a1.27 1.27 0 0 0-1.27 1.27v48.672c0 .995-.36.775-1.052.819-.692.043-8.179.054-14.616.054l-.332-.016H81.925a1.27 1.27 0 0 0-1.27 1.27v73.662c.001.7.57 1.269 1.27 1.27h107.858c1.005 0 1.028.29 1.02 1.051-.163 14.948 0 5.821-.147 15.145l-.016-.197v33.53c0 .7.569 1.269 1.27 1.269h63.453a1.27 1.27 0 0 0 1.27-1.27V115.57a1.27 1.27 0 0 0-1.27-1.269z" style="color:#000;font-style:normal;font-variant:normal;font-weight:400;font-stretch:normal;font-size:medium;line-height:normal;font-family:sans-serif;font-variant-ligatures:normal;font-variant-position:normal;font-variant-caps:normal;font-variant-numeric:normal;font-variant-alternates:normal;font-feature-settings:normal;text-indent:0;text-align:start;text-decoration:none;text-decoration-line:none;text-decoration-style:solid;text-decoration-color:#000;letter-spacing:normal;word-spacing:normal;text-transform:none;writing-mode:lr-tb;direction:ltr;text-orientation:mixed;dominant-baseline:auto;baseline-shift:baseline;text-anchor:start;white-space:normal;shape-padding:0;clip-rule:nonzero;display:inline;overflow:visible;visibility:visible;isolation:auto;mix-blend-mode:normal;color-interpolation:sRGB;color-interpolation-filters:linearRGB;solid-color:#000;solid-opacity:1;vector-effect:none;fill:#c47951;fill-opacity:1;fill-rule:nonzero;stroke:none;stroke-width:2.54;stroke-linecap:round;stroke-linejoin:round;stroke-miterlimit:4;stroke-dasharray:none;stroke-dashoffset:0;stroke-opacity:1;color-rendering:auto;image-rendering:auto;shape-rendering:auto;text-rendering:auto;enable-background:accumulate" transform="translate(-79.744 -114.3)"/></g></svg>