<svg xmlns="http://www.w3.org/2000/svg" width="576" height="384" style="enable-background:new" viewBox="0 0 152.4 101.6"><g style="opacity:1"><path d="M396.543 8.807c-3.714.05-8.2 1.066-11.34.314H339.97c-2.763 8.868-9.636 2.755-11.856 12.414 5.15 4.726-2.437 10.839-6.6 11.434-3.26 7.3-4.38 20.793-16.853 14.533-8.86-.795-14.946 4.211-22.402 0-8.94 2.214-14.96.077-24.43 0-5.423-4.628-6.07-13.35-11.125-17.93-6.583-2.99-3.356-10.993-8.394-15.67-3.578-6.968-11.982-4.33-18.922-4.78h-48.12c-6.49 3.288-7.68 11.31-10.962 17.337-8.684 3.934-3.355 16.738-11.79 18.145 2.22 2.198 1.787 4.778 1.217 7.876 9.262 2.28 4.48 11.204 10.563 18.297 8.67.993 3.35 10.255 8.594 14.885 6.855 2.817 8.961 9.426 2.529 15.274 3.878 2.216-1.292 10.145-4.818 8.345-5.708 5.552-2.044 10.252-5.653 15.793-7.861.796-7.405 9.966-9.306 15.313-7.066 4.61-.473 10.636 3.988 13.076-.69 9.108 6.77 13.436 11.416 19.98-3.781 7.428 6.427 9.745 9.283 14.54-4.578 4.467-1.945 16.117-9.611 17.107-6.013 5.89-1.756 9.94-5.074 15.697-1.784 3.735-5.248-1.085-6.008 3.5-3.192 3.884-2.995 6.062-1.729 9.713-1.475 2.064-2.387 4.443-3.539 6.521-6.125 3.527 9.57 10.194 6.897 17.016 2.726 6.66 11.63 7.749 9.066 15.703 1.189 7.21 14.904 8.55 7.283 15.91 1.006 5.678-2.874 10.445-7.517 13.028-3.225 8.111-3.789 12.671-10.627 18.404-.278 5.493-3.707 14.106-6.28 13.143 1.395 2.972-1.765 11.12 6.616 9.537 1.39 7.49 1.08 15.704 9.974 18.582 1.129 5.107-.237 14.332 9.477 12.074h59.705c5.574-5.425 6.03-14.041 11.68-19.246 4.052-5.363 4.625-12.248 9.666-16.74 1.476-2.804-8.014-16.179 2.074-8.153-2.524 11.066 10.74 3.55 17.703 3.256 4.795 5.671 12.587.79 18.496.149 5.543 5.052 12.75 1.127 18.55-.243 3.348.848.328 13.03 8.966 10.21 1.034 7.563 1.228 16.254 10.441 18.72-.253 4.536-.586 14.493 8.994 12.047h60.274c5.714-4.671.25-14.396 8.822-15.283 4.679-7.556 6.105-14.442 12.035-20.848-5.06-9.011 2.62-9.052 5.465-2.277 7.889 2.637 9.807-5.248 17.144-3.04 4.322 11.052 17.217-8.06 19.833 3.04 8.331.313 16.312-.015 16.882-8.637 6.706-3.093 7.852-11.108 10.102-17.152 8.077-4.184 7.584-15.211 14.219-20.805-.506-6.022-6.603-13.148-9.647-19.525-5.465-9.761-11.384-19.104-16.648-28.836-13.313-.377-3.259-3.822.164-8.438 7.964-3.667 9.465-11.285 10.441-19.008 11.687.667 4.29-17.07 14.344-17.869-.011-5.368-2.558-17.593-9.93-19.949-.863-9.08-7.922-15.55-10.978-23.74-.164-7.088-18.148-5.008-6.239-9.776 5.353.118 4.188-9.64 9.483-11.94 3.474-8.217 7.334-13.768 12.283-21.274-.12-7.923 8.926-9.7 4.824-17.754-4.04-7.424-9.016-13.056-12.02-20.817-5.6-5.849-6.959-14.516-12.31-19.869-4.135-.424-13.207-6.737-15.125.29-7.726 3.692-7.863-5.66-15.726-2.903-6.034 7.123-11.348-1.17-20.28 0-7.99 8.616-7.176-6.539-11.953-12.108-6.502-5.137-6.246-15.99-13.736-21.123-.055-4.608-2.997-5.521-6.711-5.47zm24.97 41.923c8.958 5.954-11.936 13.038-1.808 1.127l1.809-1.127zm-166.466.56c.061 0 .122.005.183.013 7.28 6.652-10.253 12.888-2.412 1.457.405-.817 1.31-1.49 2.229-1.47zm64.957 3.026c16.191 11.96-8.7 9.892 0 0zm91.805 12.702c7.5 6.789-11.597 12.758-2.416 1.197l1.736-1.194.68-.003zm-165.684 1.195c9.059 6.626-15.869 15.167 0 0zm84.693 2.137c14.643 13.788-9.752 8.79 0 0zm72.18 13.586c6.962 6.896-10.983 13.062-2.736 1.369l2.736-1.37zm-166.348.962c7.684 6.608-11.38 13.003-2.386 1.27l1.705-1.246.681-.024zm101.676 2.797c12.51 5.854-4.872 17.981 0 0zm55.293 4.4c.539 0 1.034.011 1.49.034 13.684.687-8.629 11.398-3.236.006a42.547 42.547 0 0 1 1.746-.04zm-20.951.01c21.344-.04-8.061 11.44 0 0zm-143.357.098c7.825 10.402-17.338 2.042 0 0zm128.835.303c9.623 8.008-17.256 4.977-2.425.146l2.425-.146zm-147.74 1.387c8.427 11.627-19.807.402 0 0zm-19.113.265c7.392 10.178-16.256 1.823-2.314.031l2.314-.03zm147.07 4.703c7.067 6.928-10.97 14.025-2.717 1.42l2.717-1.42zm66.498 2.377c14.314 14.479-10.253 8.222 0 0zm-167.261.696c9.844 7.062-3.483 11.901-2.385.935l2.385-.935zm91.724 14.02v.001c7.667 6.66-11.56 12.814-2.387 1.244l1.71-1.226.677-.02zm84.592 2.19c14.674 13.723-9.772 8.789 0 0zm-167.133.585c12.307 7.96-6.467 14.36 0 0zm72.078 13.673c9.161 5.453-11.69 13.36-1.765 1.145l1.765-1.145zm102.938 2.842c12.871 4.98-3.601 18.149 0 0zm-165.461.19c12.277 7.93-6.52 14.283 0 0zm19.082 4.279a49.94 49.94 0 0 1 1.85.04c8.035 11.064-17.715.643-3.416-.009.476-.021.997-.032 1.566-.031zm16.35.1c24.603 3.005-12.071 10.014 0 0zm164.675 1.117c25.16 1.968-11.93 10.21 0 0zm-14.492.095c7.69 11.537-19.25.814 0 0zm-130.851.393c24.522 4.566-12.67 8.967 0 0zm111.177 3.953c6.866 7.405-10.512 11.518-2.396 1.22l1.719-1.208.677-.012zm-166.814.033c7.812 10.765-14.303 11.42 0 0zm65.24 3.547c9.907 7.236-3.1 12.753-2.422.985l2.422-.985zm91.762 13.076c.06.002.12.008.18.016 6.994 7.306-10.303 11.915-2.418 1.371.412-.796 1.335-1.417 2.238-1.387zm-165.67.537c7.798 6.53-11.443 13.091-2.383 1.34l1.693-1.306.69-.034zm83.252 3.141c14.75 13.88-9.785 8.749 0 0zm73.062 12.99c.068.002.135.007.203.016 7.13 7.06-9.93 12.429-2.562 1.69.413-.898 1.346-1.727 2.36-1.706zm-165.765.57c6.518 10.103-11.746 8.618-.69.024l.69-.023zm100.513 3.608c14.74 10.133-6.917 12.786 0 0zm34.579 5.316c24.27 2.116-11.345 10.233 0 0zm-14.534.159c8.054 11.392-19.452 1.112 0 0zm33.883 1.025c23.828 3.956-12.049 9.644 0 0zm-203.32.809c18.373-.094-6.732 11.626-.908.013.313-.007.616-.012.908-.013zm37.449.156c21.216.16-8.892 11.401 0 0zm-19.201.012c21.221.16-8.892 11.401 0 0zm130.691 4.564c7.063 9.866-12.051 8.155 0 0zm64.381.76c14.725 14.132-10.017 8.516 0 0zm-166.662.248c11.961 9.142-7.678 9.938 0 0zm93.254 15.74c7.626 6.72-11.537 13.56-2.416 1.291l1.724-1.271.692-.02zm82.771.764c13.103 8.481-6.358 14.926 0 0zm-166.19.031c15.179 13.677-9.843 8.77 0 0zm10.4 15.992c16.609 11.55-8.623 10.017 0 0zm165.927.207c16.017 12.387-9.083 9.54 0 0zm-101.428.172c8.252 7.45-15.34 18.75-10.285 7.129 7.645 2.396 4.597-4.566 10.285-7.129zm-27.43 6.52c7.401-.08 2.722 9.013-4.267 3.832l.016-2.436 2.136-1.17v.002c.643-.12 1.227-.191 1.754-.217a9.64 9.64 0 0 1 .362-.011zm162.864.01c23.12 1.339-10.12 11.058 0 0zm-182.434.12c16.711.046-7.361 11.78-1.746.034a42.577 42.577 0 0 1 1.746-.033zm167.928.235c8.822 9.141-16.754 3.333-2.418.125l2.418-.125zm-184.414 9.598c.084.004.17.015.256.03 7.212 5.676-10.524 13.905-3.053 2.225.462-.98 1.396-2.146 2.547-2.25.082-.007.166-.01.25-.005zm162.281.91c9.004 6.51-16.236 15.401 0 0zm-98.13.1c14.404 14.348-10.203 8.272 0 0zm-73.782 15.577c7.582 6.758-11.698 12.69-2.402 1.221l1.722-1.209.68-.012zm162.196.88c6.48 9.947-11.953 8.636-.68.01l.68-.01zm-79.221.308c3.018 1.697 6.467 7.532 2.113 9.025-2.6-.615-7.876-8.643-2.113-9.025zm-93.875 14.889c8.758 6.278-12.47 12.452-1.836 1.039l1.836-1.04zm163.488 1.382c1.86 3.26 1.74 11.157-5.156 9.91-9.742-.812 3.563-7.079 5.156-9.91zm-60.144.438c2.351 1.574 6.579 7.573 2.027 9.053-2.743-.812-7.707-8.614-2.027-9.053zm34.441 4.232c22.305 1.12-10.472 10.844 0 0zm-14.535.327c8.271 11.235-19.384 1.459 0 0zm-152.955.21c24.83 2.53-11.966 10.237 0 0zm-14.518.284c8.023 11.391-19.352 1.125 0 0zm33.942 1.166c22.835 4.751-11.791 9.39 0 0zm113.91 4.683c7.266 6.615-10.608 13.305-2.664 1.451l2.664-1.45zm-104.002 3.157c15.328 13.015-9.415 9.187 0 0zm169.69 1.714c13.277 7.972-5.833 15.297 0 0zm-74.452 12.282c7.598 6.694-11.53 12.823-2.396 1.218l1.718-1.209.678-.01zm-85.26 2.421c15.03 13.482-9.715 8.848 0 0zm169.635 1.866c14.292 14.38-10.096 8.386 0 0zm-93.926 12.545c.083 0 .167.004.252.015 7.545 5.835-9.676 13.281-2.896 2.334.41-1.08 1.397-2.342 2.644-2.35z" style="fill:#e6e6e6;fill-opacity:.871111;fill-rule:evenodd;stroke-width:.952195;stroke-linecap:round;stroke-linejoin:round;-inkscape-stroke:none;stop-color:#000" transform="scale(.26458)"/></g></svg>