<svg xmlns="http://www.w3.org/2000/svg" width="864" height="768" style="enable-background:new" viewBox="0 0 228.6 203.2"><g style="opacity:1"><path d="M168.604 101.957a1.273 1.273 0 0 0-.664.17l-86.72 50.066a1.27 1.27 0 0 0-.634 1.1v125.535c0 .453.242.872.635 1.1l42.724 24.665a1.27 1.27 0 0 0 1.27 0l42.725-24.666a1.27 1.27 0 0 0 .634-1.1V205.45c.654-.934 1.413-1.153 2.223-.892 1.117.36 2.356 1.066 3.64 1.924 2.569 1.716 0 0 8.243 4.988 16.827 9.77 36.186 20.926 51.252 29.623a1.27 1.27 0 0 0 1.27 0l42.724-24.666a1.27 1.27 0 0 0 .635-1.1v-49.335a1.27 1.27 0 0 0-.635-1.1l-108.717-62.766a1.27 1.27 0 0 0-.605-.17z" style="color:#000;font-style:normal;font-variant:normal;font-weight:400;font-stretch:normal;font-size:medium;line-height:normal;font-family:sans-serif;font-variant-ligatures:normal;font-variant-position:normal;font-variant-caps:normal;font-variant-numeric:normal;font-variant-alternates:normal;font-feature-settings:normal;text-indent:0;text-align:start;text-decoration:none;text-decoration-line:none;text-decoration-style:solid;text-decoration-color:#000;letter-spacing:normal;word-spacing:normal;text-transform:none;writing-mode:lr-tb;direction:ltr;text-orientation:mixed;dominant-baseline:auto;baseline-shift:baseline;text-anchor:start;white-space:normal;shape-padding:0;clip-rule:nonzero;display:inline;overflow:visible;visibility:visible;isolation:auto;mix-blend-mode:normal;color-interpolation:sRGB;color-interpolation-filters:linearRGB;solid-color:#000;solid-opacity:1;vector-effect:none;fill:#c47951;fill-opacity:1;fill-rule:nonzero;stroke:none;stroke-width:2.54;stroke-linecap:round;stroke-linejoin:round;stroke-miterlimit:4;stroke-dasharray:none;stroke-dashoffset:0;stroke-opacity:1;color-rendering:auto;image-rendering:auto;shape-rendering:auto;text-rendering:auto;enable-background:accumulate" transform="translate(-54.344 -101.6)"/></g></svg>