<svg xmlns="http://www.w3.org/2000/svg" width="672" height="576" style="enable-background:new" viewBox="0 0 177.8 152.4"><g style="opacity:1"><path d="M279.59 8.428c-1.57.03-3.44.388-5.684 1.168-18.14.19-36.34-.379-54.443.279-4.838 7.301-4.843 14.88-11.865 20.55-2.797 8.079-5.522 18.385-16.258 17.571-8.62 6.477-19.114-4.6-29.024 3.846-4.211-12.515-18.507 7.335-20.847-4.813-7.461-8.05-10.106-19.61-17.164-29.73-2.7-11.93-15.374-6.586-24.317-7.703h-42.92C46.245 13.332 49.487 26.735 40.2 32.367c-.195 6.698-7.79 12.427-7.771 16.875 7.242 3.89 3.28 15.411 12.023 17.6 3.891 5.95 2.302 14.657 10.164 17.402-1.765 10.252 15.406 7.898 6.453 13.21-4.524 1.692-4.34 10.94-11.597 14.857.604 9.044-7.416 11.431-11.319 19.601 3.474 8.75-14.739 10.477-2.193 19.623 6.413 13.197 15.107 25.908 22.072 38.988 14.017-1.967-2.22 10.462-6.093 13.518-3.562 10.921-6.477 14.1-13.635 23.615-.679 8.283-12.117 13.356-.69 23.502 6.816 9.963 10.832 21.675 19.471 29.852-2.527 7.556 16.97 7.085-.031 10.17 6.666 8.58-14.62 10.21-7.453 18.789-9.684 7.026-9.872 17.339-18.426 26.035 6.726 4.575 5.578 14.252 12.135 19.682 4.004 9.987 11.225 18.013 15.261 27.771 12.4-.824-3.804 7.628-6.906 13.057-5.68 6.666-2.41 15.107-11.09 19.21-3.682 5.897-2.15 13.653-9.273 16.333 7.047 5.246 5.503 15.986 14.246 19.148-.268 8.381 4.941 13.261 10.77 18.766 20.002 1.007 41.253.143 61.736.431 8.387-8.318 12.127-19.878 18.93-29.662.35-18.694 19.229-3.64 28.322-11.68 5.492 9.307 16.294-4.83 21.695 2.944 7.672-1.993 16.058 1.398 16.055 9.707 1.985 6.66 9.843 9.625 9.59 16.605 3.735 9.24 10.67 14.412 20.859 12.086h51.383c6.556-7.015 9.199-17.602 15.697-25.029 6.137-5.734 4.176-18.591 14.06-15.336 8.572 4.13 19.712.367 29.524 1.963 8.763-.866 22.326-3.093 25.603 8.104.968 8.898 10.601 13.27 11.372 22.062 3.426 6.712 9.896 9.936 18.076 8.236 16.475-.507 34.124 1.005 49.883-.736 11.355-.795 3.87-13.36 11.699-17.893 8.407-3.073 5.939-19.168 17.443-20.832 10.391 2.364 19.902-.816 30.147 1.059 8.762-.92 20.37-2.774 26.154 5.043 2.377 7.13 5.763 13.55 10.889 19.355 1.225 8.655 8.213 16.613 17.828 14.004 18.198-.526 37.779 1.05 55.12-.78 8.087-12.313 16.31-25.245 21.81-38.768-8.607-9.343-8.117-12.147-13.73-23.782-8.378.615-3.692-16.107-14.821-21.531 7.669-11.633 15.738-26.392 23.408-39.488 11.689-11.008-2.294-17.444-4.793-28.407-6.514-7.134-8.006-17.187-15.033-23.865-4.7-9.497 4.62-17.57 9.193-25.312 1.713-9.123 11.31-14.263 11.965-23.824 8.71-9.187-6.601-17.126-8.885-27.784-5.272-7.201-14.684-19.964-13.172-26.908 2.145-10.004 4.543-13.155 11.739-20.33-1.302-9.676 13.612-15.752 13.57-27.742-9.083-7.747-7.346-19.92-17.742-24.256 2.965-10.13-12.345-15.852-8.409-23.46 3.554-6.46 7.881-13.212 12.39-20.214 5.442-7.853 8.567-18.143 14.333-25.451-1.917-6.866-9.765-12.521-11.148-20.936-7-8.045-7.675-22.516-22.6-17.968-18.207.703-37.125-1.406-54.889 1.052-4.336 9.507-8.263 16.084-14.324 24.813 1.412 9.378-12.52 9.879-1.34 18.486-2.432 5.455 4.381 10.536 7.987 12.887 2.387 3.799.46 7.134 2.72 10.709-5.44-6.965-8.28-12.727-11.923-21.432-5.927-9.721-12.774-6.627-23.874-8.111-10.253.785-18.169 1.336-28.359 0-10.98 5.616-12.19-9.503-18.803-13.441 3.56-9.942-12.318-11.262-9.394-21.76-5.291-7.091-17.99-1.35-26.305-3.203h-42.05c-3.528 9.056-8.262 14.984-13.59 23.537 1.107 6.305-7.208 8.863-8.583 14.865 10.252 14.496-2.892-2.337-3.056 0-10.339.127-13.086 7.611-21.746 0-10.327 5.68-14.624-2.514-27.57 1.613-4.946 10.282-5.933 3.988-6.616-3.142-2.071-8.057-6.428-12.56-10.638-23.07-7.226.625-3.523-15.187-14.514-14.971zm-80.496 40.754c5.022 1.232 5.806 13.499-.375 6.466-1.37-1.806-3.88-5.905.375-6.466zm272.377.32c8.073 2.542-7.33 15.164-3.477 3.92.999-1.457 1.212-3.646 3.477-3.92zm-333.742 2.152c10.667 7.839-15.276 15.416 0 0zm236.494 12.487c14.353 10.817-7.987 9.04 0 0zm-75.215.234c6.603 1.598-4.869 14.944-4.502 5.396 1.437-1.824 1.798-4.852 4.502-5.396zm-90.13 1.21c15.9 12.985-9.826 9.62 0 0zm253.403.731c6.769 1.52-5.004 14.724-4.511 5.391 1.42-1.866 1.788-4.834 4.511-5.39zm-333.197 2.496c8.725 8.472-14.307 11.264 0 0zm418.393 9.82c.215.245.373.486.636.733 13.309 8.662-.3 14.482.149.254-.28-.338-.518-.655-.785-.986zm-258.582 2.065c8.537 8.586-15.166 10.514 0 0zm94.777.104c16.379 15.004-10.177 8.65 0 0zm-164.793 1.3c13.874 10.7-8.694 9.073 0 0zm233.82.852c8.78 8.527-14.298 12.646 0 0zm-333.152 2.504c8.823 10.373-14.39 10.52 0 0zm459.41 7.15a40.57 40.57 0 0 1 1.633.026c7.23 10.78-17.183.06-1.633-.026zm16.826.045c15.245-.06-7.238 10.797-.754.012.262-.007.512-.01.754-.012zm-314.742.358c14.65 13.601-9.822 9.851 0 0zm280.459.03c9.591 11.44-21.819.634 0 0zm-483.66.175c18.997.198-8.564 10.186 0 0zm145.728.193c18.608.639-7.114 10.74 0 0zm-126.638.309c19.22.862-7.574 10.413 0 0zm318.543.008c8.062 11.28-20.423.36 0 0zm15.097.168c17.472-.028-7.589 10.715-.865.01.3-.007.588-.01.865-.01zm-34.328.033c7.7 11.54-19.81.353 0 0zm-129.433.635c6.079 10.926-16.531.357 0 0zm-24.065.515c18.689-.079-6.936 11.263 0 .002v-.002zm205.445 1.147c14.686 10.33-7.552 9.423 0 0zm-61.343 1.71c8.908 9.113-13.56 12.02 0 0zm168.431.112c8.665 7.792-13.818 12.43 0 0zm-331.675.361c7.917 10.499-13.688 10.345 0 0zm-108.805.022c17.67 12.083-9.364 8.997 0 0zm174.312 12.039c16.746 16.072-10.878 7.817 0 0zm169.12 2.045c16.811 13.912-9.721 9.183 0 0zm-331.58 1.123c15.01 11.168-8.378 9.956 0 0zm251.212 1.234c8.744 8.472-14.261 11.31 0 0zm-164.084.059c6.975 1.562-5.139 14.62-4.533 5.36 1.427-1.867 1.816-4.806 4.533-5.36zm332.436.103c4.628 4.268-1.648 7.385-5.764 11.235-.577 1.51-1.352 2.951-2.619 4.173-.13.053-.23.126-.353.182-.312 1.42.018 2.972 1.38 4.717-4.83 11.01-9.226-1.142-1.38-4.717.35-1.598 1.542-3.017 2.972-4.355 1.603-4.196 1.6-8.953 5.764-11.235zM298.52 127.21c15.765 13.597-10.366 8.495 0 0zm169.739 1.805c14.968 11.223-8.556 9.761 0 0zm-331.756 1.134c13.596 11.397-8.108 9.685 0 0zm67.078 1.11c9.977 8.458-15.921 12.977 0 0zm165.37.566c9.5 8.22-14.283 14.268 0 0zm106.874 8.4c18.586 1.268-7.513 10.482 0 0zm-333.137 1.352c18.57 1.36-7.666 10.417 0 0zm376.252.27c8.243 11.526-18.586.094 0 0zm-208.175.172c10.927-.286-9.956 17.41-4.508 4.23 1.706 2.63-2.692-5.022 1.88-3.92 1.03-.193 1.9-.291 2.628-.31zm184.927.191c16.876-.068-7.872 10.794-.836.012.29-.007.568-.01.836-.012zm-145.078.062c.268 0 .545.002.834.006 8.157 12.056-17.677.078-.834-.006zm-23.097.583c18.878.351-8.778 9.92 0 0zm37.16.03c13.514 10.74-7.694 10.093 0 0zm-180.428.321a35.606 35.606 0 0 1 1.615.018c7.87 11.991-16.985.188-1.615-.018zm347.568.264c14.574 10.548-7.437 11.247 0 0zm-369.265.107c16.947-.045-7.95 10.775-.84.01.29-.006.57-.01.84-.01zm35.935 1.301c15.01 13.3-9.554 10.111 0 0zm274.38.148c8.31 8.82-15.377 10.238 0 0zm-333.339 1.817c9.226 9.288-13.91 12.126 0 0zm234.532 12.777c13.565 10.478-7.438 10.996 0 0zm-74.344.332c8.908 9.115-14.594 12.57 0 0zm241.713.14c13.241 8.949-7.012 10.425 0 0zm-79.4.76c8.389 8.854-14.598 10.864 0 0zM207.02 162.11c17.32 15.58-10.666 8.112 0 0zm-76.394 1.698c8.982 5.227-12.018 14.354-2.096 1.261l2.096-1.261zM383.56 176.34c16.267 14.75-10.098 8.742 0 0zm167.923.17c15.716 11.47-8.614 9.268 0 0zm-261.394.033c8.744 9.06-14.6 12.254 0 0zm162.148.832c7.951 2.777-7.654 14.954-4.027 4.305 1.17-1.509 1.663-4.124 4.027-4.305zm-235.117 1.002c15.137 9.672-7.293 9.576 0 0zm-96.482 1.867c8.91 8.18-14.704 11.115 0 0zm-40.24 8.676c.499-.002 1.04.009 1.626.033 7.957 12.043-17.107.025-1.627-.033zm15.851.24c18.664.438-7.487 10.685 0 .002v-.002zm482.31.897c.665.007 1.418.044 2.266.117 6.927 12.04-15.032.14-2.9-.115.202-.005.413-.005.635-.002zm16.713.101c22.104.382-9.928 11.048 0 0zm-35.406.31c.568.006 1.19.055 1.877.145 5.642 1.969-12.64 16.431-8.978 5.787 1.852-3.952 3.13-5.97 7.101-5.931zm-330.273.282c9.93.001-9.185 14.493-9.244 8.738 1.67-3.103 3.471-6.673 6.117-8.414 1.024-.18 1.897-.28 2.633-.312.172-.008.336-.012.494-.012zm161.85.057c11.523-.053 3.523 5.162-.796 6.18-7.217 14.143-6.859-4.167.795-6.18zm-121.645.14c11.843 10.83-22.986 1.596 0 0zm140.783.356c21.604-.137-7.833 11.446 0 0zm19.418.088c20.863.181-8.969 11.3 0 0zm-182.79.113c.5-.002.957.006 1.376.025 12.562.582-9.597 10.42-2.994.016.582-.026 1.12-.039 1.619-.041zm-131.9.197c14.593 10.243-7.8 11.12 0 0zm166.64 2.613c14.992 9.864-7.386 9.526 0 0zm165.722.37c15.859 10.274-8.093 9.946 0 0zm-323.703 13.795c17.335 15.555-10.67 8.112 0 0zm422.775.59c8.75 10.417-14.482 10.448 0 0zm-87.91 1.24c14.407 10.757-7.837 9.186 0 0zm-166.137.011c15.399 13.306-10.209 8.732 0 0zm-77.127.498c8.717 8.481-14.253 11.244 0 0zm164.588.149c8.816 8.423-14.2 11.487 0 0zm-246.29 13.988c15.213 10.877-8.334 9.97 0 0zm403.456.914c9.059 8.153-13.73 11.932 0 0zm-68.894.961c13.697 9.781-7.315 10.811 0 0zm-166.32.147c16.877 14.887-10.146 8.686 0 0zm-96.55.265c8.86 8.252-14.799 11.06 0 0zm165.266.51c8.837 9.251-13.887 12.583 0 0zm125.02 8.791c.451-.001.865.009 1.244.03 11.376.61-8.822 10.269-2.713.007a33.758 33.758 0 0 1 1.469-.037zm-19.2.008c.452-.001.865.009 1.245.03 11.374.61-8.824 10.268-2.713.007a33.768 33.768 0 0 1 1.468-.037zm36.961.103c20.328.323-8.622 11.42 0 0zm-204.002.403c18.53 1.027-8.117 10.312 0 0zm-167.462.68c9.279.069 1.887 3.524.35 9.193-3.582 7.307-7.44-1.327-2.747-4.961l-.719-2.608 2.164-1.62c.335-.006.652-.007.952-.005zm19.828.326c.424 0 .813.01 1.17.033 10.701.661-8.17 10.814-2.551.004.496-.025.956-.037 1.38-.037zm17.82.162c20.967.459-8.647 11.247 0 0zm172.094.109c.268.002.546.007.836.016 8.088 12.151-17.725-.162-.836-.016zm-22.477.232c16.905.007-7.98 10.75-.836.008.29-.005.568-.008.836-.008zm-130.506.237c15.042 11.186-8.456 9.873 0 0zm332.475.771c13.39 9.452-8.324 10.134 0 0zm-165.82.055c14.766 13.504-9.748 9.912 0 0zm105.656 3.742c9.276 8.956-14.758 12.86 0 0zm-166.152.496c9.002 8.885-14.29 12.28 0 0zm-96.399 11.36c16.789 14.387-9.666 8.619 0 0zm332.45.783c16.946 13.992-9.732 9.165 0 0zm-167.258.937c17.316 15.669-10.718 8.058 0 0zm-241.426 1.026c8.708 8.555-14.305 11.35 0 0zm329.336 2.09c8.622 8.642-14.365 11.299 0 0zm-165.864.634c6.859 1.393-4.951 14.743-4.504 5.397 1.413-1.877 1.794-4.82 4.504-5.397zm-78.166 11.457c14.503 12.875-9.446 10.408 0 0zm333.381.366c16.167 14.146-10.482 8.183 0 0zm-167.912 1.168c13.053 9.605-7.541 11.005 0 0zm-260.4.837c10.017 7.565-16.59 14.376 0 0zm330.162 2.584c8.738 5.063-11.001 15.022-2.244 1.418l2.244-1.418zm-166.631.237c8.435 10.32-13.919 10.496 0 0zm103.87 7.527c18.753.736-7.03 10.984 0 0zm-164.794.098c21.892.889-8.367 11.128 0 0zm376.389.527c.245 0 .5.004.765.01 6.072 10.88-16.24-.043-.765-.01zm-335.865.035c.76.004 1.665.064 2.732.19 6.828 12.236-14.148-.242-2.732-.19zm317.35.205c6.863 10.844-16.912.547-1.237.01l1.236-.01zm-20.792.116c.518.008 1.064.06 1.643.16 3.909.874-11.41 14.826-11.52 7.96 2.47-4.092 4.713-7.93 9.37-8.115a9.03 9.03 0 0 1 .507-.005zm-317.992.03c22.186.161-9.23 11.499 0 0zm-167.004.686c17.377.021-7.745 10.674-.86.008.298-.005.584-.008.86-.008zm23.256.096c7.472 11.681-19.673.207 0 0zm308.57.207c18.404-.15-7.198 10.865 0 .002v-.002zm24.059.26c7.633 11.637-19.84.166 0 0zm14.076.222c13.984 10.829-7.705 10.64 0 0zm-165.85.016c14.34 13.17-10.536 9.101 0 0zm-167.464.752c16.188 15.886-10.783 7.919 0 0zm108.318 1.863c7.549 6.622-10.073 12.808-2.268 1.364l2.032-1.362.236-.002zm166.812.448c8.911 8.203-14.662 11.248 0 0zm67.7 13.59c14.164 9.927-8.217 10.307 0 0zm-166.963.538c16.736 14.993-10.4 8.44 0 0zm257.236.569c8.229 9.668-14.35 12.052 0 0zm-424.473.088c17.223 15.543-10.574 8.205 0 0zm256.55 1.55c8.55 8.687-14.442 11.071 0 0zm-165.93.2c8.719 8.514-14.304 11.31 0 0zm253.058 13.787c12.944 10.251-7.574 10.882 0 0zm-167.17.63c16.26 14.999-10.215 8.612 0 0zm238.37.391c8.803 10.451-14.3 10.576 0 0zm-405.452.125c14.193 9.877-8.093 10.423 0 0zm71.656 1.713c8.707 9.245-13.67 11.278 0 0zm166.442.057c10.406 7.856-15.876 15.366 0 0zm149.023 9.033c9.814 10.415-22.643 1.689 0 0zm-321.687.016c12.66 11.39-8.472 7.442 0 0zm300.213.064c.668.001 1.424.033 2.275.098 6.847 12.02-15.11.281-2.914-.088.203-.006.416-.01.639-.01zm-357.608.069c18.622 2.149-7.609 10.612 0 0zm212.26 1.251c10.983 10.711-22.054 1.684 0 0zm128.422.061c8.662 11.075-18.637 1.168 0 0zm-115.348.566c13.8 13.167-10.894 9.373 0 0zm-54.275.045c19.697.323-12.856 11.05-2.072.002a63.17 63.17 0 0 1 2.072-.002zm17.129.041c21.578.659-9.062 11.06 0 0zm-145.242.063c11.132 10.694-21.64 2.061 0 0zm-24.004.617c18.546.201-7.723 10.653 0 0zm372.925.037c14.036 12.342-8.638 8.988 0 0zm-60.273 2.225c8.799 8.433-14.16 11.457 0 0zm-166.209.847c11.029 7.845-16.14 15.507 0 0zm-166.92.038c8.713 5.15-11.283 14.713-2.26 1.396l2.26-1.396zm67.654 10.896c16.85 14.963-10.321 8.51 0 0zm335.286 2.523c5.053 1.04 6.145 13.494-.303 6.461-1.21-1.891-3.73-5.696.303-6.46zm-168.49.268c17.13 15.746-10.841 7.926 0 0zm89.341 2.178c8.764 9.315-14.268 12.092 0 0zm-332.746 1.172c8.762 8.448-14.27 11.315 0 0zm167.053.015c8.749 8.473-14.264 11.299 0 0zm-80.703 10.465c15.609 13.65-10.403 8.445 0 0zm167.02 2.514c15.022 9.818-7.431 9.474 0 0zm167.868.27c14.318 13.015-10.47 9.203 0 0zm-97.896 2.349c8.706 9.303-13.839 12.487 0 0zm-166.315.812c10.013 8.415-15.757 13.082 0 0zm-166.662.12c8.414 8.438-14.713 12.483 0 0zm127.12 8.414c7.928 11.476-19.403.373 0 0zm15.115.025c17.41-.12-7.737 10.73-.862.014.298-.008.585-.012.862-.014zm293.859.354c20.605-.15-6.776 11.87 0 0zm-460.607.199c18.621-.157-7.105 10.92 0 0zm-15.098.004c.269 0 .549.002.84.007 8.312 12.069-17.772.02-.84-.007zm495.918.027c20.887-.007-9.528 11.15-1.033.01.357-.006.701-.01 1.033-.01zm-295.674.088c16.189 8.305-7.165 9.618 0 0zm314.106.049c19.106.279-8.605 10.181 0 0zm-366.733.076c7.346 13.342-16.948 4.675-.762.047l.592-.041.17-.006zm187.33.283c.497-.004 1.036.004 1.617.024 7.041 10.819-17.03.095-1.617-.024zm16.086.174c22.508 1.397-10.952 10.5 0 0zm-33.646.685c6.01 7.676-24.02 13.129-4.998.415l4.828-.407.17-.008zm-283.162.362c17.424 10.364-7.66 10.612 0 0zm333.964 3.154c14.997 9.908-7.365 9.56 0 0zm107.125.457c11.287 7.452-15.286 16.001 0 0zm-265.859 10.926c16.777 15.715-10.705 8.036 0 0zm-73.582.523c10.554 5.932-16.86 16.354 0 0zm-90.502.444c14.41 10.734-7.83 9.194 0 0zm254.586 1.435c8.867 9.61-14.275 11.08 0 0zm78.96 2.244c13.466 11.2-8.178 9.526 0 0zm88.241 1.805c8.858 8.362-14.124 11.497 0 0zm-248.224 10.281c15.672 14.197-10.461 8.099 0 0zm-93.188.114c8.861 8.223-14.768 11.027 0 0zm-71.055.912c14.641 14.628-10.63 8.455 0 0zm235.637 1.148c7.192 9.794-12.265 8.794-.244.006l.244-.006zm97.844 2.518c15.813 14.823-10.2 8.648 0 0zm68.873 1.297c8.564 8.57-15.229 10.54 0 0z" style="fill:#e6e6e6;fill-opacity:.871111;fill-rule:evenodd;stroke-width:.952195;stroke-linecap:round;stroke-linejoin:round;-inkscape-stroke:none;stop-color:#000" transform="scale(.26458)"/></g></svg>