<svg xmlns="http://www.w3.org/2000/svg" width="7in" height="960" style="enable-background:new" viewBox="0 0 177.8 254"><g style="opacity:1"><path d="M212.466 76.43a1.274 1.274 0 0 0-.695.169l-86.594 49.996a1.27 1.27 0 0 0-.465.465l-43.654 75.61a1.27 1.27 0 0 0-.17.634v99.99c0 .701.569 1.27 1.27 1.27h85.449a1.27 1.27 0 0 0 1.27-1.27v-99.658c9.695-7.164 21.4-12.538 32.042-19.172l.037-.022 54.809-31.642a1.27 1.27 0 0 0 .465-1.735l-42.725-74.002a1.27 1.27 0 0 0-1.039-.634z" style="color:#000;font-style:normal;font-variant:normal;font-weight:400;font-stretch:normal;font-size:medium;line-height:normal;font-family:sans-serif;font-variant-ligatures:normal;font-variant-position:normal;font-variant-caps:normal;font-variant-numeric:normal;font-variant-alternates:normal;font-feature-settings:normal;text-indent:0;text-align:start;text-decoration:none;text-decoration-line:none;text-decoration-style:solid;text-decoration-color:#000;letter-spacing:normal;word-spacing:normal;text-transform:none;writing-mode:lr-tb;direction:ltr;text-orientation:mixed;dominant-baseline:auto;baseline-shift:baseline;text-anchor:start;white-space:normal;shape-padding:0;clip-rule:nonzero;display:inline;overflow:visible;visibility:visible;isolation:auto;mix-blend-mode:normal;color-interpolation:sRGB;color-interpolation-filters:linearRGB;solid-color:#000;solid-opacity:1;vector-effect:none;fill:#c47951;fill-opacity:1;fill-rule:nonzero;stroke:none;stroke-width:2.54;stroke-linecap:round;stroke-linejoin:round;stroke-miterlimit:4;stroke-dasharray:none;stroke-dashoffset:0;stroke-opacity:1;color-rendering:auto;image-rendering:auto;shape-rendering:auto;text-rendering:auto;enable-background:accumulate" transform="translate(-79.744 -76.2)"/></g></svg>