<svg xmlns="http://www.w3.org/2000/svg" width="576" height="576" style="enable-background:new" viewBox="0 0 152.4 152.4"><g style="opacity:1"><path d="M231.57 9.008c-1.523-.026-3.18.174-4.96.613h-54.985v.004c-2.739 8.625-1.075 12.744-10.033 17.371-2.096 8.263-1.177 11.977-9.635 16.674-5.206 6.557-16.692 8.05-22.684 4.367-10.552 2.868-14.186 1.314-25.574-.012-5.566 2.127-10.733 9.031-15.728 10.455-7.255 8.095 2.37 15.219-9.317 16.137-7.012 7.78 1.067 15.103-10.045 17.397 3.888 4.621.44 20.659 11.387 19.521.357 9.157 2.914 15.654 11.065 21.674-7.443 10.946 18.543 4.63 6.046 11.826-6.514-2.256-1.787 10.299-9.525 10.106-3.921 9.538-6.056 14.21-12.77 22.115 4.485 7.752-10.15 8.892-4.251 15.176-5.354 9.7 12.019 13.508 8.806 22.205 6.299 8.718 9.737 12.19 12.79 22.15 10.138-4.178 7.113 12.734-.62 7.516-5.636 8.886-4.474 15.544-12.564 21.765-1.179 8.485-8.892 13.3-12.24 21.502 7.162 3.232 3.112 13.313 9.794 16.528 6.991 3.507 2.91 11.292 8.45 16.25 8.455 5.36 4.065 13.924 16.218 14.687-9.633-.023-8.874 10.55-16.322 16.776-.21 7.069-5.715 10.748-9.586 16.597.14 6.833-6.574 10.637-8.586 16.258 6.736 7.742 8.171 16.728 16.362 22.357-4.53 9.405 12.497 12.318 9.296 22.082 9.253 2.039 16.062 4.912 23.912-1.298 3.854 12.607 17.142-5.781 21.547 4.16 6.46.852 16.108-4.017 16.84 5.9-2.484 7.84 10.267 9.939 9.238 17.451 1.443 6.204 7.513 14.093 13.766 15.053h58.293c8.676-6.782 9.602-17.984 16.844-25.426 1.437-8.42 8.222-22.994 16.451-12.974 9.575-.635 17.141-1.132 26.703-.008 6.79-2.107 16.241-1.29 21.758 1.892 5.48 8.901 7.842 16.115 15.643 22.739-3.958 7.093 6.49 13.986 13.666 13.775h55.962c8.035-9.487 12.611-21.135 19.586-31.517-1.684-15.541 13.465-3.53 22.098-7.567 10.179 2 20.341-1.161 30.057.645 11.233 3.44 7.305-10.042 14.554-12.621 4.716-8.973 8.49-15.913 14.036-24.297 6.83-7.297 6.822-14.372-.766-20.444-2.342-10.666-10.137-16.934-13.994-27.25-11.833-3.219-4.345-14.47-1.035-22.648 8.355-11.697 15.677-24.58 21.699-37.557-6.995-9.077-9.383-13.07-13.555-23.48-8.617-1.907-5.217-16.743-14.885-23.043 4.749-6.625 9.928-15.837 14.754-24.082 5.109-7.346 8.172-16.678 13.211-22.865-.53-8.325-8.64-15.362-11.945-24.024-4.98-8.492-10.2-17.05-14.805-25.64 3.866-8.654 6.903-14.067 12.549-21.733.52-8.826 11.414-12.876 10.855-22.29 8.459-7.842-5.798-14.564-6.564-22.776-5.825-6.497-8.118-13.468-12.215-21.155-4.138-14.868-16.353-2.863-24.652-8.011-10.74.637-17.986.787-28.684.002-3.567 2.997-15.922 13.514-10.203 1.507 4.336-7.789-6.686-15.604-9.312-23.67-6.71-3.924-4.52-18.292-14.487-16.232h-61.392c-3.945 7.334-7.26 13.986-12.026 20.832-2.518 6.345-6.696 11.556-10.144 17.563-9.402-2.17-14.371 7.834-21.44-.008-7.96-.944-12.655 7.488-19.26.008-6.02-.447-11.318 2.521-15.232 4.07-8.627 13.589-4.061-3.014-1.103-6.86-7.207-7.269-7.508-17.6-15.895-24.11-.535-7.632-4.614-11.997-11.217-12.108zm-80.486 40.449c14.993 9.864-7.385 9.527 0 0zm165.723.371c15.859 10.274-8.093 9.947 0 0zm99.072 14.385c8.524 9.616-14.658 12.307 0 0zm-254.047 1.24c15.399 13.306-10.21 8.732 0 0zm166.137 0c14.407 10.758-7.837 9.187 0 0zm-78.676.647c8.816 8.422-14.2 11.486 0 0zm157.166 14.902c9.059 8.153-13.73 11.932 0 0zm-68.895.96c13.745 8.872-7.944 10.8 0 0zm-166.32.145c16.878 14.888-10.146 8.687 0 0zm68.717.778c8.605 9.816-13.31 11.202 0 0zm105.111 8.81c15.366-.14-6.984 10.687-.76.016.264-.008.516-.013.76-.016zm19.2 0c15.368-.141-6.984 10.688-.76.016.263-.008.516-.013.76-.016zm18.47.076c21.837.25-9.891 11.316 0 0zm-204 .391c18.5.99-8.069 10.335 0 0zm42.274 1.299c.268.002.548.009.838.018 8.098 12.158-17.73-.178-.838-.018zm-22.473.23c16.905.007-7.98 10.75-.836.008.29-.005.568-.008.836-.008zm201.969 1.01c13.15 10.31-8.127 9.83 0 0zm-165.82.053c14.766 13.504-9.748 9.912 0 0zm105.656 3.742c8.628 9.795-14.122 11.025 0 0zm-166.153.488c9.01 8.838-14.263 12.238 0 0zm236.051 12.15c16.948 13.994-9.732 9.166 0 0zm-167.258.938c17.317 15.669-10.717 8.058 0 0zm87.91 3.115c10.257 7.211-16.185 15.24 0 0zm-165.863.627c8.946 9.55-14.623 11.423 0 0zm255.215 11.83c16.172 14.161-10.486 8.169 0 0zM252.34 128.8c13.218 10.493-7.66 10.132 0 0zm69.76 3.435c8.738 5.063-11.002 15.022-2.245 1.418l2.245-1.418zm-166.631.235c8.513 10.183-13.986 10.568 0 0zm103.869 7.527c18.791.829-6.746 11.391 0 .012v-.012zm211.465.637c.242-.002.493-.002.754.002l.142-.002c6.086 10.88-16.13.132-.896 0zm-334.596.187c.49-.004 1.02.003 1.594.024 7.969 11.98-16.76.12-1.594-.024zm314.959.016c12.934 9.878-18.74 2.405 0 0zm-336.69.133c17.014-.209-7.845 10.864-.841.02.291-.01.572-.017.842-.02zm317.104 0a8.459 8.459 0 0 1 1.688.154c3.474 2.869-8.262 9.627-11.655 10.404.657-5.22 4.549-10.517 9.967-10.558zm-153.123 1.004c18.397-.153-7.189 10.867 0 0zm22.05.209c.594-.009 1.261.01 2.009.058 4.471 11.18-13.459.478-2.577-.04.182-.01.371-.015.569-.018zm-149.765.279c14.334 13.147-10.538 9.105 0 0zm165.85 0c13.799 10.617-7.378 10.888 0 0zm-58.184 3.062c8.91 8.204-14.662 11.249 0 0zm67.7 13.59c13.863 10.596-7.339 10.932 0 0zm-166.963.537c16.764 15.035-10.414 8.424 0 0zm257.236.57c8.415 10.224-14.136 10.468 0 0zm-167.924 1.637c8.55 8.687-14.442 11.07 0 0zm87.129 13.975c12.82 9.746-7.546 10.407 0 0zm-167.17.645c16.26 14.998-10.215 8.611 0 0zm238.37.39c8.552 9.692-14.434 12.381 0 0zm-167.354 1.895c10.406 7.856-15.876 15.366 0 0zm147.627 8.996c.43 0 .895.011 1.396.035 4.96 10.774-13.475.675-2.584 0 .363-.023.758-.035 1.188-.035zm-20.077.115c.668.001 1.422.032 2.274.098 6.844 12.022-15.108.277-2.912-.09.203-.006.416-.008.638-.008zm-145.35 1.324c8.419 9.923-18.938.84 0 .016v-.016zm128.575.055c8.307 12.124-18.762.234 0 0zm-115.5.568c13.802 13.168-10.894 9.375 0 0zm-56.348.037c21.256.311-9.105 11.224 0 0zm19.202.045c21.1.476-8.55 11.4 0 0zm203.443.715c13.77 9.209-7.585 10.893 0 0zm-60.037 2.225c8.796 8.43-14.159 11.453 0 0zm-166.21.847c11.056 7.808-16.186 15.58 0 0zm236.02 13.45c13.591 9.976-7.296 10.776 0 0zm-168.49.275c17.13 15.746-10.84 7.926 0 0zm89.342 2.178c8.484 10.024-14.074 10.588 0 0zm-165.693 1.187c8.749 8.471-14.263 11.298 0 0zm86.316 12.979c15.024 9.82-7.427 9.477 0 0zm167.87.267c14.32 13.032-10.469 9.202 0 0zm-97.897 2.352c8.806 9.898-13.602 10.912 0 0zm-166.315.81c9.053 6.35-12.517 12.514-1.941 1.108l1.941-1.107zm-41.523 8.51a57.5 57.5 0 0 1 1.98.024c9.775 11.186-20.813.092-1.98-.024zm17.095.047c17.402-.13-7.719 10.739-.86.016.297-.008.584-.014.86-.016zm294.737.346c17.738-.009-7.51 11.806-.877.01.303-.007.595-.01.877-.01zm-142.114.092c.806-.001 1.551.197 2.096.666 6.486 8.988 17.508-4.218 24.184 3.15 1.57-.224 2.878-.183 4.035.012l.014-.002.003.008c7.358 1.256 7.254 10.166 10.827 16.527 5.407-2.59 12.132 14.965 2.5 6.582-2.194-9.25-10.915-17.114-13.327-23.11-.006 0-.01-.004-.017-.005-11.403 1.903-21.472-1.772-32.941 1.738-5.504-1.808-.865-5.562 2.626-5.566zm160.416.16c21.55.008-8.221 11.203 0 0zm-294.638.064c16.168 7.536-7.03 10.175 0 0zm314.103.057c19.109.283-8.603 10.181 0 0zm-197.13 1.232c8.57 6.584-23.266 14.286-6.672 1.471l1.843-1.064 4.828-.407zm158.095 3.963c11.288 7.454-15.287 16.005 0 0zm-265.86 10.926c16.7 15.619-10.672 8.074 0 0zm90.503 2.396c7.286 10.16-11.777 8.15-.016.004-.004-.002.012.001.016-.004zm167.2 4.055c8.86 8.36-14.124 11.5 0 0zM168.33 269.316c15.682 11.568-9.5 10.25 0 0zm71.387 2.176c8.291 6.576-10.646 12.155-1.889 1.195l1.889-1.195zm98.092 2.512c15.49 12.82-10.07 9.733 0 0zm68.873 1.3c8.559 8.582-15.24 10.547 0 0zm-227.998 9.012c16.764 2.065-10.714 15.172-2.286 3.12-2.086-2.979 2.292-1.67 2.286-3.12zm188.765 1.14c.503 0 1.047.01 1.635.034 6.816 10.512-15.68.648-3.02-.002.422-.021.883-.033 1.385-.033zm17.483.177c15.605.134-8.28 10.977-1.637.021a40.05 40.05 0 0 1 1.637-.021zm-163.248.021c8.822 11.98-18.533.179 0 0zm126.873.264a28.79 28.79 0 0 1 1.38.016c5.259 10.823-14.567.172-1.38-.016zm-150.069.523c17.118.141-7.664 11.126-.847.002.293-.003.576-.004.847-.002zm35.442 2.069c14.551 10.572-7.77 9.23 0 0zm166.845 1.006c13.269 10.545-7.567 10.499 0 0zm-60.406 1.26c8.83 7.77-15.361 11.072 0 0zm-171.207 11.01c8.382 9.014-14.234 11.728 0 0zm74.652 3.091c16.953 14.113-9.79 9.105 0 0zm166.278 1.402c13.86 9.126-8.141 11.114 0 0zm-80.16.584c7.914 2.187-7.446 15.696-3.907 4.282 1.122-1.595 1.56-3.946 3.907-4.282zm-170.907 11.28c8.615 8.508-15.146 10.568 0 0zm94.815 3.22c13.706 11.025-8.233 9.37 0 0zm166.29 1.348c14.653 10.371-7.756 9.212 0 0zm-99.79.805c6.055 3.148-1.451 7.051-3.631 10.818.035.951.016 1.897-.219 2.814 11.654 2.628 2.17 17.573-.93 2.069.46-.667.75-1.36.93-2.069-.05-.011-.087-.032-.138-.043-.41-.906-.185-1.834.357-2.771-.147-3.963-1.63-8.041 3.63-10.818zm131.139 8.693c.273-.002.557 0 .853.004 7.976 11.82-18.088.102-.853-.004zm15.15.584c18.693.893-7.482 10.797 0 0zm-181.977.195c.5-.004 1.04.002 1.623.02 7.192 10.768-17.087.123-1.623-.02zm16.727.217c16.998.08-7.919 10.766-.842.006v-.002c.291-.004.572-.005.842-.004zm-34.238.41c10.977 11.48-23.674-.182 0 0zm-153.327.139c17.041.055-7.807 10.992-.843.006.292-.005.573-.007.843-.006zm319.385.383c8.689 11.796-18.996 1.153 0 0zm-301.158.068c19.952-.187-7.057 11.708 0 0zm19.29.824c13.881 13.27-10.821 9.378 0 0zm105.675 2.87c7.595 9.812-11.8 8.737 0 0zm167.098.769c9.193 5.353-12.752 13.987-1.944 1.113l1.944-1.113zM159.02 352.582c16.87 15.494-10.69 8.075 0 0zm168.107 1.676c9.488 3.848 1.364 14.214-1.977 3.633-1.08-1.536.396-3.59 1.977-3.633zm-79.178.547c8.666 8.587-14.32 11.256 0 0zm166.143.17c8.458 10.099-14.145 10.6 0 0zM168.859 369.05c14.776 10.274-7.587 9.352 0 0zm168.274 1.68c16.39 14.082-10.42 8.227 0 0zm-99.225.482c8.859 8.253-14.778 11.082 0 0zm166.604.406c8.428 9.365-14.475 12.66 0 0zm-39.53 8.264c.663.009 1.413.05 2.258.125 6.823 12.08-15.003.099-2.892-.123.202-.004.413-.005.634-.002zm-187.845.033c15.198.211-13.616 23.608-.78 5.027-2.58.307-5.374-4.47-.832-4.974a18.18 18.18 0 0 1 1.612-.053zm205.392.129c16.893-.094-7.564 11.953-.836.014.29-.008.568-.013.836-.014zm-34.424.6c10.118 10.718-21.723 1.435 0 0zm-115.113.703c13.39 10.49-6.913 9.24 0 0zm167.17.28c14.636 10.488-7.623 9.358 0 0zm-182.385.815c.268.003.547.007.836.016 8.092 12.15-17.708-.16-.836-.016zm-23.228.006c18.504.082-7.341 10.776 0 0zm148.006 4.608c8.784 8.481-14.188 11.493 0 0zm-99.971 10.629c14.071 11.333-7.324 10.736 0 0zm167.852.23c15.35 13.439-10.335 8.577 0 0zm-243.848 2.59c10.52 7.432-17.198 15.161 0 0zm166.648 3.27c8.461 9.844-13.966 10.508 0 0zm-81.125 10.632c16.017 15.03-10.168 8.668 0 0zm167.725.14c13.077 10.085-7.687 10.362 0 0zm-262.988 2.548c7.405 10.495-12.537 8.428 0 0zm166.4 3.14c7.814 8.682-12.081 9.985-.893.239l.012-.018.881-.22z" style="fill:#e6e6e6;fill-opacity:.871111;fill-rule:evenodd;stroke-width:.952195;stroke-linecap:round;stroke-linejoin:round;-inkscape-stroke:none;stop-color:#000" transform="scale(.26458)"/></g></svg>