<svg xmlns="http://www.w3.org/2000/svg" width="576" height="576" style="enable-background:new" viewBox="0 0 152.4 152.4"><g style="opacity:1"><path d="M168.674 127.197a1.273 1.273 0 0 0-.664.17l-64.722 37.367a1.27 1.27 0 0 0-.635 1.1v74.734c0 .454.242.873.635 1.1l64.722 37.365a1.27 1.27 0 0 0 1.27 0L234 241.668a1.27 1.27 0 0 0 .635-1.1v-74.734a1.27 1.27 0 0 0-.634-1.1l-64.721-37.367a1.27 1.27 0 0 0-.606-.17z" style="color:#000;font-style:normal;font-variant:normal;font-weight:400;font-stretch:normal;font-size:medium;line-height:normal;font-family:sans-serif;font-variant-ligatures:normal;font-variant-position:normal;font-variant-caps:normal;font-variant-numeric:normal;font-variant-alternates:normal;font-feature-settings:normal;text-indent:0;text-align:start;text-decoration:none;text-decoration-line:none;text-decoration-style:solid;text-decoration-color:#000;letter-spacing:normal;word-spacing:normal;text-transform:none;writing-mode:lr-tb;direction:ltr;text-orientation:mixed;dominant-baseline:auto;baseline-shift:baseline;text-anchor:start;white-space:normal;shape-padding:0;clip-rule:nonzero;display:inline;overflow:visible;visibility:visible;isolation:auto;mix-blend-mode:normal;color-interpolation:sRGB;color-interpolation-filters:linearRGB;solid-color:#000;solid-opacity:1;vector-effect:none;fill:#c47951;fill-opacity:1;fill-rule:nonzero;stroke:none;stroke-width:2.54;stroke-linecap:round;stroke-linejoin:round;stroke-miterlimit:4;stroke-dasharray:none;stroke-dashoffset:0;stroke-opacity:1;color-rendering:auto;image-rendering:auto;shape-rendering:auto;text-rendering:auto;enable-background:accumulate" transform="translate(-92.444 -127)"/></g></svg>