<svg xmlns="http://www.w3.org/2000/svg" width="864" height="288" style="enable-background:new" viewBox="0 0 228.6 76.2"><g style="opacity:1"><path d="M456.387 8.756c-2.195-.089-4.666.179-7.483.855H398.94c-1.025 10.652-11.823 15.804-13.705 27.598-15.315 2.826 2.544 26.16-9.943 14.01-4.328-6.533-24.012-2.217-35.064-2.166-10.737-10.129-26.844 16.89-21.444.209 1.306-9.325-8.831-17.993-12.605-27.535-3.082-13.278-13.802-13.214-25.196-12.114-15.377.543-32.035-1.081-46.619.805-9.068 5.249-5.615 16.673-14.949 22.115-.28 8.385-8.891 12.052-7.037 18.307 1.074 1.057 2.061 2.494 2.91 4.56-1.613-1.698-2.504-3.189-2.91-4.56-6.32-6.215-16.077 2.495-23.994-2.848-9.95 2.49-16.538 1.304-27.057-.002-15.297 16.087-3.792-6.833-16.01-14.564-1.593-9.325-10.423-14.585-12.418-23.813H68.092c-7.567 8.588-7.315 16.151-16.203 25.05-5.119 8.675-9.124 15.203-.563 25.642 6.838 5.791 7.242 14.945 13.06 20.67 5.16 8.419 6.554 12.034 14.098 15.699-8.81-1.089-14.91 11.916-16.55 20.797-9.805 6.257-7.147 19.013-15.838 23.23-1.422 6.566 5.957 18.639 12.052 21.774.585 10.93 9.964 16.89 12.438 27.19 15.652 3.08-6.062 5.968-6.918 16.595-3.947 9.111-8.675 15.71-14.049 24.334-8.578 8.251-1.72 14.26 2.389 22.885 6.54 8.05 8.654 22.768 19.303 24.921h58.484c11.823-4.174 5.227-20.4 15.93-22.267 6.665-6.631-2.005-20.368 13.502-18.656 9.891 6.492 16.71-4.248 26.289 2.503 7.126-7.636 11.555-.107 20.953 0 9.709-7.542 7.083 14.717 16.9 19.313-.973 8.009 8.792 11.48 9.942 18.49 12.757 1.443 29.913.204 44.359.617 9.55-1.016 22.92 4.225 26.26-8.257 2.646-9.756 11.897-16.083 13.388-26.506 5.488-10.973 18.596.846 27.993-7.121 5.196 11.669 17.87-6.972 21.398 3.492 10.495-2.807 15.339 2.998 16.934 11.922 6.728 7.075 7.828 16.864 14.959 23.666 5.418 6.704 18.2.835 26.392 2.804h38.426c8.59-7.965 11.89-19.52 18.853-29.132-.083-17.707 10.19-10.76 20.479-9.262 8.08-4.286 17.528 2.447 27.154-2.25 4.837 4.628 22.456-1.693 18.084 10.844 8.447 10.205 9.916 12.68 14.362 24.875 6.527 6.365 19.67 5.1 30.869 4.925h36.517c8.164-7.032 10.329-17.695 17.18-26.302 2.239-8.142 10.105-20.416 17.084-12.063 11.408-5.216 18.154 1.7 27.62-2.064 9.146.526 19.638.506 24.888 10.41 1.6 11.597 11.142 13.691 12.547 25.836 5.991 5.462 17.73 4.25 27.543 4.183 13.56-.143 27.473.285 40.816-.21 7.977-11.449 14.472-23.934 21.3-36.104-1.007-9.609-10.293-14.444-11.847-25.127-9.575-3.448-4.799-17.556-15.515-21.27 1.01-5.912 4.442-14.016 10.048-19.17 4.762-10.917 11.808-19.677 17.686-30.62-3.126-7.077-6.77-17.905-13.535-23.665-.588-14.082-20.298-18.72-9.78-31.933 7.343-14.335 17.493-28.056 23.914-43.115-8.728-7.5-8.138-19.772-16.224-23.198-1.45-12.782-8.923-16.824-23.67-14.377-15.942-.053-33.54.034-48.348.092-8.924 10.211 1.527 16.494-10.32 17.879-5.116 9.795-2.72 17.35-15.11 20.436-10.438 2.848-23.46-.106-33.765-.004-11.333.846-17.671 6.099-23.977-6.21-2.09-11.21-11.254-18.432-14.74-29.066-6.913-6.772-20.405-1.415-30.015-3.127h-38.301c-2.752 8.537-6.712 13.983-12.395 21.467-.47 6.581-7.099 15.263-13.086 16.926-8.598 5.01-19.072-4.103-25.193 2.894-9.839-4.932-21.188-1.634-29.53 2.229 6.258-9.36-8.836-16.973-10.257-27.398-4.562-9.513-8.86-16.59-18.37-16.973zm88.004 39.728c14.551 10.572-7.77 9.23 0 0zm166.845 1.006c13.946 11.899-7.86 10.079 0 0zm-60.406 1.262c10.394 7.37-17.182 14.774 0 0zM479.623 61.76c8.274 9.296-14.11 11.44 0 0zm-333.95 1.04c8.306 10.012-14.137 11.893 0 0zm76.237.202c13.942 10.475-8.57 10.132 0 0zm165.076 1.059c13.695 9.858-7.404 11.172 0 0zm-75.125.77c8.722 8.53-14.27 11.388 0 0zm242.414.038c16.953 14.113-9.791 9.106 0 0zm166.278 1.402c13.701 9.896-7.576 11.18 0 0zm-80.16.584c8.307 10.386-14.06 10.422 0 0zm-170.907 11.28c9.088 5.641-13.308 13.334-1.97 1.062l1.97-1.062zm-333.888 1.084c6.042 2.64-1.107 6.946-4.909 10.892-.29 1.421-.842 2.792-2.023 4.018.168.774.794 1.495 2.104 2.135-1.845 9.31 12.578 17.422 8.08 25.093-3.306-8.558-6.052-16.766-12.426-25.527a9.376 9.376 0 0 0 2.242-1.701c-.267-1.23.658-2.6 2.023-4.018.818-4-.371-8.373 4.909-10.892zm95.757.422c14.06 10.817-7.355 11.176 0 0zm165.266 1.062c14.03 10.22-7.694 10.776 0 0zm-94.79.524c8.707 8.407-15.024 10.77 0 0zm262.47.128c14.063 11.948-8.353 9.168 0 0zm166.29 1.348c14.653 10.37-7.76 9.209 0 0zm-99.79.797c8.393 9.371-14.366 12.502 0 0zm-226.444 8.082c19.09 1.413-7.317 10.357 0 0zm357.582.62c.274-.003.558-.001.854.003 7.976 11.82-18.088.102-.854-.004zm15.15.583c18.643.904-7.507 10.777 0 0zm-182.612.094c.663.008 1.413.047 2.26.121 6.81 12.079-15.017.114-2.895-.12.202-.003.413-.004.635-.001zm17.363.318c16.998.08-7.918 10.766-.842.006v-.002c.291-.004.572-.005.842-.004zm-34.238.41c11.222 11.53-23.925-.174 0 0zm-153.327.14c17.04.054-7.808 10.991-.843.005a43.4 43.4 0 0 1 .843-.006zm319.385.382c8.69 11.795-18.996 1.156 0 0zm-301.158.066c20.803.08-7.156 11.46 0 0zm-201.742.067c8.95-.135-7.638 14.748-7.9 7.043 2.087-1.871 2.304-6.154 5.095-6.674.915-.197 1.698-.31 2.36-.352.155-.01.303-.015.445-.017zm40.416.013c8.202 12.197-18.81.1 0 0zm-190.32.108c18.602.12-7.504 10.735 0 0zm22.492.05a35 35 0 0 1 1.601.028c7.845 12.025-16.837.075-1.601-.027zm180.502.239c13.917 10.387-7.806 10.704 0 0zm-36.74.36c22.6.39-10.635 11.07 0 0zm204.681 0c13.882 13.27-10.82 9.377 0 0zm-60.166 2.286c8.966 10.118-14.436 11.255 0 0zm226.662.153c17.074 15.32-10.38 8.428 0 0zm-60.82.412c9.123 9.332-14.066 11.966 0 0zm167.097.77c8.86 8.28-14.72 11.223 0 0zm-431.25 12.702c13.963 11.156-7.971 10.09 0 0zm-76.033 1.03c8.545 7.912-14.484 11.65-.244.004l.244-.004zm242.2.181c16.87 15.494-10.69 8.075 0 0zm-77.356 1.432c8.7 8.25-14.344 12.912 0 0zm245.463.246c13.541 9.848-7.593 11.088 0 0zm-79.178.547c8.67 8.576-14.312 11.244 0 0zm166.143.17c8.37 10.285-14.078 10.514 0 0zm-411.614 12.984c14.148 11.013-7.559 9.989 0 0zm-167.033.86c13.233 8.267-7.062 10.327-.24.015h.24v-.015zm71.285.035c9.015 7.645-14.488 11.663 0 0zm262.13.201c14.774 10.273-7.585 9.355 0 0zm-96.837 1.549c8.623 9.613-14.723 11.453 0 0zm265.11.13c16.424 14.123-10.432 8.202 0 0zm-99.225.483c8.859 8.253-14.778 11.082 0 0zm166.604.406c8.833 8.16-14.888 13.871 0 0zm-40.174 8.262c.81-.014 1.772.026 2.902.127 6.783 12.087-15.052.085-2.902-.127zm-188.813.088c17.239.308-10.753 22.882-.392 4.77l-2.008-2.567 2.4-2.203zm207.028.082c17.352.03-7.41 11.84-.86.008.297-.006.584-.008.86-.008zm-533.82.037c.064 0 .128.005.19.01.27.022.524.088.759.201.379 5.547-6.03 5.636-10.46 13.006-1.872-4.18 5.423-13.257 9.51-13.217zm15.357.143c20.335.503-7.942 10.566 0 0zm19.097.355c21.464 1.584-8.565 11.187 0 0zm464.918.059c10.77 11.268-23.586.107 0 0zm-115.113.7c14.225 12.353-7.344 8.344 0 0zm-199.705.192c.268-.002.546-.003.836 0 8.097 11.428-17.724.174-.836 0zm15.932.075c17.213-.16-7.185 11.548-.852.017.295-.009.578-.015.852-.017zm350.943.017c14.636 10.487-7.623 9.357 0 0zm-182.385.8c.268.003.547.008.836.017 8.091 12.15-17.708-.16-.836-.016zm-23.228.005c18.505.081-7.342 10.776 0 0zm-179.739.066c.025.001.06.013.096.026.072.025.147.053.139 0 4.524 8.082-17.402 14.01-5.088.418l4.826-.405c-.01-.03.003-.04.027-.039zm51.87 2.196c15.668 9.387-7.415 9.403 0 0zm-166.145.449c13.938 10.329-7.798 10.704 0 0zm442.02 1.896c8.784 8.482-14.188 11.493 0 0zm-99.971 10.63c13.999 10.167-7.751 10.737 0 0zm167.851.23c15.35 13.44-10.334 8.577 0 0zm-332.24 2.214c14.437 10.743-7.828 9.204 0 0zm88.393.374c10.563 7.36-17.305 15.26 0 0zm-334.514.06c9.994 7.482-15.104 13 0 0zm168.729.486c8.669 9.683-14.285 11.929 0 0zm-90.76.784c13.87 9.656-7.995 10.568 0 0zm423.19 1.962c9.021 8.606-15.188 13.428 0 0zm-81.122 10.608c15.985 14.982-10.158 8.684 0 0zm167.725.142c12.999 10.08-7.69 10.94 0 0zm-332.162 2.223c16.782 14.691-10.08 8.76 0 0zm-265.55.21c11.304 8.411-16.6 14.496 0 0zm334.724.114c9.097 8.92-15.25 13.548 0 0zm-165.76.479c8.884 8.857-14.567 11.075 0 0zm-71.059.74c14.563 10.548-7.801 9.179 0 0zm403.215 1.961c9.284 7.802-14.934 13.673 0 0zM572.83 187.7c18.42 2.128-8.1 10.051 0 0zm-146.1.108c7.83 11.222-18.272-.142 0 0zm14.403.375c18.611.694-7.515 10.607 0 0zm-332.215.232c22.213.207-9.071 11.278 0 0zm128.492.04c20.77.832-8.24 11.345 0 0zm-142.857.13c8.536 9.85-18.918.945 0 0zm311.47.176c.196-.004.382.003.557.017.4.034.74.117.98.252 4.941 1.897-16.861 23.406-6.017 4.91-3.34-3.045 1.55-5.126 4.48-5.18zm-278.39.484c2.645 3.697 4.056 8.144 5.812 12.608 1.265 1.4 2.093 2.877 1.971 4.476 1.161 2.34 2.55 4.621 4.465 6.719 11.363 12.514-11.409-2.108-4.485-6.236.033-.165.008-.321.02-.483a56.9 56.9 0 0 1-1.97-4.476c-3.994-4.423-12-8.104-5.813-12.608zm130.476.111c15.445.072-8.509 10.72-1.619.03v-.002c.583-.02 1.121-.03 1.62-.028zm17.643.477c18.65.107-7.4 10.786 0 0zm461.97.37c15.517.195-14.594 21.71-1.646.048.599-.04 1.146-.055 1.647-.049zm-123.501.08c.495-.004 1.032.004 1.613.027 7.81 12.036-16.973.086-1.613-.028zm-22.49.107c18.372-.038-7.298 10.805 0 0zm187.478.394c8.584 12.063-18.519.078 0 0zm-319.037.297c14.477 11.39-7.376 9.26 0 0zm295.785.264c16.888-.143-7.887 10.829-.836.015.29-.008.568-.013.836-.015zm-187.98.508c11.213 7.553-15.171 15.778 0 0zm-273.391.507c17.052 13.871-10.53 7.846 0 0zm333.582 1.545c17.24 14.167-10.666 7.689 0 0zm-393.395.703c9.086 9.461-14.13 11.776 0 0zM469.797 207.4c14.009 10.263-7.745 10.739 0 0zm-164.283.71c14.505 10.66-7.762 9.251 0 0zm422.841.161c8.374 9.26-13.813 11.684 0 0zm-168.492.997c9.142 5.018-11.732 14.677-2.058 1.314l2.058-1.314zm79.182.439c15.28 13.018-10.15 8.866 0 0zm-245.318 1.488c8.716 8.517-14.308 11.289 0 0zm-168.137.248c8.707 8.519-14.32 11.257 0 0zm-80.707 12.018c15.53 9.326-8.781 12.12 0 0zm334.496.584c13.988 10.24-7.759 10.722 0 0zm239.033.685c10.689 6.044-17.284 15.889 0 0zm-403.51.13c15.58 15.181-10.3 8.534 0 0zm235.557 1.07c8.555 8.655-14.474 10.99 0 0zm98.06.382c13.817 9.311-7.934 11.151 0 0zm-265.156.993c8.423 8.697-15.33 10.316 0 0zm-167.074.988c9.062 8.147-13.747 11.91 0 0z" style="fill:#e6e6e6;fill-opacity:.871111;fill-rule:evenodd;stroke-width:.952195;stroke-linecap:round;stroke-linejoin:round;-inkscape-stroke:none;stop-color:#000" transform="scale(.26458)"/></g></svg>