<svg xmlns="http://www.w3.org/2000/svg" width="384" height="480" style="enable-background:new" viewBox="0 0 101.6 127"><g style="opacity:1"><path d="M214.54 8.479c-5.897-.03-12.063.409-17.808.117h-34.904c-5.118 4.366-8.075 10.559-9.566 16.76-6.326 4.755-8.372 13.312-13.162 19.623 4.316 5.843-.775 17.482 9.845 18.908 2.763 6.41 1.333 15.747 10.082 17.754 3.169 4.48-1.265 14.546 8.664 11.521 3.115 4.657-9.325 8.673-10.826 17.047-1.509 7.817-6.339 11.758-10.847 18.79.474 7.77-14.161 13.038-5.141 20.282-.07 7.202 6.587 11.307 10.23 16.403-1.072 5.645 3.798 11.085 8.164 13.767 1.753 8.023 2.602 9.237 11.614 10.729-4.054 3.97-7.962 2.546-9.569 10.802-5.314 3.267-6.292 9.981-8.867 15.012-4.71 4.391-7.392 10.295-8.611 16.207-10.665 5.472-4.203 10.833-2.111 17.365 2.472 8.74 13.416 9.672 10.546 18.268 3.4 7.061 9.938 9.773 10.153 17.584 12.11 2.424 3.061 4.353-1.756 10.2-7.84 13.988-15.846 27.462-23.89 41.38 5.378 4.58 5.714 12.302 10.363 17.951 4.719 6.844 7.345 15.284 13.892 20.59-3.68 8.117 16.114 5.062 4.461 10.412-3.2 1.345-1.893 9.954-7.984 11.139-4.486 6.56-2.539 13.76-10.13 17.545-4.712 4.819-.311 13.722-8.58 14.857 1.326 5.651 2.194 11.66 6.64 18.508 11.733-3.464.342 15.331 11.261 15.268 2.808 8.932 11.953 5.574 19.514 6.128h44.982c3.06-.993 14.247-6.497 9.422-12.091.731-9.445 10.077-5.833 12.354-16.24-8.39-2.632 3.17-14.306 9.875-10.399 4.51 6.523 11.935-.898 17.873-.172 5.626 6.142 13.112.181 19.285-.648 1.93 4.635 11.447 4.453 14.525.6 3.348-6.899.092-12.894 8.606-14.907 6.796-4.953-3.24-17.094 7.853-13.6 2.665-5.917 9.528-11.468 2.21-13.41 4.04-7.263 8.971-4.216 2.23-12.771-9.343-1.011-3.785-9.967-8.967-15.533-9.094-2.764-4.669-11.499-10.805-18.717-11.061-3.345.218-8.142-1.646-9.795 2.704-7.836 13.42-11.566 10.353-21.086 8.51-2.68 9.363-10.712 9.93-17.984 7.677-2.617 5.584-2.291 2.951-9.743-10.523.286-2.094-18.708-14.271-17.437-4.03-6.019 1.269-10.353-5.36-16.563-14.35 1.443 2.616-13.665-2.805-16.308-.204-8.257 16.2-8.928 9.893-18.994 5.416-5.487 12.69-8.827 11.334-18.116 6.998-5.992-1.876-10.905-4.617-16.359-.436-6.774-6.38-11.175-9.59-16.568 1.531-9.078-17.085-14.96-7.236-20.227-4.904-8.99 5.597-7.874 8.338-14.44 2.903-4.339-2.253-13.864 7.005-12.132 7.64-6.37-1.337-12.32 6.657-17.266 6.667-6.41-3.038-7.185-6.157-12.883 6.025-10.52-14.04-12.063-8.447-21.123-2.162-7.629-10.93-8.448-10.705-15.484-15.46.457-30.895-.153-46.46-.002-9.84 1.975-15.117-11.348-18.024-18.754-4.759-7.23-8.54-13.097-12.092-20.947-3.194-.613-6.634-.8-10.172-.818zm29.003 40.517c9.298 9.285-12.959 13.453 0 0zm-7.588 17.68c8.576 6.026-10.993 12.857-2.06 1.32l2.06-1.32zm-10.623 15.908c8.511 6.76-13.416 11.405-1.816.893l1.816-.893zm-24.404 8.953c21.179.591-7.73 11.498 0 0zm-14.174.008c9.154 8.284-16.927 3.783-2.592.123l2.422-.115.17-.008zm33.476 1.187c9.993 2.85.123 12.974-2.37 2.061l2.37-2.06zm9.553 16.266c13.178 9.757-7.44 10.135 0 0zm9.545 16.645c12.057 5.8-5.132 15.157 0 0zm9.334 14.644c10.879-.036-10.034 18.342-4.008 4.565l-.814-2.637 2.205-1.66c1.025-.181 1.892-.266 2.617-.268zm18.686.766c7.524-.062 1.127 9.833-4.518 2.707l2.33-2.467c.674-.13 1.279-.204 1.819-.23.126-.007.25-.01.369-.01zm19.154.162c7.51-.107 1.474 9.862-4.416 2.752l2.242-2.496a12.767 12.767 0 0 1 1.807-.242c.126-.007.248-.012.367-.014zm-48.768 17.455c7.009 10.177-12.059 7.934 0 0zm-10.076 16.412c9.494 8.245-15.341 13.062 0 0zm-42.715 14.988c8.97-.141.895 10.46-4.42 2.518l2.393-2.338c.755-.114 1.43-.17 2.027-.18zm22.067.246c6.923 10.671-17.788.016 0 0zm13.418.178c13.107 11.684-8.277 10.844 0 0zm7.82 17.594c12.64 6.967-5.795 15.591 0 0zm9.719 16.574c11.758 7.359-6.85 10.072-.24.008l.24-.008zm32.73 11.399h.721c7.739 10.105-16.926 1.383-1.742.001l1.021-.001zm-18.494.066c8.33 11.094-20.662.631 0 0zm33.504.297c21.743.802-8.41 11.521 0 0zm-40.074 4.277c8.69 6.416-12.749 12.22-1.787.953l1.787-.953zm-11.037 15.695c8.672 6.04-11.647 13.052-1.926 1.137l1.926-1.137zm-9.95 16.409c8.677 6.115-11.894 12.953-1.935 1.144l1.928-1.142.007-.002zm-21.64 11.297c8.81-.099-1.732 10.83-4.152 1.357l2.125-1.18v-.002c.767-.114 1.44-.168 2.027-.175zm-16.393.337c7.252 10.283-17.312.627 0 0zm33.08.659c11.983 7.322-6.637 15.639 0 0zm7.764 17.562c14.081 13.467-8.94 8.956 0 0zm9.486 16.66c13.127 6.499-5.405 15.336 0 0zm32.149 12.506c8.537 9.437-16.987 2.5-2.438.06l2.438-.06zm14.217.016c20.23-.034-6.895 11.559 0 0zm-34.918.963c.164-.007.328-.007.492 0 .349.014.696.059 1.039.138 5.27 3.993-6.37 7.4-9.26 11.31-2.538-4.638 2.644-11.23 7.729-11.448zm-13.422 19.605c8.148 3.99-9.054 14.485-3.201 3.227.844-1.291 1.188-3.072 3.2-3.227zm-9.26 16.867c8.646 5.716-10.566 13.782-2.045 1.344l2.045-1.344zm-19.625 11.567c8.236 10.879-19.961 1.235 0 0zm-22.02.357c8.928-.172-1.78 11.027-4.193 1.36l2.139-1.165c.778-.122 1.46-.183 2.054-.195zm35.327.147c12.562 6.955-5.949 15.551 0 0zm109.164 7.22c-.927 2.268-1.615 2.892 0 0zm-100.19 9.703c12.792 6.495-5.417 15.734 0 0zm9.346 16.805c12.56 6.784-5.842 15.683 0 0z" style="fill:#e6e6e6;fill-opacity:.871111;fill-rule:evenodd;stroke-width:.952195;stroke-linecap:round;stroke-linejoin:round;-inkscape-stroke:none;stop-color:#000" transform="scale(.26458)"/></g></svg>