<svg xmlns="http://www.w3.org/2000/svg" width="576" height="672" style="enable-background:new" viewBox="0 0 152.4 177.8"><g style="opacity:1"><path d="M313.568 8.84c-1.829-.086-3.68.14-5.394.752h-52.336c-6.759 6.433-7.837 16.02-14.106 22.531-1.284 7.139-13.404 13.936-5.935 20.082 1.215 2.909 2.68 5.67 4.224 8.383.754.795 1.306 1.662 1.567 2.646 3.492 5.851 7.254 11.559 10.111 17.873 2.702 1.447 3.778 5.175 4.996 8.485 1.089.827 1.488 1.993 1.496 3.347 1.374 2.284 3.358 3.47 7.159 1.692 6.318 7.324-10.711 2.694-9.487 13.039-2.269-3.215 2.354-10.088 2.328-14.73-.578-.962-1.047-2.13-1.496-3.348-1.097-.835-2.883-1.329-5.666-1.328 1.288-9.14-3.139-14.7-11.023-19.159 1.657-2.438 1.996-4.306 1.582-5.87-.525-.88-1.06-1.757-1.567-2.647-3.118-3.29-9.37-5.483-9.876-10.858 3.832-7.04-18.12 5.789-20.249-1.736-9.478.969-14.644 3.87-23.681 0-4.887 2.242-11.748 1.36-13.692 8.799-12.329.625 12.648-17.25-2.421-15.613-4.138-7.945-3.628-17.653-13.788-22.403 5.815-11.547-10.939-9.327-18.779-9.185H92.691c-10.014.495-7.407 10.274-8.81 16.074-12.264.044-5.74 16.977-16.297 20.1-1.865 5.098 6.64 9.083 6.3 15.367 6.14 6.667 8.08 13.12 12.317 21.332 6.298 5.806 4.71 12.06 14.461 13.724-9.34.553-15.604 14.174-17.719 21.858-3.424 8.284-12.587 15.023-13.37 25.098-.1 9.372 6.854 15.602 10.03 23.89 3.68 7.417 9.802 12.59 11.774 20.393 9.814 5.327 8.907 6.792-2.461 13.383-4.15 8.916-8.144 15.585-13.764 23.84.336 6.543-8.102 9.905-8.476 16.007 5.246 7.3 8.533 16.092 14.385 22.672 1.04 8.179 9.433 13.514 11.216 21.662 9.4 2.906 6.153 5.203-.966 8.297-4.124 7.334-8.905 14.031-11.71 21.85-4.694 6.042-11.953 17.989-10.73 21.488 3.187 6.947 4.103 14.474 10.834 19.244 1.174 7.566 6.586 13.409 10.576 19.766-3.073 8.943 18.419 8.789 5.635 12.533-5.216.687-13.658 12.057-11.3 17.394-10.018 6.72-8.14 15.12-13.93 23.754-9.493.186 3.86 11.736 4.968 18.885 5.252 7.605 9.144 16.25 14.348 24.162 1.121 7.543 16.917 8.563 2.234 10.697-1.546 7.45-9.638 17.517-14.41 24.96-4.385 7.36-5.618 17.253-10.232 19.187 4.437 7.445 6.245 16.284 12.263 23.979 4.067 8.49 9.418 18.434 20.46 15.205h52.017c10.248-2.765 4.41-17.167 13.582-18.952 5.405-9.353 5.257-23.279 19.27-19.453 10.827-.713 16.555-2.145 26.7.002 6.94-6.684 12.357 1.466 20.686-.004 9.372.958 2.974 14.692 11.092 16.535 4.069 1.625 5.32 7.206 4.303 10.124 4.152 9.25 11.263 13.72 21.883 11.748 16.975-.327 34.656.652 51.191-.489 6.627-10.6 14.22-21.507 18.045-33.36 5.744-12.524 18.548-.647 29.887-6.192 9.146 4.576 18.194-2.752 27.406 1.656 9.241.84 7.691 13.848 13.861 18.29 6.929 4.873 4.482 19.161 15.102 20.095h58.914c9.755-6.063 10.64-17.693 18.176-25.803 8.233-9.985 7.375-17.54-2.405-23.83 1.377-10.992-11.04-14.606-11.539-25.51-8.577-6.41-7.31-17.726-.539-24.832 7.309-6.363 7.312-15.684 15.508-23.604 3.048-7.439 9.805-15.65-2.494-19.634 1.691-12.363-12.31-15.229-11.557-26.344-11.092-7.78-8.593-12.225-1.775-25.387 7.102-4.775 7.663-15.064 13.742-21.035 2.658-6.678 13.35-19.063 1.611-20.064-.907-5.116-3.052-10.974-6.23-17.082 1.84 5.665-13.906-.177-5.469-6.713 2.093 1.894 3.498 3.437 4.393 4.687a99.15 99.15 0 0 0-4.553-7.431c-5.858-8.6-14.341-10.88-5.498-22.118-2.787-10.586 13.74-13.09 11.307-25.642 7.742-1.166 16.67-21.085 6.398-23.043-3.422-10.076-7.671-16.387-14.201-24.15.92-8.895-13.433-15.564-2.926-26.477 7.249-7.253 9.878-17.446 16.088-25.557 2.13-7.427 12.267-17.884-.363-19.713-1.72-9.454-3.927-15.066-11.973-20.789 6.803-10.67-15.913-11.8-7.24-21.595 1.545-10.485 13.157-15.294 10.597-25.555 8.486-2.946 8.649-10.23 11.545-18.09 11.687-5.502-8.816-12.698-5.972-21.832-9.312-5.309-5.006-21.857-18.62-19.658-19.865.582-40.149-1.165-59.753.873-4.423 9.041-9.287 16.608-14.594 25.277-1.31 7.274-7.51 14.727-15.791 12.242-2.307 10.5-20.537-9.133-21.47 4.71-8.457-.496-6.69-7.542-18.505-4.71 3.315 8.913-11.657-.019-12.634 10.873-3.274-6.54 14.204-14.225-1.66-16.724-.376-10.586-4.652-15.924-12.764-20.746 5.906-5.963-1.601-12.177-9.528-12.547zm87.584 38.451c16.513 15.22-10.427 8.363 0 0zm9.065 16.898c16.813 14.679-10.205 8.637 0 0zm-247.035 1.366c8.666 8.573-14.404 11.249 0 0zm166.89.603c8.503 8.718-14.506 10.98 0 0zm89.586 14.75c13.08 9.14-8.138 10.462 0 0zm-265.32 1.662c10.7 8.27-15.312 15.042 0 0zm166.603.448c9.542 9.304-14.432 12.8 0 0zM282.19 93.316c.662.004 1.412.037 2.256.106 6.819 12.064-14.978.223-2.888-.1.201-.005.412-.007.632-.006zm164.827.258c.64-.008 1.333-.005 2.086.01 10.91 11.237-21.917.256-2.086-.01zm-148.26.108c18.52-.093-7.222 10.871 0 0zm164.623.105c18.804.461-7.17 11.113 0 .004v-.004zm-33.658 1.078a.239.239 0 0 1 .091.022c.072.027.149.062.147.017 5.468 7.247-21.087 15.874-5.082.543l4.828-.523c-.015-.041-.006-.056.016-.059zm-316.37.065c17.086.025-7.869 10.995-.845.007.293-.005.574-.008.846-.007zm19.827.347c.49-.001.94.01 1.353.032 12.416.67-8.39 11.763-2.943.013.57-.029 1.1-.043 1.59-.045zm184.093 1.084c14.478 13.375-10.54 8.975 0 0zm-166.667.012c14.859 10.176-7.457 9.5 0 0zm10.472 16.195c13.259 10.984-7.924 10.078 0 0zm164.79.887c16.979 15.001-10.4 8.403 0 0zm87.947.414c8.494 8.754-14.51 11.027 0 0zm-165.13 1.766c8.737 8.355-14.208 11.547 0 0zm-78.458 13.758c15.66 14.89-10.258 8.604 0 0zm165.154.693c13.655 9.301-7.388 10.723 0 0zm69.021.598c10.55 6.766-15.366 15.878 0 0zm-165.69 1.404c8.895 7.902-14.419 11.77 0 0zm161.718 9.611c14.135 14.4-12.697 3.91 0 0zm-200.617.07c8.567 11.693-18.677 0 0 0zm184.88.067c9.575 10.75-22.531 1.217 0 0zm-169.746.027c16.949-.059-7.921 10.807-.84.012.29-.007.571-.01.84-.012zm150.5.084c7.821 11.231-19.687.654 0 0zm-21.039.696c.562-.003 1.199.04 1.926.132 3.906.533-8.721 18.153-8.635 8.168 2.883-3.918 1.393-7.987 6.172-8.283.17-.01.35-.017.537-.017zm-164.726.427c.382.01.77.05 1.16.123 4.408 3.383-9.968 9.166-11.414 11.68-.261-5.193 4.512-11.944 10.254-11.803zm52.92.955c4.087 1.163 7.862 11.305.47 7.784-1.046-2.214-5.347-6.626-.47-7.784zm175.505 13.78c16.45 15.47-10.634 8.144 0 0zm-165.802 2.765c10.854 5.67-1.284 13.608-2.04 1.334l1.893-1.318h.002l.145-.016zm89.636 2.541c8.57 8.649-14.418 11.004 0 0zm-167.214.739c8.686 8.55-14.324 11.307 0 0zm252.808 10.703c14.391 10.802-7.931 9.057 0 0zm-165.603 2.635c13.738 9.108-7.277 10.153 0 0zm69.615 2.076c8.507 8.624-15.222 10.487 0 0zm-166.033 1.482c9.162 4.856-11.322 15.024-2.045 1.344l2.045-1.344zm104.818 8.045c19.161 1.582-8.28 9.674 0 0zm189.098 1.344c7.964 11.464-20.263.259 0 0zm14.463.031c20.93.445-9.026 11.178 0 0zm-161.838.049c.493-.006 1.028.001 1.607.021 7.988 11.986-16.898.147-1.607-.021zm-21.719.21c16.9.015-7.997 10.743-.836.009.29-.006.568-.008.836-.008zm147.496.204c13.456 4.588-15.27 12.565-1.103.23l1.103-.23zm-290.478.225c8.52 10.875-19.354-.073 0 0zm-22.61.195c15.41.134-8.518 10.69-1.617.021.581-.018 1.12-.025 1.617-.021zm202.205.096c16.603 14.88-10.27 8.562 0 0zm-166.44.396c14.129 12.454-9.47 11.062 0 0zm105.247 2.455c7.12 4.722-5.658 11.05-6.248 16.676.61 7.474-11.387 11.985-9.389 19.908-9.695 7.75-4.958 8.837-2.838 17.557-11.178-.196-2.748-19.604 2.72-20.998 4.234-11.154 6.64-14.17 13.868-24.024-5.346-.472-.61-8.3 1.887-9.119zm162.14 13.09c7.042 10.51-12.048 7.857 0 0zm-91.72.865c16.826 14.516-10.093 8.775 0 0zm-168.004 1.256c14.472 11.488-8.638 9.964 0 0zm250.06 14.482c8.544 9.772-14.154 11.395 0 0zm-72.216.842c13.492 10.65-7.787 9.813 0 0zm-168.203 1.254c14.62 10.394-7.735 9.24 0 0zm176.884 10.83c18.434 1.565-7.694 10.344 0 0zm-167.9.56c21.01.51-8.612 11.167 0 0zm21.297.112c20.055.285-13.36 11.17-2.112.006a64.949 64.949 0 0 1 2.112-.006zm17.095.06c21.879.92-9.236 10.934 0 0zm171.649 1.579c.266 0 .542.003.83.01 8.375 11.728-17.58-.041-.83-.01zm-23.147.031c18.486-.015-7.491 10.769 0 .004v-.004zm36.873 1.965c13.973 10.76-7.546 10.773 0 0zm-58.34.057c9.237 8.933-14.211 12.329 0 0zm-168.728.998c7.01 1.21-4.511 14.836-4.34 5.517 1.365-1.914 1.621-4.882 4.34-5.517zm69.215 14.41c3.899.912 7.863 11.999.473 7.767-1.077-2.105-5.196-6.823-.473-7.767zm167.42 1.181c13.987 9.762-7.994 10.528 0 0zm-76.97.287c9.924 8.139-15.196 14.354 0 0zm-168.854.936c6.703 1.438-4.974 14.802-4.512 5.395 1.415-1.87 1.802-4.83 4.512-5.395zm87.861 14.375c14.738 11.237-9.494 11.322 0 0zm167.469 1.105c13.159 10.106-7.352 11.076 0 0zm-96.174.102c8.41 9.64-14.84 11.081 0 0zm-168.738 1.057c8.427 9.312-14.06 11.775 0 0zm126.256 9.654c.501-.003 1.045.005 1.632.025 7.23 10.779-17.183.065-1.632-.025zm16.074.053c21.669.7-9.872 11.208 0 0zm-33.528.379c3.417 6.47-8.552 3.767-7.85 14.117-5.928 1.428-11.886 28.31-9.532 9.144 8.366-6.432 11.039-18.296 12.416-23.095 1.647-.056 3.313-.098 4.966-.166zm-148.982.605c.864-.001 1.843.024 2.95.08 9.779 11.04-19.523.318-3.776-.07.262-.007.538-.01.826-.01zm18.05.248c17.472-.028-7.588 10.716-.864.01.299-.006.587-.01.865-.01zm182.909.272c15.094 14.423-10.556 8.551 0 0zm111.34.511c20.493.858-7.208 11.248 0 0zm42.414.645c.27 0 .552.003.844.01 8.307 12.07-17.853-.025-.844-.01zm-22.5.318c16.958-.211-7.856 10.858-.84.02.29-.01.57-.016.84-.02zm-296.543.582c14.686 10.33-7.553 9.424 0 0zm273.055 2.682c9.81 7.388-14.2 14.648 0 0zm-98.924 12.258c13.49 11.194-7.43 10.056 0 0zm-163.86 1.351c15.22 13.339-10.317 8.657 0 0zm254.043 3.526c8.776 8.438-14.244 11.359 0 0zm-80.248 11.574c14.849 10.155-7.487 9.437 0 0zm-163.996 1.402c14.968 11.224-8.556 9.762 0 0zm68.496 2.715c8.695 3.837-10.383 14.502-4.752 9.258.648-3.108.739-7.841 4.752-9.258zm165.768.756c8.954 8.132-14.62 11.232 0 0zM177.85 332.7c18.585 1.272-7.514 10.482 0 .002v-.002zm42.279 1.613c.267 0 .545.004.834.01 8.273 12.07-17.648-.033-.834-.01zm180.736.118c13.195 13.357-10.3 10.297 0 0zm-12.842.084c9.126 11.758-18.743.785 0 0zm-190.306.17c16.873-.059-7.876 10.794-.838.015l.002-.004c.289-.006.568-.01.836-.011zm146.476.865c20.555-.238-18.477 16.119-1.152.025h.129v-.002c.357-.012.697-.02 1.023-.023zm21.397.246c13.956.041-7.701 10.6-1.465.03a33.34 33.34 0 0 1 1.465-.03zm-131.748.144c13.54 9.637-7.289 9.906 0 0zm-58.951 1.561c8.31 8.82-15.377 10.238 0 0zm156.945 13.664c9.985 8.524-15.292 12.97 0 0zm75.303 1.346c15.43 13.368-9.614 9.963 0 0zm-163.686.054c13.492 9.568-7.339 9.835 0 0zm-79.4.764c8.4 8.823-14.575 10.838 0 0zm158.283 14.48c8.67 9-14.259 13.174 0 0zm94.887 1.085c14.84 9.445-8.342 8.843 0 0zm-163.715.09c15.54 11.14-8.099 10.258 0 0zm-99.246.867c7.943 2.775-7.632 14.964-4.028 4.308 1.172-1.514 1.665-4.118 4.028-4.308zm273.443 10.36c7.75-.024-3.273 16.583-5.795 8.823 4.532-3.525-2.367-6.13 2.842-8.262.814-.261 1.526-.425 2.144-.503.29-.037.56-.056.81-.057zm16.422 1.11c18.873.398-8.77 9.9 0 0zm18.996.274c18.878-.08-6.875 11.3 0 0zm-181.865 1.031c.5-.003 1.041.005 1.627.025 7.147 10.804-17.135.059-1.627-.025zm16.039.01c20.386-.015-9.078 11.642 0 0zm-33.53.447c2.972 4.716-6.345 7.861-10.744 13.271-.44 1.41-1.015 2.708-1.886 3.776 2.611 7.783-11.803 14.945-4.494 2.627 2.085-.43 3.479-1.383 4.494-2.627-.023-.069-.023-.136-.05-.205.345-1.306 1.05-2.48 1.936-3.57 1.43-4.57 1.489-10.283 5.776-13.098 1.652-.06 3.311-.106 4.969-.174zm52.256.645c14.438 10.7-7.85 9.157 0 0zm-203.418.052c20.583-.06-7.028 11.637 0 0zm19.418.088c23.945-.273-11.237 11.345 0 0zm17.672 3.293c15.86 10.274-8.092 9.946 0 0zm176.125 12.975c13.44 8.696-7.711 10.794 0 0zm91.145.187c8.029 2.534-7.151 15.109-3.906 4.41 1.16-1.602 1.503-4.036 3.906-4.41zm-256.108 2.465c14.408 10.758-7.837 9.187 0 0zm174.957 13.856c15.054 11.16-8.477 9.847 0 0zm71.694.435c8.952 8.3-13.904 11.808 0 0zm-168.16 1.264c11.292 7.887-16.072 13.211 0 0zm-68.895.959c13.793 10.306-7.177 10.784 0 0zm195.639 9.69c9.567 10.978-20.015.94 0 0zm-168.227.038c13.96.04-7.7 10.6-1.465.03.527-.022 1.015-.031 1.465-.03zm-19.199.01c13.956.041-7.701 10.6-1.465.03.527-.022 1.015-.031 1.465-.03zm36.965.096c20.384.335-8.663 11.422 0 0zm164.748.056c18.538.016-7.102 10.871 0 .002v-.002zm-35.22 1.31c.655-.008 1.289.213 1.868.727 7.121 4.756-5.077 3.77-5.129 9.524-8.742 4.958-2.317-9.652 2.977-10.233.095-.01.19-.016.283-.017zm54.296.567c16.56 11.369-8.06 10.615 0 0zm-166.879.918c5.363 1.74 5.09 6.59 6.373 11.002 1.531 1.32 2.64 2.815 2.613 4.717.079.077.14.16.223.234 7.936 5.33 6.242 17.115 15.848 22.29-4.971 7.929-9.48-17.029-16.668-20.032a5.789 5.789 0 0 0 .597-2.492c-1.392-1.367-2.116-3.009-2.613-4.717-3.877-3.341-10.222-5.636-6.373-11.002zm-59.34 3.87c8.637 9.268-13.902 11.732 0 0zm236.268 11.412c13.686 10.42-7.651 10.03 0 0zm-76.672 2.52c7.672 2.315-7.25 14.99-3.758 4.134 1.084-1.54 1.449-3.81 3.758-4.135zm-169.045 2.759c8.622 8.642-14.365 11.299 0 0zm255.244 11.441c16.447 15.022-10.226 8.597 0 0zm-96.25 2.211c8.858 8.269-14.783 11.145 0 0zm-167.793 3.395c8.739 5.062-11 15.021-2.244 1.418l2.244-1.418zm272.922 6.754c.775-.012 1.742.071 2.953.271 5.845 7.23-8.458 1.532-5.445 9.785-2.837 7.624-8.286.205-3.314-4.013 4.395-1.281.385-5.964 5.806-6.043zm18.82.226c13.958.036-7.68 10.607-1.464.031a33.47 33.47 0 0 1 1.464-.03zm17.633.393c18.603.268-7.449 10.734 0 .004v-.004zm-160.545 1.015c.246 0 .5.004.766.01v-.004c6.216 10.856-16.245-.02-.766-.006zm-18.511.237c6.791 10.859-16.84.498-1.24.015l1.24-.015zm-20.979.052a7.526 7.526 0 0 1 1.729.223c3.774 3.077-7.84 8.663-11.202 10.91-.328-4.96 3.716-10.775 8.913-11.117a7.32 7.32 0 0 1 .56-.016zm-152.982 1.084c18.403-.141-7.198 10.866 0 .004v-.004zm21.015.188c.89-.005 1.901.018 3.043.072 10.475 11.311-20.102.394-3.892-.058.27-.008.553-.012.85-.014zm185.125.256c14.125 9.56-7.857 10.63 0 0zm-168.006.039c13.903 10.762-7.59 10.719 0 0zm177.793 16.496c4.97 1.033 6.16 13.319-.27 6.53-1.202-1.902-3.802-5.746.27-6.53zm-168.277.17c13.981 9.747-8.075 10.455 0 0zm90.272 1.088c7.158 9.956-12.312 8.807 0 0zm165.88.388c10.34 7.128-15.917 15.064 0 0zm-246.673 15.256c12.759 9.637-7.563 10.888 0 0zm167.82.032c14.678 12.769-9.405 10.38 0 0zm-96.623.974c7.27 9.795-12.217 9.1 0 0zm165.91.32c8.449 9.504-14.916 11.237 0 0z" style="fill:#e6e6e6;fill-opacity:.871111;fill-rule:evenodd;stroke-width:.952195;stroke-linecap:round;stroke-linejoin:round;-inkscape-stroke:none;stop-color:#000" transform="scale(.26458)"/></g></svg>