<svg xmlns="http://www.w3.org/2000/svg" width="672" height="768" style="enable-background:new" viewBox="0 0 177.8 203.2"><path d="M278.395 8.965c-6.493-.173-14.546 1.064-19.133.312H219.84c-2.225 9.646-11.435 15.465-12.988 25.145-13.99 7.767.073 31.321-12.383 13.297-10.562 2.517-14.346 3.91-24.938-.006-5.329 8.518-17.412-5.803-24.642 2.353-10.638 14.567.941-13.51-13.272-14.58-1.851-11.059-7.77-20.085-15.443-26.207h-62.64c-3.868 9.472-8.254 16.217-14.298 24.76 1.347 9.456-14.428 12.012-1.492 19.543-.068 11.141 11.355 15.065 12.444 26.693 10.293 1.993 2.341 15.107 14.94 15.514-5.08 2.757-15.343 11.68-14.855 20.488-8.768 8.622-10.558 17.578-18.912 27.387 6.87 5.495 7.864 17.07 14.576 24.531 5.22 7.623 9.553 19.136 14.899 22.022 13.636 4.446-10.033 8.399-11.453 18.228 8.967 7.243-15.66 10.37-7.223 19.993-13.426 7.53-6.695 14.521-1.459 27.396 6.105 2.843 10.22 17.3 14.16 24.525 7.587 5.307 13.753 6.731 3.647 9.87-3.25 9.44-10.523 14.97-12.969 24.88-6.243 3.665-8.27 16.46-10.562 20.217-1.318 11.273 10.683 15.982 11.88 27.153 10 2.618 3.865 19.335 15.397 18.107 6.95 10.157-15.595 7.802-9.701 20.324-10.318 8.545-11.983 19.532-21.192 30.74 7.76 3.368 4.077 15.224 12.659 18.196 2.716 8.106 5.97 14.81 12.05 21.037-.433 8.296 17.442 6.619 2.184 11.713-1.49 7.91-10.917 12.237-10.662 21.002-9.527 4.632-5.977 16.834-14.848 21.613 1.087 9.13 8.906 19.128 15.326 25.75.092 8.06 7.975 19.717 14.028 22.094 2.448 5.857-11.393 13.036-13.832 22.168-.894 7.17-9.323 17.245-15.592 26.125 1.729 6.827 6.65 17.253 12.514 24.304 2.204 8.909 9.92 15.237 12.751 24.004 17.32-1.174-7.694 6.83-9.187 19.846-3.002 8.429-10.19 22.106-15.11 26.174.012 9.64 6.776 17.464 10.573 26.213 5.548 10.153 9.795 20.403 23.17 16.195h51.74c6.087-10.323 14.544-20.125 16.963-31.5 3.604-16.035 19.095-3.168 29.822-8.637 10.788 2.732 21.452.092 32.68.914 4.562 8.307 8.817 17.548 13.853 26.436 4.106 14.618 17.566 13.726 30.2 12.787h40.64c11.992-10.47 8.191-18.807 19.793-29.04-1.095-17.126 8.78-9.934 20.8-9.362 11.357-1.216 24.188-.303 36.243-.004 11.492-6.195 6.598 10.092 12.457 14.978 6.76 5.878 8.605 16.352 16.04 23.428h60.712c10.198-5.771 8.735-17.954 17.943-25.432 1.577-11.98 9.785-15.71 21.256-12.978 11.736.077 24.103-2.179 35.264.012 16.629-6.75 7.329 15.914 20.715 17.505-1.336 9.095 5.967 16.186 12.496 20.895 20.62-.235 41.78.467 62.066-.346 6.847-13.164 15.67-25.235 21.57-38.773-7.81-12.85-15.023-25.881-22.538-39.04-12.865-6.746-.341-17.394 4.843-24.904 1.062-9.836 11.795-14.8 12.373-25.443 10.61-6.8-3.497-19.615-9.234-27.193-.843-12.593-15.056-17.12-11.783-28.39 6.83-11 10.095-23.834 17.57-30.434 8.053-12.687 8.584-22.044-1.494-34.38-5.957-9.769-11.95-19.67-17.299-29.513.778-10.753 12.462-14.665 11.977-24.996 6.541-7.485 17.568-19.431 12.847-28.45-5.332-8.97-11.895-18.539-16.472-28.517-10.55-10.976-7.585-24.444 2.433-32.254 3.263-11.165 14.699-20.313 16.086-31.67-7.63-9.891-12.386-21.274-18.334-31.752-7.556-8.348-10.756-24.02-.133-28.449 4.406-13.106 12.22-19.043 16.346-32.273 6.489-5.551-10.461-14.222-9.484-23.61-2.96-12.115-23.368-20.263-11.244-32.513 4.592-9.12 10.961-19.615 16.88-29.233 11.938-12.088.027-19.45-3.033-29.748-10.026-7.295-6.997-17.855-18.164-26.764 4.269-12.024 4.904-19.206 14.07-27.146-2.493-10.089 20.349-18.056 10.15-31.594-10.302-8.071-9.71-30.035-23.935-31.422h-60.673c-.6 10.527-5.534 11.536-12.207 21.149 3.905 6.593-8.973 17.373-17.715 17.312-7.756 1.995-21.408 1.41-29.028-.002-15.422-2.415-15.83 2.467-23.338 7.885 6.628-8.11 2.282-13.198-4.097-20.664-5.858-9.883-8.38-28.615-23.108-25.68-19 .397-38.309-.79-57.117.588-3.245 10.087-11.83 17.209-13.6 26.56-11.45 4.994.404 27.05-9.101 11.307-11.049 1.845-21.49-1.267-32.334 1.108-8.797-4.72-24.003 6.297-25.81-7.281-8.151-5.196-8.027-18.096-16.778-24.444 1.658-6.397-3.273-7.98-9.765-8.152zm254.277 38.639c14.144 10.892-7.496 11.053 0 0zM305.604 48.65c9.369 7.757-14.461 14.143 0 0zm69.212 14.409c13.695 10.149-7.522 10.513 0 0zm-166.46.238c14.353 10.818-7.987 9.042 0 0zm-75.215.228c9.149 8.257-14.877 13.661 0 0zm409.097.723c14.007 10.292-7.847 10.643 0 0zm-76.97.291c8.689 8.543-14.307 11.242 0 0zm-168.854.928c9.373 8.86-15.292 12.269 0 0zm-173.387 14.38c8.537 8.586-15.165 10.514 0 0zm261.246 0c15.951 15.248-10.312 8.492 0 0zm-166.468.102c16.411 15.052-10.188 8.637 0 0zm333.941.98c13.694 10.798-7.898 10.674 0 0zm-96.176.11c8.86 8.9-15.944 11.43 0 0zm-168.738 1.065c8.822 8.609-14.334 12.642 0 0zm126.297 9.642c.502 0 1.047.012 1.635.035 6.83 10.506-15.68.653-3.02-.002a26.81 26.81 0 0 1 1.385-.033zm16.033.072c20.865.373-8.673 11.244 0 0zm-313.988.344c14.65 13.602-9.822 9.851 0 0zm280.459.04c8.747 11.301-21.228.85 0 0zm-146.028.68c8.325 11.257-20.952.464 0 0zm15.075.163c17.021-.135-7.742 10.868-.842.016.291-.008.572-.014.842-.016zm-34.305.055c8.091 11.553-20.443.333 0 0zm217.236.246c14.754 12.998-10.315 9.25 0 0zm-346.67.39c6.122 10.915-16.724.454 0 0zm458.01.11c20.503.642-7.812 11.473 0 0zm-482.074.406c18.657-.127-6.87 11.284 0 0zm524.492.256c.27-.003.549-.003.84 0 8.155 11.524-17.8.19-.84 0zm-23.344.326c24.162.616-11.15 11.093 0 0zm-295.703.562c14.686 10.336-7.555 9.422 0 0zm-61.343 1.698c9.439 7.89-14.372 14.322 0 0zm168.431.125c9.478 8.296-14.936 14.14 0 0zm165.967.857c8.837 4.886-10.865 14.561-2.236 1.424l2.236-1.424zm-432.135 11.567c16.746 16.072-10.878 7.817 0 0zm333.211.695c13.409 10.618-7.562 10.013 0 0zm-164.092 1.35c16.825 13.928-9.725 9.178 0 0zm-80.367 2.357c8.744 8.471-14.261 11.31 0 0zm168.352.162c9.057 4.99-11.704 14.072-2.096 1.27l2.096-1.27zm166.29 1.004c8.777 8.438-14.244 11.36 0 0zm-413.982 11.172c15.765 13.598-10.366 8.494 0 0zm333.735.402c14.848 10.155-7.487 9.437 0 0zm-163.996 1.403c14.968 11.223-8.556 9.761 0 0zm68.496 2.732c8.8 9.108-13.954 12.24 0 0zm-167.805.08c10.615 8.39-15.392 14.807 0 0zm333.572.66c8.952 8.134-14.618 11.225 0 0zM309.96 139.4c24.513 3.09-11.676 10.052 0 0zm43.014 1.621c8.697 11.788-18.493-.109 0 0zm180.002.108c13.195 13.358-10.3 10.297 0 0zm-388.073.068c10.947-.216-9.816 17.66-4.51 4.219 1.707 2.63-2.693-5.022 1.88-3.92 1.028-.19 1.9-.284 2.63-.299zm375.131.012c9.452 10.081-19.394 1.54 0 0zm-191.043.178c21.816.496-8.809 11.753 0 0zm-144.242.056c.267 0 .545.001.834.006 8.151 12.061-17.676.071-.834-.006zm-23.1.578c18.876.352-8.777 9.92 0 0zm37.163.042c14.109 12.06-8.058 9.666 0 0zm280.027.115c.351.003.683.01.998.021 18.873.707-27.571 16.838-4.686.078a58.074 58.074 0 0 1 3.688-.1zm17.396.35c21.88.435-9.778 11.168 0 0zm-130.283.117c14.032 10.299-7.81 10.675 0 0zm-58.949 1.558c8.31 8.82-15.377 10.238 0 0zm156.943 13.664c9.986 8.524-15.292 12.97 0 0zm-255.752.932c13.742 10.736-7.882 10.656 0 0zm-74.343.33c9.756 9.29-15.748 12.308 0 0zm405.398.084c15.39 13.295-9.61 9.976 0 0zm-163.686.057c14.002 10.205-7.855 10.635 0 0zm-79.4.76c8.39 8.853-14.597 10.862 0 0zm158.283 14.484c8.735 9.99-13.893 11.075 0 0zm-236.752 1.002c16.266 14.755-10.097 8.743 0 0zm331.639.076c14.842 9.438-8.34 8.853 0 0zm-163.715.095c14.719 10.284-7.71 9.25 0 0zm-261.394.038c7.534 9.735-12.905 9.121 0 0zm161.9.832c9.586 8.136-14.63 13.625 0 0zm273.764 10.394c.114-.001.225.001.332.006 8.234.383-7.048 18.801-5.258 7.09 3.695-2.29-4.031-5.26 1.9-6.576 1.225-.35 2.224-.511 3.026-.52zm16.35 1.074c18.872.404-8.77 9.899 0 0zm18.995.274c24.42 1.038-11.24 10.895 0 0zm-182.502.941c.665.002 1.417.033 2.264.098 6.74 11.658-15.045.25-2.898-.09.202-.006.413-.008.634-.008zm17.444.09c15.522.024-7.1 10.47-.768.008.266-.005.521-.008.768-.008zm-34.297.45c5.715 3.718-16.838 17.149-7.256 2.906-.023-4.04 4.838-2.398 7.256-2.907zm-169.32.161c.311-.004.606-.002.884.006 8.343.238 2.052 5.686-2.539 5.84-11.067 18.777-5.956-4.729.67-5.814.346-.017.673-.027.985-.032zm-122.625.172c8.731 9.79-18.907.907 0 0zm344.2.301c14.438 10.7-7.85 9.158 0 0zm-202.374.045c21.045.07-10.454 11.428-1.043.006.36-.005.709-.007 1.043-.006zm18.375.096c22.366.28-10.388 11.098 0 0zm-182.79.115c.499-.002.957.007 1.376.027 12.562.597-9.597 10.411-2.994.012a39.92 39.92 0 0 1 1.619-.04zm-23.023 2.318c.28.249-.488.312 0 0zm57.762.49c14.993 9.864-7.387 9.525 0 0zm165.723.372c15.859 10.274-8.093 9.946 0 0zm176.357 12.959c13.425 11.144-8.243 10.028 0 0zm90.912.195c9.136 8.403-14.695 13.409 0 0zm-168.197 1.232c9.514 9.468-15.367 11.925 0 0zm-254.047 1.24c15.399 13.306-10.21 8.732 0 0zm166.137 0c14.407 10.758-7.837 9.187 0 0zm-78.676.647c8.816 8.423-14.2 11.487 0 0zm253.633 13.197c14.425 10.698-7.951 9.043 0 0zm71.693.436c8.952 8.3-13.904 11.808 0 0zm-168.16 1.27c9.14 4.844-11.307 14.935-2.05 1.335l2.05-1.336zm-68.894.96c13.826 9.948-7.628 10.664 0 0zm-166.32.145c16.877 14.887-10.146 8.687 0 0zm68.716.777c8.689 10.176-13.563 11.261 0 0zm292.404 8.75c.269-.001.548.001.838.006 8.357 12.042-17.741.078-.838-.006zm-188.052.076c21.879.436-9.779 11.169 0 0zm19.199 0c21.884.435-9.778 11.17 0 0zm19.23.06c24.331-.316-11.968 11.611 0 0zm164.746.065c18.541.015-7.097 10.871 0 0zm-368.748.325h.002c18.692 1.27-7.826 10.695-.002 0zm42.28 1.312c.267-.001.544 0 .834.004 7.96 11.59-17.682.082-.834-.004zm-23.313.225c24.01.911-11.212 10.959 0 0zm368.86 0c16.563 11.405-8.07 10.602 0 0zm-52.428.15c3.695 13.246-21.277 7.627 0 0zm-113.627.838c14.32 10.586-8.643 9.926 0 0zm-165.82.055c14.73 13.422-9.749 9.92 0 0zm105.656 3.742c9.844 8.83-15.626 12.906 0 0zm-166.153.488c8.977 8.088-13.966 13.406 0 0zm402.418 10.918c13.914 10.687-7.472 10.569 0 0zm-166.127 1.23c15.334 13.52-10.349 8.567 0 0zm-167.498.938c17.252 15.597-10.692 8.084 0 0zm256.955.35c8.924 8.35-14.378 12.846 0 0zm-169.045 2.765c8.892 5.341-12.131 14.425-2.11 1.243l2.11-1.243zm-165.863.627c8.896 8.502-14.424 12.82 0 0zm421.108 10.815c16.446 15.021-10.226 8.597 0 0zm-165.893 1.017c16.173 14.157-10.487 8.173 0 0zM217.34 272.81c13.645 11.2-7.66 10.332 0 0zm237.55.05c10.136 8.172-15.832 13.939 0 0zm-167.792 3.399c9.551 8.177-14.32 14.35 0 0zm-166.631.234c8.401 10.503-13.926 10.44 0 0zm440.578 6.56c.573.006 1.212.076 1.928.216.37.43-7.454 15.733-10.987 9.986 3.954-4.281 3.553-9.857 8.508-10.186.177-.011.36-.017.55-.015zm16.33.216c22.356.112-10.315 11.174 0 0zm19.098.34c18.57.258-7.45 10.732 0 0zm-372.137.398c18.792.824-6.746 11.39 0 .008v-.008zm211.564.635c.255-.003.52-.003.795 0 6.64 10.785-16.86.176-.795 0zm-334.695.187c.49-.005 1.02.003 1.594.024 7.968 11.98-16.76.12-1.594-.024zm314.957.016c11.474 9.533-16.463 2.137 0 0zm-19.752.144c.583-.008 1.2.038 1.854.143 4.84.716-15.15 17.002-10.498 6.318 2.152-3.675 4.566-6.4 8.644-6.46zM78.633 285c24.175.574-10.968 11.12 0 0zm164.822.982c18.399-.156-7.191 10.868 0 0zm24.059.268c8.506 11.348-20.993.641 0 0zm182.082.186c14.142 10.079-7.707 10.746 0 0zm-333.856.037c14.342 13.178-10.536 9.1 0 0zm165.85 0c14.082 10.913-7.538 11.007 0 0zm-58.184 3.062c8.91 8.204-14.662 11.249 0 0zm235.977 13.412c14.631 12.07-8.095 9.793 0 0zm-168.278.176c13.975 10.249-7.914 10.587 0 0zm-166.962.54c16.93 15.23-10.482 8.351 0 0zm257.236.57c8.303 10.54-14.076 10.34 0 0zm165.879.367c10.356 7.122-15.956 15.107 0 0zm-333.803 1.27c8.55 8.686-14.442 11.07 0 0zm87.129 13.974c13.331 9.826-8.45 10.04 0 0zm167.82.05c14.679 12.771-9.404 10.38 0 0zm-334.99.6c16.26 14.998-10.215 8.612 0 0zm238.37.39c9.435 9.93-14.934 11.216 0 0zm165.907.292c6.982 10.191-12.457 8.2 0 0zM204.43 322.78c10.406 7.856-15.876 15.366 0 0zm147.562 8.992c.45.001.936.014 1.461.04 5.506 10.789-14.073.627-2.703-.008a21.66 21.66 0 0 1 1.242-.032zm125.07.202c18.603.421-7.779 10.59 0 0zm-143.66.005c.274 0 .557.004.852.01 7.465 10.919-18.066-.034-.852-.01zm187.012.717c10.122 10.76-23.208 1.398 0 0zm-24.092.215c18.854.346-8.773 9.908 0 0zm-309.691.29c11.115 10.345-22.731 1.688 0 0zm128.574.054c8.308 12.124-18.762.234 0 0zm-115.5.568c13.802 13.18-10.892 9.372 0 0zm-55.562.031c15.861-.041-7.497 10.488-.786.01.272-.006.534-.009.786-.01zm18.416.053c22.025.488-9.62 11.457 0 0zm203.443.715c14.256 11.305-7.67 10.31 0 0zm166.41 1.934c15.185 10.937-8.323 9.974 0 0zm-226.447.287c8.8 8.43-14.16 11.459 0 0zm167.414.804c11.204 7.566-15.305 15.716 0 0zm-333.623.045c11.055 7.808-16.187 15.58 0 0zm236.02 13.452c14.34 10.18-7.899 10.77 0 0zm-168.49.275c17.13 15.747-10.842 7.926 0 0zm335.064 1.482c17.066 14.31-9.808 9.06 0 0zm-245.723.696c8.72 9.365-14.247 12.18 0 0zm-165.693 1.187c8.748 8.473-14.264 11.299 0 0zm334.14.166c8.782 8.448-14.212 11.403 0 0zm-247.824 12.81c15.023 9.82-7.428 9.477 0 0zm167.87.268c14.32 13.025-10.47 9.205 0 0zm166.493 1.784c14.413 13.17-10.417 9.196 0 0zm-264.39.566c8.979 9.144-13.71 12.44 0 0zm-166.315.812c8.83 8.302-14.788 11.101 0 0zm334.18.194c10.014 8.424-15.605 12.939 0 0zm-373.725 8.342c9.292 10.992-21.037.882 0 0zm15.117.025c17.404-.13-7.72 10.736-.86.014.297-.008.584-.012.86-.014zm294.801.35c19.044.095-8.346 11.415-.941.003.326-.004.639-.005.941-.003zm20.23.134c.196-.002.384-.003.563 0 10.765.2-7.301 10.99-2.553.112a26.012 26.012 0 0 1 1.99-.112zm-296.632.18c16.193 8.306-7.172 9.617 0 0zm314.105.057c19.11.279-8.607 10.184 0 0zm-179.404.359c.497-.004 1.036.004 1.617.023 7.043 10.818-17.027.097-1.617-.023zm353.514.092c8.503 11.734-21.075.066 0 0zm-337.426.082c18.93.687-8.93 9.778 0 0zm317.394.039c.276-.002.564-.001.862.002 7.96 10.296-18.248.133-.861-.002zm-135.046.28c14.54 14.081-10.009 9.607 0 0zm115.177.08c.497-.004 1.035.006 1.618.029 7.84 12.049-17.005.063-1.618-.03zm-331.341.292h.171c6.033 7.409-24.088 13.609-5 .407l4.829-.407zm50.972 3.512c14.996 9.908-7.365 9.56 0 0zm107.125.457c11.287 7.452-15.286 16 0 0zm164.987 1.496c9.232 9.297-14.57 12.072 0 0zm-430.846 9.43c16.775 15.714-10.705 8.037 0 0zm331.787 2.265c14.417 11.58-8.647 9.974 0 0zm-241.287.13c7.57 9.479-12.09 8.625 0 0zm78.963 2.251c13.696 10.088-8.628 9.699 0 0zm88.24 1.803c8.85 8.385-14.143 11.516 0 0zm163.9.928c10.262 7.265-16.222 14.93 0 0zm-412.367 9.353c17.36 14.127-9.903 8.955 0 0zm332.111 2.076c15.214 9.569-7.143 9.69 0 0zm-260.722.1c7.841 9.496-12.137 9.113 0 0zm98.092 2.514c15.842 14.867-10.21 8.633 0 0zm68.873 1.299c8.564 8.569-15.23 10.535 0 0zm164.24 1.14c10.931 6.95-17.977 15.449 0 0zm-59.299 7.793c19.847-.342-18.668 21.829 0 0zm-332.94.078c16.075 5.375-13.988 13.733 0 .004v-.004zm188.089 1.074c.665.003 1.418.035 2.267.1 6.807 11.645-15.067.24-2.904-.092.203-.005.415-.008.637-.008zm-145.088.264c8.823 11.98-18.534.179 0 0zm161.611 0c24.246.978-11.263 10.924 0 0zm-33.36.28c10.89 11.405-23.956-.192 0 0zm202.04.369c.764 0 1.673.056 2.746.177 6.934 12.206-14.218-.184-2.746-.177zm-354.334.14c22.03.244-9.297 11.482 0 0zm333.027.033c18.512.012-7.51 10.758 0 0zm36.969 1.94c15.184 9.607-7.192 9.693 0 0zm-333.707.08c14.551 10.572-7.77 9.23 0 0zm166.845 1.006c13.886 11.914-7.808 10.02 0 0zm-60.406 1.262c8.565 8.576-15.074 10.705 0 0zM134.16 445.777c8.251 9.434-14.098 11.353 0 0zm332.887 1.475c8.804 8.407-14.181 11.418 0 0zm76.49 1.107c14.293 10.894-8.009 9.033 0 0zm-334.725.51c16.953 14.113-9.791 9.105 0 0zm166.278 1.402c13.862 10.63-7.857 10.852 0 0zm-80.16.584c8.3 10.506-14.081 10.393 0 0zm-170.907 11.28c8.615 8.508-15.146 10.569 0 0zm333.123 1.578c8.76 8.336-14.898 10.85 0 0zm95.573 1.488c14.554 12.9-10.315 9.318 0 0zm-333.881.153c14.555 12.695-8.476 8.884 0 0zm166.29 1.35c14.652 10.368-7.76 9.206 0 0zm-99.79.796c8.377 9.489-14.358 12.41 0 0zm131.988 8.709c8.016 11.616-18.886-.11 0 0zm162.238.195c.666 0 1.42.029 2.27.092 6.9 12.01-15.071.312-2.906-.082.202-.006.414-.01.636-.01zm16.569.27c24.216 1.03-11.28 10.902 0 0zm-164.506.11c18.693.892-7.482 10.796 0 0zm-181.219.214c.277-.003.564-.003.863 0 8.237 10.948-18.294.163-.863 0zm15.127.201c24.348 1.088-11.281 10.878 0 0zm-33.394.406c5.514 11.08-16.09.016 0 0zm-153.328.141c17.041.052-7.81 10.993-.844.006.292-.005.573-.007.844-.006zm482.69.041c.422.004.876.03 1.368.08 3.559 1.049-13.237 18.7-10.959 8.32 4.401-3.556 3.27-8.46 9.592-8.4zm-163.306.34c8.689 11.796-18.996 1.154 0 0zm-301.158.068c20.87.034-7.306 11.459 0 0zm19.29.826c13.881 13.27-10.821 9.378 0 0zm166.495 2.458c17.074 15.32-10.38 8.428 0 0zm-60.82.412c9.472 8.879-14.643 12.067 0 0zm226.883.605c15.126 9.732-7.197 9.697 0 0zm-59.785.162c8.86 8.28-14.72 11.224 0 0zm-265.084 13.914c16.912 15.543-10.709 8.056 0 0zm168.107 1.676c13.582 9.947-7.752 11.002 0 0zm167.63.197c15.377 13.196-10.19 8.773 0 0zm-246.808.352c8.666 8.587-14.32 11.256 0 0zm166.143.17c8.369 10.404-14.107 10.49 0 0zm166.973.21c8.65 8.563-14.35 11.154 0 0zm-412.206 13.864c14.776 10.274-7.587 9.352 0 0zm168.274 1.68c16.442 14.143-10.44 8.187 0 0zm167.498.183c13.956 11.234-8.076 9.417 0 0zm-266.723.303c8.859 8.253-14.778 11.082 0 0zm166.604.406c9.864 9.054-15.796 12.729 0 0zm166.955.194c8.676 9.357-14.261 12.077 0 0zm-206.485 8.07c.663.009 1.413.05 2.258.125 6.824 12.08-15.003.099-2.892-.123.202-.004.414-.005.634-.002zm-189.457.086c17.24.31-10.754 22.876-.392 4.77l-2.008-2.567 2.4-2.203zm206.168.092c20.383-.102-7.892 11.655 0 0zm-33.587.584c5.428 11.089-15.948.043 0 0zm163.029.142c18.785.1-6.943 11.227 0 0zm-278.143.559c13.701 10.667-7.406 8.69 0 0zm297.477.14c22.46.676-10.977 10.886 0 0zm19.178.108c21.02.565-8.97 11.21 0 0zm-149.485.039c14.636 10.487-7.623 9.357 0 0zm-182.385.814c.268.003.547.01.836.018 8.095 12.152-17.71-.17-.836-.018zm-23.228.006c18.529.102-7.395 10.76 0 0zm372.18 3.17c14.94 9.98-7.384 9.544 0 0zm-57.49 1.256c8.362 8.785-15.331 10.417 0 0zm-166.684.186c8.784 8.481-14.188 11.493 0 0zm-99.971 10.629c13.988 10.181-7.883 10.614 0 0zm167.852.23c15.35 13.439-10.335 8.577 0 0zm-243.848 2.59c11.642 5.996-19.389 16.872 0 0zm410.799 1.162c14.337 10.806-7.915 9.113 0 0zm-78.83 1.144c8.433 8.856-14.549 11.008 0 0zm-165.325.987c9.088 8.551-14.902 13.423 0 0zm-81.12 10.61c16.016 15.028-10.169 8.667 0 0zm167.724.142c13.333 10.64-7.805 10.677 0 0zM121.846 561.1c9.088 9.25-15.16 13.09 0 0zm429.855 1.32c16.009 14.978-10.233 8.602 0 0zm-97.92.908c8.722 9.855-15.126 11.243 0 0zm-165.539.951c9.347 7.619-15.003 13.854 0 0zm-61.107 7.453c18.53 1.751-6.795 10.982 0 0zm-147.375.055c.463.005.965.022 1.508.05 6.203 10.753-14.485.522-2.788-.028.39-.019.816-.026 1.28-.022zm15.91.424c18.611.694-7.515 10.607 0 0zm506.889 1.865c.251 0 .513.005.785.012 6.438 11.655-16.646-.053-.785-.012zm-20.041.03c.499-.002 1.04.008 1.625.03 7.152 10.808-17.101.007-1.625-.03zm-191.905.164c19.54.485-12.718 19.37 0 0zm-121.855.035c.495-.004 1.032.005 1.613.027 7.81 12.037-16.973.086-1.613-.027zm-22.49.105c18.37-.034-7.295 10.805 0 0zm317.996.115c.23-.002.471-.003.72 0 5.307 10.963-15.284.16-.72 0zm-117.223.229c14.005 9.963-7.602 11.042 0 0zm-13.295.053c8.487 12.097-18.478.03 0 0zm-319.277.293c14.182 9.42-5.957 11.087 0 0zm296.03.265c16.98-.166-7.857 10.848-.84.016.29-.009.57-.013.839-.016zm-187.985.51c11.2 7.57-15.146 15.735 0 0zm60.191 2.05c17.074 13.95-10.587 7.795 0 0zm271.965 1.604c9.066 9.733-14.56 11.731 0 0zm-97.863 11.782c14.273 9.895-8.069 10.318 0 0zm-332.473.109c13.995 10.277-7.878 10.617 0 0zm258.559.871c8.884 9.244-14.637 11.88 0 0zm-168.493.996c8.943 8.292-14.026 11.673 0 0zm79.182.44c15.297 13.056-10.152 8.854 0 0zm251.734 2.535c8.83 9.19-14.827 11.86 0 0zm-78.521 11.545c14.876 11.264-8.882 9.167 0 0zm-332.879.26c13.98 10.266-7.886 10.606 0 0zm239.033.685c10.69 6.043-17.284 15.889 0 0zm-167.953 1.197c8.554 8.66-14.477 10.994 0 0zm98.06.383c13.923 9.367-8.134 11.067 0 0zm232.499 2.408c2.845 9.205-6.288 24.544-4.948 7.133.366-2.572 2.227-6.372 4.948-7.133zm-204.782 7.504c.81-.013 1.768.028 2.897.131 6.756 12.103-15.026.059-2.897-.13zm187.008.184c8.328 11.428-20.813.552 0 0zm-375.912.072c13.443 2.025-2.436 3.453-1.117 12.143-9.932 5.566.314-11.382 1.117-12.143zm356.72.016c10.139 11.349-21.17.47 0 0zm-150.538.472c18.636.852-7.709 10.516 0 0zm-34.375.012c.27-.002.553 0 .845.004 8.358 12.034-17.893.106-.845-.004zm165.61.328a.35.35 0 0 1 .091.026c.072.026.148.056.144.01 4.448 6.974-15.793 17.082-5.085.355l4.83-.348c-.013-.033-.003-.043.02-.043zm-318.095.11c21.898.339-10.002 11.343 0 0zm19.793.205c17.327-.151-6.663 12.106-.857.017.296-.009.582-.015.857-.017zm17.65 2.345c17.722 14.576-10.792 7.502 0 0zm166.874 2.461c15.619 9.507-7.346 9.456 0 0zm-58.309.383c8.75 9.793-14.954 10.975 0 0zm232.89 11.691c17.16 15.68-10.655 8.132 0 0zm-330.493 1.221c14.969 11.252-8.453 9.874 0 0zm257.125 1.233c8.716 8.539-14.267 11.36 0 0zm-334.746.972c8.853 8.348-14.134 11.442 0 0zm244.945 0c14.281 10.932-7.918 9.14 0 0zm-79.775 1.27c8.539 8.688-14.46 11.015 0 0zm252.304 12.02c13.977 10.314-7.91 10.594 0 0zm-330.66 1.353c14.367 13.055-10.398 9.247 0 0zm237.914.744c8.51 8.625-15.246 10.467 0 0zm-334.723.996c9.983 8.418-16.244 13.139 0 0zm264.235.356c12.97 9.856-7.704 11.076 0 0zm-99.088 1.01c9.501 8.46-14.476 11.605 0 0zm-36.81 8.312c.27 0 .552 0 .845.006 7.462 10.849-17.93.037-.846-.006zm15.98.101c18.325.014-7.326 11.677-.906.008.313-.006.615-.008.906-.008zm151.57 1.227c7.966 11.257-20.14.7 0 0zm180.393.039c.764.01 1.671.075 2.742.209 6.715 12.292-14.213-.347-2.742-.21zm-366.15.328c8.717 11.77-18.968 1.183 0 0zm200.085.033c18.608.346-7.523 10.695 0 0zm-34.332.078c.27.002.55.006.84.014 8.257 12.114-17.774-.101-.84-.014zm183.912.018c8.135 11.346-20.432.612 0 0zm-19.214.162c3.222 7.442-21.285 13.727-4.807.084 1.602-.023 3.205-.04 4.807-.084zm-461.08.406c.49-.006 1.023 0 1.6.02 8.126 11.939-16.803.171-1.6-.02zm181.904.112c15.32 15.062-10.518 8.88 0 0zm-203.555.047c16.873.125-8.08 10.683-.836.001.29-.003.568-.003.836-.001zm36.858.01c14.025 12.355-9.542 11.029 0 0zm105.36 3.298c9.045 8.296-14.935 13.549 0 0zm227.673.928c15.799 9.22-7.176 9.587 0 0zm-59.864.7c8.61 10.29-14.887 10.874 0 0zm-98.625 12.53c17.005 16.061-10.905 7.807 0 0zm-167.01.268c16.523 15.916-10.917 7.79 0 0zm422.112.072c8.929 9.154-14.643 12.35 0 0zm-85.035 1.85c15.343 13.463-10.208 8.722 0 0zm-248.897.256c8.77 8.678-14.785 13.326 0 0zm167.59 1.521c9.127 9.453-14.469 11.126 0 0zm-79.135 12.652c15.159 11.021-8.408 9.92 0 0zm-167.066.235c15.466 10.616-8.16 10.117 0 0zm403.102.281c9.133 7.505-13.742 12.4 0 0zm-66.215 1.717c14.065 10.484-8.087 10.597 0 0zm-267.711.357c8.732 10.037-13.77 10.958 0 0zm166.822 1.102c10.002 8.435-15.768 13.033 0 0z" style="opacity:1;fill:#e6e6e6;fill-opacity:.871111;fill-rule:evenodd;stroke-width:.95219529;-inkscape-stroke:none;stop-color:#000;font-variation-settings:normal;vector-effect:none;stroke:none;stroke-linecap:round;stroke-linejoin:round;stroke-miterlimit:4;stroke-dasharray:none;stroke-dashoffset:0;stroke-opacity:1;stop-opacity:1" transform="scale(.26458)"/></svg>