<svg xmlns="http://www.w3.org/2000/svg" width="384" height="768" style="enable-background:new" viewBox="0 0 101.6 203.2"><g style="opacity:1"><path d="M135.697 8.49c-1.789-.112-3.915.211-6.5 1.108h-53.59c-3.658 8.442-9.73 15.77-13.228 23.923-7.651 7.783-6.393 14.053-4.463 22.245 4.72 8.17 11.836 9.76 11.223 19.435 10.22 3.627 4.865 24.505 18.847 18.137 2.482 4.663-12.003 7.535-14.533 15.99 1.578 10.388-13.852 13.78-10.424 24.217-10.583 6.938-6.315 12.615-2.195 23.268 6.453 7.77 8.739 17.984 16.043 25.437 1.745 8.738 13.784 5.335 4.584 11.64-5.777 7.719-10.924 17.382-16.52 26.178-1.435 10.417-16.44 16.554-5.728 24.397-2.375 9.571 10.385 14.484 10.697 24.07 9.293 7.544 5.582 16.809 18.494 18.375-6.313 1.866-14.643 10.76-17.181 20.516-7.87 6.46-7.675 17.335-14.889 23.554-.945 5.993 2.213 14.775 6.504 20.024 6.76 6.642 6.04 16.904 14.668 22.666-5.564 9.426 17.442 5.755 5.824 11.773-2.482 5.736-11.784 9.414-11.996 17.528-8.468 8.16-8.365 19.63-16.371 26.375 2.443 4.821 4.56 20.361 13.521 20.738-1.342 11.56 7.853 15.092 11.139 24.102-1.672 4.348 16.029 8.841-.1 8.619 3.591 3.769-2.677 9.452-5.595 9.687-2.053 11.024-10.164 14.804-12.924 25.104-9.364 9.276-2.287 15.424 1.45 26.015 9.239 1.242 3.58 16.563 15.114 19.155-6.97 11.822 19.949 9.719 3.434 15.795-9.374 7.607-6.34 20.966-15.48 24.498-.854 11.273-18.139 17.29-6.561 26.736-.252 9.969 11.634 13.26 11.21 23.19 10.366 3.872 3.992 18.477 16.583 15.417 1.422 6.228-7.953 2.869-9.217 13.399-8.008 3.874-4.764 16.349-13.902 20.531 1.921 10.78-17.903 15.106-3.92 23.713-.997 12.09 12.994 13.2 11.072 24.006 4.56 10.199 16.343 8.462 27.24 8.347 13.107-.498 27.57.983 39.854-.714 12.476-5.731 8.918-18.007 18.947-24.766 2.14-8.703 10.606-24.042 16.484-12.918 12.797-2.304 13.79-4.238 25.46.002 6.097-6.142 16.646-.629 25.005 3.357 1.553 8.096 6.478 13.584 11.385 20.145.252 9.952 10.262 17.314 20.61 14.894h50.947c6.775-5.978 8.429-15.526 14.25-21.775 3.948-8.007 13.833-20.293 2.338-25.309-.124-10.15-11.637-14.863-11.551-23.886-10.228-10.565-10.654-17.56-2.076-29.54 6.835-8.296 12.879-18.729 16.705-28.818 7.055-10.613-6.964-20.15-10.29-30.123-2.827-9.2-16.226-18.975-11.062-26.722 1.703-9.495 11.306-17.282 14.881-25.77 4.63-11.317 16.059-22.352 2.139-26.11 2.11-12.067-12.222-16.529-10.842-25.857-9.754-9.838-10.033-15.88-1.154-28.129 7.256-10.614 13.768-22.053 19.09-33.73-2.988-12.47-14.204-22.72-18.063-34.363-9.307-9.983-9.121-20.978.937-30.141 4.178-9.896 11.965-17.495 14.211-28.01 8.885-4.422-2.449-12.76-4.398-19.234-6.305-10.48-11.686-22.012-19.84-29.977 1.528-8.86 7.006-15.136 12.492-23.054 4.326-10.522 12.817-21.404 14.828-30.012-8.84-14.916-17.608-30.705-26.462-45.834 1.316-9.253 7.44-12.929 12.222-21.168 2.623-10.897 17.105-21.595 13.069-31.027-8.457-13.319-15.25-28.396-24.73-41.28.556-10.893 6.78-16.279 12.444-25.06-2.396-8.292 12.523-12.89 10.801-24.215 5.803-3.044-7.305-20.31-11.914-24.045-2.303-11.564-7.628-19.024-22.498-15.611-16.884.495-34.076-.98-50.773.713-2.885 10.765-11.521 16.44-13.465 26.459-3.23 12.566-15.063 11.973-26.059 11.228-12.567.03-25.524-.307-37.66.719-5.358-8.988-10.321-15.536-14.228-25.36-5.17-5.706-6.61-14.38-14.364-14.867zm85.592 38.877c15.048 9.81-7.316 9.593 0 0zm-59.408.797c11.362 7.323-14.906 16.04 0 0zm70.209 15.184c14.916 11.345-8.525 9.81 0 0zm-78.19 2.236c9.07 5.173-12.03 14.421-2.082 1.293l2.082-1.293zm86.96 14.734c15.398 14.129-9.787 9.674 0 0zm-97.31 1.36c10.023 9.84-16.942 9.31 0 0zM271.536 91.86c.299-.003.583-.002.856 0 16.33.169-14.716 11.306-3.924.123a61.014 61.014 0 0 1 3.068-.123zm-22.262.043c22.815 1.035-10.385 11.057 0 0zm38.4.131c22.91.723-10.49 11.063 0 0zm-182.753.274c.663.008 1.414.047 2.26.12 6.767 12.1-15.011.122-2.895-.118.202-.004.414-.005.635-.002zm16.582.517c18.806.012-7.123 11.113 0 0zm122.146 5.25c8.807 5.034-11.106 14.884-2.228 1.424l2.228-1.424zm-105.109.207c15.843 10.013-7.656 10.509 0 0zm10.924 15.922c14.22 10.98-7.973 9.073 0 0zm85.35.916c8.544 8.699-14.524 11.03 0 0zm-76.018 15.79c13.048 9.63-7.37 10.834 0 0zm65.601.355c8.52 8.546-14.804 10.083 0 0zm-57.519 7.957c17.01-.163-7.606 11.102-.842.015.291-.008.572-.013.842-.015zm18.508.576c19.226.728-8.588 10.155 0 0zm19.03.318c18.627-.188-7.24 10.895 0 0zm17.269 5.15c17.033 14.026-10.63 7.735 0 0zm-61.34 1.915c10.082 9.747-16.926 9.573 0 0zm72.185 13.904c15.381 13.295-10.17 8.757 0 0zm-82.86 2.04c8.53 8.74-14.436 11.145 0 0zm92.268 14.616v.002l2.17 1.262.155.273v.012c9.06 14.665-10.575 3.388-2.325-1.549zm-101.17 2.385c10.586 8.43-15.407 14.695 0 0zm108.403 6.996c18.518 1.902-7.263 10.439 0 0zm-149.3 1.232c17.083-.187-7.145 11.538-.847.018.293-.01.575-.015.846-.018zm18.265.352c20.75-.077-7.148 11.558 0 0zm150.095 1.344c18.772-.11-7.408 11.038 0 0zm19.245.324c22.68.167-10.6 11.179 0 0zm-150.856.717c15.344 9.923-7.69 9.177 0 0zm109.488 3.12c8.48 8.68-15.182 10.642 0 0zm-98.35 12.52c14.988 11.21-8.464 9.865 0 0zm87.934 3.598c8.51 8.76-14.502 11.047 0 0zm-78.011 12.852c13.775 10.993-7.917 9.563 0 0zm67.861 3.543c9.033 9.165-14.736 11.188 0 0zm-37.559 8.056c.499-.002 1.04.008 1.625.031 8 12.038-17.081.05-1.625-.03zm15.9.477c18.61.898-7.703 10.504 0 0zm-35.212.771c.544.004 1.123.09 1.746.276 5.19.134-16.257 19.246-10.098 5.968 2.505-2.248 4.544-6.268 8.352-6.244zm53.158 3.866c13.748 10.803-7.397 10.8 0 0zm9.832 16.388c13.157 9.18-7.061 11.104 0 0zm-77.576.2c10.436 7.036-16.056 15.247 0 0zm87.254 16.38c14.05 10.626-7.335 10.82 0 0zm-96.768.266c9.577 8.882-15.665 12.733 0 0zm103.317 10.055c21.89.545-8.191 11.25 0 0zm19.355.685c18.998.198-8.564 10.186 0 0zm19.09.502c18.788.725-7.81 10.533 0 0zm-164.39 1.063c.673.002 1.438.032 2.304.093 8.237 11.065-15.206.236-2.947-.086.204-.005.418-.008.642-.007zm16.138.005c14.833 13.644-9.734 9.918 0 0zm-37.064.141c16.997.033-7.849 10.99-.842.008.291-.005.572-.008.842-.008zm145.183 3.713c7.783 10.231-14.54 11.3 0 0zm-99.873 13.508c14.998 12.625-10.17 9.58 0 0zm89.822 2.914c9.174 8.91-14.89 12.816 0 0zm-80.123 13.656c14.68 10.331-7.68 9.276 0 0zm70.424 2.893c8.502 9.554-14.715 10.854 0 0zm-19.515 9.935c.437-.005.91.001 1.421.02l.165-.004c5.54 10.992-15.152.136-1.586-.016zm-39.065.137c.681.006 1.415.168 2.213.533 7.067 3.078-17.312 17.057-8.918 4.393 1.663-1.883 3.454-4.508 6.041-4.881.216-.031.437-.047.664-.045zm19.863.045c.501-.001 1.043.01 1.63.033 7.104 10.829-17.158-.006-1.63-.033zm33.211 2.457c14.912 13.634-9.693 9.945 0 0zm-67.345 16.514c8.431 8.796-14.596 10.873 0 0zm75.664.804c17.47 16.022-10.874 7.884 0 0zm-85.313 15.862c8.69 8.974-14.284 13.218 0 0zm95.094.689c14.51 10.565-7.83 9.154 0 0zm30.758 10.865c.5-.001 1.04.01 1.627.035 7.957 12.056-17.11.01-1.627-.035zm-147.354.227c.27.001.55.006.84.014 8.173 12.12-17.794-.107-.84-.014zm163.205.017c18.664.44-7.486 10.689 0 .008v-.008zm-181.601.403c8.309 11.794-20.799-.068 0 0zm145.37.088c.133.002.269.008.411.02.65.048 1.41.185 2.307.427 5.433 1.844-16.21 20.817-8.194 5.496 2.138-2.237 1.39-6.02 5.477-5.943zm-113.12.568c14.736 11.613-9.004 9.487 0 0zm9.34 16.754c14.558 11.312-8.45 9.614 0 0zm91.195 4.139c8.657 8.581-14.33 11.236 0 0zm-81.602 12.464c14.602 10.533-8.027 9.997 0 0zm71.51 3.909c8.809 8.304-14.877 10.955 0 0zm-38.113 9.16c.501-.005 1.044.003 1.63.021 7.08 10.819-17.175.117-1.63-.021zm15.945.65c18.6.573-7.512 10.633 0 0zm-33.402.746c8.468 11.985-18.968.681 0 0zm-10.04 1.99c8.444 9.743-14.592 11.956 0 0zm60.583 2.352c16.517 15.268-10.48 8.318 0 0zm-70.38 14.182c8.651 9.247-13.96 11.61 0 0zm79.452 2.693c17.426 15.003-10.34 8.518 0 0zm-88.922 14.055c8.642 9.838-13.592 11.673 0 0zm99.283 2.074c16.804 12.04-9.596 9.476 0 0zm5.873 9.922c18.705.258-7.34 10.97 0 0zm19.016 1.27c21.911.51-8.836 11.737 0 0zm24.115.087c10.767 10.338-24.28 1.918 0 0zm-165.988.364c10.871 11.033-21.73 1.313 0 0zm13.42.369c14.79 10.215-7.57 9.394 0 0zm-37.404.146c22.588.11-10.354 11.227 0 0zm145.71 3.578c8.991 9.051-14.326 12.04 0 0zm-97.833 12.448c15.507 13.553-10.3 8.572 0 0zm88.586 4.347c10.218 7.324-16.112 14.811 0 0zm-79.29 12.416c15.723 15.339-10.341 8.473 0 0zm68.99 3.781c10.233 9.619-16.724 9.68 0 0zm-38.404 9.247c.665.005 1.416.04 2.264.109 6.76 11.683-15.05.166-2.9-.106.202-.004.415-.005.636-.003zm16.717.255c22.045.764-9.818 11.092 0 0zm-35.16.11c.496 0 1.035.013 1.617.04 7.66 11.7-15.426.695-2.982-.005a23.99 23.99 0 0 1 1.365-.035zm52.316 3.629c13.05 11.933-8.15 9.525 0 0zm-60.525.709c10.799 8.813-14.46 14.735 0 0zm69.264 16.338c16.91 14.922-10.367 8.46 0 0zm-76.852 1.34c9.038 7.648-14.117 11.988 0 0zm86.39 15.26c14.017 11.089-7.243 10.021 0 0zm-97.013.652c8.63 8.425-15.812 9.898 0 0zm-22.773 8.927c15.568.109-8.188 11.003-1.631.024.586-.02 1.128-.027 1.63-.024zm-15.805.032c8.42 9.951-18.935.713 0 0zm180.502.6c18.662-.115-7.205 10.89 0 0zm-15.098.003c.27 0 .55.002.84.008 8.32 12.072-17.774.013-.84-.008zm-131.927.586c14.053 7.412-6.666 11.059 0 0zm113.408 1.164c.086 0 .173.001.26.004 2.04 2.139-6.948 11.405-11.727 12.539.71-6.014 6.007-12.505 11.467-12.543zm-103.856 15.102c13.433 10.339-7.405 10.205 0 0zm87.49 6.234c9.074 9.996-14.692 10.836 0 0zm-77.945 10.41c14.031 10.138-7.739 10.751 0 0zm68.43 6.281c8.852 10.709-14.151 10.342 0 0zm-61.713 8.631c17.537.793-12.924 18.959 0 0zm19.12.737c22.178-.118-8.3 11.338 0 0zm20.167.168c20.277-.006-9.02 11.256-1.004.01.347-.007.682-.01 1.004-.01zm17.861 1.529c19.255 15.32-11.634 6.407 0 0zm-65.459 15.681c8.06 10.25-14.093 11.488 0 0zm76.237.204c13.309 10.836-7.876 10.042 0 0zm-86.313 16.207c8.805 8.312-14.86 10.977 0 0zm95.758.414c14.058 10.799-7.336 11.194 0 0zm9.623 14.627c9.44.003-10.869 16.552-7.234 5.709 1.915-1.582 1.341-5.144 4.21-5.338 1.002-.208 1.847-.324 2.552-.36a9.15 9.15 0 0 1 .472-.011zm40.197.025c8.215 12.197-18.815.04 0 0zm-190.32.104c18.611.125-7.515 10.73 0 0zm22.492.039c.492-.004 1.025.005 1.602.027 7.85 12.02-16.833.08-1.602-.027zm15.02.205c14.366 13.673-9.522 10.056 0 0zm128.742.4c22.663.398-10.68 11.074 0 0zm-120.922 17.193c17.288 16.03-10.895 7.864 0 0zm91.094.159c10.546 7.432-17.072 15.075 0 0zm-81.375 16.418c13.984 11.683-7.888 9.263 0 0zm71.285.033c8.972 8.095-14.586 11.288-.02.002l.02-.002z" style="fill:#e6e6e6;fill-opacity:.871111;fill-rule:evenodd;stroke-width:.952195;stroke-linecap:round;stroke-linejoin:round;-inkscape-stroke:none;stop-color:#000" transform="scale(.26458)"/></g></svg>