<svg xmlns="http://www.w3.org/2000/svg" width="672" height="576" style="enable-background:new" viewBox="0 0 177.8 152.4"><g style="opacity:1"><path d="M277.852 9.074c-5.83-.046-12.728 1.755-17.862.504H218.64c-1.891 9.474-7.403 14.071-12.98 22.483-7.948 6.033-4.071 29.58-13.522 15.914-11.483 1.058-22.112-.975-33.309 1.63-7.692-3.565-18.29-2.487-19.467 6.895-11.857 1.53-2.667 17.936-14.04 18.71-3.96 8.552-6.47 21.698-18.7 20.765-10 3.743-20.327-1.362-31.307 1.814-7.708-4.418-21.018-2.931-23.496 8.732-7.136 12.117-13.941 24.527-21.07 36.499 6.047 13.801 14.8 27.609 22.764 39.92 3.852 10.68 15.775 5.503 2.73 15.623-8.253 7.728-9.045 17.313-17.234 26.15 2.297 8.477-13.954 11.525-4.768 21.066 4.953 10.754 11.95 22.52 19.227 32.23 2.326 8.835 12 6.7 3.484 16.743-10.527 2.821-4.45 17.353-14.752 20.424-1.142 9.723-14.009 14.772-8.472 25.332 3.078 8.553 10.01 16.965 14.136 26.064 6.12 3.755 4.266 17.722 14.055 15.207 3.403 7.23-16.62 10.488-11.412 21.06-9.438 5.646-8.21 13.843-13.82 21.93-12.187 3.737-.383 14.524 2.22 22.29 8.258 6.401 7.34 18.044 16.457 24.66-.172 7.717 12.17 7.295 19.645 8.263 11.18-.295 23.814-2.288 35.545.008 10.754-.824 7.627 16.812 16.836 22.809 1.969 7.852 9.234 13.612 11.566 21.36 9.455 6.584 19.868 1.11 31.305 3.83 9.447-2.03 21.243-.872 28.957 1.349 1.497 8.207 7.272 13.843 11.396 20.799.976 6.068 6.823 15.028 12.608 16.244h58.785c7.005-6.215 10.033-11.668 11.867-20.736 10.618-1.9 4.71-15.9 14.104-20.19 8.606.746 14.744 4.863 22.6-.402 6.714 5.492 13.113 1.52 20.591-.215 3.462 7.458 19.593-2.693 17.404 10.115-.335 8.877 13.292 11.038 10.637 21.584 4.74 11.08 16.313 10.645 28.33 9.844h40.295c9.265-5.485 8.672-16.304 15.695-20.912 6.916-8.256 1.247-21.902 14.06-21.989 4.352 13.897 15.643-5.534 21.6 2.928 6.385 4.39 15.887-5.234 25.432 1.631 10.5-3.543 4.626-14.878 15.54-19.285.305-10.833 11.955-15.893 14.237-28.371 7.92-1.138 18.923.272 28.01-1.326 10.275.324 23.721 3.267 31.432-1.926 5.759-8.404 8.232-21.12 15.533-26.904 1.548-10.36 13.142-15.521 7.147-24.002-6.74-9.699-12.137-21.84-18.836-32.623-9.983-7.379-2.452-21.008 3.88-25.856 2.573-11.366 12.342-16.625 13.877-27.986 10.1-9.024-9.927-14.62-7.986-25.23-5.895-7.43-14.478-20.877-13.59-30.155 3.916-8.023 10.449-15.882 13.813-24.813 3.963-7.16 13.826-16.618 9.68-23.863-9.788-4.199-5.396-19.44-17.91-23.226 8.03-9.913-17.035-14.545-4.512-25.297 6.141-9.647 9.386-20.77 16.648-28.836-.848-9.003 15.118-15.234 2.176-20.914-2.98-8.027-5.276-15.263-12.14-20.309-1.371-8.504-7.779-21.298-16.167-21.135-8.107 6.17-18.95-4.48-27.789 3.954-5.373-11.226-21.69 7.278-24.71-10.51-7.277-8.576-12.465-21.804-19.233-33.31-6.426-5.56-11.124-10.591-22.319-7.817-12.637.081-28.06-1.935-38.466 1.83-14.892 18.208 7.355-10.753-7.998-11.05-.128-12.57-11.559-16.618-12.678-28.058-9.806-3.348-23.192-.496-34.385-1.443-11.129.851-23.038-1.693-33.668 1.236-4.393 8.384-6.046 15.542-12.926 22.387-1.004 9.967-11.226 12.136-4.94 20.299-4.56-4.854-10.128-7.133-19.509-3.611-9.92-4.224-19.428 1.95-30.006-1.909-10.333 5.776-12.909-5.989-19.771-10.068 6.339-11.25-13.823-13.21-8.868-23.074-1.913-4.576-5.801-5.728-10.335-5.764zm23.808 41.633c8.929 7.718-14.525 13.971 0 0zm-96.584 11.272c17.048 14.954-10.327 8.486 0 0zm255.043 2.51c9.717 7.129-15.495 14.844 0 0zm-88.11.193c17.002 16.057-10.972 7.76 0 0zm-79.82 2.716c8.63 8.604-14.398 11.142 0 0zm-77.775 11.383c16.396 15.238-10.29 8.525 0 0zm236.05 2.348c8.559 10.371-13.975 10.32 0 0zm-68.71.037c14.895 10.009-7.48 9.437 0 0zm-99.346 2.711c8.345 8.903-14.776 10.741 0 0zm-36.94 8.836c8.991 11.078-18.428.705 0 0zm-20.33.08c.51.008 1.042.061 1.602.166 2.58.127-10.645 15.344-11.625 8.187 2.341-4.093 4.915-8.145 9.522-8.347.164-.007.332-.009.502-.006zm35.936.148c16.849.127-7.725 10.777-.834.002.289-.003.567-.004.834-.002zm173.453.866c8.4 12.132-18.437-.046 0 0zm13.354.283c16.512 15.218-10.428 8.364 0 0zm-33.992.56c.46.003.958.018 1.496.045 5.99 10.666-14.378.56-2.766-.02.387-.019.81-.027 1.27-.025zm-17.666.06c-.296 7.38-24.912 12.1-4.844.013 1.614-.004 3.23-.004 4.844-.012zm-117.344.563c13.99 10.15-7.743 10.74 0 0zm-164.79.844c13.555 9.541-8.426 10.037 0 0zm439.56.551c8.9 8.965-15.002 12.156 0 0zm-96.704 14.32c16.806 14.67-10.202 8.64 0 0zm-168.468.914c14.002 10.189-7.734 10.738 0 0zm-78.567.452c8.667 8.573-14.403 11.248 0 0zm-85.742.138c15.832 14.374-10.504 8.164 0 0zm419.187.32c8.113 9.76-14.416 11.882 0 0zm-166.554.147c8.5 8.72-14.505 10.976 0 0zm89.586 14.75c13.26 10.657-7.781 10.61 0 0zm-168.323.826c13.994 10.296-7.763 10.717 0 0zm-164.57.658c16.482 15.02-10.184 8.628 0 0zm67.572.176c9.557 8.17-14.157 14.412 0 0zm166.364.45c11.135 5.679-16.163 17.132 0 0zm167.07.058c10.865 7.867-14.169 15.625 0 0zm-394.29 9.602c18.79 1.298-7.076 11.198 0 .001v-.001zm190.964.744c8.606 10.116-18.766.476 0 0zm162.555.154c.645-.01 1.344-.008 2.103.006 11.053 11.241-22.101.295-2.103-.006zm-148.243.105c18.524-.092-7.218 10.87 0 0zm164.623.102c18.804.46-7.17 11.11 0 0zm-198.816.816c.263-.004.526.007.785.036 4.24 3.837-10.288 8.369-11.998 11.996-.208-5.222 5.654-11.727 10.95-12.022a6.8 6.8 0 0 1 .263-.01zm165.154.266c.063-.006.243.1.24.035 5.468 7.247-21.087 15.874-5.082.543l4.829-.523c-.016-.038-.008-.053.013-.055zm-316.367.063c17.084.016-7.864 10.993-.846.007.293-.005.575-.008.846-.007zm19.152.38c18.53-.036-7.584 11.788-.916.012a47.9 47.9 0 0 1 .916-.012zm349.82.764c14.006 10.214-7.767 10.706 0 0zM364 143.16c14.478 13.368-10.541 8.982 0 0zm-166.668.006c14.86 10.176-7.457 9.5 0 0zm-61.418 3.47c11.415 7.246-15.042 16.146 0 0zm71.649 12.725c13.225 9.153-7.054 11.144 0 0zm331.093.137c14.003 10.188-7.78 10.694 0 0zm-166.062.752c16.98 15.001-10.4 8.402 0 0zm87.947.414c8.494 8.754-14.51 11.027 0 0zm-165.133 1.772c8.738 8.504-14.256 11.35 0 0zm-167.584 1.552c9.804 6.394-15.435 15.107 0 0zm420.428 12.15c13.986 10.304-7.782 10.692 0 0zm-331.299.05c15.8 15.104-10.308 8.533 0 0zm165.154.695c13.891 9.492-7.862 10.694 0 0zm69.022.597c9.13 4.904-11.4 14.958-2.053 1.336l2.053-1.336zm-165.693 1.41c10.702 5.92-16.821 16.14 0 0zm-167.85 1.374c4.371 5.642-5.425 27.6-4.18 8.252-1.834-3.369 1.08-7.105 4.18-8.252zm-39.297 7.203c.77-.005 1.686.044 2.768.158 7.052 12.168-14.323-.085-2.768-.158zm18.186.058c17.403 1.983-11.141 8.962 0 0zm461.011.76c18.484 1.553-7.766 10.328 0 0zm-313.21.197c.663-.002 1.416.024 2.263.084 6.9 11.996-15.028.365-2.898-.072.202-.007.413-.01.634-.012zm202.88.012c14.13 14.39-12.69 3.928 0 0zm-15.736.139c8.306 11.32-20.711.225 0 0zm-169.748.027c17.011-.079-7.88 10.822-.842.012.292-.007.572-.01.842-.012zm150.502.086c7.877 11.377-19.853.572 0 0zm-21.18.738c.596-.01 1.28.02 2.068.096 3.975.28-9.257 19.046-8.634 8.172 3.198-4.04.973-7.886 6-8.242.18-.013.368-.022.566-.026zm207.41.28a27.71 27.71 0 0 1 2.164.111c7.073 12.137-14.332.197-2.77-.105.194-.006.395-.008.606-.006zm-370.836.228c2.86 4.02-20.88 20.438-6.927 1.643 1.914-1.64 4.543-1.548 6.927-1.643zm349.727.4c16.873-.094-7.874 10.81-.836.014.29-.007.568-.012.836-.013zm-298.024.436c5.186 1.031 6.064 13.44-.332 6.338-1.246-1.811-3.622-5.636.332-6.338zm275.264 2.074c9.235 8.432-14.134 12.855 0 0zm-99.701 11.702c16.448 15.468-10.633 8.144 0 0zm-332.768 1.29c16.784 15.937-10.863 7.832 0 0zm166.963 1.477c13.242 9.325-7.274 11.108 0 0zm256.68 2.524c10.617 7.18-15.674 15.233 0 0zm-167.041.013c8.569 8.653-14.422 11.007 0 0zm-167.215.738c8.687 8.552-14.324 11.308 0 0zm252.809 10.704c14.39 10.802-7.932 9.057 0 0zm-332.975 1.298c14.002 10.265-7.759 10.714 0 0zm167.37 1.338c13.998 10.254-7.751 10.72 0 0zm69.616 2.075c9.717 8.746-16.318 12.495 0 0zm167.809.37c8.628 9.799-15.185 11.128 0 0zm-333.842 1.112c9.076 8.168-13.726 12.016 0 0zm105.057 8.045c18.556 1.2-8.097 10.283 0 0zm-164.276 1.168c.215-.002.417.003.608.012 11.483.53-17.354 19.275-5.633 3.384 1.482-.819.095-3.534 2.775-3.232a19.66 19.66 0 0 1 2.25-.164zm353.137.168c7.984 11.51-20.331.28 0 0zm14.461.039c20.791.22-8.925 11.238 0 0zm-161.838.053a35.38 35.38 0 0 1 1.608.023c7.988 11.989-16.898.123-1.608-.023zm-21.719.209c16.9.014-7.997 10.742-.835.007.29-.005.567-.008.836-.007zm202.565.156c14.22 9.388-7.4 11.659 0 0zm-55.068.05c13.484 4.54-15.3 12.665-1.104.235l1.104-.23v-.004zm-292.086.198a35.35 35.35 0 0 1 1.609.027c7.979 12.021-16.922.075-1.61-.027zm-21.002.217c15.41.129-8.519 10.691-1.617.021.58-.018 1.12-.025 1.617-.021zm202.205.095c16.603 14.883-10.273 8.56 0 0zm-166.44.399c14.128 12.454-9.471 11.062 0 0zm105.25 2.441c9.447 8.286-14.48 14.07 0 0zm162.137 13.114c8.278 10.97-13.848 10.022 0 0zm73.383.486c16.815 15.5-10.682 8.078 0 0zm-165.104.37c16.825 14.514-10.092 8.777 0 0zm-244.043.228c10.852 6.033-16.392 16.161 0 0zm76.04 1.027c14.488 11.521-8.605 10.012 0 0zm88.708 1.78c8.778 8.47-14.259 11.418 0 0zM454.96 270.49c9.149 7.865-14.918 13.827 0 0zm92.783.451c14.569 10.505-7.813 9.166 0 0zm-165 .391c13.558 10.721-7.863 9.716 0 0zm-263.525.133c8.894 8.474-15.018 13.06 0 0zm95.322 1.123c14.62 10.394-7.735 9.24 0 0zm69.803 2.066c10.945 6.294-15.594 16.471 0 0zm107.082 8.764c18.42 1.566-7.7 10.34 0 0zm-167.164.514c14.87-.113-6.83 10.928-.737.013.255-.007.5-.012.737-.013zm20.558.148c20.048.183-13.31 11.206-2.109.018a65.193 65.193 0 0 1 2.11-.018zm17.098.07c21.805.394-9.473 11.363 0 0zm294.475.608c18.884 2.318-15.413 17.775 0 0zm41.17.81c.63-.003 1.344.022 2.15.08 6.985 11.582-14.24.354-2.752-.068.191-.007.392-.01.602-.012zm-164.663.135c.49-.003 1.021.006 1.596.03 7.954 12.004-16.77.06-1.596-.03zm-22.48.068c18.495-.037-7.483 10.774 0 0zm166.021.39c16.919-.127-7.913 10.809-.837.013.29-.008.569-.012.837-.014zm-501.638.114c18.521.239-7.53 10.685 0 0zm22.654.159c.446.002.927.016 1.447.043 5.717 10.595-13.922.58-2.677-.016a21.3 21.3 0 0 1 1.23-.027zm182.371.271c14.054 11.116-8.455 9.858 0 0zm-167.35.594c14.805 10.173-7.538 9.418 0 0zm334.815.443c14.09 10.755-7.324 11.192 0 0zm-58.34.053c9.062 8.519-13.829 13.192 0 0zm-168.728.996c9.174 9.804-14.185 11.65 0 0zm325.402 13.02c8.714 8.412-14.832 10.998 0 0zm-256.19 1.386c13.683 10.118-7.475 10.6 0 0zm-166.46.24c14.354 10.822-7.979 9.051 0 0zm333.882.952c14.012 10.27-7.725 10.746 0 0zm-76.97.29c8.949 5.262-12.054 14.33-2.106 1.247l2.106-1.246zm-168.854.928c8.902 9.44-14.782 11.572 0 0zm324.795 12.684c9.637 8.938-15.582 12.615 0 0zm-236.935 1.697c15.984 15.298-10.324 8.474 0 0zm-166.47.11c16.38 15.004-10.176 8.65 0 0zm333.942.98c13.296 10.31-7.482 10.897 0 0zm-96.176.108c6.964 10.12-12.476 8.175 0 0zm-168.738 1.064c8.663 8.812-14.447 12.706 0 0zm126.297 9.645c.502 0 1.047.01 1.635.033 6.83 10.506-15.68.654-3.02 0 .422-.022.883-.033 1.385-.033zm16.594.07c20.082 1.985-10.541 9.473 0 0zm-36.182.377a64.11 64.11 0 0 1 2.092.002c10.558 11.094-21.982.325-2.092-.002zm-143.935.687c8.152 11.23-20.547.475 0 0zm15.074.162c17.024-.143-7.746 10.872-.842.018v-.002c.292-.008.572-.013.842-.016zm-34.305.053c8.202 11.472-20.54.34 0 0zm217.236.246c14.754 12.999-10.315 9.25 0 0zm111.34.5c20.76.75-7.994 11.415 0 0zm42.461.65c.272.002.554.007.848.014 8.26 12.112-17.95-.096-.848-.013zm-22.547.32c16.959-.21-7.857 10.859-.84.02.291-.009.571-.016.84-.02zm-296.543.583c14.686 10.33-7.552 9.423 0 0zm332.532.611c15.076 13.226-9.474 10.215 0 0zm-393.875 1.084c9.37 8.052-14.018 13.502 0 0zm168.431.13c10.89 8.01-16.486 15.306 0 0zm165.967.857c8.837 4.886-10.865 14.561-2.236 1.423l2.236-1.423zm-98.924 12.261c13.35 10.544-7.484 10.126 0 0zm-164.092 1.35c16.822 13.925-9.724 9.18 0 0zm331.034 1.566c16.66 15.484-10.265 7.79 0 0zm-411.4.791c8.743 8.472-14.262 11.31 0 0zm168.35.162c10.072 9.377-14.645 11.48 0 0zm166.292 1.006c10.526 6.977-16.179 15.313 0 0zm-80.248 11.577c14.848 10.148-7.485 9.438 0 0zm-163.996 1.4c14.968 11.228-8.558 9.758 0 0zm331.396 1.183c15.557 9.464-7.613 9.202 0 0zm-262.9 1.547c8.78 9.163-13.9 12.203 0 0zm-167.805.082c8.72 5.076-11.008 15.018-2.252 1.41l2.252-1.41zm333.572.659c10.685 9.121-16.25 10.512 0 0zm-226.697 7.742c19.09 1.426-7.297 10.35 0 0zm42.285 1.62c.266-.002.542-.002.83 0 8.128 11.528-17.6.192-.83 0zm180.73.106c13.196 13.358-10.299 10.298 0 0zm-12.94.08c9.454 10.084-19.396 1.544 0 0zm-191.044.176c21.815.503-8.805 11.753 0 0zm-144.242.065c.268-.002.545 0 .834.006 8.153 12.061-17.677.066-.834-.006zm501.297.463c8.66 9.665-18.71 1.257 0 0zm-40.361.01c9.222.107-8.554 14.354-8.854 7.626 1.391-3.026 3.143-5.438 5.95-7.338.95-.17 1.761-.26 2.445-.283.16-.005.312-.007.459-.006zm-484.033.107c18.876.363-8.78 9.92 0 0zm37.16.039c13.848 11.539-7.87 9.989 0 0zm278.886.13c.77-.007 1.464.004 2.086.032 18.67.83-27.09 16.739-4.632.049a63.707 63.707 0 0 1 2.546-.08zm18.538.335c22.046.544-9.908 11.118 0 0zm-130.284.117c14.037 10.275-7.687 10.778 0 0zm296.213 0c22.66.751-10.359 11.108 0 0zm-355.164 1.558c8.31 8.82-15.376 10.238 0 0zm156.945 13.664c8.95 8.193-14.564 11.467 0 0zm-255.752.932c13.644 10.632-7.686 10.74 0 0zm331.055.412c15.43 13.37-9.614 9.964 0 0zm-163.685.057c14.004 10.186-7.734 10.74 0 0zm-79.4.76c8.388 8.853-14.598 10.863 0 0zm335.714.79c9.032 8.269-14.656 13.227 0 0zm-177.432 13.694c8.706 9.9-13.849 11.097 0 0zm-236.752 1.004c16.268 14.75-10.097 8.742 0 0zm331.64.078c14.84 9.438-8.34 8.853 0 0zm-163.716.092c14.719 10.282-7.71 9.247 0 0zm-99.494.869c9.658 9.038-14.826 11.94 0 0zm335.596.559c8.512 8.623-15.264 10.475 0 0zm-61.686 9.86c8.053.164-3.81 15.95-6.013 8.757 4.796-3.618-2.502-5.989 2.841-8.264 1.292-.36 2.34-.509 3.172-.492zm16.205 1.05c18.874.403-8.769 9.898 0 0zm19.838.263c17.05.043-7.881 10.786-.843.006.292-.005.573-.006.843-.006zm-183.38.93c.663.007 1.415.045 2.263.117 6.925 12.04-15.03.145-2.898-.113.202-.004.413-.006.634-.004zm16.71.117c20.982.493-9.052 11.12 0 0zm-33.529.44c5.711 3.815-16.845 16.966-7.256 2.906-.015-4.021 4.836-2.41 7.256-2.906zm-170.3.195c11.54-.063 3.673 5.48-.798 6.178-7.218 14.145-6.859-4.17.797-6.178zm222.556.443c14.437 10.7-7.851 9.158 0 0zm-203.418.05c21.51-.178-7.817 11.496 0 0zm19.418.091c22.592.328-10.566 11.1 0 0zm349.406.598c14.82 10.18-7.467 9.48 0 0zm-331.734 2.693c15.86 10.281-8.096 9.944 0 0zM372.78 446.96c13.426 11.13-8.17 10.013 0 0zm90.912.195c9.085 8.427-14.57 13.043 0 0zm74.985.287c14.32 10.886-7.979 9.044 0 0zm-243.182.946c9.206 8.1-15.35 14.045 0 0zm-87.91 1.242c14.407 10.758-7.837 9.187 0 0zm-78.676.654c10.61 6.904-16.181 15.545 0 0zm253.633 13.201c15.055 11.156-8.476 9.847 0 0zm71.693.434c9.086 4.988-11.538 14.855-2.066 1.316l2.066-1.316zm93.979.072c13.68 10.095-7.222 10.331 0 0zm-262.139 1.196c9.059 8.152-13.73 11.932 0 0zm-68.894.96c13.74 9.853-7.432 10.755 0 0zm-97.604.924c9.247 8.683-14.236 13.253 0 0zm293.242 8.76c8.333 11.65-18.518-.026 0 0zm-188.89.066c22.046.545-9.907 11.118 0 0zm19.199 0c22.052.544-9.908 11.119 0 0zm19.23.065c21.335.302-9.51 11.278 0 0zm164.748.06c18.539.016-7.102 10.87 0 0zm19.077 1.875c16.165 11.956-8.36 9.91 0 0zm-52.428.15v.003c5.574 7.835-18.013 14.366-5.203.982l4.804-.945.399-.04zm-113.627.839c13.428 10.728-7.764 10.059 0 0zm-60.164 3.797c9.72 8.7-15.503 12.996 0 0zm236.265 11.406c13.844 10.474-7.477 10.737 0 0zm-166.367 1.232c16.947 13.992-9.732 9.166 0 0zm89.698 1.285c8.926 8.208-14.43 13.022 0 0zm-169.045 2.768c11.337 6.145-18.08 16.724 0 0zm255.244 11.441c16.446 15.022-10.226 8.597 0 0zm-165.893 1.016c16.167 14.147-10.482 8.184 0 0zm69.643 1.193c10.732 6.165-16.66 15.9 0 0zm-167.793 3.397c10.706 8.257-15.475 14.98 0 0z" style="fill:#e6e6e6;fill-opacity:.871111;fill-rule:evenodd;stroke-width:.952195;stroke-linecap:round;stroke-linejoin:round;-inkscape-stroke:none;stop-color:#000" transform="scale(.26458)"/></g></svg>