<svg xmlns="http://www.w3.org/2000/svg" width="2in" height="96" viewBox="0 0 50.8 25.4"><path d="M19.29 0c-1.22 0-1.223.001-1.834 1.06l-6.11 10.581c-.61 1.058-.61 1.06 0 2.118l6.11 10.582c.61 1.058.613 1.059 1.835 1.059h12.218c1.222 0 1.224-.001 1.834-1.06l6.11-10.581c.61-1.058.61-1.06 0-2.118L33.344 1.059C32.734 0 32.731 0 31.509 0Zm4.695 2.517a.296.296 0 0 1 .075.003c.083.009.778.367 1.574.805 5.223 2.878 5.538 3.053 5.652 3.202.065.083.905 1.526 1.863 3.21l1.74 3.062-.008.284c-.004.189-.329 1.697-.945 4.409-.836 3.687-.95 4.138-1.046 4.234-.105.105-.3.145-3.393.652-2.638.437-3.311.534-3.412.499a.37.37 0 0 1-.201-.206c-.04-.087-.63-1.833-1.317-3.875-.682-2.043-1.273-3.758-1.312-3.814-.162-.254-.236-.097-.547 1.185-.289 1.18-.341 1.303-.538 1.216-.184-.088-5.751-5.494-5.808-5.647-.057-.144.021-.271.472-.779.464-.524.481-.537.647-.542.11 0 .232.088.657.464.288.258.564.481.612.499.114.043.196-.027.196-.158 0-.197-.563-2.607-.638-2.716-.1-.158-.206-.132-1.199.315-.866.389-1.106.454-1.193.323-.035-.057.078-.55.489-2.099.297-1.115.573-2.113.617-2.213.048-.105.131-.21.206-.245.065-.035 1.5-.49 3.184-1.006 1.684-.517 3.162-.971 3.28-1.01.092-.027.206-.048.292-.052zM21.124 4.88c-.094-.009-.277.053-.624.196-1.365.555-1.422.59-1.422.8 0 .144.7 2.467.84 2.804.105.236.206.258.258.056.022-.07.057-.56.083-1.093.022-.53.057-1.04.07-1.133.018-.114.167-.376.46-.81.262-.388.433-.677.424-.73-.008-.053-.033-.085-.089-.09zm1.35 4.206a.112.112 0 0 0-.076.018c-.048.035-.065.232-.074 1.08-.013 1.015-.009 1.046.087 1.225.136.25 4.606 5.41 4.755 5.485.087.048.49.065 1.82.074 1.792.013 2.077 0 2.077-.1 0-.11-.28-.22-1.955-.762a47.59 47.59 0 0 1-1.759-.59c-.135-.07-.354-.367-2.956-3.94a308.765 308.765 0 0 0-1.545-2.114c-.193-.259-.293-.365-.373-.376zm-4.195 7.41c.078.002.242.073.472.21.9.547 4.386 2.83 4.509 2.956.162.167.162.166.266 1.483.075.945.066 1.072-.06 1.111-.027.01-.11-.035-.184-.1-.167-.14-4.54-4.917-4.825-5.267a1.655 1.655 0 0 1-.223-.318c-.018-.051-.002-.076.045-.075z" style="vector-effect:none;fill:#e6e6e6;fill-opacity:.871111;stroke:none;stroke-width:.251935;stroke-linecap:round;stroke-linejoin:round;stroke-miterlimit:4;stroke-dasharray:none;stroke-dashoffset:0;stroke-opacity:1"/></svg>