<svg xmlns="http://www.w3.org/2000/svg" width="2in" height="96" viewBox="0 0 50.8 25.4"><path d="M19.29 0c-1.22 0-1.223.001-1.834 1.06l-6.11 10.581c-.61 1.058-.61 1.06 0 2.118l6.11 10.582c.61 1.058.613 1.059 1.835 1.059h12.218c1.222 0 1.224-.001 1.835-1.06l6.11-10.581c.61-1.058.61-1.06 0-2.118l-6.11-10.582C32.732 0 32.73 0 31.508 0Zm-1.359 5.356c.11.017.15.377.202 1.397.07 1.32.094 1.467.287 1.546.163.064.78.149 1.132.154.326 0 .346-.02 1.003-1.231.865-1.602.89-1.591 1.013.292.044.652.099 1.245.123 1.31a.374.374 0 0 0 .154.172c.183.1.929.346 1.047.346.188 0 .307-.123.771-.78.243-.347.49-.678.55-.742.133-.143.286-.138.345.01.07.183.217 1.819.183 1.967-.02.074-.153.257-.301.405-.178.188-.317.39-.43.647-.124.287-.193.381-.282.406-.133.03-.1.04-1.221-.356-2.11-.741-3.796-1.053-5.432-.998-.865.024-1.438.123-1.843.306-.198.09-.277.163-.36.322-.199.385-.307.919-.307 1.532-.005.697.064.89.494 1.324.316.331.47.38.622.213.045-.05.283-.544.53-1.093.247-.548.479-1.052.523-1.117.094-.148.243-.153.282-.01.02.065.074.885.128 1.834.07 1.25.114 1.755.168 1.854.08.153.302.316.712.523.297.153.46.164.569.04.044-.05.331-.534.632-1.077.302-.54.598-1.038.668-1.107.103-.11.123-.114.192-.045.09.084.109.331.168 1.972.03.712.07 1.161.11 1.25.098.218 1.042.623 1.304.559.074-.02.277-.217.504-.484.79-.94.905-1.033 1.048-.86.074.089.217 1.384.173 1.576a1.27 1.27 0 0 1-.193.37c-.252.367-.366.624-.44.98-.109.509-.143.514-1.176.148-3.855-1.374-6.48-2.966-7.4-4.488-.147-.247-.384-.959-.473-1.438-.094-.485-.094-1.27-.005-1.764.084-.435 1.131-4.093 1.25-4.335.084-.183.183-.208.257-.07.03.05.109.43.178.85.148.866.193.96.474.92.1-.015.258-.06.356-.104.213-.104.297-.257.974-1.794.277-.628.549-1.191.603-1.245.054-.06.098-.092.134-.087zm16.11 1.476c.02.01.039.041.08.108.045.064.243.766.446 1.567.212.845.405 1.502.459 1.577.054.064.198.178.331.242.213.114.243.118.366.05.104-.06.173-.204.386-.807.32-.914.434-1.062.563-.73.079.202.49 4.082.49 4.606 0 1.161-.52 2.505-1.241 3.217-1.29 1.265-4.216 2.328-8.224 2.985-1.127.188-1.088.203-1.088-.405 0-.238-.03-.603-.069-.806l-.069-.37.237-.791c.282-.959.356-1.147.455-1.181.128-.05.207.059.593.825.41.825.529.973.76.973.213 0 .99-.187 1.083-.262.159-.128.208-.257.539-1.497.188-.702.366-1.34.396-1.418.06-.158.182-.223.266-.139.035.035.228.564.43 1.182.445 1.344.43 1.329.97 1.151.464-.158.696-.282.785-.42.04-.064.242-.835.445-1.715.42-1.849.445-1.923.573-1.923.129 0 .148.065.49 1.374.157.603.316 1.132.345 1.171.104.124.287.085.589-.118.553-.375.696-.642.8-1.497.064-.52-.005-1.207-.143-1.444-.114-.193-.312-.326-.771-.519-.954-.395-2.041-.568-3.613-.568-1.235 0-1.81.05-3.139.272-.959.158-1.151.173-1.225.079-.03-.03-.074-.203-.109-.376-.064-.36-.183-.618-.425-.939-.113-.148-.168-.271-.168-.38 0-.178.44-1.434.568-1.632.173-.262.282-.138.663.742.326.761.44.92.667.92.222 0 .949-.134 1.062-.199.154-.079.183-.158.5-1.369.395-1.502.474-1.67.662-1.388.04.064.232.633.42 1.27.223.737.386 1.196.445 1.26.109.11.509.173 1.107.173.514.005.48.074.845-1.527.232-1.023.297-1.236.39-1.295.04-.025.059-.038.078-.029zm-8.47 3.845c.188 0 .515.187.618.355.139.233.134.589-.015.762-.108.123-.138.128-.514.123-.455-.005-.534-.025-.692-.168-.089-.079-.114-.153-.114-.326 0-.301.144-.529.41-.647.114-.055.253-.1.307-.1zm-.74 2.142c1.313-.008 2.855.43 3.226.971.134.203.139.297.005.465-.326.415-1.66.667-2.812.529-1.325-.159-2.52-.712-2.52-1.162 0-.36.612-.662 1.556-.77.174-.021.357-.031.545-.033zm.24 2.892a.541.541 0 0 1 .357.136c.124.118.128.138.094.528-.06.697-.183.845-.613.727-.321-.084-.376-.208-.316-.746.034-.302.079-.475.138-.54.07-.076.203-.11.34-.105zm-.344 2.34c.136.01.276.05.414.118.796.396.687 1.577-.168 1.83-.528.152-1.018-.08-1.225-.584-.114-.267-.1-.529.044-.816.129-.257.272-.385.544-.494a.9.9 0 0 1 .391-.055z" style="vector-effect:none;fill:#e6e6e6;fill-opacity:.871111;stroke:none;stroke-width:.251935;stroke-linecap:round;stroke-linejoin:round;stroke-miterlimit:4;stroke-dasharray:none;stroke-dashoffset:0;stroke-opacity:1"/></svg>