<svg version="1.0" xmlns="http://www.w3.org/2000/svg" width="682.667" height="682.667" viewBox="0 0 512 512"><path d="M246.9 21.4c-9.4 3.3-16 9.9-21.4 21.1-8.5 17.7-8.5 40.3 0 58 8.2 17.3 21.8 25.2 36.1 21 11.1-3.2 22-17.4 25.9-33.6 2.1-9.2 1.9-24.9-.5-34.3-6-23.4-24.1-38-40.1-32.2zm-70.6 81.5c-7.1 4.5-8.1 13.1-3.2 28.7 8.4 27.3 8.1 43.3-1.4 66.8-16.9 42.2-64.3 86.6-131.4 123.1-7.8 4.2-14.9 8.5-15.8 9.5-4.6 5.1 4.1 10.3 18.2 10.8 15.9.6 28.9-3.8 53.5-18.4 7-4.2 13.4-7.4 14.3-7.2 3.8.7-6.8 13.3-35.2 41.5C56.9 376.1 47 386.6 47 387.9c0 4.9 12.8 7.3 24.9 4.7 17.1-3.6 33.2-14.3 55.8-37.2 19.3-19.7 20.8-20.1 12.2-3.4-6.8 13.4-25.3 41.1-44.3 66.4C86 431.3 80 440.2 80 441.6c0 3.3 3.5 4.8 11.2 4.7 11.5-.2 23.7-5.3 35.9-15.1 16.1-13 29.1-29.6 44.9-57.6 4-7 8.3-14 9.6-15.4l2.3-2.7.1 3.8c.1 11.1-14.6 55.5-34.9 106-6 14.8-9 23.4-8.6 24.7.9 2.8 4.9 3.5 11.7 2.1 35.1-7.2 64.4-53.4 80.7-127.1 20.8-94.4 13-203.3-17.4-243.8-11.9-15.8-29.8-24.2-39.2-18.3zm136.9 1.1c-11.7 5.5-24.6 20.3-31.1 35.6-11.1 26.2-16.9 60.3-17.8 105.4-.6 28.2.4 49.3 3.7 76 9.8 78.5 35.6 140.6 67.5 161.9 15.3 10.2 32.5 13.3 32.5 5.9 0-1.2-4.1-12.3-9.1-24.7-21.2-52.3-37.9-104.5-34.5-107.8 1.1-1.1 3.3 2.2 12.5 18.2 27.4 48 53.8 71.4 80.8 71.7 8.3.1 11.9-1.8 10.7-5.6-.4-1.2-7.5-11.3-15.9-22.6s-19.1-26.1-23.7-33c-16.6-24.4-27.8-45-24.5-45 .7 0 7.8 6.7 15.8 14.8 22.2 22.5 37.3 32.8 54.7 37.3 8.6 2.2 13.4 2.4 19.8.8 5.5-1.4 7.8-4.2 6.1-7.4-.7-1.2-9.5-10.1-19.7-19.7-24-22.8-44-44.9-44-48.7 0-2.2 3.3-.9 14.7 6 13.6 8.1 22.8 12.6 32.8 16 5.8 2 9 2.4 19 2.4 11 0 12.4-.2 16.5-2.5 3.7-2.1 4.5-3 4.5-5.5 0-3.2.8-2.6-22.4-15.4-34.9-19.3-60.9-38.6-85.6-63.5-22.4-22.5-34.7-40.7-42.3-62.6-6.8-19.6-6.9-32.9-.3-55.5 5.2-17.7 5.8-22.9 3.4-27.5-4.3-8.4-13.2-10.2-24.1-5z" fill="#f2f2f2"/></svg>