<svg xmlns="http://www.w3.org/2000/svg" viewBox="0 0 512 512" height="682.667" width="682.667" version="1.0"><path d="M224.3 44.1c-.3.9.6 5.8 2 10.8 3.3 11.3 3.5 15.2.7 16.1-1.4.4-9.1-2.2-23.3-8-32.9-13.5-37.4-15-39.2-13.5-2 1.7-1.3 3.7 4.5 13 10 16 8.8 16.8-19.4 13-25.1-3.4-27.3-2.7-20.6 6.1 2.2 2.9 4 5.8 4 6.4-.1 2.3-2.2 3.8-13.6 9.4-46 22.6-78.2 60.3-87.2 102.1-6.3 29-4.7 61.2 4.3 87.6 7.4 21.7 18.7 39.6 36 57 13.8 13.9 21 19.4 39 30 38.7 22.7 57.9 39.5 67.5 58.9 4.9 9.8 6.4 18.5 5 28.2-2 14.7-7.3 24.5-20.3 37.7-5.3 5.6-9.7 10.3-9.7 10.7 0 .4.7 1.3 1.7 2 1.3 1.2 12.7 1.5 62.9 1.7 33.8.1 62.9-.1 64.6-.6 4.3-1.1 7.2-5.5 10.3-15.7 9.2-30.2 9.9-56.4 1.9-80.4-6.1-18.5-18-37.8-33.9-54.8-22.1-23.7-50.5-42.4-88.6-58.3-16.3-6.8-23.1-10.3-30.5-15.6-17.3-12.2-24.8-28.1-24.7-51.9.1-25.5 7.4-44.2 23.3-59.5 10.9-10.5 26.2-18.4 41.9-21.6 9.5-1.9 29.7-1.5 36.6.7 3.3 1 18.8 16 89.6 86.6 77.7 77.5 85.8 85.3 88.7 85.3 2.7 0 5.2-1.8 15-10.6 15.1-13.7 18.2-16.9 18.2-19.4 0-3-3.3-3.3-16.5-1.6-17.6 2.3-21.7 2.2-25.5-1.1-4-3.3-5.4-6.7-3.9-9.6.7-1.2 4.3-5.1 8-8.7 7.4-7 8.8-10.5 4.7-11.5-1.3-.3-7.5.1-13.8 1-6.3.8-13.9 1.5-16.9 1.5-5 0-5.7-.3-9.7-4.4-6.6-6.5-6.2-8.4 3.6-18.1 12.2-12.1 10.9-13.7-9.2-11.1-6.8.9-14.6 1.6-17.2 1.6-4.5 0-5.3-.4-9.7-4.9-3.1-3-4.9-5.7-4.9-7.1 0-1.5 2.3-4.8 6.6-9.2 10.2-10.5 8.3-12.1-11.4-9.8-15.9 1.9-15.2 2.2-32.7-15.3-14.8-14.9-17.8-19-19.6-26.7-1.7-7.3 1.6-14 7-14 2.2 0 3.5 1 6.5 5.5 5.2 7.5 10.6 12.2 18.5 15.8 5.9 2.8 7.6 3.1 15.6 3.1 8.1 0 9.7-.3 16.1-3.3 10.5-4.8 12-4.4 16.6 5.1 4.8 10 7 10.2 10.3.8 2-5.7 4.2-8 7.5-8 4.4 0 13.1 3 15.5 5.4 1.2 1.2 4.2 7.3 6.5 13.4 6.5 17 9.2 18 13.1 4.8 3-9.9 4.2-11.6 8.5-11.6 5.8 0 12.4 2.1 15.1 4.9 1.5 1.5 4.7 8.2 7.7 16 2.8 7.4 5.8 13.9 6.7 14.4 2.8 1.8 4.8 0 6.4-6 4.6-16.5 6.1-18.4 13.7-16.9 5.7 1.1 8.1 4.2 13.3 17.7 5.6 14.5 6.9 16.9 9.4 16.9s3.8-3.4 9.6-25.6c4.6-17.6 4.7-18.2 3.1-21.5-2.4-5.1-19.9-24.3-23.7-26.1-1.9-.9-27.2-8-56.2-15.7-29.1-7.8-54.6-14.9-56.7-15.7-2.9-1.2-4.9-3.2-8-8-2.3-3.5-6-8-8.2-10-7.9-7.1-20.1-10.9-31.3-9.8-4.5.5-6.9.2-9.1-.9-1.6-.8-15.7-11.3-31.4-23.3-36.8-28.1-39.2-29.6-40.7-25.8zm95.5 70.8c4.2 2.2 9 7.5 10.3 11.4 1.8 5.5.7 14.4-2.3 19-3.3 4.9-11.4 9.2-17.3 9.2s-14-4.3-17.3-9.2c-3.6-5.5-4.3-14.8-1.4-20.4 5.5-10.7 18-15.2 28-10z" fill="#f2f2f2"/></svg>