<svg version="1.0" xmlns="http://www.w3.org/2000/svg" width="682.667" height="682.667" viewBox="0 0 512 512"><g fill="#f2f2f2"><path d="M214.1 26.6c-2.8 3.6-9.9 22-12.7 33.2-4.4 17.5-2.9 29.9 5.6 44.2 7.4 12.7 11.6 14.8 17 8.9 4.3-4.8 4.6-7.4 1.4-13.3-6.5-12-7.7-14.8-8.1-19-.9-7.8 1.9-19.1 10.5-42.5 2.4-6.4 1.8-8.7-2.8-11.9-4.4-3-8.3-2.9-10.9.4zm75.9-1.9c-.8.3-2.7 1.5-4.2 2.5-3.7 2.6-3.7 6.5.3 15.9 5.5 13.6 8.3 24.7 8.3 33.9.1 8.3 0 8.7-4.6 17.2-2.7 4.7-4.8 9.9-4.8 11.5 0 1.7 1.2 4.3 3.1 6.6 5.3 6.5 9.4 4.6 16.9-7.9 10.9-18.1 10.6-35.1-1-64.9-5.5-13.8-8.4-16.9-14-14.8zM83.4 109.8c-3.4 2.2-4.8 11.2-2.2 13.8.8.9 10 4.4 20.4 7.9 20.1 6.7 36.9 13.5 45 18.2 3.5 2.1 6.1 4.7 9.1 9.3 2.2 3.6 6.6 10.3 9.6 15 3 4.7 8.5 12.3 12.3 17 9.8 12.1 31.3 34 33.5 34 2.5 0 3.6-2.5 3.9-8.5.5-10 .6-9.8-11.1-22.7-14.4-16-20.5-24-28.3-37.4-3.5-6-8.1-12.8-10.1-15.1-6.4-7.3-29.9-17.9-63.2-28.7-10.9-3.5-16.6-4.4-18.9-2.8zm322.6 4.1c-30.5 10.1-50.5 18.9-57.9 25.7-2.2 1.9-6.2 7.6-9.1 12.7-7.1 12.9-16 24.9-28.6 39-14.4 16-13.7 14.8-13.6 22.9.3 14.3 2.9 14.2 17.2-.5 18-18.6 28.8-32.3 39.8-50.7 2.8-4.7 5.9-9.3 6.9-10.2 5-4.5 30.3-15.2 53.8-22.7 16.4-5.3 17.5-6 17.5-11.2 0-4.1-1.4-7.8-3.4-9.1-2.4-1.6-8.8-.5-22.6 4.1zm-154.8-2.2c-6.8 3.3-20.8 21.3-28.4 36.4-4.8 9.6-5.7 14.4-3.4 18.6 5.1 9.9 27.6 20.5 40 18.8 7.2-.9 19.3-5.9 25.1-10.3 7.1-5.4 9.8-9.7 9.2-14.9-.9-8.8-12.6-28.7-23.7-40.7-9.1-9.7-12.4-11.1-18.8-7.9zm-13.9 91.8c-3.3 2.3-4.7 10.8-4 25 1 20.5 7.1 47.9 11.6 51.9 2.8 2.6 19.4 2.6 22.2 0 6.7-6.1 14.3-53.9 11-69.7-1.7-8-3.7-9.2-12.7-7.6-6.2 1.1-15.8.8-22.9-.6-2-.4-3.8-.1-5.2 1zm-96 15.6c-4.1 1.2-5.2 3.4-9.3 17.9-13 46.1-36 95.1-58.7 125C61.2 378 61 378.3 61 381.1c0 3.9 5.2 8.9 9.3 8.9 2.5 0 4.1-1.1 8.3-5.5 11.8-12.8 26-34.9 39.2-61.5 11.2-22.3 18-39.1 26.1-63.8 3.1-9.5 6.4-18.1 7.4-19.2 3.6-4.3 20-1 45.1 9 15.6 6.3 17.5 6.7 19.4 4.8 2.6-2.6.6-13.2-3.2-16.9-2.8-2.7-18.4-9-32.1-12.8-15.8-4.5-33.4-6.7-39.2-5zm218.7-.4c-21.7 2-54.4 12.2-60.7 18.8-3.4 3.5-5.1 10.2-3.9 15.1.6 2.3 1.1 2.6 4.4 2.1 2-.2 9.8-3 17.2-6 23.3-9.6 40.1-12.9 43.7-8.7 1 1.1 4.3 9.7 7.4 19.2 8.2 25 14.9 41.6 26.6 64.9 14.6 29.3 38.6 64.4 45.1 66.1 2.5.7 7.1-1.5 9.4-4.5 3.2-4 2.3-7.3-4.1-15.3-27.1-33.6-53.9-89.5-66.7-138.7-2.3-9.1-3.8-11.5-8.2-12.6-2-.6-4.4-1-5.2-.9-.8.1-3.1.3-5 .5zm-153.1 57.5c-18.6 16.7-28 24.3-37.9 30.8-5.8 3.8-12.1 8.2-14 9.9l-3.5 2.9-.2 11.9c-.6 24.8-2.4 53.3-4.3 66.3-2.5 17.1-8.7 42.3-11.4 46.4-1.3 1.8-9.8 8.2-20.8 15.6-10.3 6.9-19.2 13.5-19.9 14.7-.6 1.2-.9 3.3-.5 4.9.9 3.4 5.9 8.4 8.5 8.4 3.3 0 46.8-29.4 48.5-32.9 2.1-3.9 7.1-21.9 10-36 3.7-17.4 5.6-34.9 6.9-63.2 1-19.5 1.6-26.1 2.7-27.4.8-1 4.6-3.9 8.5-6.5 14.7-9.9 39.1-30.8 42.7-36.4 2.1-3.5 1.9-8.7-.8-13.7-2.4-4.7-5.3-3.9-14.5 4.3zm83.7-4.3c-2.7 5.1-2.9 10.2-.7 13.7 3.7 5.9 28.2 26.6 46.4 39.1 2.6 1.8 5.1 4.3 5.6 5.5.5 1.3 1.1 10.6 1.5 20.8 1.3 36 3.8 55.6 10.6 82.6 6.1 24.3 4.2 21.9 30.5 39.4 12.4 8.2 23.5 15 24.6 15 2.6 0 7.6-5 8.5-8.4.4-1.6.1-3.7-.6-5-.6-1.3-9.7-8-20.1-15-10.4-6.9-19.6-13.7-20.5-15.1-3.7-5.7-10.7-36.9-12.9-58.3-.8-7.5-1.8-25-2.1-38.7-.4-13.8-1.1-26-1.5-27.2-.9-2.3-3.7-4.5-16.2-12.6-7.3-4.7-22.8-17.3-38.6-31.5-9.2-8.2-12.1-9-14.5-4.3z"/><path d="M242 302.8c-17.9 5.9-35.7 21.2-39.7 34-2.6 8.4 1.1 30.3 8.8 53 7.6 22.3 28.9 61.6 39.4 72.8 6 6.3 9 4.3 21.1-13.7 20.9-31.3 38.3-77.6 38.8-103.4.1-10.4-2.3-15.5-11.9-25-7.7-7.5-14.8-12.2-24.7-16.3-8.4-3.5-23.5-4.1-31.8-1.4z"/></g></svg>