<svg version="1.0" xmlns="http://www.w3.org/2000/svg" width="682.667" height="682.667" viewBox="0 0 512 512"><path d="M338.5 31.6c-3.1 3.3-9 17.5-12 28.7-6.2 22.9-5.7 46.2 1.5 74.7 1.1 4.7 6.5 21.8 12 38 8.5 25.6 13.3 43.1 15.5 57.2.8 5.3 2.7 6.8 8.6 6.8 3.7 0 5.4-.5 7-2.1 2-2 2.1-2.9 1.5-9.8-1-12-4.8-26.1-16.6-61.1-12.4-36.9-15-48.1-15.8-66.3-.7-19 1.6-30.8 10-50.6 4.5-10.7 4.3-12.6-1.4-16.1-4.4-2.7-7.4-2.5-10.3.6zm-47.6 49.1c-9.2 9.4-120.9 129.8-127.6 137.6-1.8 2.1-3.3 4.7-3.3 5.8 0 2.8 5.7 5 13.4 5.2 5 .1 6.9-.3 10.8-2.6 6.5-3.8 13.8-12.4 19.3-22.7 4.3-8 8.6-13 50.6-58.1 25.3-27.2 46.8-51 47.8-52.9 2-3.8 3.7-16.5 2.6-19.9-.3-1.2-1.4-2.1-2.3-2.1-1 0-6 4.4-11.3 9.7zM157.4 108c-12.5 2.6-25.4 13.8-32.2 28-5.8 11.9-7.5 20-7.5 34.5.1 14 2.2 23.4 7.6 34.1 5.9 11.7 10.1 14.6 15.1 10.6 2.2-1.7 52.7-55.8 60.4-64.6 5.2-6 5.4-9.1 1.1-17.2-9.6-18.4-27.9-28.9-44.5-25.4zm272.7 124.1c-.5 1.3-1.2 4-1.6 6-.9 6-3 7.1-15.5 7.8-14.2.8-15 1.7-9.6 11.6 2.5 4.8 6.3 6.4 15.2 6.4 7.1.1 8.8 1.4 9.9 7.6 1.1 6 2.2 7.5 5.6 7.5 3.3 0 46.9-18.8 50-21.6 2.4-2.1 2.4-3.6.1-5.7-2.6-2.4-45.1-20.8-49.4-21.4-3.2-.5-3.9-.2-4.7 1.8zm-287.6 14.6c-1.1.2-5.6 1.6-10 3.1l-8 2.7-38-.4c-43.8-.4-44.6-.3-51.6 6.8-9.8 9.8-8.4 23.5 2.8 27.2 5.1 1.6 22.7.6 42.3-2.6 16.6-2.7 31.5-3.2 40.2-1.4 2.9.6 10.5 3.6 16.8 6.7l11.5 5.7H159c17.1 0 21.1-3.9 15.3-14.5-5.1-9-4.8-13.5 1.2-19.9 5.2-5.5 5.5-7.4 1.9-9.8-5-3.2-26.5-5.5-34.9-3.6zm66.3.4c-1.4.8-1.8 2.3-1.8 6.9 0 7 1.3 8.6 7.3 9.5 6.3.9 115.9.1 117.9-.8 2.1-1.1 5.8-8.5 5.8-11.8 0-1.4-.5-3-1.2-3.7-1.6-1.6-125.4-1.7-128-.1zm153.2 9.3c-5.6 1.4-8.5 5.4-9.3 12.9-.9 7 .9 21 3.3 26.5 2.7 6 8.5 8.6 18.1 8 11.2-.6 13.2-4.3 13.3-24.3.1-10.3-.2-12.5-1.9-15.5-3.6-6.1-14.7-9.7-23.5-7.6zm-157.8 25.3c-3.7.5-5.7 3-6.7 8.6-1.1 5.5-5.3 11.1-12.3 16.2-3.5 2.5-6.5 5.2-6.8 6-.3.8 0 2.7.8 4.2 1.1 2.1 101.1 133.6 115.6 152 3.1 3.8 6.9 5.3 8.3 3.2 1.4-2.2 1-15.6-.5-19.2-.8-1.8-18.8-25.9-40.1-53.7-21.3-27.8-39.4-51.9-40.3-53.5-1.3-2.3-1.7-6.7-2-19.7-.5-22.8-3.5-20.9 30.5-20.1 27.8.6 73.7-1 80.6-2.8 5.2-1.4 6.2-4 4.7-11.4-.7-3.5-2.1-6.7-3.6-8.1l-2.3-2.4-61.3.2c-33.7 0-62.8.3-64.6.5zm-90.4 20.4c-2.1 1.2-3.3 5.3-5.5 19-1.4 8.7-1.7 18.4-1.7 58.9-.1 42.4-.4 52.2-2.5 77.5-1.4 15.9-2.1 30.3-1.7 31.8.4 1.7 1.7 3.2 3.2 3.7 1.5.6 24.2 1 56.2 1 58.6 0 58.2 0 58.2-5.6 0-1.3-2.9-13.5-6.5-27.1-3.6-13.5-6.8-26.2-7.1-28.2-.3-2.4.7-8.7 3-18.3 3.8-15.5 4.3-20.6 2.4-24.1-1.7-3.4-54.3-71.9-57.1-74.5-1.3-1.3-5-3-8.1-3.8-3.1-.8-10.2-3.7-15.8-6.4-10.1-5-13.8-5.8-17-3.9zm243.9 22.1c-1.7 1.7-2.6 4.1-3.1 7.8-1.2 9.8-5.4 24.3-15.5 54.7-14.2 42.6-17.9 61.1-16.7 83.3.7 14.4 1.8 18.9 5.1 21.7 3.5 3 9.7 3.1 12.6.2 1.9-1.9 2-2.7 1.2-8.2-.4-3.4-.8-13.2-.7-21.7.1-20.3 2.1-29.3 16.5-72 10.4-31.2 14-44 15.4-56.1.6-4.9.4-5.9-1.7-8.2-1.5-1.7-3.8-2.9-6.5-3.3-3.5-.5-4.5-.3-6.6 1.8z" fill="#f2f2f2"/></svg>