<svg version="1.0" xmlns="http://www.w3.org/2000/svg" width="682.667" height="682.667" viewBox="0 0 512 512"><path d="M263.9 94.9c-1.5 1.1-3 3.2-3.3 4.6-.4 1.4 1.1 10.4 3.4 21.2 8.4 38.6 14.2 77.6 20.5 138.8 3.9 37.7 4.2 38.7 10.7 39.3 5.9.5 7.2-2 7-14.1-.9-49-8-117.7-16.8-161.7-4.9-24.2-7.1-28.6-15.1-29.7-2.9-.4-4.4 0-6.4 1.6zM226 98c-3.5 3.5-3.4 6.3.8 24.8 10 43.8 16.3 83.1 23.2 144.1 2 17.6 3.4 27.1 4.5 28.7 2 3 7.9 4.2 11.4 2.3 2.2-1.3 2.6-2.3 2.9-7.1.3-6.3-5.4-62.5-9.3-91.5-4.4-32.4-12.2-74.5-17.2-92.5-2-7.4-5.3-10.8-10.4-10.8-2.6 0-4.6.7-5.9 2zm-38.8 8.9c-4.7 4.7-4.6 7.1.8 28.3 12.7 49.9 23.1 106.9 26.5 145.8 1.3 14.8 3.3 18 11.2 18 5.9 0 8.3-2.5 8.3-8.7 0-6.6-4.4-45-8.6-74.8-5.1-36.6-12.8-77.4-18.5-98.8-2.6-9.5-5.7-12.7-12.4-12.7-3.5 0-4.9.6-7.3 2.9zm116 .3c-1.7 1.7-1.5 4 1.8 22.1 7.1 39 11.5 79.8 14 128.7 2 40.7 1.8 39.6 9.7 39.3 9.8-.3 27.5-8.4 42.1-19.2 22.8-17 35.2-33.3 43.4-57.4 3.9-11.3 4.4-22.1 1.4-27.7-6.5-12.2-37.5-46.2-52.1-57.2-15.8-11.9-35.3-22.9-49.3-27.7-7.1-2.4-9.3-2.6-11-.9zm-154.3 17.7c-5.2 5.2-5.1 8.2.7 22.4 14.2 34.3 22.1 66.5 31.4 128 1.6 10.8 3.4 20.6 4 21.7 1.5 2.7 5.8 3.6 8.9 1.8 2.6-1.4 2.6-1.6 2.4-11.9-.2-17.7-7.4-65.4-15.4-103.3-5.2-24.5-12.7-54.3-14.5-57.8-1.8-3.6-4.3-4.8-9.5-4.8-3.5 0-4.7.6-8 3.9zm-28.5 26.3c-7.4 4.9-33.1 31.1-41.1 41.8-8.4 11.4-14.9 22.3-15.8 26.6-1.5 7.5 5.1 25.1 15.2 40.3 8.1 12.1 28.2 32.1 40.3 40 13.5 8.8 14.6 9 28.8 5.7 16.5-3.9 17.2-4.3 17.2-11.6 0-5-5.5-40.4-9.5-61-7-36.1-19.6-77.1-25.4-82.9-2.8-2.8-3.9-2.7-9.7 1.1zm318.1 11c-3.6 8.7-2.7 17.1 1.5 14.8 2.9-1.5 6-7.4 6-11.1-.1-6.9-5.1-9.3-7.5-3.7zm24.7 16.4c-3.6 3.4-22 29.6-23.5 33.5-2 5.1 4.6 10.9 12.2 10.9 8.7 0 18.1-18.6 18.1-35.8 0-5.3-.4-7.5-1.8-9.2l-1.8-2.3-3.2 2.9zm-35.4 60.1c-.8 1-3.6 5.7-6.3 10.5-2.6 4.8-8.1 12.9-12.1 18-10 12.6-10 12.7 2.4 24.5 30.1 29.1 50.1 41.2 67.7 41.3 6.5 0 9.5-2 9.5-6.4 0-3.4-8.3-29.1-13.9-42.9-5.7-14.3-17.2-35.7-20.9-39-2-1.9-19.3-7.7-22.6-7.7-1.3 0-3 .8-3.8 1.7zM46.6 260.2c-4 5.5-9.6 16.3-9.6 18.9 0 4.9 8.7 15.2 16.2 19 6.1 3.1 10.4 2.6 14.6-1.8 4.1-4.4 6.4-9.5 5.5-12-.7-1.9-13.5-19.7-17.7-24.6-3.1-3.6-5.9-3.4-9 .5zm-22.1 49.3c-2.3 5.8-2.4 11.5-.3 14.7 2.2 3.4 14.7 9.8 19 9.8 4.2 0 6.1-2 7.9-7.8 1.5-5.3.3-8.4-4.3-10.8-1.8-.9-6.1-3.6-9.5-6-8.1-5.8-10.6-5.8-12.8.1zm307.7 6c-7.3 2.3-8.2 3.6-8.2 12.9.1 13.3 1.7 33.2 2.9 35.5.6 1.1 2 2.5 3.1 3.1 1.1.6 14.6 1.8 30 2.7 27 1.6 28 1.6 30-.2 1.4-1.3 2-3.1 2-6.1 0-6.9-2.3-8.6-20.3-14.9-8.7-3-16.7-6-17.7-6.5-3.2-1.7-4.8-5-6.5-13-2.3-11.5-2.4-11.8-4.1-13.4-1.9-1.9-5.4-1.9-11.2-.1zm-177.3 7c-5.9 1.6-6.6 2-8.3 5.3-2.2 4.2-8.7 35.9-8 38.8.3 1.3 1.5 2.9 2.5 3.4 2.9 1.6 62.8 4.4 65.5 3.1 2.9-1.3 3.9-5 2.8-10.3-1.4-6.3-3.8-7.4-20.8-9.6-19.3-2.6-19-2.2-19.5-17.7-.3-10.4-.5-11.7-2.4-13-2.5-1.8-5.5-1.8-11.8 0zm-131.6 28c-1 2.9.5 9.6 3.6 16 2.8 5.6 3.7 6.6 7.7 8.1 9.7 3.7 20.6 1.6 22-4.2.8-2.9-4-13-7.1-15-2.2-1.4-20.7-6.4-23.8-6.4-1 0-2 .7-2.4 1.5zM71 385.8c-4.7 2.2-13.2 7.7-13.9 9.1-1.5 2.7.5 4.9 7.7 8.5 13.5 6.8 36.1 12.9 51.7 14.1 8.9.7 11.8-.2 9.5-3-.7-.9-7.1-4.5-14.1-8.1-7-3.6-17.9-9.6-24.1-13.3-12.1-7.3-14.5-8.3-16.8-7.3z" fill="#f2f2f2"/></svg>