<svg xmlns="http://www.w3.org/2000/svg" viewBox="0 0 512 512" height="682.667" width="682.667" version="1.0"><path d="M111.457 66.546c-6.28 2.291-11.117 8.317-15.7 19.349-2.97 7.128-3.903 7.807-11.54 9.164-33.86 5.856-38.867 53.717-12.56 120.503 10.777 27.325 30.465 64.494 33.605 63.39 1.528-.508.849-3.478-5.007-22.233-10.098-32.416-14.511-53.038-15.36-72.131-1.527-34.963 13.069-48.116 40.055-35.812 6.025 2.8 17.82 10.523 22.403 14.596 4.837 4.413 4.582 6.026-1.952 11.796-7.043 6.195-9.844 11.541-9.844 18.84 0 6.279 2.461 14.765 6.535 22.657 4.582 8.74 7.383 9.335 9.589 2.122 1.697-5.94 5.431-12.475 12.22-21.725 4.413-5.855 6.958-8.656 8.147-8.656.848 0 3.054 1.188 4.667 2.716 6.28 5.516 26.561 29.956 39.97 48.2 9.843 13.324 37.423 53.718 38.017 55.67.764 2.545-10.947 26.816-15.53 32.077-6.025 6.959-4.327 8.826 7.214 7.807 10.607-.933 16.547-3.31 22.318-8.656 4.328-3.988 5.346-4.582 6.704-3.818.933.509 6.025 5.77 11.286 11.71 31.738 35.812 58.979 58.47 86.05 71.538 17.566 8.486 30.889 11.711 45.06 10.777 7.129-.509 8.232-.339 9.59 1.019 2.715 2.715 3.903 16.887 2.376 27.325-.679 4.073-.594 4.837.679 5.346 3.649 1.358 19.093-10.777 22.403-17.566 3.394-6.959 2.122-12.135-4.667-19.433-2.292-2.461-3.734-4.837-3.734-6.025 0-1.188 1.358-4.074 3.055-6.62 8.231-11.88 11.032-22.912 10.268-40.223-.255-6.11-1.103-13.918-1.867-17.397-5.346-24.525-19.773-53.717-37.508-75.441-11.372-14.002-11.287-13.493-5.007-21.555 13.493-17.396 12.814-33.774-2.037-48.965-9.674-10.013-26.477-19.602-45.316-25.882-8.825-2.97-13.238-3.394-13.238-1.188 0 .509 1.528 3.48 3.395 6.534 4.921 8.317 7.128 14.427 10.098 27.58 2.97 13.153 3.225 17.396 1.358 18.075-.68.34-5.431-1.018-10.608-2.97-13.578-5.091-21.724-6.874-34.369-7.468-21.384-.933-35.047 3.82-39.545 13.748-2.036 4.497-2.036 8.656.255 14.596 3.394 9.165 22.064 25.034 25.543 21.555.764-.764.594-2.122-.849-6.28-3.818-10.608-3.31-17.906 1.613-23.93 3.734-4.498 8.231-6.365 15.614-6.365 7.977 0 15.19 2.29 24.186 7.637 30.974 18.67 59.063 54.48 70.773 90.292 6.959 21.13 7.214 37.678.934 47.013-3.65 5.346-7.722 7.298-16.378 7.637-17.566.764-42.006-11.795-64.919-33.35-6.195-5.77-6.45-7.892-1.442-11.286 10.607-7.129 32.162-26.732 32.162-29.277 0-.764-.764-1.783-1.697-2.292-2.97-1.612-20.452-3.564-28.004-3.224-10.947.594-15.615 3.564-20.791 13.238-2.97 5.6-5.262 6.534-8.656 3.394-7.044-6.534-29.701-36.575-48.625-64.324-32.502-47.692-55.245-75.78-84.522-104.379-18.754-18.245-28.683-25.967-52.698-41.158-4.753-2.97-5.601-5.6-2.631-7.552 4.158-2.63 13.069-4.922 21.47-5.516 11.116-.679 11.456-1.697 3.14-9.59-13.748-12.983-27.326-18.838-36.151-15.614zM133.86 335.47c0 1.103.764 5.77 1.782 10.353 4.668 22.404 3.31 40.394-3.903 52.614-2.8 4.837-10.353 11.541-15.87 14.172-2.46 1.188-7.382 2.885-10.862 3.649-10.098 2.376-11.625 3.819-6.534 5.94 8.91 3.734 31.738 5.177 41.073 2.63 13.153-3.563 20.112-11.031 22.403-23.76 2.206-13.069-3.564-32.757-15.784-53.548-7.213-12.304-12.305-17.226-12.305-12.05z" fill="#f2f2f2"/></svg>