<svg version="1.0" xmlns="http://www.w3.org/2000/svg" width="682.667" height="682.667" viewBox="0 0 512 512"><g fill="#f2f2f2"><path d="M29.1 28.4c-1.7 2.1-.8 4 19.1 38.6 21.4 37.3 31.7 56.3 41.3 76.2 21.3 44.7 32 77.6 37.5 115.3 1 7.1 2.5 14.8 3.3 17 2.8 7.6 35.8 84 37.7 87.2 2.2 3.7 56.7 72.1 61.9 77.6 13 13.8 39.2 13.8 52.2 0 5.2-5.5 59.7-73.9 61.9-77.6 1.9-3.3 35.1-80.1 37.6-87.2.8-2.2 2.3-9.9 3.4-17 5.6-38.3 16.2-70.6 37.5-115.3 9.6-19.9 19.9-38.9 41.3-76.2 19.6-34.2 20.8-36.6 19.2-38.5-1.5-1.9-5.2-.6-16.8 5.6-75.7 40.8-114.5 82.9-146.7 159.2-3.5 8.5-6.5 14.2-7.7 14.8-2.7 1.4-8 .3-11.3-2.3-2.3-1.8-2.6-2.7-2.2-5.8 1.1-8 19.2-46.4 31.6-66.9 4.7-7.7 6.4-11.4 6.4-14 0-4.6-17.7-50.8-20.5-53.8-1.2-1.3-2.8-2.3-3.6-2.3-.8 0-7.3 2.6-14.5 5.9-21.5 9.6-28.2 11.4-41.7 11.4-13.5 0-20.2-1.8-41.7-11.4-7.2-3.3-13.7-5.9-14.5-5.9-.8 0-2.4 1-3.6 2.3-2.8 3-20.5 49.2-20.5 53.8 0 2.6 1.7 6.3 6.4 14 12.4 20.5 30.5 58.9 31.6 66.9.4 3.1.1 4-2.2 5.8-3.3 2.6-8.6 3.7-11.2 2.3-1.2-.6-5.1-8.2-10.2-19.9C164.2 128.6 134.7 91.5 88 59.8 73.1 49.6 59.3 41.3 45 33.7c-12.6-6.6-14.3-7.2-15.9-5.3zm130.8 223.3c8.6 8.7 21.5 21.9 28.6 29.4 14 14.6 24.2 22.8 37.4 29.9 9.3 5 12 8.1 14.5 17 4.5 16 4.9 57.1.6 61.4-1.8 1.8-4.1-.6-8.9-9.1-6-10.7-13.1-19.7-17.8-22.6-2.1-1.3-9.8-6-17.2-10.3-20.4-12-31.1-23.1-38.6-39.9-5.2-11.9-14.1-42.3-17.5-60.2-1.4-7-.7-11.3 1.7-11.3.9 0 8.6 7.1 17.2 15.7zm211.7-8.2c-1.5 12.5-12.3 50.9-18.1 64-7.5 16.8-18.2 27.9-38.6 39.9-7.4 4.3-15.1 9-17.2 10.3-4.7 2.9-11.8 11.9-17.8 22.6-4.8 8.5-7.1 10.9-8.9 9.1-4.3-4.3-4-45.1.6-61.4 2.5-8.9 5.2-12 14.5-17 17-9.2 22.8-14.2 57.4-50.4 11-11.5 21.3-21.7 22.9-22.7 4.4-2.7 6-1 5.2 5.6z"/><path d="M200.4 316.4c-2.8 2.8-3.4 4.2-3.4 7.6 0 3.4.6 4.8 3.4 7.6s4.2 3.4 7.6 3.4c5.7 0 11-5 11-10.4 0-7.3-4.2-11.6-11.6-11.6-2.8 0-4.4.8-7 3.4zm97.7-2c-3.2 1.8-5 5.3-5.1 9.9 0 3.1.7 4.6 3.4 7.3 2.8 2.8 4.2 3.4 7.6 3.4 3.4 0 4.8-.6 7.6-3.4s3.4-4.2 3.4-7.6c0-3.4-.6-4.8-3.4-7.6-2.7-2.7-4.2-3.4-7.2-3.4-2.2.1-5 .7-6.3 1.4zm-144.2 69.3c-1.6 4.1-.4 12.7 2.2 16.5 8.8 12.7 20.6 25.8 23.1 25.8 3.4 0 5-8.7 2.7-14.6-1.1-3.1-13.8-19.4-20.3-26.2-4.7-4.9-6.3-5.2-7.7-1.5zm196.5 1.5c-6.5 6.8-19.2 23.1-20.3 26.2-2.3 5.9-.7 14.6 2.7 14.6 2.5 0 14.3-13.1 23.1-25.8 3.9-5.6 3.8-19.2-.2-19.2-.7 0-3.1 1.9-5.3 4.2zM202 443.5c-1.6 1.9-.9 35.6.8 39.7 2.5 6.2 5.9 1.9 9.7-12.3 4.1-15.4 2.9-22.2-4.7-26.9-4-2.4-4.2-2.4-5.8-.5zm102.2.5c-5.5 3.4-7.4 7.5-6.9 15 1 13.2 7.6 29.5 10.7 26.4 2.8-2.8 4.4-39.6 1.8-42.2-1.6-1.6-1.7-1.5-5.6.8zm-71 25c-1.1 1.2-2.6 4.4-3.2 7.1-1.8 7.3-.3 10.1 7.4 13.9 12.4 6.1 23.6 6.3 36.6.4 8-3.6 9.7-6.6 8.1-13.9-.7-2.9-2.1-6.2-3.3-7.5-2-2.1-2.6-2.2-8.7-1.4-3.6.5-10 .8-14.1.8s-10.5-.3-14.1-.8c-6.1-.8-6.7-.7-8.7 1.4z"/></g></svg>