<svg version="1.0" xmlns="http://www.w3.org/2000/svg" width="682.667" height="682.667" viewBox="0 0 512 512"><g fill="#f2f2f2"><path d="M276.5 20.3c-1 1.5-1.4 4.2-1.2 7.9.2 6.5-1 8.4-6.4 9.8-7.4 2-10.8-.6-12.3-9.5-1.2-6.8-2.9-8.5-8.4-8.5-5 0-13.3 1.9-17 3.9-3.1 1.7-2.8 5.7.8 11.1 4.8 7.2 3.7 12.1-3.7 15.9-3.9 2-5.5 1.2-11.8-5.4-7.7-8-9.8-8.3-14.9-2.3-4.5 5.2-7.6 11.6-8.3 17-.8 5.6 1 6.8 10.2 6.8 8.5 0 11.1 1.4 12 6.8.7 4.3-.7 8.8-3.6 11.5-1 1-1.9 2.6-1.9 3.5 0 1 7.8 9.6 17.3 19.2 25.5 25.9 44.6 49.3 65.5 80.6 5.5 8.2 11 15.8 12.2 16.9 1.9 1.7 3.9 2 14.5 2.3 12.2.4 12.4.3 14-2.1 2.2-3.4 3.5-16.8 3.5-37.2 0-44.4-10.3-86.5-32.5-132.1-8.4-17.3-9.6-18.4-20.4-18.4-5.2 0-6.3.3-7.6 2.3z"/><path d="M75.5 31.2c-4 2.2-9.5 8.2-9.5 10.5 0 1.4 2.4 4.9 6 8.9 3.3 3.6 6 7.5 6 8.7 0 2.9-4.3 8.2-7.9 9.7-3.6 1.4-4.9.8-13.1-6.5-3-2.6-6-4.5-7.4-4.5-4.6 0-17.9 17.9-17.4 23.4.3 3.1.8 3.5 9.1 7 4.9 2.1 6.4 5.3 4.9 10.4-.7 2.1-2.1 4.7-3.2 5.7-1.9 1.7-2.7 1.8-9.6.6-11.1-1.9-12.3-.8-13.9 12.4-.7 6.4 1 20.2 3 23.2s5 2.9 12.1-.2c3.1-1.4 6.9-2.5 8.5-2.5 3.4 0 6.6 3.1 7.9 7.9 1.3 4.7-.5 7.3-7.3 10.7-6.8 3.4-9.7 6.2-9.7 9.2 0 2.9 6.9 12.7 14 19.9 6.7 6.9 9.3 7 15.8.9 6.7-6.3 9-6.6 14.1-2.1 5.2 4.7 5.3 7.6.6 13.8-1.9 2.5-3.5 5.7-3.5 7.1 0 3.2 4.7 7.2 17 14.2 11.2 6.4 14.6 6.9 18.4 2.3 1.4-1.7 2.6-3.4 2.6-3.9s1.2-2.2 2.6-3.9c3.1-3.7 7.1-4.1 12-1 4.5 2.8 5.2 5.9 2.5 12.3-4.1 10.1-3.3 11.4 10.7 16.5 13.1 4.8 15.1 4.2 19.8-5.8 2.8-6.1 5.4-7.1 12-4.6 5.3 2 6.6 4.5 5.3 10.1-2.2 9.8-.8 11.5 11.9 14.5 9 2.1 16.5 2.4 18 .6.5-.6 1.7-3.8 2.6-7 1.9-6.6 4.4-8.3 10.9-7.1 5.7.9 7.9 3.5 7.7 9.2-.3 8.4-.1 9.1 2.9 10.6 3.1 1.7 25 4.1 46.9 5.2 16.2.8 18.2 1.8 18.2 9.3 0 2.7-.7 5.6-1.7 7l-1.6 2.4-19.1-.7c-10.5-.3-22.1-.9-25.8-1.2-6.1-.6-6.8-.5-9 1.7-1.4 1.5-2.9 4.8-3.7 8.4-1.5 6.9-2.5 8.5-5.5 8.5-1.1 0-7.9-2.9-15.1-6.5-7.1-3.6-17-7.7-22-9.2-8.3-2.5-10.4-2.7-26.5-2.7-16.2 0-18.2.2-26.3 2.7-50.2 15.5-92.9 67.8-115.1 141-4.5 14.8-4.6 17.5-.5 21.5 3.8 3.7 24.4 14 36.2 18.1 26.2 9.1 53.9 9.7 77.5 1.7 31.1-10.6 59-34.6 86.6-74.4 4.1-6 8.2-11.2 9.1-11.5 2.8-1.1 6.3 3.7 11.5 15.8 2.9 6.6 5.9 12.8 6.8 13.7 3 3.5 12.8 1.4 15.3-3.3 1.5-2.9 1.1-3.9-9.1-27.3-10.3-23.7-10.6-25.4-5.9-34.9 3.8-7.5 5.6-9.7 8.1-9.7 1.1 0 5.2 3 9.1 6.8 4 3.7 8.7 8 10.5 9.5 1.8 1.5 3.7 3.8 4.1 5 .5 1.2 1.2 8.8 1.6 16.9.5 10.7 1.2 15.5 2.4 17.7.9 1.6 5.7 6.2 10.6 10.3 28.5 23.4 27.8 23 33.3 18.3 3.6-3 5.2-7.2 4.1-10.2-.4-1.2-7.3-7.6-15.3-14.2-16-13.3-16.6-14.2-16.6-25.4 0-7.3 2.3-10.1 9.5-11.2 2.8-.4 7.9-1.8 11.5-3.1 7.2-2.8 10.7-2.5 11.4.9.3 1.2.7 6.6 1 12 .3 5.3 1 10.6 1.6 11.7 1.5 2.8 5 4.4 34.8 15.9 15.6 6 27.5 10.1 29 9.9 5.3-.6 9.2-10.7 5.9-15.1-.7-1-11-5.6-23-10.2-26.1-10.2-27.1-10.7-28.5-14.2-1.5-4.1-2.5-31.4-1.3-36 1.3-4.6 4.6-8.5 6.9-8.1 1 .2 3.7 4.1 6.2 8.8 23.9 45.1 82.1 40 97-8.5 6-19.7.1-41.6-15.1-56-8-7.5-15.4-11.6-26.4-14.4-4.3-1.1-8.7-2.9-9.8-3.9-1.3-1.4-3-6.7-5.3-16.9-5.4-23.9-4.7-27 5.4-23.8 12.4 3.8 28.8 13.8 40.2 24.3 3 2.8 8.7 9.1 12.5 14 9.5 12.2 11.8 13.1 19.3 7.5 4.4-3.3 4.2-6.5-1-14.4-6.1-9.1-23.8-26.5-33.8-33.1-17.1-11.3-35.8-18.9-55.4-22.7-10.4-2-14.1-1.7-15.3 1.5-.3.9 2.4 16 6.2 33.5 3.9 18.8 6.5 32.9 6.1 34.4-.6 2.2-10.9 9.9-15.7 11.7-2.5.9-5.4-1.6-8.8-7.5-9.4-16.2-25-28.6-41.8-33.3-5.1-1.4-6.5-1.5-7.8-.4-2 1.7-1.9 3.8.5 9.3 1.5 3.3 1.8 5.2 1.1 6.9-1.8 4.8-10.8 8.3-14.3 5.6-.9-.7-5.5-8.1-10.3-16.3C251.4 152.1 198.9 97 128.8 54.7 108.9 42.6 84 30 80.3 30c-1.5 0-3.7.6-4.8 1.2zm333.3 247.3c16 4.8 29.7 30.4 25.1 46.8-4 14.4-19.8 15.2-32.8 1.7-15.2-15.9-17.3-42.7-3.7-48.6 4-1.7 5.2-1.7 11.4.1z"/></g></svg>