<svg xmlns="http://www.w3.org/2000/svg" version="1.0" width="682.667" height="682.667" viewBox="0 0 512 512"><g fill="#f2f2f2"><path d="M181.026 58.938c-9.628 1.264-13.616 2.528-15.658 5.057-1.945 2.431-2.042 3.404-1.556 12.837.389 6.03 1.556 13.713 2.918 18.867 1.264 4.863 2.14 9.531 1.847 10.504-.583 2.237-5.057 5.446-8.655 6.224-1.945.389-3.501 0-4.96-1.264-3.696-3.015-7.78-17.409-9.434-33.65-.486-4.474-1.07-5.932-2.917-7.1-2.14-1.361-2.82-1.361-7.78.098-24.022 6.905-52.226 32.482-65.16 59.13-7.683 15.755-6.225 18.38 10.892 19.159 10.406.486 11.379.68 13.13 2.917 2.625 3.307 1.944 10.31-1.362 12.935-2.043 1.75-3.404 1.848-17.02 1.362-14.685-.681-14.88-.584-16.338 1.556-2.14 3.306-3.404 14.101-3.404 29.467 0 19.062 2.334 32.289 8.947 49.308 3.501 9.142 6.71 13.324 10.406 13.324 2.723 0 8.656-3.696 10.115-6.322 1.556-2.917 6.321-4.57 10.017-3.501 10.503 2.918 9.53 10.017-3.015 21.007-4.28 3.793-6.322 6.224-6.322 7.78 0 3.112 7.197 9.336 15.464 13.518 23.924 12.06 58.935 13.13 86.653 2.626 15.463-5.835 16.63-10.6 4.57-18.284-3.89-2.528-7.294-4.96-7.683-5.543-.389-.584-.778-2.918-.778-5.057 0-4.766 3.015-9.142 6.127-9.142 3.21 0 11.282 4.085 18.09 9.142 7.488 5.446 10.503 5.738 14.296 1.264 11.865-14.004 15.269-44.153 8.072-70.703-7.294-26.648-27.231-48.238-48.919-52.711-12.545-2.626-29.467 3.89-41.721 16.046-11.865 11.963-17.214 23.244-17.992 38.221-.487 10.406.972 16.533 5.835 24.702 4.668 7.683 10.698 11.184 19.159 11.184 7.78-.097 12.546-2.334 18.38-8.655 4.766-5.155 5.252-8.85 2.043-13.324-2.237-3.21-3.404-9.142-2.431-12.934 1.653-6.808 9.725-8.559 15.56-3.502 8.364 7.392 10.795 20.035 5.738 30.246-7.683 15.366-25.772 25.092-45.028 24.022-18.867-1.07-31.705-13.324-35.109-33.164-2.625-15.852.876-38.512 8.072-51.252 9.434-16.825 24.8-31.219 39.583-37.151 4.765-1.945 7.1-2.237 19.548-2.14 12.642 0 14.782.292 21.2 2.529 13.227 4.765 23.828 12.643 33.359 24.897 8.655 10.99 10.6 12.837 14.199 12.837 1.75 0 8.266-2.14 14.49-4.862 27.523-11.768 36.665-21.785 35.109-38.415-1.653-17.312-17.117-40.36-27.134-40.36-3.21 0-15.366 6.03-19.548 9.725-1.945 1.653-5.64 6.224-8.072 10.017-6.224 9.53-8.072 11.379-11.087 11.379-1.458 0-4.084-.973-5.932-2.237-4.765-3.21-4.863-7.197-.39-14.783 5.35-8.85 10.504-15.171 16.048-19.45 5.64-4.474 7.1-7.878 4.279-9.92-2.626-1.848-13.032-4.96-22.757-6.71-8.364-1.46-29.76-2.53-35.984-1.751z"/><path d="M311.345 140.241c-1.361.778-3.987 3.502-5.835 6.127-9.142 13.032-21.785 22.369-43.278 31.997-7.002 3.112-12.254 6.127-13.42 7.586-1.751 2.334-1.751 2.625.194 12.545 5.252 27.134 2.82 49.891-7.197 69.925-9.044 18.09-28.106 35.206-48.724 44.056-14.49 6.224-24.605 8.461-42.889 9.337-11.67.583-14.199.972-15.95 2.625-2.625 2.432-21.006 33.164-21.881 36.568-.39 1.945.292 4.473 2.529 9.239 6.03 12.934 7.974 13.129 17.31 1.945 8.17-9.726 9.24-10.6 12.06-10.212 1.75.195 3.598 2.918 9.045 13.421 8.363 16.144 8.752 16.339 20.131 8.656 8.85-5.933 11.67-6.322 15.56-1.945 3.404 3.89 3.696 8.558.584 11.573-4.474 4.084-29.37 21.687-31.607 22.174-3.307.875-5.738-1.751-10.115-10.698-2.042-4.182-4.279-8.267-4.862-8.948-2.82-3.5-6.905-.778-15.95 10.601-7.294 9.142-9.142 8.461-16.533-6.03-8.558-16.727-10.795-18.575-15.366-12.545-2.626 3.5-27.717 44.347-30.246 49.21-2.14 4.084-1.945 8.753.39 12.546 3.111 5.251 5.445 4.376 16.046-5.544 7.391-6.905 9.92-8.753 12.157-8.753 3.404 0 4.084 1.167 11.184 18.478 5.154 12.546 7.586 15.95 10.6 14.977 1.168-.389 7.586-5.835 14.394-12.156 7.294-6.808 13.226-11.573 14.394-11.573 2.625 0 4.473 3.112 8.85 15.657 5.154 14.588 6.224 16.339 9.53 16.436.681 0 6.225-4.862 12.254-10.698 8.461-8.266 11.573-10.698 13.616-10.698 3.5 0 9.239 5.641 9.239 9.142 0 2.82-.68 3.696-22.66 26.745-7.391 7.78-13.616 15.172-14.005 16.533-1.167 4.765.39 4.96 33.358 4.96 28.01 0 30.538-.097 32.58-1.75 2.723-2.237 2.626-3.696-.486-23.536-7.002-43.958-8.85-70.217-6.03-84.805 3.112-15.852 12.74-37.442 25.092-55.92 11.962-17.895 21.104-25.87 29.37-25.87 5.057 0 7.294 1.167 24.702 13.227 20.132 14.004 31.608 19.158 42.5 19.158 8.17 0 10.6 1.46 15.95 9.142 8.266 11.962 13.129 14.783 24.021 13.907 11.282-.875 16.922-6.905 16.922-17.894 0-3.696-.583-6.516-1.556-7.975-.875-1.264-5.835-4.182-10.99-6.613-26.355-12.157-33.649-16.436-54.072-31.802-15.269-11.379-22.757-19.062-26.842-27.425-2.918-5.738-3.307-7.683-3.307-14.005 0-6.03.487-8.267 2.723-12.74 5.447-11.184 17.02-18.77 33.358-21.882 7.003-1.264 12.254-1.459 27.62-1.07 35.595.973 60.492 7.586 83.25 22.077 6.029 3.792 9.627 3.89 11.475.097 2.334-4.377 10.309-32.094 10.309-35.595 0-6.905-5.543-10.406-30.635-18.964-25.48-8.753-31.607-11.865-42.305-21.493-37.637-34.136-49.113-40.652-74.885-42.208-6.808-.487-9.92-.292-11.67.68zm33.553 30.927c8.655 3.307 15.658 8.17 23.438 16.144 6.905 7.002 15.074 18.284 16.338 22.466.973 3.209-2.14 5.835-8.266 6.613-9.24 1.264-31.024.778-38.804-.875-14.2-3.015-26.55-10.796-32.97-20.813-7.001-10.892-1.944-21.104 12.45-25.188 6.613-1.848 20.617-1.07 27.814 1.653z"/><path d="M331.963 256.46c-4.765 1.653-9.92 6.418-9.92 9.141 0 2.918 3.599 4.474 14.588 6.224 21.882 3.501 40.847 9.045 49.502 14.588 6.516 4.085 12.254 10.31 23.925 25.772 17.019 22.66 25.674 30.052 43.472 36.665 11.087 4.182 32.288 10.017 36.275 10.017 4.182 0 6.516-2.82 7.1-8.655.583-6.127-.39-6.808-16.436-11.185-22.076-6.03-32.483-10.795-40.555-18.478-2.917-2.723-10.406-11.767-16.727-20.131-17.992-23.633-27.426-31.219-47.363-37.735-10.114-3.306-31.607-7.877-36.372-7.78-1.848 0-5.155.681-7.489 1.556zM47.497 467.013c-2.918 2.334-3.598 6.613-3.598 24.216 0 17.311 0 17.506 2.43 19.84l2.335 2.431h48.14c28.885 0 49.113-.389 50.572-.973 3.501-1.264 3.307-4.57-1.264-17.894-7.489-21.688-7.391-21.59-24.119-5.933-11.379 10.698-13.81 12.157-16.63 10.31-.681-.39-3.696-6.42-6.516-13.324-7.683-18.284-8.364-19.257-11.379-19.646-2.237-.291-4.182 1.167-11.476 7.975-12.546 11.962-14.588 11.962-19.645.584-2.529-5.641-4.863-8.753-6.613-8.753-.292 0-1.362.583-2.237 1.167z"/></g></svg>