<svg version="1.0" xmlns="http://www.w3.org/2000/svg" width="682.667" height="682.667" viewBox="0 0 512 512"><path d="M60.5 43.2c-2.9 4.1-4.8 13-4.7 21.9.3 40.9 47.9 77.6 107.1 82.5 11.1.9 12.4 2.1 15.6 14.2 1.4 5.1 2.5 10.4 2.5 11.7 0 3-2.9 5-9.1 6.4-21.3 4.8-42.7 15.2-60.5 29.5-43.2 34.7-73.5 101.2-81.5 179.1-2.4 23.5-1.1 65.5 2.2 71.8.6 1 2.1 2.2 3.5 2.7 1.4.6 17.6 1 37 1h34.5l2.3-2.3c2-2 2.4-3.8 3-11.3 3-37.6 12.7-69.4 28.6-93.9 6.5-9.8 8.3-12.1 17.3-21.3 10.2-10.4 14.9-12.4 16-6.7.2 1.3-2.7 30-6.4 63.7-3.8 33.7-6.9 64.1-6.9 67.4 0 10.3 4.3 13.4 21.5 15.6 16.7 2.1 35-1.5 39-7.6 1-1.4 2.3-7.1 3.1-13.3 2.7-20.5 8.4-35.6 17-45.2 5.6-6.2 8.9-8.1 14.4-8.1s8.8 1.9 14.4 8.1c8.6 9.6 14.3 24.7 17 45.2.8 6.2 2.1 11.9 3.1 13.3 4 6.1 22.3 9.7 39 7.6 17.2-2.2 21.5-5.3 21.5-15.6 0-3.3-3.1-33.7-6.9-67.4-3.7-33.7-6.6-62.4-6.4-63.7 1.2-5.8 5.9-3.7 16.7 7.2 25.5 25.7 41.3 65.8 45.2 114.7.6 7.5 1 9.3 3 11.3l2.3 2.3h34.5c19.4 0 35.6-.4 37-1 1.4-.5 2.9-1.7 3.5-2.7 3.3-6.3 4.6-48.1 2.2-71.8-5-48.8-20.4-98.4-40.8-131.5-12.9-20.9-31.6-41.6-48-53.3-14.9-10.6-34.3-19.4-51.3-23.3-8.4-2-11-3.7-11-7.2 0-2.4 3.8-17.3 5.5-21.4.9-2.3 4.8-3.6 13.5-4.3 29.7-2.5 60.3-14.5 79-31 12.4-10.8 21.7-24.7 25.5-37.8 3.1-10.8 1.7-28.2-2.9-35.2-3.1-4.8-5.6-3.4-15.7 8.7-25.8 30.9-52.4 44.4-94 47.8-16.4 1.4-19.2.8-25.3-5.5-7.5-7.7-16-13.8-25.1-18.1-13.5-6.3-20.6-7.8-36-7.8-15.3.1-24 2.1-36.1 8.2-9.4 4.8-13.6 7.7-23 16.4-8.6 7.9-10 8.3-27.1 6.8-41.8-3.6-68.1-17.3-94-48.7-9.1-11.1-11.7-12.5-14.8-8.1zm147.8 98.4c5 4.8 12.7 11.1 17 14.1 8.9 6.3 10.2 8.1 8.2 11-2.3 3.2-11.3 6.7-17.7 6.7-7 .1-9.8-2.1-13.8-10.9-3-6.4-7-21.2-7-25.5 0-6.3 2.5-5.4 13.3 4.6zm108.5-5.3c.5 3.8-3.5 19-6.8 26.2-4 8.8-6.8 11-13.8 10.9-6.4 0-15.4-3.5-17.7-6.7-2-2.9-.7-4.7 8.2-11 4.3-3 12-9.3 17.1-14.1 9.7-9.1 12.5-10.2 13-5.3z" fill="#f2f2f2"/></svg>