<svg xmlns="http://www.w3.org/2000/svg" viewBox="0 0 512 512" height="682.667" width="682.667" version="1.0"><path d="M194.37 65.679c-8.303.024-16.582.511-21.89 1.437-4.286.779-15.193 3.312-24.349 5.747-9.058 2.337-20.26 4.772-24.74 5.454-13.928 1.948-29.318.098-48.02-5.94-11.2-3.605-12.953-3.606-14.999-.489-1.266 1.948-1.558 4.092-1.168 9.644.974 14.804 8.961 25.128 26.104 33.407 17.337 8.474 29.706 11.298 49.478 11.396 13.54.097 14.027.195 15.877 2.435 2.728 3.312 2.921 9.935.292 12.857-.78.876-4.188 2.63-7.5 3.8-18.213 6.622-38.473 19.868-60.583 39.543-8.181 7.305-10.714 11.104-8.961 13.246.974 1.267 4.773 1.657 22.11 2.046 37.11.877 52.986 5.552 61.752 17.922 2.63 3.798 2.728 4.189 1.267 6.429-1.169 1.753-3.701 2.92-12.078 5.063-22.304 5.747-45.097 14.319-62.629 23.572-24.447 12.76-80.355 34.967-80.355 41.493 0 3.409 30.098 3.798 48.409 3.116 26.59-.974 52.498 1.267 72.854 6.429 8.67 2.143 11.202 4.48 10.423 9.35-.974 5.844-11.397 30.584-20.26 48.019-4.675 9.35-11.006 22.109-13.928 28.245-2.922 6.136-7.014 14.124-8.962 17.728-3.019 5.454-3.408 6.817-2.337 8.084.682.779 2.045 1.46 3.02 1.46 5.259 0 41.98-13.635 62.239-23.083 13.539-6.428 16.363-7.306 18.7-6.04 2.24 1.17 2.24 2.339-.584 24.74-2.728 21.623-1.558 42.857 3.02 53.279 2.825 6.233 7.305 10.908 13.149 13.538 4.675 2.143 6.427 2.338 19.284 2.24 12.467-.097 15.488-.487 25.715-3.117 6.33-1.656 12.369-3.798 13.343-4.674 2.824-2.63 2.24-6.916-2.922-21.136-7.208-19.675-12.369-36.33-14.901-48.116-1.948-9.156-2.24-13.15-2.143-30.974 0-18.896.194-21.136 2.63-29.902 13.635-50.843 53.959-75.972 117.95-73.537 18.117.682 29.22 2.046 65.064 7.987 14.318 2.435 28.148 4.383 30.778 4.383 4.383 0 5.163-.39 7.89-3.41 3.506-3.993 7.11-10.81 10.421-19.673 4.09-10.812 3.118-12.469-7.889-13.93-18.019-2.435-25.13-9.74-32.63-33.992-4.577-14.61-3.7-14.025-21.524-14.804-8.279-.39-16.949-1.169-19.384-1.85-16.558-4.579-27.174-17.046-33.603-39.837-5.454-19.383-10.031-24.741-37.011-42.468-25.616-16.947-37.304-23.862-52.4-31.264-14.61-7.11-29.903-12.37-41.98-14.513-5.406-.926-13.735-1.364-22.038-1.34zm63.925 88.647c2.772-.261 7.757 2.3 18.404 8.73 18.117 10.81 31.85 17.92 46.264 23.765 12.175 4.967 14.026 6.136 13.15 8.473-1.754 4.578-26.493 9.059-46.07 8.377-21.429-.877-31.655-5.844-34.87-17.143-1.85-6.33-1.558-26.492.39-30.193.67-1.187 1.472-1.89 2.732-2.009zM61.16 167.853c-1.091.011-1.907.12-2.15.364-.292.195-7.013 1.17-15 2.143-12.077 1.461-42.759 2.144-44.804 3.897l-2.533 2.143v19.576c0 17.24.196 19.675 1.657 21.233 1.656 1.559 1.85 1.559 4.284-.779 1.364-1.266 35.552-8.474 41.883-15.974 6.428-7.5 14.902-17.239 18.993-21.72 3.993-4.48 7.208-8.57 6.915-9.252-.219-.803-5.971-1.663-9.245-1.63zm398.037 33.131c-2.146.023-3.872.35-4.256 1.032-1.46 2.24 9.643 10.616 14.026 10.616 1.07 0 2.435-.974 3.117-2.046 1.558-3.02-.293-6.526-4.481-8.28-2.192-.876-5.646-1.35-8.406-1.322zm-375.81 16.933c-6.125.044-12.032.255-15.611.656-6.72.682-54.448 4.09-65.454 6.33-4.578.877-5.649 4.482-5.941 19.871-.585 26.59-41.683 47.454 32.013 16.995 13.83-10.812 37.044-18.942 56.914-28.39 9.35-4.48 18.116-8.767 19.48-9.547 3.019-1.655 3.604-3.895 1.266-4.87-1.643-.73-12.458-1.118-22.667-1.045zm259.993 70.157c-2.055-.025-3.883.08-4.832.335-3.896 1.169-4.967 4.578-3.798 12.37 1.363 9.643 3.604 11.493 8.766 7.013 8.084-6.819 13.052-17.046 9.058-18.604-1.704-.67-5.768-1.072-9.194-1.114zm50.308 5.533c-1.924.02-2.83.41-3.81 1.134-1.071.78-2.922 5.941-4.968 14.317-6.038 23.864-14.318 45-34.285 86.882-5.649 11.98-10.518 23.18-10.81 24.837-.487 2.727-.292 3.213 1.46 3.213 5.747 0 30.097-25.713 47.921-50.647 17.435-24.35 36.037-60.486 36.037-70.032 0-4.383-2.628-5.552-16.751-7.89-8.163-1.26-12.32-1.84-14.794-1.814zM59.894 314.533c-4.936.026-9.681.174-13.936.467-14.123.876-46.363 2.045-48.116 5.065-1.364 2.532-2.24 89.51-.973 99.542.682 4.967 1.07 5.844 2.823 6.136 1.656.195 2.923-.876 5.358-4.87 16.947-26.687 53.862-38.57 66.816-50.94 7.305-7.013 10.325-9.156 18.993-13.246l10.227-4.87 5.358-11.201c3.02-6.234 5.649-13.149 5.94-15.487.39-3.603.098-4.383-1.85-5.746-4.273-2.77-29.25-4.962-50.64-4.85zm235.02 103.613c-.39 0-2.437.877-4.482 2.046-7.403 3.896-26.785 17.435-27.856 19.285-1.559 3.02-1.168 7.11 1.267 11.785 3.019 6.234 5.16 6.137 10.907-.194 6.818-7.5 19.091-24.156 20.65-27.857 1.266-3.02 1.072-5.065-.487-5.065z" fill="#f2f2f2"/></svg>