<svg version="1.0" xmlns="http://www.w3.org/2000/svg" width="682.667" height="682.667" viewBox="0 0 512 512"><path d="M162 27.7c-4.4 1.5-5.5 8.3-1.7 10.8 1.8 1.1 82.1 23.3 119.4 32.9 7.4 1.9 10.4 1.1 12.3-3.3 1.8-4.5-.5-7.5-7.2-9.4-7.5-2.2-115.8-30.4-118.8-31-1.4-.3-3.2-.3-4 0zm155.5 29.5c-3.1 2.8-7.5 14.3-7.5 19.9 0 2.9.7 4.7 2.5 6.5 6.1 6.1 23.8 11.3 34.4 10.1 6-.7 8.5-3.7 10.5-12.6 2.3-10.1 2.1-15.3-.6-17.8-2.9-2.7-9.7-4.9-20.5-6.8-12-2.1-15.7-1.9-18.8.7zm113.1 28.4c-15.1 4.1-17.4 6.2-18.3 16.3l-.6 6.2 9.9 9.9c6.1 6 11 10.1 12.8 10.6 3.1.7 34.5-5.5 41.9-8.4 3.7-1.4 4.5-3.1 3.1-6.6-.7-1.9-29.6-27.3-33.2-29.2-3.5-1.8-5-1.7-15.6 1.2zm-53.5.3c-2.6 2.6-2.8 8.2-.3 10.3 2.1 1.9 7.7 3.8 10.8 3.8 3.8 0 6.6-3.5 6.2-7.8-.3-3.1-.9-4-3.8-5.4-6.2-3-10.5-3.3-12.9-.9zm-182.7 5.5c-8.9 2.9-16.8 10.5-22.3 21.3-6.9 13.8-7.1 34.2-.4 47.6 14.1 28.2 47.3 21.5 57.9-11.8 4.1-13 3.1-29.2-2.6-40.5-2.8-5.6-9.3-12.6-14.2-15.1-4.9-2.5-13.3-3.2-18.4-1.5zm121.3 19.1c-.9.9-1.7 1.8-1.7 2 0 1.7-6.6 32.8-8.6 40.9-4.4 17.4-10.4 34.9-12.9 37.5-2.6 2.7-4.5 2.9-15.6 1.7-7-.7-7.9-.6-9.7 1.2-1.4 1.4-2.3 4-2.7 7.9-.3 3.2-1.4 9.8-2.2 14.8-2.5 13.8-2.4 16.7.9 18.3 5.6 2.6 36.8-2.6 47.7-8 2.6-1.3 5.3-3.7 6.4-5.5 3.6-6.4 16.1-60.9 21.3-93.5 2.1-13.3 1.4-15-6.8-16.8-10.4-2.2-14.3-2.4-16.1-.5zm-187 73.5c-9.2 1.5-12.9 2.7-19.2 6.5-17.2 10.4-36.7 31.2-45.6 48.8-4.3 8.4-8.6 22.2-10.9 35.1-2.3 12.1-3.7 32.7-2.6 37 .8 3.4 4.8 5.2 13.7 6.1 6 .6 6.8.5 9.2-1.7 2.5-2.1 2.9-3.6 5.2-19.6 3.1-22 5.9-33.7 8.9-37.6 2.1-2.8 32.9-25.6 38.4-28.5 5.9-3.1 7.2.8 6 18-1.1 16.3-.5 18.9 4.5 18.9 5.7 0 21.8-11 33.6-23 10.8-11 30.1-38.2 30.1-42.5 0-3.2-1.5-4-9.5-5.4-7.3-1.3-12.5-3.5-21.2-9-5.2-3.3-5.2-3.3-20-3.7-8.1-.1-17.4.1-20.6.6zm105.3 5.8c-2.7 1.3-6.8 6.5-18.7 24.2-8.3 12.4-15.7 23.8-16.4 25.3-1.1 2.5-.9 3.3 2.4 8 1.9 2.9 3.8 6.2 4.2 7.5 1.7 5.8-4.7 14.1-12.7 16.3-3.3.9-5.5.9-9.8-.1-11.6-2.6-11.8-2.6-20.5 3.1-4.4 2.9-13.4 8-20 11.3-9.4 4.8-12.1 6.6-12.3 8.3-.4 2.6 2.8 4.3 8.2 4.3 4.8 0 11.7 2.6 15.9 6.1 6.7 5.5 7.4 14.8 1.6 21.4-4.1 4.7-10.1 7.3-18.8 8.1-4.9.4-8 1.3-9.1 2.4-2.3 2.3-4.4 13.3-3 15.9 1.1 2.1 6.6 4.1 11.5 4.1 5 0 10.4 2 12 4.3.8 1.2 2.3 6 3.4 10.6 3.1 13.5 4.7 13.8 16.1 3.6 10.4-9.3 12.6-8.8 17.6 4 1.5 3.8 3.8 8.1 5.1 9.5l2.4 2.5 3.2-3.6c4.7-5.4 10-16.3 9.2-18.9-.4-1.3-2.8-3-6.3-4.6-7.2-3.2-10.9-6.7-12.3-11.7-.9-3.4-.7-4.5 1.3-8.6 1.9-3.7 3.6-5.2 8.2-7.6 4.9-2.5 7-2.9 13-2.9 3.9 0 9.5.8 12.4 1.7 3.5 1.1 6 1.3 7.6.7 1.2-.4 7.1-6 12.9-12.4 11.7-12.6 12.6-14.8 8.2-19.1-1.8-1.9-3.5-2.5-6.9-2.5-10.7 0-21.6-4.1-24.2-9.2-2.8-5.4-1.3-10.5 4.9-16.2 2.7-2.5 2.8-2.9 2.2-8.9-.7-6.3-.7-6.4 5.3-17.8 3.4-6.3 7.2-15 8.7-19.4 4.3-13.3 6.9-34.7 4.7-38.2-.7-1.1-5.4-3.3-7-3.3-.4 0-2.3.8-4.2 1.8zm10.9 157.4c-5.7 6.1-12.9 17.1-12.9 19.7 0 1.9 3.1 5.5 13.4 15.6 9.5 9.2 14.2 14.5 16 18.3 2.6 5.1 6 20.7 14.1 64.6 3.8 20.4 4.5 20.9 18.7 15.5 11.8-4.6 12.2-5.2 11.5-16.3-1.3-18.2-8.2-59.8-12.2-73.4-2.4-8-9-16.7-24.5-32.5-12.9-13-14.9-14.7-17.8-14.7-2.4 0-4.1.9-6.3 3.2zm-118.6 29.3c-1.3.9-5 8.8-10.3 21.9-4.9 12.4-9.2 21.5-10.7 23s-4.3 2.8-7.1 3.3c-7.7 1.3-34.9.7-45.4-1.1-14-2.3-17.2-2.2-19.7 1-2.9 3.7-5.5 13.3-4.4 16.4 1.2 3.4 4.8 4.4 24.4 7 19.4 2.6 59 3.9 65.5 2.1 5.1-1.4 6.8-3.2 14.7-16.1 9.6-15.8 9.4-14.3 5.1-36.2-4.3-22.1-6.2-25.4-12.1-21.3z" fill="#f2f2f2"/></svg>