<svg version="1.0" xmlns="http://www.w3.org/2000/svg" width="682.667" height="682.667" viewBox="0 0 512 512"><g fill="#f2f2f2"><path d="M87.1 21c-10.8 3.8-11.4 4.4-10.8 9.7.6 5.3 3 9.1 6.2 9.9 3.6.9 19.1-4.1 22.2-7.2 2.1-2.1 2.4-3.2 1.9-6.2-.8-5.4-3.7-8.7-7.7-8.9-1.9-.1-7.2 1.1-11.8 2.7z"/><path d="M20.6 21.3L18 24l.2 61.9c.3 70-.4 64.3 8.5 67.7 3.8 1.5 5.2 1.6 9.2.5 6-1.5 7.6-.9 10.6 4.4 3 5.1 3.1 8.3.4 15.9-1.1 3.3-2.3 8-2.6 10.6-1.7 14.8 9 30.9 23.4 35.1 4.7 1.3 8.8.3 11.9-3.2 2.7-3 6.8-2.4 9.9 1.3 4.4 5.3 4.8 7.3 2.6 14.2-3.1 9.2-3.6 16.2-1.7 23.4 3.6 14.3 14 23.5 29.1 25.8 6.5.9 9.3-.8 12.2-7.6 2.9-6.6 4.8-7.8 9-5.6 6.6 3.4 7.7 5.8 8.4 17.6.7 12.6 3.2 19.1 9.9 26.4 7.6 8.3 21.3 12.6 30.4 9.6 3.6-1.1 6.6-5 6.6-8.4 0-.9 1.1-2.3 2.5-3.2 2.4-1.6 2.8-1.5 7.2.7 5.8 3 7.9 5.9 9.8 13.4 5 19.1 22.8 30.9 40.2 26.6 5.6-1.4 7.9-3.3 9.8-7.7 1.9-4.5 4-5.4 9.8-3.9 6 1.5 8.8 4.2 11 10.2 3.6 10.1 13.7 19.5 23.7 22.3 8.8 2.5 21.6 0 27.1-5.1 2.4-2.2 2.9-3.5 2.9-7.3 0-6 2.9-8.2 9.7-7.2 5.5.7 7.7 2.5 10.8 8.6 8.1 15.9 25.4 24.2 44.2 21.1 5.6-.9 8.6-1 10.6-.2 3.7 1.4 11.6 9 18.8 17.8 25.7 32.1 21.9 61.2-10.5 79.8-10.7 6.1-13.8 8.4-13.1 9.6 1.8 2.8 19.1-1.2 30.6-7.2 18.7-9.8 28.9-26.4 28.9-47.4 0-20.1-8.5-39.5-26.5-60.5-3.8-4.5-7.3-9.1-7.6-10.3-.3-1.2.3-5.1 1.3-8.7 1.1-3.8 1.8-9.8 1.8-14.5 0-9.7.5-10.6 10.4-17.9 20.1-14.9 34.8-33.7 40-51.4 7.8-26.6-4.2-52.5-30.3-65.6-8.4-4.2-16.1-6-16.1-3.9 0 .5 4.3 4.8 9.6 9.7 5.2 4.8 11.1 11.1 13 14 16.4 24.2 4.7 53.5-30.8 77.2-9.6 6.4-11.3 6.7-21 3.8-17.3-5.1-31.6-1.9-44.5 9.9-3.2 3-6.8 5.9-8 6.5-2.8 1.5-9.5 1.5-12.8 0-2.6-1.2-2.6-1.3-2-8.1.7-6.8.7-6.9-2.6-10.4-1.9-1.9-5.6-4.7-8.4-6.1-4.3-2.3-6.2-2.7-14-2.7-7.7 0-9.8.4-14.8 2.7-3.1 1.5-8.1 5-11 7.7-6.5 6.2-9.8 7-16.1 4.3-3.9-1.8-4.6-2.5-4.6-4.9 0-1.5 1.1-4.6 2.5-6.8 5.1-8.3 1.9-14.7-10.3-20.7-5.9-2.9-7.6-3.3-14.7-3.3-9 .1-13.4 1.7-22.6 8-6.3 4.3-9.9 4.3-15.5 0-4.2-3.2-4.3-5.7-.4-10.9 4.8-6.3 3.6-11.4-4.1-18-8.7-7.4-22.3-9.7-33.9-5.6-3 1.1-6.7 1.9-8.1 2-3.2 0-8.9-3.7-10.8-7.1-1.4-2.5-1.3-3 1.7-7.4 3.3-5.1 3.4-7 .5-12.8-2.3-4.7-9.2-10.8-15.2-13.5-4.5-2.1-7.7-2.7-16.3-3.1-9.6-.5-10.9-.9-13.3-3.1-1.5-1.4-3.3-3.7-4.1-5.3-1.9-3.6-.7-5.8 4.8-8.9 5.9-3.2 6.8-7 4-16.5-4.7-15.3-18.3-24.2-37-24.3-7.5 0-9.3-.8-12.1-5.4-4.3-7-2.3-10.3 7.7-12.6 7.7-1.8 9.5-4.5 9-13.5-1.2-17.4-14-29.7-33-31.4-4.6-.4-9.3-1.3-10.5-1.9-1.2-.7-2.9-3.3-3.9-5.8-1.6-4.1-1.6-4.9-.3-7.2 1.7-3 4.3-4 11.7-4.1 4.1-.1 5.8-.6 7.6-2.4 4.4-4.4 4.1-16.7-.6-26-4.7-9.3-16.9-17.1-28.5-18.3-5.7-.6-6.3-.5-8.7 1.9z"/><path d="M109.5 79.9c-12.3 5.9-13.5 8.3-8.2 16.2 3.3 4.9 6.9 5 16.5.4 4.2-2 8.5-4.3 9.4-5.2 2.5-2.2 2.2-7.3-.5-11.4-3.3-4.9-7.1-4.9-17.2 0zm28.4 54.9c-12.3 8.1-13.2 10.4-6.8 17.7 4.2 4.7 6.8 4.5 16.1-1.5 9.5-6.1 11.5-8.8 9.8-13-4-9.6-8.2-10.3-19.1-3.2zm30.3 42.9c-7.5 8-10.5 12.7-9.7 15.2.3 1.1 2.2 3.4 4.1 5 4.9 4.4 8.7 4.2 13.2-.7 6.2-6.5 11.2-13.3 11.2-15.2 0-3.8-7.2-10-11.7-10-.9 0-4.2 2.6-7.1 5.7zm45.7 26.2c-1.4 1-4.5 6.1-6.9 11.1-4.1 8.7-4.3 9.4-2.9 11.9.8 1.4 3.5 3.4 6.2 4.5 4.7 2 4.7 2 7.5 0 1.5-1.1 4.7-6 7.1-10.8 5-9.9 4.9-12.6-.4-15.7-5.1-3-7.8-3.2-10.6-1zm-193.3 8.2c-2.1 2.5-2.6 4.1-2.6 8.5 0 9.8 3.1 11.7 10.8 6.6 6.3-4 6.8-8.9 1.6-15.1-3.3-4-6.5-4-9.8 0zm249 17.8c-1.7 1.9-6.8 14.1-8 19.3-1 4.3 2.8 7.9 9 8.5 3.8.4 5.4.1 6.6-1.1 2.6-2.5 7.9-17.4 7.6-20.9-.6-6.1-11.3-10.2-15.2-5.8zm58.1 18.3c-2.5 2.5-4.4 8.8-5.4 18.6-.7 6.5 1 8.8 7.2 9.8 7.7 1.1 10.2-1.8 12.5-15.2 2-11 .7-13.2-8.4-14.9-2.9-.6-3.9-.3-5.9 1.7zm-257.2 42c-10.7 11.6-11.3 14.1-4.9 19.7 5 4.5 8 4.1 13.5-1.7 12.4-13 13.4-15.9 7.5-21.8-5.5-5.5-8.1-4.8-16.1 3.8zm76.1 46c-3.4 4.6-9.6 17.8-9.6 20.6 0 4.7 8.5 9.5 13.9 7.7 1.4-.4 3.8-4.1 7.2-11 6.1-12.2 6.1-14.2-.4-18-5.8-3.3-8.1-3.2-11.1.7zm72.1 31c-1.2 1.3-3.8 6.9-5.7 12.4-3.3 9.9-3.4 10.2-1.7 12.8 3.1 4.7 11.4 6.4 14.6 3 2.2-2.3 8.1-17.6 8.1-21.1 0-3.8-1.6-5.9-6-7.7-5.3-2.1-6.7-2-9.3.6zm79.1 23.2c-1.8.9-2.8 3-4.5 9.6-1.2 4.7-2.2 10.6-2.2 13.2-.1 4 .3 5 2.4 6.4 1.4.9 4.4 1.9 6.8 2.1 5.6.7 7.4-1.4 9.8-11.4 2.4-10.1 2.4-15.5.1-17.6-2.6-2.4-9.6-3.7-12.4-2.3z"/></g></svg>