<svg version="1.0" xmlns="http://www.w3.org/2000/svg" width="682.667" height="682.667" viewBox="0 0 512 512"><g fill="#f2f2f2"><path d="M240.5 20.9c-12.9 3.8-23.6 11.2-31.5 21.9-5.3 7.1-9 15.4-9 20.1 0 5.7-1.4 5.6 56.7 5.6h53.5l1.9-2.4c2.3-2.9 1.9-5.1-2.8-15.1-6.8-14.2-22-26.5-37.8-30.5-8-2-23.3-1.8-31 .4zM117.3 63.3C89.6 91 85 96 85 98.5c0 7.7 37.2 35 59 43.4 10.8 4.2 23 6.5 30.4 5.7 11.8-1.2 22-8.7 22-16.1 0-2-1.4-5.2-3.8-8.9-9.8-14.8-13.6-27.9-13.6-47.1 0-14.5-.4-15.5-9.5-27.5-8.6-11.3-14.5-17-17.5-17-2 0-9.4 6.9-34.7 32.3zM356.7 33c-2.8 2.2-14.8 17.1-19.2 23.8-2.8 4.2-2.9 4.8-3 18.5-.2 20-3.5 31.5-13.4 46.7-5.3 8.3-5.4 11.5-.3 17.2 8.6 9.6 23.1 11.1 43.2 4.6 17.2-5.5 44.5-22.9 60.3-38.2 6.8-6.7 6.8-6.7-18.9-33C360.7 27 362.5 28.4 356.7 33zM205 87.7c-3.7.7-5 2.2-5 5.4 0 7 8.8 22 17.3 29.4 6 5.2 16.6 11 22 12 2.9.6 4.2.3 5.7-1 1.9-1.7 2-3.2 2-21.5 0-26.4 1.7-24.5-21.7-24.7-9.8 0-18.9.1-20.3.4zm66.2.4c-2.1.6-3.6 1.9-4.2 3.5-.6 1.4-1 10.7-1 20.7 0 21.4.6 23.3 7 22.4 12.2-1.6 29.7-16 36.3-29.7 4.7-10 5.1-12.2 2.8-15.1-1.9-2.3-2.4-2.4-19.8-2.6-9.8-.1-19.3.2-21.1.8zm-170.9 61.5c-7.1 5.3-17 15.3-18.3 18.5-1.5 3.4-.1 6.3 4.3 8.9 5.5 3.4 8.1 2.7 15.5-4.3 3.7-3.4 9.2-8.2 12.4-10.5 3.1-2.4 5.9-5 6.2-5.9.9-2.3-1.9-6-6.4-8.3-5.5-2.8-8.2-2.5-13.7 1.6zm106.1 2.6c-4.3 4.1-9.3 7.6-14.7 10.2-9.8 4.9-10.7 6.9-5.8 13.8 3.7 5.4 14.2 15.6 20.1 19.5 31.1 20.8 72.2 20.3 102.5-1.2 7.3-5.2 19.2-17.6 21-21.9 1.9-4.4.6-6.1-8-10.1-4.6-2.2-10-5.9-14.4-10-4-3.6-8-6.5-9.2-6.5-1.1 0-5.1 1.3-8.9 3-20.7 9.1-43 9.2-63.5.4-4.5-1.9-9.1-3.4-10.4-3.4-1.4 0-4.6 2.3-8.7 6.2zm192.8-4.1c-5.4 2.7-7.8 6-6.3 8.7.6 1.1 3.4 3.7 6.3 5.8 2.9 2.1 8.2 6.6 11.8 10 3.6 3.4 7.5 6.5 8.7 6.8 4.2 1.3 12.3-4.5 12.3-8.9 0-4.7-19.3-22.8-25.6-24-1.9-.4-4.4.2-7.2 1.6zM62 189.9c-5.2 1.6-8.9 4.2-13.4 9.3-13.1 14.9-23.1 46.6-27 85.6-2.2 21-2.1 28.4.3 31.3l1.9 2.4 38.6.3c25.9.2 39.8-.1 42.6-.8 5.5-1.5 6.4-3.9 5.5-16.5-3.1-48.6-13.2-85.3-28.3-102.5-6.4-7.3-14.4-10.9-20.2-9.1zm380.6.5c-5.4 2-13.5 10.4-18.5 19.1-11.2 19.6-19.4 54.9-20.8 89.5-.6 15.2-.5 15.5 1.7 17.5 2.1 1.9 3.6 2 43 2s40.9-.1 43-2c2.2-2 2.3-2.3 1.7-17.5-.7-18-3.4-37.5-7.6-54.6-9.4-38.5-26.3-59.9-42.5-54zm-214.2 39c-1.2.8-3.1 3.9-4.4 6.8-3.1 7.3-2.6 18.5 1.3 25.1 6.5 11 17.7 17 31.7 17.1 7.5 0 9.3-.4 15.2-3.1 11.2-5.2 17.9-13.9 19.4-25 .8-6.3-1.6-14.9-5.3-19.4l-2.7-3.2-9 .9c-11.5 1.1-24.7 1.1-35.6.1-7-.7-8.9-.6-10.6.7zm-29.1 43.8c-15.7 8.5-41.3 36.3-41.3 44.7 0 3.1.6 4 4.4 6.9 5.6 4.3 7.8 3.3 15.5-7.1 8.3-11.1 18.2-20.7 28.5-27.6 4.1-2.8 7.8-5.6 8.1-6.1 1.9-3.1-4.9-13-8.9-13-1.2 0-4 1-6.3 2.2zm105-.7c-1.2.8-3.1 3.1-4.3 5.1-3.1 4.9-1.8 7.1 7.2 13.1 10 6.6 19.5 15.8 27.9 27 7.7 10.3 9.3 11.1 15.5 7.3 6-3.8 6.1-7.7.3-16.1-9.2-13.6-22.3-26.3-35.1-34.2-6.8-4.1-8.4-4.4-11.5-2.2zm-169.8 64.4c-20.1 5.1-38.3 40.6-46 89.5-2.1 13.4-1.5 15.1 5.3 14.2 13.9-1.7 27.8-1.8 34.2-.1 19.5 5.1 34.7 19.3 41 38.5 3.8 11.9 5.1 13 15.1 13 5.1 0 6.4-.4 8.6-2.6l2.6-2.6-.7-14.2c-2.8-59.1-17-107.5-37.4-127.3-7-6.9-15.8-10.1-22.7-8.4zm235 0c-17.7 4.5-33.7 31.8-42.9 73.1-4.5 20.6-7.5 45.6-7.9 66.3-.2 11.5-.1 11.9 2.3 13.9 2.1 1.7 3.6 1.9 9.8 1.6 8.7-.4 10.1-1.6 12.7-10.6 5.8-20 21.6-35.6 41.1-40.6 7.4-1.9 20.6-2.1 30.4-.4 11.4 2 12.2.6 9.5-15.6-4.2-25.6-12.9-51.5-22-66.2-10-16-22.5-24.2-33-21.5zm-326 .8c-3.6.9-5.5 3.4-5.5 7.2.1 7.7 6.5 16.5 15 20.5 6.6 3.1 18.8 2.9 25-.3 5.7-3 9.7-6.7 12-11.1 4.3-8.6 3.4-14.2-2.7-15.9-3.7-1.1-39.8-1.4-43.8-.4zm381.8.4c-4.3 1.3-5.7 5.3-3.8 11.6 5.2 17.3 29.2 23.8 44.6 12 8-6.1 11.6-17.9 6.8-22.3-1.9-1.7-4-1.9-23.3-2.1-11.6-.1-22.5.2-24.3.8z"/><path d="M103.5 458.4c-7.8 1.9-14.2 5.5-19.6 11.3-8.3 8.8-11.1 17.6-6.7 20.7 3.4 2.4 68.2 2.4 71.6 0 4.5-3.1 1.8-11.6-6.6-20.6-5.5-5.9-13.5-10.2-21.7-11.7-7.2-1.3-10.5-1.3-17 .3zm288.7-.4c-11.7 2.5-22.8 10.7-27.5 20.4-3.3 6.7-3.4 10-.5 12 1.9 1.4 7 1.6 35.5 1.6 20.2 0 34.2-.4 35.9-1 2.5-1 2.6-1.4 2.2-5.9-1-9.7-11.4-21-23.4-25.2-6.7-2.4-16.2-3.2-22.2-1.9z"/></g></svg>