<svg version="1.0" xmlns="http://www.w3.org/2000/svg" width="682.667" height="682.667" viewBox="0 0 512 512"><path d="M18.4 17.1c-1.8 1.9-1.9 4.2-2.2 30.4-.4 33.3 0 35.3 6.1 39.2 25.9 16.4 36.8 25.2 57.7 46.2 17.9 17.9 30.1 32.5 41.2 49.1 16.9 25.4 23 46.7 15.7 54.6-3.9 4.3-25.9 13.7-55.8 23.8-19.9 6.8-24.8 9.3-31.9 16.4-7 7.1-11.4 15.1-14.2 26.2-1.2 4.7-3.7 11.3-5.6 14.6-8.1 14.6-13.4 33.2-13.4 46.9 0 16.7 6.5 32.9 17.8 44.3 14.8 15 35.1 23.7 66.9 28.8 9.2 1.5 11.4 1.5 12.7.5.9-.8 1.6-1.8 1.6-2.3 0-.5-5.4-6.5-12-13.3-10-10.5-12.5-13.7-15.9-20.7-4.9-10.2-6.5-18.4-5.8-28.7.8-12.1 2.8-14.9 14.1-19.6 5-2.1 8.9-4.7 13.8-9.3 7.1-6.7 7.5-7.4 18.7-31.6 10.5-22.5 27-37 43.7-38.4 18-1.4 49.6 11.2 73.9 29.6 19.9 15.1 36.2 33.8 45.5 52.1 4.3 8.6 12.1 16.1 21.3 20.5 3.9 1.9 8.8 3.7 10.7 4.1 5.3 1.1 8.3 2.9 13.1 8 9.9 10.4 20 28.2 23.5 41.5 2.5 9.8 2.2 22.4-1 35-3 11.9-3.2 14.8-1.2 15.6 2.5 1 7-2.2 18.9-13.6 26-24.8 37.2-46.5 37-71.5-.2-22.2-7.7-39.3-27.7-62.9-4.2-5-7.6-9.4-7.6-9.9 0-.4-1.5-4.1-3.3-8-7.7-16.6-23.9-26.6-43-26.7-17.3 0-37.1-3.2-49.7-7.9-10.1-3.8-19.2-15-19.2-23.6 0-5.4 2.1-9.5 6.9-13.4 5.4-4.5 10-5.4 22.3-4.7 20.2 1.2 40.2 7.3 61.5 18.6 13.6 7.3 21.4 9.5 30.8 8.7 7.8-.7 15-3.6 23.4-9.6 7.2-5.2 10.6-5.3 19.9-.6 15.1 7.6 25.8 19.3 40.5 44.5 7.3 12.5 9.8 10.8 15.8-10.5 4.4-16 5.4-22.6 5.4-36-.1-20.8-5.9-36.1-18.4-48.6-11.7-11.8-26.9-18.5-48.3-21.3-9.4-1.3-12.8-2.2-18.6-5.1-9.6-4.9-18-6.9-25.5-6.2-6.4.6-10.3 1.9-32.7 11.1-21.1 8.6-62.1 19.6-73.3 19.6-7.9 0-12.1-9.2-7.6-16.6 2.5-4 12.4-12.9 23.6-20.9 9.9-7.2 34.2-19.6 42-21.6 9.5-2.3 15.6-6 24.6-14.7 10.2-9.8 13.1-11 28.4-11.9 21.4-1.2 34.2 3.6 49 18.7 12.5 12.8 14.5 13.5 14.5 5.5 0-6.8-4.6-30.1-8-40.6-9.2-28.2-26.7-46.5-50.1-52.3-9.4-2.3-25.7-2.1-38.2.5-7.3 1.5-14.2 2.2-24.2 2.3-13.8.1-14.2.2-20.8 3.4-7.4 3.7-15.8 11.2-20.1 18.1-1.5 2.4-4.6 8.9-6.7 14.5-2.2 5.5-7.2 16.6-11.1 24.6-8.3 16.8-13.8 23.1-25.4 29.2-22.2 11.7-43.7 8.2-63.7-10.3-9-8.2-16-17.3-25.4-33-12.1-20.1-26.6-52.1-32.9-72.2-1-3.2-2.8-6.9-4.1-8.3l-2.2-2.4H67.2c-46.4 0-46.9 0-48.8 2.1zm369.9 51c11.4 3.8 20.2 11.5 25.9 22.5 5.3 10.2 3.7 11.1-14.7 8.4-15.2-2.1-30.6-.1-50.6 6.7-10.3 3.5-10.8 3.6-13.3 2-4.1-2.7-5.9-7.4-6.4-16.3-.7-13.6 2.1-17.2 17.3-21.9 15.2-4.7 30.2-5.2 41.8-1.4zM434.5 205c10.4 3.3 16.2 6.6 22.7 12.8 9 8.5 13.8 20.4 13.8 34 0 5.6-1.9 10.2-4.1 10.2-.5 0-4.3-3.2-8.5-7-17.4-16.2-29.2-21.7-48.8-22.9-11.7-.7-11.9-.8-14.7-3.9-2.5-2.8-2.9-4-2.9-9.5 0-7.2 2.1-11.6 7.2-14.8 3-1.8 4.4-2 15.8-1.6 9.2.4 14.4 1.1 19.5 2.7zM66.8 320c5.9 2.7 9.2 6.5 9.2 10.7 0 2-1.7 6.5-4.4 11.6-6.3 11.5-8.9 21.7-8.9 34.2 0 5.7.8 12.9 1.7 16.8 2 8.7 2 12.3 0 13.1-2.6 1-10.2-3.4-16.3-9.4-14.4-14.3-17-34.3-7.5-59.3 6.6-17.2 14.9-22.8 26.2-17.7zm293 14.4c4.4 2.3 16.9 16 22.9 25.2 13.7 21.2 15.9 43.5 6 61.8-5.9 10.9-8.4 10.3-13.2-2.9-7-19.6-15.5-32.7-32.2-49.3-11.5-11.5-12.3-12.5-12.3-16.1 0-8.8 12.2-20.1 21.8-20.1 2.3 0 5.5.6 7 1.4z" fill="#f2f2f2"/></svg>