<svg version="1.0" xmlns="http://www.w3.org/2000/svg" width="682.667" height="682.667" viewBox="0 0 512 512"><path d="M171.3 23.1c-5.7 2.2-10.3 6.8-10.3 10.3 0 1.2 2.9 10.9 6.5 21.6 15.6 46.4 31.5 98.8 31.5 103.7 0 3.3-2.9 6.6-7.4 8.3-5.6 2.1-7.5.3-24.3-23.4-42.6-60.3-54.5-76.6-57.4-79-1.7-1.4-4.3-2.6-5.8-2.6-4.2 0-12.7 4.7-16.6 9.3-4.6 5.3-5.4 9.6-2.6 14.3 1.2 1.9 16 23 33 46.7 34.4 48.2 35.1 49.2 35.1 52.6 0 3.5-7.9 11.1-11.7 11.1-2.1 0-13.8-7-43.4-26.1-56.1-36.3-53.8-34.9-58-34.9-3 0-4.3.7-6.9 3.7-7.7 8.7-10.4 21.5-5.7 26.7 4.1 4.6 89.2 59.4 107.8 69.5 14.5 7.8 17.2 10.4 17.2 16.4-.1 5.1-2.4 10.1-5.6 12.1-1.2.8-9.2 3.3-17.7 5.5-35.5 9.1-51.3 17.1-56.6 28.5-2.8 5.9-3.1 13.1-.8 16.4 1.1 1.6 2.5 2.2 5.2 2.2 4.5 0 82.9-17.5 121.7-27.1 36.5-9.1 42.2-12.1 56.3-29.8 3.7-4.6 6.6-5.2 12.7-2.7 4.5 1.9 5.8 4.5 4.3 8.8-3.9 11.4-15.2 22.3-32.5 31.2-7.5 3.9-8.7 5.3-7.5 8.5.4 1 6 7.9 12.6 15.2 26.4 29.8 46.2 58.2 61.1 88 5.4 10.7 9 13.2 13 9.2 2.4-2.4 1.5-8.5-4-27.3-7.1-23.7-8.3-32.4-4.9-33.7 3.8-1.4 6.2 1.5 14.2 17.9 9 18.4 15.8 28.4 19.8 29.4 3.9 1 5.1-1.3 5.9-10.9.8-10.2 2.1-14.4 4.6-15.2 4.9-1.6 7.7 2.1 10.4 14.1 2.1 9 3.7 11.4 7.6 11.4 3.3 0 14.5-4.1 19.7-7.2 9.1-5.5 23.5-41.4 27.7-69.4 2.1-14.3 2-22.5-.5-25.7-1.1-1.4-10-7.1-19.7-12.7-58.1-33.5-89.2-58.2-100.8-80.1-6.1-11.7-6.2-12.9-9-92.4-1.3-40.2-2.7-74.9-3-77.2-.8-5.3-4.3-8.9-10.8-10.8-9.4-2.8-19.4-1.4-22.4 3.1-1.5 2.3-1.5 6.7-.3 55.5 1.4 59.3 1.6 56.8-5.7 58.8-9.5 2.7-12.4.6-16.4-11.5-8.4-24.9-35.9-104.3-37-106.7-.7-1.6-2.5-3.5-4-4.3-3.9-2-12.5-1.7-18.6.7zm242.4 378.6c-1.2 1.4-4.6 5.1-7.4 8.1-3.3 3.4-5.3 6.4-5.3 7.8 0 1.3 3 6.7 6.7 12.1 17.6 25.8 21.9 32.6 26.8 42.4 3.1 6.2 6.7 11.7 8.5 13.3 6.4 5.4 14.4 2 17.5-7.4 2.2-6.8 3.2-7.4 11-6.5 8.3.8 12.3-.5 16.9-5.6 3.5-3.8 4.1-5.6 3.6-10.8-.5-6.1-6.8-10.7-19.4-14.1-9.7-2.6-11.7-4-30.8-22.1-22.8-21.7-23.9-22.4-28.1-17.2z" fill="#f2f2f2"/></svg>