<svg xmlns="http://www.w3.org/2000/svg" viewBox="0 0 512 512" height="682.667" width="682.667" version="1.0"><g fill="#f2f2f2"><path d="M57.5 33.6C15.8 40.1 2.9 42.4 1 43.9c-1.9 1.3-2.7 3.2-3.3 7.1-.4 3-.6 89.1-.5 191.5C-2.5 446.7-3 432 3.6 432c1.8 0 18-3.8 35.8-8.5 17.9-4.7 33.6-8.5 34.9-8.5 4.1 0 6.4 3 11.7 14.9C91.3 442 94.1 446 97.3 446c1.1 0 16.7-5.9 34.7-13 18-7.1 33.4-13 34.2-13 3.3 0 6.7 4.4 13.7 18.1 4.1 7.9 8.1 15.2 8.9 16.1.8 1 2.9 1.8 4.5 1.8s15.3-5.4 30.4-12c15.1-6.6 28.7-12 30.2-12 3.8 0 5.7 2.5 13.1 16.5 7.5 14.5 8.4 15.5 12.6 15.5 1.9 0 16.7-5.2 33.9-12 16.9-6.6 31.9-12 33.5-12 1.5 0 3.7.8 4.8 1.7 1.2 1 6.4 8.8 11.7 17.3 5.3 8.5 10.6 16.5 11.8 17.7 4.4 4.9 4.9 4.5 40-30.4 18.1-18.1 33.5-34 34.3-35.5 1.2-2.3 1.2-2.9-.2-4.2-1.3-1.3-4.3-1.6-16.2-1.6-15.3-.1-16.8-.4-19-4.6-.6-1.2-2.9-8.8-5.2-17-5.6-20.6-6.7-23.3-9.6-24-3-.8-2.9-.9-30.6 20.3-26.7 20.4-28.9 21.8-31.6 20.4-2.6-1.4-2.8-1.8-7.3-23.8-4.1-20.1-5.2-23.8-7.6-24.7-2.3-.9-5.8 1.4-28.7 19.3-22.8 17.9-26.1 19.7-28.6 15.1-.6-1.1-3.5-12.1-6.4-24.5-3-12.4-6.1-23.7-7-25-1-1.4-2.6-2.5-3.9-2.5-1.2 0-13.4 5.4-27 12-13.5 6.6-25.9 12.3-27.5 12.6-1.9.4-3.2 0-4.4-1.3-1-1-3.8-9.5-6.3-18.8-4.9-18.1-6.6-21.2-11.2-20-1.2.3-9.3 3.9-17.9 8-8.6 4.1-16.7 7.5-17.9 7.5-1.2 0-3-.9-4-2-1.6-1.8-10.9-25.8-41.1-105.8-6.7-17.9-9.4-26.1-9-27.8.9-3.5 6.2-6.5 11.1-6.2 4.4.3 4.3.2 11.2 15.3 2.4 5.2 3.2 6 5.8 6.3 4.4.4 33.6-14 66-32.6 31.6-18.1 32.7-18.7 36.5-17.3 1.6.5 9.7 6.2 18 12.5 10.9 8.3 16 11.6 18 11.6 3.2 0 5.9-2.1 23.6-18.1 14.3-12.9 16.5-14.3 20.1-13.5 1.3.4 6.8 4.6 12.1 9.4 17.7 16 19.3 17.2 22.3 17.2 2.2 0 5.5-2.6 15.6-12 10.9-10.2 13.2-12 16-12 3.6 0 4 .3 22.2 16.8 15.6 14.2 14.4 14.4 31.7-5.3 7.3-8.3 14.3-15.4 15.7-15.9 3.7-1.3 6.6-.2 14.3 5.6 22.6 17.2 25.4 18.4 27.9 12.5.7-1.8 2.1-8.3 3.1-14.5 1.6-10.7 1.6-11.6 0-14.9-1.8-3.7-40-55.8-44.4-60.6-2.9-3.1-6.2-3.5-8.5-1-.8 1-3.8 5.3-6.6 9.5-5 7.7-6.5 8.7-10.5 7.2-.9-.3-8.8-9.8-17.7-21-8.8-11.3-17.1-21.2-18.5-22-2.2-1.5-2.6-1.5-4.8-.1-1.3.9-6.9 9-12.5 18.1C338.8 90.1 334.6 95 330.7 95c-1.7 0-89.9-11.2-105.5-13.4-3.8-.6-8.2.8-8.2 2.5 0 .6 4.5 5.7 10 11.4 11.5 11.8 12.1 13.6 6.6 19.1-4.7 4.7-8.1 4.6-14-.5-2.5-2.2-24.2-22.1-48.2-44.2-24-22.2-45-41.4-46.7-42.6-2.3-1.7-4.4-2.3-8.1-2.2-2.8 0-29.4 3.9-59.1 8.5zm66.3 31.6c2.5 1.9 33.9 36.9 44.5 49.6 3 3.8 3.5 7.7 1.1 11-2.1 3.1-7.1 5.5-10 4.8-1.4-.4-8.8-7.8-17.8-18-9.9-11.1-16.4-17.6-18.1-18-3.2-.8-5.1.2-24.3 12.6-19.6 12.7-21.1 13.4-25.1 12-3.3-1.2-39.5-22.5-42.3-25-2.2-1.9-2.3-4.5-.3-6.2 1.9-1.6 82.9-24.9 86.6-25 1.4 0 4 1 5.7 2.2z"/><path d="M427.1 181.7c-1.7 1.6-6.6 7-11 12.2-6.8 7.8-8.1 10-8.1 12.9 0 3.7 1.3 5.7 19.2 29.9 10.3 14 12.5 15.6 16 11.5 2.3-2.4 18.8-41.9 18.8-44.7 0-4.2-1.1-5.5-11-13-16.8-12.7-18.8-13.5-23.9-8.8zm-141.1 1c-3.1 2.1-20.9 18-23.2 20.7-3.4 4.1-2.3 7.7 5.3 17.6 7 9 9.9 11.3 12.9 10.2 2-.7 22.5-20.7 26.1-25.6 1.6-2.1 2.9-4.9 2.9-6.1 0-3.8-16.3-18.5-20.5-18.5-.6 0-2.2.8-3.5 1.7zm62.2 8.2c-13.3 11.7-15.2 14.7-12.9 20.3 1.6 3.7 16 27.3 18.5 30 2.2 2.6 5.5 2.2 8.3-1 2.7-2.9 16.7-24 19.4-29.2.9-1.8 1.3-4 .9-5.5-.6-2.5-16.3-17.7-20.7-20.2-3.8-2.1-5.5-1.4-13.5 5.6zm-152.3.2c-11.5 6.8-12.1 8.1-7.5 17.3 5.6 11.2 12 21.8 13.7 22.9 3.1 1.9 6.7-.4 18.3-11.5 14.5-14 14.7-15.1 5.6-22.7-9.9-8.2-14.6-11.1-18.2-11.1-2.2 0-6.2 1.8-11.9 5.1zm-37.5 63.5c-1.6.8-8 6.5-14.1 12.7-10.5 10.3-11.3 11.5-11.3 15 0 4.2 6.2 21.1 8.7 23.9 2.7 3 6.6 2.1 19.1-4.2 15.3-7.6 15.4-7.9 11.7-21.7-7.1-26.1-8.5-28.6-14.1-25.7zm70.5 14.8c-4.8 2.5-34.6 25.4-35.3 27.1-1.2 3.3-.5 9.1 2.4 19.9 3.7 13.7 5.1 16 9.4 15.3 4.4-.7 37.7-17.3 39.9-19.9.9-1.1 1.7-3 1.7-4.2-.1-4-9.8-35.7-11.5-37.7-2.1-2.3-3.1-2.3-6.6-.5zm72.5 13.8c-9.8 7.6-32.2 26.9-32.8 28.3-1.2 3.3-.5 9.1 3 23.7 4 17 4.9 19.5 7.6 20.4 2.4.7 3.9-.3 22.4-14.8 10.4-8.1 15.6-12.8 16.5-14.9 1.1-2.9.8-5.1-2.9-21.6-2.2-10.2-4.8-19.6-5.7-20.9-1.9-3-4.4-3-8.1-.2zm55.4 26.9c-9 9.3-15.2 16.4-15.8 18.5-.9 2.6-.5 6 2.1 18.6 3.7 18.1 4.8 20.7 8.6 20.8 1.8 0 37.1-26.8 38.3-29 1.9-3.5 1-7.7-4.6-22.5-7.5-20.2-8.3-21.4-12.7-21.5-.7 0-7.8 6.8-15.9 15.1zm98.2 14.6c-4.2 1.6-33.1 19.7-34 21.3-1.7 3.1-1.2 6.9 3 21.5 5.2 18.8 5.2 18.8 21.1 18.3 17.4-.5 16.3 1.6 16.7-30.9.3-22.5.1-26.3-1.2-28.5-1.6-2.4-2.8-2.7-5.6-1.7z"/></g></svg>