<svg version="1.0" xmlns="http://www.w3.org/2000/svg" width="682.667" height="682.667" viewBox="0 0 512 512"><g fill="#f2f2f2"><path d="M242 16.7c-22.5 2.2-53.7 11.1-92.6 26.3-18.8 7.3-22.8 10.3-16.3 12.1 3.2.9 242.7.9 245.9 0 7.2-2-1.8-7.1-32.1-18-48.6-17.6-77.3-23.2-104.9-20.4zM97.5 74.4c-1.6 1.6-2.5 4-2.9 7.7C93.3 93.3 65 436.1 65 440.5c0 6.2 1.2 8 7 11 33 16.7 84.6 27 138.8 27.8 17.2.2 17.4.2 19.3-2.2 1.8-2.3 1.9-5.3 1.9-117.3V244.9l-2.5-2.4-2.4-2.5H116.9l-2.4-2.5c-2.5-2.4-2.5-2.6-2.5-21.5s0-19.1 2.5-21.5l2.4-2.5h278.2l2.4 2.5c2.5 2.4 2.5 2.6 2.5 21.5s0 19.1-2.5 21.5l-2.4 2.5H284.9l-2.4 2.5-2.5 2.4v114.8c0 127.1-.5 118.6 6.5 119.9 3.8.7 43-1.1 57.4-2.7 34.5-3.7 72.5-13.6 94.3-24.5 7.6-3.8 8.8-5.4 8.8-11.9 0-4.4-28.3-347.2-29.6-358.4-.4-3.7-1.3-6.1-2.9-7.7l-2.4-2.4H99.9l-2.4 2.4zm67 89.1c1.4 1.3 2.5 3.3 2.5 4.5 0 2.7-4.3 7-7 7s-7-4.3-7-7 4.3-7 7-7c1.2 0 3.2 1.1 4.5 2.5zm48 0c1.4 1.3 2.5 3.3 2.5 4.5 0 2.7-4.3 7-7 7s-7-4.3-7-7 4.3-7 7-7c1.2 0 3.2 1.1 4.5 2.5zm48 0c1.4 1.3 2.5 3.3 2.5 4.5 0 1.1-1.1 3.2-2.5 4.5-1.3 1.4-3.3 2.5-4.5 2.5-2.7 0-7-4.3-7-7s4.3-7 7-7c1.2 0 3.2 1.1 4.5 2.5zm48 0c1.4 1.3 2.5 3.3 2.5 4.5 0 1.1-1.1 3.2-2.5 4.5-1.3 1.4-3.3 2.5-4.5 2.5-1.1 0-3.2-1.1-4.5-2.5-1.4-1.3-2.5-3.4-2.5-4.5 0-1.2 1.1-3.2 2.5-4.5 3.1-3.2 5.9-3.2 9 0zm48 0c1.4 1.3 2.5 3.3 2.5 4.5 0 1.1-1.1 3.2-2.5 4.5-1.3 1.4-3.3 2.5-4.5 2.5-1.1 0-3.2-1.1-4.5-2.5-1.4-1.3-2.5-3.4-2.5-4.5 0-1.2 1.1-3.2 2.5-4.5 3.1-3.2 5.9-3.2 9 0zm-215 127c5 4.9 1.5 13.5-5.5 13.5-1.9 0-4-.9-5.5-2.5-1.6-1.5-2.5-3.6-2.5-5.5s.9-4 2.5-5.5c1.5-1.6 3.6-2.5 5.5-2.5s4 .9 5.5 2.5zm32 0c5 4.9 1.5 13.5-5.5 13.5-1.9 0-4-.9-5.5-2.5-1.6-1.5-2.5-3.6-2.5-5.5s.9-4 2.5-5.5c1.5-1.6 3.6-2.5 5.5-2.5s4 .9 5.5 2.5zm32 0c5 4.9 1.5 13.5-5.5 13.5-1.9 0-4-.9-5.5-2.5-1.6-1.5-2.5-3.6-2.5-5.5s.9-4 2.5-5.5c1.5-1.6 3.6-2.5 5.5-2.5s4 .9 5.5 2.5zm112 0c5 4.9 1.5 13.5-5.5 13.5-4.1 0-8-3.9-8-8s3.9-8 8-8c1.9 0 4 .9 5.5 2.5zm32 0c5 4.9 1.5 13.5-5.5 13.5-4.1 0-8-3.9-8-8s3.9-8 8-8c1.9 0 4 .9 5.5 2.5zm32 0c5 4.9 1.5 13.5-5.5 13.5-4.1 0-8-3.9-8-8s3.9-8 8-8c1.9 0 4 .9 5.5 2.5zm-240 32c5 4.9 1.5 13.5-5.5 13.5-1.9 0-4-.9-5.5-2.5-1.6-1.5-2.5-3.6-2.5-5.5s.9-4 2.5-5.5c1.5-1.6 3.6-2.5 5.5-2.5s4 .9 5.5 2.5zm32 0c5 4.9 1.5 13.5-5.5 13.5-1.9 0-4-.9-5.5-2.5-1.6-1.5-2.5-3.6-2.5-5.5s.9-4 2.5-5.5c1.5-1.6 3.6-2.5 5.5-2.5s4 .9 5.5 2.5zm32 0c5 4.9 1.5 13.5-5.5 13.5-1.9 0-4-.9-5.5-2.5-1.6-1.5-2.5-3.6-2.5-5.5s.9-4 2.5-5.5c1.5-1.6 3.6-2.5 5.5-2.5s4 .9 5.5 2.5zm112 0c5 4.9 1.5 13.5-5.5 13.5-4.1 0-8-3.9-8-8s3.9-8 8-8c1.9 0 4 .9 5.5 2.5zm32 0c5 4.9 1.5 13.5-5.5 13.5-4.1 0-8-3.9-8-8s3.9-8 8-8c1.9 0 4 .9 5.5 2.5zm32 0c5 4.9 1.5 13.5-5.5 13.5-4.1 0-8-3.9-8-8s3.9-8 8-8c1.9 0 4 .9 5.5 2.5zm-240 32c5 4.9 1.5 13.5-5.5 13.5-1.9 0-4-.9-5.5-2.5-1.6-1.5-2.5-3.6-2.5-5.5s.9-4 2.5-5.5c1.5-1.6 3.6-2.5 5.5-2.5s4 .9 5.5 2.5zm32 0c5 4.9 1.5 13.5-5.5 13.5-1.9 0-4-.9-5.5-2.5-1.6-1.5-2.5-3.6-2.5-5.5s.9-4 2.5-5.5c1.5-1.6 3.6-2.5 5.5-2.5s4 .9 5.5 2.5zm32 0c5 4.9 1.5 13.5-5.5 13.5-1.9 0-4-.9-5.5-2.5-1.6-1.5-2.5-3.6-2.5-5.5s.9-4 2.5-5.5c1.5-1.6 3.6-2.5 5.5-2.5s4 .9 5.5 2.5zm112 0c5 4.9 1.5 13.5-5.5 13.5-4.1 0-8-3.9-8-8s3.9-8 8-8c1.9 0 4 .9 5.5 2.5zm32 0c5 4.9 1.5 13.5-5.5 13.5-4.1 0-8-3.9-8-8s3.9-8 8-8c1.9 0 4 .9 5.5 2.5zm32 0c5 4.9 1.5 13.5-5.5 13.5-4.1 0-8-3.9-8-8s3.9-8 8-8c1.9 0 4 .9 5.5 2.5z"/><path d="M250.5 242.5l-2.5 2.4v230.2l2.5 2.4c3.2 3.3 7.8 3.3 11 0l2.5-2.4V244.9l-2.5-2.4c-1.5-1.6-3.6-2.5-5.5-2.5s-4 .9-5.5 2.5z"/></g></svg>