<svg xmlns="http://www.w3.org/2000/svg" viewBox="0 0 512 512" height="682.667" width="682.667" version="1.0"><g fill="#f2f2f2"><path d="M80.967 73.634c-3.325 1.029-9.578 6.649-11.399 10.37-3.087 5.936-1.662 11.794 4.275 17.81l3.641 3.642v5.778c0 8.866 2.058 12.666 8.312 15.516 3.879 1.82 7.837 1.9 12.27.316 5.54-1.979 6.728-1.583 10.29 2.85 1.742 2.216 3.167 4.591 3.246 5.304.079.791.158 5.62.237 10.845.08 8.945.238 9.815 2.613 14.882 3.403 7.045 9.42 13.378 15.99 16.623 6.966 3.404 13.853 3.483 24.46.158 8.866-2.691 9.5-2.533 16.386 4.987 5.541 6.017 5.462 6.73-1.583 12.824-4.433 3.8-4.987 4.037-7.916 3.642-12.19-1.821-15.99-1.346-20.502 2.612-6.57 5.779-4.592 18.523 3.72 23.352 3.72 2.217 7.283 2.612 14.249 1.662l4.591-.633 3.404 3.325c1.9 1.82 5.145 4.433 7.283 5.858 4.828 3.166 5.224 5.224 1.979 10.528-8.55 14.09-5.462 32.851 7.44 45.912 2.771 2.771 6.73 5.78 9.5 7.125 4.354 2.058 5.462 2.295 13.061 2.295 7.441 0 8.866-.237 13.457-2.295 6.175-2.692 10.45-3.404 11.637-1.9.475.554 2.375 3.958 4.195 7.52l3.404 6.57-1.741 4.512c-2.692 6.967-3.325 11.479-2.375 16.624 1.583 8.628 7.282 16.465 14.486 19.948 6.174 3.008 12.982 1.583 13.378-2.85 0-.87-2.296-6.411-5.225-12.27-7.44-14.802-8.786-20.502-8.232-35.463.475-12.19 2.375-21.769 4.987-24.618 2.454-2.771 9.42-1.663 11.795 1.9 1.108 1.82 1.108 2.533-.475 9.34-2.454 10.687-2.454 22.165 0 30.002 4.116 13.299 13.853 28.022 27.547 41.717 5.62 5.62 8.391 6.491 9.737 2.929 1.029-2.692 1.029-16.307-.08-23.669-1.107-7.124-.158-9.262 4.75-10.766 6.966-2.058 8.787.238 10.37 13.062 1.9 14.644.159 31.268-5.145 50.741-4.987 18.128-4.433 18.523 11.874 8.47 3.879-2.375 8.232-4.829 9.657-5.462 2.375-.95 2.77-.87 4.196.554 1.425 1.425 1.583 2.612 1.583 12.428 0 11.32.792 14.645 3.325 15.12.712.158 4.116-2.217 7.757-5.541 12.824-11.479 15.04-12.745 16.624-9.183.475 1.03 1.266 5.7 1.9 10.45 1.187 9.26 2.454 11.873 5.066 10.29.712-.475 4.591-5.066 8.55-10.212 3.878-5.145 7.678-9.736 8.39-10.132 2.691-1.742 4.908 0 9.34 7.362 4.83 7.995 6.571 9.182 9.183 6.095 2.692-3.166 18.92-53.195 20.582-63.565.712-4.591-.475-6.175-6.095-8.233-6.254-2.216-12.508-7.916-15.04-13.694-2.455-5.542-2.534-14.328-.16-19.632 3.8-8.39 10.846-13.457 20.978-15.04 7.837-1.188 8.074-1.425 7.52-8.233-1.029-13.695-9.182-30.476-20.74-42.984-12.507-13.457-28.576-22.323-47.654-26.36-9.261-1.9-9.736-2.137-10.607-4.433-1.346-3.562-.87-7.282 1.267-9.34 2.216-2.296 3.878-2.375 12.111-.713 17.653 3.562 33.405 11.24 47.654 23.035 7.045 5.937 9.42 6.333 13.774 2.613 8.787-7.758 7.916-23.273-1.742-30.635-4.828-3.641-8.865-4.591-15.12-3.483-6.49 1.187-6.965.792-8.865-8.074-4.275-20.186-18.128-34.751-37.917-39.818-4.117-1.029-7.046-1.187-14.724-.791l-9.658.554-1.82-2.375c-1.03-1.266-2.85-3.72-4.037-5.462-6.017-8.628-21.848-13.932-36.414-12.032-11.636 1.425-18.84 4.829-26.914 12.349-2.454 2.375-5.145 4.274-5.937 4.274-2.296 0-13.536-3.958-15.278-5.382-1.029-.871-2.454-4.038-3.641-8.47-2.85-9.975-6.096-15.674-12.982-22.64-9.816-9.816-20.186-14.17-34.197-14.17-13.14 0-22.957 3.958-33.485 13.537-6.412 5.857-8.312 6.49-12.27 4.116-2.454-1.425-3.324-2.77-5.145-8.154-4.116-11.794-12.507-18.206-23.827-18.206-6.887 0-11.24 1.425-16.544 5.54-7.441 5.78-11.32 3.484-12.27-7.044-.475-5.067-1.03-7.046-2.692-9.42-3.72-5.383-11.636-8.312-17.573-6.491zm242.862 141.458c1.583 1.425 1.979 7.916.633 10.449-.396.791-3.879 2.77-7.678 4.433-7.758 3.324-15.2 7.678-21.294 12.349-5.225 4.037-7.996 4.116-11.32.316-3.246-3.72-3.246-6.65 0-9.895 3.245-3.245 12.428-9.42 18.919-12.665 12.111-6.175 17.89-7.6 20.74-4.987zm43.775 72.59c5.7 2.611 11.478 8.073 14.328 13.694 2.058 4.195 2.296 5.303 2.296 12.507 0 7.045-.238 8.39-2.217 12.349-5.937 12.27-20.819 19.077-33.405 15.357-11.32-3.246-19.078-11.795-20.898-23.036-2.375-14.882 7.124-29.051 21.848-32.772 4.828-1.187 13.22-.316 18.048 1.9zm29.289 56.836c1.425 3.483 6.887 33.326 6.57 36.097-.396 3.64-2.77 4.116-14.723 2.85-11.241-1.188-13.22-1.742-14.012-4.275-.633-2.058 13.774-31.268 17.653-35.86 1.82-2.058 3.245-1.662 4.512 1.188z"/><path d="M269.446 103.002c-1.346.316-3.641 1.9-5.145 3.483-2.296 2.375-2.692 3.404-3.008 7.282-.238 3.8 0 5.067 1.583 7.283.95 1.504 2.77 3.404 3.958 4.354 2.929 2.058 8.866 2.137 12.586 0 2.93-1.662 6.254-7.283 6.254-10.607 0-3.88-3.325-8.945-7.125-10.924-3.72-1.821-5.303-1.98-9.103-.871zM84.133 139.257c-7.045 4.274-3.72 15.12 4.592 15.12 6.412 0 10.37-7.125 6.966-12.508-2.613-4.195-7.204-5.224-11.558-2.612zm111.695 181.671c-3.008 1.346-7.204 5.779-8.233 8.629-1.267 3.403-1.03 9.261.633 12.823 5.304 11.795 22.402 12.033 28.419.396 2.691-5.224 2.216-12.27-1.109-16.307-4.116-5.066-6.174-6.174-12.032-6.412-3.325-.158-6.174.159-7.678.871z"/></g></svg>