<svg version="1.0" xmlns="http://www.w3.org/2000/svg" width="682.667" height="682.667" viewBox="0 0 512 512"><path d="M180.5 23c-69.1 5.1-130.2 49.2-150 108.5-5.9 17.5-6.4 27.1-1.3 24.4 1.3-.6 4.4-3.1 7-5.5 19.1-17.7 45.1-22.5 63.4-11.8 5.2 3.1 13.6 11.8 16.2 17 3.2 6.3 5.2 14.2 5.8 23.4.7 8.3 1.7 12 3.3 12 .4 0 3.7-1.9 7.2-4.2 10.1-6.6 17.8-9 28.4-9.1 25.2-.2 48.3 17.1 52.5 39.3 1.8 9.7.4 14.8-7.3 26.5-2.3 3.5-5.4 8.4-6.9 10.8-2.2 3.9-3.3 4.7-6.5 5.2-12.4 1.9-16.4 3-21.6 5.7-13.5 7.2-22.2 24-20.3 39 .4 3.1.2 5.9-.7 8-.8 1.9-8 9.6-16.3 17.7-20.8 20-21.9 22.1-11.5 22.1 8.5-.1 60.9-7.6 62.6-9 2.8-2.3 1.6-6.3-5.1-16.5-10.6-16.3-12.8-27.7-7.2-37.6 2.5-4.5 8.3-8.4 13.8-9.4 5.4-1 8.3 1.9 10.4 10.2 2.9 11.4 7.2 18.9 16.9 29 10.1 10.6 10.4 11.7 5.6 21.1-3.7 7.5-11.7 15.1-20.3 19.1-3.4 1.7-15.9 5.7-27.7 9-24.7 6.9-35.1 11-46.6 18.7-33.2 22.1-38.8 59.7-12.8 86.6 13.1 13.6 32.7 20.7 49 17.9 10-1.8 16.6-4.6 25.7-11.2 10.7-7.6 12.5-7.6 20.3-.8 3.2 2.7 6.9 5.7 8.2 6.6 2.3 1.5 2.6 1.5 4.3-.3 5.4-5.4 5.4-52.7 0-79.4-2-10-3.8-12.7-7-11-.9.5-4.8 5.1-8.6 10.2-8.6 11.7-23.2 26.9-34.9 36.3-10.5 8.4-11.9 9.9-11.2 11.9.3.8 3.7 2.4 7.6 3.6 6.4 1.9 10.1 4 10.1 5.8 0 2.1-3.5 5.2-8.2 7.3-4.2 1.9-7 2.4-13.8 2.4-7.5 0-9.3-.4-15.2-3.2-9-4.2-16-11-20.1-19.2-2.9-5.9-3.2-7.4-3.2-15.6 0-7.3.4-9.8 2.2-13 5.1-9.6 13.9-17.8 25-23.4 8.9-4.4 14.2-6.3 36.3-12.6 35.6-10.1 48.9-18.9 58.5-38.9 2.5-5.3 5.4-10 6.5-10.6 1-.5 4-1 6.6-1 2.7 0 9.2-.7 14.6-1.6 11.9-2 12.7-1.6 19.4 8.7 8.6 13.2 10.5 20.9 7.1 27.6-2.9 5.5-9.6 9.1-29.9 15.9-10.4 3.5-19.6 6.8-20.4 7.5-3.7 3.1-1.9 5.6 19.2 26.2 11.3 11.1 21.6 20.6 23 21.2 5 1.9 5.1-.2 1.3-24.3-2.4-15-2.1-15.8 7.6-22.3 8.8-5.8 15.8-13.5 17.9-19.6 4-11.7 1-25.8-8.8-41.2-3-4.7-5.7-9.7-6.1-11.1-.5-2 .8-4.7 6.3-13.1 11.7-17.6 20.3-23.4 34.7-23.4 9.8 0 16.7 3 24.2 10.5 9.4 9.4 13.3 20.8 13.3 39.2 0 12 .1 12.4 3.9 11.8.8-.1 4-1.9 7-3.9 8.5-5.8 13.6-8.1 21.3-9.7 14.4-3 26.9 2.3 35.9 15.2 4.3 6.3 6.8 13.6 8.5 24.8.8 5.6 2 10.5 2.5 11.1 2.9 2.8 11.8-14.4 21.1-41 25.2-71.4 24.5-144.3-1.8-196.6-8.5-17-24.1-36.7-38.1-48.2-8.3-6.7-11.4-8.1-13.9-6.3-1.5 1.2-1.9 3.7-2.5 18.7-.4 9.6-1.4 21.2-2.3 25.9-8.1 44.9-31.2 72.8-65.3 79-7.7 1.3-11.8.1-10.7-3.3.4-1.2 1.7-3.6 3-5.3 3.8-4.9 6.3-11.6 7.4-19.5.9-6.2 1.8-8.5 5.6-14.2 8.2-12.3 11.4-24.8 9.5-36.7-1.3-8.1-4.9-15.4-7.7-15.8-1.9-.3-2.4.6-3.9 7-2.2 9-5.8 16.9-9.8 21.5-4.6 5.3-6.7 5.7-14.1 2.9-9.1-3.5-14.6-4.1-23.2-2.6-7.1 1.2-7.7 1.2-10.2-.7-6.3-4.7-8.7-19.8-5.3-33.3 2.7-10.9 2.7-12-.3-12-6 0-17.4 13.1-20.9 24-2.4 7.4-3.2 18.2-1.8 25 .6 3.1 3.2 9.8 5.6 15 3.8 8 4.5 10.5 4.5 15.6 0 11.5-3.7 12.2-13.8 2.3C252 175 244.6 163.6 240 150c-3.1-9.2-3.9-27-1.6-37.2 4.3-19.5 17.8-37.9 37.6-51.4 7.1-4.9 9.3-8.2 7.4-11.2-1.6-2.5-16.4-10.9-26.9-15.3-22.6-9.4-50.5-13.8-76-11.9z" fill="#f2f2f2"/></svg>