<svg version="1.0" xmlns="http://www.w3.org/2000/svg" width="682.667" height="682.667" viewBox="0 0 512 512"><g fill="#f2f2f2"><path d="M77.9 42.1c-4.2 4.5-11.1 15.2-15.7 24.4-22.9 45.8-19.4 100.6 8.9 138.5 9.8 13.2 24.4 25.7 40.9 35.2 7.8 4.5 8.1 5.2 9.5 20.6 3 31.6 12.7 62.1 31.1 98.2 24.2 47.6 60.9 93.9 89.9 113.6 7.6 5.2 9.3 5.9 13.5 5.9 4.2 0 5.9-.7 13.6-6 11.4-7.6 32.9-28.9 46.3-45.9 42.1-53 69.7-114.4 74.6-165.8 1.5-16 1.4-15.9 12-22.1 16.2-9.3 32.5-24.4 41.7-38.2 25.8-39.2 27.6-90.8 4.7-135.7-6.2-12-14.2-23.5-17.5-25-4.7-2.2-4.9-.9-5 28 0 28.3-.8 35.3-5.4 47.5-6.2 16.5-22.6 33.1-43.3 44.1-7.7 4-9.9 4.3-15.6 2-5-2-6.8-1.1-11.9 5.9-4.6 6.1-11.7 12.9-15.9 15.1-1.7.8-5.9 2-9.5 2.7-14.9 2.7-34.3-5.6-41.4-17.7-5.5-9.4-5-15.4 2.1-23.4 5.8-6.6 6.8-8.5 5.6-10.9-1.4-2.4-2.4-2.8-12.8-4.2-10.5-1.4-45.7-.6-52.1 1.2-4.9 1.3-6.8 3.9-5.2 6.9.6 1.1 3.1 4.3 5.5 7 7.1 8 7.6 14 2.1 23.4-6.6 11.3-25.2 19.9-39.5 18.1-10.6-1.3-18.8-6.8-27.3-18.2-5.1-7-6.9-7.9-11.9-5.9-5.7 2.3-7.9 2-15.6-2-20.7-11-37.1-27.6-43.3-44.1-4.6-12.2-5.4-19.2-5.4-47.3-.1-14.6-.5-27.1-.9-27.8-1.3-2-3.7-1.4-6.8 1.9zm82.4 159.1c.9.7 4.4 6.4 7.7 12.6 7.3 14 14.5 24.2 25.6 36.6 9.6 10.9 18.5 18.2 21 17.2 2.4-.9 1.4-4.7-6.1-23.9-3.6-9.1-6.5-17.5-6.5-18.6 0-2.9 3.2-5.8 7.7-7 6.8-1.9 7.3-1.1 22.4 36.2 7.6 18.9 14.6 34.8 15.9 36.2 2 2.1 3.3 2.5 8 2.5s6-.4 8-2.5c1.3-1.4 8.3-17.3 15.9-36.2 15.1-37.3 15.6-38.1 22.4-36.2 4.5 1.2 7.7 4.1 7.7 7 0 1.1-2.9 9.5-6.5 18.6-7.5 19.2-8.5 23-6.1 23.9 3.9 1.5 22.3-16.7 35.2-34.8 3.3-4.7 8.6-13.5 11.8-19.7 6-11.5 8.8-14.4 11.1-11.9 1.9 1.9 3.6 7.9 12.6 43.8 9.3 37.2 9.7 40.9 5.4 48.9-6.4 11.7-20.8 18.8-46 22.7-5.5.8-10.9 2.1-12.1 2.9-2.2 1.4-11.6 18.9-12.8 23.6-.8 3.5 1.3 5.2 5.1 4.3 1.5-.4 9-3.1 16.6-6.1 7.5-2.9 14.6-5.3 15.7-5.3 7.3 0 6.3 19.4-1.9 36.5-7.3 15-23.1 33.5-39 45.6-8 6.1-24.7 14.4-31.9 15.8-12.9 2.7-24.3.8-38.7-6.4-21.3-10.5-44.2-33.7-54.6-55-8.3-17.3-9.2-36.5-1.7-36.5 1.1 0 8.1 2.4 15.7 5.3 7.5 3 14.8 5.7 16.3 6.1 3.8.9 5.9-1.5 4.8-5.3-1.5-5.3-10.2-21.2-12.4-22.6-1.2-.8-6.6-2.1-12.1-2.9-25.2-3.9-39.6-11-46-22.7-4.3-8-3.9-11.7 5.4-48.9 10.2-40.5 11.6-45 14-45 .4 0 1.5.6 2.4 1.2z"/><path d="M161.6 251.2c-.7 1.8-2.9 9.5-4.7 17.1l-3.4 13.8 2 3.7c2.6 4.8 10.6 8.8 23.3 11.4 11.2 2.4 32.3 3 34.3 1.1 2-2 .1-5.6-5.3-9.8-10.4-8.1-22.8-20.3-36.4-35.8-5-5.8-7.9-6.2-9.8-1.5zm179 1.4c-15.4 17.6-24.8 26.8-36.4 35.9-5.4 4.2-7.3 7.8-5.3 9.8 2 1.9 23.1 1.3 34.3-1.1 12.7-2.6 20.7-6.6 23.3-11.4l2-3.7-3.4-13.8c-1.8-7.6-4-15.3-4.7-17.1-1.9-4.7-4.8-4.2-9.8 1.4zm-107.2 63.7c-9.1 4.5-10.4 5.8-10.4 10.2 0 3.4 28.6 60.2 31 61.5 1.4.8 2.6.8 4 0 2.5-1.4 31-58.2 31-61.9 0-3.9-1.6-5.5-10-9.8l-7.5-3.8-14.5-.3-14.5-.3-9.1 4.4zm-38.7 49.4c-3.8 3.8 9.6 22.1 25.2 34.5 7.9 6.4 15.8 10.8 19.1 10.8 3.7 0 2.4-5.3-4.9-19.8-3.8-7.5-7.8-14.5-8.9-15.5-2-1.8-25.9-10.7-28.6-10.7-.7 0-1.6.3-1.9.7zm106.4 3.8c-6.8 2.5-13.3 5.2-14.4 6.2-1 1-5 8-8.8 15.5-9.6 19.3-9.2 23 2 17.3 11-5.5 26.3-19.8 34.2-31.9 4.1-6.3 4.9-10 2.3-11-2.2-.8-1.5-1-15.3 3.9zM171.6 95.8c-5.1 9.9-6.1 37.1-1.7 48.4 4.8 12.5 13 21.7 20.8 23.3 4.3.9 13.3-1.8 17.2-5.1 4.7-4 4.2-6.9-2.9-15.8-9.3-11.5-16.5-23.7-21-35.4-7-18.6-9.3-21.4-12.4-15.4zm163-.6c-.8 1.3-3.1 6.8-5.1 12.3-5.8 15.7-11.4 25.3-22.6 39.3-7 8.7-7.5 11.7-2.8 15.6 3.9 3.3 12.9 6 17.2 5.1 7.8-1.6 16-10.8 20.8-23.3 3.1-8 3.8-25.7 1.5-37.2-2.7-13.1-5.6-17-9-11.8z"/></g></svg>