<svg xmlns="http://www.w3.org/2000/svg" viewBox="0 0 512 512" height="682.667" width="682.667" version="1.0"><g fill="#f2f2f2"><path d="M365.505 68.19c-18.25 3.507-32.186 11.059-45.671 24.724-5.215 5.304-9.08 8.451-11.238 9.17-15.463 5.035-27.24 15.464-41.356 36.68-4.495 6.834-5.034 8.002-5.034 12.318 0 4.315.36 5.124 3.596 8.45 4.675 4.855 10.788 6.654 20.138 6.114 7.372-.45 10.16-1.618 20.049-7.911 3.056-1.978 8.72-4.585 12.586-5.844 16.453-5.215 28.59-.9 31.197 11.058 1.348 6.293 1.259 10.07-.36 19.42-2.607 14.654-6.832 22.116-12.766 22.116-1.618 0-8.54-1.529-15.284-3.507-77.137-21.666-152.207-3.955-216.488 51.245-8.81 7.552-27.15 25.983-34.253 34.523-27.331 32.546-47.56 71.474-50.886 97.816-.809 6.922-.809 8.72.27 10.968.72 1.438 1.708 2.607 2.158 2.607 1.168-.09 3.776-5.304 8.99-17.71 17.621-42.525 51.065-68.687 102.04-80.105 14.295-3.147 28.5-4.855 49.718-6.024 9.979-.539 18.88-1.348 19.778-1.888 1.529-.809 1.709-1.618 1.17-7.372-1.799-20.048-1.53-24.274 1.168-22.655 1.528.989 4.855 7.911 10.07 20.947 5.573 14.115 12.406 27.96 16.811 33.984 5.304 7.372 7.372 10.518 7.372 11.238 0 .45-1.798 2.877-3.866 5.574-2.157 2.607-4.585 6.023-5.484 7.642-7.282 14.204-6.383 54.212 2.697 113.009 4.495 29.128 4.675 29.488 17.711 30.027 4.585.18 14.025-.27 20.948-1.078 11.597-1.26 13.396-1.26 20.678 0 16.722 2.966 39.198-.45 45.221-6.923 2.518-2.787 2.428-5.125-.719-9.89-3.147-4.854-6.203-7.731-12.856-11.957-2.877-1.798-5.754-4.225-6.473-5.304-2.607-4.046-12.587-50.346-13.666-63.202-.719-8.9-.18-9.71 12.227-17.801 13.666-8.99 19.78-15.194 19.78-20.229 0-.988-.72-2.247-1.62-2.697-1.707-.899-31.376.81-33.174 1.978-.629.36-2.966 3.956-5.394 7.912-2.337 3.956-6.922 10.518-10.159 14.474-9.26 11.418-10.788 14.025-10.788 18.43 0 6.563 2.607 29.399 5.484 48.099 2.967 19.24 3.056 22.566.54 23.015-2.248.45-12.767-7.372-13.936-10.339-2.967-7.192-12.137-50.256-13.306-62.033-.809-8.541.18-10.699 7.283-15.913 14.924-10.968 24.813-26.432 28.41-44.592.449-2.697.898-12.317.898-21.397-.09-8.99.27-16.363.72-16.363 2.786 0 7.91 11.598 11.777 26.881 3.596 14.025 3.416 13.845 16.182 13.396 16.183-.72 17.532-1.978 15.014-15.104-1.798-9.44-1.978-12.856-.45-12.407.63.27 4.226 4.765 8.002 10.07 3.776 5.304 10.609 14.204 15.194 19.689 11.867 14.114 11.598 13.395 8.001 23.375-1.888 5.214-2.966 9.979-3.056 12.946 0 4.135.36 5.124 2.697 7.462 3.236 3.236 8.181 4.315 12.047 2.697 7.552-3.057 14.564-35.242 10.519-47.65-.81-2.606-2.967-6.832-4.675-9.44-1.798-2.606-3.057-5.573-2.877-6.472.18-.99 4.045-3.596 10.429-7.013 10.968-5.843 22.026-13.935 26.251-19.419 8.272-10.339 13.126-31.736 10.789-47.2-1.349-8.63-3.237-13.934-8.001-21.756-3.057-5.125-4.406-9.26-8.99-27.6-5.575-22.297-10.25-37.04-14.206-44.862-6.023-11.868-14.294-21.847-23.285-28.05-8.181-5.664-7.282-9.98 3.057-15.374 10.16-5.214 22.476-4.855 34.883 1.079 4.854 2.337 8.36 5.035 13.755 10.429 6.833 6.832 7.552 7.282 10.249 6.743 3.866-.72 6.923-4.316 6.923-8.182 0-1.708-1.709-6.383-4.226-11.328-5.844-11.687-16.273-22.296-27.24-27.69-4.226-2.068-9.89-4.315-12.587-5.124-7.103-1.888-23.285-2.428-31.107-.9zm-44.952 48.998c2.158 2.338 1.529 6.293-1.438 8.451-4.046 3.057-9.71.27-9.71-4.765 0-4.855 7.822-7.372 11.148-3.686zm-40.187 27.51c.72 1.889-2.337 5.125-4.585 4.765-1.079-.18-1.978-1.078-2.158-1.977-.629-3.237 5.574-5.754 6.743-2.787z"/><path d="M410.816 311.47c-4.315 2.338-10.608 8.271-10.608 10.07 0 .718 1.079 2.876 2.337 4.764 4.046 6.024 4.136 6.833 1.17 15.913-1.53 4.585-2.878 10.519-2.968 13.126-.09 4.226.18 5.125 2.428 6.923 2.877 2.517 8.091 3.686 11.328 2.607 3.236-1.169 5.663-5.215 9.08-15.374 2.607-7.642 3.057-10.069 3.057-17.8.09-8.002-.18-9.44-2.248-13.486-4.226-7.912-7.912-9.71-13.576-6.743z"/></g></svg>