<svg xmlns="http://www.w3.org/2000/svg" viewBox="0 0 512 512" height="682.667" width="682.667" version="1.0"><g fill="#f2f2f2"><path d="M171.383 64.021c-6.549 2.66-31.617 47.783-41.644 74.796-5.219 14.12-5.833 19.85-4.605 40.314 3.99 67.02 22.818 126.058 54.64 171.897 13.915 19.952 19.133 23.431 19.747 13.2.204-4.4-.512-7.163-4.195-15.86-2.456-5.833-5.526-13.711-6.753-17.395-2.456-7.367-3.889-9.004-12.381-14.427-11.87-7.571-13.711-11.869-7.776-17.803 4.4-4.4 8.083-4.502 13.608-.512 21.385 15.45 42.974 14.734 62.824-2.149 8.084-6.855 10.437-8.185 12.893-7.264 1.023.409 5.013 3.478 9.004 6.753 20.873 17.599 40.62 18.417 63.643 2.66 5.73-3.99 9.31-3.888 13.404.41 5.934 6.138 4.502 9.72-7.47 17.598-4.809 3.275-9.31 6.856-10.027 8.084-.614 1.125-2.865 6.753-4.911 12.38-2.149 5.628-5.014 13.097-6.549 16.678-3.376 8.084-3.376 15.86.103 16.372 4.91.716 25.477-28.343 37.346-52.695 20.567-42.156 31.208-84.005 34.687-136.904 1.432-20.669.92-25.17-3.786-38.78-6.446-18.928-27.831-60.368-37.45-72.544-4.706-6.037-6.036-6.241-21.486-2.763-26.604 5.833-34.38 6.651-67.736 6.651-33.561 0-42.77-.92-68.861-6.65-7.47-1.74-13.711-3.07-13.813-2.968-.103 0-1.228.41-2.456.921zm21.59 77.15c13.813 4.194 21.486 18.212 17.496 31.923-1.33 4.809-2.763 7.06-6.958 11.153-8.288 8.083-18.827 9.925-28.854 5.218-21.385-10.13-19.236-41.235 3.377-48.397 5.218-1.637 9.208-1.637 14.938.102zm141.405.101c10.642 3.172 17.804 12.995 17.804 24.455-.102 18.213-16.474 30.184-33.97 24.966-5.423-1.637-13.506-9.004-15.655-14.325-5.73-13.915 1.944-30.696 15.86-35.096 6.036-1.841 9.822-1.841 15.961 0zm-62.824 72.034c16.473 5.73 29.673 15.04 34.072 24.045 3.377 6.957 2.865 9.515-4.4 20.361-9.31 13.711-19.338 22.204-26.398 22.204-2.66 0-3.581-.819-13.608-12.074-3.889-4.297-6.753-4.195-10.744.41-10.948 12.687-12.483 13.506-19.85 9.72-7.367-3.786-20.26-18.93-24.761-28.957-2.354-5.423-1.74-9.004 2.762-15.45 5.219-7.572 21.999-17.6 35.505-21.283 8.8-2.353 18.827-2.046 27.422 1.024zM117.051 103.721c-7.265 4.81-42.463 37.551-70.396 65.178-30.696 30.491-28.547 26.808-26.91 46.35 5.218 62.518 31.412 107.743 70.6 122.068 11.358 4.093 14.632 3.99 17.19-.92 1.33-2.559 12.381-63.337 12.381-68.453 0-1.74-1.126-7.98-2.456-13.813-6.139-26.091-9.31-47.68-10.846-75.819-1.534-26.398-.716-30.593 10.949-58.22 7.367-17.701 7.264-21.692-.512-16.37zm272.682-2.149c-1.637 1.535-.409 5.935 5.423 19.543 10.13 24.25 10.744 26.706 10.54 45.737-.205 27.115-4.094 57.913-10.54 85.13-1.74 7.06-3.07 14.018-3.07 15.553 0 1.433 2.559 17.19 5.628 34.891 6.549 37.04 6.651 37.45 14.53 37.245 10.64-.307 26.5-9.21 39.802-22.409 15.962-15.757 27.729-37.96 34.584-65.484 4.4-17.6 7.572-46.863 5.832-53.411-.92-3.479-5.525-8.493-28.547-31.105-30.287-29.878-63.643-60.574-69.68-64.155-2.148-1.228-4.195-1.944-4.502-1.535z"/><path d="M230.421 324.63c-11.562 3.785-12.278 4.195-13.301 7.06-1.33 3.274 7.47 92.19 9.413 96.385.716 1.535 2.968 3.581 4.912 4.502 8.8 4.297 34.788 4.911 46.146 1.125 9.004-3.07 8.492-1.125 13.813-53.41 5.014-49.319 5.014-50.342.205-52.184-6.14-2.455-19.237-6.241-21.692-6.241-1.944 0-2.967.716-3.684 2.66-.614 1.433-1.023 14.734-1.023 30.185 0 26.193-.102 27.626-2.046 29.57-1.433 1.432-3.377 2.046-6.856 2.046-9.413 0-9.515-.409-9.515-33.254 0-16.78-.41-28.035-1.024-29.263-1.432-2.558-5.525-2.353-15.348.818z"/><path d="M138.947 330.257c-3.171 4.911-14.938 51.365-23.021 90.86-5.935 29.264-13.404 75.921-13.404 84.005 0 1.125 1.125 3.172 2.558 4.502l2.455 2.558h147.852c110.813 0 148.466-.307 150.513-1.228 1.432-.614 2.865-2.251 3.274-3.684 1.33-5.423-6.241-54.434-14.53-93.827-6.446-30.594-18.417-77.66-20.77-81.651-3.377-5.832-5.014-4.605-14.53 11.255-12.073 20.055-23.943 35.607-37.653 49.42-6.447 6.447-12.381 12.688-13.097 13.814-.717 1.125-2.047 8.185-2.968 15.757-1.739 15.45-3.58 19.85-9.822 24.25-12.79 8.8-48.295 11.153-69.475 4.604-7.777-2.456-14.837-7.879-17.088-13.2-.818-1.943-2.149-9.31-2.967-16.37-.921-7.674-2.149-13.916-3.07-15.45-.92-1.33-6.344-7.06-12.073-12.79-15.655-15.349-27.32-30.799-40.826-53.923-4.911-8.39-7.265-11.153-9.516-11.153-.204 0-1.023 1.023-1.842 2.251z"/></g></svg>