<svg xmlns="http://www.w3.org/2000/svg" version="1.0" width="682.667" height="682.667" viewBox="0 0 512 512"><path d="M368.7 93.722c-19.28 1.338-41.788 7.79-65.397 18.65-4.407 1.968-9.05 3.62-10.466 3.62-1.495 0-5.115-1.495-9.444-3.934-19.91-11.332-38.876-16.369-59.022-15.503-18.1.708-36.279 6.846-36.908 12.434-.236 1.731.944 2.754 8.735 8.027 18.572 12.512 29.59 27.937 29.669 41.709 0 2.675-.709 3.698-8.027 11.41-21.17 22.271-33.761 41.159-43.52 65.476-9.522 23.766-14.322 46.902-18.886 91.76-3.148 31.399-4.407 41.472-5.273 44.384-.63 1.967-4.958 6.768-15.582 17.313-18.808 18.572-26.678 29.196-31.478 42.26-2.99 8.263-3.62 14.008-2.046 17.785 1.967 4.722 3.698 4.25 14.322-3.856 9.208-7.083 15.346-10.86 22.193-13.693 6.61-2.755 9.6-5.116 12.197-9.601.945-1.731 2.204-2.99 3.07-2.99.787 0 2.754 1.888 4.643 4.406 2.833 3.856 4.17 4.88 10.073 7.634 3.698 1.731 12.434 6.374 19.359 10.388 14.008 8.105 16.133 8.971 18.1 6.925 4.8-4.722-9.129-33.76-28.094-58.707-6.217-8.106-6.768-9.837-4.643-14.008 2.911-5.588 24.395-37.774 32.265-48.32 30.77-41.158 66.026-72.4 115.054-101.753 5.902-3.542 11.174-6.926 11.725-7.634.63-.708.787-2.125.472-3.699-1.337-6.453-1.337-7.318.315-9.915.866-1.417 2.44-2.912 3.463-3.384 5.43-2.519 16.211 10.702 28.41 34.705 3.226 6.453 6.452 11.883 7.24 12.119 2.045.787 4.406-2.282 7.24-9.759 5.901-15.267 8.892-32.422 8.105-46.902-.315-7.004-.315-7.162 1.81-8.814 3.777-2.99 6.925-2.99 11.175-.236 4.328 2.911 4.879 2.911 14.873.865 14.716-3.069 28.646-8.105 43.755-15.818 13.93-7.161 16.133-9.68 13.772-15.503-.944-2.282-1.023-3.856-.55-6.138.865-3.62-.316-5.824-4.172-8.263-3.384-2.046-11.49-4.564-18.493-5.588-6.847-1.023-8.5-2.124-12.985-9.128-11.49-17.628-30.692-27.544-55.638-28.724-4.092-.158-9.208-.158-11.411 0zm44.07 40.764c1.259 1.18 1.967 2.833 1.967 4.329 0 2.833-2.99 6.295-5.43 6.295-4.88 0-8.106-4.407-6.374-8.656 1.81-4.329 6.531-5.352 9.837-1.968z" fill="#f2f2f2"/></svg>