<svg version="1.0" xmlns="http://www.w3.org/2000/svg" width="682.667" height="682.667" viewBox="0 0 512 512"><g fill="#f2f2f2"><path d="M244.3 20C187 25.8 134.6 76.5 108.9 150.9 97.3 184.5 92 217.5 92 256c0 66.6 18.2 127 52.1 173 9.9 13.5 30.5 33.4 43.1 41.7 44.1 29 93.5 29 137.6 0 12.6-8.3 33.2-28.2 43.1-41.7C401 384.2 420 322 420 259c0-15.6-.2-17.2-2-19-2-2-2-2-7.2.2-8.6 3.4-16.8 5-23.1 4.5-5.8-.5-11.2-3-10.2-4.7.3-.5 4.1-2.8 8.5-5.1 9.4-4.9 15.6-10.1 19.9-16.7 8.2-12.8 9.4-25 4.3-44.2-13.1-49-33.9-86.2-64.4-115.6-29.5-28.4-65.6-42-101.5-38.4zm14.3 20.3c2.5 2.2 2.7 2.9 3.5 15.2 4.8 74.8 6.2 218 2.9 313.5-1.8 53.4-4 97.9-5 100.5-1.5 4.1-5.2 4.9-15.9 3.6-36.1-4.4-70.5-29.3-95.3-69.4-7.4-11.8-18-34.3-22.7-48-10.1-29.3-15-57.3-15.8-90.2-.7-29.3-.3-30.1 11.2-25 11 4.8 24.5 5.7 30.2 2 3.2-2.2 2.2-3.2-7.4-8-14.4-7.1-22.7-18-26.1-34.3-1.6-7.8-1.6-8.6.1-16.9 4.4-21.5 18.1-55.1 30.5-75 16.1-26.1 37.5-46.9 59.7-58.3 13.5-6.8 30.3-11.5 43.2-11.9 3-.1 4.9.5 6.9 2.2zM360.1 131c7 2.1 13.9 7.1 13.9 10 0 1.6-1.2 1.9-8.7 2.5-15.1 1.3-25.5 6.6-33 16.9-9.9 13.7-10.7 14.3-13.2 9-1.6-3.6-1.4-15.3.5-20.7 2.8-8.1 11.3-16 20.4-18.8 4.6-1.4 13.7-.9 20.1 1.1zm19.4 32.9c4.7 2.1 10.8 8.5 13.1 13.8 5.4 12.8 1.1 32-9 39.6-8.2 6.3-15.1 8.5-41.6 13.3-28.4 5.1-37.1 8.4-49.3 18.6-6.6 5.4-8.4 5.9-9.3 2.3-1.8-7.3 3.6-19.3 11.4-25 6.1-4.5 12.1-6.8 32.2-12 9.1-2.4 19.3-5.4 22.7-6.8 21.6-8.8 27.2-23.6 13.8-36.7-2.5-2.4-4.5-5-4.5-5.8 0-.7 1.5-2 3.3-2.8 3.9-1.7 11.3-1.1 17.2 1.5zm-20 88.6c8.8 2.3 15.8 6 22 11.7 6.5 5.9 8.5 9.3 8.5 14.4 0 5.3-5.4 14.6-12 20.7-10.1 9.4-22.1 13.7-38.1 13.7-17.6 0-32.4-5.5-43.1-16.2-4.9-4.8-5.8-6.2-5.8-9.3 0-5.3 3.4-11.2 10.9-18.6 11.8-11.8 26.3-17.7 43.1-17.8 4.7-.1 11.3.6 14.5 1.4zm-67.3 61.1c11.4 11.7 18.3 17.2 29.2 23 15.3 8.1 30.3 10.3 46.1 6.5 4.4-1.1 8.3-1.7 8.7-1.5 1.9 1.2.4 4.5-3.9 8.6-8.5 7.8-19.4 11.8-32.8 11.8-26.1 0-48.6-16.6-57.5-42.6-2.7-7.8-2.7-15.4.1-15.4.4 0 4.9 4.3 10.1 9.6z"/><path d="M171.5 130.4c-8.6 2.7-15.5 7.5-15.5 10.7 0 1.4 1.4 1.8 8.3 2.4 16 1.3 25.7 6.3 33.9 17.6 8.6 11.7 9.1 12.2 11 10.7 4.2-3.1 4-17.5-.2-26.4-2.9-6-10.6-12.7-17-14.7-6.1-2-14.8-2.1-20.5-.3zm-16.7 31.9c-12 3.4-18.9 13.8-19.1 28.7-.1 9.6 2.2 16.5 7.5 22.4 7.6 8.7 15.5 11.7 44.5 17.1 29.3 5.4 39.3 9.2 51 19.5 6.1 5.3 7.7 5 8.1-1.7.6-10.6-6.7-20.7-19.1-26.3-3.4-1.5-14.3-4.9-24.2-7.4-25.1-6.5-37.5-12.9-42.1-21.7-3.5-6.8-.6-17.4 6.1-22.5 3.7-2.8 4.4-5.4 2.1-7.3-2.1-1.8-9.7-2.2-14.8-.8zm7 90.3c-14.9 3.6-30.8 16.7-30.8 25.4 0 4.5 5.9 14.9 11.8 20.6 6.1 6 16.4 11.5 25 13.3 7.7 1.6 22.6 1.3 30.1-.5 18.8-4.5 34.5-17.4 32.7-26.6-.9-4.5-8.8-15-14.8-19.8-6.9-5.5-17.2-10.7-25-12.5-7.8-1.8-21.4-1.8-29 .1zm74.1 61c-11.6 11.8-18.5 17.2-29.3 23-15.3 8.1-30.3 10.3-46.1 6.5-4.4-1.1-8.3-1.7-8.7-1.5-1.9 1.2-.5 4.1 4 8.4 8.3 8 19.1 12 32.7 12 23.3 0 43.6-12.9 54.1-34.5 4.1-8.5 4.8-10.7 4.8-16.3.1-3.8-.3-6.7-1-6.9-.6-.2-5.3 4-10.5 9.3z"/></g></svg>