<svg version="1.0" xmlns="http://www.w3.org/2000/svg" width="682.667" height="682.667" viewBox="0 0 512 512"><path d="M322.5 20.8c-1.6 1-7.9 6.5-13.8 12.2-14.4 13.8-14.4 14.3 1.8 15 11.7.5 12 .6 12.3 2.9.2 1.3-1 5.4-2.8 9.2-3.5 7.6-3.6 11.2-.4 11.7 1.1.2 7.1-1.8 13.2-4.3S345 63 346.5 63c3.3 0 5.7 4 8 12.9 10.3 40.9 5.5 83.7-13.1 115.4-8.3 14.3-23.9 28.4-35.7 32.3-6.2 2.1-7.9 1-13.7-8.7-2.4-4-8.4-12-13.5-17.8-12.1-14-14.7-18.1-14.3-22.2.3-2.8.8-3.4 3.8-4.2 5.8-1.5 10.1.6 20.4 9.7 5.2 4.6 10.3 8.7 11.5 9.1 4 1.2 14.9-6.5 13.8-9.9-.3-1.1-3.4-2.8-12.5-6.7-9.5-4.1-12.3-9.8-8.2-16.4 3.1-5 4.7-5.1 8.9-.5 4.2 4.7 5.9 4.9 9.1 1.5 3.4-3.6 5.6-3.1 10.5 2.1 3.7 4.1 4.4 4.5 6.3 3.5 1.2-.6 3.9-4.2 6.2-7.9 4.7-8 5.2-12.4 1.7-14.7-1.3-.8-15.6-6.9-31.7-13.6-16.1-6.6-30.9-12.8-32.9-13.8-2-1.1-12.4-9.1-23.1-17.9-10.7-8.9-21.1-17-23.2-18.2-3.5-2-3.9-2-4.5-.4-.3.9.2 3.8 1.1 6.5 3.3 9 1 9.8-13.8 4.4-16.6-6-17.7-4.2-5.2 8.5 10.9 11 10.9 11.2 3.5 19.7-10.3 11.7-14.3 23.2-14.3 40.8 0 17.2 3.4 31.1 12.6 52.3 5.8 13.3 5.6 14.8-1.1 14.6-6-.1-24.6-9.6-34.7-17.8C136.9 180.3 117 138.2 117 97c0-14.1.8-15.3 14.5-21.3C151.9 66.8 157 64 157 62c0-2.3-2.1-3.6-7.5-4.5-5.4-1-8.5-3.1-8.5-5.8 0-1.4 3-5.8 7.5-11.2 8-9.5 9.5-13.5 5.1-13.5-4.1 0-25.7 8-35.6 13.1C68.9 65.8 36.8 116 24 186.9c-5.6 31.7-7.1 76.6-3.6 112.1 5.5 56.4 21.9 115 38.5 137.7 5.5 7.6 7.5 5.2 5.5-6.2-.7-3.9-2.4-13.5-3.8-21.4-6.4-35.9-8.6-61.1-9.3-106.6-.9-62.8 3.5-110.3 14.3-154.5 6-24.2 15.6-50.4 20.5-55.6 2.7-2.9 4.8-3 10-.4 5.9 3 6.8 5.9 4 12.3-15.4 35.3-24.8 79.1-29.2 136.2-1.8 23.7-1.6 79.6.5 104.5 2.1 25.3 4.2 40.5 5.8 42.9 2.3 3.2 18.2 15.2 19.8 14.9 1.2-.3 1.6-2.1 1.8-8.6.2-7.2.5-8.2 2.1-8.2 1.1 0 4.2 2.8 7.3 6.7 21.5 26.5 49 42.6 76.7 44.9 15.2 1.2 38.5-4.9 58.9-15.7 6.3-3.2 12.4-5.9 13.7-5.9 3 0 6.5 4.4 6.5 8.3 0 2.3-1.1 4-4.9 7.4-3.1 2.8-5.9 6.6-7.7 10.6-2.5 5.4-2.8 7.4-2.9 15.8 0 9.2 1 12.9 3.6 12.9.5 0 2.5-2.4 4.4-5.4 3.6-5.7 8.7-10.6 11-10.6 2.7 0 3.4 3.3 2.3 11.5-1 8.6-.4 18 1.4 20.2.6.7 1.9 1.3 2.8 1.3 2.6 0 10-8.9 15.1-18.1 5.7-10.3 8.6-11.3 11.5-4.3.8 2 1.4 6.8 1.4 11.9 0 7.6.2 8.5 1.8 8.5 2.6 0 8.7-6.4 11.4-11.9 1.8-3.6 2.3-6.3 2.3-12.6 0-10.1-1.9-13.6-14-25.5-11.6-11.4-26.9-28-28.4-30.8-1.6-3.1.6-7.5 6.9-13.7 4-4 5.6-4.9 8.3-4.8 3.9.1 30.4 10.7 33 13.2 1.1 1.1 2.2 4.4 2.8 8.6 1.5 10.9 8.7 24.5 12.8 24.5 2.3 0 3.1-1.9 3.1-7.6 0-4.7 2-10.7 4-11.9 1.2-.7 5 2.1 5 3.8 0 2.3 8.3 17.7 11 20.2 6 5.7 8 1.5 8.9-18.5.6-13.8.7-14.5 2.7-14.8 3.1-.4 7.6 3.9 11.3 10.8 3.6 6.7 5.6 7.4 7.9 2.7 1.7-3.4 1.7-13.2.1-18.6-1.5-5.2-6.9-11.6-11.9-14.1-5.7-2.9-9.8-3.7-44.8-8.5-17.7-2.5-33.1-4.9-34.2-5.5-3.2-1.7-3.2-4.4-.1-12.1 7.2-18.4 10-31.3 11-51.5.7-13.9 1-15.5 3.4-19.7 5.1-8.6 13.2-11.7 22.2-8.3 9.8 3.8 19.9 19.6 25.1 39.1 2.7 10.3 4.2 13.2 6.6 12.2.8-.3 3.7-4.4 6.4-9.3 10.8-19.2 21.5-26 32.4-20.4 9.3 4.8 15.8 19.3 17.9 40.6 1.7 16.4 2.4 16.8 10.9 5.6 3.3-4.2 8.5-10.1 11.7-13l5.8-5.2-.6-7.8c-.9-11.6-7-46.4-12.1-69.4-12.6-56.2-28.6-103-50.3-146.5-11.4-23-11.5-23.3-9.9-25.8 2-3 7.3-6.5 10-6.5 3.7 0 8.5 7.2 18.9 28.2 36.8 74.4 59.9 166.4 67.3 268.7 1.5 21.4 5.1 20 10-3.9 7.3-36.2 7.3-88.2-.2-132.8-9.4-56.9-29.7-108.1-58-146.2-9.7-13.2-31.1-34.5-42.7-42.7-17.1-12-44-23.9-56.7-25-4.3-.3-6.2 0-8.5 1.5zm-50.1 115.3c5.8 2.7 5.5 11.5-.5 14-8.3 3.4-14.2-7.6-7.2-13.1 2.9-2.3 4.2-2.4 7.7-.9zm-56.9 163.4c7.8 3.2 14.2 12.4 15.2 22 .3 2.8 0 9.8-.6 15.5-3.9 33.1-16.6 52.2-39.4 59.2-9.8 2.9-25 2.2-35.7-1.7-19.9-7.3-36.1-21.7-45.5-40.5-5-9.9-3.3-15.8 5.9-21.1 3.9-2.2 6.4-2.9 10.6-2.9 8.4 0 14.6 3.4 25.6 14.1 11.1 10.7 11.9 10.7 12.9-.4 1.4-15.3 6.4-26.6 15.5-35.1 11.2-10.3 24.4-13.7 35.5-9.1z" fill="#f2f2f2"/></svg>