<svg xmlns="http://www.w3.org/2000/svg" viewBox="0 0 512 512" height="682.667" width="682.667" version="1.0"><g fill="#f2f2f2"><path d="M284.667 63.055c-.793.237-7.057 4.123-13.797 8.722-25.057 16.89-42.978 26.722-105.463 58.123-46.387 23.234-67.242 34.414-71.048 37.903-1.269 1.19-2.775 3.251-3.33 4.679-2.776 6.423.396 24.264 4.678 26.563 1.824.952 3.013-.158 11.974-11.1 12.132-14.829 37.585-34.098 68.67-51.86 32.352-18.555 68.193-35.445 117.276-55.427 8.564-3.489 16.097-6.82 16.732-7.533 1.665-1.665.238-3.568-3.648-4.758-15.462-4.757-19.824-5.788-22.044-5.312z"/><path d="M348.817 76.773c-8.485 1.348-18.634 4.678-39.648 13.083-112.678 44.881-180.95 85.956-199.665 120.132-13.083 23.789-.634 43.93 35.445 57.49 16.89 6.263 44.564 11.973 74.617 15.382 17.048 1.903 37.744 3.49 75.727 5.63 15.462.873 30.132 1.745 32.51 1.983 30.291 3.092 35.842 5.55 37.586 16.652.635 3.964-1.268 11.418-4.044 16.255-8.326 14.115-33.78 28.23-76.757 42.502-22.44 7.454-43.137 13.084-97.533 26.802-54.793 13.797-58.916 14.907-61.612 17.128-3.172 2.537-.714 3.806 9.277 4.837 27.198 2.775 91.269-3.093 137.974-12.767 84.925-17.524 140.907-45.594 154.15-77.392 4.202-9.991 4.519-22.916.871-32.828-7.295-19.586-34.572-34.81-78.66-43.691-21.093-4.282-35.207-6.027-89.92-11.419-40.68-3.965-52.494-7.057-57.41-15.066-5.234-8.485.555-19.665 15.383-29.656 17.841-12.053 57.092-27.516 102.687-40.44 15.145-4.362 17.603-4.838 24.264-4.838 37.03 0 71.445-10.387 86.907-26.246 4.679-4.758 6.423-8.01 6.106-10.864-.396-3.33-3.172-3.092-17.841 1.745-16.652 5.47-22.6 6.819-31.56 7.374-8.008.476-9.594-.317-9.99-4.916-.556-6.978.554-7.771 12.37-9.516 8.642-1.268 24.501-5.868 27.99-8.008 2.934-1.904 2.22-4.045-2.22-6.265-5.947-3.013-26.326-9.594-35.603-11.498-9.436-1.903-24.344-2.616-31.401-1.585zm8.326 14.986c4.044 2.141 6.502 6.661 6.106 11.419-.397 4.837-2.38 7.612-7.137 9.991-4.361 2.14-7.533 1.903-11.736-.952-9.832-6.581-5.075-21.964 6.82-21.964 1.744 0 4.44.634 5.947 1.506z"/><path d="M221.39 206.42c-3.251 2.22-4.6 4.203-4.6 6.66 0 4.124 10.388 6.186 50.75 9.992 50.828 4.837 74.616 8.247 97.294 13.877 30.212 7.453 47.815 15.938 62.564 30.21 4.044 3.886 7.613 7.058 8.009 7.058 1.744 0 2.617-2.22 2.617-6.343-.08-5.948-1.983-16.335-3.49-18.555-2.14-3.252-22.678-10.864-45.039-16.652-22.757-5.868-47.973-10.547-103.718-19.11-18.555-2.855-38.458-6.027-44.326-7.137-13.56-2.538-16.334-2.538-20.061 0zm96.105 118.467c-11.577 3.885-29.26 9.912-39.25 13.4-52.415 18.16-91.031 27.833-134.802 33.86-8.247 1.11-17.762 2.775-21.013 3.647-15.542 4.203-26.089 11.974-39.807 29.577-4.599 5.947-4.916 8.326-1.268 11.022 4.757 3.49 13.163 5.868 15.78 4.44 1.506-.792 1.585-1.268 1.11-5.154-.397-3.568-.238-4.995 1.189-7.77 4.044-8.485 9.912-10.467 85.639-29.419 78.74-19.824 112.043-30.211 138.052-43.295 12.767-6.344 21.33-12.766 21.33-15.938 0-2.696-5.55-1.507-26.96 5.63z"/></g></svg>