<svg xmlns="http://www.w3.org/2000/svg" version="1.0" width="682.667" height="682.667" viewBox="0 0 512 512"><path d="M119.5 66.5c-11 2.9-20.5 6.8-35.2 14.5-13.5 7.1-26.4 15.5-31.6 20.5-6.5 6.3-3.7 6.4 14.6.6 24.1-7.6 33.6-9.4 48.2-8.9 10.2.4 12.9.9 18.2 3.1 7.9 3.4 10.3 3.4 13.4-.1 4.8-5.1 15.9-22.1 15.9-24.1 0-7.3-25-10.5-43.5-5.6zm240.4-1.1c-6.8 1.4-10.9 4-10.9 6.7 0 1.1 3.7 7.4 8.3 14 9.2 13.4 10.5 14.2 17.7 11.5 9.1-3.6 14.6-4.6 24.5-4.6 12.5 0 24.1 2.4 45.3 9.1 18.2 5.8 21 5.7 14.5-.6-8.2-7.9-35.1-23.5-52.7-30.5-16.8-6.6-33-8.6-46.7-5.6zm-162.3.4c-3.8.5-12 8.9-22.5 23-10.6 14.1-18.9 27.8-28.9 47-9.8 19.1-10.1 20.5-8.3 42.7 1.5 17.9 4.2 30.2 8.6 39.1 2.9 6 5.1 8.6 14.6 17.2 8.1 7.3 12.7 10.7 16.3 12.1 3.1 1.1 5.6 2.8 6.3 4.2.9 1.7 1.3 9.3 1.3 26.2 0 28 .1 28.5 8.7 32.4 6.9 3.2 9.6 2.3 11.4-3.8 1.1-3.6 1-5.8-1.4-17.8-3.4-17.4-3.5-20.6-.3-22.6 3.3-2.2 8.9-3 11.4-1.6 2.8 1.5 3.2 3.1 10.3 38.8 6.3 31.7 7.5 35.7 12.3 38.8 8.7 5.7 28.5 5.7 37.2 0 4.8-3.1 6-7.1 12.3-38.8 7.1-35.7 7.5-37.3 10.3-38.8 2.5-1.4 8.1-.6 11.4 1.6 3.2 2 3.1 5.2-.3 22.6-2.4 12-2.5 14.2-1.4 17.8 1.8 6.1 4.5 7 11.4 3.8 8.6-3.9 8.7-4.4 8.7-32.1 0-12.9.4-24.6.9-25.9.9-2.4 3.8-3.9 9.6-5.2 1.9-.4 6.7-4.4 13.8-11.3 12.6-12.4 16.5-19.2 19.7-33.8 2.3-10.7 4.4-35.5 3.7-43.4-1.1-12.6-26.5-56.3-46.5-80.2-10.4-12.4-10.6-12.5-28.9-10.7-18.6 1.8-66.7 1.6-85.3-.2-7.4-.8-14.8-1.2-16.4-1.1zm26.6 34.6c19.8 7.5 43.8 7.5 63.7 0 8.6-3.2 11.9-2.9 14.8 1.5 2.9 4.3 2.9 8.4.1 11-5.3 5-31.2 11.1-46.8 11.1-15.6 0-41.5-6.1-46.8-11.1-2.4-2.2-2.8-5.8-1.1-9.2 3.4-6.4 6.2-7 16.1-3.3zm-11.7 67.1c8.7 1.8 22.5 8.5 25.9 12.6 3.2 3.8 3.3 6.8.4 10.5-2.2 2.7-2.3 4-2.8 23.4-.6 21-1.3 25-5.1 27.3-2.1 1.3-7.8.1-10.8-2.2l-2.5-1.9-.1-21.8c-.1-28.9-.2-29.2-16.4-31.4-9.7-1.3-19.2-.2-30.6 3.5-6.9 2.2-7.9 2.3-10.4 1-4.8-2.5-7.2-7.6-5.5-12 1.4-3.5 16.3-9.2 28.4-10.8 5.7-.8 22 .2 29.5 1.8zm126.3 0c7.4 1.8 17.7 6.8 18.6 9 1.7 4.4-.7 9.5-5.5 12-2.5 1.3-3.5 1.2-10.4-1-11.4-3.8-20.9-4.8-30.7-3.5-16.1 2.2-16.2 2.5-16.3 31.3l-.1 21.9-2.4 1.9c-3.1 2.3-8.8 3.5-10.9 2.2-3.8-2.3-4.5-6.3-5.1-27.3-.5-19.4-.6-20.7-2.7-23.4-4.6-5.8-1.7-11 9.4-16.9 15.4-8 37.8-10.5 56.1-6.2zm-135.3 27.1c4.4 1.7 6 11.7 2.4 15-1.8 1.6-3.7 1.9-13.3 1.9-9.2 0-11.7-.3-14-1.9-2.6-1.7-2.8-2.2-2.4-6.7.8-8 2.2-8.9 14.9-8.9 5.9 0 11.5.3 12.4.6zm130 1.4c1 1.1 2 4.1 2.3 6.9.4 4.5.2 5-2.4 6.7-2.3 1.6-4.8 1.9-14 1.9-12.9 0-15.4-1.2-15.4-7.2 0-3.7 2.2-8.8 4.2-9.6.7-.3 6.3-.6 12.4-.6 9.9-.1 11.3.1 12.9 1.9zM96 112.6c-14.8 3.3-32.8 9.7-52.1 18.7-11.3 5.2-13.9 7.5-13.9 11.8 0 10.6 34.8 81.4 53.9 109.8 10.4 15.3 13 16.3 24.1 8.7 8.2-5.6 21.5-19.2 23.5-24 1.5-3.4 1.4-3.9-2-12-6.8-16.4-9.6-33.9-9.9-60.2l-.1-17.1 6.3-12.5c8.2-16.6 8.1-19.4-1.1-23.3-4.6-1.9-19.6-1.9-28.7.1zm291 0c-8.9 3.9-9 6.7-.7 23.2l6.2 12.5-.1 17.1c-.2 26.2-3.1 43.8-9.9 60.2-3.4 8.1-3.5 8.6-2 12 2 4.8 15.3 18.4 23.5 24 7.8 5.3 11.8 5.9 15.6 2.3 14.3-13.2 63.3-109 62.2-121.6-.3-3.2-.9-4.1-4.8-6.5-12.1-7.4-46.2-20.2-61.9-23.2-10.5-2-23.5-2-28.1 0zM149.6 254.9c-1.9 2.1-5.3 17.3-9.2 41.6-2.3 14-2.7 20.4-2.8 36.2-.1 16.9.1 19.4 1.6 20.9 1.6 1.7 1.8 1.7 3.8-.1 2.7-2.4 10.5-16.1 17.7-31.1l5.8-11.9.3-19.4c.2-10.7.1-21-.3-22.9-.7-3.7-7.2-11.5-11.6-13.8-3.5-1.8-3.3-1.8-5.3.5zm201.9 6.2c-2.6 2.4-5 5.7-5.6 7.8-.7 2.2-.9 10.9-.7 22.7l.3 19.1 8.2 16.4c12.4 24.8 16.8 30.6 19.9 26.4 1.3-1.7 1.5-4.8 1.1-19-.5-17.4-1.5-24.7-6.8-48.5-4.2-19.1-6.6-26.8-8.9-28-2.6-1.4-2.6-1.4-7.5 3.1zm-171.8 66c-.9.6-3.5 4.6-5.7 8.9-18 35.8-40.1 66.8-66.4 93.2-13.8 13.8-15.8 17-11.5 18.3 5.2 1.7 19.7-2.8 29.6-9.1 7.8-4.9 19.5-17.1 26.9-27.9 9-13.3 15.3-24.4 28.6-50.2 13.4-26.2 13.9-28 7.9-32-3.7-2.5-6.6-2.8-9.4-1.2zm145.3 0c-4 1.6-6 4-6 7.2 0 3.1 18.8 40.9 29 58.2 17.6 29.9 32.5 45.2 50.3 52 7.3 2.7 14.6 4 17.6 3 4.3-1.3 2.3-4.5-11.5-18.4-26.3-26.2-48.4-57.2-66.4-93.1-4.9-9.7-7.1-11.2-13-8.9zm-115.9 20c-1.1 1.2-6.2 10.4-11.2 20.3-17 33.6-29.9 54.6-41.1 67.1-10 11.1-10.1 11.4-7.2 30.3 2.1 13.2 3.3 45.8 8.7 48.2 10.7 4.7 43.2 8.6 50.9 6.1 2.3-.8 4-2.1 4.7-3.9.8-1.9 1.1-51.9.9-99.9-.3-60.5-.5-67.4-1.9-68.9-1.5-1.5-1.8-1.4-3.8.7zm89.7-.4c-1.8 2.2-2.5 164.3-.7 168.5.7 1.8 2.4 3.1 4.7 3.9 7.7 2.5 40.2-1.4 50.9-6.1 6.2-2.7 6.5-33.4 10.7-61 .8-4.9-.7-8.1-7.6-15.7-12.4-13.9-25.9-35.5-40.3-64.3-8.3-16.7-13.5-25.8-15.1-26.4-.7-.3-1.8.2-2.6 1.1zm-63.2 16.8c-2.2 2.2-2 6.1.4 8.5 9.8 9.8 42 6.4 42-4.4 0-4.2-2.5-5.8-7.9-4.9-2.5.4-8.9.8-14.1.8-5.2 0-11.6-.4-14.1-.8-3.7-.6-5-.5-6.3.8zm.2 31.6c-2.4 1.4-2.3 6.4.2 8.9 9.8 9.8 42 6.4 42-4.4 0-4.2-2.5-5.8-7.9-4.9-5.8 1-22.1 1-28.1.1-2.7-.5-5.2-.3-6.2.3zm-.3 32.3c-1.9 1.4-2 2.7-2 32.3v61l2.7 3.5c3.8 4.9 10.2 7.3 19.8 7.3 9.6 0 16-2.4 19.8-7.3l2.7-3.5v-61c0-29.6-.1-30.9-2-32.3-1.4-1.1-3.1-1.3-6.5-.7-5.8 1-22.2 1-28 0-3.4-.6-5.1-.4-6.5.7z" fill="#f2f2f2"/></svg>