<svg xmlns="http://www.w3.org/2000/svg" version="1.0" width="682.667" height="682.667" viewBox="0 0 512 512"><path d="M346.736 60.688c-23.838-.132-48.146 3.89-71.736 6.812-17.712 2.194-35.357 6.002-52.2 11.9-27.945 9.786-54.767 23.11-80 38.6-9.79 6.01-19.728 12.35-27.4 20.9-26.005 28.985-54.305 73.365-60.4 100-12.9 54.1 0 110.7 36.1 158.5C104.3 415 109.7 419 112 413c1-2.7 4-29.4 4-36.2 0-5.5-.8-7.1-8.1-15.5C97.2 348.9 89 335.1 89 329.6c0-3.6 3.4-6.6 8.5-7.5 4.7-.9 7 .5 11.2 7.2 14 22.2 29.9 37 63.1 58.9 9.5 6.3 17.9 12.5 18.8 13.8 1.4 2.2 1.4 2.7-.2 6-2.2 4.6-19.2 22.5-30.4 31.9-4.7 4-14 11.3-20.6 16.3-12.3 9.3-14.3 11.5-12.4 13.9 1.7 2 8.7 2.3 80.5 3.5 69.2 1.1 75.1.9 71.4-2.5-5.6-5.4-35.8-10.1-75.4-11.7-32-1.2-35.4-1.6-36.2-3.5-.8-2.2 1.7-4.5 13-11.4 24.9-15.5 51.7-38.4 51.7-44.3 0-5.2-14.4-24-29.7-38.8-10.8-10.5-22.1-19.3-35.1-27.2-9.5-5.8-12.5-9-11.6-12.1.4-1.2 3.4-5.9 6.9-10.6 19.4-26.4 35.4-54.6 41.5-72.8 1.6-4.8 4.5-16.6 6.5-26.2 4.1-19.7 5.4-23.3 8.6-25 2.7-1.5 8.7 0 11.3 2.9 2.1 2.3 1.9 5-1.4 19.6-5.2 22.2-1.9 60.2 6 70.2 1.1 1.5 11.1 11.1 22.3 21.5 11.1 10.4 21.2 20.3 22.5 22.1 1.2 1.8 4.3 9.6 6.7 17.3 5.7 18 7.3 19.6 11.5 11.3 1.2-2.2 3-4.1 4.3-4.4 1.4-.4 6.6 1.1 13.9 3.9 11.7 4.6 17.8 5.7 17.8 3.3 0-.7-2.6-4.4-5.7-8.1-7-8.1-10.3-12.6-10.3-13.8 0-1.4 3.8-4.1 8.1-5.7 9-3.4 5.6-5.6-11.4-7.7-7.2-.9-13.4-2.2-15.2-3.2-3.9-2.3-34.3-37.7-35.2-41-.3-1.5.4-5.4 2-10.2 3.6-10.6 4.9-19.6 4.5-32.2-.3-12.1.2-13.3 6.7-14.8 4.4-1 7.9.1 9.4 2.9.6 1.1 1.5 6.1 2.1 11.2.6 6.2 1.5 10.1 2.7 11.7 1.2 1.6 9 5.5 23.8 11.8 36.3 15.6 49.3 19.4 65.9 19.4 15.1 0 22.1-3.1 34.4-15 10.3-10.1 8.4-12.3-11.8-14.1-8.1-.7-21.6-1-33.5-.7-11 .3-20.6.3-21.3.1-1.9-.7-4.2-5.8-4.2-9.1 0-5.8 2.4-7.2 14-8.4 13.2-1.3 49.1-.4 62.5 1.6 15.4 2.4 18.2 2.2 21.5-1.4 4.4-4.7 13.7-24.4 16.5-35 9.6-35.6-1.2-73.5-28.8-101.1-12.5-12.5-29.492-22.809-47.06-27.33-12.059-3.103-24.418-4.312-36.904-4.382zm-8.647 26.45a36.509 36.509 0 0114.262 2.825c18.662 7.776 27.491 29.202 19.712 47.873-7.766 18.666-29.207 27.51-47.878 19.73-18.662-7.776-27.499-29.234-19.723-47.896 5.832-13.997 19.356-22.457 33.627-22.532zm-2.378 7.529c-7.133.037-13.885 4.268-16.803 11.27-3.89 9.337.512 20.063 9.848 23.954 9.337 3.89 20.07-.531 23.96-9.868 3.89-9.336-.536-20.052-9.872-23.942a18.262 18.262 0 00-7.133-1.414zm68.233 3.023c2.974-.016 6 .551 8.918 1.767v-.001c11.67 4.862 17.195 18.266 12.33 29.944-4.862 11.67-18.267 17.176-29.936 12.314-11.67-4.862-17.2-18.257-12.339-29.927 3.647-8.752 12.104-14.047 21.027-14.096zm-1.47 6.104a10.07 10.07 0 00-9.244 6.197c-2.138 5.132.29 11.027 5.42 13.164 5.13 2.138 11.026-.288 13.164-5.42 2.138-5.13-.289-11.026-5.42-13.164a10.034 10.034 0 00-3.92-.777zm6.361 27.438a4.031 4.031 0 00-3.696 2.475c-.852 2.045.128 4.391 2.174 5.244a3.997 3.997 0 005.235-2.157c.853-2.045-.103-4.402-2.149-5.254v.001a3.995 3.995 0 00-1.564-.309zm-62.927 6.812c-3.57.016-6.956 2.126-8.415 5.628-1.946 4.669.269 10.048 4.936 11.993 4.67 1.945 10.031-.277 11.977-4.946a9.148 9.148 0 00-4.93-11.968 9.151 9.151 0 00-3.568-.707zM209.596 275.35c-.826.049-1.756.668-2.797 1.85-.9 1-3.999 5.8-6.999 10.8-3 4.9-8.3 13.2-11.6 18.4-3.9 5.9-6.2 10.4-6.2 12.2 0 3 .6 3.6 16.5 16 10.8 8.4 35 32.8 40.9 41.2 8.8 12.3 13.6 21.7 13.6 26.3 0 3.7-.7 4.9-6.2 11.1-3.5 3.8-10.2 10.7-15 15.2-9.6 9-11.1 12.5-6.2 13.7 4.9 1.3 11.4-.4 22.8-5.9 19.1-9.2 29.9-17.5 34.2-26.3 2.7-5.4 2.7-5.9 1.5-11.8-1.6-7.8-7.8-21-13.7-29.3-9.7-13.5-25-26.8-45.6-39.5-13.1-8-13.4-8.6-11.9-19.6 2-14.4 2-15 1.1-23.4-.862-7.476-2.294-11.076-4.404-10.95zM365.162 293c-1.037.025-1.913.1-2.363.2-3.8.9-1.7 4.7 8.5 15.2 14.3 14.7 16.201 17.2 18.201 23.3 1 2.9 3.1 8.6 4.7 12.5 3.7 9 5.7 9.6 9 2.5 3.4-7 5.6-6.8 20.9 1.2 6.8 3.5 13.5 6.6 14.9 6.8 4.8.6 3.6-3.3-4-13.3-10.1-13.3-10.1-14.5-1-19.1 9.1-4.7 6.6-6-16.9-8.6-19.1-2.1-19-2.1-24.7-10.9-5.1-7.9-5.8-8.2-23.9-9.7-1.1-.1-2.3-.126-3.338-.1z" fill="#f2f2f2"/></svg>