<svg xmlns="http://www.w3.org/2000/svg" version="1.0" width="682.667" height="682.667" viewBox="0 0 512 512"><path d="M137.56 75.744c-.588-.045-4.04.615-7.624 1.406-7.473 1.642-11.4 3.394-17.547 7.833-22.36 16.225-38.086 53.91-40.48 97.198-2.137 38.03 5.791 73.395 21.996 98.127 7.077 10.852 14.412 18.394 24.219 25.093 18.746 12.722 39.495 16.38 62.313 11.064 20.543-4.828 35.259-14.802 46.873-31.916 9.758-14.444 14.84-30.78 15.662-50.67 2.4-57.548-35.205-130.01-78.62-151.479-9.589-4.74-15.607-6.22-26.793-6.656zm223.424 22.767c-11.185.436-17.204 1.915-26.793 6.656-43.415 21.47-81.018 93.932-78.618 151.481.822 19.889 5.903 36.225 15.66 50.669 11.614 17.114 26.332 27.087 46.875 31.914 22.818 5.316 43.565 1.659 62.312-11.064 9.806-6.699 17.143-14.239 24.22-25.09 16.205-24.733 24.133-60.1 21.996-98.13-2.394-43.287-18.121-80.973-40.481-97.197-6.148-4.44-10.075-6.192-17.548-7.833-3.584-.791-7.035-1.452-7.623-1.406zm-197.707 46.611c13.228-.043 27.052 2.397 35.098 6.428 2.968 1.484 4.253 2.973 2.73 3.265-.456.087-4.416-.259-8.72-.75-18.874-2.122-30.747-1.744-47.7 1.501-15.683 3.003-26.965 7.005-41.818 14.9-4.296 2.295-8.304 4.168-8.932 4.183-1.886.045 2.157-4.939 7.278-8.97 7.723-6.11 17.435-11.178 28.269-14.778 6.138-2.017 22.157-5.19 28.18-5.606a99.942 99.942 0 015.615-.173zm171.99 22.767c1.89.006 3.767.062 5.614.173 6.024.416 22.044 3.588 28.182 5.605 10.834 3.6 20.544 8.67 28.267 14.778 5.121 4.032 9.166 9.016 7.28 8.97-.628-.015-4.638-1.887-8.934-4.183-14.852-7.895-26.134-11.896-41.818-14.899-16.953-3.246-28.824-3.623-47.698-1.501-4.304.491-8.264.837-8.72.75-1.523-.292-.24-1.782 2.728-3.266 8.046-4.03 21.872-6.47 35.1-6.427zm-144.708 6.045c10.327.075 22.276 1.47 25.923 2.93 1.606.692 2.165 2.795 1.392 5.626-.848 3.267-1.762 3.443-11.198 2.25-9.325-1.161-13.47-1.104-14.576.265-.338.433-1.165 2.432-1.729 4.434-1.629 5.784-4.526 9.339-8.13 10.029-.761.146-2.441-.112-3.735-.548-2.94-1.068-5.4-4.017-7.437-8.889-1.987-4.881-2.502-5.099-9.391-4.254-7.203.853-22.434 4.295-24.005 5.438-1.295.932-1.66 2.318-1.746 6.543.001 3.578-1.373 7.945-2.998 9.624-4.029 4.244-10.096 2.512-15.42-4.413-2.508-3.203-3.771-3.751-6.323-2.79-3.04 1.161-9.668 4.746-14.68 7.968-5.441 3.462-6.525 3.565-8.926.92-3.013-3.37-1.983-5.41 4.937-9.943 9.823-6.406 23.87-12.462 38.894-16.707 19.617-5.545 41.077-8.601 59.148-8.483zm117.426 22.768c18.07-.118 39.532 2.937 59.149 8.482 15.025 4.244 29.071 10.302 38.894 16.708 6.92 4.534 7.95 6.572 4.937 9.941-2.4 2.645-3.486 2.543-8.927-.92-5.013-3.222-11.64-6.806-14.68-7.967-2.552-.962-3.815-.414-6.323 2.79-5.325 6.925-11.39 8.657-15.419 4.413-1.625-1.68-3-6.046-2.998-9.624-.086-4.226-.452-5.61-1.746-6.542-1.57-1.143-16.802-4.585-24.005-5.438-6.889-.845-7.404-.628-9.39 4.253-2.039 4.871-4.497 7.82-7.438 8.889-1.294.436-2.974.693-3.735.547-3.604-.69-6.501-4.243-8.13-10.026-.564-2.003-1.392-4.003-1.73-4.436-1.106-1.37-5.252-1.426-14.577-.265-9.436 1.192-10.35 1.018-11.197-2.249-.773-2.831-.213-4.934 1.393-5.626 3.647-1.46 15.595-2.855 25.922-2.93zm-151.754 7.47c4.26-.113 8.687 2.65 12.891 8.12 6.177 8.078 6.568 10.95 1.756 13.029-2.868 1.233-3.764.668-7.794-4.717-3.778-5.17-5.24-6.206-7.226-5.036-1.273.77-2.122 2.933-3.157 7.972-1.158 5.22-2.222 6.528-5.322 6.28-2.613-.184-4.51-1.295-4.801-2.818-.292-1.522 1.248-8.868 2.628-12.657 1.46-3.91 4.484-7.909 6.835-9.095 1.368-.683 2.77-1.041 4.19-1.079zm33.484 12.84c1.18.059 2.702.568 4.693 1.488 7.553 3.448 15.44 10.568 19.789 17.89 3.24 5.379 4.726 9.567 6.394 17.456 1.229 5.868 1.82 7.858 2.831 9.296 1.232 1.763 1.253 1.866.648 3.928-.354 1.173-1.321 2.725-2.137 3.408l-1.439 1.275-6.23-1.753c-14.631-4.144-29.104-4.163-47.625-.038-16.805 3.743-29.896 9.564-41.37 18.338-2.478 1.895-4.803 3.498-5.209 3.576-1.117.214-4.102-1.636-5.143-3.226-.801-1.162-.866-1.78-.505-3.744.31-1.953.138-3.394-1.029-8.116-2.572-10.137-2.315-19.235.73-28.342 1.735-5.226 8.376-15.337 12.164-18.64 4.063-3.514 5.443-3.726 7.633-1.357.934 1.032 1.472 2.192 1.613 3.48.178 1.755-.048 2.22-2.878 5.024-3.966 4.021-8.12 10.079-9.582 13.989-3.68 9.912-2.065 25.494 2.503 24.62.457-.088 2.43-1.045 4.376-2.154 20.58-11.78 48.553-17.925 71.796-15.798 7.333.648 8.622.507 9.13-.958.772-2.568-2.213-11.836-5.447-16.636-3.614-5.412-7.6-8.911-14.512-12.586-5.157-2.749-5.728-3.535-4.88-6.802.693-2.566 1.718-3.716 3.686-3.618zm152.598 9.927c1.42.038 2.821.394 4.19 1.077 2.35 1.187 5.374 5.186 6.835 9.097 1.38 3.79 2.92 11.135 2.628 12.658-.292 1.522-2.187 2.631-4.8 2.815-3.1.248-4.164-1.06-5.322-6.28-1.035-5.039-1.884-7.202-3.157-7.972-1.986-1.169-3.448-.133-7.226 5.037-4.03 5.384-4.928 5.95-7.796 4.716-4.811-2.078-4.419-4.95 1.758-13.028 4.204-5.47 8.63-8.232 12.89-8.12zM308.83 239.78c1.968-.098 2.993 1.052 3.685 3.618.848 3.267.277 4.052-4.88 6.8-6.912 3.675-10.896 7.175-14.51 12.586-3.234 4.8-6.219 14.068-5.448 16.636.509 1.466 1.797 1.607 9.13.958 23.242-2.127 51.215 4.019 71.796 15.799 1.945 1.109 3.92 2.066 4.377 2.153 4.568.875 6.183-14.707 2.503-24.62-1.461-3.91-5.616-9.967-9.582-13.989-2.83-2.804-3.058-3.268-2.88-5.023.142-1.288.68-2.447 1.613-3.479 2.19-2.37 3.57-2.159 7.634 1.355 3.787 3.304 10.428 13.415 12.164 18.64 3.044 9.107 3.301 18.207.73 28.344-1.168 4.722-1.338 6.163-1.028 8.116.361 1.964.295 2.581-.507 3.743-1.04 1.59-4.026 3.44-5.143 3.226-.406-.078-2.729-1.681-5.207-3.576-11.475-8.774-24.567-14.595-41.372-18.338-18.52-4.125-32.993-4.107-47.625.038l-6.228 1.753-1.44-1.276c-.817-.682-1.782-2.234-2.136-3.407-.605-2.063-.586-2.164.646-3.927 1.012-1.438 1.604-3.43 2.833-9.298 1.668-7.889 3.153-12.077 6.393-17.455 4.348-7.323 12.235-14.443 19.788-17.89 1.992-.92 3.513-1.428 4.694-1.487zm-63.18 47.927c-.427.018-.85.035-1.257.054a102.11 102.11 0 01-6.153 10.414c-13.427 19.786-30.444 31.317-54.195 36.898-26.38 6.145-50.367 1.917-72.04-12.791-.265-.181-.521-.365-.783-.547-17.016 8.272-22.182 11.854-23.259 16.267-.497 1.906 2.655 46.943 4.868 72.368l-.001.006 11.37 136.41h301.463l10.611-129.452c.922-10.046 2.051-23.22 3.184-37.24l4.142-51.47-2.29-3.052c-1.067-1.397-4.242-3.475-9.191-5.953-7.453 10.66-15.354 18.445-25.578 25.43-21.674 14.708-45.66 18.937-72.041 12.792-23.751-5.581-40.766-17.113-54.193-36.9-6.842-10.127-11.685-21.067-14.656-33.234zm220.861 66.038c-1.717.014-3.053.833-3.761 2.468l-15.872 190.572h70.063c-.014-125.63-.26-145.754-1.633-149.136-2.617-6.215-29.333-32.277-42.745-41.545-2.236-1.582-4.334-2.373-6.052-2.359zM45.18 366.895c-1.586-.065-3.683.925-6.504 2.949-6.216 4.58-30.86 30.532-35.876 37.838l-4.362 6.215-.289 132.888H62.4L48.053 368.971c-.716-1.336-1.64-2.025-2.874-2.076z" fill="#f2f2f2"/></svg>