<svg xmlns="http://www.w3.org/2000/svg" viewBox="0 0 512 512" height="682.667" width="682.667" version="1.0"><g fill="#f2f2f2"><path d="M187.785 54.98c-7.663 2.678-15.418 6.832-17.91 9.602-2.77 3.047-1.478 5.724 4.985 10.432 21.141 15.51 39.79 32.128 59.454 52.808 14.68 15.417 16.064 16.248 19.942 12.094 9.14-9.694-7.94-52.992-29.174-74.041-12.648-12.371-23.634-15.603-37.297-10.894zM96.849 68.644C82.262 73.537 63.89 90.154 55.95 105.85c-7.478 14.772-8.77 30.097-4.247 52.53 9.601 47.915 49.392 102.108 95.275 129.804 8.77 5.354 10.525 7.57 7.94 10.155-1.016.923-6.094 4.062-11.448 6.924-38.683 20.957-62.87 48.284-58.255 65.732 3.878 14.218 31.574 24.65 57.424 21.511 15.325-1.846 34.713-8.493 37.574-12.832 1.478-2.216 1.385-2.308-2.861-6.094-2.4-2.123-4.34-4.523-4.34-5.447 0-1.107 2.77-2.954 9.51-6.185 20.587-9.878 33.143-20.957 56.315-49.669 9.97-12.186 11.725-15.602 11.725-22.249 0-10.247-2.216-9.97-13.664 1.57-11.724 11.817-11.17 11.078-12.278 17.818-1.847 11.632-8.401 20.587-18.557 25.295-13.11 6.094-27.327 2.216-33.235-9.047-2.862-5.355-2.862-15.048-.092-21.141 4.339-9.602 15.325-17.726 25.295-18.926 2.585-.277 7.478 0 10.987.646 5.723 1.108 6.647 1.016 8.678-.37 2.585-1.661 3.23-5.262 1.292-6.739-.646-.554-5.354-2.492-10.432-4.431-11.91-4.524-17.172-7.109-24.096-12.094-7.662-5.355-11.448-11.17-11.448-17.356 0-6.555 1.755-9.048 14.495-19.665 19.664-16.617 35.174-33.789 47.268-52.345 5.909-9.048 6.37-10.987 4.154-15.233-2.77-5.17-42.005-43.945-54.838-54.193-21.234-16.987-38.682-27.419-54.47-32.774-7.293-2.492-10.431-3.046-18.925-3.323-6.74-.185-11.355.185-13.848.923zm336.786 16.064c-7.294 9.694-8.678 10.34-17.818 8.586-9.232-1.754-10.71.923-4.708 8.678 5.17 6.74 5.354 8.124 1.477 16.156-1.847 3.785-3.14 7.386-2.862 8.124.646 1.57 5.354 1.57 9.509-.184 1.754-.739 4.893-1.385 6.831-1.385 3.047 0 4.155.646 8.586 5.077 5.078 5.078 8.217 6.37 9.232 3.601.277-.83.554-4.34.554-7.847 0-3.6.462-7.294.924-8.31.553-.922 3.877-3.23 7.293-4.984 3.508-1.662 6.555-3.786 6.832-4.524.83-2.216-1.662-3.97-7.663-5.724-7.201-2.031-9.047-4.155-10.248-12.002-1.57-9.693-3.6-11.078-7.94-5.262z"/><path d="M298.939 114.528c-6.37 1.384-10.155 3.323-13.202 7.016-1.662 2.031-9.417 14.587-17.356 28.065-16.71 28.62-23.727 39.421-33.882 52.07-7.847 9.785-25.388 27.695-34.066 34.712-9.325 7.57-9.325 10.71-.277 16.433 11.817 7.478 23.726 11.263 36.005 11.263 17.818 0 22.988-8.032 34.712-54.47 8.402-33.142 12.187-41.913 23.173-52.899 13.479-13.479 28.25-15.325 50.776-6.093 4.801 1.939 9.694 3.6 10.802 3.6 3.046 0 4.8-3.415 4.8-9.232 0-6.554-3.323-13.478-8.585-18.094-4.893-4.155-15.14-9.14-22.804-10.987-7.108-1.754-24.742-2.585-30.096-1.384zm116.509 29.358c-1.662 1.938-16.249 54.192-16.433 59.085-.185 3.877 1.384 5.354 6.831 6.74 7.57 2.03 7.201 2.769 17.818-36.652 4.062-14.956 6.093-24.096 5.632-25.573-1.108-4.431-10.71-6.924-13.848-3.6z"/><path d="M315.926 161.888c-8.678 2.77-15.787 10.894-21.05 24.003-4.892 12.187-3.323 18.465 5.91 24.188 4.061 2.493 5.354 2.77 11.54 2.77 8.493-.092 14.217-2.677 21.049-9.509 9.416-9.417 15.879-27.42 11.817-33.05-1.755-2.586-10.248-6.556-17.449-8.217-6.555-1.57-7.293-1.57-11.817-.185zm-30.651 63.609c-.83 1.293-2.585 5.909-3.785 10.248-1.292 4.339-3.785 11.355-5.539 15.602-3.508 8.124-5.262 14.956-6.924 27.234-1.662 12.371.462 15.049 15.14 18.926 7.017 1.847 18.372 2.216 22.25.739 6.185-2.308 20.957-19.942 24.373-29.081 2.585-6.924 2.4-13.571-.739-25.665-3.6-13.572-3.693-13.664-16.802-13.94-9.232-.186-11.264-.462-16.526-2.77-8.77-3.786-9.786-3.878-11.448-1.293zm109.677 1.662c-5.816 2.308-8.955 10.709-6.185 16.433 2.308 4.708 5.724 5.816 10.155 3.416 6.924-3.785 8.863-14.125 3.508-18.649-2.492-2.216-4.246-2.493-7.478-1.2zm-14.032 37.574c-.647.277-2.862 3.785-4.893 7.848-3.97 7.94-7.201 11.817-9.694 11.817-.923 0-4.154-2.77-7.293-6.094-4.801-5.262-6.094-6.093-7.94-5.631-2.677.646-6.37 7.478-6.37 11.725 0 3.23 7.57 12.555 15.325 18.833 6.463 5.262 8.217 5.816 11.356 3.6 9.047-6.739 24.65-33.697 22.064-38.405-1.57-3.046-8.863-5.17-12.555-3.693zm-185.38 39.052c-3.232 1.292-7.755 7.201-7.755 10.155 0 8.586 12.278 8.401 17.54-.184 2.216-3.693 2.309-6.094.37-8.863-1.477-2.124-6.278-2.677-10.155-1.108zm64.624 9.417c-1.57 1.661-6.832 8.032-11.632 14.125-10.432 13.11-18.557 21.603-29.635 30.835-8.678 7.2-9.786 8.678-8.309 11.078 2.308 3.693 41.175 17.541 60.747 21.696 14.217 2.954 24.465 3.877 27.05 2.492 2.862-1.57 3.693-3.508 5.262-13.202 3.231-20.218 3.416-45.975.462-57.054-1.385-5.17-3.324-6.37-12.556-7.478-4.523-.554-11.632-2.03-15.879-3.23-10.248-2.955-12.094-2.863-15.51.738zm-34.989 83.735c-1.016.461-4.34 3.97-7.294 7.847-6.37 8.309-10.063 11.632-13.017 11.632-1.2 0-4.893-1.477-8.309-3.323-4.523-2.308-7.108-3.14-9.601-2.955-2.954.277-3.6.739-5.447 4.524-2.585 5.262-1.846 7.755 3.416 11.263 4.339 2.862 4.985 5.909 1.846 9.048-5.908 5.908-28.065 18.002-44.498 24.372-9.97 3.785-11.263 5.17-10.525 10.802 1.108 8.216 5.355 9.047 19.572 3.508 17.172-6.74 31.758-14.956 47.73-26.865 5.447-3.97 8.216-5.447 10.432-5.447 1.57 0 7.017 1.662 12.094 3.693 17.541 7.2 34.251 11.078 41.452 9.786 1.847-.37 4.893-2.124 6.924-3.878 4.709-4.247 12.187-15.971 16.156-25.388 4.432-10.155 4.247-12.74-.738-14.587-3.693-1.385-7.294-1.292-9.694.462-1.108.738-3.97 5.447-6.185 10.247-7.478 15.972-10.063 17.818-21.88 15.326-7.663-1.57-17.264-5.263-20.588-7.848-1.292-1.015-2.308-2.677-2.308-3.877 0-1.108 2.677-5.632 6-10.155 6.002-8.217 7.571-11.356 6.648-13.848-1.2-3.14-8.678-5.724-12.186-4.34z"/></g></svg>