<svg version="1.0" xmlns="http://www.w3.org/2000/svg" width="682.667" height="682.667" viewBox="0 0 512 512"><g fill="#f2f2f2"><path d="M181.3 91.1c-1.8 1.8-1.6 3.6.7 10.3 8.7 25.4-4.1 51.1-29.5 59.6-5.1 1.7-7.3 3.1-10.6 6.8-8.5 9.7-18.3 30-17.7 36.5.3 2.9.6 3.2 3.8 3.1 1.9 0 9.1-2.6 16-5.7 40.2-17.8 80.2-25.8 122.4-24.4 37.5 1.2 72.3 9.4 108.1 25.2 6.8 3 13.3 5.5 14.3 5.5 3.6 0 4.6-2.4 3.2-7.7-2.4-10-13.1-29.5-18.8-34.7-1.2-1-5.8-2.7-10.3-3.7-4.5-1.1-10.5-3.2-13.3-4.7-7.2-3.9-14.9-12-18.4-19.4-5.7-11.9-6.3-22.8-2-36.6 1.1-3.5 1.7-7 1.4-7.8-1-2.5-6.1-1.5-15.7 3-19.7 9.3-35.6 12.9-57.4 12.9-21.3 0-37.9-3.8-58.3-13.4-11.7-5.5-16.1-6.6-17.9-4.8z"/><path d="M132.5 94.7c-8.8 4.6-13.4 12.3-13.5 22.3 0 21.1 21.5 32.6 36.7 19.5 13.4-11.5 10.6-34.4-5-41.9-4.5-2.1-14.2-2-18.2.1zm226.5.9c-7.9 4.5-11.9 11.4-12 20.8 0 8.7 1.8 13.4 7.1 18.8 9.2 9.2 21.6 9.2 30.8 0 5.3-5.4 7.1-10.1 7.1-18.8-.1-13.6-9.6-23.4-22.7-23.4-4.4 0-6.9.7-10.3 2.6zM59.5 187.4c-12.4 3.1-22 10.8-27.7 22.4-3.2 6.5-3.3 7-3.3 19.7.1 11.5.4 13.9 2.8 21 8.5 24.5 26.4 51.7 58.1 88.4 6.4 7.4 11.6 14 11.6 14.7 0 3.5-1.9 4.6-18.8 10-22.8 7.2-47.4 16.9-49.7 19.4-2.6 2.8-1.4 3.6 9.7 6.9 15.2 4.4 20.5 8.3 24.3 17.9 2.2 5.5 4.5 6 12.3 2.8 17-6.8 29.7-5.7 45.7 4 8.7 5.3 10.7 5 17.7-2.5 3.1-3.5 6.6-8.2 7.8-10.6 3-6.2 3.7-19.1 1.6-27.5-3.3-12.9-9.6-19.6-37.2-39.6C93.1 318.9 91 317 91 313.6c0-1.5 1.9-6.3 4.1-10.9 5.5-10.9 8.6-20.2 10-30.1 1.2-8.4 1-9.8-2.6-30.6-2-11.1-1.6-26.1 1-38.4 1.9-9 1.5-11.7-1.7-13.4-7.2-3.8-31.7-5.4-42.3-2.8zm364.5-.8c-13 2.6-13.6 3.6-11 17.2 2.7 13.8 2.6 29.8-.1 43.9-3.9 20.2-1.8 34.6 8.2 54.9 4.1 8.3 4.8 10.5 4 12.5-1.1 3-4.8 6-26.1 21.4-9.1 6.6-19.2 14.7-22.6 18.1-10.5 10.5-13.9 20.9-12.3 37.9 1 11.8 2.4 15.8 7.2 21.1 5.6 6.1 7.8 6.1 18.2.1 14.9-8.6 25.4-9.6 42.3-3.7 4.9 1.7 9.6 2.8 10.6 2.4.9-.3 2.6-2.8 3.7-5.5 3.8-8.8 11.2-13.8 25.6-17.3 9.1-2.2 10.8-3.9 7.1-7.1-3.4-2.9-23.5-10.7-46.4-18.1-9.9-3.1-18.8-6.5-19.8-7.5-2.7-2.5-1.7-4.3 8.9-16.4 32.3-36.7 54.1-70.3 60.6-93.7 3.1-11.4 3.2-25.9.1-33.8-4.5-11.2-13-19.7-24.2-24.1-4.5-1.8-7.9-2.3-18.5-2.5-7.1-.1-14.1 0-15.5.2z"/><path d="M238 196.1c-33.6 2.8-69 13.1-101.2 29.6-11.1 5.6-14.8 8.9-14.8 12.9 0 1.2.7 5.6 1.6 9.6 1.9 8.7 2.1 24 .5 32.3-.7 3.3-2.8 10.8-4.8 16.7-3.5 10.2-3.6 10.7-2 13.2 1 1.4 7.7 7 15 12.4 17.2 12.8 23.6 18.8 29.3 27.3 8.6 13 12.2 29.7 9.4 44.5-1.5 8.2-6.6 23.3-10.9 32.4-3.2 6.7-3.9 10.4-2.1 11.5.5.3 4.3-.3 8.3-1.4 12.7-3.6 20.1-2.6 25.6 3.3 3.3 3.5 6.3 3.3 11.7-.8 2.5-1.9 6.6-4.3 9.1-5.2 3.9-1.5 5.2-1.6 10.8-.5 3.5.7 6.9 1 7.6.6 3.2-2-2.3-29.6-9.6-48.6-13.6-35.2-32.7-59.8-66.3-85.3-10.2-7.8-11-10.7-5.1-18 5-6 7.9-5.1 23.9 7.8 9.9 7.9 27.8 25.4 35 34.1 13.3 16.2 22.9 33.5 29.9 53.7 2.2 6.5 4.5 12.7 5.1 13.7 1.5 2.8 8.3 4.4 16.7 3.9 10.4-.7 11.4-1.6 15.8-15 12.3-37.3 35.8-68 73.9-96.6 9.2-7 12.2-6.9 17.4.5 2.4 3.4 2.8 7 .9 9.3-.7.9-6.6 5.9-13.2 11.2-21 16.8-37.5 35.2-47.9 53.3-10.3 18.1-20 45.6-22.8 65.2-1.1 7.3-1 8.5.4 9.9 1.3 1.3 2.4 1.4 7.5.4 7.6-1.5 12.1-.3 19.3 5 6.3 4.7 8.8 5 12.1 1.4 1.3-1.4 3.6-3.2 5.1-4 3.9-2 12.9-1.7 21 .7 6.4 2 7.1 2 8.6.5 1.5-1.4 1.3-2.2-1.7-8.8-5.6-12.3-10-25.3-11.7-34.9-1.4-7.5-1.5-10.4-.6-16.9 3.1-22 12.4-34.7 40.2-54.9 9-6.5 13.8-10.7 14.5-12.5.7-2.1.2-4.6-2.3-11.9-6.3-17.9-7.8-33.5-4.7-48.2 2.2-10.3 2-14.2-.9-16.8-3.2-3-24.2-13.3-38.6-19-37.1-14.6-77.2-20.8-115-17.6z"/></g></svg>