<svg version="1.0" xmlns="http://www.w3.org/2000/svg" width="682.667" height="682.667" viewBox="0 0 512 512"><path d="M160 29.6c-24.3 5.2-42.8 26.1-55.9 63.1-5.2 14.5-11 37.9-16.6 66.3-11.5 59.1-13.5 81.2-9 103.3 3.8 18.3 13.3 28.7 34.5 37.4 51.3 21.1 130.6 4.2 188.2-39.9 18.3-14 37.6-35.5 44.5-49.5 2.5-5.3 2.8-6.8 2.8-16.3-.1-17.7-4.2-24.8-21.2-36.6-20.4-14.2-33.8-27.1-67.4-64.9-31.7-35.6-47.2-49.7-63.7-58-12.3-6.1-23.5-7.7-36.2-4.9zm261 261c-40.3 7.1-77.5 27.1-86.2 46.3-2.9 6.3-2.2 17.5 1.5 25.5 5.1 10.9 24.7 27.5 44.1 37.3 37.8 19.1 87 22.7 103.7 7.6 7.6-6.9 10.1-16.9 8-32.8-3.6-27.4-15.1-52.2-32.1-69.5-11-11.2-16.9-14.3-28.4-14.6-4.5-.1-9.2 0-10.6.2zm-174.1 19.9c-14.8 5.6-25.6 8.8-41.7 12.1-7 1.4-13.7 3.2-14.9 4-3.4 2.1-4.3 7.3-5 29.5-1.1 37.8 3.2 50.1 20.7 59.3 10.6 5.6 20.3 7.8 34.5 7.9 18.7.1 33-4.8 42.1-14.5 7-7.5 8.9-12.5 8.9-23.3-.1-12.6-2.2-19.2-17.2-55-8.3-19.7-11.1-24.6-14.2-24.4-.9 0-6.8 2-13.2 4.4zM54.8 346.4c-8.8 2.4-15.9 8.7-22.5 20.1-8.4 14.5-12.6 30-12.7 46.5-.1 13.4 1.8 21 6.3 25.9 2.4 2.6 3.7 3.1 7.4 3.1 5.4 0 10.9-2.7 26.2-13 13.3-8.9 22.2-13.5 38.5-19.6 28.1-10.5 31.7-14.5 25.3-27.5-3.2-6.4-15.3-18.9-23.5-24.2-7.8-5.1-17.8-9.2-27-11.1-9.1-1.9-11.7-1.9-18-.2zm316.5 76.2c-2.4 3.8-6.3 17.9-7 25.4-.8 9.9.8 14.5 7.6 21.1 14 13.7 38.8 18.8 54 11.2 4.9-2.4 6-3.6 8.6-8.7 2.6-5.3 2.9-7.1 3.3-17.7.3-6.5.2-12.9-.2-14.3-.9-3.5-4.5-5.1-14.4-6.5-10.1-1.5-26.1-5.9-36.2-10-9.5-3.9-13.4-4-15.7-.5zM84.3 435c-10.4 5.4-16.9 10.3-18.9 14.2-2.5 4.8-2.4 17.1.1 22.2 3.1 6.1 6.5 8.1 13.9 8 10.6-.1 24.7-8.7 28.2-17.1 3.1-7.4.5-21.5-5.3-28.3-3.6-4.3-8.1-4.1-18 1z" fill="#f2f2f2"/></svg>