<svg xmlns="http://www.w3.org/2000/svg" width="96" height="96" viewBox="0 0 25.4 25.4"><path fill="#fff" d="M0 0h25.4v25.4H0z"/><path d="M11.495 15.298q.237 1.343 1.462 1.343.889 0 1.205-.83.336-.849.336-2.706-.395.573-1.107.909-.71.336-1.6.336-1.896 0-3.082-1.186-1.185-1.185-1.185-3.417 0-1.462.612-2.549Q8.75 6.092 9.875 5.5q1.146-.593 2.667-.593 3.023 0 4.208 1.838 1.205 1.817 1.205 5.294 0 3.892-1.166 5.808-1.145 1.917-3.95 1.917-1.522 0-2.628-.613-1.087-.632-1.68-1.64-.572-1.027-.651-2.212zm1.225-3.951q.691 0 1.086-.395.395-.415.395-1.107 0-.79-.414-1.185-.396-.395-1.107-.395t-1.126.415q-.395.395-.395 1.146 0 .691.395 1.106.415.415 1.166.415z" aria-label="9" fill="#0d0d0d"/></svg>