<svg xmlns="http://www.w3.org/2000/svg" width="96" height="96" viewBox="0 0 25.4 25.4"><g style="line-height:1.5;-inkscape-font-specification:'Poppins ExtraBold, Bold'"><path d="M13.29 5.183q2.142 0 3.439 1.1 1.297 1.101 1.297 3.145 0 1.788-1.2 2.83-1.178 1.041-3.124 1.08l-.098 1.435h-3.4l-.118-3.91h1.415q1.336 0 2.044-.295.707-.315.707-1.1 0-.531-.294-.826-.275-.315-.767-.315-.55 0-.845.335-.275.314-.275.864H8.435q-.039-1.199.492-2.181.55-1.002 1.65-1.572 1.101-.59 2.712-.59zm-1.356 15.034q-1.022 0-1.651-.55-.61-.57-.61-1.435 0-.865.61-1.435.629-.57 1.65-.57 1.003 0 1.612.57.629.57.629 1.435 0 .845-.629 1.415-.61.57-1.611.57z" style="-inkscape-font-specification:'Poppins ExtraBold, Bold'" aria-label="?" font-weight="700" font-size="19.652" font-family="Poppins ExtraBold" letter-spacing="0" word-spacing="0" fill="#f2f2f2" stroke-width=".353"/></g></svg>