<svg version="1.0" xmlns="http://www.w3.org/2000/svg" width="682.667" height="682.667" viewBox="0 0 512 512"><path d="M257.5 20.4c-4.8 1.8-7.5 4.9-7.5 8.5 0 7 11.3 23.3 26.6 38.5 16.3 16.2 36.9 31.9 41.3 31.4 3.5-.4 6.6-5.5 8.1-13.3 4.6-24.4-14.6-52.1-43.6-63.1-8.6-3.2-19.2-4.1-24.9-2zm-40.3 10.3c-23.3 12.5-37.5 34.2-35.9 55 .6 8 3.5 15.6 6.5 17.2 3.1 1.7 6.3 0 19.2-9.7 14.1-10.7 33.6-29.6 34.6-33.5.5-2.3-.4-5.1-4.4-13.5-2.8-5.9-5.4-11.8-5.8-13.2-.3-1.4-1.1-3.1-1.6-3.8-1.7-2-7.2-1.4-12.6 1.5zm31 50.2c-8.7 9-22.6 21.2-33.8 29.6-6.1 4.6-11.4 9.1-11.8 10-1.1 3-.6 11.6 1 17.8 4.4 17 16.7 32.7 30.9 39.3 6.3 3 9 3 10.9.2 2.2-3 2.1-12.6 0-15.7-1.4-1.9-2.2-2.2-5.3-1.7-12.2 2-11.6 2-13.9-.9-3.4-4.3-3.9-9.1-1.2-12 2.9-3.1 25.6-11.5 31-11.5 5.4 0 28.1 8.4 31 11.5 2.7 2.9 2.2 7.7-1.2 12-2.3 2.9-1.7 2.9-13.9.9-4.9-.8-6.9 2-6.9 9.6 0 6.4 2 10 5.4 10 4.4 0 14.6-6.1 21.4-12.9 10.1-9.9 16.4-23.3 18.7-39.3 1-7.4-1-10.6-10.6-17.3-11.2-7.8-21.5-16.2-32.1-26.3-10.9-10.2-12.7-10.5-19.6-3.3zm-54.9 95.2c-15.5 2.9-42 14.5-57.3 25-26.2 17.9-45.7 46.1-46.2 66.8-.2 6.9 1.7 10.2 7.6 12.9 18.1 8.5 59 4.1 103.2-11.2 28.9-10.1 31.4-14.2 10.9-17.5-8.3-1.3-31.3-3.1-40.3-3.1-8 0-11.2-2.6-11.2-9s3.2-9 11.2-9c17.9 0 47.7 3.3 63.2 7 8.5 2.1 11.6 1.5 11.6-2 0-2.4-13.5-32.9-16.4-37.3-1.2-1.7-5.8-5.8-10.3-9.1-4.5-3.4-10.2-7.7-12.5-9.7-5-4.2-7.7-4.9-13.5-3.8zm111.6 4.2c-3 2.5-9.1 7.1-13.6 10.2-8.1 5.6-11.3 9.7-11.3 14.4 0 3.8 3.2 4.4 14.8 2.9 6.4-.7 19.7-1.2 32.7-1.2 18.9.1 24.1.5 36.7 2.7 13.6 2.4 17.8 2.6 17.8.8 0-7.5-47.8-31.8-66.6-33.8-4.8-.5-5.2-.4-10.5 4zm-.1 44.8c-15.3 1.3-32.4 4.4-35.4 6.4-5.7 3.7-9 13.1-5.8 16.7 5.5 6 50.2 23.6 78.1 30.7 30.6 7.8 59.9 8.8 72.9 2.6 7.9-3.8 9.1-8.3 4.8-17.5-9.4-20.2-31.7-33.2-65-38-11.1-1.5-36.9-2-49.6-.9zM236 274.9c-17.8 7.9-40.3 15.8-57 20.2-12.5 3.4-16 5-16 7.7 0 1 2.5 6 5.5 11.1 3.1 5.1 6.9 12 8.6 15.3 3.1 6.2 9.9 25.4 9.9 28.1 0 .9 1.2 2.9 2.6 4.6 5.1 6.1 30.7 12 56 12.8 25 .9 44.2-2.1 70.9-10.8 16.9-5.6 20.7-7.5 23.5-12.1 2.3-3.9 10-34.9 10.7-43.3.7-8-.3-8.7-16.3-13-17.7-4.7-39.9-12.4-58.8-20.6-11.5-5-16.9-6.9-20-6.8-2.8 0-9.1 2.2-19.6 6.8zM307 385c-21.7 5.7-33.5 7.3-55 7.3-19.5 0-30.7-1.3-49.5-5.7-5.5-1.3-10.9-2-12-1.6-1.2.4-3.8 4.3-6.8 10.4-12.7 25.6-39.3 41.2-88.7 52-18.3 4.1-21 4.9-21 6.9 0 2.4 3.3 4.5 14 8.8 25 9.9 52.6 17.6 75.3 21 16.7 2.4 42.3 2.6 55.8.3 44.8-7.5 79.1-35.5 103-84.1 7.1-14.2 7.6-18.7 2.4-19-1.6 0-9.5 1.6-17.5 3.7z" fill="#f2f2f2"/></svg>