<svg xmlns="http://www.w3.org/2000/svg" viewBox="0 0 512 512" height="682.667" width="682.667" version="1.0"><g fill="#f2f2f2"><path d="M288.682 44.669c-5.117.663-4.928 2.559.948 6.634 7.108 5.023 14.5 12.51 15.163 15.447 1.043 4.17-1.421 5.876-15.542 10.52-20.28 6.634-44.542 17.817-46.911 21.702-1.517 2.37.19 3.128 8.813 3.886 8.245.663 12.605 1.706 15.922 3.98 3.222 2.085 2.653 5.402-3.696 21.229-2.844 7.013-5.97 14.879-6.919 17.438-2.274 6.255-8.34 12.415-13.741 13.836-5.497 1.517-14.216.19-24.072-3.696-3.886-1.61-18.29-8.624-32.033-15.637-36.96-18.86-49.85-23.03-68.424-22.176-18.765.947-33.454 9.95-44.732 27.388-9.098 14.027-10.709 21.23-11.752 54.399-.473 15.353-1.516 30.232-2.369 35.35-3.032 18.195-10.33 36.297-21.797 53.83-2.938 4.548-5.402 9.381-5.497 10.708-.19 2.275.095 2.464 4.739 2.749 2.653.19 7.581-.38 10.898-1.232 14.216-3.697 24.072-11.089 34.497-26.062 9.098-13.079 14.595-17.723 25.588-21.703 7.108-2.653 13.078-2.464 13.458.38.094 1.136-2.18 5.022-5.497 9.476-6.918 9.383-13.931 21.04-16.3 27.2-3.318 8.718-.664 8.624 11.94-.664 19.334-14.026 39.235-22.271 45.016-18.575 2.18 1.422 1.422 6.444-1.705 10.71-3.791 5.117-6.73 7.486-38.003 31.084-28.242 21.323-38.762 30.137-50.987 42.647-27.768 28.336-42.931 61.79-45.3 99.414-.474 6.918-.285 9.477.758 10.804 1.705 2.275 3.98 1.327 6.35-2.559 2.937-4.643 6.349-7.487 8.34-6.823.947.284 3.41 3.885 5.496 7.866 6.539 12.889 17.153 21.513 31.369 25.398 12.604 3.412 38.287 2.56 39.045-1.421.19-.948-3.127-3.412-9.477-7.108-20.66-12.13-32.032-28.716-32.032-46.817 0-6.634.379-8.245 3.127-13.552 3.696-7.297 11.847-13.837 24.83-20.186 16.775-8.15 29.569-10.71 71.552-14.216 40.562-3.412 56.104-5.78 81.03-12.32 23.692-6.16 45.963-14.69 72.025-27.578 7.771-3.886 15.068-7.013 16.206-7.013 2.18 0 3.222 1.61 3.222 5.117 0 2.56-4.454 15.637-8.435 24.925-2.938 6.918-3.601 10.14-2.085 11.088.853.569 6.35-2.843 13.932-8.813 4.17-3.412 5.591-4.076 6.823-3.223 4.075 2.464 1.327 19.05-6.065 36.771-7.866 19.05-8.34 20.376-7.203 21.513 1.706 1.706 8.624-3.127 20.092-14.026 11.088-10.709 19.238-20.755 25.588-31.653 5.496-9.477 7.77-8.72 9.003 2.938.853 7.676-.853 27.483-3.412 40.183-2.274 11.182-7.108 26.156-11.751 36.202-3.886 8.34-4.265 11.657-1.422 11.657 4.833 0 29.853-15.732 42.552-26.82 21.608-18.955 35.255-42.079 42.742-72.974 7.013-28.62 10.614-74.49 7.108-89.653-3.412-14.31-10.71-24.45-28.526-39.52-24.072-20.47-26.252-25.114-21.893-47.859 3.507-17.911 4.455-26.914 4.455-41.13 0-24.546-4.455-40.278-18.196-64.16-11.657-20.376-34.307-34.117-67.288-40.94-14.5-3.034-41.793-5.403-49.565-4.36zm46.249 64.918c1.99 2.558 5.117 7.96 7.013 11.846 2.937 5.97 3.6 8.34 3.885 14.784.664 12.605-4.075 23.124-10.33 23.124-4.075 0-11.467-7.297-15.353-15.068-4.17-8.53-4.264-17.912-.379-28.621 4.739-12.794 8.72-14.405 15.164-6.065zm69.75 37.529c3.507 1.232 4.36 3.79 3.507 10.046-1.706 12.888-12.32 20.186-29.284 20.186-7.96 0-10.14-1.043-10.14-4.834 0-5.591 7.297-17.437 13.552-21.892 5.497-3.98 16.206-5.591 22.366-3.506zm-73.447 39.33c14.88 3.885 29.664 15.068 35.445 26.915 8.434 17.153 1.8 38.76-14.216 47.006-2.559 1.232-6.16 2.274-8.245 2.274-5.686 0-7.203-2.558-8.34-14.5-1.516-14.405-5.496-20.85-14.69-23.597-3.316-.948-5.306-.853-13.93.947-12.51 2.56-15.259 2.654-18.576 0-3.506-2.748-5.212-7.202-5.212-13.741 0-11.847 7.866-21.23 21.323-25.494 5.402-1.706 19.523-1.61 26.441.19zM74.595 72.72c-15.921 5.118-24.261 19.05-24.166 40.184.095 15.542 3.506 19.049 9.761 9.95 7.771-11.182 16.111-17.627 28.716-21.986 6.823-2.37 8.529-2.56 23.029-2.56 8.624-.094 19.523.285 24.356.76 10.046.947 12.225.568 10.804-2.18-2.464-4.55-25.21-17.06-40.183-22.082-10.804-3.601-24.83-4.55-32.317-2.085z"/><path d="M357.865 435.219c-9.477 8.435-16.87 13.457-25.493 17.438-12.226 5.591-21.134 6.444-33.36 3.222-4.075-1.137-8.624-2.275-10.045-2.464-10.33-1.896 5.212 21.134 18.764 27.768 4.834 2.369 6.634 2.748 13.647 2.748 6.919 0 8.814-.379 13.553-2.748 10.803-5.307 22.27-19.428 29.947-36.96 7.392-16.965 5.118-19.808-7.013-9.004z"/></g></svg>