<svg xmlns="http://www.w3.org/2000/svg" viewBox="0 0 512 512" height="682.667" width="682.667" version="1.0"><g fill="#f2f2f2"><path d="M242.603 26.075c-41.352 5.074-73.418 31.014-98.019 79.353-16.081 31.493-26.706 68.058-32.162 110.846-2.585 19.814-2.489 25.174.191 27.663 1.245 1.053 4.595 2.489 7.467 3.159 30.056 6.892 50.349 25.653 58.964 54.561.67 2.393 1.914 8.615 2.776 13.88 1.819 11.008 2.871 12.635 11.295 16.847 15.89 8.04 35.225 12.348 59.06 13.018 25.27.67 45.276-2.68 57.912-9.668 7.466-4.116 8.806-6.222 10.05-15.89 1.436-11.008 3.446-18.187 7.658-27.472 8.232-17.708 19.814-29.77 36.853-38.288 5.743-2.872 15.507-6.318 21.154-7.467 1.627-.287 4.02-1.627 5.17-2.871 2.2-2.298 2.2-2.68 1.626-15.986-1.914-43.457-12.922-89.786-29.386-123.959-24.505-50.924-57.816-76.194-102.9-78.204-5.744-.192-13.784 0-17.71.478zm-32.45 114.675c9.764 3.733 19.528 13.305 20.676 20.484.575 3.733-.383 4.786-10.242 10.242-13.975 7.85-26.706 18.857-33.502 28.717-7.084 10.337-9.285 10.72-17.326 3.158-19.049-17.804-13.21-50.923 10.912-61.549 9.38-4.116 20.197-4.498 29.482-1.052zm116.589 0c25.653 9.667 33.215 41.83 14.55 61.644-4.212 4.595-8.232 6.7-11.008 6.03-1.245-.287-4.02-3.35-6.605-7.083-7.753-11.295-19.719-21.633-34.651-29.865-11.008-6.03-12.157-8.71-7.275-16.368 4.882-7.754 14.454-14.071 24.313-16.177 5.456-1.149 15.124-.287 20.676 1.819zm-68.058 64.516c6.222 6.605 12.252 30.056 20.867 80.789 3.925 23.069 3.83 24.217-1.531 24.217-3.925 0-12.252-6.509-17.23-13.4-2.489-3.447-5.169-6.318-5.935-6.51-.957-.191-3.063 1.627-5.36 4.786-7.562 10.338-15.603 15.794-22.016 15.22-3.637-.287-2.776-10.434 4.116-47.478 5.935-31.492 12.157-52.264 17.421-58.103 2.202-2.489 7.18-2.201 9.668.479z"/><path d="M43.79 321.28c-18.188 9.19-19.145 36.566-1.82 52.934 2.681 2.489 8.041 6.413 11.87 8.71 4.5 2.585 6.892 4.595 6.892 5.744 0 1.723-.287 1.914-10.72 6.7-7.563 3.542-13.88 9.381-17.039 15.89-3.35 6.605-3.446 20.006-.287 25.94 3.254 6.031 6.317 9.286 11.965 12.349 4.595 2.584 5.935 2.871 13.688 2.871 7.945 0 9.38-.287 18.187-4.02 49.105-20.484 75.524-29.195 110.367-36.087 6.51-1.34 12.827-2.967 13.975-3.829 1.245-.765 3.83-4.403 5.744-8.232 5.264-9.955 7.275-10.05 12.73-.67 3.83 6.414 6.701 7.658 15.125 6.796 7.753-.861 9.859-2.105 13.4-8.136 4.117-7.083 6.318-7.083 11.296.383 2.01 3.063 4.69 5.935 6.03 6.413 3.063 1.245 15.698 1.245 17.517.096.766-.574 2.776-3.159 4.403-5.935 5.265-8.997 7.37-8.806 12.54 1.053 2.584 4.978 4.403 7.275 6.509 8.232 1.627.766 11.582 3.063 22.112 5.17 31.683 6.221 62.41 15.41 100.507 30.152 16.177 6.317 20.293 7.562 26.323 7.944 6.03.383 8.041.096 12.253-1.723 10.242-4.403 16.368-15.315 15.124-26.993-1.149-11.104-7.85-20.197-19.719-26.61-3.446-1.915-6.317-4.117-6.509-4.978-.191-1.053 1.627-2.872 5.36-5.456 3.16-2.106 7.467-5.84 9.573-8.328 13.784-15.507 10.146-43.362-6.7-52.551-7.084-3.829-14.646-3.733-25.176.287-47.86 18.187-70.163 25.845-94.955 32.737-7.945 2.201-15.794 4.786-17.23 5.743-1.627.957-4.212 4.403-6.413 8.52-2.968 5.647-3.925 6.796-5.935 6.796-1.723 0-2.872-.862-4.02-3.063-4.116-7.658-7.371-8.711-19.815-6.414-7.083 1.34-8.806 2.489-12.54 8.807-3.828 6.509-6.221 6.7-10.433.67-3.637-5.265-7.466-6.7-15.315-6.03-7.754.573-10.051 1.722-13.401 6.317-1.628 2.201-3.638 4.116-4.5 4.307-.956.192-3.062-1.627-5.455-4.977-4.5-6.126-6.414-6.892-19.719-7.85-8.615-.574-8.71-.574-11.008 2.01-5.935 6.605-6.605 7.18-8.136 6.605-.862-.382-2.872-2.871-4.403-5.647-1.532-2.776-3.542-5.648-4.5-6.51-.86-.765-8.423-3.445-16.655-5.838-26.132-7.658-42.404-14.167-74.854-30.057l-24.792-12.06-8.232-.383c-7.37-.288-8.71-.096-13.21 2.201z"/><path d="M304.343 434.806c-1.531.478-9.093 2.01-16.751 3.35-25.366 4.499-57.05 4.212-79.64-.766-4.882-1.053-11.391-2.106-14.358-2.393-5.265-.478-5.552-.383-6.51 2.01-1.244 3.35-1.244 19.815 0 23.07 1.34 3.445 6.797 5.647 21.06 8.518 30.726 6.127 62.697 5.648 93.328-1.531 9.763-2.202 13.4-3.829 14.836-6.413.479-1.053.958-6.797.958-12.827 0-9.38-.288-11.104-1.723-12.444-1.915-1.723-6.7-2.01-11.2-.574z"/></g></svg>