<svg xmlns="http://www.w3.org/2000/svg" version="1.0" width="682.667" height="682.667" viewBox="0 0 512 512"><path d="M186.438 19.4c-3.088.025-5.488.1-6.438.2-40.8 5.2-78.7 25.5-112 60-44.9 46.5-59.3 94.6-41 137.5 13.1 30.7 43.6 53.1 74.8 54.7l10.4.5 5.7-6.1c6.4-6.6 9.5-12.2 8.6-15.1-.3-1.1-3.5-3.8-7.1-6.2-8.5-5.5-17-14.1-21.7-22.1-16.8-28.3-10.6-70.4 14.5-98.2 24.3-26.9 59.5-35.9 93.3-23.9 5.5 1.9 12 3.6 14.5 3.7l4.4.1 5.1-9.1c7.9-14.4 13.4-20.9 29.3-34.5 6.8-5.9 5.4-11.8-5.4-21.8C240.5 27 220.8 20.2 197 19.5c-3.7-.1-7.475-.125-10.562-.1zm149.515 36.002l.073.035c7.06 3.515 7.934 4.253 6.71 5.547-1.084 1.162-9.207 4.473-14.652 5.962-2.866.786-3.3.816-5.793.491-2.4-.342-2.898-.505-4.518-1.592-2.182-1.443-3.918-3.65-4.557-5.822a7.318 7.318 0 01-.334-2.023c-11.971 2.659-19.86 5.516-29.382 10.2-17.2 8.6-29.6 20.3-37 35.2-6.6 13-6.4 14.6 3.2 24.9 4.3 4.5 9.8 11 12.3 14.4 6.6 9.2 8.6 9.5 16.4 2.9 10.7-9.1 22.2-13.4 37.6-14.3 19.8-1.1 37.6 5.1 50 17.5 3.7 3.7 7.5 8.3 8.5 10.2 2.3 4.7 5.5 8 7.5 8 .9 0 4.5-1.8 7.9-4 15.2-9.8 27.4-13.8 45.8-14.7 9.2-.4 12.6-1 13.6-2.1 3.1-3.8-.6-23.9-6.8-37.1-7.419-15.58-18.742-28.02-33.958-37.238a9.33 9.33 0 01-.072 1.818c-.461 3.24-3.224 6.091-7.093 7.254-1.602.506-2.214.51-4.823.14-2.91-.415-3.085-.471-6.098-2.308-3.292-2.03-9.538-6.744-11.056-8.338-.577-.621-.855-1.133-.814-1.567.068-.725 1.022-1.239 2.963-1.708 4.612-1.12 9.733-1.968 13.301-2.266-5.874-2.5-12.187-4.634-18.95-6.387-9.2-2.5-12.5-2.8-29.4-3a571.307 571.307 0 00-10.547-.098zM98.096 59.065c.37.008.728.048 1.067.122.964.22 2.082.642 2.49.968 2.303 1.842 3.433 6.086 2.623 9.804-.603 2.822-2.33 5.375-4.627 6.92-3.252 2.199-14.705 6.887-17.156 7.05-1.953.131-1.824-1.26.95-8.52 2.224-5.93 4.577-10.499 6.38-12.36 2.417-2.508 5.68-4.038 8.273-3.984zm229.965 15.13c3.483.038 22.108 2.935 23.295 3.625 1.106.616 1.161 1.297.189 2.108-1.452 1.17-6.713 4.369-11.164 6.826-4.982 2.749-8.571 4.104-11.065 4.208-5.112.221-11.255-4.142-12.152-8.585-.178-.829-.244-1.443-.172-2.007.093-.725.415-1.368 1.027-2.28 1.734-2.507 5.427-3.94 10.042-3.894zm-215.678 3.837a5.916 5.916 0 011.577.18c.777.191 1.418.476 1.97.89.707.53 1.267 1.274 1.775 2.3.96 1.947 1.152 4.854.5 7.637-.488 2.087-.65 2.389-2.626 4.86-1.956 2.448-2.253 2.721-4.119 3.629-3.732 1.815-17.331 5.888-19.629 5.86-1.18.001-1.593-.564-1.233-1.653.896-2.745 11.32-17.656 14.216-20.296 2.322-2.105 5.17-3.375 7.569-3.407zm261.97 5.064c.969.036 2.25.186 3.889.42 6.149.875 12.794 2.342 15.422 3.45 7.517 3.09 8.912 8.981 3.177 13.153-2.767 2.024-7.558 2.993-10.622 2.16-.823-.24-2.173-.86-2.953-1.4-2.486-1.67-7.155-7.996-10.444-14.127-.68-1.285-1.039-2.182-.947-2.767.11-.697.862-.95 2.478-.889zm-43.445 14.212c2.672-.014 5.913.972 11.004 3.19 7.32 3.185 8.11 3.88 6.195 5.504-1.328 1.157-7.141 3.942-10.449 5.032-2.15.703-2.618.758-4.807.446-1.98-.281-2.678-.533-3.994-1.394-1.963-1.259-4.02-3.786-4.621-5.586-.307-.933-.401-1.814-.292-2.62.242-1.773 1.466-3.178 3.554-3.954a9.937 9.937 0 013.41-.618zm32.728 2.958c.518-.008 1.272.152 2.748.534 6.025 1.532 10.178 3.102 12.24 4.528 2.366 1.653 3.909 4.352 3.631 6.302-.405 2.85-4.154 4.886-8.452 4.55-3.085-.256-4.92-1.342-6.72-3.955-1.445-2.104-3.572-6.294-4.56-9.036-.35-.968-.515-1.535-.468-1.918.047-.385.306-.585.799-.82.245-.115.47-.18.782-.185zm-307.83 9.726c.301-.003.554.076.756.236.314.249.503.691.554 1.317.198 2.754-1.3 12.646-2.479 16.58-.723 2.332-.924 2.682-2.612 4.597-1.515 1.7-2.153 2.251-3.53 2.842-4.868 2.204-9.974 1.113-11.597-2.465-1.604-3.603.011-8.92 3.852-12.692 3.055-2.985 11.065-8.775 14.015-10.153.392-.172.74-.258 1.041-.262zm19.203 2.666c.228-.009.435.087.687.289.504.403.778 1.684 1.24 6.222.617 6.117.59 11.364-.032 14.21-1.068 4.73-5.475 8.325-11.045 8.947-2.115.236-2.998.16-4.327-.391-2.36-.983-3.22-2.221-3.5-5.119-.394-4.13 1.245-7.46 6.97-14.13 4.081-4.762 7.912-8.817 9.192-9.68.336-.224.586-.339.815-.348zm99.895 1.494A65.027 65.027 0 00162 115.6c-3.6.7-10.3 3.2-15 5.5-7 3.4-10.1 5.8-17.5 13.3-7.5 7.5-9.9 10.7-13.8 18.6-19.1 38.2-6.2 73.1 30.5 82.9 4 1.1 15.6 3.2 25.8 4.6 47.9 6.7 70.2 12.1 91.6 22 27.2 12.6 45.9 32.8 55.3 59.8 5.3 15 7.2 27 8.1 50.7.7 16.1 1.4 23.5 2.9 29.3 4.6 17.8 15.1 31.1 30.2 38.6 24.3 12 45 8.7 62.4-10 10.1-10.9 15-23.9 12.6-33.6-2.4-9.2-8.4-14.1-22.1-17.8-21.9-6-38.1-19.4-48-40-5.9-12.1-8.2-21.8-8.3-35.5 0-13.5 1.7-22.1 6.8-32.5 8.8-18.1 24.4-30.6 46-37 11.2-3.4 27.3-3.8 37.5-1.2 8.9 2.4 21.3 8.5 28.4 14.1 9 7 12 6.1 15.2-4.9 2.2-7.7 2.2-22.7-.1-31.5-6.9-27.1-28.1-44-55-44-16.7 0-30.7 6-43 18.4-6.8 6.9-9 10-14.9 21.3-5.8 11.3-7.9 14.2-13.7 19.7-26.4 24.9-71.1 20.7-91-8.6-5-7.3-8.2-15.8-10.4-27.3-2.3-12.3-6.4-22.5-13.4-33.1-17.635-26.662-45.449-42.86-72.331-43.246a68.179 68.179 0 00-1.865-.002zm7.085 21.569c1.534.056 2.9.635 3.83 1.752 2.117 2.576 1.994 7.272-.29 11.209-1.82 3.118-7.05 9.636-9.146 11.421-.562.458-1.058.595-1.459.425-.311-.132-.565-.451-.747-.95-.779-2.2-1.778-10.6-1.7-14.07.066-2.064.15-2.394 1.097-4.334.854-1.725 1.25-2.318 2.24-3.108 1.953-1.625 4.203-2.418 6.175-2.345zm-19.07.023c.264-.002.536.018.837.056 2.145.27 3.124 1.086 4.002 3.385 1.25 3.278.66 6.36-2.509 13.083-2.258 4.796-4.472 8.961-5.322 9.953-.447.515-.709.6-1.21.384-.5-.215-1.013-1.198-2.408-4.793-1.875-4.847-3.031-9.131-3.163-11.59-.19-4.096 2.595-8.014 6.995-9.77 1.254-.5 1.983-.702 2.777-.708zm35.806 7.414c.44-.037 1.408.21 2.196.548 2.577 1.106 4.317 4.03 4.413 7.49.06 1.44-.072 1.949-.963 4.025-.995 2.314-1.08 2.447-3.274 4.529-2.416 2.27-7.716 6.381-9.374 7.28-.643.339-1.127.455-1.478.324-.584-.218-.796-1.125-.75-2.836.13-4.975.762-10.526 1.484-13.326 1.094-4.193 4.56-7.791 7.746-8.034zm121.213 6.955c-5.188.037-10.438.537-13.938 1.487-11.6 3.1-20.8 11.4-23.6 21.3-2.1 7.1-1.4 18.5 1.7 26.6 3.1 8.3 13 18.2 21.4 21.5 8.7 3.4 24.5 3.5 32.8.1 21-8.4 30.5-33 20-52.2-4.4-8.2-13.3-14.5-24.8-17.5-3.25-.9-8.375-1.325-13.562-1.287zm-104.764 4.772c2.097.06 3.936 1.521 5.02 4.361 1.055 2.743.786 6.923-.59 9.271-.383.627-1.199 1.605-1.82 2.13-1.938 1.683-8.217 4.13-14.026 5.48-1.216.274-2.039.371-2.502.164-.883-.395-.457-1.897 1.036-5.373 2.1-4.892 4.802-10.063 6.308-11.988 2.12-2.764 4.476-4.105 6.574-4.045zm109.929 8.177a3.33 3.33 0 01.834.101c.972.205 2.175.902 2.686 1.528.263.325.433.663.511 1 .172.743-.104 1.488-.819 2.113-1.209 1.039-2.694 1.319-6.133 1.151-3.398-.164-3.816-.322-3.299-1.258.355-.662 2.251-2.648 3.405-3.582.75-.605.927-.699 1.847-.905.415-.093.703-.141.968-.148zm-16.696 4.274c.67.025 1.28.267 1.974.747.894.62 2.375 1.969 3.182 2.913.286.332.437.533.476.692.04.16-.034.28-.195.449-.215.22-.425.28-1.459.394-2.632.3-4.525.3-5.562.044-1.192-.302-2.214-1.144-2.398-1.963-.268-1.197.917-2.575 2.68-3.09.476-.136.9-.2 1.302-.186zm21.895 3.172c1.767-.058 3.708.706 4.48 1.932.195.303.313.538.37.773.072.303.042.608-.065 1.064-.312 1.261-1.567 2.388-3.413 3.067-1.393.512-9.253 2.17-9.83 2.074-.534-.078-.658-.341-.393-.811.402-.686 2.015-2.755 3.418-4.406 1.57-1.848 2.795-2.93 3.773-3.347a4.61 4.61 0 011.66-.346zm-105.177 3.127c.489.006.94.089 1.328.255 2.267.974 3.114 4.53 1.874 8.011-.903 2.496-2.214 3.771-4.779 4.676-2.063.725-6.006 1.546-8.496 1.75-.88.074-1.385.083-1.692-.042-.306-.125-.414-.383-.5-.844-.104-.61.046-1.026 1.08-2.843 2.616-4.642 4.845-7.726 6.487-9.113 1.423-1.19 3.229-1.867 4.698-1.85zm-76.786.302c.534.037.785.427.748 1.153-.114 2.438-5.264 16.93-7.032 19.731-1.748 2.754-4.43 4.656-6.731 4.685-.676.019-1.263-.07-1.805-.283-.696-.274-1.319-.755-1.963-1.476-1.22-1.372-2.03-3.699-2.124-6.113-.07-1.811-.004-2.094 1.052-4.551 1.045-2.435 1.226-2.724 2.543-3.882 2.634-2.317 12.804-8.69 14.683-9.183a1.9 1.9 0 01.629-.081zm155.92.999a5.25 5.25 0 011.386.113c1.243.29 4.06 2.105 6.296 4.052.465.41.743.712.794.96.099.47-.63.736-2.465 1.147-2.583.58-5.452 1-6.666.954-3.463-.096-4.908-2.232-3.252-4.76.797-1.225 2.56-2.336 3.906-2.466zm31.83 4.052c.283-.007.54.037.945.132 1.087.245 2.113.861 2.695 1.63.288.369.476.754.566 1.143.27 1.166-.337 2.369-1.729 3.287-1.511.987-3.445 1.21-7.233.843-3.344-.334-3.804-.497-3.511-1.198.256-.626 2.993-3.172 4.938-4.588 1.023-.746 1.192-.823 2.235-1.07.504-.114.811-.172 1.094-.18zm-31.454 5.752c.357 0 .746.067 1.485.205 1.618.312 4.82 1.248 5.665 1.654.323.16.511.322.56.501.083.299-.22.65-.922 1.13-2.042 1.397-4.462 2.76-5.8 3.285-2.007.782-4.468.434-5.494-.778-.143-.166-.327-.628-.42-1.044-.306-1.36.365-2.913 1.73-3.961.563-.444.806-.538 1.902-.784.611-.137.937-.207 1.294-.208zm-144.422 2.926c1.077-.053 1.167 1.553.614 7.275-.482 5.333-1.374 9.586-2.426 11.508-1.609 2.956-4.403 5.118-6.746 5.243-.835.037-1.841-.056-2.247-.23-2.29-.984-4.164-4.191-4.339-7.403-.141-2.435.692-4.903 2.218-6.679 2.157-2.521 10.442-8.913 12.403-9.597.195-.068.369-.11.523-.117zm177.782.817c1.444-.036 2.816.442 3.457 1.236.259.326.515.759.563.973.271 1.21-.476 2.898-1.719 3.905-.94.767-2.175 1.15-3.335 1.053-1.645-.133-6.634-1.608-7.481-2.198-.675-.47-.267-.893 2.552-2.545 2.288-1.36 4.261-2.239 5.342-2.376.207-.026.415-.043.621-.048zm-145.425 2.903c.295.053.551.325.778.818.643 1.463 2.112 6.532 3.15 10.765 1.158 4.737 1.476 8.012 1.004 10.098-.962 4.28-5.946 8.385-9.823 8.133-.725-.04-1.248-.122-1.698-.307-.58-.24-1.04-.65-1.657-1.36-1.686-1.996-2.044-5.373-.974-9.181.81-2.875 7.376-17.635 8.212-18.463.379-.389.712-.555 1.008-.503zm115.333 2.991c1.983 0 4.566.177 5.563.42.349.092.548.253.596.464.038.164-.016.358-.164.577-.659.955-3.751 3.805-5.172 4.786-.85.574-1.008.637-2.065.821-.944.16-1.298.173-1.905.005-2.176-.557-3.563-2.259-3.155-3.859.421-1.603 2.348-2.922 4.6-3.15a18.532 18.532 0 011.702-.064zm-133.062.28c.363-.037.612.19.861.596.719 1.157 1.64 8.619 1.654 13.458.008 2.547-.064 2.912-.89 4.903-.82 1.909-1.066 2.284-2.328 3.38-1.683 1.483-3.897 2.426-5.838 2.469-.94.034-1.787-.114-2.527-.426-2.218-.936-3.465-3.341-3.319-6.692.173-3.628 2.092-7.043 7.157-12.782 3.086-3.474 4.432-4.825 5.23-4.906zm163.216 3.838c1.39.047 2.65.551 3.247 1.355.205.267.34.528.412.809.092.36.079.752-.024 1.221-.197.891-.897 1.896-1.842 2.637-.71.556-.841.611-2.14.902-1.284.289-1.454.302-2.305.109-1.7-.386-7.23-2.626-7.977-3.239-.387-.31-.375-.604.029-.867 1.015-.665 8.354-2.814 9.998-2.918.202-.012.403-.016.602-.009zM213.23 199.85c.366.057.637.428.923 1.037.66 1.357 1.662 6.79 1.824 9.77.1 1.937.043 2.336-.705 4.078-.676 1.575-1.043 2.097-2.05 2.993-1.48 1.342-4.032 2.48-5.655 2.574-.84.045-1.592-.075-2.234-.346-1.413-.596-2.301-1.923-2.476-3.825-.267-3.195 1.028-5.946 5.356-11.35 2.938-3.675 4.21-5.059 5.017-4.931zm105.885.958c.337.03.449.112.508.376.06.265-.188.756-1.229 2.366-1.406 2.168-2.793 3.883-3.746 4.652-1.593 1.271-3.985 1.291-5.975.03-.756-.478-1.024-.735-1.315-1.265-.516-.943-.474-1.575.196-2.598.956-1.459 2.37-2.12 6.002-2.803 2.59-.488 4.912-.812 5.559-.758zm111.473 49.18c-4.656.069-9.463.738-14.388 2.013-19.2 5-31.8 15.9-37.8 32.5-7.4 20.5-1.4 46.3 14.5 62.5 12.8 13 28.4 17.6 45.9 13.5 36-8.5 54.6-38.7 43.8-70.9-3.6-10.5-7.2-16.3-15-24.2-10.425-10.425-23.043-15.619-37.012-15.413zm-270.472 8.199c-2.263.073-3.385.664-5.616 1.714-8.5 4-23.8 19.4-32.7 33-13.1 20.1-18.6 39.4-17.5 61.9 1.1 22.7 9.7 41.8 26.9 59.3 16 16.2 34.4 27.5 54.8 33.6 10.3 3.1 31.2 4.3 41.2 2.4 32.8-6.2 61.4-29 76.6-60.9 3.4-7.2 3.7-8.5 4.1-18.7 1-31.5-9.6-60.2-28-75.6-21.1-17.8-45.6-26.2-100.6-34.3-11.475-1.744-16.274-2.507-19.184-2.414zM39.1 267c-1 0-2.8 1-4.1 2.2-3.3 3.1-7.7 13.4-9.1 21.3-3.3 19 5.2 42.3 20.4 56.1 7.4 6.7 18 11.5 26.7 12.2 6.2.4 7 .2 9.3-2 2.1-2.1 2.5-3.6 3-12.3.7-13.1 3-23.6 7.9-36.7 2.2-5.9 3.8-11.7 3.6-12.9-.4-2.9-2.9-4.2-14.8-7.4-11.2-3-22.5-8.2-33.4-15.3-4.3-2.9-8.6-5.2-9.5-5.2zm389.614 0c1.566-.044 3.664.58 4.678 1.35.523.402.907.857 1.151 1.345.536 1.075.39 2.318-.476 3.538-1.47 2.037-3.642 3.014-8.972 4.024-5.266 1-5.966.914-5.518-.712.299-1.144 2.473-4.887 3.896-6.743.927-1.204 1.165-1.412 2.498-2.067 1.205-.592 1.688-.715 2.743-.735zm12.188 9.302c1.88.033 3.69.59 4.78 1.652.41.393.679.709.852 1.049.223.437.288.915.293 1.652-.014 2.047-1.52 4.24-4.098 5.96-1.948 1.296-13.378 6.73-14.297 6.796-.847.076-1.136-.28-.903-1.097.363-1.199 2.073-4.963 3.614-8.01 1.725-3.409 3.204-5.52 4.548-6.52 1.377-1.028 3.33-1.516 5.21-1.482zm-36.886 3.467c.831-.055 1.685.115 2.679.5 1.597.62 4.361 2.14 5.946 3.288.561.404.866.657.985.888.12.23.051.44-.133.757-.248.417-.549.588-2.09 1.141-3.923 1.429-6.822 2.127-8.505 2.115-1.938-.022-3.814-.935-4.398-2.122-.852-1.735.458-4.283 2.97-5.722.904-.512 1.714-.79 2.546-.845zm-189.384 7.066c.278-.009.56-.008.848.002 1.916.065 4.022.545 5.997 1.408 2.37 1.034 2.693 1.294 5.196 4.177 2.478 2.856 2.738 3.269 3.409 5.681 1.34 4.824 3.211 21.852 2.677 24.573-.256 1.4-1.018 1.767-2.232 1.103-3.062-1.662-18.485-17.283-20.987-21.296-2.453-3.957-3.23-8.583-1.837-11.56.396-.88.875-1.579 1.485-2.142.785-.725 1.789-1.225 3.116-1.604a9.73 9.73 0 012.328-.342zm236.962.522c1.756-.024 3.554.544 4.73 1.507.577.46 1.005.98 1.286 1.543.843 1.687.359 3.753-1.436 5.672-1.952 2.07-4.835 3.124-10.774 3.956-5.246.72-6.008.641-5.818-.54.162-1.055 3.417-5.964 5.876-8.85 1.293-1.52 1.52-1.7 3.027-2.463 1.461-.718 1.798-.816 3.109-.825zm-49.59 5.326c2.011-.013 6.994 1.731 11.138 3.89.863.456 1.402.818 1.571 1.177.325.685-.694 1.362-3.354 2.669-3.743 1.84-7.986 3.539-9.863 3.917-5.34 1.128-8.342-1.614-6.737-6.098.77-2.17 3.062-4.52 5.077-5.215.548-.178 1.531-.344 2.168-.34zm-212.062 6.844c1.95-.04 4.003.316 5.856 1.091 3.217 1.331 5.87 3.936 7.204 7 1.9 4.338 4.966 18.953 4.626 21.899-.27 2.345-1.894 1.89-9.905-2.986-6.554-3.931-11.462-7.721-13.279-10.267-2.798-3.903-3.841-8.837-2.546-11.925.472-1.097 1.216-2.33 1.692-2.744 1.512-1.312 3.846-2.017 6.352-2.068zM459.3 301.04c1.182.057 2.238.372 2.967.932.515.404 1.066.971 1.218 1.281.862 1.753.341 4.615-1.192 6.616-1.157 1.52-2.91 2.564-4.723 2.843-2.568.4-10.755-.02-12.27-.612-1.208-.473-.738-1.27 2.971-4.839 3.005-2.927 5.704-5.001 7.31-5.609a9.355 9.355 0 013.72-.612zm-50.58 6.608c2.639.036 5.86.237 6.944.47.555.127.904.305 1.046.561.236.428-.1 1.075-1 2.07-2.612 2.894-5.819 5.873-7.675 7.17-2.788 1.937-6.685 2.311-8.704.832-.28-.202-.73-.841-1.027-1.444-.969-1.972-.514-4.6 1.193-6.707.697-.887 1.036-1.121 2.625-1.902 1.77-.87 1.89-.906 4.256-1.027.649-.03 1.463-.035 2.343-.023zm-240.313 8.514c1.816-.027 3.836.515 5.943 1.649 4.555 2.477 7.752 7.064 11.98 17.137 3.705 8.907 3.923 10.289 1.753 10.503-1.933.205-12.095-3.247-18.32-6.236-3.28-1.572-3.703-1.89-5.747-4.19-1.944-2.239-2.272-2.787-2.898-5.09-.86-3.083-.696-6.515.454-9.035.54-1.23 1.258-2.226 2.118-2.982 1.29-1.135 2.902-1.73 4.717-1.756zm293.703.31c1.47-.012 2.795.351 3.66 1.074.412.333.716.684.93 1.087.274.518.4 1.122.415 1.88.027 1.437-.678 3.233-1.853 4.717-.881 1.114-1.063 1.249-2.944 2.173-1.863.915-2.118.996-3.492 1.013-2.748.036-12.046-1.356-13.415-2.021-.708-.332-.797-.789-.274-1.34 1.31-1.392 11.762-7.388 14.242-8.154a9.672 9.672 0 012.73-.429zm-40.85 3.586c.568.014.934.186 1.085.49.118.238.107.557-.04.946-.657 1.706-4.345 7.213-6.16 9.238-1.092 1.194-1.31 1.347-2.861 2.019-1.387.59-1.925.742-2.917.707-3.539-.051-6.29-2.145-6.255-4.747.055-2.611 2.52-5.342 5.886-6.52 2.672-.928 9.105-2.139 11.262-2.133zm11.209 7.102c.288.008.436.127.577.414.188.384-.008 1.228-1.01 4.078-1.356 3.84-2.852 6.977-4.028 8.507-1.973 2.534-5.627 3.446-9.14 2.248-1.335-.455-1.844-.75-2.485-1.454-1.138-1.255-1.303-2.238-.653-4.054.928-2.586 2.849-4.121 8.16-6.505 3.788-1.703 7.228-3.053 8.239-3.21.132-.019.244-.027.34-.024zm-278.817 14.033c3.188.015 6.843 1.665 10.279 4.705 3.19 2.827 18.078 20.434 18.622 22.022.528 1.457.034 2.13-1.514 2.1-2.28-.083-9.707-1.343-15.79-2.64-6.808-1.454-11.212-3.079-13.6-4.982-4.9-3.894-7.08-12.85-4.347-17.676.5-.908.931-1.528 1.45-1.991.667-.596 1.48-.931 2.776-1.283a8.373 8.373 0 012.124-.255zm88.923 2.301c1.154-.02 2.921.077 5.665.297 7.393.602 13.616 1.78 16.857 3.138 5.382 2.299 8.688 8.312 8.21 15.057-.18 2.563-.463 3.594-1.407 5.051-1.68 2.588-3.337 3.338-6.837 3.038-4.988-.431-8.583-3.103-15.251-11.352-4.761-5.881-8.739-11.312-9.485-13.02-.384-.894-.329-1.284.259-1.794.294-.255.835-.395 1.99-.415zm-8.235 22.141c.165-.006.342 0 .53.02 3.311.365 14.726 4.298 19.138 6.554 2.61 1.367 2.982 1.683 4.887 4.103 1.686 2.17 2.202 3.047 2.603 4.81 1.555 6.258-.855 12.078-5.455 13.224-4.625 1.118-10.582-1.956-14.222-7.337-2.877-4.276-8.002-15.044-8.994-18.845-.24-1.008-.107-1.731.36-2.14.273-.24.659-.37 1.153-.389zm-92.682 1.194c.857.008 1.772.188 2.729.546 4.272 1.643 7.002 5.015 11.259 13.934 4.211 8.811 4.384 10.085 1.312 10.052-2.155.005-9.759-2.083-13.689-3.727-2.552-1.074-3.028-1.396-4.802-3.44-1.603-1.847-2.046-2.64-2.572-4.49-.805-2.737-.68-6.723.207-8.867.464-1.109 1.085-1.997 1.832-2.654 1.028-.903 2.295-1.367 3.724-1.354zm74.251 14.328c.727.033 1.742.41 3.098 1.112 6.313 3.257 13.053 7.517 16.201 10.183 4.71 4.012 7.18 10.703 5.513 14.947-.226.589-1.143 1.68-2.067 2.482-3.023 2.624-7.862 3.043-12.37 1.016-1.886-.816-2.456-1.302-4.57-3.738-2.356-2.715-2.474-2.908-3.786-7.02-1.415-4.515-3.407-13.878-3.532-16.567-.035-1.037.116-1.733.502-2.102.242-.23.575-.333 1.011-.313zm-18.67 8.663c1.08.005 2.719 1.602 5.595 4.916 4.98 5.738 9.947 12.423 11.486 15.554 4.47 8.881 1.036 15.443-7.609 14.7-4.18-.347-9.383-3.29-11.545-6.518-.569-.88-1.32-2.537-1.609-3.66-.959-3.537-.201-13.126 1.673-21.428.402-1.733.79-2.849 1.343-3.315a.995.995 0 01.667-.25zm-23.01 8.106c.224-.012.484.038.807.126.85.244 1.29.696 2.982 3.154 4.34 6.245 6.92 11.025 7.682 13.995.861 3.424.124 7.157-1.695 8.736-2.66 2.309-7.756 1.186-11.458-2.57-2.646-2.71-3.47-5.186-3.04-9.044.351-3.102 1.744-8.68 3.03-12.005.45-1.176.753-1.83 1.104-2.147a.906.906 0 01.588-.245zm137.627 19.371c-2.083.03-4.244 2.722-8.356 7.404-8.7 10-14.1 15.1-23.9 22.5-7.3 5.4-28.4 16.799-31.3 16.799-.6 0-2.1 1.1-3.2 2.5-2.7 3.6-1.3 7.2 5.1 13 9.6 8.6 22.2 12.9 37.8 12.9 17.5-.1 31.1-5.4 42.5-16.9 7.3-7.3 11.8-14.9 11.8-19.7 0-2.1-1.9-4.7-7.9-11-4.4-4.6-9.3-10.4-10.9-13-6.412-10.182-8.965-14.541-11.644-14.503z" fill="#f2f2f2"/></svg>