<svg version="1.0" xmlns="http://www.w3.org/2000/svg" width="682.667" height="682.667" viewBox="0 0 512 512"><g fill="#f2f2f2"><path d="M230.9 20C216.2 21.8 194 34.3 160 60.1c-13.6 10.3-16.5 13.2-15.6 15.5.9 2.4 5.8 1.4 32.9-6.6 23.6-6.9 44.4-12 49-12 1.7 0 3.2.9 4.3 2.5 1.5 2.4 1.5 3.1-.6 12.3-4.1 18.1-11.7 39.8-26.4 75-4.2 10.1-7.6 19.9-7.6 21.6 0 5.6 4.1 7.8 23 12.2 23.3 5.4 53.9 5.5 76.2.3 11.2-2.6 14.6-4.2 15.8-7.4 1-2.6-1.1-53-3-72.9-2.7-27.6-9.7-50.4-19.8-64.3-6.8-9.2-19.6-14.6-38.3-16.3-6.3-.5-11.6-.9-11.9-.9-.3.1-3.5.5-7.1.9z"/><path d="M166.5 146.7c-62.5 5.4-106.2 18.6-116.2 35.1-2.9 4.6-2.9 6.4-.1 11.4 14 24.9 109.8 47 204.8 47.2 17.7.1 34.5-.4 42-1.2 63.6-6.6 114.3-21.4 145.9-42.6 10.1-6.8 17.6-13.5 18.6-16.6 2-6.3-9.3-11-42.5-17.9-24.3-5-68.6-11.1-80.6-11.1-8.6 0-9 .7-8.5 13.9.9 20 1.1 18.9-3.8 23.2-15.7 13.9-67.5 19.1-108.2 10.9-17.3-3.5-35.9-11-42.1-16.8-3.7-3.4-3.6-5.9 1.2-18.1 4.8-12.3 5.1-15.7 1.4-17.1-2.5-1-3.9-1-11.9-.3zm216.7 97.5c-.5.7-1.3 5.8-1.6 11.3-1.3 21.4-1.6 18.8 2.9 20.3 2.1.7 6.9 1.2 10.5 1 6.5-.3 6.5-.3 6.8-3.4.3-3-7.4-22.1-11.3-28.1-1.7-2.5-5.6-3.1-7.3-1.1zm-265.9 3c-1.1 1.3-4.3 9.2-7.1 17.5C97.1 303.7 79 342 46 400.9 31.9 426.3 29 433 32.4 433c2.8 0 7.7-2.9 14.9-8.8 18.6-15.1 35.8-40.3 60.7-89.1 6.9-13.5 13.2-24.9 14.1-25.4 4.3-2.6 13.9 2.8 13.9 7.7 0 2.9-15.8 34.9-28.4 57.4-13.7 24.4-41 63.4-60.7 86.5-12.8 15-15 17.9-14.7 19.5.5 2.4 3.9 3 9.3 1.7 4.6-1.2 6.5-2.9 26-22.7 21.5-21.7 30.2-32.2 37.6-45.1 2.3-3.9 4.9-7.8 5.7-8.5 3.7-2.9 13.4-.3 14.5 3.8 1.7 6.4-8.9 24.2-25.9 43.5-9.6 11.1-11.1 13.2-9.6 14.7 2.5 2.5 17.2-3.5 24.1-9.7 9.1-8.3 18.5-23.6 23.5-38.7 3.4-10.1 6-22.4 9.1-42.3 3-19.4 3.8-22.3 7.3-23.6 3.1-1.2 9.3.4 11.8 3.2 1.8 2 1.8 2.4-.5 18.2-4.8 33.9-9.5 51-19.2 69.5-3.2 6.3-5.9 12.4-5.9 13.6 0 2.5 2.5 5 11.9 12.1 3.5 2.7 9.3 7.5 12.9 10.7 11.2 9.9 12.6 8.5 16.7-16.4 4.8-30.1 7.2-59.7 8.1-102.3.3-14.9 1-28.2 1.6-29.7 1.2-3.2 5.8-5.1 10.5-4.2 5.8 1.1 6.3 2.9 6.3 20.9-.1 14.6-.5 25-2.6 68.5l-.7 14.5 4.7 11.2c2.6 6.1 5.6 11.9 6.7 12.9 2 1.8 2.1 1.8 3.4.1.7-1 1.6-5.5 1.9-10 1.1-14.2 8.6-169.1 8.6-177.1 0-10.1-1.1-11.2-11.7-12.1-36.8-3.1-60.3-6-81.9-10-16-3-16.6-3.1-19.1-.3zm232.4 5.1c-1.8 1.9-4 4.6-5 6.1-1.1 1.5-3.4 3.5-5.3 4.4-4.8 2.2-4.3 5.2 1.1 7 10.4 3.5 23.5-4.1 23.5-13.6 0-7.5-8.7-9.9-14.3-3.9z"/><path d="M299 260.2c-.5 1.3-1.4 5-2 8.2-1.3 7.9-5.6 15.2-11.8 20.2-6.9 5.8-14.7 8.5-26 9.1-12.4.8-12.4.8-13 20l-.5 14.4 3.2 6.2c4.6 9.1 12.4 19.2 17.8 23.1 6.3 4.6 13.1 7.1 26.1 9.7 12.5 2.5 15.2 3.7 18.8 8.5 3.3 4.3 4.3 12.2 2.4 19-1.7 6.1-8.6 13.5-15 16.3-9.9 4.3-18.2 3.1-47.8-6.6-6.3-2-8.2-1.3-9.5 3.7-1.2 4.8.6 10.8 6 20.4 14.5 25.3 27.9 39.8 47.1 51 10.2 5.9 17.2 7.8 28.7 8 12.1.1 15.5-1.3 15.5-6.7 0-1.7-3.9-19-8.6-38.2-6.1-24.3-8.5-35.8-8.1-37.7.5-2 3-4.3 8.5-8 12.9-8.7 26.8-24.1 28.7-32 .5-2.1.2-3-1.8-4.2-2.6-1.8-39.7-8.5-60.6-11.1-17.8-2.2-23.6-5.7-29.8-17.9-1.9-3.7-2.7-7.1-3.1-12.6-.4-7.1-.3-7.8 2.3-10.8 1.9-2.3 4.6-3.8 9.3-5.2 10-3.1 25.5-5.2 36-4.8 10.9.4 12.2 1.3 12.2 8.8 0 7.7-.9 8.3-15.4 9.1-6.9.4-14.1 1-15.9 1.4-7.6 1.6-9.9 6.1-5.3 10.4 2 1.9 5.4 2.7 22.2 5.1 11 1.6 26.2 4 33.9 5.4 31 5.5 50.4 5.8 73.4 1 11.3-2.4 13.3-2.5 19.8-1.5 10.4 1.6 18 4.3 33 11.8 11.7 5.9 13.3 6.5 14.8 5.3 1.5-1.2 1.7-2.6 1.2-8-1.7-18.5-10.7-36.9-20.3-41.1-10.6-4.7-37.8-9.9-80.4-15.4-43.1-5.6-50.6-7.1-61.3-12.8-6.9-3.6-11.9-9-13.7-14.9-2.1-6.9-3.7-8.8-7-8.8-2.2 0-3.3.6-4 2.2zm-31.5 4.6c-3.6 5-6.9 7.2-11 7.2-3.6 0-5.5 1-5.5 3.1 0 2.6 3 3.9 9.2 3.9 12.1 0 23.4-11.5 17-17.3-3.3-3-5.9-2.1-9.7 3.1z"/><path d="M385 366.3c-2.4 1.2-3.9 3.2-13 17.9-2.8 4.6-9 11.8-16.7 19.4-11.5 11.4-12.3 12.4-12.3 16 0 4.5 4.2 21 6.6 25.7 2.1 4 23.4 25.2 26.4 26.2 4.1 1.3 4.5-.5 2.7-14.2-.9-7.1-2-18.7-2.3-25.8-.6-13.6.2-18.5 3.1-18.5.9 0 4.6 2.8 8.3 6.3 12.3 11.5 22 16.8 38.8 21.2 10.8 2.8 15.6 3.1 17.3 1.1 1.6-1.9.7-3.8-7.4-15.1-10.3-14.2-19.1-28-28-43.5-4.2-7.4-8.7-14.5-10.1-15.8-2.9-2.5-9.3-3-13.4-.9zm-141.1 7.4c-1.4 3.7-.4 8.5 2.4 11.1 5.1 4.8 31.6 14.2 40.1 14.2 7.4 0 11.3-5.2 6.4-8.4-1.3-.8-4.5-2-7.3-2.6-11.2-2.4-21-6.4-28.7-11.6-9-6.1-11.4-6.6-12.9-2.7z"/></g></svg>