<svg version="1.0" xmlns="http://www.w3.org/2000/svg" width="682.667" height="682.667" viewBox="0 0 512 512"><path d="M242.1 22.1c-8.2 1-14.9 3.3-17.8 6.1-2 1.9-2.3 3.1-2.3 10.2 0 4.8 1.1 13 2.6 20.1 4 19.1 4 19 1.3 20.9-1.7 1.1-4.5 1.6-10.1 1.6-8.3 0-12.2 1-13.1 3.3-.9 2.5 1.2 8.6 4.2 11.9 2.7 3 3.1 3.1 15.2 4 18.7 1.4 68.6.5 72.4-1.3 3.4-1.6 7.5-8.2 7.5-12.1 0-4.4-3.2-5.8-13-5.8-11.1 0-12.5-.9-11.7-7.6.3-2.7 1.3-8.7 2.2-13.4.8-4.7 1.9-13.3 2.2-19.2.6-10.4.5-10.7-1.9-13.1-2.8-2.8-6.9-4.1-17.3-5.7-7.9-1.1-11.3-1.1-20.4.1zm-13.8 98.1c-3.3 1.6-4.6 6.9-4 15.7 1.1 14.9 7.4 28.1 16.5 34.5 5.8 4.1 14.2 4.8 20.6 1.7 11.4-5.6 19.5-21.8 19.6-39.3 0-7.8-1.2-11.1-4.7-12.7-3.2-1.5-44.9-1.4-48 .1zm171.1 7.3c-1.2 1.9-1.5 4.1-1.2 8.8.3 5.9.9 7.2 7.3 17.3 12.2 19.1 13.5 19.9 27 16.4 10.5-2.7 17.9-6.4 23.7-11.8 7.5-7 8.6-13.9 3.2-20.9-3-3.9-11.9-9.3-15.4-9.3-1.4 0-6.3 1.8-11 4-11.5 5.4-13.3 5.3-21.5-1.5-3.7-3-7.6-5.5-8.6-5.5s-2.6 1.1-3.5 2.5zm-21.9 44.6c-11.4 6.2-26.5 11.1-44.1 14.4-8.2 1.5-14.5 3.2-15.6 4.2-2.1 1.9-2.4 9.4-.7 15.6 1.6 5.9 4.2 6.4 15.2 2.6 21.2-7.2 54.4-21.7 61.7-26.9 2.4-1.7 3-2.9 3-5.6 0-4.3-4.6-9.4-8.2-9.3-1.3 0-6.3 2.2-11.3 5zm-179.8 12.7c-2.3 2.6-2.1 6.1.9 15 5.6 16.6 16.1 34.9 29.1 50.9 8.7 10.8 12.6 14.3 15.8 14.3 2.7 0 3.5-1.7 3.5-7.1 0-5.5-1.7-8.3-10-16.2-11.9-11.5-17.3-20.8-24.5-41.8-2.5-7.3-5.3-14.1-6.2-15.1-2.1-2.3-6.5-2.3-8.6 0zm31.7 4.7c-2 5.1 8 26.6 16.4 35.4 6.8 7.2 10.5 8 14.9 3.3 5.3-5.7 14.3-27.9 14.3-35.3 0-4.1-2-4.5-10.3-2.4-9 2.3-17.6 2.2-25.1-.4-7-2.5-9.5-2.6-10.2-.6zm64.4 12.2c-.9 1-3 5.8-4.8 10.8-4.4 12.2-9.1 21.1-15 28.1-2.7 3.3-5.7 7.2-6.7 8.9-2.2 3.9-2.3 12.9-.1 15.1 1.4 1.4 1.8 1.4 4.7 0 9.1-4.8 25.6-31 26.8-42.6.5-6-1-19.7-2.5-21.2-.5-.5-1.5-.1-2.4.9zM183 224.5c-2.5 6.5-7.1 72.5-5.4 77.2.6 2 1.7 2.9 3.6 3.1 3.2.4 10.3-3.1 11.7-5.7.6-1 1.5-7.8 2.1-15.2.6-7.4 1.8-19 2.5-25.9 1.7-14.8 1.4-16.3-5.2-27.5-5.2-8.7-7.7-10.3-9.3-6zm32 47.4c-1.3 2.5-3.4 26.5-2.5 29.8.7 3 12.3 16.9 14.8 17.8 2.9 1.1 4.6-1.2 7.2-9.9 4.3-14.1 4.8-18 3.1-21.4-2.1-4-17.4-18.2-19.6-18.2-1.1 0-2.4.9-3 1.9zm66.2 9.6l-9.5 9.5.5 4.7c.6 5.6 6.8 20.6 10.9 26.3 3.4 4.7 6.5 5.2 7.9 1.5 1.4-3.7 2.8-13 4.5-30.7 2.3-24.7.5-26.1-14.3-11.3zM36.1 297.9c-4.1 4.1-3.4 13.3 1.3 15 1.3.6 27.6 4.5 58.5 8.7 41.8 5.8 56.7 7.6 58.8 6.8 5.4-1.9 4.9-13.4-.7-16-2.2-1.1-108.9-16.4-113.9-16.4-1.2 0-2.9.8-4 1.9zM192 321.8c-4.1 2.2-8 9-8 13.9 0 11.3 10.3 19.2 19 14.5 4.1-2.2 8-9 8-13.9 0-11.4-10.2-19.2-19-14.5zm74.3 17.4c-1.3 2.1-1.6 65.7-.4 69.9 1.4 4.6 5.1 6.3 12.3 5.7 8.9-.9 8.9-1 8.6-29.3l-.3-24.2-4.9-7.4c-9.4-14.3-13.2-17.9-15.3-14.7zm-32.8 17.1l-9 13.2-.3 20.1c-.3 18.7-.2 20.2 1.7 22.5 1.7 2.2 2.7 2.4 9.6 2.4 12.1 0 11.5 1.8 11.5-35.9 0-17.1-.3-32.1-.6-33.4-1.2-4.4-3.9-2.1-12.9 11.1zm-37.9 21.3c-1.3 1.2-1.6 4-1.6 13.8 0 10.8.3 12.6 2 14.8 2.4 3.2 5.3 4 7.7 2.3 1.6-1.2 1.8-3 1.8-14v-12.7l-3.3-2.9c-3.7-3.3-4.5-3.5-6.6-1.3zm31.9 56.6c-1.1.6-2.2 1.3-2.5 1.5-.3.3-.7 7.2-1 15.4-.6 17.7-.9 18.2-11.6 20.4-7.9 1.7-11.5 4.7-13.5 11.5-1.1 3.6-1 4.3.5 5.8s4.2 1.7 22.7 1.7c20.9 0 21.1 0 23-2.4 1.8-2.1 1.9-4.2 1.9-26.5 0-13.2-.4-24.6-.8-25.2-2.2-3.3-14.2-4.7-18.7-2.2zm40.4.7c-2.4 1.9-2.4 2.2-2.7 24.3-.4 24.5.2 28.8 4.3 30.6 1.8.8 11.3 1.2 29.9 1.2 24.9 0 27.6-.2 29.6-1.8 2.9-2.3 2.1-6.4-2.1-11.5-3.7-4.5-6.8-5.4-22.2-6.6-17.5-1.4-17.7-1.6-17.7-22 0-6.4-.4-12.1-.8-12.7-2.5-3.8-14.3-4.8-18.3-1.5z" fill="#f2f2f2"/></svg>