<svg version="1.0" xmlns="http://www.w3.org/2000/svg" width="682.667" height="682.667" viewBox="0 0 512 512"><g fill="#f2f2f2"><path d="M56.8 25.9c-5.7.8-7.7 2.4-6.2 4.8.6.9 7.5 5.2 15.5 9.6 26.1 14.3 44.8 27.6 59.6 42.4 8.1 8.1 11.9 13.5 10.8 15.3-.9 1.4-5.1 1.2-11.5-.5-7.8-2.1-21.1-4.3-31-5-21.1-1.7-54.4 5.5-63.4 13.6-2.8 2.5-2.9 2.9-1.6 4.3.9.9 6.5 2.4 14 3.6 33.3 5.6 56.9 14.5 73.9 27.7 14.9 11.6 14.5 14-2.4 17.3-25.1 4.9-51.1 18.5-68 35.5-8.5 8.5-11.1 12.4-10.2 14.9.9 2.3 3.5 2 15.5-1.5 35.5-10.3 65.3-11.6 89-3.8 6.3 2.1 8.7 4.4 7.6 7.3-.3.9-3.4 3.8-6.8 6.5-13.6 10.8-27 27-34 40.9-6.5 12.9-10.7 31.8-7.6 33.7 1.5.9 4.7-1.2 12.6-8.6 13.3-12.2 25.6-20 41.9-26.3 11.5-4.4 21.2-6.9 24.1-6.2 3.3.9 3.6 3.3 1.5 11.1-3.6 12.8-5.1 23.6-5.1 35.4 0 13 2.5 27.2 5.9 33.9 3.9 7.6 6.5 5.1 10.6-10.3 4.7-17.6 12.6-34.2 20.2-42.6 4-4.5 7.4-5 9.8-1.7 2.4 3.4 8.3 22.5 10 32.4 4 23 .3 52.5-9.2 72.4-4 8.2-5.8 10.7-14.2 19-11 10.9-19.8 16.2-31 18.5-8.5 1.8-15.5.7-22-3.3-11.3-6.9-12.1-23.3-1.7-31.9 8.7-7.1 17.8-7 36.2.7 4.4 1.9 8 .6 11.4-4.2 3.9-5.3 4-9.5.3-13-4.1-3.7-10.9-7.3-18.8-10-10-3.3-26.1-3.3-35.8 0-13.3 4.6-23 13.1-28.3 24.7-3.3 7.1-4.5 22.2-2.4 31.3 3.6 16.5 15.9 28.7 33.5 33.2 27.5 7 60.6-4.3 85.6-29.2 24.7-24.7 45.2-73.7 51.9-124.2 2.1-15.7 3.2-18 7.4-15.3 6.2 4.1 15.7 22.9 21 41.4 1.9 6.6 3.9 13 4.5 14.2 2.9 5.4 7 .1 10-12.9 4.1-17.6 3.6-33.8-1.5-54-2.8-11.1-2.9-13.3-.9-15 1.9-1.6 8.8-.2 21.5 4.2 18 6.4 30.2 13.8 46.8 28.5 5.2 4.6 9.9 8.2 10.5 8 3.9-1.3 3.1-9.5-2.7-24.7-6.5-17.4-19.1-34.6-34.7-47.5-9.4-7.8-9.9-8.3-9.9-10.8 0-4.8 17.5-9.7 38-10.4 16.2-.6 29.9 1.1 50 6.4 22.1 5.8 21.9 5.8 23.2 4.5 2.2-2.2-.5-6.8-9.5-15.8-17.5-17.4-39.2-28.9-66.2-34.9-6.6-1.5-12.6-3.1-13.2-3.7-3.2-2.7-.3-7 9.7-14.5 17.5-13.1 38.9-21.2 71-26.8 20-3.5 21.7-5.9 8.8-12-14.9-7.1-38.9-11.2-57.7-10-5.8.4-15.7 1.8-22 3.2-16.5 3.6-20.1 3.9-20.1 1.9 0-3.3 3-7.2 12.2-16.1 15.8-15.3 30.5-25.9 56.6-40.4 16.5-9.1 19-11.3 15.9-13.6-2.7-1.9-15.2-2.9-28.6-2.1-50.4 2.8-93.7 22.1-128.7 57.1-14.4 14.4-21.3 25.2-24.9 39-4 15.6.3 32 10.3 38.9 2 1.4 7.1 3.7 11.2 5.2 9.6 3.6 17.9 11.3 19.9 18.7 3 10.5-.5 23.7-9.5 36.6-2.9 4.2-7.7 11.2-10.7 15.6-10.6 15.6-22.2 23.4-36.4 24.3-15.3 1-27-4.8-39.4-19.2-4.1-4.8-9.7-11.4-12.6-14.8-8.6-10.1-15.3-25.1-15.3-34.3 0-5.5 2.8-12.9 6.5-17.3 3.4-3.9 8.3-6.7 20.5-11.8 12.6-5.3 18.9-18.6 16.9-35.6-2-16.7-9.9-29.9-29-48.3-29.2-28.1-65.2-46-104.7-52-11.3-1.8-37.6-2.7-44.4-1.6z"/><path d="M247.1 172.7c-12.3 4.5-21.2 21.1-19.8 37.3 1.1 13.1 8.4 25.3 18 29.9 12.7 6.2 27.8-.9 34.9-16.5 2-4.2 2.3-6.6 2.3-16.4 0-10.5-.2-12-2.8-17.5-6.8-14.5-20.2-21.4-32.6-16.8zM366.3 340c-1.3.5-2.3 1.8-2.3 2.9 0 2 2.7 4.6 15.4 14.3 12 9.2 11.7 10.5-3.4 15.4-10.3 3.4-16.4 6.4-22.7 11.1-3.3 2.4-4.3 5.8-2 6.6.6.2 7.3.2 14.7-.1 22.8-.8 39 4 50.4 15.1 7.3 7.2 9.8 12.4 10.4 21.8.9 15.8-7.7 33.1-20.3 40.4-26 15.3-83.8-2.7-131.5-40.9-11.4-9.1-14-9.6-18.9-4.1-3.1 3.6-3.9 7.2-2.2 10.4.6.9 5.6 5.4 11.3 9.8 29.6 23.2 63.7 40.2 93.2 46.5 13.4 2.8 34.1 3.1 43.6.4 16.1-4.4 28.7-15.1 36.5-30.9 6.2-12.6 7.9-21 7-36.2-1.4-26.6-7.4-41.6-22.9-58.3-6.7-7.1-19.2-15.8-28.1-19.5-6.1-2.6-19.6-5.8-23.7-5.6-1.3 0-3.3.4-4.5.9z"/></g></svg>