<svg version="1.0" xmlns="http://www.w3.org/2000/svg" width="682.667" height="682.667" viewBox="0 0 512 512"><g fill="#f2f2f2"><path d="M254.4 40.8c-5.4 3.5-16.3 45.8-27 104.7-5.4 29.8-5.9 37.2-2.9 40.5 4.9 5.4 17.3 9 31.5 9s26.6-3.6 31.5-9c3-3.3 2.5-10.7-2.9-40.5-9.7-53.8-21.1-98.9-26.2-104-1.7-1.7-2.4-1.8-4-.7zM69.3 68.9c-9.5 6.8-24.9 26.9-33.1 42.8-10.5 20.7-13.7 33.8-13.6 56.8 0 13.3.4 17.6 2.3 25.5 3.8 15.3 9.6 28.9 17.8 42 6.8 10.7 10.8 13.3 13.7 8.7C58.9 240.9 80 179 80 175.5c0-1.8-2.1-7.7-5-13.8-7.7-16-10.3-27.1-10.3-44.2-.1-15.9.9-21.3 7.3-38.2 2.2-5.9 4-11.3 4-12 0-2.1-2.4-1.5-6.7 1.6zM436 67.3c0 .7 1.8 6.1 4 12 6.4 16.9 7.4 22.3 7.3 38.2 0 17.1-2.6 28.2-10.3 44.2-2.8 6-5 12-5 13.8 0 3.5 21.1 65.5 23.6 69.2 2.9 4.6 6.9 2 13.7-8.7 8.6-13.7 15-29.3 18.4-45.3 2.2-10.2 2.4-34 .4-44.2-4.7-23.7-17-47.4-35.1-67.6-9-10.2-17-15.6-17-11.6z"/><path d="M195.9 135.4c-38.7 16.8-65.7 56.1-80.9 117.8-10.6 43.2-16.7 101.2-17.1 162.5-.1 16.9.1 20.7 1.4 22.7 2.8 4.2 28.8 16.5 51.9 24.5 13.1 4.5 35.8 10.3 48.8 12.5 14.3 2.4 29.5 4 32.3 3.2 4.9-1.2 5.2-3.5 3.8-27.4-1.8-32.5-8-94.9-10.2-103.5-1.2-4.5-4.1-6.1-12.9-7.2-22.7-2.9-49.5-10.4-66.6-18.5-11.6-5.6-15.4-9.2-15.4-14.8 0-6.5 3.8-27.2 5.5-29.8 2-3.2 4.5-3.1 17.9.7 65.4 18.2 138.7 18.2 203.6-.1 13-3.7 15.5-3.8 17.5-.6 1.8 2.6 5.5 23.4 5.5 30.2 0 5.3-2.9 8.3-13.2 13.5-18 9.1-38.1 15-63.3 18.9-18.7 2.8-18 2-20.5 22.1-5.1 41.3-10.1 106.4-8.7 112.2 1.2 4.6 4.2 5.2 17.5 3.8 23.8-2.5 50.1-8.7 74.9-17.7 17.6-6.3 42.7-18.6 44.9-21.9 1.5-2.4 1.6-5.5 1.1-34.8-2.4-123.7-23.1-203.9-63.2-244.3-14.2-14.4-37.3-28-46.3-27.2-3.6.3-3.7.4-4 4.6-.2 2.4.2 6.9.8 10 1.1 5.4 1.7 6.2 10.5 14.5 11.8 11.2 13.9 15.4 17.2 36.1 1.4 8.3 2.6 19.1 2.6 24.1.2 8.7.1 9.2-3.1 13.8-6 8.6-17.9 15.7-36.2 21.5-10.2 3.2-27.3 6.2-36 6.2-13.6 0-36-5.1-50.7-11.6-8.4-3.7-17.8-10.8-21.5-16.2-3.1-4.5-3.3-5.1-3.2-13.2.1-4.7 1.3-15.8 2.7-24.7 3.4-20.9 5.2-24.8 17.5-36.3 8.5-8 9.1-8.8 10.2-14.2.6-3.1 1-7.6.8-10-.3-4.3-.3-4.3-4.3-4.5-2.7-.1-6.5.9-11.6 3.1zm-94.2 33c-1.4 1.5-8.9 21.6-20.5 55.3-14.2 41-18.3 53.8-18 56.9.3 3.9.4 3.9 9.8 8.6 10.3 5.2 15.3 6 16.9 2.9.6-1 2.4-9 4.1-17.7 7.1-36.4 16.5-65.2 28.5-88.1 2.5-4.7 4.5-9.3 4.5-10.2 0-2.9-3.4-5.1-11.7-7.7-9.7-3-10.9-3-13.6 0zm301.8-1.9c-.5.2-4.1 1.3-8 2.5-7.6 2.4-10.5 4.3-10.5 7.1 0 .9 1.8 5 3.9 9.1 12.5 23.6 22.1 53 29 89.1 1.7 8.6 3.5 16.6 4.1 17.7 1.7 3.2 6.7 2.5 16.8-2.5 10.3-5 11.8-6.9 10.1-12.9-.5-2-9.1-26.9-18.9-55.3-12.7-36.6-18.6-52.3-20.1-53.6-2-1.6-4.1-2-6.4-1.2z"/><path d="M200.9 191.7c-1.6 4.3-4.9 28.2-4.2 31.4 1.8 9.3 24.5 20 49.2 23 8.1 1 12.1 1 20.2 0 24.7-3 47.4-13.7 49.2-23 .7-3.2-2.6-27.1-4.2-31.4-1.6-4.1-3.9-3.3-9.8 3.3-5.9 6.5-13.1 10.5-24.3 13.6-10.2 2.8-33 2.6-43.5-.4-10.9-3.2-16.8-6.6-23-13.4-5.7-6.4-8-7.1-9.6-3.1z"/></g></svg>