<svg version="1.0" xmlns="http://www.w3.org/2000/svg" width="682.667" height="682.667" viewBox="0 0 512 512"><g fill="#f2f2f2"><path d="M136.6 29.3c-2 2.9-12.9 57.4-13 64.7-.1 4.5 1.3 9.4 7.3 26 10 27.9 10.9 29.8 14.2 31.5 2.1 1.1 6.9 1.5 19.6 1.5 18.2 0 21.3-.8 21.3-5.3 0-2.7-42.1-114.6-44.4-118.2-2-3.1-3.1-3.1-5-.2z"/><path d="M74.2 31.3c-.6.7-1.5 3.2-2.1 5.7-.6 2.5-12.6 80.2-26.6 172.8L20 378.1v55.3c0 54.5 0 55.4 2.1 58l2 2.6H123c54.4 0 99.6-.3 100.5-.6 3.9-1.5 3.7-4.2-4.5-53.1-6-36.6-8.3-48.3-9.8-50.2l-1.9-2.6-44.9-.5c-46.9-.5-48.1-.6-50.4-5-3-5.7-24-66.2-24-69.3 0-4.4 2.9-6.7 9.3-7.4 3.3-.4 4.6-.1 6 1.5 1 1.1 6.1 13.8 11.3 28.3 5.2 14.5 10.2 27.4 10.9 28.6 3.1 4.6 3.9 4.7 87.5 4 137.2-1.2 228.3-2.7 231.3-3.9 3.5-1.4 4.7-3.8 8.2-16.1 2.8-10.2 2.8-13.9-.2-15.3-1-.5-39.6-1.1-85.9-1.4-69.3-.4-84.4-.7-85.7-1.9-2.6-2.1-2.3-11.5.3-14.1 2-2 3.3-2 88.5-2 72.1 0 87.1-.2 89.9-1.4 2.7-1.1 3.8-2.5 5.4-6.8 3.2-8.5 4.5-15.9 3.4-18.8-1.2-3.1-47.5-69.6-50.8-73l-2.4-2.5-59.9-.5c-58.7-.5-60-.5-62.8-2.6-1.6-1.2-6.1-8-10.5-16-4.3-7.6-9.1-15.1-10.8-16.7l-3-2.7h-56.4c-50 0-56.6.2-58 1.6-2.2 2.1-2 3.8.9 12.5 1.4 4.1 2.4 8.7 2.3 10.3-.6 5.8-11.4 10-15.1 5.8-1-1.1-7.2-16.8-13.7-34.9-6.5-18-20-55.2-29.8-82.6-9.9-27.4-18.7-50.9-19.6-52.2-1.8-2.8-2.9-3.1-4.4-1.2zm189.5 168.3c2.6 1.9 15 23.3 17.2 29.7.8 2.3.7 3.1-.9 4.7s-3.4 2-8.7 2c-3.8 0-8.5-.5-10.6-1.1-4.8-1.3-43.3-30-44.2-32.9-1.4-4.5.5-4.9 24.7-4.7 18.3.2 19.9.3 22.5 2.3zm99.8 30.4c8.2 8.2-1.1 22.1-11.8 17.6-9.4-3.9-9.5-16.6-.2-20.7 3.5-1.5 8.7-.2 12 3.1zm41.5-2.5c4.1 2.1 6 5.3 6 10.1 0 5.2-2.8 9-7.9 10.5-9.4 2.8-17.2-7.2-12.6-16.1 2.8-5.4 9-7.3 14.5-4.5zm-66.5 28.9c8.2 3.5 8.5 15.9.5 20.1-3.7 1.9-6.3 1.9-10 0-4-2.1-6-5.3-6-9.8 0-4.7 2.4-8.5 6.5-10.3 3.9-1.7 4.8-1.7 9 0zm42.9 0c4.4 1.8 6.6 5.2 6.6 10.1 0 4.7-1.9 7.9-6 10-3.7 1.9-6.3 1.9-10 0-7.9-4.1-7.7-16.6.3-20 4.1-1.8 5-1.8 9.1-.1zm42 0c4.5 1.9 6.6 5.2 6.6 10.2 0 7.8-6.7 12.7-14.1 10.5-9.5-2.9-10.6-16-1.7-20.4 4.1-2 5-2.1 9.2-.3zm20.5-44.8c-.9 1.1-1 2.3-.3 4.2 1.5 4 26.2 38.9 29.1 41.2 5.1 4 6.6 1 15.4-31.2 4.6-16.6 5.7-15.8-21.6-15.8-18.2 0-21.4.2-22.6 1.6z"/></g></svg>