<svg xmlns="http://www.w3.org/2000/svg" version="1.0" width="682.667" height="682.667" viewBox="0 0 512 512"><path d="M164.51 67.715c-.602-.02-1.194.554-1.945 1.7-1.58 2.291-10.194 45.357-10.273 51.126-.079 3.555 1.028 7.428 5.769 20.545 7.902 22.047 8.613 23.55 11.22 24.893 1.66.869 5.453 1.185 15.489 1.185 14.381 0 16.832-.632 16.832-4.188 0-2.134-33.268-90.56-35.086-93.405-.79-1.225-1.403-1.836-2.005-1.856zm-49.807 2.327c-.47-.029-.929.295-1.447.952-.474.553-1.186 2.529-1.66 4.504-.474 1.976-9.957 63.376-21.02 136.55L70.426 345.04v43.698c0 43.066 0 43.779 1.659 45.833l1.58 2.054h78.153c42.988 0 78.705-.236 79.416-.473 3.082-1.186 2.925-3.32-3.555-41.96-4.741-28.922-6.56-38.169-7.744-39.67l-1.502-2.054-35.48-.395c-37.06-.395-38.01-.474-39.828-3.951-2.37-4.504-18.965-52.313-18.965-54.763 0-3.477 2.292-5.293 7.35-5.846 2.607-.316 3.635-.08 4.741 1.185.79.869 4.82 10.904 8.93 22.362 4.109 11.458 8.06 21.653 8.613 22.601 2.45 3.635 3.082 3.713 69.143 3.16 108.418-.948 180.406-2.133 182.776-3.08 2.766-1.107 3.715-3.005 6.48-12.724 2.213-8.06 2.213-10.983-.157-12.09-.79-.395-31.293-.87-67.88-1.107-54.762-.316-66.694-.552-67.72-1.5-2.056-1.66-1.818-9.089.236-11.143 1.58-1.58 2.607-1.58 69.933-1.58 56.975 0 68.828-.159 71.041-1.107 2.134-.869 3.003-1.975 4.267-5.373 2.529-6.717 3.556-12.565 2.687-14.856-.949-2.45-37.535-55-40.143-57.686l-1.897-1.976-47.333-.394c-46.386-.395-47.414-.396-49.626-2.055-1.265-.948-4.82-6.321-8.297-12.643-3.398-6.006-7.191-11.933-8.534-13.197l-2.37-2.134h-44.568c-39.511 0-44.728.16-45.834 1.265-1.738 1.66-1.58 3.003.712 9.878 1.106 3.24 1.897 6.874 1.818 8.138-.474 4.584-9.009 7.903-11.933 4.584-.79-.87-5.69-13.276-10.826-27.579-5.137-14.223-15.804-43.62-23.548-65.272-7.823-21.651-14.778-40.22-15.49-41.248-.8-1.245-1.423-1.865-2.028-1.901zM396.23 97.646c-1.895-.148-2.881 3.037-3.704 10.496-1.663 14.432-3.37 20.064-9.725 32.149-5.221 10.066-6.033 11.297-10.056 15.032-2.483 2.275-6.392 5.287-8.726 6.77-4.457 2.73-16.284 6.935-25.04 8.737-2.77.649-5.23 1.371-5.372 1.645-.177.342-.053 1.276.383 2.11.466 1.112 2.858 2.7 9.262 5.935 15.683 7.961 29.592 9.961 42.21 5.905 11.232-3.56 17.839-9.258 23.415-20.009 7.033-13.558 7.666-28.35 1.947-45.133-2.51-7.558-8.114-18.2-11.378-21.457-1.306-1.356-2.355-2.112-3.216-2.18zM238.847 202.138c1.87 0 3.983.013 6.374.032 14.46.158 15.725.236 17.78 1.817 2.055 1.501 11.854 18.412 13.592 23.47.632 1.817.553 2.45-.712 3.714-1.264 1.265-2.686 1.58-6.874 1.58-3.003 0-6.717-.395-8.376-.87-3.793-1.026-34.217-23.706-34.928-25.997-.968-3.112.06-3.743 13.144-3.746zm191.486 10.067c-2.034-.008-4.38.001-7.077.001-14.382 0-16.91.158-17.859 1.264-.711.87-.789 1.818-.236 3.32 1.185 3.16 20.704 30.738 22.995 32.556 4.03 3.16 5.215.79 12.169-24.655 3.18-11.478 4.244-12.428-9.992-12.486zm-59.813 12.814c1.368-.005 2.78.324 4.139 1.015 3.24 1.66 4.74 4.19 4.74 7.982 0 4.11-2.212 7.112-6.242 8.297-7.428 2.213-13.591-5.69-9.956-12.722 1.52-2.934 4.311-4.56 7.32-4.572zm-35.856.057c2.445-.089 5.244.978 7.2 2.934 6.48 6.48-.869 17.463-9.324 13.907-7.428-3.081-7.507-13.118-.158-16.357.691-.297 1.467-.454 2.282-.484zm-16.2 22.789c.978 0 1.985.334 3.645 1.006 6.48 2.766 6.717 12.564.395 15.883-2.923 1.502-4.979 1.502-7.902 0-3.161-1.66-4.74-4.187-4.74-7.743 0-3.714 1.895-6.718 5.135-8.14 1.541-.672 2.49-1.006 3.467-1.006zm67.07 0c.997-.04 2.005.295 3.665 1.006 3.556 1.502 5.215 4.11 5.215 8.061 0 6.164-5.294 10.035-11.142 8.297-7.507-2.292-8.376-12.644-1.343-16.12 1.62-.79 2.607-1.205 3.605-1.244zm-33.12.009c.987-.01 1.976.325 3.596.997 3.477 1.422 5.215 4.11 5.215 7.982 0 3.714-1.502 6.242-4.742 7.901-2.924 1.502-4.978 1.502-7.901 0-6.243-3.24-6.085-13.117.237-15.804 1.62-.711 2.607-1.067 3.595-1.076zm99.213 64.977a2.092 2.092 0 00-1.004.245c-.824.427-3.606 3.91-6.065 7.778-26.765 41.795-71.031 58.599-129.375 49.042-9.937-1.712-13.596-1.537-14.033.325-.76 3.233 12.902 15.95 26.578 24.64 12.05 7.687 24.432 13.076 39.558 17.35 27.358 7.661 52.009 7.035 71.854-1.748 12.832-5.777 23.978-16.704 21.278-21.06-.6-.968-1.903-1.583-2.952-1.52-.95.088-6.847.978-13.082 1.996-16.396 2.459-27.024 1.929-27.268-1.437-.058-.634 3.922-3.939 8.733-7.255 16.27-11.174 23.062-19.403 27.111-33.134 4.363-14.872 3.434-35.075-1.333-35.222z" fill="#f2f2f2"/></svg>