<svg xmlns="http://www.w3.org/2000/svg" viewBox="0 0 512 512" height="682.667" width="682.667" version="1.0"><path d="M120.496-2.13c-5.007 1.524-4.027 5.224 4.353 16.543 18.067 24.379 26.447 51.153 24.597 78.361-1.306 19.373-3.047 27.753-18.067 84.892-7.618 28.624-10.121 45.384-10.121 68.022-.11 22.855 1.523 34.174 8.053 54.527 2.286 7.292 4.245 14.584 4.245 16.107 0 1.633-1.088 6.966-2.394 11.863-3.265 11.646-3.374 33.413-.436 44.296 4.027 14.91 12.952 30.583 25.032 44.514 8.49 9.795 8.38 10.992-2.72 21.005-17.088 15.346-31.89 35.154-42.229 56.377-5.986 12.08-6.856 16.652-3.482 18.502 3.265 1.741 333.362 1.524 335.104-.218 2.503-2.503 1.306-8.162-4.027-18.937-17.087-35.045-46.582-64.975-80.647-82.062-20.026-10.013-35.916-14.91-60.73-18.61-26.883-4.028-45.602-12.19-61.383-26.992-10.449-9.795-16.87-18.61-22.53-30.8-20.134-43.1-7.944-95.776 31.454-135.827 20.026-20.243 47.888-38.201 47.888-30.8 0 .98-6.095 10.883-13.496 21.984-26.991 40.378-37.875 67.152-37.984 93.708 0 13.386 1.96 22.093 7.51 33.412 4.68 9.578 13.278 19.59 16.108 18.502 1.741-.653 1.85-2.285 1.197-17.849-1.088-24.27 2.612-46.8 8.38-52.24 1.415-1.307 8.272-4.572 15.455-7.293 27.1-10.448 56.92-27.644 79.232-45.602 13.604-10.883 33.412-31.562 42.446-44.405 30.691-43.099 35.48-90.986 13.387-136.48C418.922 20.4 408.148 3.639 404.12.483c-5.442-4.245-17.958-4.245-20.68 0-.87 1.415-.108 3.265 3.048 8.163 25.141 39.072 21.767 83.803-8.815 115.8-12.952 13.605-26.447 21.332-26.447 15.237 0-1.088 1.959-6.42 4.353-11.863 7.292-16.434 9.033-24.488 9.142-42.663.11-17.196-1.197-24.162-7.074-38.419-6.966-16.87-25.141-38.201-39.18-45.929l-5.878-3.265h-20.896c-27.427 0-27.1-.326-19.264 14.476 10.34 19.372 12.734 34.283 8.054 49.41-3.592 11.864-14.475 26.121-17.414 23.074-.435-.544-1.088-9.36-1.415-19.482-.435-14.692-.98-20.134-2.83-26.664-4.57-15.346-16.543-34.61-24.27-38.855-5.006-2.72-22.855-2.72-25.576 0-1.742 1.633-1.524 2.068 2.503 5.333 22.42 18.829 30.039 33.522 30.147 58.01 0 16.651-3.809 32.65-11.536 47.887-4.898 10.013-6.53 11.754-21.44 24.488-16 13.713-28.08 26.338-39.4 41.031-14.148 18.502-16.76 21.55-18.392 21.55-2.721 0-2.286-5.225 2.285-22.856 2.504-9.577 6.204-24.053 8.272-32.106 10.448-40.487 10.992-71.396 1.959-98.823C157.935 27.8 144.875 5.271 137.8.046c-3.048-2.285-12.843-3.482-17.305-2.176zM407.82 130.54c0 3.81-5.006 14.584-10.992 23.4-18.393 27.426-50.065 53.982-86.524 72.92-13.714 6.965-18.611 7.945-18.067 3.265.326-3.918 6.204-11.646 17.087-22.965 12.298-12.733 22.638-21.005 44.078-35.48 18.394-12.298 33.304-24.27 45.167-36.351 4.136-4.245 7.945-7.727 8.38-7.727.545 0 .871 1.306.871 2.938zM163.595 363.883c11.1 13.931 30.256 32.76 43.207 42.555 21.223 16.108 32.215 33.848 32.324 52.132 0 12.625-6.421 27.862-13.169 31.562-3.483 1.742-4.897-.653-5.877-9.686-2.394-22.638-15.781-47.017-35.263-63.995-17.63-15.564-28.188-29.712-33.412-45.058-2.503-7.4-3.483-17.305-1.85-18.829 2.068-2.176 5.115.327 14.04 11.32z" fill="#f2f2f2"/></svg>