<svg version="1.0" xmlns="http://www.w3.org/2000/svg" width="682.667" height="682.667" viewBox="0 0 512 512"><g fill="#f2f2f2"><path d="M235.1 20.6c-18.3 3.1-41.3 13-58.4 25.1-11 7.8-28.9 25.7-37.4 37.3-14.1 19.2-23.6 37.9-31.2 61.2-4.3 13.2-4.9 17.6-2.9 19.6 1.8 1.8 8.5 1.4 23-1.4 34.1-6.5 71.9-17.9 107.1-32 12.8-5.2 22.3-8.4 24.5-8.4 2.5 0 8.7 2.4 19.2 7.4 36.8 17.6 74.4 29.8 110 35.6 18.3 2.9 22 2.7 23.4-1.5 1.3-4.3-8.4-33.6-16.4-49.6-14.7-29.4-36.5-54.8-61.5-71.6-14.7-9.9-36.7-18.7-54-21.7-11.1-2-33.8-1.9-45.4 0z"/><path d="M241.5 148.1c-41.7 16.9-87.7 29.5-132 36.4-9.3 1.4-17.5 3.1-18.3 3.7-3 2.5-3.2 4.6-1.6 15.5 2.5 16.1 2.4 48.1 0 65.1-1.4 9.2-1.7 14.1-1 16 1.2 3.5 8 6.9 26.9 13.1 41.9 13.9 83.7 20.1 135.4 20.1 32.1 0 57.3-2.1 87.1-7.1 33.3-5.6 78.9-18.6 84.8-24.2 2.7-2.5 2.7-3-.7-18.8-4.7-21.8-4.7-43.6-.1-65.8 1.8-8.5 1.9-9.7.5-11.8-.9-1.3-1.7-2.3-1.9-2.3-.2 0-7.3-.9-15.7-2-47-6.2-83.9-16.9-129-37.4-8.1-3.6-15.7-6.6-17-6.6-1.3.1-9.1 2.8-17.4 6.1zm20.4 27.8c1.1 1.1 2.2 3.9 2.6 6.3.3 2.4.5 29.1.3 59.4-.3 52.6-.4 55.3-2.2 57.3-2.7 2.9-11.7 3-14.6.1-2-2-2-3.3-2-61v-59.1l2.5-2.4c3.1-3.2 10.5-3.5 13.4-.6zm-58.1 11.5c1.5 1.5 1.7 6 1.7 48 0 53.6.5 50.6-9.1 50.6-5.6 0-8-1.4-8.9-5.3-.3-1.2-.4-22.4-.3-47l.3-44.9 2.5-2c2-1.6 3.5-1.9 7.3-1.5 2.7.2 5.6 1.2 6.5 2.1zm113.5-1.3c1.2.7 2.5 1.7 2.9 2.3.4.6.8 22 .8 47.5 0 53.3.6 50.1-8.7 50.1-4 0-5.8-.5-7.3-2-1.9-1.9-2-3.3-2-48v-46.1l2.5-2.4c2.7-2.8 8-3.3 11.8-1.4zm-170.2 15.8l2.4 1.9v71.4l-2.4 1.9c-1.5 1.2-3.9 1.9-6.6 1.9-2.7 0-5.1-.7-6.6-1.9l-2.4-1.9v-71.4l2.4-1.9c1.5-1.2 3.9-1.9 6.6-1.9 2.7 0 5.1.7 6.6 1.9zm227.9.1c1.9 1.9 2 3.3 2 37.5s-.1 35.6-2 37.5c-3 3-10.3 2.8-13.5-.5l-2.5-2.4v-69.2l2.5-2.4c3.2-3.3 10.5-3.5 13.5-.5zm-3.5 121.5c-16.3 4.1-16.2 4-18.4 8.4-1.6 3.1-12.8 39.7-14.5 47.3-1.6 7 2 7.5 10.2 1.3 11.7-8.8 28.9-29 39.1-46 9.3-15.6 7.3-17-16.4-11zm-245.8.2c-3.8 3.7 12.9 29 30.9 47 9.3 9.2 13.8 11.9 15.5 9.2 1.2-1.8.6-4.3-5.3-24.4-6.5-21.9-7.5-24.3-10.8-26-3.4-1.7-23.1-6.5-26.9-6.5-1.5 0-3.1.3-3.4.7zM306 334.6c-29.5 3.6-75.2 3.7-108.3.3-12.4-1.3-15.7-.6-15.7 3.5 0 2.4 13.4 48.6 16.6 57.3 2.2 5.9 5.9 8.6 16.6 12.2 14 4.6 22.9 6.2 37.9 6.8 15.3.6 25.4-.5 39.9-4.3 12.5-3.4 16.5-5.6 18.8-10.2 1.5-2.8 13.6-42.3 18.8-61.4.3-1 0-2.6-.6-3.8-.9-1.7-2-2-7.3-1.9-3.4.1-10.9.8-16.7 1.5z"/><path d="M132.8 384.3c-4.2 3.9-18.4 22.2-25.1 32.4-12.7 19.4-17.2 30.1-13.1 31.7.9.3 10.2.6 20.7.6 21.1 0 31.8.9 47.7 4.1 34.1 6.8 63.3 20.7 86.9 41.1 6.3 5.5 8.4 5.2 20-3.1 22.4-16 46.8-26.6 74.6-32.4 19.4-4.1 32.4-5.1 56.1-4.4 24.1.8 24.5.6 22.4-5.8-1.6-5-17.7-28.8-28-41.5-11.4-14.1-18.2-21-20.7-21-2.2 0-4.6 1.6-16 10.9-40 32.8-89.9 44.4-137.8 32.1-26.5-6.9-49.6-19.7-71.9-40-8.7-7.8-11.5-8.6-15.8-4.7z"/></g></svg>