<svg xmlns="http://www.w3.org/2000/svg" viewBox="0 0 512 512" height="682.667" width="682.667" version="1.0"><path d="M288.92 61.024c-1.354.193-6.283.87-11.115 1.45-57.988 7.055-119.07 36.822-159.951 78.09-17.783 17.977-28.221 32.86-39.722 56.636-11.308 23.485-19.813 50.643-23.582 75.868-2.223 14.014-2.996 46.197-1.546 61.564 4.156 43.684 17.88 89.109 42.235 139.462 12.95 26.674 18.652 36.629 21.842 38.272 3.866 1.933 218.809 2.03 221.612.097 2.32-1.74 1.353-3.093-5.026-6.669-6.572-3.673-7.345-5.606-5.896-14.207 1.933-11.308-1.74-21.65-9.858-27.641-8.311-6.089-21.552-5.896-31.023.483-7.249 4.929-9.375 4.252-19.136-5.702-11.211-11.308-11.598-12.468-8.409-21.65 4.06-11.79 2.803-22.518-3.576-30.25-4.832-5.798-11.017-8.118-22.035-8.118s-11.018 0-17.687-13.24c-5.122-10.342-5.509-13.725-1.933-18.943 5.316-7.829 6.862-17.977 4.253-27.255-1.933-6.959-9.278-14.207-16.72-16.527-2.996-.966-6.185-2.416-7.055-3.382-1.643-1.837-4.156-14.497-4.253-21.456 0-5.122 1.063-6.572 8.892-11.888 6.668-4.639 10.438-12.854 10.438-22.518 0-9.182-2.127-14.207-8.989-21.166-4.349-4.446-5.025-5.509-4.929-8.795.194-4.736 4.446-14.11 7.152-15.56 1.353-.677 4.156-.87 8.119-.483 19.909 2.126 32.377-13.82 27.448-35.18-1.354-5.992 0-8.408 6.572-12.274 5.508-3.19 7.635-2.61 12.177 3.48 4.253 5.605 8.408 8.31 14.69 9.664 13.724 2.803 26.772-5.992 29.574-20.103 1.933-9.181 2.707-9.858 11.405-9.858 8.891 0 14.304 1.353 15.657 3.866.58 1.063 1.45 4.156 1.933 6.862 2.996 15.56 16.236 22.23 30.927 15.464 2.416-1.063 5.025-2.03 5.895-2.03 2.61 0 6.572 3.77 9.568 9.085 3.963 6.765 3.77 9.761-.966 15.464-6.862 8.311-7.346 16.913-1.353 25.611 1.836 2.706 3.286 5.992 3.286 7.345 0 3.19-3.963 11.115-7.925 15.56l-3.093 3.48-6.476-.58c-7.345-.773-11.5.483-15.27 4.639-1.933 2.03-2.513 3.866-2.9 10.148-.676 8.601-1.642 10.244-7.634 12.854-5.123 2.32-7.345 1.643-11.888-3.19-4.832-5.218-9.278-5.218-15.753-.193-4.446 3.383-4.736 3.48-7.152 2.126-3.19-1.74-3.77-5.412-1.74-9.471 1.933-3.576 1.933-9.471.097-12.66-1.933-3.383-1.837-8.12.29-9.955 1.353-1.257 3.672-1.643 9.954-1.643 12.081 0 17.977-3.77 15.077-9.762-1.546-3.19-12.274-8.408-19.909-9.761-15.464-2.61-30.927 4.929-37.5 18.46-2.512 4.928-2.705 6.378-2.705 16.526 0 9.182.386 12.274 2.32 17.88 11.307 33.536 35.179 50.836 69.682 50.933 19.04 0 36.05-4.446 55.185-14.4 34.6-17.88 60.888-49.387 70.166-84.084 2.32-8.601 2.61-11.114 2.61-26.384-.097-15.367-.29-17.783-2.707-26.578-1.45-5.316-4.832-15.27-7.538-22.132-18.073-45.134-48.227-75.288-88.722-88.432-11.308-3.673-16.043-4.736-28.994-6.476-9.085-1.16-39.819-1.74-46.39-.773zm37.692 54.702c4.639 3.19 6.958 6.766 7.441 11.695.387 3.576.097 4.735-1.643 6.475-1.932 1.933-2.706 2.03-11.887 1.45-13.047-.773-15.754-1.257-17.59-2.996-3.576-3.576-.386-12.081 6.186-16.527 4.542-3.093 13.047-3.093 17.493-.097zm-87.95 18.363c5.51 2.803 8.699 8.119 7.056 11.695-1.353 2.899-21.456 15.173-24.935 15.173-3.383 0-6.282-4.929-6.282-10.824 0-8.022 3.093-13.144 10.148-16.334 5.122-2.416 8.795-2.32 14.014.29zm162.948 23.099c5.895 2.803 8.601 7.538 8.601 14.884 0 6.862-2.706 12.177-7.248 14.013-2.61 1.064-3.19.967-4.93-.58-1.159-1.063-3.092-3.769-4.252-6.185-1.256-2.416-4.059-6.669-6.185-9.568-5.026-6.669-5.219-9.955-.773-12.66 3.962-2.514 9.664-2.417 14.787.096zm-217.456 46.39c1.74 1.933 1.74 2.127.096 6.476-.966 2.513-2.996 8.408-4.735 13.047-3.576 10.148-5.799 11.984-10.245 8.698-6.958-5.122-7.732-17.106-1.45-24.548 4.736-5.605 12.855-7.442 16.334-3.672zm219.002 36.726c2.32 1.257 5.509 8.022 5.606 11.888.096 11.791-10.438 20.682-20.876 17.88-4.64-1.353-5.22-4.35-1.836-10.245 1.45-2.513 4.349-7.732 6.475-11.404 4.929-8.892 6.669-10.245 10.631-8.119zM168.98 290.368c2.03 2.03 2.126 2.416 4.446 18.942 1.546 11.695 1.836 16.817.677 18.46-2.513 3.77-11.212 4.35-17.59 1.063-8.602-4.252-12.564-14.884-9.762-25.611 2.803-10.245 16.72-18.363 22.23-12.854zm184.5 5.122c.676.676 1.16 2.513 1.16 4.06 0 10.727-16.14 16.526-21.746 7.924-2.416-3.672-.677-5.605 8.408-9.568 8.795-3.866 10.438-4.156 12.178-2.416zm-161.015 84.566c2.513 2.996 16.237 31.314 16.237 33.537 0 2.996-2.513 5.025-8.022 6.475-17.686 4.446-31.603-14.207-23.485-31.507 3.963-8.602 11.598-12.757 15.27-8.505zm62.821 91.622c8.602 8.794 16.14 16.913 16.623 17.976 1.257 2.706-1.836 6.572-7.731 9.568-3.77 1.933-6.186 2.416-11.985 2.416-10.534-.097-17.686-4.349-22.518-13.53-1.74-3.093-2.127-5.51-2.127-12.565 0-9.084 1.16-12.854 5.606-17.686 3.77-4.06 5.412-3.093 22.132 13.82z" fill="#f2f2f2"/></svg>