<svg xmlns="http://www.w3.org/2000/svg" viewBox="0 0 512 512" height="682.667" width="682.667" version="1.0"><path d="M195.5 45.1c-1.6.2-7 .9-12 1.5C169 48.3 160 51 160 53.5c0 1.2 7.7 3.5 20 6 14.1 2.9 29.3 8 41.8 14 17.7 8.4 31.3 18.7 29.8 22.6-.7 1.8-1.4 1.8-27.6-.7-15.3-1.4-47.4-.7-65 1.6-47 6-92.2 21.4-131.8 44.9C12.8 150.5 2.4 158 .3 161.2c-1.7 2.6-1.8 12.2-1.8 175.5v172.7l2.3 2.3C3 514 3.2 514 33.5 514c29.4 0 30.5-.1 32.5-2.1 1.2-1.2 3.5-6.9 5.5-13.5 14.2-47.6 43.6-82.7 86-102.4 25.1-11.7 54-17.1 78.3-14.7 13 1.3 27.1 4.9 30.2 7.7 3.4 3.1 2.4 5.5-5.5 13-7.7 7.4-8.2 8.3-6.5 11.5 1.4 2.6 105.5 94.1 109.5 96.3 3.2 1.7 3.6 1.8 7 .1 5.4-2.5 27-23.7 29.5-28.9 2.5-5.2 2.4-10.8-.2-11.3-.9-.2-4.5 1.5-7.8 3.8-12.9 8.8-18 9.7-25.3 4.9C354 470 346 454.5 346 438.5c.1-30.7 30-54.1 59.5-46.5 7.8 2.1 16.4 6.8 21.1 11.6 3.7 3.8 3.9 4.3 3.8 9.9-.1 3.6-1.4 10-3.4 16.3-3.4 10.9-3.4 13.7-.1 13.7 4.6 0 11.5-6.5 20.4-19 12.4-17.5 18.7-28 18.7-31.1 0-3.5-1.9-5-12-9.3-14.7-6.4-35-17.4-48.2-26.2-18.5-12.2-31.9-23.7-58.6-49.7-35.8-34.9-50.1-45.8-79.7-60.2-19.2-9.4-34.4-15.3-41.6-16.2-6.9-.8-6.4.8 2.3 8.7 29.1 26.2 48.8 49.3 48.8 57.2 0 2.5-.4 2.8-3.1 2.8-1.7 0-8.8-1.8-15.7-4-36.2-11.2-66.8-15.8-99.6-14.7-32.7 1.1-55.2 6.4-83.9 19.9-7 3.3-13.4 5.7-14.2 5.4-2.8-1.1-1.6-6.1 3.9-15.4 17.5-29.6 44.3-54.9 78.1-74 37.8-21.2 85.2-32.1 117.5-26.8 14.8 2.4 18 4.7 16.5 12.2-1.3 7.2-3.4 6.5 73 21.8 37.9 7.6 70.5 13.8 72.3 13.8 1.8 0 4.2-.8 5.3-1.8 3-2.7 11-28.5 11.6-37.5.6-8.5-1.3-14.3-4.5-13.7-.9.2-3.6 3.8-5.9 8.1-8.1 15.2-11.5 17.6-22.3 15.8-24.1-4.1-41-23.7-41-47.5.1-23.9 16.9-43.7 40.7-47.8 9.8-1.6 19.3-.1 23.4 3.8 3.1 2.9 6.9 13.3 9 24.1.6 3.5 1.7 6.8 2.5 7.4 3.6 3 8.7-5.3 10.3-16.6 1.6-11.2 3.4-42.1 2.7-45-1.1-4.2-4-4.9-15.5-3.6-14.2 1.5-47.4 1.3-60.1-.3-22.1-3-36.8-7-74.2-20.4-41.6-14.9-56.7-18.2-86.3-18.7-10.4-.2-20.3-.1-22 .1zm116.3 49.8c8.8 4.6 11.4 16.5 5 23.3-7.6 8.1-19.7 6.8-24.5-2.7-2.9-5.6-2.9-8.6 0-14 3.7-7.1 12.7-10.1 19.5-6.6zm21.5 230c7.9 3.3 11.4 12.1 7.8 20-5.2 11.8-22.1 11.7-27.3-.1-5.5-12.5 6.9-25.2 19.5-19.9z" fill="#f2f2f2"/></svg>