<svg xmlns="http://www.w3.org/2000/svg" viewBox="0 0 512 512" height="682.667" width="682.667" version="1.0"><g fill="#f2f2f2"><path d="M86.8 30C78.2 31.8 76 33 76 36c0 2.7 2.3 5.4 32.8 37.4 18.4 19.4 20.7 22.9 16.5 24.6-1 .4-10.1 1.1-20.3 1.5-31.4 1.4-54 5.2-76 12.7-13.3 4.5-18 7.6-18 11.7 0 1.2 5.4 11.1 12 21.9 6.6 10.9 12.6 20.8 13.2 22.2 2.1 4.6 0 6.6-15.2 14.6-7.9 4.1-15.9 8.8-17.9 10.6l-3.6 3.1v52L2 251c1.4 1.5 9.7 6.7 18.5 11.7 17.6 9.9 20.5 12.1 20.5 15.2-.1 3-.6 3.5-21.1 21.3C6.7 310.7.9 316.3.1 318.6c-1.3 3.9-1.5 22.8-.2 26.2.5 1.3 1.8 2.8 2.8 3.2 2.5 1 33.4.6 47.3-.5 15.9-1.4 26.1-3.4 42.7-8.6 15.3-4.7 18.1-5.2 18.9-3 .8 2.1-.6 4.3-10.2 15.8-10.9 13.2-16.3 22-31.7 51.4-6.9 13.1-13.8 26.3-15.4 29.1-2.2 4.2-2.6 5.6-1.7 7 1.6 2.5 9.4 2.8 22.3.8 24.4-3.8 41.2-9.1 64-20.1 15.7-7.6 18.4-8.2 19.7-4.2.3 1.1-1.1 15.7-3.2 32.4-4 32.8-4 33.4 1.4 33.4 5.2 0 31.4-15.9 46.7-28.2 18.4-15 36.9-37.5 44.6-54.3 6-13.2 8.7-29.9 5.6-35-.7-1.2-5.1-5.8-9.9-10.3-31.6-30.2-39.9-70.8-26.3-128 4.1-17.2 4-17.4-10-21.1-4.4-1.2-12.3-4.3-17.5-6.8-17.8-8.7-30.6-24.7-34.5-43-4.2-19.6 1.4-40.1 14.5-53.2 12.6-12.6 29.8-16.9 48.4-12.1 14.1 3.6 26.6 11.2 48.9 29.9 4.3 3.6 8.5 5.8 17.1 9 6.2 2.4 12.4 4.1 13.7 3.9 3.5-.5 5-5.5 4.3-14.8-1.7-21-10.1-37.9-26.5-53.6-13.4-12.7-21.9-17.3-23.6-12.8-.3.9-.2 7.1.4 13.8.6 6.6.6 13.1.2 14.3-1.4 3.7-4.8 2.8-15.5-4.1-35.3-22.6-67-36.7-98.7-43.7-12-2.7-41.9-3.5-51.9-1.4z"/><path d="M195 107.4c-7.9 2.4-14.6 8.7-18.6 17.6-5 10.8-4.3 25.9 1.6 37.5 2.8 5.5 10.9 14 17.3 18.1 8.7 5.6 26.4 10.9 36.6 10.9 6.2 0 11 1.8 11.7 4.4.3 1.4-1 7.3-3.5 14.9-13.8 43.3-14.3 76.9-1.6 104.5 7.9 17.1 19.9 29.4 37 37.9 7.6 3.9 107.7 39.3 110.8 39.3 1.3 0 3.3-1 4.4-2.2 2.8-3 12.3-22.2 12.3-24.7 0-2.7-3.5-4.4-7.9-3.8-15.3 2-33-8.2-40.4-23.2-3-6.2-3.2-7.3-3.2-17.1s.2-11 3.2-17c10.2-20.8 34.3-29.2 54.8-19.1 6.9 3.4 12 8.4 17.9 17.2 2.2 3.4 4.7 6.4 5.4 6.7.7.2 2.3-.9 3.7-2.5 4.4-5 25.5-39.7 25.5-41.9 0-1.1-.6-2.8-1.3-3.7-.7-1-22.3-12.5-48.1-25.6-25.9-13.2-48.5-25.1-50.3-26.6-2.1-1.7-5-5.9-7.6-11.3-9.7-19.8-28.3-32.9-71.2-49.6-9.3-3.7-17.9-7.1-19.1-7.5-1.1-.5-6.6-5-12.3-9.9-14.6-13-24.5-19.2-36-22.6-5.6-1.7-16.7-2-21.1-.7zm133.7 90.8c9.6 4.5 9.8 19.9.4 24.8-11.9 6.1-25.4-6.8-19.4-18.5 3.7-7.2 11.7-9.8 19-6.3z"/></g></svg>