<svg version="1.0" xmlns="http://www.w3.org/2000/svg" width="682.667" height="682.667" viewBox="0 0 512 512"><path d="M139 17.5c-13.2 4.2-19.9 18.4-21.5 45.5-.8 13.3-1.8 16-5.6 16-3.9 0-10.3-5.9-12.5-11.6-1.4-3.7-1.6-6.5-1.1-16.3.7-13.8 0-15.8-5.1-14.7-4.2 1-11.2 7.4-14.4 13.2-11.4 21.1-.8 48.5 25.6 66.4 9 6 9.9 8 9 20-1.2 15.5 2.4 33.5 9 45.6 2.6 4.8 4.1 6.4 8.2 8.4 4.7 2.4 5.8 2.5 29.6 3 23 .5 24.8.6 27.5 2.6 6.5 4.8 9.2 13.6 11.9 38.7 1.2 11.5 1.4 16.4.6 18.1-.6 1.3-6.3 6.7-12.7 12.1-11.6 9.7-20.6 19.2-30 31.5-2.7 3.6-5.6 7-6.5 7.7-2.3 1.9-11 1.5-17.4-.7-19.7-6.7-29.5-26.2-29.6-58.5 0-16.9-2.2-19.6-11.1-13.6-4.6 3.1-6.9 2.9-8.8-.7-.5-.9-3.9-12-7.5-24.7-3.7-12.6-7.4-23.8-8.3-24.7-2.6-2.9-5-2.1-8.8 2.9-8 10.5-14 26.5-15.8 42.1-1 8.9-.9 12.1.6 22.4 2.2 15 2.1 15.3-7.5 14.3-6.5-.6-6.9-.5-7.7 1.6-1.1 3.3.4 9.2 4.5 17.8 10 20.4 37.9 37.7 83.3 51.6 7.9 2.4 15.4 5.1 16.7 6l2.4 1.6-.5 19.2c-.4 10.6-.8 20.2-1.1 21.4-.7 3.8-5 2.8-20.8-4.7-8.9-4.3-15.9-7-17.9-7-4.2 0-10.4 3.9-19.2 12.1-13.1 12.2-24.6 30.8-32.9 53.2-4.8 12.9-16.6 52.1-16.6 55.2 0 5.4 1 5.5 44.2 5.5 23 0 40.7-.4 42.2-1 4.2-1.6 4.2-4.7-.3-23.8-5.4-23.7-6.1-27.9-6.1-39.3 0-10.7 1.2-14.7 4.6-15.5 1.2-.3 6.6.9 12 2.6 17.8 5.7 31.9 5.2 46.4-1.7 6-2.9 9.4-5.5 17.1-13.2 10.3-10.3 16.2-18.5 31.3-43.8 5.3-8.9 10.8-17.1 12.3-18.2 5.6-4.5 19.7-1.7 34.8 7 13.4 7.7 21.5 16.5 21.5 23.6 0 3.3-2.1 7-10 17.2-3.1 4.2-9.4 13.2-14 20.1-20.1 30.5-26.2 50.5-19.5 64.9 3.3 7.1 15.7 19.5 20.4 20.4 5.3 1.1 64.7.8 67.5-.3 1.4-.5 2.6-1.6 2.6-2.4 0-.8-2.4-4.3-5.3-7.6-18.8-22.1-25.4-35.9-27.2-57.6-.7-8.8.7-20 2.8-22.2 1.1-1 5.6-1.5 18.8-1.7 25.1-.5 43.7-4.9 49.5-11.8 2.5-2.9 2.6-3.6 2.1-10.2-1.7-20.9-11.8-43-27.1-59.2-12.5-13.3-34.9-26.7-57.6-34.5-12.7-4.3-14-5.7-14-15 0-12.6 5.6-27.6 12.6-33.7 4.9-4.3 6.4-3.2 10.8 8.2 8.7 22.5 20.8 32.7 38.5 32.7 8.3 0 18.9-2.4 40.4-8.9 9.2-2.8 18.6-5.1 20.8-5.1 13.4 0 20.3 12.7 23.9 44.5 1.4 11.7 2.9 15 6.8 14 4.2-1 9.6-6 12.8-11.7 2.7-4.9 2.9-6.1 2.8-14.8-.1-7.8-.7-11.2-3.3-19.4-1.9-5.6-3-10.8-2.7-12.1 1.3-5.3 15.4-6.2 21.8-1.3 3.9 3 8.6 11.3 11.7 21 3.8 11.4 6.9 11.6 11 .7 1.6-4.4 2.5-9.4 2.8-15.9.5-8.4.3-10.2-1.7-14.8-1.2-2.8-4-6.8-6.2-8.8-8-7.2-17.9-9.7-39.2-9.8-12.5-.1-15-.4-15.9-1.7-1.7-2.8.3-7.2 5.6-12.4 6.6-6.4 12.7-8.5 24.8-8.5 10.2 0 11.3-.8 8.6-6.6-4.7-9.7-15-16.6-25.9-17.2-15-.9-28.2 6.7-50.5 29.4-15.1 15.3-15.2 15.4-19.6 15.4-9.8 0-24.6-6.8-33.6-15.3-6.4-6.1-12.1-15.3-12.1-19.4 0-7.3 18.1-22.2 33.5-27.5 10.5-3.6 22.5-4.8 42-4.1 18.2.7 19.9.1 23.7-7.9 4.7-9.9 7.1-17.6 6.4-20.5-1-3.9-7.1-9.3-10.5-9.3-2.7 0-4.3 1-16.4 10.5-3.4 2.6-6.9 4.5-8.4 4.5-1.7 0-4.8-2.3-10.3-7.5-4.8-4.6-8.7-7.5-10-7.5-1.3 0-4.4 2.4-8 6.1-4.9 5.1-6.2 6-8.2 5.4-5.3-1.6-10.6-9.3-9.4-13.9.7-2.8 16.1-21.3 21.5-25.9 1.8-1.5 4-2.7 4.9-2.7.9 0 3.9 2.6 6.7 5.7 15.3 17.2 14.1 17 26.4 4.9 11.1-10.8 12-10.9 20-2.6 3.2 3.3 6.3 6 6.9 6 .7 0 2.1-.9 3.3-2.1 2.5-2.5 18.9-35.6 18.9-38.1 0-.9-.7-2.4-1.6-3.2-1.4-1.4-9.2-1.6-71.2-1.6-54.2-.1-70.5-.4-73.3-1.4-2-.7-7.9-4.9-13.1-9.3-15-12.7-30.7-22.4-38.6-23.9-5.8-1.1-6.6.6-5.9 12.1 1.1 17 5.9 32.9 14.2 46.5 3.8 6.3 4.4 9.4 1.9 10.4-.9.3-5.2.6-9.5.6-10.4 0-20.5 2.3-30.4 7-10.5 4.9-19.1 11.2-35.4 25.6-7.3 6.6-14.5 12.5-15.8 13.3-4.3 2.3-6.7.2-11.7-10.1-10.4-21.4-11.3-39.4-2.5-50.1 6.8-8.2 14.4-9.5 31.4-5 8.7 2.3 10.5 2.5 11.9 1.4 2.2-1.8 2-4.4-.5-9.4-8.6-17.1-22.9-22-44.6-15.3-9 2.8-9.4 2.9-11.3 1.1-2.3-2.1-2.5-4.3-.9-10 1.5-5.6 10.5-14.1 20.2-19 4.4-2.3 8-4.8 8.3-5.9.9-2.8-3.4-6-12.5-8.9-10-3.3-18.3-4.1-24.1-2.2z" fill="#f2f2f2"/></svg>