<svg version="1.0" xmlns="http://www.w3.org/2000/svg" width="682.667" height="682.667" viewBox="0 0 512 512"><g fill="#f2f2f2"><path d="M111.8 40.5c-6.4 9.5-10.3 28-9.5 44.5.7 14.9 3.6 27.3 12.8 54.6 8.7 26.1 15 40.3 20.6 46.4 5.6 6.3 5.1 6.5 21.2-11.5 9.5-10.7 9.5-12-.1-17.6-8.6-5-21.6-17.6-27.7-26.9-6.9-10.6-14-26-15.7-34-1.2-5.9-1.5-11.6-1.1-27 .3-10.7 1-21.2 1.6-23.3.7-2.1 1.1-5 .9-6.5-.3-2.7-.3-2.7-3 1.3zm285.6 1c.3 2.7 1.1 7.2 1.6 10 1.4 8 1.2 37.1-.4 44.7-4.6 21.4-24.2 49.3-42.5 60.1-11.9 7.1-12.1 6.5 9.6 29.9 1.9 2.1 4.3 3.8 5.3 3.8 7.1 0 20.1-28.5 33-72.1 8.2-27.8 7.7-53.9-1.6-73.5-1.3-2.8-3.2-5.8-4.1-6.5-1.5-1.3-1.6-1-.9 3.6zM86.6 120.2c-1.1 4.4-.6 23.6 1 32.9 3.2 19.1 16.9 53.6 26.3 66.7 3.4 4.6 6.7 5.5 9.3 2.4 2.3-2.5 5.8-9.8 5.8-12 0-1-2.7-5.4-6-9.8-10.9-14.4-18.5-31.6-26.1-59.1-5.1-18.8-6.7-23.3-8.4-23.3-.7 0-1.5 1-1.9 2.2zm334 2c-.8 2.4-3.3 11-5.5 19.1-7.6 27.5-15.2 44.7-26.1 59.1-3.3 4.4-6 8.8-6 9.8 0 2.2 3.5 9.5 5.8 12 2.4 2.8 5.8 2.2 8.6-1.5 4-5.3 12.2-21.4 16.9-33.2 5.3-13.5 8.2-23.3 10.2-34.9 1.5-8.8 2-28.1.9-32.4-1-3.5-3.1-2.6-4.8 2zm-175.1 27.4c-20.2 2.8-29.5 5.3-41.5 11.4-10.6 5.4-20.4 12.6-29.4 21.5-15.3 15.4-25 29.9-46.2 69.6-12 22.5-17 29.6-29.6 41.8C83.6 308.7 80 316.6 80 335.8c0 18.6 5.2 37.5 16.7 61 13.8 28.1 40.4 62 62.1 79.4 10 8 14.2 7.7 14.2-1 0-4.2-.4-4.7-10.4-14.5-16.3-16.1-27.1-31.8-41-59.7-14.6-29.4-21.9-53.1-16.7-54.8.7-.2 4 2.3 7.2 5.8 4.3 4.5 7.2 8.9 10.8 16.4 5.5 11.5 30.3 52.7 35.8 59.4 2.5 3 4.1 4.2 5.7 4 1.9-.3 2.2-1.1 2.8-9.3 1-11.8 2.8-17.4 8.3-26.5 5.2-8.6 5.2-8.1-.6-21.6-5.1-11.9-8.9-26.9-8.9-34.8 0-15.9 13.4-29.3 40-40.1 16.3-6.7 18.9-8.1 19.6-11 1.3-5.3-2-14.8-5.5-15.8-1-.2-3.9-.1-6.3.4-16.2 3.1-42.2-2.1-53.5-10.7-7.3-5.5-10.6-13.9-7.8-19.8 5.8-12.1 32-7.1 55.3 10.4 8.7 6.6 11.2 7.1 11.2 2.3 0-4.3-2.5-13.9-4.3-16.7-1.1-1.5-7.8-5.6-17.7-10.7-21.1-10.7-24-12.8-24-17.5 0-2.8.8-4.4 3.4-7 1.9-1.9 4.1-3.4 5.1-3.4.9 0 8 3.3 15.8 7.4 25.8 13.5 45.9 20.6 58.7 20.6 12.8 0 32.9-7.1 58.7-20.6 7.8-4.1 14.9-7.4 15.9-7.4 3 0 8.4 6.7 8.4 10.5 0 4.5-2.4 6.2-22.5 16.6-8.8 4.5-17 9.1-18.3 10.3-3.6 3.3-6.9 18-4.8 21.4 1 1.6 3.4.3 11.1-6 15.9-12.9 39.7-20.1 50-15.2 4.3 2 6.8 7.1 5.9 12-2.7 14.5-28.3 25.9-53.9 24-4.9-.4-10.5-.8-12.4-.9-4.5-.3-7 3.1-7.8 10.4-.7 7 .6 8.1 15.4 14.3 21.4 9 36.8 20 41.7 29.8 2 4 2.6 6.7 2.6 11.9 0 8.6-3.7 23.2-9.1 35.6-2.3 5.4-4.2 10.9-4.2 12.3 0 1.4 1.9 5.7 4.2 9.5 5 8.3 6.8 13.9 7.6 23.7.9 10.5 1.3 11.8 3.5 11.8 1 0 3.4-1.9 5.3-4.3 5.4-6.6 30.4-48 35.8-59.4 3.6-7.4 6.5-11.8 10.8-16.3 3.2-3.5 6.5-6 7.2-5.8 7 2.3-11.3 49.7-31.5 81.6-9.5 15-14.7 21.5-26.3 32.9-9.9 9.8-10.3 10.3-10.3 14.5 0 7.6 3.9 8.8 11.1 3.6 13.6-9.9 35-33.8 49.4-55.3 21-31.4 31.2-58.1 32.2-84 .9-22.3-2.2-29.8-18.7-45.7-12.4-12.1-17.5-19.2-29.5-41.8-16.1-30.2-23.1-41.8-33.2-54.7-19.9-25.6-42.9-40.5-70.7-45.8-8.1-1.6-28.5-2.7-34.1-1.9z"/><path d="M239.1 247.3c-1.7 1.7-1.3 6.3 1.8 19.2 3.5 14.6 4.4 15.5 14 15.5 12.3 0 12.6-.4 16.5-18.9 3.7-17.4 4.3-16.7-15.8-16.8-9.5 0-15.9.4-16.5 1zm-34.7 70.3c-6.6 4-12.2 9-16.5 14.8-2.3 3-2.9 5-2.9 8.8 0 7 2.9 11.8 13.4 22.2 13.3 13.1 22.2 17.5 31.8 15.5 10.4-2.3 16.7-10.2 17.6-22.1.6-8.3-.5-10.3-8.7-15.2-6.4-3.9-10.3-8.6-16.4-19.7-5.2-9.4-8.5-10.2-18.3-4.3zm89.2-2c-.9.8-2.8 3.6-4.2 6.2-6.4 11.4-9.9 15.5-16.7 19.9-7.3 4.7-8.7 6.9-8.7 13.6 0 6.4 1.6 10.9 5.6 15.5 7.9 9.2 17.5 10.9 28.5 5.1 7.5-4 23.6-19.5 26.8-25.7 3.1-6.1 2.8-12.9-.8-17.8-4.3-5.8-9.9-10.8-16.5-14.8-6.5-3.9-11.4-4.6-14-2zm-47 75.3c-9.4 6-14.8 7.4-26.3 6.9-8.3-.3-8.8-.2-9.1 1.8-.4 2.9 8.9 16.5 16.8 24.5 8.7 8.9 14.8 11.3 28 11.3s19.3-2.4 28-11.3c7.9-8 17.2-21.6 16.8-24.5-.3-2-.8-2.1-9.5-1.8-11.4.5-17.4-1.2-26.7-7.3-3.8-2.5-7.6-4.5-8.5-4.5-.9 0-5.2 2.2-9.5 4.9z"/></g></svg>