<svg xmlns="http://www.w3.org/2000/svg" viewBox="0 0 512 512" height="682.667" width="682.667" version="1.0"><g fill="#f2f2f2"><path d="M374.457 58.343c-1.05.191-5.438 1.336-9.826 2.48-6.583 1.718-8.681 1.813-12.307 1.05-6.869-1.622-8.3-.095-6.01 6.01 1.526 3.816.382 7.346-3.816 12.116-4.96 5.629-11.448 9.635-20.034 12.593-10.017 3.434-10.78 5.342-4.77 11.162 5.247 4.865 7.632 4.77 18.508-1.145 4.865-2.671 10.112-4.77 11.638-4.77 2.004 0 4.77 1.622 9.445 5.342 3.72 2.958 7.728 5.724 8.968 6.201 2.48.954 6.582 0 12.783-3.148 4.866-2.385 9.636-2.385 16.982.096 7.25 2.575 9.635 2.098 14.5-2.576 5.057-4.961 4.77-6.965-2.385-13.929-4.865-4.77-6.964-7.823-11.352-16.886-3.53-7.155-6.297-11.543-8.014-12.688-2.576-1.717-10.685-2.766-14.31-1.908zm-81.09 57.717c-16.218 9.445-30.91 15.932-42.167 18.603-10.208 2.385-16.886 1.908-28.525-1.812-20.797-6.678-46.746-11.162-48.463-8.395-.477.667-1.05 3.148-1.336 5.533-.954 6.105-2.194 6.678-11.83 5.247-4.388-.668-12.02-1.145-16.79-1.145h-8.872l-4.007 4.102c-3.625 3.72-4.865 4.389-13.07 6.392-20.988 5.056-35.298 11.067-46.46 19.462-10.78 8.109-17.84 19.175-22.705 35.393-1.336 4.77-4.007 13.356-5.82 19.176-3.53 11.448-3.91 14.596-2.098 17.84.763 1.335 1.43 9.921 1.812 23.754.668 18.603.477 23.087-1.049 32.341-1.813 11.448-1.526 14.12 2.003 18.89 4.198 5.628 5.82 4.101 12.307-12.307 5.438-13.738 8.3-16.6 10.399-10.304 2.003 6.01 8.872 51.898 8.872 58.958 0 4.96-.763 9.54-2.48 15.168l-2.48 8.11 2.384 4.579c1.336 2.48 2.385 5.533 2.385 6.773 0 1.24-1.526 7.25-3.243 13.452-1.813 6.105-3.053 11.925-2.767 12.783.286.859 1.622 2.48 2.957 3.625 2.004 1.622 2.48 3.053 3.053 9.731.763 9.159 2.194 11.257 9.636 14.406 12.879 5.628 38.16 2.957 45.887-4.675 3.148-3.244 2.958-1.717 6.487-51.993 1.908-26.044 3.435-42.644 4.293-45.315.764-2.385 5.438-11.448 10.304-20.034 4.865-8.682 10.207-18.603 11.83-22.038 3.53-7.536 6.296-9.254 12.592-7.536 7.25 1.908 7.25 5.342.286 20.32-5.628 12.116-5.342 12.593 5.629 12.497 12.879-.19 38.637-6.487 43.98-10.78 2.003-1.717 2.194-2.48 1.907-9.922-.19-7.536-.095-8.3 1.908-9.635 3.053-2.194 9.827-2.003 12.116.286 2.29 2.29 1.718-.477 15.455 75.462 6.297 34.916 11.83 64.777 12.402 66.494.477 1.622 1.908 3.625 3.148 4.484 6.201 4.006 24.71 6.2 38.638 4.483 10.303-1.24 14.119-2.957 14.977-6.487.382-1.335.191-11.448-.381-22.323-.859-14.978-.859-20.511 0-22.515.572-1.43 1.145-5.915 1.335-9.826.096-3.912.477-8.682.859-10.59.477-2.48-.19-6.964-2.29-15.454-3.052-12.116-3.052-13.738.096-17.745 2.48-3.243 2.194-6.773-1.717-19.175-2.576-8.3-3.53-13.261-3.912-20.702-.477-9.35-.477-9.731 1.813-12.02 1.43-1.336 6.487-3.721 12.974-5.82 10.971-3.72 15.455-6.297 15.455-8.968 0-.858-2.194-4.77-4.77-8.777-7.346-11.161-9.063-16.6-9.063-29.097 0-8.967.286-11.066 2.099-14.405 4.388-8.205 12.974-12.784 24.04-12.784 7.633 0 10.972 2.194 18.7 12.116 18.984 24.327 33.962 36.92 45.791 38.16 5.629.668 10.113-1.05 15.646-6.01 5.82-5.247 8.109-10.78 8.109-19.366 0-5.247-1.24-10.017-7.346-28.525-7.727-23.468-8.586-28.334-5.438-31.196 2.862-2.576 2.385-4.388-2.957-11.066-4.675-5.724-8.681-13.356-12.88-24.232-2.098-5.342-4.483-6.487-8.203-3.911-3.149 2.29-6.297 1.908-16.028-1.813-4.77-1.813-9.921-3.339-11.257-3.339-1.431 0-6.201 1.717-10.685 3.816-4.484 2.099-9.254 3.816-10.685 3.816-2.29 0-6.678-2.767-14.405-9.254-4.389-3.625-8.014-2.957-19.176 3.435-5.437 3.148-10.97 6.01-12.402 6.391-3.243.764-5.628-1.335-8.872-7.727-3.625-7.155-6.773-10.971-9.158-10.971-1.145 0-5.152 1.717-8.777 3.911zm101.506 56.287c9.635 5.342 11.83 8.776 7.536 11.734-4.483 3.148-12.783.858-16.027-4.389-1.812-3.052-2.576-8.395-1.24-9.635 1.336-1.336 4.58-.572 9.73 2.29z"/><path d="M482.832 199.25c-.477 1.144-2.48 7.44-4.388 14.023-6.488 21.847-13.357 35.49-22.515 44.838-13.356 13.643-30.719 15.074-49.417 4.103-7.728-4.484-22.706-18.794-32.15-30.433-7.823-9.73-10.208-11.83-13.452-11.83-2.766 0-5.724 2.958-6.582 6.392-.954 3.53.954 12.02 4.007 18.317 3.339 6.678 19.175 23.087 28.524 29.67 22.42 15.454 44.552 17.172 64.968 5.247 6.964-4.103 17.649-15.36 22.61-23.85 8.109-13.834 13.07-31.578 13.07-46.842 0-10.017-2.576-15.264-4.675-9.636zm-49.704 104.749c-2.385.382-8.013.763-12.592.763-10.113.096-10.304.286-13.07 13.07-3.72 17.268-10.494 27.38-20.32 30.528-3.53 1.145-9.445 1.717-19.844 2.004-8.109.19-15.932.858-17.363 1.335-3.53 1.431-5.533 6.964-5.533 15.455 0 13.07 4.865 22.8 12.211 24.136 7.442 1.431 42.74-12.02 57.431-21.846 6.201-4.103 10.017-7.919 16.123-15.837 7.918-10.398 8.395-11.257 9.063-16.504.572-4.102 1.336-5.438 4.58-8.395l3.815-3.53-.381-9.73c-.382-12.88-1.527-13.739-14.12-11.449zm-205.301 24.899c-.954 1.718-1.24 13.166-1.527 50.658-.19 26.617-.095 49.513.191 50.753 1.336 5.247 14.215 7.537 20.798 3.625 2.766-1.622 3.148-2.385 3.434-6.2.286-4.866-15.455-94.065-17.268-98.072-1.526-3.149-4.102-3.53-5.628-.764zm-40.831 4.294c-11.162 1.812-23.755 4.483-26.903 5.724-6.392 2.575-6.392 2.575-7.06 49.322l-.668 41.594 2.194 2.385c5.057 5.342 20.893 7.155 34.63 3.911 8.491-2.003 11.926-3.816 12.689-6.964.859-3.243-3.339-89.58-4.484-92.538-.477-1.24-1.908-2.671-3.243-3.148-2.576-.954-2.958-.954-7.155-.286z"/></g></svg>