<svg xmlns="http://www.w3.org/2000/svg" viewBox="0 0 512 512" height="682.667" width="682.667" version="1.0"><g fill="#f2f2f2"><path d="M51.3 34.797c-2.745 2.195-2.836 6.586-.183 11.709 5.854 11.435 34.121 51.502 37.689 53.423 2.744 1.464 5.854 1.098 9.239-1.19 5.397-3.567 4.848-6.037-3.842-17.563-4.117-5.489-12.533-17.564-18.662-26.894-6.22-9.331-12.075-17.747-13.08-18.662-2.928-2.653-8.417-3.019-11.161-.823zm122.855-.641c-1.098.55-2.379 2.104-2.928 3.477-1.098 2.927-6.495 34.212-7.135 41.44-.457 5.03-.366 5.213 2.287 6.586 3.202 1.646 7.684 1.92 10.245.548 2.287-1.189 3.934-7.043 6.77-23.784 3.293-19.027 3.75-24.79 2.195-26.894-1.555-2.013-8.507-2.836-11.434-1.373zm-44.275 69.89c-3.385.64-7.776 2.104-9.88 3.201-5.763 2.928-4.94 4.849 4.208 10.246 18.936 11.16 29.09 27.81 29.09 47.385-.092 9.331-1.281 13.265-6.953 22.046-3.476 5.398-3.384 7.502.458 10.429 6.86 5.214 55.16 28.358 70.895 33.938 9.697 3.385 10.703 1.738 8.233-13.447-5.397-33.206-17.198-74.737-26.346-93.033-6.769-13.539-12.898-17.564-31.01-20.857-8.874-1.555-30.646-1.464-38.696.092zm83.336 6.86c0 1.647 7.958 23.236 11.434 30.92 1.647 3.659 3.75 4.574 5.763 2.561 2.379-2.287 2.013-12.44-.731-19.21-3.66-9.605-16.466-20.583-16.466-14.27z"/><path d="M95.667 128.196c-10.52 2.744-15.643 10.154-14.911 21.954.64 11.893 9.422 24.516 21.131 30.463 7.227 3.659 18.479 4.665 23.601 2.103 11.892-6.037 14.82-18.844 7.593-33.297-7.135-14.271-25.065-24.425-37.414-21.223zm-21.04 63.394c-2.013 1.006-8.05 4.757-13.448 8.233-7.043 4.574-61.154 44.635-62.16 46.922-1.19 2.561-1.464 7.044-1.464 27.718 0 22.229.183 51.882 1.647 53.711l1.555 1.921 54.11-66.604c3.842-2.56 19.577-20.582 29.182-33.389 9.24-12.35 16.649-24.608 16.649-27.718 0-2.927-1.098-3.933-9.788-8.965-7.41-4.39-10.703-4.756-16.283-1.83zm331.607 2.561c-1.098 2.104.823 7.776 3.476 9.697 3.11 2.378 7.501 1.006 7.501-2.379 0-.914-1.28-3.293-2.744-5.305-3.11-4.3-6.587-5.123-8.233-2.013zm-26.163 7.136c-4.574 3.293-16.832 16.374-22.046 23.418-3.568 4.848-5.031 8.782-3.202 8.782.915 0 8.416-4.391 19.12-11.07 5.122-3.2 10.52-6.494 12.074-7.409 1.464-.823 3.385-2.561 4.208-3.842 1.555-2.287 1.555-2.653 0-6.495-1.372-3.75-3.567-5.946-5.763-5.946-.457 0-2.47 1.19-4.39 2.562zM242.854 212.08c-.731 2.837 1.098 14.363 2.653 16.924.55 1.007 2.928 3.02 5.214 4.391 2.287 1.464 6.953 5.763 10.429 9.605 3.476 3.842 6.86 6.953 7.501 6.953 3.568 0 0-15.826-5.489-24.516-7.684-12.167-18.753-19.485-20.308-13.356zm153.958 16.192c-30.188 15.643-68.426 48.484-105.657 90.655-39.244 44.367-76.293 99.436-84.8 125.6-2.836 8.598 0 14.544 8.873 18.935 6.678 3.385 11.892 3.202 17.747-.457 18.387-11.71 52.417-42.446 75.743-68.517 40.16-44.733 73.823-93.49 97.15-140.693 5.58-11.252 10.154-19.302 10.794-19.12 1.647.55 1.007 19.486-1.28 34.488-2.47 17.198-6.861 39.153-14.82 75.47-3.476 16.1-6.586 31.56-6.86 34.303-.458 4.757-.275 5.306 2.835 9.057 4.391 5.305 4.391 8.233-.457 15.642-4.849 7.593-11.8 14.82-23.967 24.882-10.063 8.416-11.618 10.246-11.618 13.448 0 2.927 5.306 8.324 8.141 8.324 3.02 0 4.94-1.28 17.381-11.892 16.466-13.905 28.724-30.554 34.03-46.196 6.77-19.577 12.075-92.667 9.971-137.491-1.19-26.712-2.378-30.463-9.24-28.542-1.646.55-2.927.183-4.573-1.006-4.025-3.11-8.965-2.287-19.393 3.11zM103.9 231.657c-3.66 4.025-2.47 6.77 9.788 24.333 15.825 22.504 33.298 49.124 52.782 80.5 26.529 42.63 25.34 40.891 33.207 47.66 8.141 6.953 11.252 8.6 14.087 7.593 2.928-1.097 11.344-14.453 11.344-18.02 0-2.196-1.83-5.398-8.05-13.722-30.005-39.976-82.88-104.834-101.815-124.96-5.489-5.762-8.416-6.586-11.343-3.384zm71.993 2.927c-2.928 2.928-.092 17.29 5.122 26.346 2.836 4.94 12.441 15.185 15.917 17.015 3.11 1.555 6.221 1.647 6.221.091 0-.64-1.464-4.208-3.202-7.867-4.757-9.88-5.397-13.63-3.567-20.857 1.463-5.854 1.463-5.946-.55-8.05-2.103-2.195-14.361-7.775-17.197-7.775-.915 0-2.104.457-2.744 1.097zM84.69 256.448c-3.843 3.476-5.947 7.135-5.947 10.52 0 3.293 10.063 28.54 19.485 48.757 13.996 30.188 32.2 60.193 49.764 81.964 8.782 10.978 25.34 28.084 33.023 34.122 7.319 5.763 9.971 5.122 13.813-3.477 3.568-7.775 3.477-8.05-14.453-37.688-30.462-50.405-55.893-90.289-76.293-119.562-13.355-19.302-13.721-19.576-19.393-14.636zm363.258 10.154c-.55 2.561-1.464 27.992-1.647 43.726-.091 9.788.275 12.716 2.379 20.583 3.293 11.983 5.214 15.46 8.964 16.832 10.795 4.025 11.16 4.665 11.16 19.759-.09 9.422-.548 12.99-3.384 25.156-3.385 14.088-3.934 18.753-2.653 20.674 1.19 1.83 4.574 3.11 8.325 3.11 4.848 0 5.671-1.28 9.33-15.55 2.836-10.795 3.02-12.533 3.385-30.646.457-22.412-.183-26.986-5.763-43.91-6.22-18.57-22.412-56.35-25.797-60.1-2.012-2.287-3.842-2.104-4.3.366z"/><path d="M303.138 426.78c-3.019 1.646-32.2 27.992-33.39 30.187-.822 1.555-.64 2.196 1.099 3.568 3.11 2.561 6.769 2.104 10.702-1.372 7.136-6.221 24.791-30.188 23.876-32.567-.183-.548-1.098-.457-2.287.183z"/></g></svg>