<svg version="1.0" xmlns="http://www.w3.org/2000/svg" width="682.667" height="682.667" viewBox="0 0 512 512"><g fill="#f2f2f2"><path d="M231.5 22.1c-12.9 1.2-30.9 4.4-38.8 6.9-7.9 2.4-13.2 7.1-17 14.7-5.3 10.5-4.2 13.3 6.3 15.8 7.9 1.9 12 3.5 12 4.5 0 1.9-7.4 3.2-20.5 3.6-9.6.4-16.6 1.2-22.5 2.7-12.4 3.1-42.1 3-64.3-.2-8.7-1.3-16.4-2-17.2-1.7-4.3 1.6 0 6.5 13.6 15.6 13.7 9.2 23.4 13.9 31.4 15.1 17.8 2.6 20.2 3.1 22.5 4.2 1.3.7 2.7 2.3 3 3.7.8 3.5 5.1 5.6 18.6 8.9 16 4 30 6 47.4 6.7 8 .4 15.3 1.1 16.3 1.6s1.7 2 1.7 3.8c0 3.8-9.4 16.2-19.4 25.8-7.5 7.1-7.7 7.2-12.9 7.2-13.1 0-30.7-6.8-48.5-18.7-6.9-4.6-13.6-8.6-14.9-8.9-1.8-.5-3.1.2-5.8 3.1-4.1 4.3-4.6 8.2-1.2 11.2 7.4 6.9 36.5 21.9 52.7 27.3 5.2 1.7 12.9 3.6 17 4.2 7.2 1.1 7.7 1 12.7-1.5 2.8-1.5 9.1-6.4 14-11 4.8-4.7 9.8-8.7 11-9.1 1.4-.4 5.4.3 10.3 1.8 9.8 3.1 13.8 3.2 22.2.6 7.5-2.4 11.2-2.5 16.5-.6 8.5 3 15 2.4 20.6-1.9 2.5-1.9 5.6-3.5 6.9-3.5 1.5 0 5.6 2.7 11.1 7.4 15.1 13 24.3 18.6 30.7 18.6 9.5 0 67.6-34.7 72.1-43.1 2.4-4.5-4.9-13.7-9.9-12.4-1.4.3-7.1 4-12.9 8.1-23.8 17.1-41.9 27.5-48.3 27.6-6.1.1-15.6-6.9-30.3-22.2-17.7-18.6-20.9-20-33.4-15-10.3 4.2-18.5 4-25.9-.5-12.6-7.9-19-27.5-15-46.5 5.7-26.8 27.3-43.2 45.8-34.7 5 2.2 7.4 4.4 15.8 14.7l2 2.5 2-2.4c2.3-2.7 2.5-5.3.8-11.9-1.7-6.7-9.2-13.9-18.2-17.5-12.8-5.2-35.7-6.9-60.1-4.6zm147 14.9c-7.3 1.6-11.5 6.6-11.5 13.8 0 8.3 5.8 14.2 13.9 14.2 8.4 0 14.1-5.6 14.1-14 0-9.2-7.9-15.9-16.5-14z"/><path d="M275.3 58.2c-1.8.4-4.7 2.6-6.7 5-9.6 11.2-11.2 31.8-3.1 40.6 6.4 7 14.7 3.7 20.6-8.4 2.7-5.4 3.3-8.1 3.7-14.9.8-15.9-5-24.9-14.5-22.3zm69.2 29.3c-3.5 3.4-3.4 8.6.1 11.4 4.5 3.5 9.5 2.6 12-2 1.8-3.6 1-7.3-2.3-9.9-3.4-2.7-6.9-2.5-9.8.5zm-82 91.2c-4.3 1-8.9 1.3-16.2.9-12.8-.6-13.5-.1-10.4 8.3 2.7 7.4 2.6 8.5-.9 15.1-3.3 6.1-3.8 9.8-1.5 10.7.9.3 5.8-1.1 10.9-3 13-5 27.3-7.7 45.1-8.5 18.9-.9 19.1-1.3 8.1-12.6l-7.4-7.7-10.2-2.4c-5.6-1.4-10.4-2.5-10.8-2.4-.4 0-3.4.7-6.7 1.6zm5.5 42.8c-31.1 6.9-48 24.2-48 49 0 23 13.6 40.5 52.6 67.5 36.8 25.6 47 34 54.9 46.1 14.1 21.2 12.3 41-5.5 59-11 11.1-26.3 19.2-38.8 20.5-11 1.2-26.7-3.6-47.3-14.3-13.4-6.9-17.9-10.5-17.9-14.2 0-1.5 1.3-6.3 2.9-10.8 8.6-23.5 7.9-45.9-1.9-65.3-6.7-13.2-21-30-25.5-30-1.3 0-2.8.8-3.4 1.7-.5 1-2.5 11.7-4.5 23.8-3.6 21.9-4.6 35.3-3.6 49.3.4 6.2.2 7.6-1.2 8.6-2.7 2-58.3 3.1-73.9 1.5-10.5-1-12.2-1-13.6.3-1.3 1.4-1.3 1.9 0 4.4.9 1.6 3.7 5 6.4 7.5 24.5 23.4 56.3 34.5 84.3 29.4 19.6-3.6 18-3.9 30 5.6 14.1 11.1 29.8 21.2 38.4 24.8 10.7 4.4 18.6 5.5 37.1 4.8 51.7-1.9 91.3-21.5 106.9-53 6.6-13.2 8.7-22.3 9.3-39.7.6-17-.9-29.2-6.2-48.6-6.4-23.2-21.7-57.5-37.3-83.9-13.7-22.9-30.8-37.4-50.7-43-8.4-2.4-34.7-3-43.5-1zM64.3 240c-8.7 5.2-8.3 19.8.6 24.5 9.8 5 21.1-1.6 21.1-12.3 0-8.5-5.6-14.2-14-14.2-2.7 0-5.8.8-7.7 2zM53 315.3c-3.8 1.9-5.5 6.1-4 9.8 4.2 10 18.3 3.5 14.4-6.6-.6-1.5-5.4-4.5-7.1-4.5-.4 0-1.9.6-3.3 1.3zm36.5 38.8c-7.4 4.2-5.1 14.9 3.2 14.9 9.5 0 10.6-13.3 1.3-15.4-1.4-.3-3.4-.1-4.5.5z"/></g></svg>