<svg xmlns="http://www.w3.org/2000/svg" viewBox="0 0 512 512" height="682.667" width="682.667" version="1.0"><g fill="#f2f2f2"><path d="M181.731 61.572c-5.756 5.501-8.04 13.204-5.332 18.282 3.893 7.364 21.668 18.536 42.405 26.662 13.966 5.417 17.351 5.84 17.351 1.947 0-3.81-14.981-23.192-27.931-36.057-10.242-10.242-15.151-13.543-19.976-13.543-2.877 0-4.147.508-6.517 2.709zm225.653 3.047c-10.834 9.056-35.55 36.141-39.189 42.828-2.793 5.332 1.355 6.01 12.443 2.116 22.937-8.126 43.167-20.06 47.23-27.932 3.131-5.924 0-15.235-6.518-19.213-4.91-3.047-8.295-2.54-13.966 2.2zM265.018 111.34c-3.301.762-4.486 2.286-3.809 4.571.339.931 2.708 6.01 5.332 11.427 3.386 6.94 5.333 10.072 6.856 10.834 1.44.677 10.411 1.015 28.863 1.185 22.345.254 27.085.084 28.524-.931 2.2-1.524 11.173-19.552 11.173-22.43 0-1.185-.762-2.455-1.778-2.963-3.555-1.946-67.882-3.385-75.161-1.693zm-102.924 6.01c-23.784 2.455-27.424 4.063-18.198 8.464 8.55 4.148 45.114 14.05 48.161 13.035 2.2-.677 2.624-2.2 1.693-6.01-.339-1.862-.762-6.01-.762-9.31 0-3.47-.423-6.348-1.015-6.94-1.44-1.44-10.496-1.186-29.879.761zm47.992 5.163c-.593.593-1.016 2.285-1.016 3.809 0 7.025 9.903 9.903 13.035 3.724 1.608-3.132.423-5.501-3.64-7.194-4.147-1.609-6.94-1.778-8.38-.339zm201.869 1.354c-.762.847-1.862 3.555-2.37 6.095-.508 2.539-1.524 5.67-2.116 6.94-.677 1.27-1.185 3.47-1.185 4.825 0 2.2.423 2.708 3.216 3.47 5.756 1.608 23.784 3.386 25.985 2.54 3.809-1.44 2.878-3.471-8.887-19.299-2.201-3.047-7.872-6.094-11.173-6.094-1.185 0-2.708.677-3.47 1.523zm-26.831.254c-5.333 2.116-6.433 5.502-2.878 8.295 4.063 3.216 9.48 1.693 11.172-3.047 1.27-3.724-.084-6.179-3.385-6.094-1.524 0-3.724.423-4.91.846zM239.88 133.77c-1.1 1.693-1.27 2.624-.593 3.725 1.608 2.623 18.028 2.031 18.028-.678 0-1.1-8.379-4.486-12.357-4.993-3.132-.339-3.724-.085-5.079 1.946zm-144.652-.761c-16.844 2.623-30.471 12.696-37.92 28.27-5.078 10.58-6.855 18.875-6.77 31.74 0 11.004 1.523 20.991 4.908 31.74 2.286 7.026 4.402 9.734 7.026 8.973.93-.339 5.163-5.756 9.564-12.189 9.65-14.05 26.916-37.157 42.49-56.71 15.405-19.297 16.674-21.16 16.674-23.953 0-2.962-2.2-4.232-11.003-6.263-6.348-1.44-20.23-2.286-24.97-1.608zm260.694.084c-4.824 1.185-10.58 3.894-10.58 4.91 0 2.539 16.167 4.231 18.452 1.946 1.524-1.523 1.27-3.809-.677-5.755-1.608-1.609-3.724-1.947-7.195-1.1zM147.96 147.99c-2.54 2.37-27.425 33.603-40.967 51.377-10.834 14.22-23.446 31.91-30.217 42.575-9.057 14.05-9.65 16.42-6.179 23.953 2.116 4.57 3.978 5.925 6.348 4.655.847-.507 7.195-9.14 14.22-19.298 25.477-36.819 45.114-62.55 62.127-81.34 10.156-11.172 13.457-15.235 13.457-16.674 0-2.032-3.131-4.232-7.871-5.756-6.094-1.946-8.38-1.777-10.919.508zm91.58 7.28c-7.024.592-8.21 1.1-9.225 3.723-1.439 3.725 3.893 31.233 8.549 44.522 4.401 12.527 8.04 18.705 10.918 18.705 1.863 0 2.54-2.116 5.417-16.759 2.37-12.273 5.84-24.376 10.157-36.141 3.894-10.665 3.979-10.919 2.624-12.781-1.1-1.44-2.37-1.608-11.68-1.693-5.756-.085-13.289.085-16.76.423zm42.152.169c-2.454 1.438-1.777 5.67 2.54 15.743 6.601 15.15 12.865 24.8 16.166 24.8 2.2 0 2.878-1.1 6.771-10.834 1.947-4.74 5.417-12.527 7.787-17.183 2.285-4.655 4.147-9.14 3.978-9.903-.592-2.962-3.978-3.555-20.144-3.555-9.057.085-16.251.424-17.098.932zm56.286.761c-2.962 1.185-2.793 4.232.254 10.411 1.185 2.2 3.81 9.057 5.84 15.236 3.979 11.68 5.418 13.88 8.21 12.357 3.894-2.116 10.92-14.812 14.22-25.985 3.132-10.41 1.693-11.51-16.504-12.273-5.587-.254-11.004-.084-12.02.254zm-145.328.847c-5.163.508-6.18.93-8.295 3.3-1.27 1.44-2.37 3.64-2.37 4.825 0 6.348 10.919 32.249 14.643 34.534 2.539 1.608 4.147-.423 9.48-12.273 2.877-6.264 6.94-14.39 9.056-18.113 7.025-12.443 6.687-13.204-7.194-13.035-5.248.085-12.104.423-15.32.762zm187.31 3.47c-.677 1.354-.507 3.301.847 8.633 2.454 9.734 4.063 19.806 5.925 37.327 1.862 17.013 2.624 18.79 6.602 16.59 3.047-1.693 8.04-11.258 11.596-22.176 3.555-10.75 8.464-33.941 7.702-36.311-.339-.931-1.354-2.2-2.37-2.793-2.031-1.27-16.166-3.047-24.292-3.047-4.232 0-5.163.253-6.01 1.777zm44.268 3.47c-1.608 1.608-1.27 3.724 2.031 11.935 1.693 4.232 3.64 11.172 4.317 15.404 1.439 8.55 2.54 10.411 5.163 8.972 6.348-3.385 16.674-24.461 15.15-30.724-.761-2.794-3.385-3.81-13.373-5.333-10.157-1.523-11.934-1.608-13.288-.254zm-265.181 22.43c-5.502 5.671-10.072 11.935-10.072 13.797 0 6.094 17.182 15.235 28.524 15.235 6.348 0 6.263-1.777-.085-11.596-2.116-3.216-5.247-9.31-7.025-13.458-4.063-9.48-5.502-9.987-11.342-3.978zm-24.461 30.471c-5.079 5.756-11.85 16.166-11.85 18.198 0 4.232 10.919 10.157 19.044 10.326l4.232.085-.084-4.232c-.085-4.148-2.286-18.875-3.894-25.223-1.015-4.317-3.047-4.063-7.448.846zm110.795 36.734c-2.962 2.963-14.812 28.355-18.875 40.543-4.401 13.12-4.824 17.098-1.947 18.96 1.947 1.354 19.214 3.047 30.387 3.047 5.078 0 5.84-.254 7.025-1.947 1.185-1.777 1.015-2.962-1.608-14.22-1.524-6.686-4.063-19.044-5.587-27.423-3.809-20.907-4.994-23.361-9.395-18.96zm135.257 3.47c-.678 2.455-2.201 10.411-3.47 17.606-1.27 7.194-3.386 18.028-4.825 23.953-1.354 6.01-2.286 11.596-2.032 12.527.931 2.878 3.979 3.386 15.066 2.455 17.86-1.524 19.214-1.947 19.214-7.025 0-5.502-11.511-39.443-16.674-49.092-1.608-2.963-2.963-4.486-4.232-4.656-1.609-.253-2.032.339-3.047 4.232zm-266.535 12.273c-6.518 6.264-13.543 16.675-13.204 19.637.338 2.878 3.64 4.655 13.627 7.195 6.348 1.693 8.718 1.946 10.41 1.27 2.201-.762 2.286-.932 1.694-5.672-.339-2.624-.931-9.395-1.27-14.981-.254-5.586-.846-10.665-1.185-11.257-1.524-2.286-4.91-1.016-10.072 3.808zm38.681-1.946c-4.91 3.385-18.198 25.223-18.198 29.878 0 3.724 2.116 4.91 12.273 7.025 14.558 3.047 15.997 2.2 13.712-8.718-.847-3.893-1.862-11.342-2.286-16.59-.846-8.971-1.777-12.78-3.216-12.78-.339 0-1.354.508-2.285 1.185zm273.983 2.454c-.508.593-2.031 5.587-3.47 11.173-1.44 5.586-3.555 12.95-4.74 16.42-4.232 12.527-3.217 13.458 12.188 11.596 11.85-1.439 14.474-2.624 14.474-6.517 0-7.703-12.696-33.772-16.42-33.772-.593 0-1.524.508-2.032 1.1zm-229.801 2.37c-3.724 2.2-19.129 25.731-20.483 31.487-.762 2.962 1.185 5.332 4.91 6.01 6.94 1.269 24.715 2.962 26.492 2.539 3.132-.762 3.216-3.47.339-11.766-1.44-4.232-3.386-12.019-4.317-17.351-2.116-11.85-2.963-13.204-6.94-10.919zm140.081 3.471c-.423.592-2.623 5.501-4.74 10.918-2.116 5.333-5.332 13.12-7.279 17.182-5.67 12.443-5.247 12.866 11.342 12.527 16.42-.254 19.722-.761 21.33-3.131 1.1-1.693 1.1-2.37-.17-5.925-2.03-6.18-11.934-26.578-14.388-29.794-2.201-2.878-4.571-3.555-6.095-1.777zm-48.245 1.608c-2.793 2.878-14.558 31.74-14.558 35.464 0 3.47 2.877 4.232 16.759 4.232 7.363 0 13.712-.423 14.643-.846 2.454-1.354 2.03-4.063-2.709-15.828-2.37-6.01-5.248-13.542-6.433-16.759-3.131-8.633-4.486-9.734-7.702-6.263zM79.315 304.915c-.677.846-1.693 3.047-2.2 4.909-1.524 5.756-3.47 23.022-3.47 30.555 0 7.11.084 7.449 5.67 19.637 9.819 21.499 28.101 57.471 30.64 60.18 3.301 3.555 7.449 3.64 10.834.254 4.91-4.994 24.462-28.27 25.816-30.894 1.1-2.032 1.693-6.518 2.37-17.098.508-7.956 1.693-20.314 2.708-27.508.931-7.195 1.862-14.728 2.116-16.674.762-5.925-.846-6.856-20.483-11.596-9.31-2.285-24.122-6.179-32.84-8.634-8.719-2.539-16.76-4.57-17.86-4.57-1.015 0-2.539.677-3.3 1.439zm92.175 21.329c-.762.847-1.778 2.878-2.201 4.402-1.524 5.417-4.317 29.963-4.825 41.812-.423 9.988-.254 12.273.847 14.559 1.608 3.047 40.289 55.355 43.674 58.994 1.185 1.27 3.047 2.709 4.148 3.132 5.078 1.947 61.45 4.994 93.782 4.994 37.073 0 85.826-2.455 89.889-4.57 2.116-1.1 37.75-48.585 42.575-56.795 1.862-3.132 2.03-4.486 2.37-17.52.338-16.506-1.27-44.945-2.624-47.569-.508-.93-1.355-2.031-1.863-2.37-1.523-1.015-8.379-.762-25.392 1.016-8.887.931-26.239 2.37-38.512 3.3-20.398 1.44-22.43 1.778-24.122 3.387-1.778 1.777-1.778 2.37-2.2 44.944-.509 50.785.676 45.96-11.935 47.992-14.982 2.454-54.34 1.608-69.745-1.524-7.702-1.524-7.194 1.608-7.279-42.151-.084-41.474-.423-47.907-2.793-49.6-.846-.677-4.57-1.354-8.38-1.608-23.53-1.693-43.42-3.386-55.185-4.74-16.929-2.031-18.452-2.031-20.23-.085z"/><path d="M276.275 333.1c-1.016.339-2.116 1.44-2.455 2.286-1.015 2.116-1.523 58.317-.677 66.189.593 5.248 1.016 6.517 2.794 7.787 3.216 2.37 13.796 3.555 31.74 3.64 16.928.084 21.668-.678 23.276-3.725.508-1.015.847-15.404.847-37.58 0-34.957-.085-36.142-1.693-37.75-1.608-1.609-2.793-1.693-26.831-1.609-13.882 0-25.985.339-27 .762zm31.91 13.966c6.263 3.301 7.702 11.85 3.3 19.637-3.046 5.332-3.046 6.094-.422 16.335 2.539 9.819 2.539 10.58.423 12.697-1.354 1.354-2.793 1.692-7.533 1.692-7.025 0-9.819-.93-10.496-3.385-.254-1.1.423-5.502 1.608-9.819 2.624-10.241 2.54-12.103-.507-17.859-1.609-3.047-2.54-5.925-2.54-8.21 0-9.141 8.55-14.981 16.167-11.088zM75.93 395.48c-.339.255-.593 2.625-.593 5.08 0 3.723.423 4.908 2.116 6.601 1.1 1.185 3.047 2.116 4.232 2.116 1.693 0 2.116-.423 2.116-2.116 0-3.385-4.909-12.273-6.771-12.273-.339 0-.847.254-1.1.593zm63.988 26.24c-3.724 4.147-5.078 6.855-4.232 9.056.762 1.862 4.317 3.894 7.787 4.486 2.54.423 3.47.17 4.317-1.016 1.439-1.862 1.523-8.887.254-13.373-1.185-4.401-3.47-4.147-8.126.846zm25.054-2.117c-1.185 2.286-.508 17.944.931 21.16 1.439 3.132 4.486 4.233 12.358 4.74 10.41.593 10.326-1.1-1.1-16.081-6.264-8.295-9.311-11.68-10.58-11.68-.34 0-1.101.846-1.609 1.861zM433.2 428.49c-3.894 4.148-9.819 12.358-10.834 14.982-1.1 3.047.846 4.74 5.586 4.74 5.078 0 9.48-1.947 10.495-4.655.932-2.455 1.185-14.728.339-16.844-.846-2.116-2.285-1.608-5.586 1.778z"/></g></svg>