<svg version="1.0" xmlns="http://www.w3.org/2000/svg" width="682.667" height="682.667" viewBox="0 0 512 512"><path d="M238.5 26.5C225 28.6 219 30.9 219 33.9c0 1.7 4.1 4.3 15.3 9.6 35.5 16.7 88.8 36.7 127.3 47.9 14.7 4.2 18.5 4.9 20.3 3.7 2.7-1.8 0-6.3-9.7-16C333 40 281.3 19.7 238.5 26.5zm-56.7 15.6c-12 2.7-44.5 23.6-48.4 31.2-1.4 2.5-1.3 2.9.9 5.1 5.5 5.5 61.1 20.9 199.2 55.2 10.1 2.6 12.9 2.8 35.5 3.2 35.1.5 40-.3 41.5-6.9.5-1.9 0-3.3-1.7-5.3-1.9-2.2-5.4-3.4-21.3-7.5-61.4-16-121.7-38.1-175.5-64.3-21.6-10.6-25.1-11.8-30.2-10.7zm-64.2 56.1c-.8 1.3-3.5 7.3-5.9 13.3-2.4 6.1-5.8 13.8-7.5 17.1-4.1 8.2-7.3 17.9-6.6 19.9.9 2.2 5 3.7 8.8 3 11.2-1.9 88.5-8.2 128.1-10.5 18.9-1.1 26.5-2.2 26.5-4 0-2-7.2-4.4-39.5-13.1-38.3-10.2-66.6-18.3-84.1-24-14.1-4.6-17.7-4.9-19.8-1.7zM316 155.7c-80.2 2.5-147.1 7-213.5 14.4-18.9 2.1-21.8 3.1-23.5 7.5-2.1 5.5-.1 17.4 3.6 21.5 2.1 2.4 6.5 2.4 24.1.4 16.9-1.9 44-4.1 69.3-5.7 31.3-1.9 132.3-1.6 183.5.6 23.1 1 46.6 1.9 52.3 2 12.9.1 13.2-.1 13.2-12.5 0-13.9-3.3-25.4-7.9-27.9-1.8-.9-74.5-1.2-101.1-.3zm91.6 61.5c-2.2 1.9-3.1 4.6-5.6 16.8-1.6 8-3.4 16.1-4 18-1.4 4.7-1.3 10.3.2 11.8.7.7 2.9 1.2 5 1.2 4.6 0 7.5-2.5 8.2-7.2.6-3.6 4-22.6 5.9-32.7 1.1-6.1 1.1-6.4-1.2-8.2-3.1-2.5-5.4-2.4-8.5.3zm-261.3-.1c-1.8 1.8 0 6.1 7 16.7 8.5 13 15.5 20.5 22.3 23.8 4.7 2.3 6.3 2.6 11.9 2.2 14.5-1.2 39.1-17.8 32.4-21.9-.8-.4-3.9-1.1-6.9-1.4-19.2-2-33.8-6.2-53.1-15.1-6.3-3-11.8-5.4-12-5.4-.3 0-1 .5-1.6 1.1zm205.3 4.5c-19.2 8.9-33 12.9-52.6 14.9-7.1.7-8.4 1.6-7.6 4.8.8 3.2 10.8 10.6 20.3 14.8 18.8 8.6 30.1 3.3 46.8-22.1 7-10.7 8.9-15.2 7.2-16.9-.6-.6-1.3-1.1-1.6-1.1-.4 0-6 2.5-12.5 5.6zM90.2 220c-3.9 1.7-4.7 5-2.6 12 2.2 7.4 5.1 10 11.6 10.7 6.6.8 7.5-.8 6-10.5s-3.5-12.6-8.8-12.9c-2.1-.1-4.9.2-6.2.7zm-22.6 34.7c-.9 1.6-4.7 9.1-8.5 16.8-3.7 7.7-9 17.6-11.6 22-5.6 9.5-6.6 12-5.9 14 .8 2 22.4 12.5 25.7 12.5 4.8 0 16.7-17.2 16.7-24.1 0-7.4-6.7-35.8-9.9-41.8-1.6-2.9-4.7-2.6-6.5.6zm33.8 9.7c-2.5 1.9-2.3 10.3.6 24.7 2.4 12 5.8 20 9.3 22.3 6.7 4.4 73.4 14.1 123.7 18 37.9 3 104.6 5.5 144.3 5.6 19.4 0 21-.6 23.1-8.3 2.7-9.3 4.8-23 5-31.5.1-7-.2-8.6-1.7-9.7-1.4-1-12.8-1.3-57.5-1.2-92 0-151.7-4.7-223.5-17.9-21.6-3.9-20.7-3.8-23.3-2zm19.8 70.8c-2 2-1.4 4.6 3.7 18.8 2.7 7.4 5.9 17.2 7.2 21.7 2.3 8.7 4.7 12.3 8 12.3 1.1 0 9.3-1.4 18.2-3 31-5.8 58.7-9.6 93.7-12.7 15.4-1.3 31.5-1.7 77.3-1.8 57.3-.1 57.8-.1 59.9-2.2 1.3-1.4 2.2-3.9 2.6-7.1.7-8.1 3.1-7.7-54.3-9.1-83.4-1.9-134.9-5.9-189.9-14.6-24.8-3.9-24.8-3.9-26.4-2.3zm153.9 55.4c-1.8 1.3-2.2 2.3-1.7 4.5.9 4.5 3.5 7.9 6.1 7.9 5.1 0 11.2-11.8 6.9-13.4-3-1.1-9-.6-11.3 1zm87.2-.6c-1.6.6-4.5 5.4-9.5 15.5-8.3 16.5-8.3 18.1-.8 17.9 5.8-.1 8.2-2.9 13.5-15.8 5-11.9 5.5-16 2.6-17.6-2.3-1.2-2.8-1.2-5.8 0zm-133.2 2.9c-1.3.3-3 1.5-3.7 2.6-1.2 1.8-1 2.7 1 7.2 2.7 5.7 5.8 9.3 8.2 9.3 1.7 0 4.8-6.5 5.8-12.2 1.1-6.3-3.5-9.1-11.3-6.9zm160 6.3c-3.8 6.1-12.3 28.6-12.4 32.6-.1 8.4 17.2 38 24.6 42.2 2.3 1.3 2.8 1.3 4.7-.5 1.2-1.1 4.1-4.9 6.6-8.6 2.4-3.7 6.7-9.1 9.5-12 7.4-7.8 8.3-9.3 6.9-11.9-.6-1.2-4.2-5.1-7.9-8.8-7-6.9-15.9-18.5-22.3-29.1-4.1-6.7-7.2-8-9.7-3.9zM152.3 405c-8.1 3.3-1.6 17.6 7.6 16.8 3.2-.3 3.6-.7 3.9-3.3.5-4.4-1.5-10.1-4.5-12.4-2.8-2.3-3.7-2.4-7-1.1zm50.3 11.2c-2.5 4-3 8.7-1.1 10.8 3.9 4.3 11.5 3.2 11.5-1.6 0-4.2-4.8-11.4-7.7-11.4-.7 0-1.9 1-2.7 2.2zm55.1 3.5c-2.2 2.6-3.1 6.8-1.7 9.2 1.5 2.9 8.5 3 10 .2 1.1-2.2-.1-6.4-2.7-9.3-2-2.3-3.6-2.3-5.6-.1zm41.6 1.5c-2.7 3.4-1.8 7.8 1.6 7.8 3 0 4.6-2.7 3.5-5.8-1.1-3-3.5-4-5.1-2zM165.8 444c-2.4 1.5-2.2 4.9.6 11.4 4.2 9.4 13.7 17.3 28.7 23.8 9.8 4.2 19.1 6.8 24.2 6.8 5.6 0 47.8-25.9 51.1-31.3.9-1.4.7-2.1-.8-3.3-1.5-1.1-5.4-1.4-16.6-1.4-23.6 0-51-2.2-81.9-6.5-2-.3-4.4-.1-5.3.5zm157.7 2c-7.7.9-15.1 2.2-16.5 3-1.4.7-6.4 5-11.3 9.5-4.8 4.6-12.8 11.1-17.8 14.6-15.3 10.7-17.4 12.4-17.4 14.5 0 5.6 33.9.9 54.3-7.5 16.4-6.8 27.5-15.9 31.1-25.6 2.5-6.7 2.5-6.9.5-8.9-1.9-1.9-4.5-1.9-22.9.4z" fill="#f2f2f2"/></svg>