<svg version="1.0" xmlns="http://www.w3.org/2000/svg" width="682.667" height="682.667" viewBox="0 0 512 512"><path d="M132.8 21.5c-48 9.1-79.1 53-74.7 105.3 3.3 39 28.9 73.4 68.2 91.6 5.1 2.4 11 4.9 13.2 5.6 9.9 3.1 14.6 6.6 11.7 8.4-.5.3-7.9 2.3-16.4 4.5-26.7 6.8-58.1 20.7-73.9 32.5-30.7 23.1-47.4 59.1-45.6 98.5 1 22.2 7.9 41.6 19.9 55.9 9.6 11.3 19.6 17.5 34.9 21.3 14.7 3.8 35.3 1.6 45.6-4.7 5.1-3.2 11.4-9.8 14.1-14.9 3.4-6.5 3.8-17.8.7-24-2.7-5.5-10.1-12.5-16.4-15.5-7-3.2-8.4-2.3-9.2 6.1-.3 3.5-1 7.3-1.6 8.4-2.1 3.7-6.8 7.3-11.1 8.5-17 4.5-34.2-16.7-34.2-42 0-29.7 25-60.2 57.7-70.4 18.1-5.6 27.4-7 47.8-7 28.7-.1 30.4 1.3 18.4 15.5-22 26.1-33.9 54.5-33.9 81.3 0 11 1.5 19.2 5.5 31.4 13.7 40.9 39.8 68.5 73 77.3 10.5 2.8 28 3 38 .4 45.3-11.4 66.7-54.8 46.9-95.2-11.1-22.9-33.1-29.1-52-14.7-4.5 3.5-7 8-5.4 9.9.6.8 3.6 1.9 6.6 2.5 15.3 3.2 25.4 19.1 21 33.3-2 6.6-5.4 10.7-11.7 14.2-4.6 2.5-6.8 3-14.6 3.3-16 .7-29.8-5.2-42.2-18.3-7.6-8-11.6-15.6-13.8-25.8-6-28.2 13.1-66.2 43.6-86.5 10.3-6.8 10.7-6.7 23.9 11 13.1 17.5 28.6 30.4 53.6 44.8 28.6 16.4 42.4 20.9 66.7 21.7 18.4.6 30.5-1 46.5-6.2 44.1-14.4 71.3-47 66.6-79.8-4.1-28.5-35.3-58.5-57.5-55.1-11.5 1.8-24.7 14.5-24.7 23.7 0 3.1 1.4 3.6 10 3.5 8.1-.2 14.1 2.3 20 8.2 9.6 9.6 12.3 24.2 6.5 34.9-10.8 19.7-51.4 28.8-82.8 18.4-13.5-4.5-35.6-18.9-51.2-33.5-8.8-8.2-19.8-21.5-22.8-27.6-2-3.9-2-4.3-.4-5.9 1.5-1.5 2.7-1.5 11.9-.5 30.6 3.6 58.8-.1 83.2-10.7 12.6-5.5 29.3-19.2 36.9-30.2 8.1-11.8 17.4-35.8 20.2-51.7 2-11.1 1.9-30.2-.1-39.9-6.5-31.6-27.3-56.7-54.7-65.8-29.6-9.9-59.6 2.2-76 30.6-7.3 12.5-9 27.1-4.5 37 1.4 3 4 6.9 5.9 8.8 6.6 6.6 21.8 11.8 26.8 9.1 2.7-1.4 2.6-2-.5-8.8-5.7-12.3-3.6-24.2 5.6-32.5 8.1-7.3 16.6-8.6 26.5-3.8 10.3 4.8 17.3 14.4 20.5 28 1.9 8 .8 27.7-2 36.6-5.3 17-15 30-28.5 38.7-18.5 11.9-38.5 14.7-56.7 7.8-9.7-3.6-14.4-7.3-17.8-13.9-3.9-7.8-3.9-11.7.1-16.7 6.1-7.6 8.2-13.2 8.7-22.4.3-7 0-9.5-1.8-14.2-2.9-7.9-10.1-15.6-18.2-19.5-3.5-1.7-7.1-4-8.1-5.1-1-1.1-3.6-8.8-5.8-17.2-7-26.9-15.2-44.6-27.2-59C226.3 42.6 203 29.3 175 22.9c-11.5-2.6-32.1-3.3-42.2-1.4zm143.7 139c9.4 5.5 10.5 19.6 2 26.4-11 8.6-26.5 1.5-26.5-12.2 0-13.2 13.2-20.9 24.5-14.2zm-64.7 10.7c4.7 2.9 7.5 9 6.9 15.1-.5 5.4-2.7 9.1-7.8 12.5-2.8 2-4.4 2.3-9 2-7-.5-11.4-3.5-14.1-9.6-6.5-14.7 10.1-28.6 24-20z" fill="#f2f2f2"/></svg>