<svg version="1.0" xmlns="http://www.w3.org/2000/svg" width="682.667" height="682.667" viewBox="0 0 512 512"><g fill="#f2f2f2"><path d="M248.7 31.1c-16.4 1.8-33.8 7.1-44.5 13.7-24.8 15-37.5 39.3-43.6 83.9-.9 6.1-2.7 26.8-4.1 45.9-3.5 47.1-5.6 63.2-11 82.5-7.8 27.6-22.4 48.5-42.1 60.2-4.4 2.6-17.4 8.8-28.8 13.7-30.7 13.2-39.1 18.4-42.8 26.7-2.3 5.3-1.8 8.6 2.3 15.1 5.1 8 2.9 17.9-5.3 24.5-2.2 1.8-4.6 4.4-5.4 5.9-6.2 12 9.1 31.4 20.9 26.4 4.5-1.8 7.4-5.7 9.3-12.4 2-6.9 1.4-11-2.8-17.5-2.7-4.2-3.3-6.3-3.6-11.6-.4-8.7 1.7-13.1 7.3-15 6.4-2.1 35.3-2 43.4.3 14.4 4 25.3 11.9 30.9 22.4 1.7 3.1 4.5 11.3 6.2 18.1 1.7 6.8 4 14.1 5 16.1 4.5 8.8 12.5 12.1 29.5 12.1 12.7 0 15.7-.9 40.4-11.5 30.1-13 43-16.6 59.2-16.6 21.1 0 29.5 4.8 56.5 32.3 14.7 15 19.2 19 24.4 21.5 9.4 4.7 16.1 4.1 21.6-2 3.2-3.5 5.1-7.7 10.5-23.4 6.2-18.4 8.8-23.4 15.7-30.6 9.8-10.3 19.5-13.7 42.2-14.5 13.2-.5 16.1-.3 18.7 1.1 3.8 1.9 5.3 6.2 5.3 14.7 0 4.6-.6 6.5-3.6 11.5-4.5 7.2-5.2 12.7-3 21.5 4.4 17.3 15.8 23.8 25.1 14.2 4.8-4.9 7.8-13.1 7.9-21.8.1-6.8 0-7.2-4.6-13.5-5.2-7.3-6.9-12.3-7.1-21.4-.2-5.5.2-6.6 3.2-10.8 3-4.2 3.3-5.2 2.9-9.3-1.1-9.6-10.7-21.3-44.7-54.3-34.2-33.1-41.2-41.6-52.3-63.2-3.5-6.8-6.3-10.9-7.9-11.7-1.3-.7-5.4-1.3-9-1.3-10.5 0-12 3.4-10 22 1.4 12.9 3.3 17.2 11.5 25.9 7.4 7.9 8.2 10.2 7.3 22-1.3 18.1-10.5 32.1-21.1 32.1-10 0-18.3-9.8-22.7-26.7-3.4-13.6-2.1-19.5 6.4-29.1 5.9-6.6 7.1-11 6.3-23.1-1.1-17.1-6-22.8-18.6-21.6-12 1.2-32.3 4.5-59.5 9.9-14.8 2.9-27.8 5.1-28.7 4.8-1-.2-2.3-1.4-2.9-2.5-2.2-4.1 4.4-24.3 12.5-38.1 4.9-8.4 16.4-20.6 19.4-20.6 5.1 0 4.6 7.3-.9 15-4.2 5.8-4.7 9.8-1.8 15 2.9 5.2 7.4 8 12.8 8 3.5 0 4.9-.7 8.6-4.1 7.4-6.8 8.2-13.1 2.4-19.2-5.1-5.3-6.2-8.2-5.7-15.9.3-5.6.8-7.2 2.8-9.3 4.1-4 13.6-6 28.5-5.9 14.6 0 25.7 2.2 37.5 7.6 7.7 3.4 10.4 3.4 10.8-.3.5-4-5.6-33.9-7.4-36.7-1.7-2.6-1.6-2.6-11.4.3-6.4 1.9-17.4 1.4-22.1-1-4.7-2.5-3.8-5.2 4.2-13 7.3-7.3 16.4-18.7 19.3-24.2 2.3-4.6 2-8.7-1.8-22-7.8-27.2-16.9-44.7-29.2-56.4C305.1 34.3 295.5 31 273 30.5c-8.5-.2-19.4.1-24.3.6zm-4.8 103.2c13.6 13.3 18.4 17.2 26.7 22.1 7.6 4.4 8.9 5.8 7.5 8.4-3 5.5-20.5 7.8-34 4.3-11.4-2.8-16.3-5.9-19-11.6-4.2-8.8-4.5-26.2-.7-32.1 1.2-1.7 2.6-2.4 4.7-2.4 2.6 0 5 1.8 14.8 11.3z"/><path d="M255.3 440.5c-11.7 3.2-21.2 10.4-21.4 16.3-.4 10 4.2 16.1 16 20.8 17.2 7 39 4.8 47.5-4.6 6-6.7 4.7-14.7-3.8-23.8-7-7.4-12.2-9.6-23.6-9.9-5.9-.2-11.5.3-14.7 1.2z"/></g></svg>