<svg version="1.0" xmlns="http://www.w3.org/2000/svg" width="682.667" height="682.667" viewBox="0 0 512 512"><g fill="#f2f2f2"><path d="M265.8 40.9c-20.8 6.7-39.4 29.4-55.7 68.2-5.1 12.1-6.1 13.3-10.4 13.3-7 0-19.6-7.8-58.9-36.6C110.2 63.4 88.7 54 68.3 54 43.3 54.1 21 70.1 21 87.9c.1 14.6 10.4 23.3 33.8 28.7 17.9 4.2 33.1 9.3 43.7 14.8 16 8.3 32.1 19.4 44.9 31.1 14.1 12.7 21.9 18.6 30.1 22.7 8.4 4.2 9.5 5.4 9.5 10.2 0 6.1-3.4 17.3-6.1 20.3-3.8 4.1-14.9 8.7-35.5 14.7-32.2 9.4-46.6 15.2-60.3 24.6-24.4 16.5-42.8 47.4-40.7 68.1 1.5 15.6 9.8 26.2 23.6 30.3 11.3 3.4 24.6 1.4 53.6-7.9 24.5-7.8 31.5-9.5 40.1-9.5 8.7 0 12.5 1.6 14.3 6.1 1.2 2.8 1.1 3.6-1 7.5-1.2 2.4-8.2 10.6-15.4 18.2-15 15.9-18.6 21.6-19.3 30.7-.9 10.3 2.8 17.5 11 21.7 6.6 3.3 13.7 3.4 30.9.3 23-4.2 25-3.4 34.2 14.4 7 13.4 11 18.2 18.2 21.7 4.7 2.3 6.3 2.6 11.7 2.2 13.6-1.1 23-8.9 37.5-30.7 16-24.1 21.3-28.6 33.1-27.9 11.5.7 22.8 7.8 46.6 29.2 12.3 11.1 22 18.8 28.3 22.5 20 11.7 42.8 8.9 50.1-6.2 2.7-5.7 2.8-15.7.1-29.5-4-20.6-2.7-23 16.5-29.2 14.5-4.6 20.6-10.8 21.3-21.4.9-14.4-6.7-22.8-32.8-36.1-23.1-11.8-27.8-16.6-21.7-22.3 1.2-1.2 11-6.7 21.6-12.2 22.6-11.8 31.8-17.4 38.5-23.8 14.9-14.4 12.4-32.4-6.3-45.1-8.1-5.5-12.3-7.5-29.3-13.7-32.7-12.1-48.7-20.8-56.3-30.8-1.4-1.8-5.5-10.9-9.1-20.2-19.3-50-44.8-90.9-68.3-109.3-14.9-11.6-32-15.8-46.3-11.2zm26.5 20c23.3 11.5 50.8 53.5 72.8 110.9 3.3 8.5 7.3 17.3 8.9 19.7 8.8 12.8 29.6 24.8 65 37.5 22.2 8 33 15.2 33 22 0 6.6-9.2 13.3-39 28.9-28.4 14.7-34 19.6-34 29.3 0 9 5.2 17.7 14.4 24.3 3.4 2.3 12.9 7.7 21.2 11.9 8.3 4.2 16.7 9.2 18.8 11 6.8 6.3 4 10.9-8.8 14.8-13.7 4.1-21.2 9.6-25.2 18.5-2.4 5.4-2.2 18.5.5 29.3 3.6 14.8 2.5 20-4.8 22-8.7 2.3-20.1-4.2-43.6-25-30.8-27.2-43.3-34.2-60.9-34.2-17 .1-27.8 8.4-44.1 33.7-12.1 18.9-17.8 24.5-24.6 24.5-5.3 0-7.4-2.2-13.6-14.3-12.6-24.7-24.1-29.8-53-23.2-13.1 2.9-15.1 3-18.1.9-2.7-1.9-2.9-5.8-.4-9.9 1.1-1.7 7.8-9.2 15-16.8 15.8-16.6 19.2-22.4 19.2-32.6 0-16.1-13.2-26.6-33-26.4-10 .1-19.4 2.2-41.5 9.3-24.5 7.8-31.1 9.4-40.2 9.4-6.8.1-8.6-.3-11-2-4.7-3.5-6.7-8-6.6-14.8.1-11.6 6.4-24.1 18.5-37.1 15.1-16.2 27.9-22.6 67.9-34.4 30.3-8.9 39.8-13.3 46.7-21.7 3.8-4.6 5.3-8.7 9.2-25.4 10.5-44.4 24-84.5 36.2-107 17.8-32.7 35.1-43.1 55.1-33.1zM81 73.6c8.2 1.9 22.6 8.7 33.4 15.8 4.6 3 17.6 12.1 28.8 20.3 27.9 20.5 28.8 21.1 41.3 27.3 13 6.5 13.1 6.7 9.1 20.5-2.9 9.9-4.7 12.5-8.7 12.5-4 0-15.6-8.2-28.9-20.5-12.1-11.2-22.1-18.4-38.3-27.9-18.6-10.9-31.8-16-57-22-5.9-1.4-12.3-3.3-14.3-4.2-7.2-3.5-8.1-9.1-2.2-14.6 8.6-8 22.2-10.7 36.8-7.2z"/><path d="M265.1 93.6c-4.9 4.1-14.3 17.2-19.4 27.1-10 19.3-16 39.2-22.2 73.7-3.5 19-4.1 25.1-2.7 27.2 1.3 2 5 3.4 9.1 3.4 3.1 0 4.4-.5 5.6-2.3.8-1.3 3.3-11.6 5.5-22.8 9-45.8 18.5-72 31.9-87.9 8.3-9.9 8.7-12.3 3-17.9-3.7-3.8-6.8-3.9-10.8-.5zM157.4 263.5c-19 4.9-52.4 18.7-58.6 24.3-2.4 2-2.3 6.7.3 10.8 3.4 5.5 5.3 5.3 19.8-1.5 17.9-8.5 31.4-13.4 47.2-17.1 15.8-3.8 18.5-5.7 17.6-12.3-1.2-8.8-5.8-9.5-26.3-4.2zM56.5 396.6c-1.1.2-4.5.9-7.5 1.5-16.4 3.3-26.5 14.9-26.5 30.4 0 14.1 8.8 25.8 26.2 34.8 13.8 7.1 22.2 9.2 37.8 9.2 12.2 0 13.4-.2 19.3-2.9 9.6-4.4 15.1-11.5 18.7-24.1 6.1-20.8-8.4-39.4-36.2-46.6-7.4-1.9-27.4-3.4-31.8-2.3zm42.9 26.8c4.7 2.7 8.6 8.9 8.6 13.5 0 3.7-2.3 9.7-4.8 12.5-6.8 7.6-26 7.4-43.4-.7-6.5-3-11.8-7.4-11.8-9.7 0-3.6 14.9-11.1 30.9-15.5 11.2-3.1 15.4-3.1 20.5-.1z"/></g></svg>