<svg version="1.0" xmlns="http://www.w3.org/2000/svg" width="682.667" height="682.667" viewBox="0 0 512 512"><g fill="#f2f2f2"><path d="M72.2 19.6c-3.9 1.7-5.7 12.8-2.4 15.6.9.9 5.5 2.8 10.2 4.3 18.5 6.1 42 16.6 45.3 20.3 2.5 2.8 1.6 5.1-4.7 12-10.5 11.3-18.4 26.1-22.3 41.8-1.2 4.8-1.7 11.2-1.7 21.4-.1 12.7.2 15.9 2.7 25.5 3.2 12.6 3.1 13.5-3 20.5-12 13.6-20.6 31.3-24.9 51-2.9 13.2-2.7 47.6.4 62 4.9 22.4 13.3 43.1 25 61 15 23.2 38.2 45.1 62.2 59 9.5 5.5 12 7.7 12 10.8 0 1.4-5.6 15.4-12.5 31.2-6.9 15.8-12.5 29.7-12.5 30.8 0 3.6 2.7 5.2 8.6 5.2 4.7 0 6-.4 8.3-2.7 1.6-1.7 7-12.8 13.6-27.8 12.3-28.2 12.8-29.3 16.1-30.1 5.9-1.5 16.4 5.7 16.4 11.4 0 1.6-2 11.4-4.5 21.6-2.5 10.3-4.5 20-4.5 21.6 0 4.2 2.4 6 8 6 7.9 0 9.4-2 13.5-18.5 5.9-23.4 6.6-24.4 14.3-23 12.4 2.1 13.2 3.6 13.2 23.4 0 13.9 0 14 2.6 16 3.5 2.7 10.6 2.9 13.3.2 1.6-1.6 1.9-3.9 2.3-17.5.4-14.5.6-15.8 2.7-18 2.1-2.2 12.2-5.6 16.9-5.6 3.5 0 5.3 3.7 9.7 21.1 5.1 19.9 6.3 21.9 13.8 21.9 5.5 0 8.7-2.2 8.7-6 0-1.6-2.2-12-5-23.1-2.7-11.1-5-21-5-22 0-4.1 9.8-11.9 15-11.9 1.2 0 3.1 1 4.2 2.2 1.1 1.3 7.1 14 13.3 28.3 6.9 15.8 12.5 27.3 14.3 29.3 2.6 2.9 3.5 3.2 8.5 3.2 5.9 0 8.7-1.6 8.7-5.1 0-1-5.8-15.3-13-31.7-7.1-16.5-13-31.3-13-32.9 0-3.5 2-5.5 10.8-10.8 58-34.6 93.1-104.1 85.1-168.5-2.8-23.3-10-40.7-24.2-59.2-6.8-8.9-6.8-9.6-2.8-24.3 3.2-11.3 3.9-29.2 1.7-40.9-3.5-18.1-10.2-32.2-22-45.6-5.4-6.1-6.6-8.1-6.4-10.5.3-2.8 1.2-3.5 13-9.4 7-3.5 19.4-8.6 27.4-11.5 17.6-6.1 19.2-7.5 17.3-15-.7-3-2-5.3-3.6-6.3-2.2-1.4-2.9-1.4-9.1.2-10.9 3-28.6 10-45.2 18-17.6 8.5-15.4 8.4-30.9 1.6-20.3-9-46.7-16-72.6-19.2-12.9-1.6-52.1-1.6-65 0-24.9 3.1-49.4 9.3-68.9 17.5-6 2.5-12 4.6-13.3 4.6-1.4 0-9.1-3.1-17.2-6.9-23.4-11-44.8-18.2-48.9-16.5zm212.3 20.9c28.4 3.3 61.8 12.4 64.5 17.6 1.6 2.8.1 4.8-9.2 12.5-30.9 25.5-52 52.7-71.5 91.6-11.1 22.4-10.2 22.5-22.1-1.5-18.6-37.5-40.9-65.9-71.5-91-10.9-9-12.8-11.2-12-13.5 1.7-4.7 34.7-13.3 61.8-16.1 13.8-1.4 46.1-1.2 60 .4zm-103.5 69c18.3 6.4 28.1 28.9 20.2 46.7-2.7 6.3-10.5 14.4-16.7 17.6-7.2 3.7-19.7 4.3-27.6 1.3-14.6-5.5-24-20.5-22.5-36 1.3-14.8 12.3-27.3 27.3-31.1 4.8-1.2 13.5-.5 19.3 1.5zm181.7 1c22.3 10.1 27.8 39.1 10.6 56.3-6.8 6.8-13 9.6-22.6 10-9 .5-15.7-1.3-22.4-6-16.7-11.4-19.5-36.4-5.8-51.5 10.3-11.6 26.4-15.1 40.2-8.8zm-123 84.4c2 2.2 5.6 12.5 10.3 29.9 3.8 14 5.5 18.2 7.4 18.2 2.3 0 4-4 8.1-18.9 6.7-24.3 9.5-31.1 13.1-31.1.7 0 4.3 3 8.1 6.6 17.3 16.9 35.2 24.1 57.3 23.1 8.3-.3 12.4-1.1 19.6-3.6 15-5.1 16-4.5 15 9.2-2.3 32.5-10.4 74.1-19.6 101.7-16.1 48-41.3 82.7-70.5 97-22.8 11.2-48 9.3-70.6-5.2-27.6-17.8-51.6-55.4-66.2-103.8-7.6-25.1-14.9-65.2-16.3-89.5-1-15.8-1.2-15.7 17.6-8.9 10.8 3.8 26.3 4.5 37.9 1.5 15-3.7 25-9.5 37.1-21.1 4-3.9 7.9-7 8.6-7 .7 0 2.1.9 3.1 1.9zM113 196.4c.6.9 1.6 7.5 2.1 15.8 4.5 67.5 15.9 115.3 38.8 161.7 6.2 12.6 6.8 14.5 5.1 15.6-2.6 1.6-15.5-8.1-27.5-20.7-22.4-23.4-36.4-50.9-42.2-83.3-2.4-13.2-2.2-38.2.4-50.5 3.2-15.2 9.7-29.6 16.6-36.8 3.4-3.5 4.9-3.9 6.7-1.8zm296 4.8c4.8 6.6 9.8 17.7 12.7 28.5 2.5 9.1 2.7 11.3 2.7 30.8.1 16.9-.3 22.7-1.8 29.5-4.8 22.1-14.2 43.8-26.4 61-12.5 17.6-35.3 38.3-38.5 35.1-1.4-1.4-.4-4.3 8.1-22.6 17.3-37.1 28.5-87.3 32.3-144 .7-9.9 1.6-19 2-20.3 1.4-3.7 5.2-2.9 8.9 2z"/><path d="M159.4 263.5c-2 5-1.8 16.1.6 23.9 5.2 16.8 19.5 25.5 32.5 19.7 6.1-2.7 8-4.4 11.7-10 3.1-4.9 3.6-8.6 1.3-9.5-.8-.3-4.4-.3-8 .1-4.9.4-7.6.2-11.2-1.2-6.4-2.5-13.9-9.7-17.5-17-3.2-6.3-5.5-9.5-7-9.5-.5 0-1.6 1.6-2.4 3.5zm189.4 1.2c-.9 1-2.8 4.2-4.2 7.1-3.5 6.9-9.7 13.6-15 16.2-3.3 1.6-6.2 2-13.4 2-5.1 0-9.4.4-9.7 1-1.1 1.8 1.6 8.1 5.3 12.2 4.8 5.3 10.5 8.1 16.7 8.1 6.4 0 11.2-2.1 16-6.9 8.4-8.3 12.9-26.7 9.2-37.3-1.4-4.1-2.8-4.8-4.9-2.4zM232 294.1c-2.3 4.3 1.9 18 7.5 24.6 14.6 17.1 39.5 5.7 41.3-18.9.6-9-.9-9.7-7.7-3.5-6.4 5.7-10.7 7.7-16.5 7.7-6.2 0-10-1.8-16.2-7.4-5.8-5.2-6.9-5.5-8.4-2.5zm80.3 67c-12.9 15.7-20.2 18.6-34.1 13.7-5.5-2-6.4-2.1-7.2-.8-2.6 4 4.2 16.3 11.4 20.5 12.1 7.1 24.6 2.3 31.7-12.1 4-8 5.3-21 2.5-23.3-1.4-1.1-2-.9-4.3 2zm-112.7 1.5c-2 5.3 1.5 18 7 25.6 4.9 6.6 12.5 10.3 19.6 9.5 6.3-.8 11.7-4.2 15.6-9.9 4.9-7.2 6.4-14.8 2.8-14.8-.6 0-3.7.9-6.9 2-11.5 4.1-20.9 1.3-29.4-8.6-4.7-5.5-7.6-6.7-8.7-3.8z"/></g></svg>