<svg xmlns="http://www.w3.org/2000/svg" viewBox="0 0 512 512" height="682.667" width="682.667" version="1.0"><g fill="#f2f2f2"><path d="M403.5 67.8c-7.1 2.5-13.1 6.2-20.3 12.6-3.9 3.5-7.3 5.7-9.4 6-1.8.3-10.7.7-19.8.9-19.2.5-32.1 2.8-50.2 8.7-39.8 13.1-74 40.4-90.6 72.5-3.3 6.3-3.7 7.8-3.7 15 .1 9.5 2.8 16.9 8 21.3 1.8 1.5 11.6 7.8 21.7 14 32.8 20.1 57.1 40.3 71 58.7 6.7 8.8 14.8 24.7 17.3 34 2.5 9.6 3 27.1 1.1 40.3-5.2 35.1-19.1 66.3-45.5 101.6-9.5 12.9-12.1 16.7-12.1 18.2 0 1.6 6.9-1 12.9-4.9 29.5-19.1 59.9-53 73.6-81.9 8.8-18.7 11.8-31.1 11.8-48.8-.1-15.9-2.4-24.3-12.4-44.2-16.7-33.3-27.2-68.3-27.4-90.5 0-12.5 1.2-14.7 5.4-9.4 5.1 6.6 11.4 13.1 14.6 15.1 5.4 3.3 14.1 5.9 29 8.6 16.5 2.9 18.4 3.8 48.7 22 26.2 15.8 28.7 16.9 33.4 15.4 2-.7 6.2-3.8 9.4-6.9 6.6-6.5 8-10.5 6-16.8-2.8-8.3-43.3-87.3-50-97.3-2-3-5.3-7.9-7.3-10.9-2-2.9-3.7-6.4-3.7-7.8 0-1.4 2.5-7.3 5.5-13.1 3.1-5.8 5.5-11.5 5.3-12.7-.3-1.8-1-2-6.6-2.1-7.2 0-8.5-1.1-7-5.8 3.3-10.4 3.4-10.7 1.3-12.2-2.4-1.8-3.9-1.7-10 .4zm-3 60.7c5.2 5.1 1.6 14.5-5.4 14.5-7.7 0-11.5-9.7-5.7-14.6 3.6-3.1 8-3.1 11.1.1z"/><path d="M9.7 98.4c-.8 2.1.3 5.5 5.8 17.6 17.3 38.5 33 61.4 56.3 82.3 12.7 11.4 27.8 22.5 53.2 39.2 43.9 28.7 52 34.5 52 36.6 0 3.1-7.8.2-71.9-27.1-28.6-12.2-52.8-22-53.7-21.8-4.2.8-3.9 3.3 1.5 14.4 9.3 19.2 18.9 31.6 31.9 41.3 3.7 2.7 25.6 16.3 48.7 30.3 52.9 32 61.1 37.5 59.1 39.5-1.2 1.2-13.5-3-53.6-18.4-22.3-8.6-42.1-15.6-44-15.7-3.1-.1-3.5.2-3.8 2.5-.6 5.1 11.1 27.4 22 42.1 13.1 17.7 26.5 28.1 54.9 42.8 10.7 5.5 20.3 11 21.4 12.2l2 2-6-.5c-3.3-.4-15.9-3.4-27.9-6.7-13.3-3.7-22.8-5.9-24.3-5.6-3.5.9-3 4.6 1.9 13.8 7.9 14.8 18.5 26.1 31.3 33.3 9.8 5.5 63.6 26.5 67.9 26.5 3.4 0 4.7-.8 11.3-7.3 26.7-25.8 50.9-63.6 60.8-94.7 6.7-21.3 9.1-44 6.1-58-3.2-15.3-12.9-31.4-27.6-46-15.3-15.3-33.1-28.1-72-51.5-13.5-8.2-60.3-37.3-104-64.8C15 97.5 14.2 97 11.9 97c-.9 0-1.9.6-2.2 1.4z"/></g></svg>