<svg version="1.0" xmlns="http://www.w3.org/2000/svg" width="682.667" height="682.667" viewBox="0 0 512 512"><g fill="#f2f2f2"><path d="M173.5 48.7c-10.2.6-25.1 2.4-28.2 3.4-5.5 1.8-5.3 3.5 1.7 13.9 8.9 13.2 16.3 31.3 20.1 49.7 2.3 11.2 3.3 13.3 5.9 13.3 1 0 6.7-4.6 12.7-10.3 25.9-24.4 49.4-37.8 79.8-45.4 7.7-1.9 14.7-4.1 15.5-5 1.3-1.3 1.2-1.6-.8-3.3-4.9-4-24.1-9.9-42.3-12.9-20.9-3.5-44-4.7-64.4-3.4zm106 39.8c-56.9 10-102.9 52.5-150 138.5-3.1 5.8-6.6 11.5-7.8 12.8-1.2 1.2-6.5 4.9-11.8 8.2-5.3 3.3-10.9 7.4-12.5 9.2-9.2 11-12 34.3-4.8 40.6 2.5 2.2 3.2 2.3 9.8 1.5 12.1-1.4 18.1-1.1 20.6 1.2 1.3 1.1 9.9 10.3 19.2 20.5 9.4 10.2 18.5 20 20.4 21.7 4.8 4.7 8.4 4.4 21.5-1.7 5.9-2.8 11.5-5 12.4-5 .9 0 3.2 1.5 5.1 3.4 2.6 2.6 3.4 4.2 3.4 7 0 4.9-1.3 5.7-40 23.1-46.2 20.9-46.3 21-47.9 22.9-2.4 2.9-.2 4.8 10.5 9.1 26.4 10.8 46.7 25.9 64 47.5 7.4 9.3 9.7 10 12.3 3.8 1.1-2.4 6.8-20.4 12.7-40.2 5.9-19.7 11.6-36.9 12.7-38.2 3.2-4.2 11.6-2.6 14.6 2.7 1.2 2.3.9 4-3.8 20-5.9 20-5.9 21.1 1.1 25.5 7.6 4.8 32.9 17.1 45.8 22.2 71.1 28.3 127.6 24.8 163.9-10.2 12.5-12.1 16.2-18.8 10.8-20.1-1.3-.4-13.5 1.7-27.1 4.4-13.7 2.8-26.8 5.1-29.3 5.1-9.8 0-35.4-11.2-53.8-23.5-13.9-9.2-26.8-20.8-46.6-41.6-15.6-16.5-17.9-19.3-17.9-22.5 0-2.7 7.3-11.7 19.9-24.8 28.1-28.9 58.8-51.7 115.9-86 15-9 26.3-16.4 26.7-17.5 1.3-4.1 0-5-18.5-13.3-9.1-4.1-11.3-6.6-15.5-17.5-7.9-20.2-20.6-41.9-33.6-57.1-11.7-13.7-28.3-25.1-44.4-30.3-6.2-2-9.3-2.3-28.5-2.5-15.1-.2-23.9.1-29.5 1.1zm68 71c8.9 2.5 19.3 7.6 29.2 14.4 10.6 7.2 16.3 12.3 16.3 14.5 0 3-4.5 4.4-30.1 9.7l-25.7 5.2-3.5-1.9c-2.9-1.6-20.5-21.1-29.5-32.8-4.3-5.6-2-8.8 7.8-10.5 7.6-1.4 28.3-.5 35.5 1.4zm-110.3 12.1c3.4 1.8 5.1 4.9 4.4 7.9-.3 1.3-7.8 15.4-16.5 31.4-8.7 16-16.1 30.5-16.4 32.3-.2 1.8 1.3 16.1 3.4 31.7 2.2 15.6 3.9 29.9 3.9 31.7 0 4.4-3.8 7.4-9.5 7.4-4.6 0-6.8-1.7-7.8-6-1.8-8-8.8-63.3-8.4-67.1.3-3.6 4-11.2 17.2-35.5 9.3-17 18.2-32.2 19.7-33.7 2.9-3 4.2-3 10-.1z"/><path d="M29.4 152.5c-.8 2.1-.1 6.4 2.9 17.5 12.4 46.2 15.2 138.7 6.8 222-1.9 18.2-1.8 20.5.6 21.4 5.5 2.2 28-19.7 42.5-41.3C93.7 354.9 104 332.2 104 324c0-3.5-.4-4.2-2.7-5.1-1.6-.6-4.4-.8-6.3-.5-9.8 1.5-18.2-5.1-22.1-17.2-2.7-8.6-3-23.9-.5-33.1 3.3-12.8 11.2-25.2 19-30 4.4-2.8 5.9-6.2 4.6-10.9-1.7-6.5-13.6-29.3-21.1-40.7-9-13.7-22.8-27.8-31.5-32.3-6.7-3.5-13.1-4.3-14-1.7zm425.1 75.4c-8.8 5.3-11.4 8.6-9.4 12.3 2 3.8 27 39.6 29.4 42.3 3.8 4 5.5 3.3 5.5-2.3 0-5.8-8.3-52.1-9.9-55.1-1.9-3.5-6.6-2.7-15.6 2.8zm-34 20.2c-5.5 3.3-11 7.1-12.2 8.5-2.8 3.1-2.9 7.5-.3 9.9 1.1 1 7.3 9.5 13.7 18.9 6.4 9.4 12.8 18.3 14.2 19.8 3.4 3.8 5.8 3.6 6.3-.3.6-3.8-3.6-58.7-4.7-61.2-1.4-3.3-6.5-2.1-17 4.4zm-31.1 19.8c-6.6 4.3-9.9 7.5-11.2 11-.6 1.8-1.7 2.4-4.5 2.6-6.3.3-19.7 10.9-19.7 15.4 0 2 3.4 5.3 16 15.5 9.5 7.7 13.3 9.2 14.2 5.8.3-1-1-7.9-2.8-15.3-1.8-7.4-3.3-14.9-3.4-16.7 0-3.2 0-3.2 2.8-1.8 1.5.8 5.7 5 9.2 9.3 10.1 12.2 14.1 16.3 16 16.3 2.6 0 2.9-2.8 1.4-12.6-.7-4.9-2.1-14.1-3-20.4-.8-6.3-1.8-11.8-2-12.2-1.3-2.1-7.4-.6-13 3.1zm-50.1 38c-7.4 5.3-9.3 10.6-5 13.3 4 2.6 11.5 5 13.5 4.4 2.8-.9 3.3-4.1 2.1-11.4-1.1-6.2-2.8-9.2-5.3-9.2-.7 0-3.1 1.3-5.3 2.9zm-21 33.2c-3.8 1.4-2.7 4.4 4.5 12.3 10.4 11.6 14 13.8 17.2 10.6 1.8-1.8 6-13.5 6-16.6 0-3.2-3.7-5.2-10.7-5.8-3.7-.4-8.6-.8-10.8-1-2.2-.2-5 0-6.2.5zm157.5 14.6c-1.4 1.6-8.5 10.6-15.7 20.2-13.3 17.6-15.1 21.3-11.1 22.6 2.1.7 9.8-.6 18.7-3.1 6.7-1.8 7.5-3.4 11.4-20.7 3.4-15.8 3.7-21.7 1.1-21.7-1 0-3 1.2-4.4 2.7zM361.7 359c-17.6 11.9-18.2 13.7-6.9 22 6.9 5.1 11.8 6.4 13.9 3.7 1.6-1.9 8.3-25.9 8.3-29.5 0-5-3.4-4.2-15.3 3.8zm73.7 1.2c-5.2 5.6-30.4 39.5-30.4 41 0 4.1 3.8 4.6 15.6 2.2 9.9-2 13.8-3.8 15.2-7 1.6-3.4 6.4-32.1 6-35.8-.4-4.2-2.7-4.3-6.4-.4zm-39.7 3c-12.2 12.5-21.7 24-21.7 26.2 0 3 3.2 5.9 10.1 9 13.9 6.4 14.8 5.5 17.8-16.4 1.3-9.1 2.2-17.8 2-19.5-.6-4.6-3.3-4.3-8.2.7z"/></g></svg>