<svg version="1.0" xmlns="http://www.w3.org/2000/svg" width="682.667" height="682.667" viewBox="0 0 512 512"><g fill="#f2f2f2"><path d="M106.2 73.5C98 80.4 88.3 108.7 85 135c-2.1 17.1-.9 56 2.1 69.3 2.2 9.6 5 8.1 19-10.5 23-30.6 45.4-58.1 60-73.4 8-8.3 9-10.9 6-15.8-3.8-6.1-18.7-17.4-31.6-23.9-6.8-3.4-21.2-8.4-26.7-9.2-3.9-.6-4.8-.3-7.6 2zm286.8-.9c-19.8 5.3-46.5 21.4-53 31.9-3.1 5-2.2 7.3 6.8 16.8 15.7 16.7 35.5 41.1 60.6 74.5 10.3 13.7 13.6 16.3 16.1 12.8 4.1-5.6 6-53.4 3-76-3.4-26.1-13.6-54.4-21.7-60-2.7-1.9-4.6-1.9-11.8 0zm-222.7 91.9c-9.1 1.6-16.7 4.1-21.9 7.1-5 2.8-9.6 8.5-43.9 54.4-37.7 50.4-52.8 69-72 89-8.6 8.9-10.5 12.1-8.5 14.5 1.4 1.7 23.1 13.2 26.4 14.1 3.3.8 5.1-2 7.5-11.6 6.9-28 33.4-61.4 70.6-89.4 24.4-18.3 40.4-25 60-24.9 19.2 0 33.9 7.9 44.9 24.1 7 10.2 9.9 19.3 10.4 32.7.4 10 .1 11.8-2.2 18.6-3.1 9-3.2 10.5-.7 11.9 2.6 1.3 27.6 1.3 30.2 0 2.5-1.4 2.4-2.9-.7-11.9-2.3-6.8-2.6-8.6-2.2-18.6.5-13.4 3.4-22.5 10.4-32.7 11.1-16.2 25.7-24.1 44.9-24.1 24.2-.1 49.4 13.1 80.5 42 28.4 26.4 44.2 49.3 50.1 72.7 2.4 9.6 4 12 7.5 11.2 3.3-.9 25-12.4 26.4-14.1 2-2.4.1-5.6-9-15-18.9-19.6-35.1-39.7-73.4-91-35.4-47.4-37.4-49.8-43.9-52.9-12.6-6.2-35.1-9.1-51.8-6.7-16.3 2.4-32 8.8-41.7 17-6.9 5.7-10.5 8.1-12.4 8.1-.9 0-5-2.6-9-5.9-9.1-7.3-16.4-11.4-25.9-14.6-15.5-5.3-35-6.8-50.6-4z"/><path d="M181.7 239c-11 1.9-21.3 9.5-26.3 19.2-3.9 7.6-4.4 18.1-1.3 26.3 3 8 11.4 16.4 19.6 19.6 8 3.2 20.5 3.2 28.3.1 7.6-3 15.2-10 18.7-17 2.4-5 2.8-6.8 2.8-14.7 0-7.9-.4-9.7-2.8-14.3-7.4-14.1-23.2-21.9-39-19.2zm15 19.6c5.6 2.7 8.8 7.8 8.8 14 0 14.4-18.5 21.4-30 11.3-8.3-7.3-6.4-20.2 3.7-25.2 4.3-2.1 13-2.2 17.5-.1zm121-19.6c-11 1.9-21.3 9.5-26.3 19.2-3.9 7.6-4.4 18.1-1.3 26.3 3 8 11.4 16.4 19.6 19.6 8 3.2 20.5 3.2 28.3.1 7.6-3 15.2-10 18.7-17 2.4-5 2.8-6.8 2.8-14.7 0-7.9-.4-9.7-2.8-14.3-7.4-14.1-23.2-21.9-39-19.2zm15 19.6c5.6 2.7 8.8 7.8 8.8 14 0 14.4-18.5 21.4-30 11.3-8.3-7.3-6.4-20.2 3.7-25.2 4.3-2.1 13-2.2 17.5-.1zm-130.2 63.5c-2.7 1.1-12.2 5.6-21 9.9-25.6 12.7-37.7 23-45.1 38.5-3.7 7.7-6.5 19.1-5.7 22.7.9 3.7 3.2 5.7 14.5 12.4 29.7 17.6 58.3 29.1 84.3 34 13.8 2.6 39.2 2.6 53 0 19.8-3.7 40.1-10.9 62.4-22 14-7.1 32-17.7 34.5-20.5 3.5-3.9 1.6-16.3-4.4-28-7.4-14.6-19.9-24.9-45.5-37.5-9.3-4.6-19.1-9.2-21.7-10.1-4.3-1.6-5-1.6-7.1-.2-1.3.8-3.2 3.7-4.2 6.4-3.6 9.5-9.3 16.6-18.3 23-3.7 2.6-7 5.2-7.4 5.8-1.6 2.1-.7 7.2 2.1 12.1 3.6 6.2 6.8 8.4 12.1 8.4 3.5 0 4.8-.7 8.8-4.4 7.1-6.6 13.3-8.3 18-5 6.5 4.5-2.9 20-15.5 25.6-11.3 5-21.4 3-32-6.3-3.6-3.3-7.4-5.9-8.3-5.9-.9 0-4.7 2.6-8.3 5.9-10.6 9.3-20.7 11.3-32 6.3-12.6-5.6-22-21.1-15.5-25.6 4.7-3.3 10.9-1.6 18 5 4 3.7 5.3 4.4 8.8 4.4 5.3 0 8.5-2.2 12.1-8.4 2.8-4.9 3.7-10 2.1-12.1-.4-.6-3.7-3.2-7.4-5.8-9-6.4-14.7-13.5-18.3-23-1.7-4.5-4.7-7.8-7-7.6-.5 0-3.2.9-6 2z"/><path d="M241 324.9c-5.4 1.5-2.5 8.3 5.3 12.3 8.3 4.3 20.2 2 25.6-4.9 2.8-3.4 2.4-6.5-.9-7.4-1.4-.4-8.1-.7-15-.7s-13.6.3-15 .7z"/></g></svg>