<svg version="1.0" xmlns="http://www.w3.org/2000/svg" width="682.667" height="682.667" viewBox="0 0 512 512"><g fill="#f2f2f2"><path d="M80.5 32.4C69.7 43.8 63 62.4 63 80.9c0 29.6 6.6 45.5 23.8 57.2 4.2 2.8 8.3 5.9 9 6.7 3.5 4.4-1.1 14.2-6.7 14.2-4 0-14.3-6.6-23.2-14.8-4.4-3.9-8.6-7.2-9.5-7.2-4.8 0-19.7 24.5-27.9 46-4.3 11.3-9.4 31.6-10.2 40.5-.5 5.8-.3 7.3 1.1 8.4 1.4 1.2 2.5.9 8.4-2.1 3.7-1.9 9-4.3 11.9-5.2 8.2-2.7 9.9-4.6 12.8-14.1 2.8-9.4 12.2-28.8 16.1-33.4 2.9-3.5 6.6-4 10.4-1.5 6.5 4.4 6.5 6.7-.4 19.7-9.9 18.5-13.5 32.9-13.6 54-.1 35.1 15.6 68 38.5 80.6 9.4 5.2 19.8 13.4 32.7 25.8 16.3 15.7 16.6 15.6 23.4-4.7 4.9-14.6 19.3-44 23.1-47 3-2.4 6.1-2.1 10.3.9 5.3 3.8 5 5.3-4.3 24.2-12.6 25.6-17.7 41.7-17.7 55.7.1 16.1 6.5 22.1 23.3 22.2 12.7 0 33.7-4.7 38.7-8.8 3.1-2.5 1.9-4.3-7-10.1-12.8-8.3-18.2-16.6-20-30.4-1-8 .1-23.2 2-26.6.6-1.2 1.6-2.1 2.2-2.1.7 0 4.6 3.5 8.8 7.9 11.3 11.8 19.4 15.1 37 15.1s25.7-3.3 37-15.1c4.2-4.4 8.1-7.9 8.8-7.9 2 0 3.4 4 4.2 13 2.1 22.5-3.4 35.3-20 46.1-8.9 5.8-10.1 7.6-7 10.1 5 4.1 26 8.8 38.7 8.8 16.8-.1 23.2-6.1 23.3-22.2 0-14-5.1-30.1-17.7-55.7-9.3-18.9-9.6-20.4-4.3-24.2 4.2-3 7.3-3.3 10.3-.9 3.8 3 18.2 32.4 23.1 47 6.8 20.3 7.1 20.4 23.4 4.7 12.9-12.4 23.3-20.6 32.7-25.8 16-8.8 29-28.3 35.6-53.5 2.1-7.8 2.4-11.2 2.4-27.4 0-17.1-.2-19.3-2.8-28.5-1.6-6.1-5.3-15.1-9.2-23-6.7-13.3-7.4-16-5.2-18.7 4.4-5.5 10.3-6.2 14.1-1.7 3.9 4.6 13.3 24 16.1 33.4 2.9 9.5 4.6 11.4 12.8 14.1 2.9.9 8.2 3.3 11.9 5.2 5.9 3 7 3.3 8.4 2.1 4.8-3.9-4.7-42.2-16.1-65-8.7-17.3-17.5-29.9-20.9-29.9-.9 0-5.1 3.3-9.5 7.2-8.9 8.2-19.2 14.8-23.2 14.8-5.6 0-10.2-9.8-6.6-14.2.6-.8 4.7-3.9 9.1-6.9 17-11.6 23.6-27.4 23.6-57 0-18.5-6.7-37.1-17.5-48.5-7.5-7.9-7-8-34.1 7.2C373.3 53.1 356.3 60 347.5 60c-2.5 0-9.2-1.2-14.7-2.6-11.5-2.9-37.3-7.4-42.3-7.4-4.7 0-6.4.8-8 4.1-1.9 3.6-1.9 8.3 0 9.9.8.6 7.7 2.7 15.4 4.5 16.4 4 20.5 5.6 22.1 8.5 2.5 4.7-2 13-7.1 13-1.7 0-8-1.3-14.2-2.9-20.5-5.3-23.5-5.1-26.3 1.6-1.7 3.8-1.1 6.8 1.4 8.2 1 .5 5.7 1.9 10.6 3 14.2 3.4 22.6 7.9 22.6 12.2 0 2.5-5.7 8.8-8.5 9.5-1.2.3-5.8-.6-10.2-2-9.8-3-19.2-4.2-22.1-2.7-1.2.6-3.1 4-4.7 8-4.4 11.7-6.6 11.7-11 0-1.6-4-3.5-7.4-4.7-8-2.9-1.5-12.3-.3-22.1 2.7-4.4 1.4-9 2.3-10.2 2-2.8-.7-8.5-7-8.5-9.5 0-4.3 8.4-8.8 22.6-12.2 10.3-2.4 12-3.2 12.9-5.8.9-2.9-2-8.9-4.9-10.2-2.9-1.4-9.8-.3-23.8 3.7-11.4 3.2-15.1 3.1-17.7-.1-2.6-3.4-3.5-7.9-2.1-10.5 1.6-2.9 5.7-4.5 22.1-8.5 7.7-1.8 14.6-3.9 15.4-4.5 3.2-2.7.6-12.2-3.6-13.5-4.1-1.3-28.6 2.4-47.4 7.2-13.3 3.3-18.7 2.9-33-2.8-6-2.4-19.5-9.1-30-14.9-28.7-15.9-27.5-15.6-35-7.6zm117.8 110.7c32.1 12.5 42.6 15.3 57.7 15.3 13.4 0 21.9-2 44.7-10.4 30.8-11.5 28-10.7 31-9 3.7 2 6.2 8.8 4.6 12.3-1.2 2.7-9.4 6.4-31 14.3-41.5 15-57.1 15-98.6 0-19.6-7.1-29.7-11.7-30.8-13.8-2.5-4.6 2.2-13.8 7.1-13.8 1.1 0 8 2.3 15.3 5.1zm-55.5 7.6c11.5 15.1 24.6 25.4 50 39.3 7.3 4 13.9 7.9 14.7 8.7 2 1.9 1.9 5.5-.2 11.3l-1.7 4.9 4.7 9.8c2.6 5.4 5.8 14.1 7.1 19.4 3.6 14.6 7 35.3 6.2 38.2-1.2 4.8-10.6 7.6-14 4.2-1.6-1.7-2.3-5.5-3-18.9-.4-6.5-1.1-10.1-2.8-13.5-3-5.9-5.6-6.3-13.2-2.1-11.4 6.5-23.9 4.8-33.1-4.3-6-6-8.5-12.2-8.5-20.6.1-5.4.9-8.3 4.3-16.3 1.5-3.4 1.5-3.8-.1-5.7-1.3-1.7-3.8-2.4-11.6-3.5-11.4-1.5-13.6-3.1-13.6-9.6 0-5 2.5-7.9 7.5-8.7 4.4-.6 6.5-1.9 6.5-3.8 0-.7-2.8-4.6-6.2-8.7-8.2-9.5-12.8-16.8-12.8-20 0-3.8 5.1-7.8 10-7.8 3.7 0 4.2.4 9.8 7.7zm243.1-5.1c2 1.6 3.1 3.5 3.1 5.2 0 3.2-4.6 10.5-12.7 20-3.5 4.1-6.3 8-6.3 8.7 0 1.9 2.1 3.2 6.5 3.8 5 .8 7.5 3.7 7.5 8.7 0 6.5-2.2 8.1-13.6 9.6-7.8 1.1-10.3 1.8-11.6 3.5-1.6 1.9-1.6 2.3-.2 5.7 7 16.3 5.8 26.9-4.1 36.9-9.2 9.1-21.7 10.8-33.1 4.3-7.6-4.2-10.2-3.8-13.2 2.1-1.8 3.6-2.5 7.4-3.2 17.5-.5 7.1-1 13-1 13.1 0 .1-.7.9-1.6 1.7-3.4 3.5-12.8.7-14-4.1-.8-3 2.7-24.3 6.2-38.3 1.3-5.2 4.5-13.9 7.1-19.3l4.7-9.8-1.7-4.9c-2.1-5.8-2.2-9.4-.2-11.3.8-.8 7.4-4.7 14.7-8.7 25.4-13.9 38.5-24.2 50-39.3 5.6-7.3 6.1-7.7 9.8-7.7 2.7 0 4.8.8 6.9 2.6zm-270.7 48.1c3.3 1.6 3.6 2.9 4 15.3.3 8.6.8 10.4 4 17.3 4.6 9.6 7.5 13.8 20.8 30.7 18.5 23.3 25.7 36.4 23.4 42.9-1.2 3.2-6.1 4.8-11.2 3.5-3.3-.8-4.2-1.8-7.7-8.5-5.1-9.3-6.3-11.1-19.6-27.9-21.9-27.7-27.9-40.7-27.9-59.9 0-14.9 3.9-18.6 14.2-13.4zm291.9-1.7c2.1 0 3.9 7.1 3.9 15.2-.1 19.1-6.1 32-27.6 59.3-12.6 16-16 21-21 30.5-3.3 6.3-6.9 8-13.2 6.4-10.5-2.6-4.8-16.7 18.8-46.4 13.4-17 16.3-21.3 20.8-30.8 3.2-7 3.6-8.8 4.1-18.9.3-6.2 1.1-11.7 1.7-12.3 1.6-1.6 8.7-4 10.2-3.5.8.3 1.8.5 2.3.5zm-305.8 65.1c1.4.6 2.9 2.1 3.5 3.3.6 1.1 2.4 5.1 4 8.8 4.2 9.2 9.3 16.4 23.1 32.7 14.8 17.4 18.2 22.2 18.8 27.1.5 3.3.2 4-2.1 5.5-1.9 1.3-3.9 1.6-7.3 1.2-5.4-.6-4.6.1-23.8-22.7-14.9-17.7-19.7-24.4-24.6-34.4-5.7-11.8-6.3-19.7-1.6-21.6 3.1-1.2 7.2-1.2 10 .1zm321.5 1.5c2.2 3 .7 10.8-3.7 19.9-4.9 10.1-9.6 16.7-24.6 34.5-19.2 22.8-18.4 22.1-23.8 22.7-3.4.4-5.4.1-7.3-1.2-2.3-1.5-2.6-2.2-2.1-5.5.6-4.9 4-9.7 18.8-27.1 13.8-16.3 18.9-23.5 23.1-32.7 4.8-10.7 4.9-10.9 7.2-12.1 3.1-1.6 10.7-.7 12.4 1.5z"/><path d="M174.4 217.7c-6.9 1.3-9.5 12.2-4.1 16.9 6.4 5.5 15.7 1.4 15.7-6.8 0-5.2-1.5-7.7-5.5-9.4-1.9-.8-3.6-1.3-3.7-1.3-.2.1-1.3.4-2.4.6zm156.9.8c-3.9 1.6-5.3 4.2-5.3 9.3 0 9.9 13 12.9 17.6 4 4.2-8.1-3.9-16.9-12.3-13.3zM40.5 244.4c-3.5 5.2-9.8 21.4-13 33.1-7.8 28.6-8.7 58-2.4 77.3 3.4 10.4 7.5 11.4 13.5 3.5 4.6-6.2 13.7-15.4 16.6-16.9 2.9-1.5 5.3-1.1 6.2 1.2.3.8.1 5.9-.5 11.4-2.2 19.8 4 45.3 12.9 53.3 3.3 3 5.5 1.8 7.7-4.4 2.5-6.8 4.7-10.4 8.1-12.5 3.8-2.5 5.4-.3 6.5 9.2 1.2 9.3 4.8 20.7 8.5 26.7 3.3 5.2 13 15.4 16.6 17.3 5.3 2.7 7.3 1.9 13.1-5.4 3-3.7 9.5-10.6 14.6-15.4 10.5-10.1 10.6-10.4 6.3-21.4-3.2-8.4-4.1-9.6-10-13.6-2.4-1.7-10.5-8.9-18-16-15.1-14.4-23.8-21.3-35.2-27.8-26.6-15.3-41.7-45.9-45.7-92.5-.7-7.3-1.1-9-2.5-9.3-.9-.2-2.4.8-3.3 2.2zm426.2-1.7c-.3.5-1 6.9-1.6 14.3-3.3 41-19.6 72.2-45.4 87.1-11.2 6.5-20 13.5-34.7 27.5-7.4 7.2-15.6 14.4-18.1 16.1-6 4.2-6.8 5.3-10.1 13.7-4.3 11-4.2 11.3 6.3 21.4 5.1 4.8 11.6 11.7 14.6 15.5 4.3 5.4 5.9 6.7 8.2 6.7 4.8 0 15.9-9.7 21.5-18.7 3.7-6 7.3-17.4 8.5-26.7 1.1-9.5 2.7-11.7 6.5-9.2 3.4 2.1 5.6 5.7 8.1 12.5 3 8.3 6.6 7.9 12-1.4 6.8-11.6 10.3-30.7 8.6-47.3-1.1-10.6-.9-12.7 1.5-13.6 3.3-1.2 8.5 3.2 22 18.7 2.2 2.6 4.6 4.7 5.3 4.7 2.2 0 5.7-4.8 7.3-10.2 5.7-18.2 5-46.8-1.9-73.3-2.8-11-9.1-27.8-12.6-34-2.2-3.8-4.9-5.5-6-3.8zM194 425.7c-6 1.2-6.4 4.2-1.8 13.4 4.8 9.8 16.1 20.6 26.8 25.7 13 6.1 20 7.6 37 7.6s24-1.5 37-7.6c10.7-5.1 22-15.9 26.8-25.7 3.5-7.1 4-10.2 1.7-12.1-1.7-1.4-11.3-1.9-13.3-.7-.6.5-3.7 4.2-6.8 8.3-6.5 8.8-14.3 14.4-24.9 17.7-10.1 3.2-30.9 3.2-41 0-10.6-3.3-18.4-8.9-24.9-17.7-3.1-4.1-5.9-7.7-6.3-7.9-1.4-.9-7.8-1.5-10.3-1z"/></g></svg>