<svg xmlns="http://www.w3.org/2000/svg" viewBox="0 0 512 512" height="682.667" width="682.667" version="1.0"><path d="M274 76.4c0 1 3.4 6.7 7.6 12.7 19.9 28.4 34.2 51 42.4 67.5 4 7.9 4.7 11.8 2.3 12.6-.6.2-8-4.3-16.5-10-27.9-18.9-52.7-33.1-79-45.3-29.9-13.9-50.2-20.6-48.5-16 .4 1 .7 1.9.7 2.1 0 .2 6.9 6 15.3 12.8 36.1 29.4 65.7 57.5 65.7 62.3 0 2.5-3.6 1.6-20.5-5.1-18-7.1-35.8-12.6-47.3-14.5-7.6-1.2-10.1-.6-8.9 2.2.3.7 6.6 5.1 14.2 9.8 23.8 14.8 45.3 31.7 59.8 46.9 12.1 12.7 9.9 13.4-11.7 3.7-23.2-10.5-49.5-19.5-62.8-21.5-25.9-3.9-92.6-.8-124.7 5.9-10.5 2.1-13.8 4-10.2 5.9 1.2.7 12.9 3 26.1 5.1 36.1 6 60.2 11.4 90.5 20.2 16.8 4.9 24.5 8.1 24.5 10.3 0 2.2-2.6 3.1-19.5 6.4-47.2 9.4-89.3 29.3-129.9 61.6-11.9 9.6-33.7 30.2-39.7 37.8-4.1 5.1-5 8.7-2.3 8.7.8 0 9-3.4 18.2-7.6C58.8 333 94 321.7 137 313.1c22.7-4.5 47.2-5.7 53.1-2.5 4.3 2.3 3.2 2.8-20.4 9.9-21.8 6.5-36.3 12.2-57.5 22.6-17.1 8.4-17.5 8.7-28.4 19.2-19.1 18.4-39.2 43.8-53.4 67.4C13.7 457.4-3.7 500.8-1 507.9c.4 1.3 1.9 2.6 3.2 2.9 1.3.4 28.5.7 60.6.7 46.9 0 58.9-.3 61.5-1.4 2.4-1 5.4-4.4 11.4-13.2 12.1-17.7 24.1-32.2 40.1-48.6 15.7-16.1 24.1-23.2 26.9-22.6 2.3.4 2.3 4-.1 17.2-1.9 10.6-1.5 16.6 1 16.6.8 0 4.8-5.1 8.8-11.3 14.9-23 32.8-42.4 52.7-57.2 11.3-8.4 17.5-11.7 20.6-10.9 1.3.4 4.3 3.5 6.9 7 33.6 47.1 99.6 53.5 140.7 13.5 22.4-21.6 32-50.7 27.2-81.8-1.7-11.2-1.7-11.3.6-23 2.1-10.4 2.4-14.6 2.4-34.8 0-24.9-.7-30-6.6-52.5-6-22.6-17.9-48.6-32.4-70.6-8.7-13.3-14-19.4-16.8-19.4-1.9 0-1.9.4-1.3 6.7.3 3.8 1.3 10.8 2.1 15.8.9 5 1.8 18.8 2.2 31 .8 30.9-1.2 44.2-6.3 41-.9-.6-5.4-7.3-10.1-15-23.6-38.9-50-69.6-85.8-100.1-14.5-12.3-30.3-23.4-33.3-23.4-.7 0-1.2.8-1.2 1.9zM356.8 265c3.4 2.8 11.3 14.1 16.5 23.6 5.7 10.3 12.3 27.3 15.6 40.4 5.2 20 5 19.5 7 19.5 1.1 0 2.4-1.4 3.5-3.8 6-13.6 8.3-38.8 5.1-56.2-2.9-15.3-2.9-16.9-1-17.6 4.6-1.8 20.5 10.9 24.9 19.8 5.3 10.6 2.7 32-7 58-5.6 15-3.4 16.1 9.1 4.7 4.1-3.8 8-6.9 8.5-6.9 3.8 0 .1 14.6-6.6 26.1-4.5 7.7-16.9 20.1-24.7 24.8-13.5 7.9-28.2 11.6-42.7 10.7-11.5-.8-18.7-2.8-29.9-8.2-7.9-3.9-10.9-6.1-18.1-13.3-13.7-13.8-20.7-28.6-21.7-46.2-.5-7.3-.3-8.8 1.3-10.3 5.3-5.4 35.6 5.4 57.9 20.7 15.5 10.5 15.2 10.4 16.6 9 1.8-1.8-1.4-9.7-8-19.9-10.7-16.3-22.4-27.9-40.8-40.5-9.4-6.4-10.3-7.3-10.3-10.2 0-7.8 27.1-26.6 38.7-26.7 1.9 0 4.3 1 6.1 2.5z" fill="#f2f2f2"/></svg>