<svg xmlns="http://www.w3.org/2000/svg" viewBox="0 0 512 512" height="682.667" width="682.667" version="1.0"><path d="M36.282.418c-3.046.653-3.917 1.306-4.134 3.59-.327 3.156-.98 2.394 36.446 42.43 11.532 12.403 22.52 24.261 24.26 26.546 3.809 4.787 4.244 8.16 1.089 8.16-1.088 0-21.65-9.792-45.694-21.76C24.314 47.418 3.752 37.627 2.556 37.627c-5.875 0-7.398 13.49-2.068 19.148C1.903 58.297 23.335 69.72 48.25 82.34c24.805 12.512 46.347 23.718 47.76 24.914 1.524 1.415 2.286 2.829 1.85 3.917-.87 2.393-4.351 1.958-52.438-6.201-20.998-3.482-39.384-6.42-40.907-6.42-5.005 0-6.854 2.503-6.854 9.14 0 10.117-1.088 9.682 42.538 17.08 41.125 6.963 49.393 8.921 49.393 11.315 0 2.828-4.025 3.481-64.515 10.77-14.143 1.741-22.303 3.155-24.152 4.352-2.938 1.959-4.46 7.398-3.264 12.62 1.197 5.222 4.243 6.093 16.645 4.679 78.006-8.922 80.617-9.14 77.353-5.114-2.393 2.829-10.88 6.637-48.196 21.324-41.668 16.428-43.3 17.19-45.04 20.997-3.156 6.854-.436 15.775 4.678 15.775 1.414 0 15.666-5.222 31.767-11.532 50.155-19.8 60.381-23.282 61.796-21.215 1.196 1.959-11.097 11.206-50.699 38.078-22.411 15.231-41.777 28.396-43.082 29.375-5.766 4.134-7.724 16.972-3.7 23.717 4.68 7.507 52.875 26.872 87.69 35.14 30.897 7.398 63.426 9.14 88.993 5.005 9.139-1.523 13.382-1.85 14.687-1.088 2.285 1.414 16.32 29.483 16.428 32.856.109 1.414-.653 4.025-1.74 5.984-.98 1.958-23.283 36.554-49.72 76.917-26.328 40.363-48.087 74.742-48.304 76.265-.653 4.025 2.176 5.657 9.682 5.657 4.787 0 7.29-.544 9.465-2.176 1.632-1.196 12.62-17.08 24.48-35.249 35.901-55.159 49.392-75.286 53.2-79.311l3.59-3.808.326 3.046c.544 4.135-.653 7.507-21.65 62.122-10.118 26.22-18.386 48.849-18.386 50.154 0 3.7 2.72 5.222 9.356 5.222 5.005 0 6.528-.435 8.813-2.72 1.849-1.85 8.16-16.754 19.474-46.128 17.19-44.388 24.043-60.164 26.002-59.185 2.175 1.088.87 17.734-4.896 59.511-5.549 40.58-5.658 42.756-3.917 45.367 1.632 2.502 2.502 2.829 8.16 2.829 10.553 0 9.03 5.004 18.06-60.381 6.092-44.497 7.289-50.59 9.9-50.59 2.61 0 2.829 1.089 14.47 84.643 3.59 26.001 3.807 26.328 13.272 26.328 5.549 0 6.637-.327 8.16-2.72 1.632-2.502 1.414-5.113-3.917-44.823-5.657-41.342-7.071-59.076-4.895-60.164 1.958-.979 6.962 10.227 23.39 52.983 19.366 50.046 20.127 51.895 23.609 53.745 1.414.761 5.113 1.305 8.16 1.305 6.527-.109 9.03-2.284 8.05-7.18-.326-1.632-8.05-22.194-17.08-45.694-18.278-47.325-22.739-59.728-22.739-63.644 0-7.398 5.658.217 45.041 60.49 18.386 28.177 34.706 52.22 36.12 53.417 4.896 3.808 16.863 3.808 19.365-.109.762-1.305.653-2.828-.652-5.44-.87-1.958-23.5-37.098-50.263-78.005-34.488-52.983-48.523-75.285-48.523-77.461 0-1.632 3.482-9.9 7.616-18.278 6.31-12.511 8.16-15.449 10.444-15.993 1.523-.435 8.051.218 14.361 1.306 15.231 2.611 44.715 2.611 61.686 0 32.965-5.113 72.24-17.298 99.547-31.115 9.248-4.678 10.118-6.31 9.574-19.474-.326-10.01-.544-11.206-3.046-13.6-1.523-1.414-20.127-14.47-41.342-28.83-42.865-29.157-51.46-35.467-50.807-37.425.98-2.938 7.29-.98 48.631 15.34 15.884 6.2 31.877 12.402 35.576 13.599 6.636 2.176 6.854 2.176 9.03.217 1.632-1.523 2.176-3.263 2.176-7.833 0-9.138-1.523-10.118-33.183-22.52-55.05-21.65-60.707-24.261-57.117-26.872 2.176-1.523 12.077-.762 51.025 3.916 17.516 2.067 32.53 3.808 33.4 3.808 3.264 0 5.875-4.243 5.875-9.574 0-5.766-1.959-9.465-5.658-10.335-1.414-.435-17.19-2.394-35.14-4.57-35.576-4.134-42.974-5.33-46.238-7.071-5.657-3.046 1.088-4.896 45.585-12.512 19.365-3.372 36.12-6.527 37.208-7.18 2.937-1.523 4.243-4.57 4.243-9.9 0-6.528-1.85-8.813-7.18-8.704-2.285.109-20.454 2.829-40.363 6.093-37.426 6.31-47.108 7.289-47.108 4.569 0-2.393 6.31-5.984 48.522-27.199 22.085-11.097 40.907-20.78 41.886-21.54 2.828-2.394 4.243-5.876 4.243-11.207 0-6.419-1.523-9.247-4.896-9.247-1.414 0-22.303 9.791-46.238 21.759-24.043 11.967-44.932 21.759-46.346 21.759-3.808 0-3.373-3.155 1.414-8.813 2.285-2.61 14.361-15.775 26.981-29.265C483.21 5.205 481.36 7.272 481.033 4.117c-.327-2.502-.98-3.046-5.222-3.807a29.844 29.844 0 00-15.45 1.523c-2.393.979-46.128 46.781-83.01 86.926-9.79 10.662-10.117 12.62-3.916 20.127 5.331 6.42 8.051 15.558 7.942 26.872-.109 24.806-16.754 48.631-45.367 64.95-5.005 2.938-10.118 4.896-13.055 5.332-4.57.435-5.222.217-8.595-3.482-8.595-9.03-15.884-24.696-15.884-33.835 0-13.273 8.377-16.754 35.032-14.687 9.356.653 10.226-.544 9.9-14.47-.435-20.235-6.092-36.01-16.537-46.564-11.532-11.532-26.654-16.428-50.698-16.428-20.344 0-45.367 3.808-77.244 11.75-12.185 3.046-15.775 4.896-15.775 8.05 0 1.198 3.7 9.14 8.05 17.734 11.533 21.868 15.232 33.183 15.123 46.456 0 8.703-.544 12.076-3.481 21.214-7.725 23.609-8.921 24.806-19.583 19.583-31.66-15.448-52.004-47.87-46.564-74.089.87-4.242 3.264-11.75 5.222-16.754l3.59-9.03-2.176-3.59c-2.937-5.113-86.274-93.89-89.755-95.63C50.1.418 41.286-.452 36.282.418zm262.63 99.22c10.008 3.156 17.95 10.771 20.888 20.019 1.74 5.548 1.85 6.528.326 9.139-1.305 2.393-2.937 3.046-10.88 4.678-11.205 2.176-15.013 4.025-22.52 10.88-3.264 2.937-6.636 5.33-7.724 5.33-3.59 0-7.507-5.657-11.097-16.101-3.264-9.574-4.243-10.227-14.143-9.357-6.637.544-9.03.327-12.185-1.196-4.352-2.068-6.854-6.637-5.767-10.88 1.088-4.243 6.855-10.009 11.968-11.967 11.314-4.352 38.078-4.57 51.133-.544zm-22.195 74.198c.544 1.415 2.067 6.093 3.373 10.553 1.414 4.461 5.113 12.403 8.377 17.734 3.373 5.766 5.657 10.662 5.44 12.076-.436 3.482-6.31 5.875-19.475 7.725-14.687 2.175-29.592 2.175-41.885.108-11.424-2.067-14.47-3.372-16.646-7.289-1.523-2.72-1.305-3.808 3.7-18.93 3.045-8.921 6.31-16.972 7.397-18.06 1.523-1.632 3.808-1.958 14.687-2.067 8.704 0 15.014-.653 19.8-1.958 10.336-2.829 13.927-2.829 15.232.108zm-155.576 31.66c0 .761-1.414 3.59-3.046 6.31-3.917 5.983-49.501 65.82-53.092 69.52-3.916 4.025-9.573 3.48-23.281-2.177-14.035-5.766-16.32-7.18-16.32-10.226 0-1.415 1.088-3.482 2.503-4.679 2.937-2.72 74.089-51.024 83.01-56.355 6.527-3.917 10.226-4.787 10.226-2.393zm281.669 1.523c11.206 6.527 85.294 57.552 86.709 59.728 3.155 4.678 0 7.18-18.278 14.143-13.055 4.896-16.754 4.896-21.65-.435-4.025-4.134-47.216-60.381-52.439-68.214-5.548-8.16-3.155-10.336 5.658-5.222zm-262.086 17.407c0 3.372-2.067 9.791-12.185 39.275-5.548 15.775-10.88 29.918-11.967 31.332-2.611 3.155-8.16 3.482-19.474.87-8.595-1.958-11.315-4.46-9.574-8.812 1.088-3.046 41.45-55.702 46.673-61.033 3.916-3.808 6.527-4.46 6.527-1.632zm240.653 2.176c5.114 5.44 43.844 55.811 45.911 60.054.98 1.74 1.415 3.917 1.088 4.896-.87 2.176-7.071 4.46-16.21 5.984-8.595 1.414-12.729.544-14.687-3.047-.653-1.305-5.766-15.557-11.532-31.876-13.49-38.731-14.47-46.238-4.57-36.011zm-183.536 4.243c5.984 2.828 6.42 5.33 5.549 31.006-.435 12.511-1.197 24.044-1.74 25.458-2.286 6.092-13.927 9.465-16.429 4.787-1.85-3.59-.87-58.858 1.088-61.251 1.85-2.176 6.854-2.285 11.532 0zm131.097 2.067c.544 1.414 1.197 15.122 1.306 30.462.326 23.717.109 27.96-1.306 28.83-2.72 1.741-6.854 1.197-11.423-1.414-6.636-3.808-7.29-6.963-5.875-29.374 1.306-21.868 2.176-26.002 6.093-28.94 4.025-3.263 9.9-3.046 11.205.436zm-165.91 9.574c.326 1.305.543 14.034.326 28.177-.327 29.701-.327 29.701-10.01 30.79-7.398.87-11.858-.545-13.055-4.026-.87-2.285.544-7.18 6.963-25.567 4.352-12.402 8.595-24.152 9.574-25.893 3.155-6.528 5.222-7.616 6.201-3.481zm194.306 2.067c3.808 7.398 17.298 46.781 17.298 50.371 0 5.005-1.74 5.984-10.01 5.984-6.418 0-7.832-.326-10.008-2.502-2.394-2.502-2.611-3.7-3.373-21.977-1.414-33.508.435-43.082 6.093-31.876z" fill="#f2f2f2"/></svg>