<svg xmlns="http://www.w3.org/2000/svg" viewBox="0 0 512 512" height="682.667" width="682.667" version="1.0"><path d="M513.213 53.466l-.015.016c-1.321 1.32-26.75 14.64-56.363 29.501-29.723 14.862-54.6 27.852-55.482 28.842-1.1 1.321-1.54 6.165-1.65 17.393-.221 17.944-1.653 24.22-8.368 37.87-10.678 21.906-31.594 41.06-58.344 53.61-14.31 6.605-18.603 7.706-23.337 5.834-8.696-3.632-27.962-30.053-32.805-44.914-3.743-11.559-3.632-23.557.22-31.923 5.505-11.78 14.97-18.275 30.383-20.807 4.403-.66 8.477-1.982 9.248-2.862 3.412-4.184-1.322-18.493-8.147-24.218-8.697-7.375-25.099-11.118-42.602-9.797-22.237 1.65-50.75 7.044-54.162 10.017-2.862 2.642-2.532 5.285 1.982 15.853 11.668 27.52 12 46.123 1.432 75.406-1.982 5.394-4.955 14.861-6.496 20.916-2.312 8.366-3.633 11.448-5.724 12.989-2.642 1.981-2.862 1.983-11.228-.77-4.624-1.54-12.55-4.953-17.503-7.375-42.712-21.356-66.82-56.582-63.959-93.79.55-7.706.33-10.129-.991-12.22-1.211-1.762-19.815-11.67-55.812-29.944C26.73 69.565 3.484 57.396-2.066 53.914v27.834a8.302 8.302 0 011.726-.195c3.633 0 63.406 29.611 66.379 32.914 5.064 5.614-.77 5.724-39.41.77-16.89-2.175-24.806-3.131-28.695-5.018v30.69c1.067-.355 3.003-.551 4.991-.546.718.002 1.44.029 2.129.084 2.752.33 14.97 1.54 27.3 2.862 22.347 2.202 31.154 3.964 31.374 5.945.44 2.312-8.256 5.064-32.254 10.348-27.042 5.951-31.395 7.023-33.54 5.944v30.114c4.651-2.205 19.018-5.195 55.006-11.73 8.091-1.486 13.89-2.183 17.393-2.096 5.838.145 5.298 2.467-1.651 6.939-12.44 7.816-66.601 34.788-70.014 34.788-.258 0-.5-.012-.734-.031v36.382a23.117 23.117 0 013.596-1.566c2.642-.99 21.907-11.119 42.933-22.567 21.026-11.449 39.96-21.576 42.052-22.456 2.146-.936 3.826-1.432 5.05-1.46 1.225-.027 1.995.414 2.326 1.35.66 1.871-6.275 10.457-26.09 32.473-22.567 24.99-24.219 27.082-24.219 30.274 0 2.862 3.082 4.844 12.99 8.257 8.146 2.862 11.558 2.641 15.631-.771 1.872-1.652 11.23-12.44 20.917-23.998 17.723-21.577 24.658-28.732 26.53-27.631 2.091 1.32.77 7.155-6.825 32.144-4.954 16.072-7.597 26.64-7.156 28.181.77 3.303 4.403 4.954 13.21 5.834 9.026.881 12.33.11 14.311-3.742.88-1.652 3.853-10.68 6.715-20.036 5.834-19.375 7.817-24.217 10.018-24.217 2.532 0 4.514 5.943 8.697 24.657 2.202 9.907 4.624 18.385 5.724 19.596 2.642 2.862 8.586 2.532 20.475-1.321 12.22-3.963 15.632-4.074 17.283-1.101.66 1.21 2.643 7.044 4.404 12.989 4.073 13.87 8.365 23.117 14.75 32.584 6.495 9.468 7.486 12 6.165 15.632-1.851 4.73-90.68 140.311-104.356 159.42h30.846a5.75 5.75 0 01.084-1.78c.77-3.082 48.437-76.397 52.84-81.13 2.057-2.281 3.515-3.4 4.41-3.32 1.308.12 1.415 2.802.434 8.162-1.1 6.715-19.044 71.004-21.026 75.848a25.697 25.697 0 01-1.04 2.22h25.045l-.007-.02c-1.101-4.182 19.595-79.149 23.448-85.093.818-1.253 1.48-2.03 2.015-2.024 1.915.021 2.24 10.042 2.498 44.185.176 26.315.445 37.807-1.119 42.952h26.52c-1.27-7.428-.914-83.976.47-86.103.412-.62.857-.906 1.34-.849 1.066.127 2.319 1.915 3.832 5.472 2.862 6.495 22.018 75.847 22.018 79.7 0 .664-.047 1.25-.142 1.78h24.862c-2.883-5.86-21.65-73.902-22.298-80.6-.371-4.025.092-5.96 1.432-5.805 1.042.12 2.612 1.505 4.731 4.154 5.725 7.376 50.859 77.61 51.52 80.361.18.706.26 1.327.246 1.89h30.753c-4.652-5.737-99.28-150.338-102.663-156.777-2.752-5.173-1.981-8.587 3.303-15.962 7.045-10.018 13.1-22.678 16.952-35.778 1.872-6.274 3.963-11.998 4.624-12.88 1.871-2.09 5.944-1.76 14.86 1.322 4.404 1.54 10.238 3.083 12.99 3.413 7.816 1.101 9.358-1.21 13.761-21.026 4.073-18.494 6.274-24.768 8.476-24.768 2.312 0 4.183 4.623 10.348 24.878 7.045 23.558 7.595 24.108 20.255 23.227 10.348-.88 13.871-2.752 13.871-7.485 0-1.762-3.192-13.651-7.155-26.31-7.706-25.1-9.137-31.264-7.266-32.365 2.312-1.43 6.056 2.421 26.2 26.64 11.12 13.43 21.355 25.21 22.676 26.09 3.193 2.202 8.038 2.091 15.744-.55 11.669-3.964 13.98-6.164 11.447-11.008-.66-1.321-10.898-13.1-22.787-26.2-21.136-23.448-28.401-32.585-27.19-34.456.289-.475.705-.772 1.504-.77 3.463.004 14.106 5.6 52.656 26.529 19.485 10.678 37.54 20.035 39.851 20.695 1.686.522 2.977 1.03 3.978 1.658v-37c-.726.324-1.566.47-2.548.447-1.981-.11-16.401-6.937-35.226-16.624-34.566-17.944-41.06-21.795-41.06-24.327 0-.825.515-1.221 2.541-1.267 1.216-.028 2.976.069 5.494.275 11.67.881 66.93 11.67 69.903 13.541.32.21.614.437.896.672v-31c-.413.283-.858.49-1.337.606-2.862.77-56.471-10.678-62.966-13.32-2.092-.88-3.523-2.203-3.303-2.974.88-2.532 8.586-4.072 33.906-6.824 17.4-1.858 25.082-2.67 29.022-2.575 2.634.063 3.604.556 4.678 1.39v-31.977c-3.732 2.468-11.887 3.325-30.067 5.64-29.833 3.854-40.511 4.515-41.612 2.644-1.651-2.752 2.861-5.395 43.482-25.32 13.54-6.716 25.65-12.108 26.86-11.888.487.067.931.194 1.337.384z" fill="#f2f2f2"/></svg>