<svg version="1.0" xmlns="http://www.w3.org/2000/svg" width="682.667" height="682.667" viewBox="0 0 512 512"><g fill="#f2f2f2"><path d="M177.5 43.6c-4.4.8-15.6 3.4-25 5.9-9.3 2.4-20.8 4.9-25.4 5.6-14.3 2-30.1.1-49.3-6.1-11.5-3.7-13.3-3.7-15.4-.5-1.3 2-1.6 4.2-1.2 9.9 1 15.2 9.2 25.8 26.8 34.3 17.8 8.7 30.5 11.6 50.8 11.7 13.9.1 14.4.2 16.3 2.5 2.8 3.4 3 10.2.3 13.2-.8.9-4.3 2.7-7.7 3.9-18.7 6.8-39.5 20.4-62.2 40.6-8.4 7.5-11 11.4-9.2 13.6 1 1.3 4.9 1.7 22.7 2.1 38.1.9 54.4 5.7 63.4 18.4 2.7 3.9 2.8 4.3 1.3 6.6-1.2 1.8-3.8 3-12.4 5.2-22.9 5.9-46.3 14.7-64.3 24.2-25.1 13.1-54 35.9-54 42.6 0 3.5 2.4 3.9 21.2 3.2 27.3-1 53.9 1.3 74.8 6.6 8.9 2.2 11.5 4.6 10.7 9.6-1 6-11.7 31.4-20.8 49.3-4.8 9.6-11.3 22.7-14.3 29-3 6.3-7.2 14.5-9.2 18.2-3.1 5.6-3.5 7-2.4 8.3.7.8 2.1 1.5 3.1 1.5 5.4 0 43.1-14 63.9-23.7 13.9-6.6 16.8-7.5 19.2-6.2 2.3 1.2 2.3 2.4-.6 25.4-2.8 22.2-1.6 44 3.1 54.7 2.9 6.4 7.5 11.2 13.5 13.9 4.8 2.2 6.6 2.4 19.8 2.3 12.8-.1 15.9-.5 26.4-3.2 6.5-1.7 12.7-3.9 13.7-4.8 2.9-2.7 2.3-7.1-3-21.7-7.4-20.2-12.7-37.3-15.3-49.4-2-9.4-2.3-13.5-2.2-31.8 0-19.4.2-21.7 2.7-30.7 14-52.2 55.4-78 121.1-75.5 18.6.7 30 2.1 66.8 8.2 14.7 2.5 28.9 4.5 31.6 4.5 4.5 0 5.3-.4 8.1-3.5 3.6-4.1 7.3-11.1 10.7-20.2 4.2-11.1 3.2-12.8-8.1-14.3-18.5-2.5-25.8-10-33.5-34.9-4.7-15-3.8-14.4-22.1-15.2-8.5-.4-17.4-1.2-19.9-1.9-17-4.7-27.9-17.5-34.5-40.9-5.6-19.9-10.3-25.4-38-43.6-26.3-17.4-38.3-24.5-53.8-32.1-15-7.3-30.7-12.7-43.1-14.9-11.1-1.9-34.2-1.8-45.1.1zm107 98.5c18.6 11.1 32.7 18.4 47.5 24.4 12.5 5.1 14.4 6.3 13.5 8.7-1.8 4.7-27.2 9.3-47.3 8.6-22-.9-32.5-6-35.8-17.6-1.9-6.5-1.6-27.2.4-31 2.2-3.9 5.8-2.7 21.7 6.9z"/><path d="M61 147.4c-.3.2-7.2 1.2-15.4 2.2-12.4 1.5-15.4 2.2-17.5 4l-2.6 2.2v20.1c0 17.7.2 20.2 1.7 21.8 1.7 1.6 1.9 1.6 4.4-.8 1.4-1.3 8-8.7 14.5-16.4 6.6-7.7 15.3-17.7 19.5-22.3 4.1-4.6 7.4-8.8 7.1-9.5-.3-1.1-10.7-2.3-11.7-1.3zm406.5 34.7c-1.5 2.3 9.9 10.9 14.4 10.9 1.1 0 2.5-1 3.2-2.1 1.6-3.1-.3-6.7-4.6-8.5-4-1.6-12.1-1.9-13-.3zM70 199.1c-6.9.7-27.4 4.2-38.7 6.5-4.7.9-5.8 4.6-6.1 20.4-.6 27.3.6 28.5 16.5 16.1C55.9 231 67.6 224 88 214.3c9.6-4.6 18.6-9 20-9.8 3.1-1.7 3.7-4 1.3-5-2.7-1.2-29.5-1.5-39.3-.4zm278 71.7c-4 1.2-5.1 4.7-3.9 12.7 1.4 9.9 3.7 11.8 9 7.2 8.3-7 13.4-17.5 9.3-19.1-2.8-1.1-11.8-1.5-14.4-.8zm52.7 6.5c-1.1.8-3 6.1-5.1 14.7-6.2 24.5-14.7 46.2-35.2 89.2-5.8 12.3-10.8 23.8-11.1 25.5-.5 2.8-.3 3.3 1.5 3.3 5.9 0 30.9-26.4 49.2-52 17.9-25 37-62.1 37-71.9 0-4.5-2.7-5.7-17.2-8.1-14.9-2.3-16.8-2.4-19.1-.7zM47.6 298.1c-14.5.9-19.1 2.1-20.9 5.2-1.4 2.6-2.3 91.9-1 102.2.7 5.1 1.1 6 2.9 6.3 1.7.2 3-.9 5.5-5 17.4-27.4 26.8-39.6 40.1-52.3 7.5-7.2 10.6-9.4 19.5-13.6l10.5-5 5.5-11.5c3.1-6.4 5.8-13.5 6.1-15.9.4-3.7.1-4.5-1.9-5.9-5.4-3.5-43-6.1-66.3-4.5zm251 108c-7.6 4-27.5 17.9-28.6 19.8-1.6 3.1-1.2 7.3 1.3 12.1 3.1 6.4 5.3 6.3 11.2-.2 7-7.7 19.6-24.8 21.2-28.6 1.3-3.1 1.1-5.2-.5-5.2-.4 0-2.5.9-4.6 2.1z"/></g></svg>