<svg xmlns="http://www.w3.org/2000/svg" viewBox="0 0 512 512" height="682.667" width="682.667" version="1.0"><path d="M143.273 63.198c-1.215.26-4.689 1.563-7.728 2.953-6.253 2.865-8.163 3.04-14.85 1.215-2.605-.694-7.902-1.302-11.81-1.302-9.639 0-16.325 2.345-22.404 7.902-5.47 4.95-7.815 9.9-9.118 18.93-.521 4.082-1.476 7.295-2.605 8.685-8.684 11.028-10.942 16.846-10.942 28.31 0 7.728.348 9.29 2.519 14.154 3.213 6.86 6.6 11.202 12.678 15.978 6.34 4.95 6.513 5.21 8.163 12.939 2.084 9.813 6.339 17.715 13.025 24.14 6.426 6.08 11.984 8.945 21.276 10.943 3.473.694 6.686 1.563 7.12 1.823.435.26 2.345 2.692 4.169 5.384 6.513 9.552 15.544 16.847 24.662 19.8 14.676 4.689 14.676 8.249-.087 15.89-4.776 2.432-8.944 5.037-9.205 5.819-1.997 5.21 1.91 12.505 6.86 12.505.782 0 4.516-1.39 8.337-3.127 5.905-2.778 7.207-3.039 9.118-2.17 2.518 1.128 4.69 5.73 4.69 9.986 0 3.473-.696 4.081-11.203 9.639-3.82 1.997-7.12 4.429-7.815 5.731-1.13 1.997-1.042 2.605.781 6.34 3.04 6.339 4.69 6.512 14.676 1.823 10.247-4.776 12.939-4.95 16.239-1.129 1.302 1.563 2.865 4.168 3.56 5.731 1.824 4.342.087 6.253-9.986 11.463-9.987 5.124-11.376 6.86-9.292 11.984 1.91 4.429 3.82 6.252 6.513 6.252 1.302 0 6.686-2.17 12.07-4.776 12.158-5.905 14.068-6.079 18.931-1.129 4.776 4.95 5.905 7.816 3.908 10.247-.869 1.042-6.166 4.255-11.81 7.208-12.07 6.252-14.242 8.51-12.766 12.939 1.39 4.255 3.995 6.773 7.121 6.773 1.476 0 8.424-2.953 16.413-6.947 16.499-8.25 18.236-8.51 23.446-3.647 1.91 1.91 3.474 3.994 3.474 4.689 0 1.737-3.56 4.863-12.592 10.855-10.42 6.947-22.317 16.238-29.004 22.665-5.297 5.036-5.558 5.383-5.123 8.683.694 4.603 6.339 17.281 14.415 31.783 10.16 18.323 18.062 26.052 36.472 35.257 16.325 8.162 38.903 14.328 60.873 16.586 12.331 1.302 33.086.607 41.51-1.39 9.725-2.258 10.593-4.95 4.428-14.589-15.544-24.749-38.122-46.024-58.963-55.663-23.1-10.681-46.198-11.984-66.605-3.908-5.558 2.258-8.424 2.345-10.595.348-2.084-1.91-2.257-6.253-.434-8.945 3.04-4.255 30.22-23.533 38.47-27.267 4.863-2.17 6.339-1.824 17.54 4.776 18.237 10.594 26.66 13.113 31.61 9.205 2.779-2.17 2.518-3.647-1.737-9.205-3.907-5.123-3.907-7.989.087-11.462 5.037-4.342 7.295-3.821 14.85 3.56 8.075 7.729 9.639 7.989 18.062 2.518 6.513-4.255 9.205-7.207 9.205-10.073 0-1.129-1.737-4.255-3.821-7.12-6.774-9.119-6.947-10.421-1.737-14.937 4.603-4.081 6.773-3.647 12.505 2.432 5.905 6.252 7.12 6.686 10.16 3.994 3.473-2.866 3.126-7.294-1.476-19.365-4.43-11.723-4.342-12.678 1.129-27.093 7.294-19.018 10.16-22.752 15.196-19.452 1.998 1.302 2.084 1.65 1.39 6.339-.435 2.692-.782 9.552-.695 15.284 0 9.639.26 11.115 3.213 19.712 4.863 14.415 12.244 27.788 23.099 41.943 10.855 14.241 30.828 31.696 42.464 37.167 5.037 2.344 5.558 2.431 7.468 1.128 2.518-1.563 5.037-7.989 7.902-19.712 6.34-26.399 4.776-52.971-4.342-71.207-6.513-13.026-15.37-23.1-27.093-30.567-11.29-7.382-27.441-13.113-46.72-16.673-15.196-2.78-20.32-2.866-22.75-.26-1.998 2.17-6.34 10.767-10.248 19.972-2.779 6.773-4.776 8.944-7.294 8.076-1.91-.608-9.9-10.942-11.29-14.589-1.128-2.952-.694-4.168 4.256-11.028 6.426-8.771 9.552-14.068 9.552-16.065 0-3.127-5.731-7.382-9.9-7.382-2.17 0-2.518.348-11.202 11.29-5.036 6.425-7.641 6.773-13.025 1.562-6.687-6.339-6.6-7.034 2.778-20.32 5.558-7.902 6.08-10.855 2.171-13.98-6.078-4.95-9.03-3.909-15.804 5.383-3.04 4.255-6.34 7.816-7.642 8.25-2.692 1.042-6.34-.434-10.507-4.342-4.95-4.603-4.776-5.731 2.779-16.413 2.17-3.039 3.907-6.426 3.907-7.468 0-2.952-5.644-7.38-9.378-7.38-3.126 0-3.3.173-10.768 9.551-2.084 2.605-4.863 5.297-6.166 5.905-2.084 1.042-2.952.869-7.034-.955-5.21-2.431-7.815-5.47-6.947-8.076.348-.868 1.824-3.387 3.213-5.47 3.387-5.037 3.474-8.424.087-11.116-5.818-4.69-9.031-3.82-15.11 4.081-6.686 8.858-7.468 9.118-19.886 7.382-11.028-1.65-11.55-1.824-17.888-6.6-6.513-4.95-15.11-8.597-23.62-10.073-6.426-1.13-9.032-1.216-16.326-.348-4.776.608-9.379.782-10.247.521-.782-.347-3.3-4.168-5.558-8.51-5.644-10.941-11.55-16.673-22.317-21.883-4.516-2.17-8.51-4.429-8.858-4.95-.434-.608-.781-4.776-.868-9.378-.174-6.6-.695-9.553-2.605-14.329-1.216-3.386-2.345-7.468-2.432-9.118-.086-2.952.087-3.126 7.469-6.773 4.255-2.084 9.725-5.645 12.417-8.163 3.04-2.692 5.645-4.429 6.947-4.429 1.13 0 4.43 1.65 7.382 3.56 8.77 5.906 13.72 7.382 25.878 7.816l10.68.348 6.253 6.512c7.815 8.076 16.673 12.766 26.66 14.155 3.56.521 7.294 1.303 8.336 1.737 1.042.347 4.168 4.515 7.12 9.292 12.418 20.146 26.92 32.217 46.893 38.99 23.88 8.076 50.366 4.255 70.773-10.42 10.247-7.295 24.228-23.707 25.444-29.873.695-3.56-1.042-3.995-8.597-1.91-9.292 2.431-13.373 2.865-20.146 1.736-14.937-2.344-27.354-11.202-44.201-31.522-7.555-9.205-14.589-15.11-22.23-18.757-4.082-1.91-5.906-2.258-13.026-2.258-7.469 0-8.771.26-13.895 2.692-3.126 1.476-7.554 3.908-9.9 5.384-2.43 1.563-4.949 2.779-5.73 2.779-.782 0-4.169-2.084-7.469-4.603-9.725-7.38-17.888-10.16-29.611-10.16-5.558 0-5.645 0-10.508-4.689-9.9-9.378-19.712-13.633-30.914-13.46-3.387.087-7.121.348-8.337.521z" fill="#f2f2f2"/></svg>