<svg version="1.0" xmlns="http://www.w3.org/2000/svg" width="682.667" height="682.667" viewBox="0 0 512 512"><g fill="#f2f2f2"><path d="M119.3 29c-5.1 2.3-6.3 4.4-6.3 11.3 0 8.1-3.3 11.8-19.4 22-12.9 8.1-17.9 12.6-21 18.9-5.1 10.3-2.5 21.6 7.6 32.3 8.5 9.1 11.9 10.5 25.4 10.5 6 0 11.5-.4 12.2-.8 2.2-1.4.2-4.1-6.2-8.4C95 103.6 88 96 89.5 90.7 90.7 86.9 97.1 81 109 73c17.9-12 22.6-18.6 21.8-30.9-.4-7.2-2.2-11.7-5.3-13.7-1.7-1.1-2.6-1-6.2.6zm100.8-.3c-1.8 1.5-2.6 4.4-4.6 16.8-2.7 16.5-3 21.7-1.5 24.5.5 1 4.4 4 8.5 6.5 8.1 5.1 10.4 7.7 8.5 10-1 1.3-3.2 1.8-16.1 4.5-8 1.6-9.4 3.5-12.9 17.6-1.6 6.5-3.6 13.3-4.5 15.1-1.5 3.4-6.5 6.4-16.3 9.9-5 1.7-9.2 4.6-9.2 6.2 0 1.4 2.4 3.8 8.8 8.7 13.4 10.3 18.8 22.3 16.2 36.1-1.2 6.1-4 12.4-15.8 34.7-7.3 13.7-6.8 19.5 2.3 27.5 6.4 5.7 13.1 7.7 25.2 7.7 11.8 0 13.1-.7 17.7-10 3.4-6.6 2.9-7.9-5.4-13.5-6.5-4.4-11.2-10.4-12.9-16.5-4.3-15.7 4.5-29.4 20.1-31.2 2.7-.3 10.2 0 16.5.7 7.7.9 12 1 13.1.4.9-.6 2.8-4.8 4.3-9.5 1.5-4.6 4.4-11.3 6.5-14.8 3.6-6 3.7-6.5 2.3-9-.8-1.4-2.7-3.2-4.3-4-3.4-1.6-5.8-.7-11.3 4.2-8 7.2-9.7 7.1-18.4-.9-3.2-3-6.8-5.4-7.9-5.4-1.2 0-3.8.9-6 2-8.7 4.4-10 2.1-7.5-13.2 2.9-17.9 4.5-20.3 10.8-15.5 5.3 4 7.1 4.2 11 .7 4.9-4.2 6.9-3.9 11.1 2 2.2 3 4.4 5 5.5 5 1.2 0 3.9-2.6 7.1-6.6 9.1-11.5 10.4-10.4 14.2 11.8 2.9 17.3 4.1 19.8 9.2 19.8 1.2 0 4.6.7 7.6 1.6 7.2 2.1 14.3 9.4 19.2 19.5 2 4.2 4.4 8.1 5.2 8.8 3.3 2.8 14.8-2.1 15.4-6.6.2-1.4-1-3.2-3.8-5.6-8.9-7.5-12.9-15.8-15.1-30.8-1.6-10.8-2.4-11.6-13.9-12.5-12.1-.9-12.7-1.4-14.6-13.4-2.9-18.7-3.2-19.2-16.5-21.6-10.4-1.9-13.4-3.6-11.8-6.5.6-1.1 4.9-4.6 9.7-7.6 4.8-3.1 9.3-6.3 10-7.2 2.8-3.5-1.3-29.2-5.7-35.1-1.8-2.5-2.1-2.5-16.2-2.6-13.1-.1-18.5-.8-30-4-.9-.2-2.6.4-3.8 1.3zm150.3 27.2c-14 9.8-20.7 18.2-20.8 26-.1 4.1.5 5.8 3.9 10.7 3.9 5.6 4 6 4 14.2 0 7.9.2 8.6 2.5 10.2 6.3 4.5 12 2.5 12-4.3 0-4.7 2-6.8 9.2-9.7 5.5-2.2 6.6-3.1 8.6-7 2.1-4.1 2.3-5.4 1.9-14-.6-10.2-4.6-26.1-7.4-29.2-2.7-3-6.5-2.1-13.9 3.1zm-36.1 75.2c-1.9.7-2.3 1.6-2.3 5.1 0 6.7 1.8 11.7 5.8 15.9 5.6 5.9 12.6 7.3 30.9 6.4 15-.7 17.3-1.5 17.3-5.5 0-5.5-8.3-10.2-31.8-17.9-13.8-4.6-16.9-5.2-19.9-4z"/><path d="M104.2 145.6c-1.9 1.8-5.2 7.7-8.8 15.9-3.1 7.1-6.4 14-7.2 15.3-4.4 6.8-15.1.5-15.2-9 0-1.3-.9-4.2-1.9-6.5-3.8-8.2-15.4-11-32.9-7.9-12.3 2.1-15.2 3.7-15.2 7.9 0 6.2 13.8 26.5 21.7 32 6 4.1 10.2 4.5 16.6 1.3 6.7-3.2 9.1-3.3 12.2-.2 4.4 4.5 4.2 6.4-2.4 23.4-8.3 21.4-14.1 39-14.1 42.8 0 1.7.6 3.7 1.4 4.3.8.7 6.5 2.5 12.8 4 6.2 1.6 16.5 5.1 22.8 8 6.3 2.8 12.3 5.1 13.2 5.1 2.8 0 4.4-3.5 8.7-19.7 5.7-20.8 10.2-33.8 16.7-47 6.9-14.4 7.4-14.7 22.8-13.7 11.1.6 11.2.6 14.3-2 1.8-1.5 4.6-5.6 6.4-9.1 3.8-7.7 4.1-13.9.9-19-4.5-7.3-19.4-17.4-35.5-24.1-8.4-3.5-9.8-3.8-21.6-4.2l-12.6-.4-3.1 2.8zm180 26.1c-3.9 1.5-5.6 11.5-2.3 13.3 3.1 1.6 8.7 1.2 11.1-.8 2.9-2.4 2.2-6.2-2-10.3-2.8-2.8-4.2-3.3-6.8-2.2zm82.8 6.1c-2.3 1.8-2.3 1.9-.7 6.7 2.4 6.9 2.1 13.9-.8 21-4.3 10.4-5.3 7.8 16.5 44.6 7.1 11.8 13.5 22.1 14.4 22.8 2.8 2.4 5 .9 6.3-4.2 3.9-15.9 4.2-55.2.6-69.8-4.4-17.2-11.2-22.9-27.4-22.9-5 0-7.3.5-8.9 1.8zm-31.1 17.9c-4.3 2.2-5.5 3.4-5.7 5.5-.3 2.1.3 3 2.7 4.2 4.6 2.4 8.3 2 11.3-1.2 3.9-4 5.1-7.7 3.2-9.7-2.2-2.2-5.3-1.9-11.5 1.2zm-107.4 6.5c-4.1 2.3-4.6 6.1-1.5 10.1 3 3.8 13.5 8.7 18.6 8.7 5.2 0 7-2.2 8-9.1.8-5.7-1.3-7.8-9.9-9.6-7.6-1.6-12.6-1.6-15.2-.1zm54.2 3.2c-7.5 2.8-11.7 8.6-11.7 16.1 0 18.6 26.4 24.1 34.1 7.1 2.4-5.2 2.3-9 0-14.3-3.6-7.8-14.1-12-22.4-8.9zm143.4 18.3c-.5 1-1.4 8.8-2 17.3-.7 8.5-1.9 20.1-2.7 25.8-1.6 11.4-1 14.2 3 14.2 5 0 24.5-17.6 27.5-24.8.7-1.7 1-4.3.7-5.6-1.1-4.4-21.7-28.6-24.3-28.6-.7 0-1.6.8-2.2 1.7zm-100.9 4.8c-2.5 3.2-4.6 10.8-3.8 14 1.2 4.5 20.2 17.5 25.8 17.5 1 0 3-1.1 4.3-2.5 6.3-6.2-.1-18.1-14.9-28.1-6-4-8.8-4.3-11.4-.9zm-72.8 16.3c-7.5 4.2-10.4 8-10.4 13.5 0 5.2 4.3 9.7 9.3 9.7 4.3 0 11-4.8 14.1-10.2 2-3.5 2-3.8.4-7.2-2.9-6-8.7-8.5-13.4-5.8zm43.1 12.2c-4 1.6-4.8 3.6-4.2 10.3 1.7 17.5 9.5 27.5 14.4 18.4 2.7-4.8 2.6-24.6-.1-27.6-2-2.2-6.3-2.7-10.1-1.1zm-126.8 7.8c-1.8 2-8.7 34.1-8.7 40.6 0 4.7 1 5.8 13.5 15.8 19.8 15.6 29.4 30.7 28.3 44.2-.9 10.6-6.4 17.8-24.5 31.8-11.4 8.8-15.3 12.9-15.3 16.2 0 4.2 2.7 6.3 12.4 9.6 5.1 1.7 11.9 4.6 15.1 6.5 3.2 1.9 6.8 3.5 8 3.5 2.8 0 3.9-2.8 5.5-14.5 6.9-49.1 17.9-95.6 24.5-103.3 2.3-2.6 2.3-2.6 22.6-3.5 22.9-.9 26-.6 28.7 2.7 1 1.3 3.8 10 6.2 19.3 5 19.6 6.4 22.8 15.7 34.8 12.1 15.6 24.2 25.5 31.1 25.5 3.6 0 5.5-2 9.6-10.6 4.5-9.4 9.6-13.9 17.6-15.5 6.2-1.2 9-2.9 9-5.4 0-2.7-6.2-18.5-8.2-21.1-2.3-2.8-2.8-2.8-15.8-.4-13.4 2.5-25.6-3.2-35.7-16.6-2.9-3.8-6.2-8.2-7.4-9.8-1.3-1.6-4.5-4.3-7.3-6.1-7.4-4.8-10-8-14.5-17.7-2.2-4.8-4.9-9.1-5.9-9.7-1.3-.7-3.5-.2-8.7 2.1-6 2.7-7.7 3-13.4 2.6-7.4-.6-13.1-3-20-8.7l-4.4-3.6-15.6-.1c-17 0-20.4-.8-32.7-7.3-6.9-3.6-7.6-3.7-9.7-1.3zm299.9 1.3c-2.9 2.3-5.6 6.8-5.6 9.4 0 .9 1 2.6 2.3 3.8 4.2 4.1 4.7 5.4 6.6 16.2 2.3 12.6 3.6 14.5 9.6 14.5 5.3 0 9.5-3 9.5-6.8 0-4.6-4.2-28.6-5.6-32-.9-2.3-2.6-3.9-5.6-5.2-5.5-2.5-7.9-2.5-11.2.1z"/><path d="M325.1 275.7c-.5 1-1.2 4-1.6 6.8-.4 2.7-1.8 8-3.1 11.6-1.3 3.7-2.4 8-2.4 9.7 0 3.6 5.1 11.4 10.4 15.6 3.3 2.7 4.6 3.1 9.6 3.1 6.5 0 11.3-2.5 11.8-6.3.3-2.2-10.9-33.1-13.5-37.2-.9-1.4-2.4-3-3.2-3.7-2.4-1.8-6.9-1.6-8 .4zm-278 11C43.6 290 26 323.8 26 327.3s6.4 8.7 10.8 8.7c3.1 0 5.6-3.7 16.1-23.7 11.5-21.8 12.1-24.6 6.6-26.9-5.3-2.2-9.1-1.8-12.4 1.3zm24.1 5.1c-3.2 3.2-13.8 34.5-16.1 47.7-2.8 15.9-2.8 20 .2 21.9 5.4 3.5 11.4 2.8 13.7-1.4.6-1.1 2.2-8.1 3.6-15.7 1.8-10 4.1-17.9 8.5-29.3 3.2-8.6 5.9-16.6 5.9-17.7 0-1.2-1.4-3.3-3.1-4.7-3.7-3.2-9.9-3.6-12.7-.8zm366.1 4.2c-3.8 2.3-5.7 5.4-4.9 8.3.3 1.2 5.7 10.7 11.9 21.2 12.2 20.4 14.2 22.4 19.4 20.4 4.2-1.6 7.3-4.9 7.3-7.9 0-2.6-19.4-36.4-23.8-41.5-2.6-3-5.6-3.2-9.9-.5zm-339.9 5.8c-2.1 1.4-2.4 4.6-1.4 17.7.5 7.9.6 14.6 0 16.4-.5 1.8-2.9 5.9-5.4 9.2-5.7 7.6-5.9 10.5-1.1 14.8 5.8 5.1 8.4 4.4 15.5-4.2 3.3-3.9 7-9.2 8.2-11.6 2.1-4.3 2.1-5 1.1-18.2-1.1-15.6-1.8-17.4-9.1-22-4.8-3-6-3.4-7.8-2.1zm308.5 9.5c-3.2 2.2-3.4 2.6-3.7 8.9-.4 8.8.9 11.1 10 18 9.8 7.6 11.8 8 16.3 3.5 2.7-2.7 3.5-4.3 3.5-7 0-3-.8-4.1-5.5-8.1-4.1-3.5-5.7-5.8-6.6-8.9-2.2-8.3-2.5-8.7-6.7-8.7-2.4 0-5.2.9-7.3 2.3zm-252.3 23.9c-.7 1.3-3 9.5-5 18.3-2.3 9.9-4.6 17.6-6.2 20.3-8.3 14.2-29.6 38.2-41.7 47.1-13.1 9.6-24.7 12.5-32.7 8.2-4.2-2.2-9.1-9.1-12-16.9-2.9-7.7-4.4-9.2-9.5-9.2-5.5 0-9.5 3-9.5 7s4.4 15.4 8.1 21.2c4.6 7.1 13 14.3 19.1 16.4 14.9 5.2 32.9-.4 52.8-16.5 8.8-7.1 12-7.8 12-2.7 0 1.9-2.5 11.9-5.6 22.3-7.4 24.8-7.4 24.5-5.9 28 3.2 7.6 25.8 10.4 47.5 5.8 8.8-1.8 11.3-3.1 13.3-6.5 1.9-3.2 4.5-13.6 4.8-19.5.6-11.7-1.1-13.7-15.8-18.9-18-6.3-24.3-12.7-24.3-24.7 0-11 5.7-18.7 24-32.7 6.3-4.8 12.5-10.2 13.7-12.1 2.8-4.2 3-9.8.4-14.9-4.2-8.2-19.1-22.2-23.7-22.2-1.4 0-2.9.9-3.8 2.2zm208.3 51.3c-1.7.9-4.2 4.6-7.3 11-5.3 10.6-9.6 14.8-16.6 16-5.2.9-14.2-1.5-22.9-6.1-3.8-2-7.4-3.3-8-3-2.3 1.5-.9 8.8 5.3 27.1 8.5 25.5 16.2 43.9 19.7 47.5 3.2 3.1 7 4.2 23.4 6.5 18.3 2.7 60.5 1.5 67.5-1.8 1.4-.7 2.6-2 2.8-3 .2-1-3.7-8.9-8.6-17.5-19.2-33.3-19.9-35.7-12.4-38.9 7-2.9 10.3-2.8 16.4.6 11.8 6.7 20.1 3 31.7-14.2 4.8-7 8.3-15.3 7.6-17.7-.3-1.1-1.6-2.5-2.7-3.1-6-3.2-30.2-5-38.1-2.8-4.9 1.3-10.4 6.2-11.1 9.9-.3 1.7-.9 4.4-1.2 6-.7 3.8-4.7 6-10.7 6-5.7 0-8.9-2.5-12.7-10-3.1-6.1-7.1-9.9-13.3-12.5-4.4-1.8-5.5-1.8-8.8 0z"/></g></svg>