<svg version="1.0" xmlns="http://www.w3.org/2000/svg" width="682.667" height="682.667" viewBox="0 0 512 512"><g fill="#f2f2f2"><path d="M221.8 23c-11.8 1.5-18.7 4.5-16.1 7.1.6.6 7.1 2.3 14.4 3.9 22.8 4.7 37.5 11.3 49 21.8 11.2 10.2 15.4 20 16.7 38.7.9 12.5 1.5 13.6 11.5 23.3l4.5 4.4 13.6-.8c16-.8 17.3-1.4 18.7-8.9 2.4-13-4.1-35.2-14.6-49.5-4.7-6.3-16.9-17.9-24-22.7-20.8-14-48.6-20.5-73.7-17.3zm-30.3 73.1c-6.3 1-15.9 4.5-20.5 7.4-5.3 3.4-11.9 11-14.8 17.3-2.5 5.2-2.7 6.8-2.7 17.7 0 11.5.1 12.3 3.3 19 4.7 9.9 10.1 16.6 17.2 21.4 10.3 6.8 16.4 8.2 40.5 9.1 23.8.9 31.8 2.6 46.5 10 4.4 2.2 9.2 4 10.7 3.9 4.5 0 21.4-8.1 23.7-11.3 1.8-2.3 2.2-4.5 2.5-14.5.2-9.7-.1-13.2-1.9-19.7-6-21.9-19.6-37.2-43.5-48.9-21-10.3-43-14.4-61-11.4zM118 123.9c-25 5.4-41.9 18.1-52.6 39.3-1.9 3.7-5.2 12.9-7.4 20.5-6.9 23.4-8.9 28.3-13.5 32.8-3 3.1-5.6 4.6-10.3 5.9-5.3 1.4-6.2 2-6.2 4 0 1.2 1.2 3.4 2.7 4.8 10.5 9.8 26.7 8 37.6-4.2 4-4.4 4.7-6 7-15.7 5.8-23.8 19.7-43.1 41.3-57.1 14.3-9.3 15.4-10.2 16.4-12.8 1.2-3 1.3-15.4.2-17.1-1.4-2.2-6.4-2.3-15.2-.4zM315 142c-2.4 2.4-2.4 2.8-.4 10.5.8 3.3 1.7 12.2 2.1 19.7.7 16.8.6 16.6 13.6 18.5 5 .7 14.4 2.9 20.9 4.9l11.6 3.7 2.9-1.9c15-9.7 19.3-12.9 19.8-14.5 2.7-8.3-13-27.3-28.8-35.2-14.6-7.1-37.1-10.3-41.7-5.7zm112.9 14c-8.4 1-19.8 4.8-22.5 7.5-2.9 2.9-3 5.8-.4 12.9 2.3 6.1 3.9 7.4 12.8 10.5 5.6 1.9 7.1 2 12 1.1 8.4-1.5 15.3-1.2 22.3 1 8.6 2.6 15.4 7.4 23.5 16.6 14.1 15.9 14.4 16 14.4 8.1 0-6.4-5.3-22.3-10.1-30.3-12-20.1-30.7-29.9-52-27.4zm-302.4 14.7c-14.6 9.7-26 24.3-30.5 38.8-2.8 9.2-2.9 23-.1 33.5 9.3 36.2 41.2 63.2 83.1 70.4 13.5 2.3 37.7 2.1 50-.4 30.1-6.2 49-27.6 49-55.6 0-18.8-9.8-35.1-26-43.4-10.4-5.3-15.1-6.2-37-7-15.4-.6-22.5-1.4-28.5-2.9-17.7-4.6-30.6-14-40.9-29.6-5.1-7.8-5.9-8.5-8.9-8.5-2.2 0-5.5 1.5-10.2 4.7zm266.2 32.8c-5 1.7-8.7 5.2-8.7 8.1 0 1.3 2.3 5 5.3 8.6 6.8 8.1 10.7 13.7 14.6 21.5 3.7 7.5 6.9 10 10.3 8.3 6.8-3.6 12.8-13.5 12.8-21.4 0-17.6-18.2-30.9-34.3-25.1zm-88.2 7.4c-17.5 4.4-18.8 6.3-13 19.9 6.6 15.7 7.1 32.2 1.5 49.6-3.7 11.4-3.3 13.4 3 18.5 2.1 1.6 5.6 5.8 7.9 9.2 9.8 14.7 10.8 32.8 2.5 49.1-4.3 8.4-2.8 11.2 7.7 14.7 29.3 9.7 53.5-1.7 68.8-32.5 11.3-22.8 15-53.1 9.2-75.7-3.4-13.1-9.1-22.9-19.6-33.3-7.8-7.9-10.6-9.9-18.6-13.7-5.2-2.5-12.6-5.2-16.6-6.1-9.4-2.1-23.9-1.9-32.8.3zm116 57.7c-6.2 3.2-6.1 3.1-6.9 20.9-.4 10.2-.3 17.2.3 18.4.6 1 3.6 3.7 6.8 6.1 7.7 5.8 10.9 9.3 14.1 15.4 3.8 7.3 3.8 19.9-.2 34.6-5.2 19.3-4.6 38.3 1.6 50.3 3.1 6.2 10.5 13.4 16.7 16.4 7.4 3.5 19.8 4.3 25.1 1.6 5.3-2.8 4.9-4.5-2.4-9.7-12.7-9.1-14.3-18.3-8.1-46.8 1.9-8.8 4-20.3 4.6-25.7 3.1-27.7-6.1-52.1-26.8-71.1-12.7-11.6-18.1-13.9-24.8-10.4zm-344.9 6.8c-12.7 9-19.5 25.2-16.7 39.7 2.9 14.5 12.7 27.2 19.7 25.5 1.4-.4 4.9-4 8.6-8.9 3.4-4.5 9.8-12 14-16.6 9.5-10.2 10.1-11.9 5.9-16.9-1.7-2-5.9-7.1-9.2-11.2-3.3-4.1-7.3-9.2-9-11.3-3.9-4.7-7-4.8-13.3-.3zm192.2 40.3c-4.5 3.1-12.9 7.8-18.5 10.5-12.9 6.1-14.1 8.1-10.7 18 6.2 18.5 30.5 24.5 45.2 11.3 9-8.1 12-21.3 7.2-32.2-3-6.8-9.8-13.3-13.9-13.3-.5 0-4.7 2.6-9.3 5.7zm-128.7 8.2c-4 4-3.4 22.1 1.1 35.6 4.9 14.7 15 26.5 28.2 33.1 8 3.9 8 3.9 20 3.9 11.8 0 12.3-.1 19.6-3.6 12.1-5.8 24-16.7 24-21.9 0-1-1.5-4-3.4-6.7-5-7.3-8.2-14.1-9.7-20.6-1.9-8.8-2.9-9.3-21.1-10-17.4-.7-29.4-2.9-45.1-8.1-5.9-2-10.9-3.6-11.2-3.6-.3 0-1.3.8-2.4 1.9z"/><path d="M107.6 335.3c-12 12.6-25.7 36.2-29.7 51.2-3.1 11.4-3.7 31.6-1.4 42.2 6.8 30.7 30.6 54.4 63.2 62.5 11.6 2.9 33.2 3.1 43.8.4 22.9-5.9 37-19.5 40.6-39.1 2-10.6-1.2-26.4-5.6-28.1-2.2-.9-2.4-.6-5 8.4-6.1 20.8-15 30.2-31.9 33.3-16.3 3-34.2-5.3-47-21.9-12.6-16.4-14.4-29.8-6.1-45 1.9-3.4 3.5-7.5 3.5-9s-2.2-7.2-5-12.7c-5.6-11.3-8.7-21.9-9.6-33.9-1.2-14-2.9-15.5-9.8-8.3zm178.7 51.3c-2.5 3.9-2.5 22.1 0 31.4 4 14.7 13.1 29.2 24.1 38.1 12.5 10.1 31 17.7 41.9 17 3.5-.2 1.5-3.7-6.7-11.7-17.4-17-25.5-33.9-27.2-56.4-.4-5-1.2-9.7-1.8-10.5-1.3-1.7-20.5-9.5-25.3-10.2-2.6-.4-3.4 0-5 2.3z"/></g></svg>