<svg xmlns="http://www.w3.org/2000/svg" viewBox="0 0 512 512" height="682.667" width="682.667" version="1.0"><path d="M252.63 31.663c-5.47-.028-9.901.063-12.334.306-22.864 2.311-31.134 3.405-44.39 6.08-18.851 3.771-40.377 9.609-47.066 12.77-3.162 1.582-5.717 3.893-6.811 6.325-2.554 5.473-39.77 160.293-39.77 165.4 0 7.42.608 7.542 36.364 7.907 19.702.365 32.96.974 33.932 1.703 2.068 1.703 1.823 7.783-.609 17.634-2.797 11.554-2.674 37.702.123 51.445 4.5 21.527 11.431 39.162 16.175 40.986 3.162 1.216 5.594-2.919 11.31-19.216 6.568-18.972 8.027-21.77 10.946-21.77 3.405 0 5.229 3.284 12.04 22.378 6.932 18.972 8.878 22.622 12.283 22.622 2.798 0 4.866-3.772 12.65-22.987 7.296-18.365 10.458-21.648 14.593-15.689 1.095 1.46 4.744 9.729 8.15 18.486 7.296 18.364 9 21.405 12.162 21.405 2.918 0 4.62-3.526 12.16-24.08 6.933-18.85 8.636-22.135 12.042-22.135 3.04 0 4.743 3.284 10.945 21.405 5.96 17.148 7.66 20.188 11.31 19.702 3.648-.486 7.54-9.121 12.04-26.513 4.744-18.243 6.081-48.283 2.919-67.377-3.04-18.73-5.35-17.39 33.568-17.999 17.634-.243 32.958-.972 34.175-1.459 1.094-.608 2.432-2.311 2.797-4.014.608-1.946-5.717-30.282-17.636-79.903-22.62-93.89-21.16-88.54-25.782-92.43-6.324-5.352-39.161-14.351-67.012-18.365-9.122-1.368-34.867-2.531-51.274-2.617zm-92.175 103.82c5.874.213 16.649 3.718 27.423 9.106 25.905 13.013 46.825 38.308 35.271 42.808-2.31.851-65.431 6.81-72.485 6.81-3.527 0-4.987-.728-6.569-3.039-1.824-2.797-1.702-4.257 3.042-26.27 5.472-25.297 6.201-27.486 10.215-29.067.532-.198 1.203-.31 1.995-.346a13.83 13.83 0 011.108-.002zm196.326.426c3.285-.08 5.196 1.343 6.838 4.422 1.702 3.405 9.85 40.5 10.094 46.216.243 4.987-2.433 7.66-7.541 7.66-8.757 0-71.147-6.323-73.093-7.417-5.23-2.798-1.215-10.824 11.19-22.5 11.31-10.459 25.66-19.337 41.836-25.54 4.735-1.808 8.122-2.78 10.676-2.84zm-98.399 74.153c2.021.012 4.056.815 5.63 2.389 6.446 6.445 27.973 36.85 27.973 39.526 0 1.581-1.702 4.5-3.648 6.567-7.297 7.176-12.163 6.569-19.46-2.553-9-11.31-11.92-11.432-20.311-.851-6.689 8.513-9.972 9.85-16.174 6.324-5.23-3.04-7.905-7.419-6.932-11.432.85-3.162 24.93-35.757 28.458-38.554a7.533 7.533 0 014.464-1.416zm-71.216 169.783c-2.737-.08-5.93 3.815-9.624 11.75-5.716 12.406-7.298 20.676-8.028 40.5l-.728 18.364 4.498 4.987c8.392 9.243 30.526 22.013 49.256 28.215 33.445 11.19 68.837 6.082 104.228-15.201 22.135-13.378 24.324-16.663 23.23-35.879-.974-15.202-4.137-28.46-9.366-39.04-6.568-13.013-11.31-16.297-15.08-10.58-.974 1.58-4.379 11.796-7.42 22.864-9.242 32.958-10.824 33.324-23.107 6.082-3.77-8.392-8.148-16.54-9.85-18.243l-3.041-3.041-2.311 2.797c-1.216 1.581-5.35 12.162-9.243 23.716-7.662 23.35-9.487 27.608-12.041 27.608-3.04 0-5.23-4.866-12.77-27.487-4.135-12.162-8.148-22.863-9.121-23.593-3.892-3.162-6.08-.608-15.81 18.243-7.783 15.08-10.338 18.972-12.527 19.215-3.527.487-4.865-2.798-9.973-22.987-2.068-8.27-4.621-17.633-5.594-20.917-1.597-4.842-3.45-7.31-5.578-7.373z" fill="#f2f2f2"/></svg>