<svg xmlns="http://www.w3.org/2000/svg" viewBox="0 0 512 512" height="682.667" width="682.667" version="1.0"><path d="M391.795 88.759c-1.873 1.03-4.963 3.84-6.836 6.368-1.873 2.528-5.619 6.368-8.335 8.428-8.147 6.274-12.548 13.766-15.826 27.157-1.873 7.305-2.06 10.395-2.06 30.623.094 12.548.75 30.34 1.592 40.267 2.435 27.813 2.154 33.151-3.746 56.188-2.247 8.896-2.247 9.926-1.31 19.76 5.056 50.287-25.23 68.79-34.834 69.565-9.606.774-1.44 1.92-36.972 6.536-16.669-1.873-20.225-6.193-34.833-15.09-8.56-5.637-46.199-7.74-53.871-3.981l-57.592 13.86-37.552 15.92c-4.402.561-29.312 22.38-40.175 29.123-16.107 10.02-33.806 32.963-35.21 38.676-1.312 5.244-10.02 4.963 154.515 4.963 166.69 0 161.352.187 178.77-5.619 20.79-7.023 37.834-20.32 50.85-39.893 24.255-36.522 31.185-94.863 18.449-157.232-2.248-10.956-2.529-14.234-2.529-33.244-.093-18.916.094-21.913 2.06-29.405 2.342-9.364 8.241-22.662 11.238-25.284 1.124-.937 4.87-2.341 8.334-2.997 7.024-1.498 10.02-3.277 13.11-7.866 5.713-8.335 2.904-19.478-6.273-24.16-6.837-3.372-13.766-2.53-19.01 2.434-3.278 3.09-4.776 5.806-6.088 11.612-.655 2.341-3.183 7.773-5.712 11.987-15.077 24.816-19.104 52.535-13.579 94.77.562 3.84.281 4.682-1.779 6.742-3.465 3.465-10.582 3.371-17.512-.187-8.521-4.308-8.428-3.84-10.863-35.024-3.558-44.669-2.715-67.331 2.81-78.381 2.903-5.9 5.712-7.398 11.331-5.9 9.74 2.622 17.23.374 21.726-6.555 5.431-8.054 2.341-19.76-6.274-24.161-4.683-2.341-11.519-2.341-16.014 0z" fill="#f2f2f2"/></svg>