<svg xmlns="http://www.w3.org/2000/svg" viewBox="0 0 512 512" height="682.667" width="682.667" version="1.0"><g fill="#f2f2f2"><path d="M160.444 53.433c-7.846 2.17-21.87 10.518-26.126 15.526-2.672 3.255-2.755 5.592-.084 13.439 3.172 9.098 2.087 10.267-5.175 5.342-2.42-1.586-5.092-2.922-6.01-2.922-3.59 0-8.43 9.266-8.43 16.194 0 4.424 2.587 15.192 6.093 25.041 3.088 8.598 2.17 9.683-4.842 5.51-4.841-2.922-4.924-2.922-6.594-1.17-2.087 2.004-1.836 20.368.25 24.959 2.17 4.674 12.605 16.36 21.286 23.706 9.015 7.679 9.098 8.68.5 9.265-5.842.417-6.26.584-6.51 2.42-.25 1.587 1.168 3.506 7.095 9.182 23.539 22.872 61.435 38.397 131.718 53.84 65.441 14.44 109.43 19.281 121.701 13.438 3.673-1.669 9.85-8.18 12.103-12.604 4.34-8.597 5.593-20.283 3.089-29.883-3.923-14.94-18.113-31.97-39.315-47.328-9.432-6.761-14.608-9.349-19.95-9.766-4.173-.334-4.674-.167-6.844 2.087-1.253 1.335-7.179 10.267-13.189 19.783-6.177 9.85-11.603 17.779-12.688 18.196-1.001.501-2.67.668-3.756.418-2.921-.752-27.629-21.202-28.714-23.79-.835-1.753-.751-2.921.25-5.342.668-1.753 1.086-3.756.752-4.424-.585-1.67-6.094-1.67-19.282 0-14.107 1.753-23.706 1.586-31.302-.5-17.529-4.842-34.307-19.366-40.066-34.808-7.513-20.033-.752-37.646 20.283-52.587 3.673-2.671 6.928-5.593 7.346-6.511 2.42-6.678-14.775-22.287-29.215-26.544-5.51-1.586-18.781-1.67-24.374-.167zm196.325 22.704c-12.354 3.34-21.953 13.356-22.12 23.205-.084 3.172.083 3.423 2.42 3.673 1.587.167 5.343-1.085 10.435-3.422 9.85-4.675 20.2-8.347 31.218-11.102 4.59-1.168 8.931-2.504 9.432-3.005 3.005-2.504-.918-6.845-8.347-9.349-5.008-1.67-16.861-1.67-23.038 0zm30.383 25.96c-9.348 2.003-21.118 6.01-23.372 8.013-1.252 1.085-3.84 6.26-6.51 13.105-2.504 6.177-5.76 13.69-7.262 16.694-3.506 6.845-4.174 9.35-3.172 11.186 1.001 1.753 14.357 8.013 17.028 8.013 1.419 0 2.921-1.336 5.426-4.674l3.505-4.758 5.927.667c13.105 1.503 14.941.668 19.7-9.098 4.34-8.848 6.092-17.863 5.675-29.382-.25-7.596-.5-9.015-1.836-10.016-2.087-1.503-7.596-1.42-15.109.25z"/><path d="M332.896 122.714c-3.422 1.503-4.424 2.838-10.35 14.19-6.26 11.937-12.187 21.536-20.034 32.554-6.427 9.099-7.178 11.603-4.006 14.524 2.504 2.421 6.01 2.338 8.097-.083 6.01-6.928 30.383-49.916 32.553-57.428 1.252-4.34-1.335-5.927-6.26-3.757zM150.928 235.067c-1.168 1.92 7.68 10.935 20.868 21.285 14.274 11.185 15.526 11.52 24.958 6.427 9.015-4.84 9.516-7.429 1.67-10.267-17.446-6.427-22.12-8.18-32.053-12.437-13.523-5.76-14.691-6.177-15.443-5.008zm80.383 28.547c-3.505.668-28.714 13.189-40.316 19.866-13.69 7.847-14.19 9.516-4.424 14.691 8.848 4.758 14.273 8.932 17.612 13.523 6.678 9.098 8.514 15.776 7.93 28.13-.417 7.011-1.085 10.183-4.007 19.031-5.091 14.858-4.424 15.359 10.768 7.763 23.372-11.77 93.154-52.838 99.331-58.347 3.172-3.005 3.59-5.091 2.504-14.273-1.168-10.017-1.67-11.686-4.34-13.44-1.169-.667-9.099-2.587-17.78-4.256-8.68-1.586-25.125-5.009-36.644-7.513-26.877-5.926-26.96-6.01-30.634-5.175zm105.341 21.118c-3.506 4.257 8.013 77.796 21.369 136.476 4.925 21.703 5.843 24.708 8.013 26.294 1.586 1.085 5.76 1.252 27.546 1.252h25.709l1.252-2.004c1.252-1.836 1.169-2.42-1.002-8.013-4.507-11.602-8.347-13.856-24.874-14.774-6.26-.334-9.6-.835-10.601-1.67-1.92-1.67-1.92-2.754-4.925-69.949-1.419-32.637-2.921-60.683-3.339-62.353-.417-1.753-1.502-3.506-2.253-3.923-1.336-.751-24.708-2.588-32.387-2.588-2.087 0-3.923.501-4.508 1.252z"/><path d="M152.18 308.104c-9.682 2.755-17.445 7.847-26.794 17.78-18.614 19.616-39.565 57.428-46.41 83.471-2.922 11.436-3.005 22.454-.167 28.214 1.085 2.253 3.005 4.674 4.257 5.342 2.003 1.085 2.42 1.085 4.007-.418.918-.834 3.172-4.257 4.841-7.429 4.174-8.013 12.103-16.277 18.698-19.532 6.928-3.422 13.94-4.424 31.552-4.674 9.6-.084 15.192-.501 16.444-1.169 4.424-2.504 23.121-30.05 30.383-44.824 6.177-12.604 8.598-21.703 8.097-30.384-.5-7.679-2.42-11.936-7.68-16.527-10.433-9.182-25.625-13.188-37.228-9.85z"/><path d="M130.394 426.216c-8.43.668-14.44 2.672-18.196 6.094-2.922 2.67-6.762 9.015-6.762 11.102 0 4.173-1.669 4.09 64.774 4.09 56.01 0 62.186-.167 63.355-1.336 1.252-1.252 1.169-1.502-.918-3.172-3.506-2.754-13.856-5.592-36.143-10.1-30.968-6.093-49.248-8.013-66.11-6.678z"/></g></svg>