<svg xmlns="http://www.w3.org/2000/svg" viewBox="0 0 512 512" height="682.667" width="682.667" version="1.0"><path d="M94.754 64.52c-2.009 2.272-9.958 20.093-15.2 34.332-8.211 22.188-13.715 43.853-16.335 65.255-2.01 15.724-1.398 44.552 1.135 56.956 4.892 23.412 14.414 42.106 28.391 55.559 10.745 10.395 18.694 15.112 35.117 20.878 7.25 2.533 10.92 4.28 11.968 5.678 1.747 2.359 3.844 14.501 2.97 17.559-.262 1.135-3.057 5.066-6.202 8.823-14.327 17.121-23.062 34.069-27.517 53.374-3.495 15.288-3.145 21.927 1.31 23.936 9.871 4.542 41.057 5.678 54.16 2.096 9.173-2.533 19.481-7.512 26.644-12.666 3.145-2.271 6.64-4.368 7.775-4.717 1.31-.35 5.329.524 10.483 2.27 4.63 1.486 11.706 3.408 15.811 4.194 8.649 1.747 10.483 3.145 12.143 10.046 4.63 18.607 15.811 35.38 30.225 45.775 6.29 4.455 20.092 11.181 26.032 12.754 5.33 1.397 8.037.087 10.92-5.242 2.795-4.98 6.639-16.423 8.56-25.508 2.185-10.046 2.185-35.292.088-46.997-2.446-13.191-1.922-15.55 4.543-21.403 4.542-4.105 7.076-4.105 15.025-.174 8.386 4.28 19.917 7.949 28.653 9.26 54.685 7.861 99.062-52.764 111.903-152.787 2.359-18.257 2.359-23.76-.175-26.207-3.669-3.407-19.655-8.91-34.767-12.142-10.658-2.184-35.642-2.184-47.61.087-22.887 4.28-46.124 14.589-67.613 30.138-4.28 3.145-8.212 5.329-9.522 5.329-1.223 0-6.552-2.97-12.492-6.901-20.878-13.89-40.533-19.219-66.303-17.996-14.065.787-13.191 1.31-17.908-10.92-22.189-56.78-62.547-101.507-108.06-119.59-7.775-3.145-11.968-3.407-14.152-1.048zm27.954 55.385c14.676 3.145 23.761 15.025 22.888 30.225-.7 10.92-6.989 20.18-16.86 24.722-6.552 2.97-17.471 2.883-24.023-.262-10.308-4.892-16.598-14.676-16.598-25.858 0-14.588 8.823-25.77 22.713-28.74 6.202-1.398 5.678-1.398 11.88-.087zm-21.664 72.68c6.552 2.795 9.784 7.513 9.784 14.414 0 5.329-1.485 8.386-5.591 12.055-9.522 8.299-24.984.96-24.984-11.968 0-6.639 3.058-11.356 9.172-14.151 4.28-2.01 7.338-2.097 11.619-.35zm112.427 27.43c.262.437-2.882 4.368-6.9 8.736-8.212 8.735-11.27 13.016-14.939 20.179-25.158 49.793 10.745 108.322 66.478 108.322 20.53 0 38.612-7.95 54.685-23.936 4.193-4.106 7.95-7.513 8.474-7.513 2.795 0-.874 10.396-6.989 19.655-20.354 31.187-60.363 45.251-96.44 33.895-30.313-9.522-52.153-34.157-58.617-65.867-1.048-5.503-1.31-10.046-.96-19.044.436-12.928 2.445-21.664 7.512-32.846 7.775-17.121 24.372-33.806 39.834-40.183 5.766-2.359 7.076-2.621 7.862-1.398zm219.352 10.133c5.853 2.62 11.269 8.124 14.239 14.327 1.922 4.105 2.271 6.115 2.271 12.317 0 6.29-.35 8.124-2.446 12.317-2.795 5.853-8.56 11.444-14.414 14.064-6.29 2.97-17.296 2.796-23.848-.262-13.802-6.464-20.266-22.013-15.375-36.34 1.748-4.98 7.6-12.142 12.318-15.025 7.6-4.717 18.781-5.329 27.255-1.398zm-315.181 10.92c11.356 6.9 6.464 24.46-6.814 24.46-7.426 0-13.104-5.679-13.104-13.104 0-7.425 5.678-13.103 13.104-13.103 2.358 0 5.066.699 6.814 1.747zm297.972 62.372c9.172 4.805 11.356 16.248 4.63 24.285-5.766 6.814-17.297 6.814-23.15-.087-6.29-7.513-4.717-17.82 3.67-23.412 3.493-2.358 11.006-2.708 14.85-.786zm-36.952 32.497c12.142 5.765 7.862 24.809-5.503 24.809-8.212 0-13.715-5.329-13.715-13.278 0-9.61 10.308-15.724 19.218-11.531zM147.954 369.48c7.6 4.718 7.775 16.51.262 22.102-1.31.96-4.193 1.921-6.551 2.096-12.754 1.048-19.131-14.239-9.61-23.15 4.193-3.93 10.57-4.28 15.9-1.048zm139.42 43.766c3.844 1.31 6.814 4.018 8.3 7.513 5.59 13.19-10.833 24.721-21.228 14.937-7.163-6.726-4.63-18.868 4.543-22.1 4.367-1.573 4.717-1.573 8.386-.35z" fill="#f2f2f2"/></svg>