<svg version="1.0" xmlns="http://www.w3.org/2000/svg" width="682.667" height="682.667" viewBox="0 0 512 512"><path d="M181.5 25.6c-12.6 1.9-28 5.9-41.4 10.7-13.5 4.7-38.8 17.2-51.6 25.2-19.1 12.1-45.7 34.1-49 40.5-2.5 4.9-.8 5.6 17 6.4 28.5 1.2 47.3 4.9 62.4 12.4 8.5 4.1 17.6 12.4 21 18.9 3.4 6.8 5.4 16.9 4.7 24.7-1.2 15.6-10.6 26.9-39.5 47.6-35.6 25.6-48.9 39.3-58.8 60.8-6.2 13.3-8.5 24.5-9 43.2-.5 18 1 29.1 6.3 45 17.9 53.7 71.6 104.3 127.9 120.5 21.5 6.2 17.6 6 127 6 93.9 0 100.3-.1 102.8-1.8 11.5-7.5-4.8-20.9-36-29.7-5.6-1.6-11.1-3.4-12.2-4-3.8-2-2.5-5.4 5.1-14.2 18-20.9 28.3-38 33.3-55.2 1.3-4.3 1.6-8.4 1.3-15.5-.3-8.6-.7-10.3-3.8-15.9-7.6-14.3-23.5-21.6-46.5-21.5-14.5.1-27.2 3-39.6 9.2-10.6 5.3-16.4 9.7-24.2 18.1-7.2 7.8-12.2 16.6-16.2 28.7-1.4 4.6-3.1 8.6-3.7 8.9-2.3 1.4-3.8-2.9-3.8-10.6 0-25.3 17.6-50.5 44.4-63.5 13.8-6.7 26-9.6 43.6-10.2l14.5-.5 8.5 5.3c12 7.3 25.4 13.6 33.5 15.5 8.4 2 24.9 2.2 35.7.4 12.5-2 17-6 17-15.1 0-3.5-.6-5.9-1.9-7.8-3.8-4.9-6.9-6-23.7-7.5-18.3-1.6-19.4-2.2-30.3-14.1-10.8-11.9-13.4-19.6-9.3-28.1 2.5-5.1 11.8-14 15.5-15 1.7-.4 8.6.6 18.9 2.9 21 4.7 31.2 6.1 39.6 5.5 15.5-1.1 19.9-9.4 17.9-33.6-3.9-45-23.4-74.3-54.6-82-8.1-1.9-10.9-3.8-11.9-7.9-.4-1.5.1-8.4 1.1-15.5 2-14.4 1.4-17.8-3.6-19.8-8.3-3.5-28.6 8.5-39.4 23.2-2.4 3.2-5.3 8.7-6.5 12.2-2.2 6.7-3.6 8.3-11.4 13.6-10.3 6.9-24.2 21.7-41.7 44.1-6.1 7.9-7.3 8.9-16.5 13.7-13.8 7.2-25.1 16-38.5 29.9-19.8 20.7-34.4 42.2-50 74.3-15.6 32-16.3 33.4-17.4 33.2-1.8-.4-.9-17.2 1.4-28 7.6-35.3 23.4-64.9 48.6-91.1 11.1-11.5 20.9-19.8 44.6-37.7 43.2-32.5 48.2-43.7 35.7-79.4-14.4-40.9-46.6-67.9-90.2-75.5-11-1.9-34.6-1.8-47.1.1zM439 172.5c10.5 5.4 6.1 22.3-5.8 22.5-7.4 0-12.2-4.8-12.2-12.3 0-4.2.5-5.4 3.4-8.3 2.8-2.8 4.2-3.4 7.5-3.4 2.3 0 5.5.7 7.1 1.5z" fill="#f2f2f2"/></svg>