<svg version="1.0" xmlns="http://www.w3.org/2000/svg" width="682.667" height="682.667" viewBox="0 0 512 512"><path d="M37.9 50.1c-2 2-2.1 2.9-1.5 9.3 2 22.5 7.2 40.9 14.8 52.3 6.1 9.1 12.1 14.3 22.3 19.3 12.3 6.1 21.3 8.1 40 8.7 15.4.5 16.1.4 18.8-1.7 3.3-2.6 3.5-5.8 1.2-19.9-6.8-41.9-28.9-61.6-76.6-68.6-14.1-2-16.5-1.9-19 .6zm411.7 9.2c-2.3 1.7-2.9 8.5-4.7 47.4-1 23.1-1 28.5 0 29.7 3.7 4.4 17.9-1.1 27.7-10.9 8.3-8.2 10.7-14.6 10.2-26.6-.3-7.3-.9-9.6-4.1-16.2-4.2-8.9-11.8-17.6-19.2-21.8-5.6-3.2-7.3-3.5-9.9-1.6zM275.5 173.4c-6.8 3.1-13.2 9.8-16.9 17.6-2.8 5.8-3.1 7.5-3.1 15.5.1 8.3.4 9.7 4.3 18.7 7.4 17.1 22 42.1 26.3 45.1 4.8 3.4 6.8.2 15-24.5 9.2-28 10.8-43 5.9-56.1-6.1-16.1-18.4-22.5-31.5-16.3zm70.7 2.2c-8.1 4-14.7 15.9-15.9 28.8-.8 8.4 2.5 24.8 8.9 44.4 7.7 24.1 10.2 27.9 14.9 23.6 5.9-5.4 25.5-40.6 29.3-52.8 2.7-8.6 1.9-18.6-2.3-27-5.5-11.1-17-19.6-26.6-19.6-1.7 0-5.4 1.2-8.3 2.6zm76.3 18.3c-8.1 3.6-14.7 14.4-16.7 26.8-2 12.6 1.8 71.7 5.1 80.5 1.3 3.5 3.5 4.1 6.5 1.7 5.9-4.6 32.2-42.6 38-54.8 2.9-6.1 3.1-7.4 3.1-17.6 0-10.3-.2-11.4-3.2-17.7-4-8.4-10.4-15.4-16.8-18.4-6-2.8-10.6-3-16-.5zm-218.2 2.8c-14.1 5-25.5 27.1-22.4 43.7 1.5 8.1 7.6 19.2 18.9 34.2 10.1 13.4 23 29.1 27.5 33.3 3.1 2.8 5.3 2.3 6.8-1.6 1.7-4.2 2.5-66.4 1-77.8-2-15.1-8.4-26.5-17.4-31-5.8-2.8-8.4-3-14.4-.8zm-69 33.4c-5.6 2.8-12.9 10.7-16.1 17.7-2.2 4.7-2.7 7.1-2.7 13.7 0 7.3.4 8.8 3.7 15.5 5.1 10.3 16.9 28 21.3 31.8 6.2 5.5 8.1 2.6 15.1-22.8 7.1-25.7 7.5-37.4 1.7-48.3-5.1-9.4-13.7-12.2-23-7.6zm22.1 124.5c-8.5 4.5-21.2 13.4-27.4 19.1-7.7 7.1-10.4 13.6-9.8 23.8.9 14.2 9.3 25.5 18.8 25.5 6.5 0 14.6-6.3 18.9-14.8 3.7-7.4 6.9-21.7 9.1-42.1.9-8 .8-9.7-.5-11.7-2-3-3.1-3-9.1.2zm234.7 8.6c-1.5 4.8-3 22.9-3.7 43.3-1 28.6 1.6 40.4 11 50.1 6.6 6.8 11.3 8.2 19.3 5.9 4.5-1.3 6.9-2.9 11.8-7.8 12.9-12.9 16.8-31 9.9-45.2-4.2-8.5-14.8-21.9-28.8-36.2-10.4-10.6-13.7-13.3-15.8-13.3-2.1 0-2.9.7-3.7 3.2zm-176.2 17.4c-18.5 13.6-37 31.8-41.3 40.7-1.4 2.8-2.8 7.5-3.2 10.3-1.3 10.4 4.1 25.6 12 33.7 16.3 16.8 34.9 9.5 41.5-16.5 2.4-9.1 4.1-31.5 4.1-52 0-22.2-1.8-24.4-13.1-16.2zm56.4 13.9c-4.5 5.7-17 28.3-22.1 40-4.6 10.7-4.7 11.3-4.7 21 0 8.7.3 10.7 2.7 15.7 5.6 12.1 16.2 19.8 27 19.8 3.3 0 7.1-.6 8.6-1.4 10.9-5.7 17.7-23.7 15.2-40.2-1.7-11-7.9-31.6-15-49.4-3.9-9.8-7-11.3-11.7-5.5zm64.8 1.2c-4.7 9.5-13.3 40.5-15 54.3-2.1 17.4 4.6 34.2 16 40.1 11.4 5.8 26.6-1.8 34.5-17.3 2.3-4.3 2.8-7 3.2-14.4.4-8.3.2-9.6-2.7-17-5-12.4-21.3-40.6-27.4-47.2-3.2-3.4-6.3-2.9-8.6 1.5z" fill="#f2f2f2"/></svg>