<svg xmlns="http://www.w3.org/2000/svg" version="1.0" width="682.667" height="682.667" viewBox="0 0 512 512"><g fill="#f2f2f2"><path d="M205.35-6.575c-1.438.767-4.22 50.372-8.441 59.102-8.73 18.131-15.733 27.437-25.71 34.056-5.085 3.358-9.69 3.262-16.98-.48-3.166-1.534-6.716-2.782-7.867-2.59-1.919.288-2.11.96-2.399 7.483-.48 10.073 2.59 68.88 3.838 72.621 1.343 4.413 4.509 4.126 13.143-1.15 16.884-10.553 41.443-22.737 48.446-23.984 1.823-.384 4.125-.192 5.276.48 2.11 1.055 22.928 26.765 26.19 32.233 2.206 3.838 1.439 5.948-3.454 9.018-2.014 1.151-3.741 3.262-4.317 5.084-.575 1.727-2.11 15.542-3.453 30.89-1.343 15.254-2.974 29.26-3.454 30.987-.575 1.727-4.22 6.812-8.154 11.32-4.413 4.989-7.1 8.922-7.1 10.361 0 2.974 2.591 5.085 14.39 11.8 15.926 9.114 18.228 10.169 21.586 9.593 3.55-.575 35.4-13.43 39.716-16.116 4.893-2.974 4.125-5.469-4.317-13.047-3.933-3.55-7.866-7.771-8.634-9.21-.863-1.63-2.974-15.061-5.276-33.48-2.015-16.885-4.317-31.85-4.989-33.194-.575-1.343-3.07-3.645-5.468-4.988-7.579-4.413-7.387-4.989 12.184-29.26 9.593-11.991 11.991-13.622 17.363-11.895 7.1 2.302 24.943 10.744 37.318 17.747 6.908 3.933 13.431 7.1 14.39 7.1 3.934 0 4.126-1.344 4.126-26.382 0-13.143.48-33.097 1.055-44.321 1.055-21.681.671-24.272-3.07-24.272-1.151 0-7.29 2.974-13.718 6.716-15.83 9.113-25.23 12.471-35.016 12.471-6.428 0-8.25-.384-13.239-2.878-7.866-3.933-16.788-13.526-27.725-29.74-12.855-18.898-10.936-62.747-28.971-62.939-9.69-.192-15.83.192-17.268.864zM33.726-5.328c-2.878 2.014-2.782 49.605.576 56.512 7.29 15.253 21.489 32.713 28.396 35.015 5.18 1.727 9.018.576 18.707-5.756 14.39-9.497 21.01-12.183 34.824-13.91 7.674-.96 8.538-2.686 8.154-14.486-.192-7.962-.671-55.265-2.015-56.608-1.534-1.63-4.892-1.727-44.129-2.014-37.414-.192-42.69-.096-44.513 1.247z"/><path d="M142.13-5.616c-3.07 1.439-2.781 49.317 1.152 55.84 7.003 11.512 14.582 18.707 19.762 18.707 3.262 0 9.498-7.099 14.102-16.116 7.003-13.431 5.756-59.582-17.076-59.486-9.305 0-16.692.48-17.94 1.055zm125.673-.192c-3.645 1.44-2.782 50.564 2.494 58.047 6.236 9.018 15.446 17.364 19.859 18.227 6.715 1.248 19.378-3.741 36.742-14.486 10.073-6.235 17.556-57.663 17.172-59.677-.192-.864-1.343-1.823-2.686-2.207-3.55-.96-71.087-.863-73.58.096zm101.881 0c-4.509 1.727-5.276 49.989-6.715 73.396-.96 14.103-.672 14.39 16.309 19.667 25.23 7.77 31.37 6.523 54.202-11.608 10.936-8.634 13.239-9.69 24.75-11.128 11.8-1.44 14.582-3.166 19.187-11.704 3.838-7.195 4.125-56.896.672-58.431-2.974-1.343-105.239-1.535-108.405-.192zM191.057 164.769c-22.545 11.32-48.255 30.506-48.255 36.166 0 3.742 4.413 9.018 7.579 9.018.48 0 5.372-3.357 10.84-7.387 14.582-10.936 26.862-18.898 37.702-24.463 13.047-6.619 14.87-8.058 14.87-11.224 0-3.645-4.51-7.77-8.346-7.77-1.727 0-7.771 2.398-14.39 5.66zm93.534-3.454c-3.07 2.782-4.029 5.756-2.782 8.154.48.96 6.236 4.605 12.855 8.059 14.199 7.579 24.463 14.102 38.47 24.559 5.948 4.509 11.32 7.866 12.663 7.866 2.878 0 6.14-4.317 6.14-8.058 0-3.55-2.207-6.236-10.553-13.047-14.678-11.992-45.664-29.74-51.9-29.74-1.343 0-3.55 1.056-4.893 2.207zm-94.781 65.522c-25.23 9.594-24.08 9.306-29.836 7.1-4.413-1.823-5.18-1.823-7.099-.576-2.974 1.919-3.357 4.893-3.357 25.902 0 10.073-.48 25.614-.96 34.536-.863 14.102-.863 16.5.48 18.419.863 1.343 2.398 2.302 3.645 2.302 2.015 0 41.156-13.047 50.27-16.788 4.412-1.727 5.947-4.509 4.029-6.811-.672-.864-5.373-3.933-10.361-6.811-11.033-6.428-13.527-8.538-13.527-11.416 0-1.44 3.933-6.332 11.8-14.774 6.427-6.907 12.567-14.102 13.527-16.021 2.302-4.221 3.357-16.884 1.534-18.995-1.918-2.398-5.468-1.63-20.145 3.933zm98.81-2.973c-1.534 1.822-.767 15.061 1.056 18.994.671 1.44 7.866 8.25 15.925 15.158 8.058 6.907 15.35 13.526 16.117 14.678 2.974 4.412 1.15 5.756-17.748 13.526-6.044 2.494-11.992 5.085-13.239 5.948-2.974 1.823-2.398 5.18 1.055 6.811 7.483 3.55 58.616 16.5 65.331 16.5 6.14 0 6.14-.67 1.247-25.71-2.494-12.47-5.468-28.587-6.523-35.687-1.152-7.099-2.59-14.102-3.358-15.54-2.686-5.277-8.634-7.1-13.814-4.126-1.343.768-3.166 1.343-4.221 1.44-.96 0-9.786-3.07-19.57-6.716-9.786-3.742-18.516-6.715-19.38-6.715-.959 0-2.206.671-2.877 1.439zm-37.701 84.229c-6.236 1.823-6.715 1.919-11.608.384-2.782-.96-5.948-1.631-7.003-1.631-1.151 0-14.294 4.22-29.164 9.497-14.965 5.18-31.562 10.84-36.838 12.567-11.608 3.838-14.87 5.373-14.87 7.195 0 .768.864 1.823 1.919 2.399 3.645 1.918 23.408 3.933 39.333 3.933 21.872 0 34.631-2.398 47.678-9.114 6.62-3.357 9.594-3.166 17.748.96 11.128 5.564 22.736 8.154 40.1 8.73 20.913.671 49.31-2.783 53.243-6.524 2.11-2.11-3.262-4.125-25.135-9.497-24.175-5.948-38.469-10.265-54.49-16.309-12.759-4.893-13.334-4.893-20.913-2.59zm105.814 46.24c-20.146 4.125-31.946 5.564-50.365 5.948-10.169.287-18.803.959-19.378 1.439-1.823 1.439-1.535 3.549 1.247 10.456 1.343 3.358 3.645 10.649 4.988 16.213 2.207 9.21 2.399 12.183 2.687 35.303.191 20.05.575 25.71 1.63 27.437 1.44 2.207 40.1 33.193 44.705 35.88 4.413 2.494 5.852 1.15 5.852-5.757.096-15.157 3.646-28.876 9.881-38.373 3.742-5.564 7.291-7.962 10.457-6.907 1.151.288 7.003 3.55 13.143 7.195 31.082 18.515 59.479 30.219 83.366 34.44 6.907 1.247 9.785.671 9.785-1.919 0-1.055-6.236-7.483-15.541-16.117-31.082-28.684-75.02-79.145-79.337-91.04-1.151-3.07-2.686-7.387-3.55-9.594-2.59-7.099-4.7-7.578-19.57-4.604zm-213.835 4.221c-1.055 1.055-2.686 3.357-3.55 5.084-3.645 7.1-17.171 26.094-25.71 35.88-14.198 16.5-25.71 26.285-55.065 46.43-20.722 14.295-22.544 16.31-15.83 18.132 4.702 1.343 13.24 1.343 25.04 0 21.68-2.302 36.358-7.195 50.844-16.788 5.085-3.358 9.977-6.14 10.936-6.14 2.687 0 3.646 2.974 4.605 15.062 1.151 13.814 3.742 19.858 12.855 29.547 5.948 6.332 6.236 6.524 9.785 5.948 5.469-.768 26.094-11.992 30.795-16.692 8.25-8.155 12.471-21.394 10.84-33.96-3.453-27.534-1.343-52.764 5.852-71.183 1.44-3.55 1.727-5.468 1.056-6.907-.864-1.919-2.11-2.11-20.914-3.262-11.032-.672-22.16-1.535-24.846-2.015-8.538-1.535-14.678-1.15-16.693.864z"/></g></svg>