<svg version="1.0" xmlns="http://www.w3.org/2000/svg" width="682.667" height="682.667" viewBox="0 0 512 512"><g fill="#f2f2f2"><path d="M235.1 29.4c-1.4 1.6-1.9 6.2-3.1 25-1.4 22.2-.3 23.8 14.1 20.1 6.9-1.8 9.9-3.8 9.9-6.6 0-1-2.7-8-6.1-15.6-9.7-22.1-12.2-26-14.8-22.9zM300 39.5c-1 2.7-.9 4 4 54 3.9 39.4 3.7 38.1 6.8 41.6 9.2 10.1 43.3-1.2 40.6-13.6-.6-2.6-27.9-51.5-41.6-74.3-5.8-9.6-8.3-11.6-9.8-7.7zm-161.5.5c-.9 1.5.7 6.7 15.8 50.9 8.9 26.1 14.9 42.4 16.4 44.2 9.2 10.9 28.9-6.2 30.1-26.2.5-7.9 3.6-3.7-31.1-41.2-26.8-28.8-29.2-30.9-31.2-27.7zm284.8 1.2c-3 3.3-14 21.8-14.8 25-1 3.9.7 6.1 7.3 9.6 6.9 3.7 10.7 4.1 12.2 1.3 1.1-2.1 1.4-33.8.4-36.5-.9-2.2-2.7-2-5.1.6z"/><path d="M355.3 83.1c-.7.7-1.3 2-1.3 2.8 0 .9 3.4 7.7 7.5 15.1 8.1 14.6 9.1 17.6 8.2 25.2-1.5 12.3-13 23.2-31.2 29.4-10.8 3.7-24.5 3.9-32 .6-8.3-3.8-14.3-10.8-15.9-18.7-.3-1.7-1.5-12.2-2.6-23.5s-2.3-21.3-2.6-22.2c-1-3.2-3.5-4.8-7.4-4.8-7.2 0-41.6 7.8-52.2 11.9-3.9 1.5-5.4 4.6-6.7 13.3-2.7 19-13.3 34.7-28.6 41.9-12.4 6-26.8 2.9-34.2-7.1-6.5-8.8-8-10.2-10.5-9.5-3 .9-18.5 12.7-27.4 20.9-9.6 8.8-10.4 10.8-7 18.8 4.9 11.9 5.7 20.4 3 33.6-3.1 15.6-11.4 28.1-22.1 33.4-5.2 2.5-13.8 3-23.9 1.4-4.8-.8-5.3-.7-6.8 1.5-.8 1.4-2.5 6.4-3.6 11.3-12.9 54.1 0 110.7 36.1 158.5 13.2 17.6 18.6 21.6 20.9 15.6 1-2.7 4-29.4 4-36.2 0-5.5-.8-7.1-8.1-15.5-10.7-12.4-18.9-26.2-18.9-31.7 0-3.6 3.4-6.6 8.5-7.5 4.7-.9 7 .5 11.2 7.2 14 22.2 29.9 37 63.1 58.9 9.5 6.3 17.9 12.5 18.8 13.8 1.4 2.2 1.4 2.7-.2 6-2.2 4.6-19.2 22.5-30.4 31.9-4.7 4-14 11.3-20.6 16.3-12.3 9.3-14.3 11.5-12.4 13.9 1.7 2 8.7 2.3 80.5 3.5 69.2 1.1 75.1.9 71.4-2.5-5.6-5.4-35.8-10.1-75.4-11.7-32-1.2-35.4-1.6-36.2-3.5-.8-2.2 1.7-4.5 13-11.4 24.9-15.5 51.7-38.4 51.7-44.3 0-5.2-14.4-24-29.7-38.8-10.8-10.5-22.1-19.3-35.1-27.2-9.5-5.8-12.5-9-11.6-12.1.4-1.2 3.4-5.9 6.9-10.6 19.4-26.4 35.4-54.6 41.5-72.8 1.6-4.8 4.5-16.6 6.5-26.2 4.1-19.7 5.4-23.3 8.6-25 2.7-1.5 8.7 0 11.3 2.9 2.1 2.3 1.9 5-1.4 19.6-5.2 22.2-1.9 60.2 6 70.2 1.1 1.5 11.1 11.1 22.3 21.5 11.1 10.4 21.2 20.3 22.5 22.1 1.2 1.8 4.3 9.6 6.7 17.3 5.7 18 7.3 19.6 11.5 11.3 1.2-2.2 3-4.1 4.3-4.4 1.4-.4 6.6 1.1 13.9 3.9 11.7 4.6 17.8 5.7 17.8 3.3 0-.7-2.6-4.4-5.7-8.1-7-8.1-10.3-12.6-10.3-13.8 0-1.4 3.8-4.1 8.1-5.7 9-3.4 5.6-5.6-11.4-7.7-7.2-.9-13.4-2.2-15.2-3.2-3.9-2.3-34.3-37.7-35.2-41-.3-1.5.4-5.4 2-10.2 3.6-10.6 4.9-19.6 4.5-32.2-.3-12.1.2-13.3 6.7-14.8 4.4-1 7.9.1 9.4 2.9.6 1.1 1.5 6.1 2.1 11.2.6 6.2 1.5 10.1 2.7 11.7 1.2 1.6 9 5.5 23.8 11.8 36.3 15.6 49.3 19.4 65.9 19.4 15.1 0 22.1-3.1 34.4-15 10.3-10.1 8.4-12.3-11.8-14.1-8.1-.7-21.6-1-33.5-.7-11 .3-20.6.3-21.3.1-1.9-.7-4.2-5.8-4.2-9.1 0-5.8 2.4-7.2 14-8.4 13.2-1.3 49.1-.4 62.5 1.6 15.4 2.4 18.2 2.2 21.5-1.4 4.4-4.7 13.7-24.4 16.5-35 9.6-35.6-1.2-73.5-28.8-101.1-12.5-12.5-30.4-23.4-45.2-27.5-8-2.2-31.5-3.1-33.2-1.3zm-265 19.6c-.8 2.1.5 6.9 6.3 22.8 7 18.9 9 20.2 18.4 11.8 7.2-6.5 7-8.3-2.7-18.5-8.3-8.6-18.8-17.8-20.4-17.8-.5 0-1.2.7-1.6 1.7z"/><path d="M51 147.7c0 3.1 16.8 60 21.6 73.1 2.6 7.1 7.8 9.1 14.1 5.3 4.6-2.8 9-12.6 10.4-23.1 1.8-13.7 1.5-14.3-17.4-34.2C63.4 151.7 54.9 144 52.4 144c-.9 0-1.4 1.2-1.4 3.7zm158.8 149c-.9 1-4 5.8-7 10.8-3 4.9-8.3 13.2-11.6 18.4-3.9 5.9-6.2 10.4-6.2 12.2 0 3 .6 3.6 16.5 16 10.8 8.4 35 32.8 40.9 41.2 8.8 12.3 13.6 21.7 13.6 26.3 0 3.7-.7 4.9-6.2 11.1-3.5 3.8-10.2 10.7-15 15.2-9.6 9-11.1 12.5-6.2 13.7 4.9 1.3 11.4-.4 22.8-5.9 19.1-9.2 29.9-17.5 34.2-26.3 2.7-5.4 2.7-5.9 1.5-11.8-1.6-7.8-7.8-21-13.7-29.3-9.7-13.5-25-26.8-45.6-39.5-13.1-8-13.4-8.6-11.9-19.6 2-14.4 2-15 1.1-23.4-1.2-10.4-3.5-13.3-7.2-9.1zm156 16c-3.8.9-1.7 4.7 8.5 15.2 14.3 14.7 16.2 17.2 18.2 23.3 1 2.9 3.1 8.6 4.7 12.5 3.7 9 5.7 9.6 9 2.5 3.4-7 5.6-6.8 20.9 1.2 6.8 3.5 13.5 6.6 14.9 6.8 4.8.6 3.6-3.3-4-13.3-10.1-13.3-10.1-14.5-1-19.1 9.1-4.7 6.6-6-16.9-8.6-19.1-2.1-19-2.1-24.7-10.9-5.1-7.9-5.8-8.2-23.9-9.7-2.2-.2-4.8-.1-5.7.1z"/></g></svg>