<svg xmlns="http://www.w3.org/2000/svg" viewBox="0 0 512 512" height="682.667" width="682.667" version="1.0"><g fill="#f2f2f2"><path d="M239.643 39.928c-47.216 3.272-88.87 14.067-129.217 33.477-17.556 8.505-22.79 12.104-23.88 16.575-.655 2.508 5.015 79.82 6.542 88.653.872 5.125 4.907 8.832 9.596 8.832 5.016 0 6.433-2.18 9.487-15.266 7.415-32.386 22.245-59.538 44.599-81.783 18.755-18.865 41.218-31.841 66.19-38.384 11.667-3.053 14.502-3.38 30.314-3.49 13.085-.108 19.737.437 26.716 1.854 29.55 6.325 51.36 18.32 73.06 40.02 23.88 23.88 39.037 52.014 45.689 85.163 1.309 6.216 2.617 12.431 2.835 13.849.327 1.308 1.745 2.944 3.162 3.598 3.708 1.745 6.87-.327 8.179-5.343.545-2.18 2.835-27.26 5.125-55.612l4.144-51.47-2.29-3.053c-1.418-1.853-6.543-4.906-14.612-8.505-33.586-15.157-73.823-25.407-112.752-28.788-11.995-.981-40.892-1.2-52.887-.327zM461.33 108.19c-1.526 3.38-6.433 64.772-5.452 68.589.436 1.635 1.745 3.271 2.944 3.598 1.309.436 8.724-.872 16.575-2.726 18.756-4.58 21.918-3.707 17.665 4.69-1.962 3.816-18.21 27.587-32.713 47.76-5.016 7.088-9.596 14.067-10.25 15.594-.763 2.072-18.538 212.636-18.538 219.942 0 .654 1.2 2.29 2.726 3.708l2.618 47.726h73.278l2.616-47.726 2.726-2.617V310.14c0-136.742-.218-157.024-1.635-160.513-2.617-6.216-29.333-32.277-42.746-41.546-4.47-3.162-8.396-3.162-9.814.109zM37.257 121.82c-6.215 4.58-30.86 30.533-35.875 37.839l-4.362 6.215-.327 150.482-.218 150.372 2.617 2.617 2.726 47.726h33.258c18.647 0 34.458-.436 35.985-1.09 1.636-.546 3.053-47.182 3.49-49.035.872-3.38-16.466-224.85-18.211-232.81-.872-3.598-4.362-9.596-12.54-21.264-16.793-23.662-25.517-37.729-25.517-41.11 0-2.507.437-2.834 3.708-2.834 2.072 0 8.07.981 13.303 2.29 11.014 2.617 14.285 2.18 15.376-1.963.872-3.926-2.508-45.472-4.035-48.307-1.636-3.053-4.362-2.726-9.378.872z"/><path d="M175.634 141.34c-1.744 1.744-7.85 8.287-13.303 14.72-7.524 8.833-10.686 11.777-12.65 11.777-2.943 0-3.489-.654-6.542-8.178-4.144-10.36-8.396-6.216-13.303 13.085-1.309 5.343-2.944 14.94-3.599 21.264-2.18 21.263-2.18 21.154-10.577 16.902-2.944-1.527-16.248-5.453-29.66-8.833-24.753-6.324-27.37-6.543-28.243-2.399-.763 3.926 24.208 36.203 41.22 53.214 12.103 12.104 21.808 18.973 30.423 21.372 7.306 2.072 10.359 4.69 13.957 11.886 7.306 14.285 20.719 31.078 33.259 41.546 15.048 12.54 20.282 14.83 23.99 10.468.98-.981 2.835-5.56 4.143-10.032 5.234-18.21 13.522-43.29 21.809-66.517 4.798-13.521 8.724-25.952 8.724-27.588 0-4.035-4.144-7.742-10.687-9.596-8.178-2.399-29.115-1.854-42.527 1.09-10.36 2.181-11.559 2.29-13.849.764-5.56-3.708-6.433-10.468-1.635-13.849 4.47-3.271 23.226-6.433 37.838-6.433 21.046 0 35.876 4.907 45.035 14.83 5.78 6.324 6.434 9.268 3.272 17.338-14.94 39.147-39.474 124.42-39.474 136.96 0 12.649 7.96 20.282 24.207 22.79 18.756 2.944 46.235-.437 60.847-7.306 8.615-4.035 11.668-9.16 11.45-19.52-.11-8.396-4.035-21.154-22.027-70.66-11.45-31.84-13.74-40.783-13.74-54.74 0-11.559.11-12.322 3.054-16.357 7.087-10.032 30.314-24.644 44.272-27.697 14.502-3.38 28.46.872 38.274 11.668 4.58 5.016 5.561 6.651 5.234 9.487-.327 2.835-.981 3.598-4.907 5.016-5.125 1.744-6.324 1.308-17.12-5.78-4.798-3.053-6.215-3.49-12.649-3.38-5.888 0-8.614.763-15.266 3.925-9.705 4.69-19.737 12.104-22.463 16.575-3.926 6.652-.11 23.336 15.375 65.645 4.362 12.104 8.724 23.444 9.705 25.298 3.817 7.415 8.833 5.343 23.663-9.487 6.87-6.979 12.976-14.503 18.101-22.463 10.25-15.811 11.232-16.902 16.466-16.902 14.72 0 32.386-13.412 57.03-43.617 21.154-25.735 25.407-33.804 18.32-34.677-2.727-.327-30.206 6.107-46.017 10.796-4.907 1.417-8.833 3.49-11.56 5.997-4.36 3.817-5.997 4.471-7.196 2.617-.436-.654-1.09-8.614-1.636-17.774-.545-9.16-1.744-20.282-2.726-24.753-3.38-16.248-9.814-31.95-13.085-32.059-.545-.109-1.2 2.835-1.418 6.434-.327 6.978-1.526 9.268-4.689 9.268-1.09 0-9.16-5.452-18.101-11.994-8.833-6.652-17.229-12.322-18.647-12.759-4.58-1.09-5.125.873-4.58 15.812.982 25.952.655 27.479-4.252 25.843-1.309-.436-10.25-8.069-19.737-17.01-14.394-13.522-17.992-16.248-20.719-16.248-3.816 0-4.58 1.308-12.649 22.136-2.944 7.742-6.215 14.939-7.306 16.138-1.853 1.963-2.29 2.072-4.361.764-1.309-.873-5.78-8.397-10.033-16.793-9.923-19.955-10.795-21.155-14.611-21.155-2.4 0-5.344 2.4-15.485 12.758-12.649 13.086-16.793 16.684-19.3 16.684-2.29 0-4.144-6.106-6.216-20.173-1.963-12.976-3.053-16.684-5.343-18.21-1.745-1.2-2.072-1.09-5.78 2.071zm29.442 95.631c1.963.764 4.471 2.508 5.562 3.817 2.071 2.29 2.071 2.399 0 5.234-4.362 5.78-14.394 7.306-22.245 3.271-5.235-2.617-6.761-5.997-4.144-9.16 3.598-4.361 14.176-5.997 20.827-3.162zm129.218 1.418c1.963 1.526 2.944 3.162 2.944 5.343 0 2.617-.763 3.598-4.907 5.561-2.617 1.418-6.543 2.508-8.724 2.508-5.56 0-13.521-4.252-13.957-7.415-.764-5.452 5.888-9.16 15.375-8.614 4.144.218 7.197 1.09 9.269 2.617z"/><path d="M102.575 287.459c-.436 1.744 2.508 42.745 6.433 91.27l7.197 88.326 2.835 47.508 2.945 2.508h130.744c76.44 0 131.834-.436 133.36-.982 1.418-.545 3.163-47.399 3.817-49.143 2.072-5.016 14.83-167.056 13.413-170.11-.763-1.526-2.072-2.507-3.708-2.507-3.053 0-17.883 4.907-19.955 6.651-.763.655-4.689 5.67-8.614 11.232-7.96 11.34-23.445 27.152-34.567 35.548-4.035 3.054-7.851 6.434-8.506 7.524-.545 1.2-1.09 6.325-1.09 11.34 0 16.467-2.726 25.3-10.032 32.605-7.742 7.742-21.591 12.976-41.982 15.594-39.474 5.234-66.19-2.509-75.568-21.81-2.726-5.56-4.58-16.901-3.708-21.917 1.09-5.889-1.853-10.468-9.377-14.94-19.192-11.449-37.293-29.005-50.815-49.505-8.505-12.759-8.724-12.977-17.338-17.448-10.577-5.56-14.394-5.997-15.484-1.744z"/></g></svg>