<svg version="1.0" xmlns="http://www.w3.org/2000/svg" width="682.667" height="682.667" viewBox="0 0 512 512"><g fill="#f2f2f2"><path d="M188 113.8c-2.3 1.9-2.3 2-2.1 26.1.1 13.4.6 25.4 1.1 26.7 1.4 3.5 5.1 4 14.2 1.5 22.8-6.1 36.6-14.6 45.7-28.3 6.3-9.3 5.2-13.3-5.1-17.7-19.5-8.3-48.3-12.8-53.8-8.3zm-33.5 2.9c-19.6 4.8-47.3 18.5-52.1 25.8-2.4 3.6-1.1 6.7 5 12.7 11.1 10.9 22.6 15.1 45.7 16.4l10.5.7 2.3-2.9c2.2-2.8 2.3-3.2 1.9-26-.3-21.1-.5-23.4-2.2-25.3-1.9-2.1-6.1-2.6-11.1-1.4zm113.7 25.2c-.7.4-3.4 3.7-6 7.3-2.6 3.6-6.6 8.9-8.9 11.8-2.4 2.8-4.3 6.2-4.3 7.4 0 2.6 16.3 35 19.2 38.2 1.8 2 3.2 2.2 17.1 2.6 13 .4 17.2.9 29 3.8 13 3.2 13.8 3.3 15.5 1.7 1.6-1.7 1.5-2.2-2.1-9.1-10.3-20.1-35.3-50.4-50.9-61.6-4.2-3.1-6.3-3.6-8.6-2.1zM77 168.7c-6.7 9-18 32.1-22.6 46-3.9 11.9-4 15.7-.4 16.6 2.7.7 25.1-4.5 28.1-6.5 1.5-.9 4.2-5.6 7.2-12.5 2.6-6 6.9-14.7 9.6-19.4 2.6-4.6 5.1-9.4 5.5-10.6 1-3.1-.9-5.9-9.1-13.6-9.8-9.1-11.5-9.1-18.3 0zm141 13c-3.6 1.4-11.4 3.6-17.5 4.9-14 3.1-15.3 3.8-16.6 8.8-1.7 6.2-.7 56.1 1.2 60.1 2 4.2 5.5 4.3 13.7.5 9.7-4.5 14.9-8 32.2-21.9 17.8-14.2 19-15.4 19-19 0-3-13.4-30.1-16.7-33.7-2.8-3.1-6.7-3-15.3.3zm-94.2 7.2c-5.3 4.2-18.8 28.9-18.8 34.4 0 3.3 2 4.8 13 9.9 5.2 2.4 15.1 7.7 21.9 11.7 16.1 9.5 20.5 11.5 23 10.2 1-.6 2.1-1.6 2.3-2.3.2-.7.2-14.2-.1-30-.5-24.8-.8-29-2.2-30.4-1.2-1.1-5.4-2-14-3-6.8-.8-14.6-1.7-17.4-2-4.1-.5-5.5-.2-7.7 1.5zM426 209.4c-7.6 2.2-13.2 5.6-18.7 11.4-6.7 6.9-13.3 16.7-13.3 19.6 0 1.2 1.3 6 2.8 10.7 3.5 10.3 5.2 18.8 6 30.9.9 12.2 1.8 12.9 11.7 9.4 4.1-1.4 8.1-2.3 9.8-2 1.5.3 6.8 3.5 11.7 7 18.6 13.4 25.4 16.3 34.4 15.1 13.2-1.7 21.6-10.3 21.6-22.1 0-11.1-7.6-39.8-13.9-52.1-5.6-11.2-16.4-21.6-27.3-26.3-6.4-2.8-18.1-3.6-24.8-1.6zm22.6 21.5c4.3 2 7.8 6 8.9 10.3 2.4 9.5-13.7 11.2-23.2 2.5-4.6-4.2-1.5-12.7 5-14 4.1-.8 5.2-.7 9.3 1.2zm-167.8-2.2c-1 1.1-1.8 2.7-1.8 3.6 0 .9 2.2 8.3 4.9 16.4 2.7 8.1 6.2 20.8 7.9 28.2 1.6 7.3 3.7 14 4.5 14.9.9.8 2.9 1.5 4.6 1.4 4.6-.1 25.1-9.1 29.1-12.8l3.5-3.2.6-16c.3-8.7.9-16.4 1.3-17 1.5-2.5-1.7-6.2-7.3-8.3-10.2-3.8-28.5-8-37.1-8.6-7.6-.5-8.7-.3-10.2 1.4zM253.2 240c-1.8 1.1-8.6 6.3-15 11.4-15.2 12.2-27.1 19.6-38.7 24.1-5.2 2-9.9 4.3-10.6 5.1-1.3 1.6-1.3 10.2 0 19.9.8 5.7 1.5 7.4 3.7 9.4 2.7 2.2 3.2 2.3 13.8 1.7 25.3-1.6 57.7-6.3 65.3-9.6 5.4-2.4 6-4.6 3.9-15.2-4.1-20.5-12.2-44.7-15.9-47.3-2.7-1.9-2.5-1.9-6.5.5z"/><path d="M359.3 242c-5.6 3.4-6.6 6.7-7.3 24-.8 23.1-2.7 26.2-22.5 35.6-26.9 12.8-57.5 21.2-95 26-16.6 2.1-69.3 3-89.4 1.5-32-2.5-66.7-8.1-99.9-16.2-10.7-2.6-17.4-3.8-19.3-3.4-6.5 1.4-8 10-2.8 15.9 3.6 4.1 8 5.9 30.9 12.6 29.2 8.4 57.3 14 86.5 17.2 18.5 2 69.5 1.7 87-.6 49-6.2 88.6-18.1 131.2-39.2 19.7-9.8 23.4-12.9 25.2-21.3 1.5-7 1.4-12.2-.4-22.4-2.2-12.6-6.1-22.2-11-27.4-4.8-4.9-8-5.5-13.2-2.3zm-298.6 7.5c-10.9 3-14.3 4.8-16.1 8.3-1.6 3.1-4.6 20.8-4.6 27.1 0 7.3 1.4 8.5 13.6 11.6 12.8 3.1 15.5 1.8 16.8-8 .4-2.8 1.8-11.6 3.2-19.7 1.3-8.1 2.4-15.6 2.4-16.5-.1-5.1-4.1-5.9-15.3-2.8z"/><path d="M96.6 249.2c-1.7 2.8-4 13.1-6.6 30.3-3.3 21.6-2.9 23.4 6 25.4 7.6 1.6 36.6 5 53.1 6.1 17.3 1.2 20.4.7 21.5-3.5.8-3.3-1.3-22.7-2.8-26.1-1-2.2-5.2-4.7-14.8-8.6-1.9-.8-11.1-5.9-20.4-11.2-26.2-15.1-32.8-17.4-36-12.4zM315 353.1c-3 1.1-12.4 4-20.9 6.5-17.1 4.9-19.6 6.3-18.7 10.8 1.4 6.8 11.7 20.4 18.5 24.4 4 2.4 5.6 2.7 12.6 2.6 9-.2 38.3-3.9 43.3-5.5 5.8-1.9 4.9-4.3-5.7-15.6-5.6-5.8-10.2-11.8-12.5-16.3-5.1-9.7-6.8-10.4-16.6-6.9zM59.4 364.2c-1.7 1.8-4.8 5.5-6.9 8.2-2.1 2.7-6.2 7.5-9.2 10.6-2.9 3.2-5.3 6.7-5.3 7.9 0 5.3 12.5 8.4 34.7 8.5 19.6.1 19.7.1 26.6-13.3 4.8-9.4 5.9-14.9 3.3-17-1.7-1.4-31.9-8.1-36.6-8.1-2.8 0-4.3.7-6.6 3.2z"/></g></svg>