<svg version="1.0" xmlns="http://www.w3.org/2000/svg" width="682.667" height="682.667" viewBox="0 0 512 512"><g fill="#f2f2f2"><path d="M214.8 20c-60.6 4.4-94 22.4-106.6 57.4-6.8 18.7-9.8 46.1-8.8 79.6.6 22.1 1.5 27.1 4.9 29.5 4.7 3.3 8.1 1 11.2-7.7 1.6-4.5 1.9-8.2 1.9-23.7.1-18.1.1-18.3 2.5-20 6.1-4.2 8.1-6.9 8.1-11 0-3.2-.8-4.9-4.1-8.7-3.5-4-4-5.2-3.5-7.8 1-4.9 2.8-5.9 11.7-6.5 9.5-.8 11.9-2.6 11.9-9.3 0-4.6-3.5-8.8-7.4-8.8-1.4 0-3.6-.4-5-1-7.9-3 2.6-18.2 19.4-28 19.3-11.3 40.9-16.1 73.2-16.4 15.5-.1 15.8-.1 18.2 2.4 1.3 1.4 4 7.1 6 12.8 4.5 12.9 5.2 14.2 7.6 14.2 2.4 0 3.1-1.3 7.6-14.2 2-5.7 4.6-11.3 5.7-12.5 3-3.3 7-3.7 25.3-2.4 36.2 2.5 58.1 8.8 74.9 21.4C377.7 65.5 383 73 383 78.5c0 2.7-2.9 4.5-7.6 4.5-3.9 0-7.4 4.2-7.4 8.8 0 6.7 2.4 8.5 11.9 9.3 8.9.6 10.7 1.6 11.7 6.5.5 2.6 0 3.8-3.5 7.8-3.3 3.8-4.1 5.5-4.1 8.7 0 4.1 2 6.8 8.1 11 2.4 1.7 2.4 1.8 2.4 20 .1 19.5 1.3 26.2 5.8 31 2.5 2.7 6.5 2.1 9-1.3 5-6.8 4.8-60.5-.4-88.1-4.1-22-12.2-37.9-24.2-47.9-17.7-14.5-38.6-23.1-66.5-27.4-12.5-1.8-83.5-2.8-103.4-1.4z"/><path d="M174 144.4c-25 7-43 32.6-50.1 71.1-1.8 9.3-2.2 16.7-2.6 47.2-.5 31.3-.3 37.2 1.1 43.6 3.1 13.6 10.2 23.1 30 39.6 8 6.8 14.1 12.7 15 14.6 1.4 2.8 1.6 9.2 1.6 44.2v40.9l2.6 5.3c3.1 6.2 9.2 11.1 20.9 17 15.2 7.6 36.3 13.3 54.5 14.6 10.1.8 34.7-2.1 51-6.1 21.5-5.2 40.7-17.5 43.8-28 .8-2.9 1.2-15.9 1.2-44.4 0-34.6.2-40.7 1.6-43.5.9-2 7.8-8.9 16.3-16.3 15.7-13.8 23.7-23.2 27.4-32.2 2.1-5.4 2.2-6.4 2.2-43 0-39.9-.6-47.5-5.1-65.4-6.8-27.3-20.2-46.4-38.9-55.7-8-4-9.1-4.3-18.8-4.7-8.1-.3-12 0-19 1.7-9.6 2.3-25.8 8.4-40.2 15.1-5.1 2.4-10.5 4.2-12.5 4.2-2.3.1-8.8-2.3-18-6.5-17.7-7.9-26.4-11.1-36.3-13.1-8.9-1.9-21.4-1.9-27.7-.2zm37.3 98.5c34.8 34.8 34.1 33.7 29.2 40.9-1.8 2.6-2.5 5-2.5 8.4 0 7-1.7 7.8-16.5 7.8-6.6 0-13-.3-14.2-.6-3.1-.8-3.6-3.4-1.7-8 1.1-2.5 1.5-5.6 1.2-9.2-.4-4.5-1-5.9-4.2-9-3.5-3.6-3.9-3.7-10.6-3.7-6.7 0-7.1.1-10.7 3.7-3.2 3.3-3.7 4.4-4.1 9.6-.3 4.2.1 6.8 1.2 9.1 2 3.8 1.4 6.7-1.7 7.5-3.6.9-25.4.7-28.1-.4-3.7-1.4-4.2-5-1.6-12.3 5.7-15.9 18.1-28.3 32.5-32.6 11.6-3.6 12.3-5.4 4.5-13.1-7.4-7.5-8.8-7.2-20.9 4.5-11.4 10.9-13.4 11.5-18.8 6.3-6-5.8-5.3-7.1 12-24.6 8.3-8.5 16.1-15.8 17.2-16.2 1.1-.5 2.9-.6 4-.3 1.1.2 16.3 14.7 33.8 32.2zm144-16c17.7 17.7 18.3 18.9 12.5 24.8-5.3 5.5-7.4 4.8-18.9-6.2-12.1-11.7-13.5-12-20.9-4.5-7.8 7.7-7.1 9.5 4.5 13.1 14.4 4.3 26.8 16.7 32.5 32.6 2.6 7.3 2.1 10.9-1.6 12.3-2.7 1.1-24.5 1.3-28.1.4-3.1-.8-3.6-3.4-1.7-8 1.1-2.5 1.5-5.6 1.2-9.2-.4-4.5-1-5.9-4.2-9-3.5-3.6-3.9-3.7-10.6-3.7-6.7 0-7.1.1-10.7 3.7-3.2 3.3-3.7 4.4-4.1 9.6-.3 4.2.1 6.8 1.2 9.1 2 3.8 1.4 6.7-1.7 7.5-1.2.3-7.6.6-14.2.6-14.8 0-16.5-.8-16.5-7.8 0-3.4-.7-5.8-2.5-8.4-4.8-7.2-5.5-6.2 28.8-40.6 17.1-17.3 32.1-31.8 33.2-32.2 1.1-.5 2.9-.6 4-.3 1.1.2 9.1 7.5 17.8 16.2zM238.6 347.1c14 9 19.5 9 34.6.2 7.9-4.6 11-4.3 15.1 1.7 2.8 4 2.2 7.5-1.9 10.8-5.1 4.3-19.1 11-25 12.1-6.8 1.3-15.9-.6-25.2-5.3-14.3-7.2-17.5-12.8-11.1-19.4 4-4.1 7.1-4.1 13.5-.1zm-33.4 49.5c7.7 6.5 6.7 6.4 51.3 6.4 44.9 0 43.1.2 50.8-6.6 4.8-4.4 8.1-4.4 12.4-.2 5.1 4.9 4.5 7.7-2.9 15.4-3.4 3.6-8.3 7.7-11 9.1-5.2 2.8-6 4.1-10.7 17.6-3.9 11.2-4.8 12.7-7.1 12.7-2.4 0-3.1-1.3-7.6-14.2-2.5-7.1-4.5-11.2-6.5-13.1C271 421 271 421 256 421c-15 0-15 0-17.9 2.7-2 1.9-4 6-6.5 13.1-4.5 12.9-5.2 14.2-7.6 14.2-2.3 0-3.2-1.5-7.1-12.7-4.7-13.4-5.4-14.5-11.2-18-7.1-4.3-16.7-14.4-16.7-17.7 0-1.4 1.4-4.1 3.1-6.1 4.1-4.7 7.4-4.6 13.1.1zm-145-210.4c-4.2 4.2 5 47.9 16.5 78.8 4.5 12.2 13.4 29.6 17.2 33.7 3.3 3.6 6.5 4.2 8 1.5.5-.9 1.1-17.9 1.5-37.7.3-19.8.9-38.9 1.5-42.4 1.3-9.3.3-11.3-8.3-16.3-3.9-2.3-10.9-6.6-15.6-9.6-13.2-8.6-18.3-10.5-20.8-8zm383.3.7c-2.2 1-8.5 4.7-14 8.3-5.5 3.5-12.4 7.7-15.4 9.4-7 3.7-8.3 6.6-7 15.4.5 3.6 1.2 22.7 1.5 42.5.4 19.8 1 36.8 1.5 37.7 1.5 2.7 4.7 2.1 8-1.5 4.2-4.4 15-26.8 19.8-40.9 7.5-22 15.1-55 15.1-65.6 0-7.4-2.2-8.6-9.5-5.3z"/><path d="M112.1 338.8c-6.5 1-78.8 34.1-81.7 37.4-1.4 1.4-1.6 2.3-.8 3.6.6.9 7.2 4.9 14.8 8.9 38.6 20.2 63.3 41 80 67.6 5 8 8.8 16.6 13.2 29.7 2.8 8.1 2.8 8.1 30.6 7.8 31.1-.4 31.9-1 13.8-10.8-13.4-7.2-22.8-15.8-27.2-24.8l-3.3-6.7-.5-41c-.4-34.1-.8-41.4-2-43.3-.8-1.3-4.9-5.1-9-8.5-4.1-3.4-10.4-9-14.1-12.4-6.9-6.6-9.9-8.1-13.8-7.5zm282.2.7c-1.5.7-3.9 2.5-5.3 4s-7.2 6.8-13 11.7c-16.1 13.8-14.4 7.5-15 55.3l-.5 41-3.3 6.7c-4.2 8.7-13.8 17.5-26.6 24.7-17.6 9.8-16.7 10.5 13.7 10.9 17.5.2 23.8-.1 25.7-1.1 2-1 3.3-3.5 6.1-11.7 4.2-12.4 6.4-16.8 13.4-27.5 16.4-25.1 40.7-45.3 78.1-64.8 7.6-4 14.2-8 14.8-8.9.8-1.3.6-2.2-.8-3.6-3-3.4-74.6-36.1-81.8-37.4-1.4-.3-3.9.1-5.5.7z"/></g></svg>