<svg version="1.0" xmlns="http://www.w3.org/2000/svg" width="682.667" height="682.667" viewBox="0 0 512 512"><path d="M258.6 32.2c-.7 1.3-3.3 8.8-5.6 16.8-8.5 29.4-20.9 58.1-35.9 82.9-13.3 21.9-25.1 37.5-52.5 68.9-36.7 42.2-47.5 58.7-56.6 86.1-5.9 17.7-7.4 28.3-7.4 51.1 0 21.7 1.5 31.6 7.5 48.7 18.7 53.2 69.2 94.4 128 104.4 17.6 3 41.2 2.4 58.4-1.5 62.8-14.4 110-60.4 121.7-119.1 2.8-14 2.8-38.4-.1-54.9-4.8-27.5-16.7-53-37.3-80.5-3.9-5.2-15.2-19.6-25-32-26.7-33.3-39.5-51.9-53.1-76.6-12.4-22.4-23.5-49.4-31.8-77-5.9-19.7-7.3-22-10.3-17.3zm-77.9 210.9c16.1 16.6 29 26.5 51.2 39.4 5.7 3.3 10.9 6.8 11.5 7.7 1.7 2.7-.2 4.9-7.3 8.4-9.6 4.8-19.2 6.7-31.3 6.2-9-.3-11.1-.7-17.1-3.5-12.9-6.1-21.4-16.9-25.3-32.3-2-7.9-1.6-31 .5-35 3.1-5.6 3.8-5.2 17.8 9.1zm172.3-9.4c2.1 4.6 2.6 27.6.6 35.3-3.9 15.4-12.4 26.2-25.3 32.3-12.7 5.9-33.4 4.8-48.3-2.6-7.2-3.6-9.1-5.7-7.4-8.5.6-.9 5.8-4.4 11.5-7.7 22.3-13 35-22.7 51.7-39.9 12.3-12.5 14.8-13.8 17.2-8.9zm-217.7 94.6c9.5 8.2 17.9 14.1 27.8 19.8 5 2.9 9.8 6.3 10.8 7.6 1.1 1.3 2.4 5.3 3 8.9 2.7 15.5 13.5 35.4 19.2 35.4 2.3 0 2.6-1.3 3.9-14.5 1.3-12.8 3.2-17.9 7.1-18.3 1.5-.2 7.5.6 13.3 1.7 24.3 4.7 53.5 4.9 76.6.5 4.5-.8 9.8-1.4 11.8-1.2 5.1.4 6.8 4.3 8.1 18.6.6 6.2 1.3 11.7 1.6 12.3 3.7 5.9 16.2-13 20.6-31.1 1.1-4.7 2.7-9.5 3.4-10.6.8-1.2 5.6-4.4 10.7-7.2 10.3-5.5 21.6-13.4 31.5-21.8 3.5-3 7.3-5.4 8.3-5.4 3 0 3.6 4.5 1.6 14-5.3 25.9-17.1 47.6-36.6 67-13.9 14-33.7 26.8-47.7 31-5.7 1.7-8.5-.1-10.8-7.2-6.5-20-9.2-19.8-15.7.9-4 12.9-5.3 14.2-15.6 15.4-10.6 1.2-23.7-.2-26.3-2.8-1-1-3.8-7.4-6.1-14.2-4.7-13.7-6.7-16.1-9.8-12.3-1 1.2-3 5.8-4.5 10.3-3.3 10-5.5 11.8-11.8 9.9-7.6-2.2-24-11.3-33.9-18.7-26.3-19.9-45.4-50.5-50.8-81.6-2.3-13.1.4-14.7 10.3-6.4z" fill="#f2f2f2"/></svg>