<svg xmlns="http://www.w3.org/2000/svg" viewBox="0 0 512 512" height="682.667" width="682.667" version="1.0"><path d="M329.68 69.887c-15.545 2.81-30.344 14.138-37.207 28.524-3.06 6.532-5.209 15.214-5.209 21.58 0 5.457-1.901 7.937-7.854 10.17-11.824 4.464-22.903 11.575-30.923 19.843-7.524 7.855-19.76 27.45-34.726 55.644-3.307 6.201-7.193 12.32-8.681 13.725-1.406 1.323-14.47 11.493-29.021 22.489-28.773 21.828-31.832 24.39-31.832 26.54 0 1.406 4.217 3.225 7.524 3.225.661 0 1.984.496 2.811 1.158 1.488 1.074 1.488 1.157-.496 3.059-1.075 1.157-11.658 7.028-23.481 13.063-23.068 11.906-26.045 13.643-26.045 15.379 0 2.067 3.39 2.315 21.58 1.653 18.107-.578 21.414-.33 21.414 1.571 0 1.24-4.3 5.292-9.095 8.516-4.878 3.308-6.945 5.705-6.366 7.276.413.992 2.232 1.24 9.839 1.24 5.126 0 9.756.331 10.252.662 3.142 2.15.91 7.359-4.547 10.748-2.067 1.323-19.43 10.914-38.53 21.25-19.098 10.334-37.619 20.504-41.091 22.571-10.749 6.366-9.757 7.937 5.126 8.268 12.071.33 13.394.91 11.244 4.878-.661 1.24-5.705 7.276-11.244 13.395-10.666 11.823-11.989 13.56-11.245 15.46.662 1.737 2.48 1.406 14.056-2.562 5.87-2.067 11.327-3.721 12.071-3.721 2.977 0 3.638 2.315 3.473 10.831-.248 8.93.33 10.17 4.217 8.434.992-.496 22.075-17.529 46.88-37.868 24.803-20.34 45.887-37.537 46.88-38.198 3.554-2.316 6.035-1.158 9.507 4.63 4.465 7.358 6.615 9.756 13.312 14.965l5.953 4.63 11.327 21c6.284 11.576 11.41 21.828 11.41 22.82 0 2.481-2.232 4.135-7.772 5.706-7.524 2.232-16.04 6.035-22.158 10.004-6.367 4.134-7.938 6.2-5.953 8.103 1.157 1.157 6.532 1.322 46.714 1.322 29.765 0 46.053-.33 47.128-.826 2.563-1.406 1.82-3.721-2.48-7.607-5.953-5.374-14.47-9.508-24.97-12.154-6.532-1.736-9.756-2.976-11.079-4.3-1.736-1.818-13.642-23.067-20.174-36.13-3.72-7.442-3.39-8.848 3.638-13.56 15.957-10.914 29.269-29.27 40.927-56.636 2.894-6.698 5.87-13.147 6.697-14.304.744-1.158 5.54-4.63 10.5-7.69 17.032-10.335 24.391-16.618 34.478-29.103 17.859-22.076 32.245-50.931 36.38-72.593 1.405-7.442 1.57-22.407.33-27.864-1.075-4.795-.496-7.028 2.315-8.185 6.284-2.563 29.021-3.39 38.447-1.406 7.027 1.571 13.56 4.63 19.099 9.178 2.48 1.984 5.126 3.72 5.953 3.886 2.48.413 3.886-3.142 3.307-8.434-2.232-20.422-14.221-34.643-36.793-43.49-4.3-1.736-8.681-3.803-9.673-4.712-1.654-1.489-4.879-6.78-12.65-20.836-5.87-10.5-18.438-20.34-30.592-23.894-5.623-1.654-17.198-2.315-22.903-1.323zm43.49 42.415c6.2 4.051 8.35 12.402 4.96 19.347-1.984 4.134-4.878 6.45-9.922 7.772-10.665 2.811-21-7.524-18.107-18.19 2.646-10.087 14.47-14.634 23.068-8.93z" fill="#f2f2f2"/></svg>