<svg version="1.0" xmlns="http://www.w3.org/2000/svg" width="682.667" height="682.667" viewBox="0 0 512 512"><g fill="#f2f2f2"><path d="M382.2 87.4c-2.3.8-6.6 3.2-9.5 5.4-2.9 2.1-6 4.2-7.1 4.6-1.1.4-4.8-.7-9.7-2.9-13.8-6.3-20.5-5.7-38.7 3.3-10.7 5.2-13.8 8.2-12 11.6.6 1.1 1.9 2.7 3 3.4 2.4 1.8 4.8 6.5 4.8 9.7 0 3.8-3.5 5.1-10.6 3.6-7.8-1.5-11.5-3.9-14.4-9.3-5.1-9.2-6.2-9.5-20.9-4.7-5.3 1.7-11.8 3.2-14.6 3.3-4.4.1-5-.1-5.3-2.1-.4-2.5 5.1-8.3 12.2-12.8 2.5-1.6 4.8-3.6 5.1-4.4 1.6-4.2-11-7.9-29.5-8.8-26-1.2-41.3 4.9-51.7 20.7-6.4 9.6-6.6 9.7-10.8 7.7-9.3-4.5-19.5.7-25.9 13-3.6 7.2-1 9.8 9 9 4.6-.3 7.9-1.3 12-3.6 3.1-1.8 6.2-3 6.9-2.7 1.2.4 2.6 3.9 3.9 9.8.9 4 5.4 8.8 8.3 8.8 1.4 0 3.8-.9 5.3-2 4-2.8 10.5-5 15.1-5 2.9 0 4.2.6 5.4 2.3 1.3 2.1 1.3 2.9 0 7.3-2 6.5-1.9 15.3.1 18.2 2.4 3.4 5.9 2.7 13.3-2.7 12.5-9.2 20.3-11.9 35.6-12.2 11.3-.2 11.1-.2 12.4 2.8.6 1.6 3.8 22.1 7.1 45.8 6.9 49.3 6.7 48.4 8.8 50.7 3.2 3.7 12.1.4 12.2-4.5.1-1.2-3.2-18.7-7.2-39-8.8-44.4-8.9-43.9 5.4-37.6 4 1.8 9.3 3.4 11.8 3.7 3.9.3 4.8 0 7-2.3 2.3-2.4 2.5-3.6 2.8-12.6.3-8.8.6-10.1 2.5-11.4 1.2-.8 2.9-1.5 3.9-1.5 3.9 0 13.4 4.5 25.5 12.2 14.5 9.2 19.7 11.7 23.5 11.8 1.4 0 6.4 2 11 4.4 12.9 6.8 19.8 7.1 19.8.8 0-3.4-4.8-11.3-8.5-13.8-8.2-5.8-7.8-4.9-7-16.2.4-5.6 1.3-10.9 2-11.8 1.1-1.6 1.6-1.5 6.7.6 5.4 2.2 5.9 2.2 19.8 1.1 7.8-.6 15.1-1.6 16.1-2.2 1.1-.5 1.9-2 1.9-3.5 0-4.4-8.4-10.5-20-14.4-6.6-2.2-14-2.3-29.1-.4-4.2.5-4.8.3-6.8-2.1-3.7-4.7-2.9-6.2 5.4-10 5.4-2.4 8-4.3 9.5-6.7 2.5-4.1 2.6-9 .1-11.2-2.5-2.3-10.6-2.9-15.9-1.2z"/><path d="M165.4 145c-4.9 2-9.3 10.3-8.2 15.7.6 3.2 4.4 2.7 8.8-1.3 6.7-6.1 8.9-12.3 5.1-14.4-2.3-1.2-2.9-1.2-5.7 0zm-33.9 74.5c-21.5 5-33.4 10.1-40.5 17.1-2.5 2.4-5.3 4.4-6.2 4.4-1 0-3.7-2-6-4.4-3.5-3.5-5.9-4.9-12.4-6.9-14.9-4.7-38.5-6.4-43.3-3.1-2.1 1.5-2.3 2.3-1.8 6.4 1.4 11.4 9.8 26 21.2 36.8 8.2 7.9 16.3 13 27.9 17.7 9.1 3.7 12.2 6.2 13.1 10.8 1.5 6.8 6.9 22.5 9.8 28.2 7.7 15.4 20.3 29.4 35.2 39.1 16.5 10.7 35.5 17.5 61.6 21.8 8.4 1.4 15.7 3 16.2 3.5 1.7 1.7-.2 4.1-4.5 6.1-2.4 1-12.1 4.2-21.6 7-19.6 5.8-24.9 7.9-27.5 10.8-4.1 4.6.3 8.6 11.3 10.3 10.2 1.6 39.5.5 59-2.1s33.3-5.6 55.2-11.9c36.7-10.6 37.6-10.7 58.5-6.1 55.2 12.1 99.4 15 126.2 8.3 8.5-2.1 13.1-6.1 13.1-11.2 0-4.7-2.8-7.5-7.3-7.4-1.7 0-9.3.4-16.7.8-21.2 1.2-52.6-1.8-53.7-5.1-.9-2.7 5.3-3.9 48.4-8.9 31.8-3.8 33.3-4.2 36.1-9.9 2.3-4.6 6-20.7 7.6-33.4 2-15.7 2.1-45.1.2-54.3-3.4-15.9-11.8-25.4-26.8-30-28-8.7-111.7 1.3-171.9 20.7-7.9 2.5-28.3 9.8-45.4 16.1-36.8 13.6-53.2 19.1-67.9 22.8-10.3 2.6-11.5 2.7-19.2 1.6-4.5-.6-10.7-2-13.7-3-18.6-6.4-34.8-19.3-33-26.2.3-1.1 3.4-4 6.8-6.4 18.4-13.2 33.7-37.2 33.9-53.3.1-4.5-.3-5.7-2.3-7.3-3-2.5-7.1-2.3-19.6.6zm232 141.6c.4.5-.1 1.9-1.1 3-2.9 3.2-12.4 2-12.4-1.6 0-.7.6-1.6 1.3-1.8 2.3-1 11.6-.7 12.2.4z"/></g></svg>