<svg xmlns="http://www.w3.org/2000/svg" viewBox="0 0 512 512" height="682.667" width="682.667" version="1.0"><path d="M226.5 37.1c-36 4.3-60.5 10.8-86 23-41.6 20-69.8 49.9-82.4 87.4-5.2 15.4-7 26.9-7 44.5 0 23.2 4.2 40.5 15.1 61.7 7.2 14.2 15.4 26.4 32.6 48.2 30.9 39.5 37.6 53.8 36.5 77-1.1 20.7-11.3 41-26.6 53.1-25.8 20.5-66 23-97.4 6.2-10.1-5.4-11-5-12.1 5.9-.4 4.3-.6 20.6-.5 36.2.4 27.7.4 28.3 2.6 30.5l2.3 2.2H240l6.9-3.8c24.9-13.8 43.7-36.9 53.9-66.3 6.1-17.7 7.2-25.2 7.2-49.9-.1-19-.4-23.4-2.3-32.5-5-23.2-14.9-47.3-26.9-65.5-7.2-11-19.9-26.2-25.8-31.1-7.4-6-26-11.1-49-13.4-15.2-1.5-24.6-2.8-25.2-3.4-1.2-1.2.9-3.6 4.3-5.1 9-3.8 23.4-5.8 40.9-5.9 23.7-.1 38.7 3 55.5 11.4 13.7 6.9 22.3 14.5 31 27.5 11 16.4 24.6 26.4 42 31.1 9.3 2.5 25.1 2.2 35.5-.5 39.5-10.5 72.6-50.2 83.2-100.1 1.4-6.5 1.8-12.7 1.7-26.5 0-16.1-.3-19-2.7-27.7-5.4-20.3-13.6-33.3-30.1-48-11-9.7-21.2-15.5-32.6-18.5-8.6-2.2-23.5-2.2-32 .1-29.8 7.8-56.3 35.5-70.5 73.7-1.9 5.1-4.1 10-5 10.8-3.8 3.7-6.1-5.5-5.2-20.3 1.2-20.3 10.9-40.5 27.8-58.1 10-10.4 18.4-16.7 31.4-23.7 15.1-8 14.4-9.8-6.5-16.6-13.4-4.4-32.3-8.9-48-11.3-10.9-1.7-19-2.2-41.5-2.4-15.4-.2-29.6-.1-31.5.1zm171.2 75.5c4.5 5.3 6.6 29.5 3.9 44.8-1.1 6.3-1.1 7.5.2 8.8 1.3 1.3 1.8 1.3 4.4 0 4.1-2.2 18-17 23.8-25.5 5.1-7.3 7-8.8 10.4-7.7 2.2.7 7.4 10.1 9.1 16.3 1 3.8.9 4.9-1 8.7-2.7 5.6-15.6 18.9-24 24.6-11.5 7.9-8 10.7 13.1 10.8 8.3.1 12.9.5 13.7 1.3 1.8 1.8 1.5 7.2-.9 16-3 11.2-4.5 12.2-16.9 11.5-5.2-.4-12-1.3-15-2.1-10.2-2.6-10.8-2.7-12.4-1-1.4 1.4-1.4 1.9-.1 5.1 2 4.6 7 10.8 15.7 19.1 8.2 8 8.6 9.8 2.8 17.1-6.4 8.1-19.3 18.1-23.3 18.1-2.8 0-5-4.1-10.1-18.8-8.8-25.3-10.2-25.9-16.5-7.1-4.4 13.2-12 30.5-14.2 32.5-4.5 4-15 .1-24.6-9.2-7.6-7.3-7.4-9.3 2.2-20.9 9.7-11.6 18.8-27.8 18.3-32.3-.5-4.3-4-3.9-20.3 2.3-16.1 6.1-18.8 6.3-20.6 1.7-.6-1.5-.9-6.8-.7-12 .5-12.5 1.2-13.1 18.7-17.7 24-6.4 24.4-7.5 6.1-17.4-11.6-6.3-13-7.6-13-11.5 0-3.5 7.5-17.4 11.7-21.8 4.5-4.7 6.7-3.9 18.8 6.7 15 13.2 16.5 12.9 16.5-3.5 0-5.9-.7-14.8-1.6-19.9-1.5-8.5-1.4-9.4.1-11.7 1.8-2.8 6.3-5 14-7 6-1.5 9.4-1 11.7 1.7z" fill="#f2f2f2"/></svg>