<svg version="1.0" xmlns="http://www.w3.org/2000/svg" width="682.667" height="682.667" viewBox="0 0 512 512"><g fill="#f2f2f2"><path d="M255.5 22.9c-7.4 3.1-38.8 29.2-56.5 47-36.2 36.5-59.9 77.1-68 117.1-2.7 13.1-2.6 18.2.3 21.4 2 2.3 41.9 26.3 60.3 36.2 7.4 4 12.4 5.5 12.4 3.6 0-1.8-4.6-7.1-19.6-22.9-8.8-9.2-16.6-17.8-17.2-19-3.6-6.7 2.3-30.7 12.5-50.5 12.2-23.7 32.1-47.3 57.3-67.9 18.7-15.2 21.1-16.2 28.5-11.2 7.9 5.3 24.8 19.7 34.5 29.5 16.9 16.9 28.3 32.4 37.4 50.5 8.4 16.7 15 40.7 13.2 47.8-.5 1.9-5.4 7.8-13.5 16-17.2 17.6-24.1 25.3-24.1 27.1 0 2 3.4 1.7 8.3-.7 6.7-3.4 58.9-33.9 62.4-36.6 4.6-3.3 5-7.2 2.4-21.1-7.8-41.5-31.9-83.1-70.1-121.2-19.3-19.2-49.9-44.1-56-45.4-1.4-.3-3.4-.1-4.5.3z"/><path d="M213.5 167.6c-9.6 5.2-12.1 12-6.4 16.8 7.5 6.3 16.4 7.3 24.9 2.8 9.8-5.2 10.4-10.8 1.6-17.1-4.1-3-5.9-3.6-11-3.8-4.2-.2-7 .2-9.1 1.3zm70.6.1c-5.2 2.6-10.1 7.7-10.1 10.5 0 5.5 9.7 11.7 18.1 11.8 8.9 0 17.9-5.7 17.9-11.4 0-3.6-4-8.1-9.7-11-4.1-2.1-11.9-2-16.2.1zm90.7 78c-.9 1-2.6 4.3-3.9 7.3-4.4 10.4-10.4 19.4-19.7 29.1-10.9 11.4-20.2 18.2-36.7 26.5-17.9 9.1-16.7 12.4 4.4 12.4 12.9 0 25.1-2.4 38-7.4 11.6-4.5 14.1-4.6 14.1-.8 0 5.8-9.8 18.3-21.7 27.8-4.4 3.5-8.4 7.1-8.7 7.9-.3.9.5 2.1 2 3.1 2 1.4 4.1 1.6 12.7 1 5.6-.4 12.3-.9 15-1.2 6.7-.8 8.1.6 7.4 7.2-.3 2.8-2.1 8.7-4.1 12.9-5.5 11.9-3 13 13 6.1 11.3-5 11.9-4.4 11.5 10.4-.5 18.4-3.5 43.8-8.7 74.8-1.9 11.7-3.4 22.4-3.2 23.9.5 4.5 3.6 5.4 18.5 5.1 11.1-.3 13.5-.6 15-2.1 1.7-1.6 1.8-4.3 1.5-37.5-.6-61.9 3.5-97.1 15.9-136 3.4-10.6 3.6-13.7 1.1-17.3-1.5-2.2-35-33.8-52.5-49.7-6.2-5.5-8.5-6.3-10.9-3.5zm-249.1 4c-24.2 22.2-50.5 47.2-51.9 49.3-2.5 3.5-2.3 6.6 1.2 17.2 7.6 24 12.9 53.8 15 84.8.7 9.3 1 31.9.8 51.7-.3 32.7-.2 35.4 1.5 37 1.5 1.5 3.9 1.8 15 2.1 14.9.3 18-.6 18.5-5.1.2-1.4-1-10.7-2.7-20.4-5.8-34.6-9.1-62.9-9.1-79.1 0-13.2.4-13.6 11-9.3 9.4 3.9 14.2 4.5 14.8 1.7.2-1-1.2-5.3-3.1-9.5-4.7-10-5.5-15.8-2.9-19.1l1.9-2.4 9.6 2.2c10.1 2.3 23.5 2.9 26.8 1.2 3.4-1.9 2.2-4.7-3.8-9.2-15.2-11.2-27.5-28.3-21.9-30.4.8-.3 6.3 1 12.3 2.9 14.8 4.8 22.9 6 35.9 5.6 11.1-.4 14.4-1.4 14.4-4.5 0-.7-5.9-4.3-13-8-27.4-13.9-44.5-30.6-55.6-54.2-5.3-11.3-6.7-11.7-14.7-4.5z"/></g></svg>