<svg version="1.0" xmlns="http://www.w3.org/2000/svg" width="682.667" height="682.667" viewBox="0 0 512 512"><path d="M284.7 24.6c-13.7 3-22.9 7.9-24.2 13.1-1.4 5.7-18.9 39.7-22.4 43.6-4.7 5.2-8.5 6.7-17.3 6.7-11.1 0-24.3 3.2-35 8.3-14 6.7-17.5 11.1-9.8 12.3 4.7.8 7.6 2.6 6.6 4.3-.4.6-4.7 3.1-9.5 5.6-8.3 4.1-15.1 8.8-15.1 10.4 0 .4 1.6 1.5 3.5 2.4 1.9.9 3.5 2.3 3.5 3.1 0 .8-3.4 5.2-7.6 9.7-8.6 9.4-14.7 18.1-22.4 31.9-9 16.1-11 19-13.4 19-1.3 0-3.1-.9-4.1-2-4.3-4.7-5.8-2.4-9 13.8-4.2 21-7.4 29-15 36.4-9.2 9.1-22.1 13.7-38.1 13.8-8.6 0-10.4.8-10.4 4.7 0 6 7 13.3 14.9 15.7 12.7 3.8 37.3 2.8 44-1.7 2-1.4 20.3-17.4 40.6-35.7 41-36.7 43.7-38.9 46-37 2 1.7 1.8 2.8-6.2 28-10.7 33.9-11.6 38.2-11.9 61.5-.2 17.3-.5 20.8-2.3 25.9-1.2 3.3-2.1 7-2.1 8.4 0 2.3.1 2.4 5.8 1.7 7.2-.8 7.4-.7 14.7 14.8 6.3 13.2 7.2 16.5 5.5 19.7-1.5 2.8-16.2 9.9-37.5 18-19.9 7.6-36.1 15.4-37.5 18-.9 1.6-.6 2.2 1.5 3.6 1.4.9 2.5 2.6 2.5 3.8 0 1.1-2.6 5.9-5.9 10.6-8.4 12.3-18.1 29.5-18.8 33.4-.4 2.8-.1 3.7 1.9 5 1.3.8 23.1 7 48.5 13.7 45.6 12.1 46.2 12.2 48.9 10.4 2.6-1.7 2.7-1.9 2.1-9-.6-8.3-3.1-13.9-7.9-18-3.8-3.3-14.4-8.3-24.1-11.5-10.9-3.5-12-5.8-5.7-11.9 4.7-4.5 16-10.6 29.1-15.7 11.4-4.4 13.9-4.1 13.9 1.5 0 5.5 1.8 6.6 7.7 5.2 11.6-2.9 21.8-10 26.9-18.7 1.3-2.3 7.4-18 13.4-35 11-30.9 12.7-34.4 17-34.4 3.6 0 17.7 8.1 23.8 13.6 16.5 14.9 26.4 37.3 29.3 66.1 1.5 14.6 0 33.9-3.8 48-3.4 13-3.9 17.6-1.9 19.2 1.6 1.3 11 2.2 74.1 6.7 21.5 1.5 40.1 2.5 41.5 2.1 4-1 5.4-4.3 5.8-14.2.4-11.9-1-14.9-9.3-19-5.9-2.9-6.3-3-21-3-10 .1-17.8.7-23.4 1.8-10.8 2.2-11.8 2.2-13.6-.7-1.5-2.2-1.5-3.3.4-13.7 2.3-12.5 3.5-15 8-16.9 4.3-1.8 4-4.5-1.5-13.1-3.1-4.7-4.8-8.6-5.2-11.4-.5-4.9.5-5.7 6.4-4.6 4.1.8 8.4-.1 8.4-1.7 0-.4-1.2-2.6-2.7-4.9-1.6-2.2-5.6-8.1-8.9-13.1-7.4-10.9-11.8-21-15.4-35.8-1.5-6-3.5-12.4-4.4-14.1-.9-1.8-13.3-20-27.6-40.5s-26.5-39-27.1-41c-1-3.1-.8-5.3 1.6-15 3.8-15.3 5.2-18.7 8.1-19.4 2.9-.7 2.8-.8 24.4 14.6 24.4 17.4 26.9 18.5 29.4 12.5 2.3-5.4 4.4-5.1 19.6 2.5 19 9.5 26.5 10.8 41 7 14.5-3.8 22.5-2.5 34 5.4 2.9 2 5.6 3.6 6.1 3.6 1.6 0 3.9-4.5 3.9-7.9 0-12-16.2-25.6-53.5-44.7-10.4-5.4-20.7-11.1-22.8-12.7-2-1.6-6.4-6.2-9.8-10.3-3.3-4.1-6.7-7.4-7.4-7.4-.8 0-2.2 1.1-3.1 2.5-2.6 4-6.7 3.3-16.5-2.5-16.1-9.7-19.4-14.9-22.5-35.2-2.8-18.4-2-34.9 2.1-40.4 1.2-1.7 1.7-1.8 4.6-.7 6.7 2.6 7.4-2.4 3.4-23.7-1.4-7.3-2.5-14.7-2.5-16.5 0-6.9-3-13.8-8.4-19.1-6.1-6.1-12.7-8.8-24.8-10.4-10.6-1.3-15.7-1.2-24.1.6zm31.8 28.9c11.1 3 13.5 4.5 13.5 8.5 0 4.9-8 42.3-9.5 44.7-1.9 2.9-5.3 3-10.7.2-2.3-1.2-8.1-2.9-12.9-3.9-4.9-1-9.3-2.1-9.9-2.5-1.7-1.1-1.2-4.5 2.5-15.1 1.9-5.6 4.6-15.2 6-21.4 1.4-6.2 3-11.9 3.7-12.7 1.5-1.8 4.1-1.5 17.3 2.2z" fill="#f2f2f2"/></svg>