<svg xmlns="http://www.w3.org/2000/svg" viewBox="0 0 512 512" height="682.667" width="682.667" version="1.0"><g fill="#f2f2f2"><path d="M182.492 24.031c-41.038 4.654-72.345 30.25-95.191 77.74-11 22.74-11.317 26.124-2.221 29.614 4.548 1.798 4.97 1.798 7.51.106 1.692-1.164 4.23-5.183 6.663-10.471 10.894-24.644 20.413-39.24 34.48-53.095 8.779-8.78 12.375-11.53 20.413-15.654 14.702-7.615 23.057-9.52 41.567-9.52 16.922 0 28.874 1.905 47.066 7.722 5.394 1.798 11.211 3.173 13.115 3.173 1.798 0 8.673-1.587 15.337-3.596 19.143-5.817 28.874-7.404 45.585-7.298 17.135 0 26.336 2.01 38.817 8.356 10.47 5.182 15.97 9.413 25.596 19.46 11.74 12.376 21.576 27.923 31.518 50.452 2.433 5.288 4.971 9.307 6.664 10.47 2.538 1.693 2.961 1.693 7.51-.105 9.095-3.49 8.778-6.875-2.222-29.615-16.711-34.797-39.24-59.018-64.835-69.806-25.913-10.894-55.528-11.212-91.172-.952-11.317 3.279-14.067 3.173-26.97-.53-19.673-5.71-43.577-8.249-59.23-6.45z"/><path d="M173.184 119.222c-3.067 2.432-12.692 17.028-15.76 24.009-1.903 4.336-1.903 4.865-.422 7.192 2.115 3.173 8.567 5.183 25.49 7.933 19.778 3.279 28.345 3.807 29.932 1.798 1.904-2.221.529-4.654-8.144-14.49-3.914-4.337-10.577-12.164-14.808-17.24-10.153-12.058-11.528-12.904-16.288-9.202zM336.7 133.183c-5.605 5.923-13.009 17.452-13.009 20.413 0 4.337 2.433 5.289 10.894 3.914 11.846-1.904 18.51-4.231 20.413-7.193 1.693-2.432 1.587-2.855-1.586-9.307-3.808-7.721-7.615-12.27-10.365-12.27-1.164 0-3.914 2.01-6.346 4.443zM33.677 146.827c-3.067 1.692-2.221 3.913 4.125 10.577 8.884 9.413 13.432 8.355 15.653-3.596 1.164-6.346-1.163-8.144-10.47-8.144-4.126 0-8.356.528-9.308 1.163zm425.925.952c-1.375 1.587-1.692 2.961-1.057 6.029 2.22 11.951 6.769 13.01 15.653 3.596 3.385-3.49 6.029-6.98 6.029-7.933 0-2.644-3.596-3.807-11.423-3.807-5.923 0-7.615.423-9.202 2.115zM75.35 153.067c-2.54 2.75-8.674 22.317-7.933 25.279.317 1.269 2.327 3.173 4.548 4.336 4.336 2.221 32.047 11 38.393 12.164 5.077.951 8.144-1.481 8.144-6.24 0-1.905.74-5.924 1.587-9.097 2.961-10.577 2.961-12.057.846-13.961-2.221-2.01-38.076-14.596-41.46-14.596-1.164 0-3.068.952-4.126 2.115zm335.6 4.337c-9.837 3.49-18.827 7.086-19.885 8.144-2.115 1.904-2.115 3.384.846 13.961.846 3.173 1.587 7.192 1.587 9.096 0 4.76 3.067 7.192 8.144 6.24 6.346-1.163 34.057-9.942 38.393-12.163 2.221-1.163 4.231-3.067 4.548-4.336.847-3.067-5.288-22-8.038-25.067-1.27-1.375-3.279-2.327-4.865-2.221-1.481.106-10.789 2.961-20.73 6.346zm-263.362 16.182c-5.605 2.539-8.25 6.346-8.778 12.692-.318 4.654 0 6.558 1.798 9.414 5.711 9.307 19.884 9.307 25.595 0 3.068-4.971 2.433-13.856-1.269-17.875-4.865-5.288-11.423-6.875-17.346-4.23zm205.189 0c-5.605 2.539-8.25 6.346-8.778 12.692-.318 4.654 0 6.558 1.798 9.414 5.711 9.307 19.884 9.307 25.595 0 3.068-4.971 2.433-13.856-1.269-17.875-4.865-5.288-11.423-6.875-17.346-4.23zm-162.036 7.721c-1.374 1.375-2.326 4.231-2.75 8.356-.317 3.49-1.374 8.356-2.22 10.788-2.962 8.462.211 10.683 16.5 11.529 13.96.846 13.96.74 13.22-12.586-.74-11.212-2.538-16.183-6.346-17.664-1.375-.528-5.606-1.269-9.413-1.692-6.135-.635-7.192-.529-8.99 1.27zm121.633 2.01c-1.904 2.961-4.442 14.49-4.548 20.625 0 4.97 2.644 7.297 8.25 7.297 9.519 0 12.798-3.384 10.26-10.682-.847-2.433-1.904-7.086-2.222-10.365-.952-8.144-1.904-9.625-6.24-9.625-2.75 0-4.125.635-5.5 2.75zm-75.835 4.971c-1.904 1.904-2.75 3.913-2.75 6.558 0 4.653 11.211 72.662 12.798 77.527 2.22 6.77 13.75 8.461 17.557 2.75 1.692-2.75 10.894-53.941 10.894-61.134 0-4.865-2.01-6.874-18.826-19.25-12.798-9.307-15.866-10.259-19.673-6.451zM57.58 200.768c-1.269.424-2.75 2.116-3.384 3.808-2.327 5.817-9.73 41.672-24.01 117.19-4.442 23.27-10.894 55.74-14.49 72.24-3.702 17.345-6.028 30.99-5.711 32.47.423 1.481 1.798 3.385 3.279 4.337 4.336 2.855 44.105 16.394 48.23 16.5 5.077 0 17.134-4.02 19.46-6.558 3.385-3.702 1.482-4.76-24.96-14.279-19.567-6.98-24.221-9.625-24.221-13.75 0-1.269 2.115-12.48 4.654-24.96 2.644-12.481 9.942-49.711 16.394-82.922 6.452-33.211 13.326-67.903 15.442-77.21 2.01-9.202 3.702-17.664 3.702-18.721 0-4.866-9.202-10.154-14.385-8.145zm387.744 1.27c-1.375.74-3.28 2.538-4.125 4.019-1.375 2.433-.952 5.077 4.019 28.557 2.961 14.173 9.942 49.182 15.442 77.74 5.5 28.556 12.163 62.402 14.807 75.094 2.645 12.692 4.76 24.01 4.76 25.278 0 4.231-4.76 6.875-24.22 13.75-26.337 9.414-28.346 10.577-24.962 14.279 2.327 2.538 14.385 6.663 19.461 6.663 4.125-.106 43.788-13.75 48.23-16.605 1.375-.952 2.856-2.856 3.28-4.337.316-1.48-2.01-15.019-5.818-32.47-3.49-16.5-10.894-53.942-16.5-83.345-12.269-64.73-20.307-103.23-22.317-107.143-1.269-2.326-2.22-2.855-5.5-2.855-2.115 0-5.077.634-6.557 1.375zm-310.216 22.74c-1.798 1.904-2.539 10.788-1.164 12.163.423.423 2.539-.952 4.866-2.962 2.22-2.01 4.97-3.701 6.028-3.701 1.058 0 7.616 2.22 14.596 4.865 27.183 10.577 54.788 15.865 59.547 11.529 2.433-2.116 2.75-7.51.74-10.154-2.326-2.962-5.288-3.808-18.191-5.077-6.98-.74-23.692-2.961-37.125-4.971-13.432-2.01-25.066-3.596-26.018-3.596-.847 0-2.327.846-3.28 1.904zm232.477-1.375c-2.01.846-44.423 6.769-57.115 8.038-12.903 1.27-15.865 2.115-18.192 5.077-2.01 2.644-1.692 8.038.74 10.154 4.654 4.23 31.414-.847 58.278-11.106 7.721-2.856 14.808-5.288 15.866-5.288 1.163 0 3.807 1.692 6.028 3.701 2.327 2.01 4.443 3.385 4.866 2.962.317-.317.634-2.856.634-5.606 0-3.49-.634-5.5-1.904-6.663-1.798-1.692-6.557-2.221-9.201-1.27zm-273.938 9.942c-7.086 13.75-5.183 55.634 2.856 64.306 5.182 5.606 12.163 6.558 13.961 1.799.317-.847.635-13.856.635-28.77 0-24.22-.212-27.71-2.01-31.518-3.913-8.673-12.269-11.846-15.442-5.817zm314.129-.741c-6.24 4.866-6.875 8.145-6.875 38.183 0 15.759.423 28.134 1.058 29.191 1.48 2.856 3.913 3.49 7.721 1.798 5.394-2.22 8.144-6.134 10.365-14.49 4.231-15.97 3.385-44.105-1.692-53.941-2.01-3.808-6.346-4.125-10.577-.74z"/><path d="M132.04 248.47c-2.22 3.807-1.692 73.085.635 92.546 5.289 44.846 19.144 66.422 50.769 79.008 18.615 7.51 39.557 10.471 72.556 10.471 33.528 0 53.941-2.961 73.508-10.788 31.413-12.586 45.375-35.644 50.346-83.133 1.904-17.769 2.01-84.826.105-88.104-1.375-2.327-4.865-3.173-5.923-1.375-.317.423-3.49 2.01-7.086 3.278-8.356 3.173-9.942 5.5-7.827 11.635 2.116 5.817 2.01 13.01-.106 17.557-5.288 11.212-23.797 18.086-40.932 15.337-12.797-2.116-19.25-6.135-27.922-17.664-2.221-2.961-2.433-2.961-3.914-1.163-.846 1.058-2.326 5.394-3.278 9.73-2.644 11.846-2.116 11.635-26.971 11.635s-24.327.211-26.97-11.634c-.953-4.337-2.433-8.673-3.28-9.731-1.48-1.798-1.692-1.798-3.913 1.163-8.673 11.529-15.125 15.548-27.922 17.664-17.135 2.75-35.644-4.125-40.932-15.337-2.116-4.548-2.222-11.74-.106-17.557 2.115-6.135.529-8.462-7.827-11.635-3.596-1.269-6.77-2.855-7.086-3.278-1.058-1.798-4.548-.952-5.923 1.375zm96.566 58.066c1.164.635 3.49 4.02 5.183 7.615 4.97 11.212 10.048 14.49 22.211 14.49 12.163 0 17.24-3.278 22.211-14.49 1.692-3.596 4.02-6.98 5.183-7.615 3.596-2.01 10.47-1.375 12.903 1.058 2.856 2.855 2.222 8.144-2.115 17.345-14.384 30.673-61.98 30.673-76.364 0-4.337-9.201-4.971-14.49-2.115-17.345 2.432-2.433 9.307-3.068 12.903-1.058zm46.961 55.95c11.634 1.376 26.97 4.549 37.442 7.722 9.836 2.961 12.48 5.817 10.788 11.846-1.375 4.971-4.02 7.932-7.086 7.932-1.27 0-7.933-1.48-14.808-3.173-18.192-4.76-29.932-6.346-45.903-6.346-15.97 0-27.605 1.587-45.692 6.346-6.769 1.693-13.538 3.173-14.913 3.173-3.173 0-5.817-2.855-7.192-7.932-2.115-7.721 2.221-10.365 24.961-15.442 21.577-4.865 43.26-6.24 62.403-4.125z"/><path d="M178.05 267.825c-7.404 3.173-2.539 7.933 8.143 7.933 10.789 0 15.548-4.76 7.933-8.039-4.548-1.904-11.634-1.904-16.077.106zm139.612 0c-7.403 3.173-2.538 7.933 8.145 7.933 10.788 0 15.547-4.76 7.932-8.039-4.548-1.904-11.634-1.904-16.077.106zM148.117 435.043c-10.365 7.404-22 12.375-53.095 22.74-41.46 13.856-56.586 20.942-68.432 32.577-5.923 5.817-11.74 15.23-11.74 19.25 0 5.922-2.75 5.71 78.797 5.71h75.306l8.885-4.441c11.952-5.923 24.115-13.962 27.817-18.404 1.692-2.01 4.336-6.452 5.923-10.048 1.586-3.596 3.702-6.769 4.76-7.192 3.172-1.163 9.518-.635 11.95 1.058 4.866 3.384 1.693 15.336-7.191 27.5-2.962 3.913-5.289 7.403-5.289 7.826 0 .423.74 1.48 1.798 2.221 2.539 2.115 74.25 2.115 76.788 0 1.057-.74 1.798-1.798 1.798-2.221 0-.423-2.327-3.913-5.289-7.827-8.884-12.163-12.057-24.115-7.192-27.5 2.433-1.692 8.779-2.22 11.952-1.057 1.057.423 3.173 3.596 4.76 7.192 1.586 3.596 4.23 8.039 5.922 10.048 3.702 4.442 15.865 12.48 27.817 18.404l8.885 4.442h75.306c81.547 0 78.797.211 78.797-5.712 0-4.019-5.817-13.432-11.74-19.25-11.952-11.634-27.394-19.037-68.643-32.681-31.73-10.577-41.144-14.596-52.144-22.106-4.336-2.961-8.779-5.394-10.048-5.394-1.375 0-5.288 1.48-8.778 3.279-17.452 8.779-40.51 13.961-70.759 15.865-42.413 2.644-84.085-3.385-108.835-15.865-3.49-1.798-7.51-3.279-8.778-3.279-1.375 0-5.5 2.221-9.308 4.865z"/></g></svg>