<svg version="1.0" xmlns="http://www.w3.org/2000/svg" width="682.667" height="682.667" viewBox="0 0 512 512"><g fill="#f2f2f2"><path d="M248.1 34.6c-13.8 3.7-30.4 15.5-51.6 36.8-20.1 20.2-41 45.6-57.3 69.8-5.8 8.6-6.9 11.7-5.2 14.8 1.9 3.6 44.1 34.6 49.6 36.3 9.5 3.1 37.4 9.7 40.9 9.7 2 0 5-.7 6.7-1.6 6.1-3.1 14.8 1 14.8 7 0 1.7-2.5 10.6-5.5 19.6-3.1 9.2-5.5 18.2-5.5 20.5 0 3.9 14 40.8 17.5 46.2 2 2.9 5 2.9 7 0 3.5-5.4 17.5-42.3 17.5-46.2 0-2.3-2.4-11.3-5.5-20.5-3-9-5.5-17.9-5.5-19.6 0-6 8.7-10.1 14.8-7 1.7.9 4.7 1.6 6.7 1.6 3.5 0 31.4-6.6 40.9-9.7 5.4-1.7 47.7-32.7 49.6-36.3 1.8-3.4.4-6.9-8.3-19.2-39.4-56-80.4-95.5-106.3-102.3-7-1.8-8.3-1.8-15.3.1zm-45.5 115.7c17.5 10.1 32.7 19.6 33.7 21 1.7 2.1 1.8 3 .8 5.9-1.8 5.4-5.3 8.2-9.3 7.4-4.6-1-65.8-36.8-68.2-39.9-1.6-2.2-1.7-3-.7-5.8 1.9-5.4 5.1-8.2 8.8-7.6 1.7.3 17.4 8.8 34.9 19zm147.2-17c1.2 1.3 2.7 3.8 3.3 5.6 1 2.8.9 3.6-.7 5.8-2.4 3.1-63.6 38.9-68.2 39.9-4 .8-7.5-2-9.3-7.4-1-2.9-.9-3.8.8-5.9 1-1.4 14.2-9.7 29.3-18.5 42-24.4 40.7-23.9 44.8-19.5zM25 150.5c-1.6 1.9-.7 3.3 9.5 15 21.2 24.3 39.7 50.9 50 71.9 6.9 14.2 8.3 16.1 11.2 15.2 2.3-.7 16-16.7 17.3-20.1.7-1.9.2-4.3-2.4-11.2-3-7.8-4.9-15.2-7-27.4-.9-5.2-3.6-8.1-14.5-16.3C72 164.9 53.7 155.4 37.7 151c-8.6-2.4-11-2.5-12.7-.5zm449.5.5c-15.4 4-34.4 13.8-51.6 26.6-10.9 8.2-13.6 11.1-14.5 16.3-2.1 12.2-4 19.6-7 27.4-2.6 6.9-3.1 9.3-2.4 11.2 1.3 3.4 15 19.4 17.3 20.1 2.9.9 4.3-1 11.2-15.2 10.3-21 28.8-47.6 50-71.9 10.2-11.7 11.1-13.1 9.5-15-1.6-1.9-3.8-1.8-12.5.5zM123 176.5c-1.8 2.2-.7 18.7 1.9 28.7 2.2 8.7 4.9 14.4 9.7 20.7 1.9 2.4 3.4 5.2 3.4 6.2s-4.8 7.1-10.7 13.5c-16.5 17.7-21.8 26.2-19.9 32.2.7 2 3.5 3.5 9 4.7 1.6.3 16.6 5.8 33.4 12.1 16.8 6.2 32 11.4 33.8 11.4 2.5 0 4.1-.9 7.1-4.2 10.5-11.6 19.8-20.8 21.5-21.4 4.2-1.3 4.8.9 4.8 18.2 0 9.6.4 17.3 1.1 18.7 1.4 3 4.5 4.8 14.2 8.1 6.2 2.1 8.1 2.4 9.8 1.5 1.7-.9 2-1.7 1.5-4.2-.4-1.8-6.5-17.8-13.7-35.7-10-25.2-13.6-33.1-16-35.3L211 249h-21.5c-23.8 0-25.1.2-32.3 6.4-5.6 4.6-8.8 4.7-13 .3-4-4.2-4.1-7.1-.1-12.5 2.3-3.1 3.1-5.3 3.1-8.2-.1-5.3-9.9-47.7-12.1-52-1.7-3.4-7.2-8-9.6-8-.7 0-1.8.7-2.5 1.5z"/><path d="M382 177.2c-1.8 1.3-4.1 3.9-5.1 5.8-2.2 4.3-12 46.7-12.1 52 0 2.9.8 5.1 3.1 8.2 4 5.5 4 8.6-.2 12.6-4.4 4.2-7.4 4.1-12.9-.4-7.2-6.2-8.5-6.4-32.3-6.4H301l-2.9 2.7c-2.4 2.2-6 10.1-16 35.3-7.2 17.9-13.3 33.9-13.7 35.7-.5 2.5-.2 3.3 1.5 4.2 1.7.9 3.6.6 9.8-1.5 9.7-3.3 12.8-5.1 14.2-8.1.7-1.4 1.1-9.1 1.1-18.7 0-17.3.6-19.5 4.8-18.2 1.7.6 11 9.8 21.5 21.4 3 3.3 4.6 4.2 7.1 4.2 1.8 0 17.1-5.2 34-11.5 16.9-6.4 33-12 35.7-12.6 12.3-2.7 8.6-12.7-13.3-36.3-6-6.4-10.8-12.5-10.8-13.5s1.5-3.8 3.4-6.2c7.4-9.7 11.3-21.8 12.3-38.1.8-13-.8-15.2-7.7-10.6zm-220.3 27.5c-1.2 1.1-.7 6.6 1.3 14.3 2.3 9 5.1 12 11.1 12 5.8 0 8.9-3.4 8.9-9.7 0-7.3-1.6-9.3-10-13.5-7.5-3.7-10.1-4.4-11.3-3.1z"/><path d="M339 207.8c-8.4 4.2-10 6.2-10 13.5 0 6.3 3.1 9.7 8.9 9.7 6.1 0 8.8-2.9 11.2-12.4 2.4-9.5 2.2-14-.6-14.3-1.1-.1-5.4 1.5-9.5 3.5zm-136.5 12.6c-2 2.9-1.1 7.1 1.8 9.1 1.2.8 4.3 1.5 6.9 1.5 9.9 0 13.3-8 4.8-11.4-6.1-2.4-11.6-2.1-13.5.8zm93.2-.7c-8.2 3.4-4.6 11.3 5.1 11.3 5.5 0 8.7-1.9 9.6-5.6 1.1-4.4-1.6-7.4-6.7-7.3-2.3 0-5.9.7-8 1.6zm-185.2 73.2c-1.8 3 6.5 25.1 18 47.6 27.5 54 68.4 105.2 101.5 127.4 20.5 13.7 31.5 13.7 52 0 28.8-19.2 64.3-61.5 91.6-108.9 17.1-29.7 31.2-64.1 27.3-66.5-2-1.3-7.3 5.5-25.2 32l-17.5 26-48.6 40.5c-26.7 22.3-49.7 40.9-51.1 41.4-1.6.6-3.4.6-5 0-1.4-.5-24.4-19.1-51-41.3L154 350.7l-17.6-26.1c-20.1-29.8-24-34.6-25.9-31.7z"/><path d="M157.5 320c-.9 1.5 3.1 9.3 6.6 13.1 1.6 1.7 3.6 2.9 4.6 2.7 2.6-.5 5.8-6.9 5-10-1.1-4.4-14.2-9-16.2-5.8zm187.8.3c-4.5 1.7-7.3 4.3-7.3 6.9 0 3.1 3.6 8.8 5.6 8.8 3.4 0 12.5-13.3 10.9-16-.8-1.3-5.1-1.2-9.2.3zm-151.5 12.4c-2.2 2.5-5.4 9.2-6.2 13-1 4.5 1.4 8.5 6.7 11.3 7.9 4.2 9.1 1.5 6.3-14.5-1.7-9.5-2.4-11.5-4.1-11.5-.6 0-1.9.8-2.7 1.7zm119.7 0c-1.1 3-3.5 17.5-3.5 21.6 0 5 2.1 5.7 7.7 2.7 7.6-4 8.7-9.1 4.1-18.5-2.5-4.8-4.7-7.5-6.3-7.5-.7 0-1.6.8-2 1.7zm-93.2 11.9c-1.6 4.2 3.5 21.5 11.2 38 5.3 11.3 8.8 16.4 11.5 16.4 3.5 0 4-3.2 4-24.4V354l-2.7-2.9c-5.2-5.6-22.5-10.3-24-6.5zm56.3 1.3c-11.7 4.7-11.6 4.6-11.6 28.7 0 21.2.5 24.4 4 24.4 2.7 0 6.2-5.1 11.5-16.4 6.4-13.7 10.7-27 10.9-33.6l.1-5.5-4-.2c-2.5-.2-6.6.8-10.9 2.6z"/></g></svg>