<svg version="1.0" xmlns="http://www.w3.org/2000/svg" width="682.667" height="682.667" viewBox="0 0 512 512"><g fill="#f2f2f2"><path d="M234.5 34.5c-44.6 7.3-89.6 28.8-113.7 54.3-9.4 10.1-13.9 18.3-14.6 26.7-.4 5.3-.1 6.9 1.6 9.8 5.1 8.2 17.2 17.6 55.2 43 45.4 30.3 60.9 42.4 79.2 61.6 8.2 8.7 12.1 12.1 13.8 12.1 1.7 0 5.4-3.3 13.2-11.5 18.5-19.4 31.8-29.8 78.8-61.5 35-23.6 45.5-31.4 52.4-39.1 5.3-5.9 6.1-8.1 5.3-15.5-1.5-15-20.1-35-47.5-51.1-19.6-11.6-46.6-21.9-70.4-26.8-15.6-3.3-39.6-4.2-53.3-2zm-62.8 57.4c19.1 9.1 46.1 32.5 58.2 50.6 7.8 11.7 9.7 18.6 5.6 20.1-.9.4-9-3.1-19.3-8.3-17.8-9-32.7-14.5-48.4-17.8-6.6-1.4-8.1-2.1-10.8-5.2-4.2-4.8-6.8-11.1-8.2-19.7-1.3-8.8.6-17.2 4.8-20.5 3.9-3.1 10.5-2.8 18.1.8zm186.7-.8c1.6 1.3 3.2 4.1 4.2 7.7 2.9 9.8-.6 24.5-7.6 32.5-2.7 3.1-4.2 3.8-10.8 5.2-15.7 3.3-30.6 8.8-48.4 17.8-10.3 5.2-18.4 8.7-19.3 8.3-2.5-.9-2.8-3.4-1-8.2 5.8-15.3 27.9-38.8 51.1-54.4 15.7-10.7 25.9-13.5 31.8-8.9zM127.2 218.3c-1.5 1.8-1 3.2 4 10.5 7.4 10.7 10.8 25.6 8.9 38.3-.8 5.5-2.4 10-6.2 17.5-3.5 6.9-4.9 10.8-4.5 12.2.4 1.1 3.2 6.2 6.3 11.4 3.1 5.1 8.3 15.1 11.6 22.3 3.3 7.1 6.6 14 7.5 15.2 2 3.1 5.1 2.9 15.3-.9 7.5-2.8 9.6-3.1 19.4-3.2 13.4-.1 21.5 2.2 33.8 9.6 9.7 5.8 11.9 6.5 14.1 4.3 2.4-2.4 2-5.6-2-17.4-16-46.8-49.7-97.7-74.5-112.4-11.5-6.8-30.7-11-33.7-7.4zm240.1.7c-12.6 3.3-20.7 8.3-32.4 20.2-22.5 22.6-46.5 63.5-58.5 99.4-3.8 11.4-4.1 14.5-1.8 16.9 2.2 2.2 4.4 1.5 14.1-4.3 12.3-7.4 20.4-9.7 33.8-9.6 9.8.1 11.9.4 19.4 3.2 10.2 3.8 13.3 4 15.3.9.9-1.2 4.2-8.1 7.5-15.2 3.3-7.2 8.5-17.2 11.6-22.3 3.1-5.2 5.9-10.3 6.3-11.4.4-1.4-1-5.3-4.5-12.2-3.8-7.5-5.4-12-6.2-17.5-1.9-12.7 1.5-27.6 8.9-38.3 4.9-7.2 5.5-8.7 4.1-10.4-1.6-1.9-8.8-1.7-17.6.6zm-279 9.5c-6.2 3.1-17.6 14.8-23.7 24.3-9.5 14.7-16.2 30.5-21.1 49.7-8.5 33.3-8.9 75.7-.9 108.5 5.7 23.3 18.7 50.9 26.6 56.4 4.9 3.5 5.2 1.2 2.3-14.6-6-31.4-7.4-62.7-4.1-86 4.9-34.6 20.4-65.4 39.7-78.9 8.8-6.2 12.8-12.1 14.8-22.1 3.3-15.6-6.7-34.2-20.5-38.4-6.3-1.9-7.2-1.8-13.1 1.1zm321.9-1c-13.5 4.2-23.3 22.9-20.1 38.3 2 9.7 5.8 15.4 14.4 21.7 6.4 4.6 10.3 8.5 15.5 15.5 25.8 34.7 32.6 84.8 20.5 149.7-2.2 12.2-2.4 16.3-.6 16.3 4.8 0 16-18.1 23.4-38 8-21.7 11.7-44.3 11.7-72.5 0-36.7-6.5-66.3-20.8-93.9-8.4-16.4-22.2-32.4-31.4-36.6-5-2.3-6.8-2.3-12.6-.5z"/><path d="M222.4 245.6c-.9 2-1.8 6.7-2.1 10.4l-.6 6.8 8.1 14.8c8.2 15.2 16.5 32.8 20.9 44.4 3.3 8.7 5.4 12 7.5 12 2 0 1.9.3 11.3-22 3.6-8.5 10.7-23.1 15.7-32.4l9.1-16.9-.6-6.7c-.7-8.9-2.9-14-5.9-14-4.2 0-13.1 11-24.1 30-2.5 4.3-3.7 5.5-5.7 5.5s-3.2-1.2-5.7-5.5c-7.3-12.6-12.1-19.6-16.8-24.6-6.2-6.6-8.9-7-11.1-1.8zM178 361.2c-10 3.5-15.7 7.4-25.1 16.7-13.5 13.6-20.5 29.6-23 52.8-1.2 11.5-.7 31.1 1 35.6 2.5 6.6 5.7 2.7 18.6-23.3 11.5-23 17.8-33.1 24.4-39.3 9.6-9 16.8-8.5 28.3 1.9 10.4 9.3 12.4 9.4 17.3 1 3.1-5.5 8.5-21 8.5-24.7 0-4.2-2.2-7-9-11.8-15-10.6-28.2-13.4-41-8.9zm134.7-1.1c-7.7 1.8-24 11.7-27.2 16.5-2.2 3.4-1.9 7.2 1.6 17.1 3.2 9.2 6.7 16.1 9.3 18.2 2.6 2.1 6 .5 13.5-6.3 11.2-10.4 18.6-10.9 28.2-1.9 6.6 6.2 12.9 16.3 24.4 39.3 5.3 10.7 10.8 21 12.2 22.7 5 6.8 7.1 3.4 8-13.1 1.1-21-2.5-40.5-10.3-56.6-4-8.1-6-10.8-13.8-18.5-15.4-15.3-30.6-21-45.9-17.4z"/><path d="M252.7 369.8c-.9 1-4.3 10-7.6 19.9-9.2 28.3-17.5 41.7-27.3 44.4-4.9 1.3-7.7.7-14.4-2.8-6-3.1-10-2.7-11 1.2-.8 3.4 1.2 6.2 11 16 10.8 10.8 20 17.5 32.6 23.8 10.4 5.2 10.5 5.2 20 5.2 8.9 0 10-.2 17.4-3.8 15.7-7.4 36.6-23.8 44-34.6 5.7-8.1.5-12.7-8.8-7.8-6.7 3.5-9.5 4.1-14.4 2.8-9.8-2.7-18.1-16.1-27.3-44.4-5.9-18.1-7.7-21.7-10.9-21.7-.9 0-2.4.8-3.3 1.8z"/></g></svg>