<svg version="1.0" xmlns="http://www.w3.org/2000/svg" width="682.667" height="682.667" viewBox="0 0 512 512"><path d="M436 27.6c-2.2 2-7.7 8.9-12.2 15.3-35.7 51-87.3 119.2-142.7 188.6-10.5 13.2-19.4 25.1-19.8 26.4-.3 1.3-.2 3.1.4 4 1.7 2.8 10.4 8.1 13.3 8.1 3.3 0 6.9-3.9 32.1-34.5 53.3-64.8 92.5-115.3 125.4-161.5 24.4-34.3 26.2-37.6 23.5-44.1-1.6-3.8-5.6-5.9-11.4-5.9-3.9 0-5.2.6-8.6 3.6zM72 58.5c-.8 1-.8 2.9 0 7.2.5 3.3.9 8.3.8 11.2-.2 3.4.2 5.5 1.1 6 .7.4 3.8.2 6.8-.5 3.4-.8 8.1-1.1 12-.7l6.4.6-.7-8.4c-.4-4.6-1-9.1-1.5-10-.5-1.1-2.8-1.8-6.6-2.2-3.2-.4-8.4-1.5-11.5-2.6-4.7-1.6-5.9-1.7-6.8-.6zm182.2 45.6c-3.4 1.6-6.5 3.5-6.8 4.3-.7 1.9 6.8 17 8.8 17.4 1.8.3 16.8-9.4 16.8-10.9 0-1.3-4.8-9.7-6.8-12.2-2-2.3-4.6-2-12 1.4zm189.6 59.6c-4.5 9.9-8.2 14.9-15.2 20-9.4 6.9-9.4 7.5.5 11.2 11.3 4.3 15.7 8.2 23 20.5 1.9 3.4 4.1 6.1 4.9 6.1.9 0 2.5-3 4.2-7.5 2.3-6.2 3.7-8.4 8.3-12.6 3.8-3.5 5.3-5.6 4.9-6.7-.3-.9-3-3.4-5.9-5.7-6.7-5.2-11.8-12.5-14.9-21.5-1.3-3.9-2.7-7.8-3.1-8.8-1.4-3.4-3.6-1.7-6.7 5zm-354 91.8c-.7.7-2.9 4.2-4.8 7.6-3.4 6-5.1 7.6-17.8 16.4-3.2 2.3-1.6 4.6 5.5 7.4 8.9 3.7 15.6 8.4 19.9 13.9 5.5 7.2 7.4 6.9 10.8-1.7 2.2-5.6 5-9.2 10.4-13 5.7-4.2 5.5-6.2-1.6-10.9-6.2-4.3-12.5-10.7-16-16.4-2.6-4.2-4.6-5.3-6.4-3.3zm154.1 24c-2.5 1.4-8.9 9.8-8.9 11.7 0 3.7 8.6 10.8 13 10.8 3.2 0 11.5-8.2 12.6-12.4.9-3.6-1.8-7.3-6.9-9.7-5-2.2-6.4-2.3-9.8-.4zM198 310c-31.5 21.7-53 34.9-99.5 61-48.1 26.9-58.9 33.1-60.7 34.8-2.1 1.8-2.3 4.5-.5 6 2 1.7 32 12.2 34.8 12.2 2.9 0 6.6-2.3 15.3-9.4 13.1-10.7 15.5-9.3 8.2 4.9-3.9 7.6-4.5 9.6-3.7 11.7.7 1.8 4.9 4.5 16.8 10.8 27 14.3 25.1 13.4 27.8 12.2 1.3-.6 5.8-6.2 10-12.7 4.2-6.4 8.3-11.9 9.2-12.2 3.6-1.4 3.7 1.4.8 15.4-4.4 21.1-4.4 22.3-.1 26.6 6.5 6.5 15.7 13.7 17.5 13.7 2.6 0 4-2 11.6-16.5 3.7-7.2 12-22.2 18.3-33.5 21-37.4 31.2-60.4 36-81.5 2.9-12.8 3.6-20.4 2.2-25.5-2.5-9.3-19.7-21.8-31.3-22.8-5-.4-5.6-.1-12.7 4.8zm128.6 6.5c-.3.9-.6 2.6-.6 3.8 0 1.1-.7 4.9-1.6 8.4-2.1 8.2-1.1 9.7 5.8 9.1 2.6-.3 6.9-.2 9.5.2 7.2 1.1 7.9.4 8.7-9.1.8-9.9.6-10.2-8.4-11.9-12.1-2.3-12.7-2.3-13.4-.5zm59.1 90.2c-.4.5 0 3.4.8 6.4 1.8 6.7 1.9 13.4.3 19.5-1.5 5.6-.4 6.8 7.2 7.7 2.8.3 7.7 1.8 11 3.3 3.2 1.4 6.3 2.3 6.9 1.9.6-.3 1.1-3.9 1.1-8.4 0-7.2.2-8.1 4-14.4 2.2-3.6 4-7.1 4-7.7 0-1.6-4.6-3-10.3-3-3.1 0-8.1-1.1-12.2-2.6-8.5-3.2-12.1-3.9-12.8-2.7z" fill="#f2f2f2"/></svg>