<svg version="1.0" xmlns="http://www.w3.org/2000/svg" width="682.667" height="682.667" viewBox="0 0 512 512"><path d="M132.4 56.8c-10.7 5.1-13.2 17.2-6.3 30.3 10.5 19.6 37.4 27.6 47.6 14.2 4.1-5.3 4.5-15.1 1-22.7-7.7-16.8-29.2-27.9-42.3-21.8zm230.9-.3c-10.4 3.2-21.7 13.5-25.2 23.1-4 10.5-1.8 20.4 5.6 25.4 3.1 2.1 4.8 2.5 11.2 2.5 9.5 0 16.6-3.1 24.4-10.4 15.2-14.3 15.7-33.6 1.2-40.2-4.7-2.2-11.2-2.3-17.2-.4zm-182.2 66.6c-9.8 1.9-17.1 8.9-17.1 16.5 0 13.7 17.5 25.4 38.1 25.4 13.5 0 22.3-4.2 25.4-12.3 1.4-3.7 1.5-5.1.5-8.6-3.8-14.2-27.5-24.8-46.9-21zm131.3.3c-11.4 2.6-22.4 9.9-25.8 17-.9 1.9-1.6 5.5-1.6 8 0 3.7.6 5.2 3.2 8.1 5.7 6.6 9.7 8 22.8 8 9.6 0 12.5-.4 17.5-2.3 29-11.1 27.2-37.7-2.7-39.7-4.4-.3-9.7.1-13.4.9zm-174.1 57.4c-1 1.1-4.6 5.3-8 9.4-18.3 22.1-51.6 38.9-81.8 41.4-13.9 1.1-14.8 2.8-16.1 28.7C29.6 315.8 52 372.2 93 412.9c17.7 17.5 36.7 31 59.5 42.2 14 6.8 21.6 9.2 22.9 7 .4-.6-1.1-5.1-3.3-9.9-5.9-13-7.4-19.7-7.4-33.7 0-14.1 1.6-21.8 7.3-35.2 2.4-5.6 3.7-9.9 3.3-11-.3-1-5.2-6.3-10.8-11.8-23.9-23.6-35.5-46.6-35.5-70.4 0-11.5 1.8-19.7 6.5-29.8 8.4-18.2 23.8-33.9 46.8-47.8 4.3-2.6 8.1-5.4 8.4-6.2.8-2.2-2.3-4.9-8.5-7.4-9-3.5-21-9.7-29.3-15-8.1-5.2-11.9-6-14.6-3.1zm224.2 1.9c-3.3 2.1-12.3 7-20 10.9-17.7 9-17.8 9.3-5 17.9 17 11.3 30 25.7 36.9 40.7 5.6 12 7 18.7 7 33.3 0 10.4-.4 14.7-2.3 21.5-4.9 18.4-14.9 35.1-31.5 52.8-6.1 6.6-10.6 12.1-10.6 13.3 0 1.1 1.8 5.2 4 9.2 5.4 9.8 7.1 17.1 7.2 29.7 0 13.3-2.7 25.1-8.7 37.8-4.8 10.1-5.4 12.9-3 13.8 4.1 1.6 29.7-10.4 48-22.4 62.7-41.1 99-108.2 96.2-177.7-.7-16.1-2.5-26.7-4.9-29.1-1-1-5.7-2.1-13.4-3-16.1-1.9-27.6-5.3-42-12.4-17.8-8.7-27.8-16.7-44-35.3-2.2-2.6-4.9-4.7-6-4.7-1 0-4.6 1.7-7.9 3.7zM290 210c-5.2.9-10.3 2.1-11.2 2.5-2.7 1.1-2.2 4.6 1.7 12.2 9.6 19 10.9 43.7 3.4 67.1-1.7 5.1-2.8 10-2.5 10.8.9 2.4 5.1 1.5 11.2-2.4 19.9-12.9 31.4-40.1 27.5-64.9-1.4-9.4-5.7-20.6-9.1-24.3-3.3-3.6-6.4-3.7-21-1zm-79.8.6c-4.3 3-8.6 14.4-10.2 26.8-1.8 14.3 1.5 30.1 8.7 42.6 6.8 11.6 21.3 24 28.1 24 3 0 2.9-2.2-.8-13.6-7-21.8-5.4-47.9 4.1-66.6 5.2-10.3 4.6-10.8-12.6-13.3-13.7-1.9-14.5-1.9-17.3.1z" fill="#f2f2f2"/></svg>