<svg version="1.0" xmlns="http://www.w3.org/2000/svg" width="682.667" height="682.667" viewBox="0 0 512 512"><g fill="#f2f2f2"><path d="M231.5 34c-3.6 1.4-6.1 5.1-24.9 36.5C190.4 97.4 188 102 188 105.7c0 3 4 14.2 14.4 40.5l14.5 36.3 7.5 52.9c8.4 58.8 8.4 58.8 16.8 64.4 3.5 2.3 5.4 2.8 12.6 3.1 13.2.5 18.8-1.9 23.7-10.3 2.2-3.8 3.4-10.3 10.1-57.2l7.5-52.9 14.5-36.3c10.4-26.3 14.4-37.5 14.4-40.5 0-3.6-2.5-8.3-18.9-35.7-10.4-17.3-20.1-32.6-21.5-33.9-1.9-1.8-4.1-2.6-8-2.9-4.8-.4-5.7-.1-8 2.1l-2.6 2.6v141.2l-2.5 2.4c-1.8 1.9-3.5 2.5-6.5 2.5s-4.7-.6-6.5-2.5l-2.5-2.4V37.9l-2.5-2.4c-1.8-1.9-3.4-2.5-6.7-2.4-2.4 0-5.2.4-6.3.9zm-82.2 16.5c-2.1.9-8.9 8.5-21.3 24-10 12.4-19 24.1-20.1 25.9-2.3 3.9-1.8 5.9 1.7 7.5 4.7 2.1 52.3 12.2 56.1 11.9 3.7-.3 3.8-.4 3.6-4.3-.1-2.2-.4-6.3-.8-9.1-.9-6.1-1-5.8 14.4-31.4 11.4-19 12.9-23 9.2-25-3.1-1.6-38.9-1.2-42.8.5zm170.5-.4c-3.5 2-2 6.1 9.3 24.9 6.1 10.2 12 20.3 13.1 22.4 2.1 4 2.1 4.5.1 17.8-.4 3.3-.2 3.9 1.8 4.6 2.7 1 3.4.9 33.3-5.8 27.3-6 29.3-6.9 28-11.5-.4-1.1-9.4-13-20.1-26.3-14.5-18.1-20.3-24.7-22.8-25.8-4.1-1.7-39.9-2-42.7-.3zM64.2 119.2c-2 2-1.4 7.1 2.3 22 4 15.6 5.3 18.8 8.7 21 2.7 1.7 117 47.4 121 48.3 2.1.5 3 .2 4.3-1.8 1.4-2.2 1.4-3.4.1-12.5-1.2-7.6-3.1-14-8-26.5-7.8-19.9-9.9-24.2-13-26.2C177.4 142 71.7 118 67.5 118c-1.2 0-2.6.5-3.3 1.2zM388.1 130c-29.3 6.6-54.4 12.6-55.7 13.5-3.1 2-5.2 6.3-13 26.2-4.9 12.5-6.8 18.9-8 26.5-1.3 9-1.3 10.3.1 12.4.8 1.3 2.3 2.4 3.3 2.4.9 0 28.9-10.9 62.2-24.3 54.9-22 60.7-24.5 62.6-27.4 2.3-3.5 9.4-30.2 9.4-35.6 0-4-1.5-5.7-4.9-5.6-1.5 0-26.6 5.4-56 11.9zM90 193.6c-.6 1.4-1 15.6-1 33.2 0 27.8.2 31.1 1.9 34.7 2.4 5.2 52.6 65.2 55.3 66.1 3.9 1.2 4.3-.7 4.8-25.9l.5-24.2 6.3-13c3.4-7.2 6.2-14 6.2-15.2 0-1.3-1.1-3-2.5-3.9-1.3-.8-12-4-23.7-7-14.9-3.7-21.8-6-23.2-7.4-1.9-1.8-2.2-3.6-2.6-16.9-.6-17.2-.8-17.6-9.6-21-7.7-2.9-11.2-2.8-12.4.5zm322.1-1.5c-6.2 2.5-9.3 4.3-10.4 6.3-.7 1.2-1.4 7.9-1.7 16.3-.4 12.6-.7 14.5-2.6 16.3-1.4 1.4-8.3 3.7-23.2 7.4-11.7 3-22.4 6.2-23.7 7-1.5 1-2.5 2.6-2.5 4 0 1.3 2.8 7.9 6.2 14.7l6.2 12.4.6 24.7c.5 25.7.9 27.6 4.8 26.4 2.7-.9 52.9-60.9 55.3-66.1 1.7-3.6 1.9-6.9 1.9-34.7 0-17.6-.4-31.8-1-33.2-.8-2.1-1.6-2.6-4.2-2.5-1.8 0-4.4.5-5.7 1z"/><path d="M194.3 234.4c-1.8 1.5-6.8 10.6-13.8 24.6l-11 22.2-.3 49.3c-.2 31.2.1 50.2.7 51.9.7 1.7 1.8 2.6 3.3 2.6 1.4 0 10.6-6.2 23.3-15.6 11.6-8.7 22.4-16.3 24.2-17 4.7-2 65.9-2 70.7 0 1.8.7 12.4 8.2 23.5 16.5 20.1 15.1 24.2 17.4 26.4 15.2.9-.9 1.2-14.4 1.2-52.1v-50.8L331 258.4c-7.6-15-12.4-23.5-14.1-24.7-2.5-1.8-2.8-1.8-6.2-.2-1.9.9-4 2.8-4.6 4.3-.6 1.5-2.9 15.2-5.1 30.4-2.2 15.3-4.6 29.2-5.4 31-1.7 4.1-17.1 19.3-20.9 20.7-4.3 1.7-34.1 1.4-38-.3-1.8-.7-7.1-5.3-11.8-10.2-10.2-10.5-9.3-7.8-14.5-44.3-1.9-14-4.2-26.7-4.9-28.2-.8-1.5-2.9-3.2-4.6-3.8-4-1.4-3.3-1.5-6.6 1.3z"/><path d="M135.2 351.2c-1.7 2.2-2 4.3-7.2 40.2-5.5 38.4-5.7 41.1-3.5 44.4 2.3 3.2 34.5 22.2 37.7 22.2 3.7 0 4.8-2.5 4.8-10.8 0-12.1-1.3-10.8 34.3-37.4 17.7-13.3 33.6-24.7 35.4-25.4 4.6-2 34.1-1.9 38.7 0 1.9.8 17.8 12.2 35.4 25.4 35.4 26.7 34.2 25.3 34.2 37.4 0 8.3 1.1 10.8 4.8 10.8 3.2 0 35.4-19 37.7-22.2.8-1.3 1.5-3.8 1.5-5.8 0-5.9-10.1-74.3-11.3-77-1.9-4-4.4-3.6-8.9 1.2-7.4 8-7.2 7.3-7.8 37.5-.3 18.9-.9 27.6-1.7 28.4-.7.7-2.2.9-3.7.5-1.4-.3-17.1-11.5-34.8-24.7-17.7-13.3-33.6-24.8-35.4-25.5-4.7-2-54-2-58.7-.1-1.8.8-18 12.5-36.2 26-20.7 15.6-33.8 24.7-35.2 24.7-1.6 0-2.7-.8-3.3-2.6-.6-1.4-1-13.6-1-27.2 0-27.9-.3-29.3-7.7-37-4.1-4.3-6.3-5.1-8.1-3z"/><path d="M242.5 402.4c-1.7.7-14.8 10.1-29.2 20.9-20.9 15.6-26.3 20.1-27.2 22.7-.6 1.8-1.1 7.8-1.1 13.2 0 12 1.3 15.1 7.3 17.9 3.7 1.6 6.8 1.9 27 1.9h22.8l2.4-2.5c2.2-2.1 2.5-3.3 2.5-9 0-8.3 2.5-11.5 9-11.5s9 3.2 9 11.5c0 5.7.3 6.9 2.5 9l2.4 2.5h22.8c32.4-.1 34.3-1.1 34.3-19.8 0-5.4-.5-11.4-1.1-13.1-.9-2.6-6.4-7.2-27.1-22.8-14.3-10.7-27.5-20.1-29.4-20.9-4.4-1.8-22.7-1.8-26.9 0z"/></g></svg>