<svg version="1.0" xmlns="http://www.w3.org/2000/svg" width="682.667" height="682.667" viewBox="0 0 512 512"><path d="M189 55c-1.1 1.1-4.2 6.4-6.9 11.7-6.3 12.7-7.5 13.7-14.5 13-5.4-.5-37.4-11-55.9-18.3-7.7-3-10.2-3.6-11.5-2.7-2.7 1.7-1.7 7.3 3.3 19.1 4.6 11 5.4 14.5 3.3 15.8-.6.4-5.2 1.3-10.2 2.1-10.3 1.5-21.2 6.1-28.4 12-9.8 8-17.6 21.6-21.9 38.3-3.5 13.4-4.3 37.6-1.8 56.5l1.7 13.5-2.4 4.8c-1.3 2.6-5.4 9.9-9.2 16.3-8.9 15.3-9.1 16.8-3.5 29.5 6 13.9 21.3 43.6 29.9 58.4 65.5 112.3 147.6 165.4 229.4 148.4 24.8-5.1 52.2-18.7 76.1-37.8 20.6-16.5 44.3-43.4 63.2-71.6 21-31.4 52.6-94.6 54-108.1.6-5.3-.2-7.2-11-25.2l-7-11.8.7-7.7c.4-4.2 1.1-11.3 1.6-15.7 2.8-24.6-.5-49.6-9-67-8.1-16.8-19.1-26.1-36.8-31.5-7-2.1-10.2-4.1-10.2-6.1 0-.6 1.4-4.2 3.1-8.2 6.9-16 8.1-21.4 5.4-23.7-1.3-1.1-5 .1-21.8 6.8-20.1 8-38.3 14-49.6 16.3-8.3 1.8-9.7.6-17.1-14.1-3.8-7.5-7-12.6-8.6-13.7-2.6-1.7-2.8-1.6-8.3 1.3-3.1 1.7-16.8 10.1-30.5 18.7C265.7 86.2 259 90 256.5 90s-9.5-4-30.1-17.1C191.3 50.6 192.7 51.3 189 55zm-86.7 63.1c.8 1.2.5 3-1.1 6.7-2.7 6.3-2.8 10.2-.2 15.3 4 7.6 12.1 10.5 20.4 7 6.6-2.7 8.4-2.7 9.6.4 1.9 5.1-2.2 15.7-8.6 21.9-5.7 5.5-11.7 8-20.5 8.4-6.7.4-8.5 0-13.8-2.3-11.8-5.3-18.5-15.6-18.5-28.5 0-8.8 2.2-14.5 8-20.9 7.4-8.3 21.7-12.8 24.7-8zm311.1-1.5c2.1.8 2 2.3-.5 9.7-1.9 5.4-2 6.8-1 10.4 1.5 5.4 6 9.9 11.4 11.4 3.6 1 5.1.8 10.9-1.1 5.5-1.9 7-2.1 8.3-1 2.1 1.7 1.9 5.9-.5 12.3-2.6 7-7.5 12.5-14.1 16.2-4.9 2.7-6.2 3-14.9 3-7.9 0-10.2-.4-13.7-2.3-6.7-3.5-11-7.9-14.3-14.4-6.9-13.9-2.1-32 10.7-39.9 6.6-4.1 13.7-5.8 17.7-4.3zM268 181c2.9 1.6 3.6 3.5 6.9 18.3 3.2 14.6 4.4 17.7 6.6 17.7 2 0 3.6-3.4 8.1-17.4 4.4-13.4 6.7-16.6 11.7-16.6 4.7 0 24 3.6 26.6 4.9 3.3 1.8 3.6 5.6 1.2 18-1.3 6.4-2.4 12.5-2.7 13.7-.2 1.1.2 2.9 1 3.9 1.9 2.7 4.1 1 14.9-11.2 13.5-15.3 14.1-15.8 19-15.7 4.2.2 27.1 8.1 31.4 10.9 3.6 2.4 2.9 6.1-2.7 15.2-5.7 9.3-6.6 12.6-3.4 13.1 1.2.2 8.5-2.9 16.4-6.8 8.6-4.2 15.5-7 17.4-7 3.6 0 16.1 6.8 30.6 16.7 13.2 9.1 17 12.9 17 17 0 3.9-10.9 26.2-14.5 29.9-2.9 2.9-5.1 3-20.1.7-6.1-.9-11.9-1.3-12.8-1-3.5 1.4-1.6 4.6 7.1 11.9 11.5 9.7 12.3 11.1 9.4 16.9-1.2 2.4-4.6 7.6-7.4 11.4-7.2 9.6-8.8 9.7-23.5 1.6-11.8-6.6-16.2-7.6-16.2-3.8 0 1.2 3.2 7.6 7 14.2 3.9 6.6 7.3 13 7.7 14.3.8 3.2-.6 5.9-6.6 12.4-6.5 7.1-11.3 10.2-14.6 9.4-1.3-.3-7.6-5.3-14-11.1-15.2-13.7-18.4-13.9-14.7-.8 1 3.7 3.4 11.6 5.2 17.4 3 9.5 3.2 11 2.1 13.7-2.2 5.3-24.6 18.6-30.3 18-3.7-.3-4.8-2.1-11.6-18.3-2.9-7-4.2-9.1-5.9-9.3-2.8-.4-3.7 2.5-6.3 20.3-2.3 15.6-3.5 18.3-9.4 20.2-4.9 1.7-15.1 3.3-20.7 3.3-6.3 0-7.5-1.6-11.6-15.7-1.9-6.5-4.2-12.6-5.1-13.6-1.5-1.7-1.6-1.7-3.3 0-1 1-3.2 7-4.9 13.3-3.8 14.4-5.6 16.5-13.4 15.5-7.7-1-21.3-4.3-24.5-6-3.6-1.8-4.6-4.6-6.7-19.3-1.8-12.8-3.5-18.2-5.7-18.2s-3.2 1.7-7.2 11.5c-2 5-4.3 10-5.1 11.3-2.9 4.4-9.4 2.4-25.7-8-11.5-7.4-11.5-7.5-5.7-26.2 6.8-21.9 5.2-24.3-8.1-12.3-11.2 10.1-14.8 12.7-17.6 12.7-2.4 0-12.4-8.4-17.6-15-3.8-4.7-3.3-7.1 4.2-19.8 3.4-5.7 6.4-11.7 6.8-13.3.5-2.6.3-2.9-2.1-2.9-1.5 0-8 2.8-14.5 6.2-14.7 7.8-14.9 7.8-24.4-4.6-10.2-13.5-10.2-14.3 2.3-24.6 8.7-7.2 11.1-10.3 9.2-12.2-1-1-3.8-.9-13.5.5-16.1 2.3-19 2.2-22.1-.6-3.7-3.3-16.6-26.7-16.6-30 0-4.5 1.4-6.1 13.3-15 14.6-11 27.3-18.7 30.8-18.7 1.5 0 9.2 3.2 17.1 7 7.8 3.9 15.1 7 16.3 6.8 3.3-.5 2.2-4.8-3.5-13.7-6.7-10.5-6.6-12.6 1-16.4 8.2-4 24.6-9.7 28.3-9.7 4 0 6.7 2.3 18.3 15.5 10 11.4 12.9 13.9 14.9 13.1 2.1-.8 1.9-4-1.1-18.4-2.7-13.4-2.6-16.4.9-18.6 2.7-1.8 18.3-4.6 25.3-4.6 6.9 0 8.2 1.7 13.4 17.2 4.3 13.2 6.8 17.7 8.9 16.4 1.8-1.1 2.9-4.6 5.7-18 2.6-12.3 4.4-17 6.6-17.9 2.4-1 24.9-.7 26.8.3z" fill="#f2f2f2"/></svg>