<svg version="1.0" xmlns="http://www.w3.org/2000/svg" width="682.667" height="682.667" viewBox="0 0 512 512"><g fill="#f2f2f2"><path d="M188.6 19.1c-51.5 7.1-85.6 40.1-93 90.1-2.9 19.1-1.9 38.5 3.1 63.9 1.4 7.5 2.3 14.4 2 15.4-1 2.4-4 1.7-15.4-3.3-15.3-6.9-23.5-8.6-40.8-8.6-17.6-.1-24.7 1.3-27.3 5.2-1.4 2.1-1.7 5-1.7 15.4 0 9.1.4 13.1 1.3 14 1 1 6.2 1.3 21 1.3 18.8 0 20.1.2 27.7 2.8 28.6 9.7 53.4 33.8 72.9 70.8 15.9 30.4 22.8 82.6 15.6 118.3-5.5 27.8-15.4 47-36.1 70.3-11.6 13.1-12.7 14.9-10.5 17.2 1.5 1.4 5.8 1.6 39.5 1.6 31 0 38.3-.3 40.5-1.4 4.8-2.6 13.1-23.7 17-43.1 7.5-37.5 2.5-84.5-14.3-134.1-7.9-23.5-13.6-36.7-30.3-70.2-17.2-34.4-23.2-48.6-27.7-66-4.7-17.7-5.6-24.9-5.5-41.7.1-13.2.5-17 2.7-25.1 6.5-24.9 20.8-42.9 42.2-53.5 13.5-6.6 22.4-8.7 38-8.7 20.6-.1 35.7 4.9 51.7 17 8.1 6.2 10.1 9 9.4 13.3-2 12.2-2 11.7 1.1 14.9 5.4 5.3 15.5 6.5 26.4 3.1 11.8-3.7 19.9-12.1 18.4-18.9-.7-3.2-2.7-5.4-8.1-8.6-2-1.2-6.6-6.2-10.3-11.1-14.5-19.3-37.3-32.7-65.4-38.5-11.7-2.4-33.5-3.3-44.1-1.8zM340.2 76c-2.6 1.1-3.4 3-5.2 12.2-1.6 8.2-.9 9.5 7.9 12.7 23.7 8.6 43.4 34.9 52.2 69.7 4 15.9 5.3 29.9 4.5 48.6-.9 20.5-.8 20.6 17.8 19.5 10.4-.6 25.5-4.3 30.2-7.3 3.7-2.5 3.1-5.7-3.9-19.4-8.7-17.3-12.7-29-21.2-62.1-4-15.7-8.5-31.6-10-35.5-9.6-24.3-24.2-34.8-53.5-38.4-10.1-1.2-15.7-1.2-18.8 0z"/><path d="M237.4 107.1c-4.4 2.9-11.3 8.6-15.5 12.8-13.2 13.2-17.9 26.6-15.8 45.1 1.2 10.8 1.9 13.6 9.4 40 8.5 29.6 11.3 43.2 12.6 62.5.6 8.8 1.5 17 1.9 18.2 1.1 2.6 3.7 3.1 10.9 2 19.9-2.9 45.2-18.1 42.4-25.4-.4-1-3.6-6.2-7.1-11.5-10.8-16.6-18.1-33.9-22.8-54.3-2.9-12.3-2.7-38.3.4-48.8 2.2-7.6 7.1-18.2 11.1-24.2 3.4-4.9 2.7-6.5-5.8-14.3-9.9-9-11-9.1-21.7-2.1z"/><path d="M309.3 116.5c-19.7 4.3-33 17.5-37.8 37.6-1.7 7.4-2 25.4-.5 34.6 6.4 39.3 35.1 78.6 67.9 93 8.3 3.6 13.5 4.1 16.9 1.7 3.2-2.2 9.9-12.4 14.2-21.8 20.2-43.2 11.7-105.5-18.1-133.1-12.7-11.7-26.3-15.5-42.6-12zM405 270.8c-4.9 2.4-8 7.5-8 12.9 0 9.3 5.6 15.3 14.4 15.3 8.9 0 14.6-5.4 14.6-14 0-6.3-2.7-11-8-13.8-5.3-2.7-8.4-2.8-13-.4zm48.3 38.2c-3.9 2.4-5.3 4.8-5.3 9.5 0 2.9.8 4.5 3.5 7.2 3.2 3.2 3.9 3.5 7.8 3 10.7-1.4 13.5-15.7 4-20.6-3.2-1.6-6.4-1.3-10 .9zm-83.1 5.4c-3.1 2.9-6.8 5.7-8.2 6.1-7.7 2.3-12 7.8-12 15.5 0 9.7 8 16.3 17.5 14.6 5.1-1 9.1-4.9 11.5-11.4 1.3-3.3 4-7.6 6.6-10.4 3.7-4 4.4-5.3 4.4-8.9 0-5.6-5-10.9-10.5-10.9-3 0-4.6.9-9.3 5.4zm-95.6 1.6c-4.2 3.8-7 10.2-6.1 14.7 1.2 6.4 8.5 12.3 15.2 12.3 7.2 0 14.3-7.7 14.3-15.5 0-11.9-14.7-19.1-23.4-11.5zM70.7 337.7c-.4.3-.7 4.1-.7 8.3 0 4.2-.7 10.1-1.6 13.1-5.2 17.7-23.1 30.9-42 30.9-9.6 0-10.9 1.5-10.9 12.7 0 10.9 1.3 13.5 7.9 15.2 15.6 3.9 32.8-2 46.6-15.9 12.4-12.4 17.6-24.7 16.8-39.9-.4-6.7-1-9.7-3.1-13.7-3.8-7.4-10.7-13.1-13-10.7zM445.4 354c-3.6 1.4-6.4 5.9-6.4 10.2 0 3.2.7 4.7 3.4 7.4 3.8 3.8 7 4.3 11.6 1.9 3.9-2 6-5.3 6-9.2 0-8.4-7-13.4-14.6-10.3zM378 374.1c-8.2 2.5-13 9.1-13 18 0 19.8 26 27.3 34.8 9.9 2.9-5.7 2.9-12.9.1-18.7-3.6-7.3-13.7-11.6-21.9-9.2zm-66.5 12.8c-5.1 2.1-8.1 8.6-6.5 13.7 2.5 7.4 11 9.8 16.9 4.8 9.1-7.6.5-22.9-10.4-18.5zm160.9 23.2c-7.3 2.1-11.7 10.6-9.5 18.1 4.4 14.5 24.3 14.9 28.2.6 2.1-8-2.5-16.7-9.9-18.8-4.2-1.1-4.6-1.1-8.8.1zm-208 12.3c-9 4-11.1 16.6-4 24.3 2.8 3.1 4 3.7 8.8 4.1 9.9.8 15.8-4.6 15.8-14.4 0-11.1-10.6-18.3-20.6-14zm141 17c-2.7 2.7-3.4 4.2-3.4 7.3 0 4.7 2.2 8.1 6.4 9.8 4.2 1.8 8.1.9 11.6-2.7 2.4-2.4 3-3.8 3-7.5 0-9.8-10.5-14-17.6-6.9zM341.3 464c-6.8 4.1-8.7 13.8-4.1 20.8 4.5 6.7 12.1 8.9 18.8 5.3 13.8-7.3 8.7-28.1-7-28.1-2.7 0-5.8.8-7.7 2zm119.6 1.9c-4.3 4.3-4.1 10.1.5 14.7 5.7 5.7 14.1 4.2 17.2-3.1 4.3-10.5-9.6-19.6-17.7-11.6z"/></g></svg>