<svg xmlns="http://www.w3.org/2000/svg" viewBox="0 0 512 512" height="682.667" width="682.667" version="1.0"><path d="M203.033 26.138c-14.276 4.619-31.91 19.524-47.34 40.202-11.336 15.115-16.27 24.877-18.159 35.794-1.68 10.076-3.569 12.386-10.916 13.12-4.514.42-5.459.105-6.403-1.68-3.464-6.507-1.68-19.733 4.513-33.693 4.409-9.657 4.724-12.386 1.47-13.646-1.365-.525-16.585-1.47-33.904-2.1-17.32-.629-43.036-2.098-57.207-3.253-14.17-1.155-27.92-2.1-30.65-2.1-9.027 0-8.187-21.308-8.187 211.192 0 131.628.42 207.413 1.05 209.093 1.574 4.199 4.303 3.359 14.17-4.199 4.933-3.779 10.496-7.452 12.386-8.292 1.89-.735 12.596-2.624 23.827-4.094 72.637-9.762 114.623-27.396 137.506-57.731 2.414-3.15 5.563-6.193 7.137-6.823 1.575-.63 11.547-1.574 22.253-2.204 66.654-3.779 115.568-15.85 161.018-39.677 12.701-6.613 15.01-8.818 11.651-11.442-3.149-2.309-33.064-1.154-46.71 1.89-14.59 3.254-15.43 3.359-18.369 2.624-3.149-.84-6.822-6.298-6.822-10.182 0-5.038 6.822-8.607 23.197-12.071 7.453-1.574 14.38-1.89 43.561-1.994 31.49 0 34.954-.21 37.578-1.89 5.563-3.674 24.037-31.175 27.501-41.041 1.994-5.669 1.155-7.558-5.038-10.707-11.232-5.668-18.474-15.43-20.784-27.816-1.154-6.088-.524-12.7 2.1-22.043.734-2.624 1.05-5.983.734-7.452-.84-3.15-2.624-3.99-31.384-14.38-28.656-10.288-29.076-10.497-30.65-13.646-.735-1.47-1.785-5.564-2.205-9.028-.42-3.463-2.1-9.866-3.779-14.17-8.187-21.098-22.147-30.545-65.288-44.506-13.331-4.408-25.822-8.922-27.712-9.971-4.093-2.625-5.353-5.039-15.01-28.971-13.645-33.8-19.943-44.61-29.705-50.384-4.934-2.834-11.441-3.988-15.43-2.729zm1.994 25.402c2.1 1.994 5.354 7.977 5.354 9.972 0 .42-4.619 5.248-10.287 10.811-11.546 11.442-15.955 18.894-18.16 30.965-1.784 9.447-3.988 12.176-9.761 12.176-9.132 0-11.232-4.513-7.978-17.32 4.829-19.103 17.74-37.997 32.015-46.814 4.094-2.52 5.878-2.52 8.817.21zM104.89 134.988c3.044 3.254 4.303 8.817 2.729 11.861-.63 1.155-4.409 3.989-8.398 6.298-16.164 9.552-31.49 22.358-40.307 33.904-10.286 13.436-15.01 25.087-10.811 26.662.84.314 5.353-1.155 10.182-3.254 4.723-2.1 11.546-4.409 15.01-5.249 7.452-1.784 28.13-2.099 31.175-.525 3.359 1.89 2.309 5.774-5.459 19.21-13.54 23.512-21.413 42.09-20.678 49.123l.315 3.57 11.546.63c11.757.734 16.06 1.784 25.402 6.612 10.812 5.458 11.231 8.187 2.73 19.419-8.083 10.811-12.072 18.894-11.652 23.932.315 3.464.735 3.989 3.149 4.304 1.47.21 4.618-.63 6.823-1.68 5.143-2.624 13.54-4.408 20.888-4.408 9.132 0 12.7 4.933 9.762 13.435-1.26 3.569-4.094 4.934-13.226 5.878-11.021 1.05-16.27 5.563-26.556 22.673-3.15 5.353-6.613 10.287-7.663 10.916-4.303 2.73-6.928-2.729-11.231-24.037-1.89-8.817-2.31-13.645-1.89-22.463.42-9.971.84-12.07 4.304-20.048 4.724-10.812 4.828-13.33 1.155-14.695-4.829-1.89-12.701 1.05-27.396 10.181-9.552 5.878-12.282 5.774-12.701-.42-.42-5.248 3.988-28.97 7.767-41.986 1.47-5.038 5.038-14.8 7.873-21.518 2.939-6.718 5.143-13.12 4.933-14.17-.21-1.26-1.47-1.995-3.464-2.205-4.828-.42-14.275 6.193-27.396 19.419-6.298 6.403-12.176 11.861-13.226 12.176-3.254 1.155-4.933-2.624-6.088-13.436-3.359-32.12 11.232-64.134 40.727-89.326 12.91-11.021 32.644-23.512 37.158-23.512 1.05 0 3.149 1.26 4.514 2.729zm166.79 29.705c8.083 2.73 19.314 6.088 24.773 7.348 5.458 1.26 11.231 2.834 12.806 3.359 5.353 2.1 8.187 13.436 4.303 16.9-1.05.944-3.254 2.414-5.038 3.253-1.68.945-4.304 3.36-5.773 5.354-6.088 8.292-15.535 11.126-24.352 7.137-6.298-2.729-9.972-7.872-11.442-15.535-.63-3.358-1.574-6.927-2.1-7.872-.524-1.05-4.513-3.254-9.026-5.143-10.392-4.304-12.806-5.983-13.54-9.132-1.05-3.99 6.507-10.812 12.07-10.812 1.365 0 9.132 2.31 17.32 5.143zm169.836 66.444c-1.68 1.68-1.575 10.811.21 14.275 3.044 5.878 9.027 9.342 12.596 7.348 2.519-1.365 2.1-7.453-.84-13.226-4.409-8.607-8.712-11.651-11.966-8.397z" fill="#f2f2f2"/></svg>