<svg xmlns="http://www.w3.org/2000/svg" version="1.0" width="682.667" height="682.667" viewBox="0 0 512 512"><path d="M383.069 43.411c-.518-.306-1.415-.496-2.7-.659-4.028-.503-8.548.53-11.56 2.662-2.924 2.062-4.396 4.131-9.114 12.983-4.22 7.894-4.595 8.466-6.554 10.198-2.229 2.033-5.861 3.724-8.723 4.065-3.82.492-8.074-.293-8.127-1.473.018-.202 1.223-1.211 2.727-2.233 4.513-2.975 6.075-4.6 8.569-8.966 3.107-5.438 3.707-9.122 2.57-15.702-1.049-6.227-5.31-15.066-7.247-14.986-.347.014-.51.98-.522 3.123-.003 4.418-.407 6.398-1.857 8.935-1.658 2.902-3.168 4.192-9.951 8.51-3.083 2.001-6.373 4.278-7.277 5.096-3.934 3.576-6.585 8.215-8.03 14.053-.32 1.24-.717 2.529-.913 2.871-.888 1.554-2.23-.934-3.742-7.03-2.362-9.275-2.072-14.618 1.124-21.399 1.018-2.206 1.61-3.837 1.445-4.143-.47-.873-2.589-.563-6.239.904-8.445 3.494-13.402 8.608-14.8 15.382-1.136 5.47-.558 10.308 2.807 23.513 2.994 11.665 3.62 16.306 3.084 21.813 8.159-1.748 19.111-.838 28.88 2.39 3.856 1.264 8.623 3.511 13.433 6.196 8.017 4.473 16.15 10.163 20.368 14.559 5.227 5.54 9.295 11.526 11.88 17.215 3.17-1.508 6.998-2.571 13.554-3.764 15.22-2.791 20.242-4.629 25.563-9.445 2.088-1.87 4.562-5.52 4.608-6.704.036-1.251-.26-1.238-6.419.376-5.135 1.35-11.053 1.013-17.047-.972-3.832-1.27-11.216-5.407-12.46-6.962-1.233-1.578-.454-1.92 3.687-1.444 9.702 1.095 17.776-.31 23.712-4.08 1.934-1.262 2.306-1.655 4.16-4.9 1.93-3.293 2.064-3.702 2.16-6.16.107-3.33-.979-6.943-3.257-10.932-1.748-3.052-3.186-4.778-4.218-5.092-.75-.215-.978.352-1.246 2.773-.913 8.048-6.8 14.449-13.015 14.125-3.392-.173-7.239-2.693-10.236-6.697-1.995-2.618-5.274-8.507-6.441-11.472-4.538-11.661-2.645-22.784 5.416-31.885 2.397-2.737 3.088-3.969 1.948-4.642zm-52.257 82.94c-4.81-2.684-9.577-4.93-13.434-6.196-10.769-3.558-22.99-4.311-31.305-1.778-15.419 4.69-19.331 16.735-10.944 33.436 2.757 5.577 3.135 8.47 1.228 9.526-.436.238-5.362.707-10.845.947-15 .78-37.73 7.307-39.142 11.226-.713 2.054 1.917 3.302 12.266 5.724 22.352 1.135 49.266 3.236 74.78 31.133 8.737 7.015 13.078 16.147 21.912 25.691 7.8 8.442 8.743 9.195 10.239 7.997 3.354-2.678-1.726-25.846-8.82-40.204-2.384-4.864-4.255-9.427-4.203-10.188.392-1.846 2.23-2.447 9.1-2.86 6.798-.457 14.049-2.528 17.477-5.163 3.501-2.591 6.478-8.162 7.003-13.096.93-8.653-4.886-20.976-14.944-31.635-4.218-4.396-12.35-10.086-20.368-14.56zm-65.986-27.137c-2.149-1.164-4.822-2.042-7.237-2.225-9.28-.705-19.16 5.163-22.421 13.238-3.361 8.412-1.843 17.613 3.786 23.69 3.885 4.164 6.974 5.978 9.97 5.76 2.733-.273 3.394-1.567 4.9-9.685 1.432-8.16 4.194-13.364 10.137-19.269 6.03-6.052 5.596-5.315 4.946-7.577-.311-1.32-1.933-2.769-4.081-3.932zm126.245 74.124c-1.485-.836-2.833-1.24-3.752-1.002-1.868.485-3.048 2.662-4.75 8.587-2.11 7.464-5.256 12.144-12.034 17.954-6.415 5.53-7.293 7.191-5.147 9.936 4.867 6.026 17.983 7.106 25.895 2.06 10.15-6.499 13.414-20.803 6.976-30.72-1.864-2.827-4.715-5.422-7.188-6.815zM187.35 74.263c-.89-.491-1.638-.76-2.17-.74-2.444-.05-3.245 1.656-3.968 8.947-.81 7.438-3.484 14.176-5.88 14.549-.817.212-3.724-.903-6.384-2.269-4.394-2.285-4.995-2.44-6.08-1.099-.709.87-1.218 4.427-1.212 8.289.052 8.834-1.995 18.713-5.02 23.86-4.42 7.69-7.374 15.747-7.903 21.866-1.404 14.508 1.803 30.936 7.688 39.44 4.033 5.931 8.93 10.392 11.918 10.862 3.4.612 9.796-5.225 9.574-8.719-.044-1.608-1.987-4.53-3.605-5.481-2.647-1.556-7.715-10.271-8.633-14.768-1.408-6.862-.196-10.106 7.933-21.75 3.769-5.403 10.318-14.018 14.454-19.204 9.764-12.069 15.355-21.25 15.924-26.258.573-4.51-.708-10.408-3.127-14.204-3.146-4.903-9.657-11.195-13.51-13.321zm263.166 154.541c-.971-.6-2.436-1.092-6.27-2.356-6.47-2.12-12.387-2.826-16.914-2.024-9.361 1.621-14.638 8.41-23.636 30.624-3.248 7.885-8.282 18.974-11.302 24.619-5.164 9.628-5.757 10.467-9.086 12.765-5.482 3.604-13.169 4.233-21.529 1.793-5.06-1.49-7.419-.504-9.177 4.003-2.29 5.58-1.349 8.012 4.174 10.565 8.962 4.277 21.054 3.568 33.847-1.873 14.047-5.891 19.335-10.007 27.062-20.8 6.168-8.642 12.94-14.949 21.219-19.778 7.596-4.34 8.294-5.019 8-6.874-.187-1.197-1.31-2.153-4.203-3.458-4.555-2.182-6.517-4.226-5.938-6.557.505-2.375 5.227-7.216 11.141-11.556 5.464-3.911 6.343-5.57 4.231-7.701-.63-.63-1.036-1.031-1.619-1.392zm-168.323-17.04c-8.939-5.091-13.001-6.796-20.994-8.693-7.969-1.938-19.739-2.448-29.42-1.379-26.626 3.037-53.57 17.9-73.49 40.634-6.31 7.194-10.327 12.984-16.079 22.986-7.352 12.907-11.436 23.085-14.607 36.327-3.818 16.028-4.597 36.052-1.825 48.086 1.44 6.408 2.678 5.785 6.028-3.205 2.383-6.223 8.026-17.004 10.675-20.198 7.28-8.8 14.412-8.5 20.728.907 4.362 6.523 6.218 12.78 5.104 17.069-.783 2.929-2.782 5.274-8.536 9.742-5.194 4.068-5.194 4.07-7.811 8.666-2.475 4.344-2.606 4.767-2.786 8.095-.227 4.186.783 9.796 2.717 15.434 2.311 6.627 9.308 20.181 10.853 21.061.251.143.818.023 1.264-.275.537-.359 1.225-1.956 2.156-5.243 3.525-12.21 9.226-16.102 20.279-13.845 2.129.438 7.585 1.83 12.232 3.094 9.651 2.676 14.686 3.552 20.01 3.431 5.35-.162 9.688-1.176 14.157-3.388 7.216-3.636 12.67-8.94 18.965-18.632 2.088-3.181 3.958-5.878 4.267-6.034 2.42-1.333 3.435 5.333 2.075 13.355-.899 5.463-2.964 11.035-6.033 16.424-3.164 5.556-5.385 8.383-11.874 15.31-3.882 4.095-5.109 5.664-4.947 6.254.323 1.18 3.852.426 10.085-2.165 54.498-22.735 88.855-86.651 77.611-144.23-3.117-15.994-11.4-33.214-21.445-44.523-5.536-6.307-10.061-9.825-19.359-15.065zm-137.159 8.397c-1.625-.98-3.751-1.907-6.164-2.682-5.428-1.706-14.587-1.945-23.732-.692-14.127 1.987-21.974 6.081-34.488 18.117-9.034 8.64-14.491 11.863-26.13 15.51-5.544 1.688-9.87 3.498-10.112 4.246-.242.748.698 2.684 2.148 4.426 2.336 2.758 2.488 3.341 1.412 5.677-1.435 3.114-5.482 5.286-14.748 7.754-3.545.983-6.767 2.257-7.113 2.845-1.728 2.942 7.33 11.431 15.167 14.256 11.565 4.224 20.42-.07 37.502-18.027 25.036-26.44 36.728-37.077 42.867-39.107 3.75-1.16 10.262-.797 15.37 1.116 4.52 1.568 7.914.002 10.152-4.816 1.162-2.482 1.524-4.448 1.03-5.628-.41-.984-1.535-2.015-3.16-2.995zM343.38 336.939c-1.613-.96-3.03-1.198-4.65-.964-2.163.312-2.977 1.022-4.761 4.227-2.692 4.749-2.22 6.807 2.743 11.999 2.037 2.087 4.452 5.386 5.392 7.323 2.969 6.394.737 18.438-9.511 51.195-8.275 26.2-9.172 32.102-6.475 40.81 1.866 5.746 4.706 8.996 11.631 12.868 6.22 3.556 12.183 4.689 13.89 2.625.622-.722.39-4.026-.737-8.843-1.676-7.416-1.891-13.28-.508-15.633.864-1.47 2.865-1.679 6.896-.794 2.036.406 3.88.301 4.46-.347.622-.723.277-4.682-.915-10.23-2.704-12.57-2.56-19.213.747-33.593 3.29-14.687 3.317-21.298-.178-32.354-3.013-9.685-7.223-17.5-12.202-22.999-2.401-2.647-4.21-4.33-5.822-5.29zm-231.1-44.952c-.845-.45-2.14-.57-4.858-.777-5.782-.43-16.184 2.457-22.09 6.11-7.141 4.409-12.254 9.912-17.673 18.796-4.222 7.016-4.682 8.133-5.004 12.89-.193 2.854.407 9.24 1.373 14.16 2.107 11.23 1.144 16.403-5.528 29.102-5.405 10.376-5.422 11.75-.363 11.558 9.535-.233 10.609.298 9.729 4.826-.294 1.51-2.131 5.475-4.076 8.784-5.315 9.044-4.397 10.177 7.217 8.594 2.936-.45 5.804-.449 6.54-.017 1.984 1.167 3.194 5.34 3.452 11.13.167 7.122.838 10.188 2.382 11.096 2.5 1.47 4.919-.967 10.58-10.6 6.092-10.367 7.266-14.723 6.895-25.032-.259-7.472-1.722-14.07-6.983-31.21-5.425-17.532-7.09-26.82-6.45-35.149 1.024-12.852 4.168-16.347 16.682-18.787 6.468-1.243 7.646-1.738 8.943-3.944 1.771-3.014 2.156-7.538.85-9.691-.572-.942-.96-1.49-1.617-1.84zM296.9 401.404c-.743-.405-1.494-.6-2.242-.557-1.916.062-6.262 3.246-7.602 5.526-1.037 1.765-.876 3.342.747 8.154 3.758 11.112 2.407 16.947-5.569 22.944-6.61 5.019-15.558 8.464-29.836 11.549-29.33 6.308-37.596 9.267-46.64 16.912-4.093 3.43-5.756 5.418-9.516 11.815-5.012 8.53-6.014 12.592-3.51 14.558 1.121.955 2.754.53 7.298-1.647 12.218-5.977 14.564-5.588 17.797 2.544 3.745 9.62 4.93 9.626 11.45-.293 6.695-10.212 8.72-10.803 11.798-3.751 2.316 5.318 3.898 6.84 5.658 5.698.8-.52 3.905-4.629 6.848-9.132 7.472-11.536 10.185-13.798 21.241-17.292 12.734-3.993 16.788-6.853 22.18-15.357 7.602-11.756 10.484-24.904 7.967-36.276-1.795-7.887-4.847-13.637-8.069-15.395z" fill="#f2f2f2"/></svg>