<svg xmlns="http://www.w3.org/2000/svg" viewBox="0 0 512 512" height="682.667" width="682.667" version="1.0"><path d="M339.82 68.299c-11.969-3.49-25.422-3.838-34.457-.731-16.753 5.752-20.581 19.136-10.717 37.154 3.246 6.019 3.774 9.182 1.72 10.416-.47.279-5.862.986-11.875 1.464-16.447 1.442-41.161 9.497-42.56 13.857-.702 2.284 2.235 3.553 13.698 5.81 30.68 5.936 58.72 18.331 83.506 36.746 9.872 7.365 14.847 11.761 24.924 21.9 8.897 8.97 9.963 9.759 11.559 8.384 3.58-3.073-2.906-28.323-11.258-43.818-2.81-5.25-5.041-10.187-5.014-11.025.359-2.044 2.354-2.777 9.886-3.5 7.449-.766 15.333-3.323 18.996-6.35 3.745-2.984 6.798-9.22 7.183-14.66.684-9.542-6.186-22.85-17.65-34.167-7.689-7.462-26.513-18.176-37.942-21.48zm-66.58-23.115c-10.221-.413-20.844 6.418-24.111 15.415-3.364 9.371-1.338 19.42 5.081 25.876 4.43 4.421 7.893 6.294 11.177 5.939 2.99-.408 3.667-1.854 5.004-10.83 1.255-9.02 4.085-14.842 10.383-21.56 6.388-6.884 5.942-6.06 5.14-8.518-.788-2.878-7.354-6.11-12.674-6.322zm145.442 77.706c-2.032.606-3.243 3.042-4.881 9.617-2.028 8.282-5.302 13.546-12.52 20.192-6.831 6.324-7.73 8.183-5.266 11.114 5.582 6.43 20.032 7.105 28.525 1.254 10.897-7.535 13.923-23.377 6.464-34.02-3.452-4.85-9.653-8.951-12.322-8.156zM180.803 23.963c-2.685.04-3.502 1.943-4.012 9.98-.6 8.202-3.274 15.708-5.89 16.211-.89.265-4.126-.846-7.101-2.242-4.916-2.339-5.583-2.486-6.722-.97-.745.982-1.165 4.911-1.008 9.153.401 9.702-1.46 20.632-4.582 26.404-4.556 8.62-7.487 17.586-7.83 24.328-.976 15.992 3.187 33.911 9.983 43.022 4.661 6.358 10.214 11.067 13.515 11.467 3.758.54 10.558-6.12 10.177-9.95-.11-1.765-2.359-4.9-4.173-5.88-2.968-1.606-8.874-10.982-10.059-15.886-1.814-7.483-.608-11.093 7.868-24.201 3.928-6.082 10.785-15.802 15.126-21.66C196.349 70.1 202.133 59.8 202.563 54.276c.453-4.977-1.185-11.405-3.99-15.48-4.49-6.479-14.658-15.07-17.77-14.834zm307.962 166.995c-7.19-2.077-13.716-2.622-18.658-1.565-10.22 2.146-15.751 9.812-24.769 34.564-3.26 8.787-8.357 21.165-11.455 27.483-5.296 10.777-5.914 11.722-9.48 14.376-5.881 4.173-14.302 5.16-23.58 2.807-5.617-1.44-8.171-.263-9.927 4.756-2.297 6.218-1.165 8.855 5.001 11.444 10.011 4.349 23.264 3.097 37.105-3.378 15.2-7.02 20.847-11.745 28.915-23.902 6.437-9.734 13.631-16.927 22.537-22.555 8.175-5.064 8.913-5.837 8.516-7.863-.251-1.308-1.52-2.314-4.748-3.634-5.088-2.22-7.326-4.389-6.781-6.972.462-2.627 5.463-8.13 11.79-13.127 5.85-4.51 6.748-6.368 4.346-8.627-1.914-1.781-1.997-1.826-8.812-3.807zM286.426 164.65c-2.425-.246-3.829.38-5.782 2.414-1.431 1.464-15.492 23.914-31.389 49.955-41.537 68.125-49.343 79.996-50.403 76.439-.688-2.078 13.375-32.413 42.751-92.835 8.305-16.93 15.865-32.878 16.911-35.403 2.5-6.002 1.643-9.343-2.514-10.525-4.321-1.272-8.39-1.235-10.45.209-.986.639-11.682 16.276-23.73 34.806-32.264 49.8-39.858 60.294-39.906 55.259-.04-2.686 4.878-14.734 16.348-40.078 22.346-49.196 21.893-48.162 21.098-50.83-.56-2.115-1.056-2.383-3.645-2.718-7.066-.73-13.424 3.93-27.626 20.336-11.243 13.103-17.42 22.551-27.138 41.701-14.326 28.063-20.898 52.431-21.822 81.134-.562 18.774 3.876 42.49 10.965 58.154 4.116 8.941 12.29 20.823 18.597 26.899 5.615 5.382 8.718 6.74 11.203 5.1 1.97-1.279 115.729-211.206 115.497-213.143-.11-1.766-2.441-4.945-4.173-5.881-.869-.364-2.95-.85-4.792-.993zm27.754 16.077l-3.131.864-56.908 105.215-56.908 105.214.946 3.176c1.136 3.812 3.414 4.724 15.518 6.582 39.323 5.921 85.352-16.717 119.806-58.938 18.385-22.563 32.01-49.725 39.583-79.095 3.402-13.187 3.988-20.97 1.816-23.85-3.781-5.03-5.429-3.363-21.827 22.62-27.185 43.168-36.34 56.547-38.072 55.61-1.897-1.025 2.167-11.297 24.739-62.29 8.87-20.142 16.191-37.817 16.365-39.321.177-2.889-1.05-5.152-4.752-8.752-3.498-3.385-6.743-2.902-9.774 1.321-1.317 1.845-14.647 23.732-29.672 48.751-34.66 57.777-43.537 71.627-45.721 71.724-2.858.16 2.256-11.462 44.786-101.326 19.264-40.738 18.657-38.828 12.863-43.88-4.36-3.958-6.309-4.692-9.657-3.625zm-176.89 4.083c-6.029-1.663-16.099-1.567-26.096.166-15.44 2.733-23.9 7.537-37.176 21.245-9.587 9.843-15.454 13.597-28.097 18.056-6.023 2.07-10.707 4.227-10.943 5.058-.237.832.87 2.923 2.53 4.78 2.675 2.938 2.864 3.573 1.773 6.18-1.454 3.478-5.814 6.022-15.896 9.095-3.856 1.218-7.345 2.742-7.702 3.402-1.784 3.298 8.498 12.27 17.217 15.067 12.868 4.189 22.427-.873 40.49-21.264 26.469-30.02 38.898-42.163 45.563-44.633 4.073-1.42 11.24-1.274 16.926.629 5.026 1.546 8.693-.308 10.963-5.688 1.18-2.772 1.501-4.943.913-6.22-.98-2.13-5.103-4.359-10.465-5.874zm239.839 130.575c-2.363.427-3.228 1.238-5.063 4.828-2.772 5.322-2.173 7.565 3.48 13.074 2.32 2.213 5.1 5.742 6.208 7.833 3.51 6.909 1.53 20.226-8.449 56.607-8.067 29.102-8.822 35.622-5.52 45.082 2.275 6.239 5.52 9.7 13.277 13.682 6.97 3.664 13.566 4.673 15.36 2.34.656-.818.27-4.438-1.156-9.685-2.13-8.08-2.595-14.513-1.168-17.151.892-1.65 3.083-1.957 7.545-1.142 2.254.366 4.273.18 4.884-.556.655-.818.124-5.155-1.401-11.203-3.46-13.701-3.561-21.003-.49-36.928 3.04-16.26 2.812-23.524-1.458-35.532-3.688-10.522-8.618-18.944-14.302-24.79-5.482-5.628-8.203-7.1-11.747-6.46zM112.59 270.674c-6.368-.247-17.683 3.332-24.027 7.574-7.673 5.123-13.075 11.367-18.681 21.337-4.364 7.871-4.824 9.115-4.992 14.353-.101 3.142.806 10.134 2.06 15.502 2.751 12.253 1.896 17.972-4.937 32.181-5.533 11.609-5.497 13.12.053 12.711 10.464-.628 11.663-.086 10.873 4.922-.263 1.67-2.126 6.098-4.133 9.809-5.485 10.142-4.434 11.35 8.263 9.158 3.207-.61 6.357-.718 7.181-.272 2.226 1.204 3.716 5.74 4.225 12.09.462 7.817 1.319 11.158 3.05 12.095 2.804 1.516 5.368-1.254 11.21-12.056 6.289-11.626 7.409-16.456 6.598-27.765-.575-8.198-2.44-15.389-8.888-34.01-6.644-19.048-8.835-29.185-8.456-38.36.624-14.157 3.939-18.119 17.59-21.287 7.056-1.619 8.334-2.207 9.672-4.68 1.828-3.381 2.072-8.365.553-10.679-1.52-2.314-1.894-2.41-7.214-2.623zm209.947 113.13c-2.101.142-6.75 3.81-8.132 6.365-1.07 1.98-.833 3.707 1.139 8.93 4.561 12.059 3.305 18.52-5.222 25.418-7.065 5.771-16.762 9.905-32.325 13.851-31.97 8.074-40.936 11.644-50.571 20.394-4.363 3.929-6.114 6.18-9.994 13.353-5.173 9.565-6.115 14.065-3.287 16.127 1.268 1.006 3.047.476 7.953-2.093 13.188-7.042 15.778-6.707 19.647 2.1 4.489 10.422 5.79 10.38 12.567-.77 6.954-11.479 9.159-12.205 12.815-4.579 2.75 5.751 4.545 7.361 6.433 6.038.858-.602 4.111-5.237 7.168-10.298 7.758-12.963 10.652-15.555 22.66-19.825 13.831-4.882 18.174-8.181 23.766-17.733 7.892-13.21 10.54-27.764 7.332-40.158-2.805-10.576-7.573-17.525-11.949-17.12z" fill="#f2f2f2"/></svg>