<svg version="1.0" xmlns="http://www.w3.org/2000/svg" width="682.667" height="682.667" viewBox="0 0 512 512"><g fill="#f2f2f2"><path d="M284 100.5c-15.5 3.1-35.2 12.5-61.8 29.2-36.8 23.2-48.2 29.4-62.2 33.7-5 1.5-17.9 3.8-31 5.6-27.2 3.7-36.3 5.4-45.5 8.7-19.6 7.1-29.1 19.6-32.5 43-1.6 10.9-3.4 17-9.2 30.6-4.7 10.8-5.6 12.2-10.7 16.4-3.1 2.5-6.7 6.1-8.1 8.1-2.3 3.2-2.5 4.3-2.5 14.6 0 16.8 3.6 21.5 12.5 16.5 5.4-3.1 6.9-6.1 8.1-16.6 1.6-14.1 8.1-30.8 11.7-30.1 5.1 1 3.2 23.6-4.8 56.7-4.9 19.9-5 24.8-1 44.1 4.9 24.4 13.4 48.6 17.9 51 1.1.5 7.5 1 14.3 1 17.2 0 17.8-.8 9.4-13.4-12.9-19.3-17.4-35-14.6-50.2 1.5-7.6 4.5-11.9 9.3-12.9 1.7-.4 7.2-2 12-3.7 12.8-4.3 11.4-5.9 23.7 27.7 8.9 24.3 22 48.1 28 51.2 2.6 1.3 29.3 1.9 32.4.7.9-.3 1.6-1.7 1.6-3.1 0-1.9-2.9-5.5-10.8-13.7-16.8-17.3-21.6-24.6-25.1-37.6-3.5-13.5-3.6-29.9-.2-33.3.9-.9 9.2-1.2 28.9-1.2 25 0 28.7-.3 37.6-2.3 5.4-1.2 11.6-2.2 13.7-2.2 5.6 0 6.1 2 4.8 18.1-1.3 15.7-.8 18.6 6.1 31.7 5.5 10.4 19.8 30.6 27.5 38.8l5.1 5.4h14.1c11.5 0 14.4-.3 15.7-1.6 2.3-2.2 1.3-3.6-12.7-17.6-16.3-16.3-20.7-25-20.7-41 0-12.4 6.8-29 11.2-27.3 1 .4 7.1 8.4 13.5 17.9 6.5 9.4 16.1 22.5 21.4 29.1 10.9 13.6 33.7 36.2 39.1 38.8 5.1 2.4 27.9 2.5 30.2.1 1.5-1.4 1.5-1.8 0-4.3-.9-1.5-6.8-7.5-13.1-13.2-17.8-16.1-28.2-28.6-34.6-41.4-7.8-15.8-9.4-29.3-3.6-30.8 1.1-.3 6.4.5 11.7 1.8 5.3 1.3 12.6 2.7 16.2 3 3.6.4 7.3 1.5 8.3 2.4 1.1.9 4.8 7.6 8.3 14.9 7.1 15 12.8 23.5 20.2 30.4 7.1 6.6 9.5 6.5 15.9-.6 10.2-11.5 15.5-23.4 18-40.6.8-5.8 2-11.1 2.5-11.8 1.8-2.2 5.2-1.3 13.3 3.5 6.4 3.8 8.9 4.8 12.5 4.8 5.5 0 10-2.9 12.5-8.1 1.6-3.5 1.6-4.5 0-19.3-1.8-15.6-1.8-15.7.3-20.4 3-6.9 8.7-15 15.8-22.8 3.5-3.8 6.6-8 7-9.5 1.2-4.6-.4-18.5-3.1-27.9-3-10.3-12.2-30.1-18.8-40.3-5.7-8.7-9.2-10.5-24.7-12.7-28-3.8-27.3-3.6-46.9-16.5-19.1-12.5-21.6-12-14.1 2.7 8.8 17 18.1 26.3 36.3 35.9 15.8 8.3 21.1 15.1 21 26.9-.1 9.9-4.7 18.3-13.1 23.6-6.8 4.3-12 4-25.3-1.4-45.9-18.8-59.9-47.6-41.1-85.2 1.9-3.9 4.8-9 6.5-11.4 5.6-8.2 4-10.6-16.6-24.5C326 101.3 306.1 96 284 100.5zm170.4 145c1.6 1.6 3 8.7 2.4 12.6-.3 2.2-.8 2.4-5.2 2.3-8.7-.1-11.4-6.8-5.2-13 3.7-3.7 5.7-4.2 8-1.9z"/><path d="M372.6 180.6c-1.2 3.1-.5 11 1.3 15 3.8 8.4 13.1 16.3 27.6 23.7 10.7 5.3 14.9 6.4 17.9 4.4 3.2-2.2 4.3-7 2.2-10.2-.9-1.4-3.6-3.7-5.9-5.2-15.3-9.7-21.4-14.1-29.4-21.2-9-8-12.5-9.6-13.7-6.5z"/></g></svg>