<svg xmlns="http://www.w3.org/2000/svg" viewBox="0 0 512 512" height="682.667" width="682.667" version="1.0"><g fill="#f2f2f2"><path d="M226.9 74.6c1.9 12.2 1.9 12.1.1 12.8-1 .3-6.1-.9-11.9-2.9-15.6-5.4-16.7-4.9-16.3 6.3.2 6.8 0 7.3-2.8 10.1-1.6 1.6-40.8 27.1-87 56.6-102.8 65.7-96.9 61.8-98.4 65.2C9.4 225.4.5 325.5.5 336.5c0 7.2.7 7.8 9.6 8.6 7.4.6 8 .8 10.9 4.2 4.6 5.2 9.4 15.7 12.2 26.7 2.2 8.3 2.6 11.7 2.6 26 .1 16.8-1.2 26.7-6.2 47-1 4.1-1.6 8.3-1.3 9.3.8 3 5 3.9 16.4 3.5 9.9-.3 11-.5 13.2-2.8 3.8-3.8 28.6-55.7 28.6-59.8 0-1.9-1.6-7-3.5-11.3-15-34.1-19.3-69.7-11.4-93.5 2.2-6.7 5.2-10.5 7-8.7.6.6 1.7 6.4 2.5 12.9 2.7 23.8 7 38.9 16 56.5 8.6 16.9 21.5 32.9 27.8 34.5 1.3.3 7.8-.8 14.9-2.6 14.2-3.6 17.4-3.5 18.2.8 1.5 7.1 1.9 7.7 5.7 8 3.5.3 38.8-9.3 44.7-12.1 4.6-2.2 3.9-5.4-3.4-14-23.1-27.7-33.7-55.1-32.2-83.6 1-18.4 5.3-30.6 12.3-34.7 4.3-2.6 8.3-2.6 8.5-.1 0 .7.1 9.7.3 20.2.6 40.5 8.3 58.3 42.8 98.3 27.8 32.3 36.8 46.7 44.8 71.8 6.6 20.7 6.3 20.4 17.5 20.4 7.8 0 11.3-1.2 12-4.2.4-1.4-9.2-44.9-23-104.8-13.3-57.7-23.4-104-23.3-106 .4-4.6 3.3-5.1 9.2-1.6 5.6 3.3 6 4.1 18.6 40.6 5.7 16.2 11.5 32 13 35 5.8 11.4 16.3 20.2 28.8 24 5.3 1.7 9.3 2 23.1 2 9.1 0 18.3-.5 20.3-1 4.7-1.4 11.8-8.4 15.2-15.2 2.5-5 3.4-12.5 2-16.2-1.1-2.8-4.8-1.7-10.4 3-10.8 9-27.5 14.8-32.3 11.2-1-.8-2.1-3.2-2.4-5.4-.7-5.3 2.2-8.6 9.7-10.8 10.5-3.3 18.1-9.9 24.8-21.7 4-7 5.5-8.3 9.8-8.3 4.4 0 8.6 4 12.5 11.9 6.2 12.7 7.6 25.9 3.9 37.7-2.4 7.7-2.5 11.4-.4 12.2.9.3 3.9.6 6.7.6l5.2.1 15.4-15.8c18.9-19.5 25.6-27.1 26.6-30.2.6-2-.1-3.1-5.1-7.5-27.6-24.1-38.8-41-42.9-64.1-2.7-15.9-1.9-30.7 3.5-57.7 3.2-15.9 3-18.5-1.2-21.2-3.3-2-48.2-20.5-51.6-21.2-4.8-1-5.5 1-5.3 15.5.2 11.1-.1 13.1-1.7 15.1-2.2 2.8-9.4 3.2-11.9.7-1.9-1.8-3.2-8.7-3.2-17.2-.2-16.6-5.5-46.6-10.2-57.5-4.1-9.4-7.9-10.1-15.1-2.7-9.4 9.7-16.3 22.8-20.5 38.7-2.2 8.1-2.6 12.4-3 28.8-.5 19.1-.6 19.3-3.1 21.2-2.8 2.3-8 2.6-10.6.7-5.5-4-3.9-39 2.9-61.6 3-10 3.1-13.2.8-15.4-2.9-2.5-50.4-21.9-55.2-22.5l-4.4-.5zm115.7 139.6c10.5 4.8 19 15.2 19.2 23.5.2 5.3-2.2 6.8-10.1 6.6-13.4-.4-22.5-5.1-26.8-13.9-2.2-4.4-2.6-6.4-2.2-10.9.6-7.6 1.9-8.8 8.8-8.3 3 .2 8 1.6 11.1 3zM442 76.6c-4.8 3.2-34.2 27.8-37.2 31.1-2.7 2.9-3 6.4-.5 8.5 2.4 2.2 19.6 11.6 22.5 12.3 4.6 1.2 6.3-1.8 14.2-25.5 9.3-27.6 9.5-32.2 1-26.4z"/><path d="M337.3 384.4c-.9 2.1.3 8.6 6.6 37.3 8.6 39.4 8.5 39.1 17.1 39.3 17 .5 18.5-.1 18.5-8.3 0-8.9-5.7-62.4-6.9-64.6-.6-1.1-2-2.5-3-3-2.3-1.3-16.9-3.1-24.8-3.1-5.8 0-6.4.2-7.5 2.4z"/></g></svg>