<svg xmlns="http://www.w3.org/2000/svg" viewBox="0 0 512 512" height="682.667" width="682.667" version="1.0"><path d="M382.798 78.574c-2.203.393-7.002 1.81-10.543 3.147-7.632 2.754-9.205 2.832-13.139.866-4.563-2.282-6.924-2.597-9.913-1.338-5.587 2.36-6.688 9.599-2.282 15.185 6.373 7.946 6.373 8.104 8.418 19.118 4.721 25.885 5.587 45.87 2.518 55.626-1.967 6.215-5.9 11.33-10.7 13.768-9.992 5.272-19.512.787-28.639-13.296-1.888-2.99-8.576-15.657-14.87-28.167-13.532-26.908-18.961-35.484-27.616-44.138-12.273-12.274-26.12-15.972-37.922-10.15-6.059 2.99-10.15 8.734-14.792 21.007-6.294 16.837-12.352 23.21-22.816 23.997-10.78.866-15.028-2.832-23.997-21.4-6.058-12.431-9.52-17.624-12.982-19.434-6.451-3.461-17.466-1.416-25.491 4.721-8.34 6.373-17.074 25.02-22.66 48.466-2.517 10.857-3.619 12.43-9.756 14.161-12.195 3.384-19.67 13.218-27.143 35.484-6.767 20.299-7.868 29.976-7.239 64.044.472 25.177 2.046 45.16 4.013 49.882.944 2.517 1.023 2.517 1.888.786.55-.944 1.652-6.373 2.518-12.116 2.124-13.769 3.304-15.264 6.687-8.576 5.586 11.094 8.97 28.245 9.284 47.128.158 8.182-.078 9.599-1.81 13.847-2.596 6.294-2.674 14.713-.078 20.456 1.73 3.934 1.73 3.934 1.18 33.124l-.55 29.268 2.045 2.046 2.124 2.124 35.327-.236c31.864-.236 35.562-.394 36.742-1.574 3.383-3.304-1.81-9.284-14.398-16.68-4.485-2.674-8.418-5.586-9.048-6.608-.787-1.495-1.023-6.373-1.023-18.568v-16.601l2.282-5.114c3.147-7.16 3.226-14.241.157-20.85-2.832-6.137-3.147-10.15-2.124-23.918.787-10.543 1.023-11.88 3.698-17.31 1.495-3.304 6.688-11.88 11.408-19.118 10.07-15.185 9.914-15.106 19.827-14.004 13.611 1.573 31.471.708 49.252-2.44 7.868-1.337 9.127-1.416 10.7-.393 2.36 1.574 2.754 6.294 2.754 37.53 0 25.491 0 25.648-2.045 31.47-2.597 7.632-2.36 16.68.786 24.076 2.99 7.081 3.856 20.141 2.833 44.532-.394 10.542-.472 20.22-.079 21.479 1.023 3.855 2.754 4.248 21.872 4.248 9.6 0 18.332-.315 19.355-.708 4.091-1.573 3.147-6.53-2.203-10.857-1.495-1.26-6.373-4.328-10.857-6.767-4.406-2.517-8.576-5.35-9.127-6.215-1.337-2.125-2.675-21.873-2.282-34.068.236-6.451.945-11.723 2.203-16.837 1.81-7.002 1.81-7.632.708-12.982-2.36-11.723-.708-43.115 3.698-68.843 2.125-12.981 3.54-16.207 7.003-16.207 1.73 0 2.596.55 3.225 1.967.472 1.101 2.597 17.151 4.642 35.64l3.698 33.675-1.337 7.08c-1.574 8.655-1.102 12.51 2.517 20.614 4.092 9.206 4.878 15.579 7.239 57.592.944 16.287.393 15.657 15.42 16.365 15.421.787 26.751.709 29.033-.236 2.91-1.101 2.675-4.012-.394-6.687-2.753-2.282-8.025-5.114-14.004-7.396-8.104-3.226-11.173-5.035-12.274-7.238-1.81-3.462-3.383-11.88-4.249-23.446-1.416-17.31-1.18-23.368 1.18-30.449 2.597-7.867 2.36-14.79-.786-22.108-1.731-4.17-2.046-6.058-2.046-12.588.079-17.388 3.54-42.722 8.655-62.943 3.068-12.116 4.484-15.656 6.53-17.466.708-.472 5.743-1.652 11.33-2.518 12.745-1.967 18.803-3.383 26.2-6.451 11.958-4.878 21.793-12.746 27.458-22.109 7.789-12.982 10.306-26.2 11.487-59.873.472-11.88.865-15.657 1.967-18.254 2.675-6.215 8.182-7.317 23.996-5.035 13.926 2.046 16.916 2.124 19.512.079 4.17-3.305 4.8-12.825 1.417-19.591-4.17-8.183-11.015-12.746-21.322-14.32-3.226-.472-6.924-1.416-8.183-2.045-1.258-.708-5.586-4.327-9.598-8.183-10.464-9.913-14.949-11.801-24.469-10.15zm12.667 17.466c2.36 3.777-5.193 6.295-9.048 2.99l-1.888-1.573 1.888-1.574c2.36-2.046 7.71-1.888 9.048.157zM122.06 298.872c2.832 1.494 5.98 13.375 8.34 30.92 1.573 12.588 1.495 17.466-.472 23.053a28.254 28.254 0 00.472 20.77l2.203 5.114-.55 19.513c-.316 10.778-.866 20.456-1.26 21.479-.944 2.281-3.226 2.439-6.137.393-1.18-.787-4.012-2.36-6.215-3.54-2.282-1.102-4.642-2.833-5.272-3.856-.865-1.259-1.258-6.137-1.652-19.118-.55-16.759-.55-17.624 1.18-22.738 2.44-7.239 2.282-13.69-.314-19.906-2.597-6.137-3.305-16.837-2.203-30.999.944-11.487 2.36-15.5 6.766-19.354 3.226-2.833 3.147-2.833 5.114-1.731z" fill="#f2f2f2"/></svg>