<svg xmlns="http://www.w3.org/2000/svg" viewBox="0 0 512 512" height="682.667" width="682.667" version="1.0"><g fill="#f2f2f2"><path d="M349.97 50.904c-10.501 5.295-17.03 18.53-17.03 34.414.088 23.471 13.765 41.296 28.942 37.502 9-2.206 13.942-6.707 18.707-17.03 6.618-14.12 4.941-34.061-4.06-47.12-4.5-6.619-9.176-9.354-16.235-9.795-4.854-.265-6.442.088-10.324 2.03z"/><path d="M246.023 62.905c-22.148 3.441-42.267 12.883-55.944 26.383-9.53 9.442-16.148 21.707-20.56 37.767-2.912 10.5-2.735 30.708.353 43.855 3.97 17.119 15 43.326 19.678 47.032 2.206 1.765 2.735 1.853 4.323.794 1.06-.617 10.59-12.795 21.354-26.913 10.677-14.206 20.296-26.472 21.443-27.178 2.735-1.941 4.853-1.147 12.441 5.03 14.737 11.912 33.532 22.854 39.267 22.854 5.383-.088 13.5-4.853 24.178-14.471 3.53-3.177 7.324-5.824 8.294-5.824 1.589 0 1.677.353 1.236 5.47-.706 7.236-5.03 21.708-9.442 31.502-5.03 11.03-4.765 13.766 2.736 28.59 5.117 10.148 10.5 17.56 18.971 25.943 5.736 5.647 9.089 8.03 15 11.03 7.59 3.794 7.854 3.794 17.031 3.794 14.913 0 16.854-1.941 20.295-19.942 4.06-21.266 5.824-56.033 4.06-80.74-.53-7.588-.442-9.088.794-10.324 2.294-2.206 6.176-.265 13.853 7.06 11.471 10.941 18.883 23.912 24.972 43.59 3.353 10.677 5.118 13.412 9.883 15.442 4.5 1.853 6.441 1.5 9.706-1.765 2.824-2.824 3-3.441 3-8.648 0-14.206-13.06-47.737-25.324-64.944-5.295-7.412-13.59-16.236-19.943-21.09-6.265-4.853-15.883-9.97-18.706-9.97-1.06 0-3.971 1.411-6.265 3.088-6 4.324-14.119 8.206-18.62 8.912-9.352 1.412-22.853-3.706-32.736-12.442-3.088-2.647-6.089-4.853-6.618-4.853-3.53 0-12.707 9.795-25.413 26.913-12.53 16.854-12.089 16.325-14.824 16.325-3.265 0-7.677-3.265-18.53-13.854-8.03-7.765-8.913-9-8.913-11.824 0-2.736 3.088-7.148 23.384-34.414 20.03-26.648 23.383-31.59 23.207-33.884-.353-3.265-2.56-4.412-13.325-6.794-9.265-2.03-35.384-2.912-44.296-1.5zm27.62 16.589c2.117 1.147 2.47 3.618.882 6.53-1.677 3.176-26.737 36.178-28.943 38.12-1.677 1.5-3.177 1.764-9.707 1.764-7.412 0-7.941.088-10.5 2.559-3.706 3.53-4.147 6.97-1.941 13.324 3.265 9.177 3.706 8.118-12.53 29.56-14.648 19.325-16.148 20.56-19.501 16.854-2.206-2.47-5.56-12.706-7.236-22.236-1.853-10.412-1.235-25.59 1.324-35.649 1.058-3.883 3.706-10.854 5.912-15.442 8.824-17.913 27.795-31.59 49.502-35.737 8.206-1.5 29.649-1.324 32.737.353z"/><path d="M283.525 225.178c-1.677.441-23.295 4.235-48.09 8.383-75.093 12.706-84.27 15.265-95.3 26.383-9.97 9.971-13.765 19.942-20.736 54.091-5.206 25.413-13.765 60.445-23.825 97.505-3.882 14.472-7.059 27.443-7.059 28.943 0 2.118 1.235 4.059 5.56 8.736 3 3.353 7.058 7.853 9 10.059 3.088 3.441 4.147 4.059 8.03 4.588 2.647.353 6.088.177 8.206-.44 6.265-1.677 5.912-6.09-1.677-18.09-2.912-4.677-4.412-7.941-4.412-9.795 0-3.353 17.825-47.12 20.825-51.179 1.412-1.94 4.323-3.706 9.706-6 13.413-5.647 23.03-13.236 39.09-30.796 4.589-5.03 6.177-5.206 14.913-1.588 10.06 4.147 18.707 5.736 30.62 5.736 15.882-.089 32.56-3.53 55.502-11.56 13.589-4.676 15.707-4.235 16.942 3.971.97 6.706-.265 27.354-2.206 35.914-1.059 4.323-5.03 17.295-8.912 28.678-3.883 11.383-7.06 21.795-7.06 23.03 0 2.912 2.824 7.06 11.295 16.59 3.706 4.235 8.03 9.176 9.442 11.03 1.853 2.293 3.706 3.529 6.177 4.058 8.03 1.853 17.56.441 18.53-2.735.882-2.736-3.265-10.148-9.53-17.119-3.088-3.441-5.912-7.059-6.265-8.03-.353-1.323 1.147-6.265 4.765-15.441 9-22.678 16.324-50.738 20.736-79.77.883-5.382 2.03-10.765 2.736-12 .706-1.5 3.53-3.441 7.677-5.559 9.53-4.677 16.148-9.706 20.56-15.707 4.853-6.618 5.118-9.794 1.147-11.206-1.589-.53-4.5-.97-6.442-.97-9.353 0-23.03-5.736-33.443-14.03-12-9.53-22.5-23.826-31.501-42.797-2.824-5.912-5.648-11.207-6.354-11.736-1.764-1.5-5.206-1.941-8.647-1.147zM104.222 266.21c-9.177 3.352-10.677 6.264-13.06 25.677-4.235 34.59-8.824 45.267-24.442 56.915-5.736 4.235-6.177 6.97-1.942 11.824 8.119 9.177 21.972 11.03 26.914 3.53 2.206-3.354 5.03-15.619 9.177-38.826 4.235-24.001 7.676-38.737 11.382-48.797 3.177-8.559 3.177-8.47 1.324-10.235-1.676-1.677-4.941-1.677-9.353-.089z"/><path d="M371.324 330.713c-.971.794-4.148 2.735-7.06 4.5-8.118 4.765-8.294 5.735-2.647 13.06 2.206 2.823 4.236 6 4.5 6.97.706 2.824-4.5 18.354-6.882 20.472-1.147 1.059-3.971 2.559-6.265 3.353-2.295.882-4.765 2.47-5.471 3.441-1.853 2.912-4.236 13.501-3.618 16.06 1.853 7.147 18.619 3.618 29.472-6.177 10.324-9.265 20.472-27.972 20.472-37.678 0-1.941-.97-5.383-2.294-8.03-3.089-6.089-9.707-15.354-11.825-16.5-2.382-1.324-6.353-1.06-8.382.529zM183.02 372.097c-6.53 6.089-9.177 10.412-8.471 13.5 1.235 6.001 22.942 42.797 36.796 62.475 8.383 12.088 11.647 15 17.03 15.883 6.971.97 13.677-.794 13.677-3.618 0-.618-4.5-7.765-9.883-15.972-12.088-18.177-21.177-34.413-31.59-56.826-4.411-9.353-8.382-17.56-8.912-18.177-1.764-2.118-4.323-1.324-8.647 2.735z"/></g></svg>