<svg xmlns="http://www.w3.org/2000/svg" viewBox="0 0 512 512" height="682.667" width="682.667" version="1.0"><path d="M451.778 108.82c.112-1.252-.092-1.842-.507-2.124-1.328-.939-3.46.149-21.849 10.84-60.433 35.14-84.953 22.835-142.799 26.187-14.202.831-42.148-1.02-57.353-3.784-9.911-1.773-13.515-2.15-15.193-1.47-1.588.6-2.91 2.597-5.193 7.818-4.46 10.103-5.8 12.444-7.297 12.963-2.372.728-4.265-2.4-7.106-11.625-5.881-19.496-13.288-34.936-21.118-44.444-7.76-9.246-23.267-18.847-44.187-27.374-13.075-5.32-19.281-6.967-28.83-7.51-11.443-.652-14.314 1.256-8.876 5.795 4.693 3.979 13.912 8.819 28.253 14.641 26.312 10.82 39.359 19.676 46.45 31.559 5.837 9.654 12.824 27.918 16.912 44.032 3.233 12.958 2.663 13.875-13.065 18.763-5.8 1.827-11.013 3.946-11.66 4.686-1.575 1.896-1.645 4.654-.692 16.705 1.03 12.229-.51 43.817-2.803 56.805-9.917 57.436-18.677 94.422-61 151.048-6.728 9.025-12.37 17.163-12.516 18.19-.26 1.54.232 1.998 2.373 2.292 2.825.42 47.434 2.33 79.317-5.867 29.25-7.397 41.423-18.096 74.702-29.58 12.855-4.446 26.33-7.648 39.19-9.16 10.26-1.315 24.645-.841 27.32.692.917.57 2.871 4.133 4.472 7.85 4.026 9.636 10.045 16.108 23.254 25.146 5.903 3.96 11.743 7.487 12.933 7.814 4.51 1.12 10.608-4.402 9.74-8.854-.39-2.266-6.572-7.365-17.561-14.464-9.737-6.338-10.217-8.522-4.645-21.496 8.766-20.56 35.408-44.333 56.83-50.709 13.524-4.063 15.64-3.338 20.832 7.056 5.805 11.723 10.17 18.445 12.378 19.089 4.323 1.368 10.502-4.064 9.901-8.672-.19-1.22-3.03-7.422-6.295-13.736-7.48-14.15-13.227-20.863-22.344-25.957-3.51-2.012-6.829-4.359-7.291-5.335-1.149-2.568-.088-16.663 1.88-25.44 2.524-10.99 8.413-28.004 13.01-37.495 23.096-47.881 6.334-33.613 28.102-96.07 8.821-25.327 11.996-35.05 12.331-38.805zm-39.883 260.275c.063-3.536-7.14-19.013-11.426-24.322-1.29-1.597-1.768-1.934-2.818-2.018-1.76-.13-6.004 1.02-7.722 2.096-1.228.784-1.435 1.106-1.287 1.866.315 1.607 7.677 10.407 11.43 13.583 1.812 1.538 4.885 4.385 6.854 6.312 3.75 3.749 4.67 4.247 4.94 2.788.018-.089.027-.19.03-.305zm-23.35-8.114c.012-.266-.026-.561-.095-.92-.244-1.199-6.634-9.178-8.008-9.983-1.884-1.117-5.973.995-6.209 3.202-.109 1.018.208 1.539 3.823 6.017 5.082 6.294 5.598 6.55 8.542 4.174 1.433-1.156 1.913-1.691 1.947-2.49zm-12.106 9.743c.015-1.219-1.315-2.886-4.358-6.656-4.373-5.417-4.449-5.511-5.839-5.631-1.157-.152-1.696.077-3.017 1.195-.908.733-1.84 1.693-2.09 2.153-.81 1.43-.025 2.917 4.448 8.202 5.131 6.1 5.295 6.174 8.551 3.545 1.466-1.183 2.292-1.86 2.305-2.808zm6.13-144.06c-.092 2.62-.924 5.64-2.05 6.644-.64.654-5.828 14.428-10.599 14.847-15.618 1.44-21.791 3.764-30.525 11.64-6.92 6.337-9.105 6.817-13.904 3.177-3.558-2.705-3.765-5.133-.747-9.622 7.836-11.81 26.002-20.098 45.806-20.782 7.266-.277 10.537-12.26 11.646-9.004.305.8.416 1.908.374 3.1zm-1.052-23.62a17.392 17.392 0 01-.246 1.91c-.376 2.05-1.282 4.33-2.014 5.065-.91.811-4.744 1.456-10.38 1.912-24.265 1.725-42.377 9.066-56.55 23.018-3.657 3.59-7.542 6.648-8.589 6.848-1.138.28-3.341-.45-5.505-1.868-3.085-1.901-3.557-2.706-3.673-5.215-.082-6.133 13.51-18.996 28.095-26.538 14.048-7.227 34.523-12.102 48.824-11.633 6.72.21 7.313.417 8.835 2.488.962 1.285 1.307 2.34 1.203 4.014zm-18.845 206.454c.119-.681-.7-2.274-2.48-5.056-1.279-1.968-3.61-5.88-5.194-8.739-2.3-4.195-3.515-5.955-6.212-9.105-2.976-3.494-3.443-3.946-4.304-3.923-1.27.094-1.363.17-3.128 3.301-2.108 3.668-2.515 5.342-1.704 6.86 1.863 3.46 16.584 15.162 21.054 16.727 1.217.442 1.876.464 1.968-.065zm.866-28.395c.2-1.868-6.456-10.564-8.919-11.628-.875-.38-3.305 1.48-4.24 3.268-.93 1.733-.77 2.38 1.134 5.188 2.468 3.697 5.776 7.027 7.135 7.171 1.471.157 4.727-2.471 4.89-4zm-92.888-62.756c-.085 2.426-2.027 4.695-6.454 8.543-8.815 7.784-11.826 13.655-15.03 29.008-.958 4.693-15.23 8.281-15.958 8.93-.727.65-3.094 1.291-5.255 1.341-3.465.234-4.226-.068-6.087-2.246-2.196-2.369 10.724-1.891 11.708-8.567 2.863-19.948 13.082-37.232 25.882-43.754 4.802-2.488 7.192-2.007 9.476 1.835 1.152 1.943 1.77 3.454 1.718 4.91zm-19.9-29.68c-.05.86-3.812 4.788-8.626 9.002-16.156 13.925-24.355 29.08-28.828 53.079-1.86 9.906-2.707 11.152-7.994 11.542-4.594.342-7.584-1.727-8.057-5.552-.553-3.915 1.873-16.205 4.922-25.784 6.716-20.936 20.775-40.505 35.433-49.338 5.813-3.553 9.063-3.022 11.46 1.862 1.01 1.956 1.743 4.242 1.69 5.189z" fill="#f1f1f1"/></svg>