<svg version="1.0" xmlns="http://www.w3.org/2000/svg" width="682.667" height="682.667" viewBox="0 0 512 512"><g fill="#f2f2f2"><path d="M181.5 46.1c-55.7 20.5-103.6 69.5-132.9 136-14.5 32.7-23.8 67.8-28.8 107.9-2 16-1.7 63.3.5 79 3.3 23.2 8.7 43.5 11.7 43.5 1.3 0 1.6-4.3 2.1-27.7.7-31.7 1.2-38.9 4-61.8 8.4-68.8 32.1-132.2 67.3-180.4 8.8-12 13.8-17.1 16-16.3 2.2.9 2 4.2-.8 19.3-11.3 60.1-13.6 115.3-6.5 158.6 3.5 21.4 10.7 45.7 14.4 48.8 2.7 2.2 2.9-1.8 1.1-20.9-3.5-36.8-3.2-71.6 1-104.4 3.9-31.2 14.7-72.4 20.1-76.8 2.8-2.4 3.7.9 5 19.3 2.4 33.5 6.9 57.7 15.4 83.3 5.1 15.4 9 23.5 11.3 23.5 1.9 0 2.6-2.3 2.6-8.4 0-10 2-22 4.6-27.4 4.3-8.9 10.7-10.4 21.3-5.1 15.1 7.6 39.7 38.8 43 54.7 1.5 7.4 1.4 20.7-.4 27.2-4.7 17.8-16 30-39.5 43-20.9 11.6-37.6 25.6-46.7 39.3-23.4 35.2-9.8 78.1 28.2 89.3 8.5 2.5 21.1 2.2 29.5-.6 16.7-5.6 29.3-17.4 41-38.5 6.4-11.5 7.5-11.8 16-4 3.3 3 6.9 5.5 8 5.5 2.1 0 3.3-3.3 4.5-12.5 1.9-15.7 6.2-31 13.4-47.9 4.8-11.1 5-13.3 1.7-14.2-7.6-1.9-59.2 23.7-72.4 35.9-1.5 1.4-2.2 3-2 4.6.3 2.2 1.4 3 7.6 5.2 4 1.5 8 3.3 8.8 4 5.9 4.9-9.4 30.9-23.3 39.7-18.8 11.9-41.5 5-51.1-15.6-3.5-7.6-3.7-19.6-.4-28.7 6.3-17.2 20-30.3 48.7-46.5 27.7-15.8 41.9-33.1 46.9-57.2 2.8-13.4 2.2-20.6-3.7-46.1-1.4-5.9-.3-8.1 8.7-18.5 14.9-17.3 27.8-24.2 36.7-19.6 5.9 3 9.8 16.2 9.9 33.4.1 11.4 3 12 7.9 1.7 6-12.5 13.2-38.1 17-59.7 2-11.6 3.5-26 5-46.8.8-11.6 1.8-14.5 4.4-12.3 5.4 4.4 16.1 45.4 20.2 76.5 4.1 32 4.4 68.9.9 105.9-1.3 13.8-1.5 19-.7 19.8 4.2 4.2 14.6-31.6 18.5-63.6 1.7-14.4 1.7-67.8 0-84-1.9-17.8-5.9-45.3-8.7-60-3-15.3-3.1-18.3-.8-19.2 3.3-1.3 17.7 16.9 31.6 39.9 26.8 44.5 45.2 100.8 52.1 159.8 2.4 20.3 2.9 28 3.5 57.9.5 21.6.9 28.5 1.9 28.9 2.7.9 7.9-17.4 11.3-39.6 2.6-17.6 3.6-53.2 2-72.7-9.2-110.6-64.2-205.7-141.9-245.3-21-10.7-35.3-14.7-36.7-10.3-.3 1 1.5 8.3 4 16.2C326 94 330 115.1 330 136.6c0 27.9-6.4 45.4-22.7 62.5-9.2 9.6-19 16.4-34 23.7-15.8 7.5-19.5 7.8-31.8 2.5-27.1-11.6-44-26.1-53.6-45.9-6.6-13.5-8.9-24.3-8.9-42.4 0-21.4 3.6-40.4 13.9-73.9 2.8-9.1 4.9-17.3 4.5-18.3-.8-2.7-6.4-2.2-15.9 1.3z"/><path d="M214.7 105.7c-.8 1-2.3 4.3-3.4 7.3-2.5 7.7-2.5 31.6 0 41 4.3 15.4 16.1 34.3 27.3 43.6 13.4 11.1 16.9 11.8 26 5.1 15.2-11.3 27.3-28.8 32.4-46.9 6.6-23.3.6-59.1-8.2-49.1-.9 1-3.4 6.1-5.8 11.3-6 13.7-14.5 29.5-19.6 36.7-5 7-8 8.5-11.8 5.9-3.9-2.5-12.1-15.8-21.6-34.9-8.3-16.7-11.3-21.7-13-21.7-.4 0-1.4.8-2.3 1.7z"/></g></svg>