<svg version="1.0" xmlns="http://www.w3.org/2000/svg" width="682.667" height="682.667" viewBox="0 0 512 512"><g fill="#f2f2f2"><path d="M243 22.4c-12.3 3.5-22.7 10.4-34.8 23.1-28.1 29.3-50.2 83-50.2 121.7 0 23.2 9.6 47.7 25.3 64.4 6.6 7.2 10.6 9.7 13.4 8.7 1-.3 4.5-3 7.8-5.8 9-7.7 15.3-12 23.6-16 26-12.3 53.3-7 78.2 15.2 7.6 6.8 9.9 7.8 13.5 5.9 3.3-1.7 11.3-10.1 16.5-17.3 5.5-7.6 12.3-22.7 14.9-32.9 4.6-18.6 2.4-44.1-5.9-69.9-16.4-50.8-45.6-88-76.2-96.9-6.5-1.9-19.7-2-26.1-.2zM20.3 49.7c-.5 1-.8 9-.8 17.8l.1 16L47.9 150c15.5 36.6 29.3 67.8 30.6 69.5 2.2 2.9 83.6 52.2 90.4 54.8 3.8 1.4 5.6.5 8.9-4.3 3-4.4 2.8-7.7-.5-10.7-1.6-1.4-20.1-12.8-41.3-25.4-21.2-12.5-39.9-24.1-41.5-25.7-2.4-2.2-9.9-19-35-78.2-17.6-41.5-32.9-76.8-34-78.4-2.5-3.7-4.3-4.3-5.2-1.9zm467.5 0c-2.6 3-4.4 7.1-36.2 82.3-23.9 56.3-31.5 73.2-33.9 75.7-1.8 1.8-21.4 14.2-43.7 27.5-44.8 26.9-43.9 26.2-40.5 33.8 2 4.4 4 6 7.5 6 1.8 0 72-41.1 86.8-50.8 3.7-2.4 6-4.9 7.7-8.1 5.4-10.8 55.7-130.7 56.6-135.4.7-2.8.9-10.2.7-17.1-.5-11.7-1.2-15.6-2.8-15.6-.4 0-1.4.8-2.2 1.7z"/><path d="M244 229.6c-30.4 8.1-57 44.4-67.2 91.7-1.8 8.3-2.2 13.4-2.1 27.2 0 19.8 1.5 27.3 8.4 41.5 5.9 12 18 24.1 30 29.9 14.6 7 21.6 8.4 42.4 8.5 20.9.1 28.9-1.5 43.5-8.7 12.1-5.9 24.1-17.8 29.8-29.7 12.8-26.5 11.7-62.5-3.2-99.1-18-44.4-51.2-69.4-81.6-61.3zM208.3 365c6.6 5.2 2.7 16-5.8 16-3.7 0-6.2-1.6-8.1-5.1-3-6 1.3-12.9 8.1-12.9 1.8 0 4.4.9 5.8 2zm107.4.4c2.2 1.9 2.8 3.2 2.8 6.6 0 3.4-.6 4.7-2.8 6.6-7.4 6.3-18.7-2-14.3-10.5.9-1.6 2.4-3.5 3.3-4 3.2-1.8 8-1.2 11 1.3zm-72.6 10.9c10.7 7.2 10.6 20.2-.1 27.5-4.6 3.1-13 2.8-17.8-.7-9.1-6.5-8.7-20.5.8-26.8 4.6-3.2 12.4-3.2 17.1 0zm42.7-.3c9.6 5.9 10.4 19.9 1.5 26.7-5 3.9-13.5 4.4-18.2 1.1-5.2-3.6-7.4-7.1-7.9-13-.4-6.1 1.9-10.6 7.7-14.5 4.4-3 12.2-3.1 16.9-.3zM19.9 246.7c-1.5 3.8-.6 12.5 1.5 15.8 1.6 2.4 47.9 39.9 58.5 47.3 4.7 3.3 5.4 3.4 36.2 7.8 17.3 2.5 33.5 4.6 36.1 4.7 6.3.3 8.9-2.2 9.6-9.1.7-7.6.4-7.7-36.1-12.8-17.1-2.4-32.5-4.9-34.2-5.6-1.6-.7-11.7-8.2-22.5-16.7C28.2 245.7 25.9 244 23.4 244c-1.7 0-2.8.8-3.5 2.7zm464.1-1c-1.4 1-15.6 12.1-31.5 24.8-16 12.7-30.4 23.6-32 24.3-1.7.7-17.1 3.2-34.3 5.6-21.4 3.1-32.1 5-33.9 6.1-2.3 1.5-2.5 2.2-2 6.8.3 3.9 1.1 5.6 3.2 7.4 3.1 2.7-1 3 42.5-3.1 18.2-2.6 30.8-4.9 33-6 4.6-2.2 58.7-45.3 61.3-48.8 2.4-3.2 3.4-12 1.8-16.1-1.2-3.2-4.4-3.6-8.1-1zM117.1 364c-22.7 5.1-32.5 7.6-35.5 9.4-6 3.6-57.6 45.6-59.9 48.8-2.4 3.2-3.4 12-1.8 16 2.1 5.6 4.3 4.3 36.7-21.8 16.8-13.5 32-25.4 33.7-26.4 1.9-1.1 16.4-4.8 33.2-8.5 19.1-4.1 30.9-7.2 32.5-8.4 1.6-1.1 2.6-3 2.8-5.1.7-7-1.9-11-7.1-10.9-1.8 0-17.3 3.2-34.6 6.9zm238.4-5.6c-1.5 1.1-1.9 2.7-2 7.1 0 5 .3 6 2.5 7.6 1.6 1.2 13.2 4.2 32 8.3 16.2 3.6 30.4 6.8 31.5 7.2 1.1.4 14.3 10.7 29.4 22.8 36.4 29.2 36.9 29.6 39.7 29.6 1.7 0 2.8-.8 3.5-2.8 1.4-3.7.6-12.4-1.4-15.6-1.9-2.8-54.5-45.7-60.6-49.3-2.5-1.6-14-4.5-35.7-9.3-17.5-3.8-33.1-7-34.5-7-1.4 0-3.4.6-4.4 1.4zM143 414.8c-13.5 7.1-23.9 13.3-26 15.4-3.7 3.7-30.7 52.9-31.6 57.7-.8 3.9 1.7 5.5 8.2 5.5 3.8 0 6.1-.6 8.1-2 1.7-1.3 7.2-10.4 14.4-23.5 6.4-11.8 12.9-22.8 14.5-24.4 1.7-1.7 11.5-7.5 22-12.9 23-12.1 24.4-13 24.4-16.2 0-5.3-5.1-11.4-9.5-11.4-1.1 0-12.1 5.3-24.5 11.8zm195.4-8.2c-2.5 2.6-3.4 4.5-3.4 7 0 4.1.2 4.2 25.4 17.5 9.9 5.2 19.3 10.8 21 12.5 1.7 1.7 8 12.3 14 23.5s11.9 21.6 13.3 23c4.3 4.6 15.4 4.9 17.5.4 1.2-2.6 1.7-1.5-16.5-35.4-9-16.6-14.1-25-16.2-26.6-5.3-4-46.9-25.5-49.4-25.5-1.4 0-3.7 1.4-5.7 3.6zm-142.6 20.8c-6.1 2.2-8.6 4.3-11.2 9.4-8.2 16.3-4.8 44.9 6.5 55.8 2.6 2.4 3.1 2.6 4.4 1.4.7-.8 2.3-5.5 3.4-10.5 2.7-12.6 5.4-19.2 11.7-28.7 6-9.2 6.7-12.4 3.4-18.7-2-4-7.3-9.1-9.3-9.1-.7 0-2.1-.2-3.2-.5s-3.7.2-5.7.9zm111.8-.4c-3.8 1.2-8.5 5.6-10.2 9.7-2.6 5.9-1.8 9.3 4 18.1 6.4 9.6 9.1 16.3 11.7 28.6 1 4.9 2.5 9.6 3.3 10.5 1.4 1.3 1.8 1.2 4.2-1 3.5-3.3 8.1-12.6 9.9-20.1 3-12.7 1.3-28.3-4-37.3-3.7-6.4-12.6-10.4-18.9-8.5zm-71.1 17.4c-3.5 5.3-2.3 14.1 1.9 14.1 2.2 0 6.6-7.7 6.6-11.5 0-5.2-5.7-6.9-8.5-2.6zm31.7-1.2c-1.9 1.9-1.4 5.4 1.3 10.8 3.1 6.2 5.8 6.7 7.5 1.5 1.3-4 .5-9.1-1.8-11.8-1.7-2-5.3-2.2-7-.5z"/></g></svg>