<svg xmlns="http://www.w3.org/2000/svg" viewBox="0 0 512 512" height="682.667" width="682.667" version="1.0"><g fill="#f2f2f2"><path d="M189.84 61.16c-1.179 3.144-.491 14.05 1.376 21.616 1.08 4.225 4.323 12.576 7.369 18.57 5.993 12.085 18.57 29.082 23.187 31.44 2.85 1.474 3.44 1.474 11.005-.982 4.42-1.376 11.986-3.144 16.8-3.93 13.953-2.162 13.854-3.44-1.08-13.363-19.356-12.772-31.932-24.465-43.624-40.48-9.629-13.264-10.71-14.443-12.577-14.443-1.08 0-2.161.688-2.456 1.572z"/><path d="M38.335 65.975c-1.18 2.947.786 8.45 8.842 24.76 8.843 17.783 23.483 40.676 36.452 56.79 4.323 5.403 15.033 17.193 23.777 26.134 16.703 16.998 18.57 19.847 13.264 20.928-5.502 1.278-36.451-5.109-67.303-13.755-10.611-2.948-20.141-5.306-21.124-5.11-8.548 1.573 13.46 23.09 38.122 37.337 10.022 5.698 22.303 11.594 34.781 16.506 12.38 4.913 13.56 5.6 13.166 8.646-.393 3.243-8.253 8.941-22.99 16.605-13.461 6.976-25.448 11.397-42.446 15.622-16.113 3.93-18.471 5.208-14.738 7.664 3.832 2.555 18.766 5.306 34.978 6.681 17.882 1.376 38.024.098 57.183-3.635 6.78-1.376 13.068-2.162 13.952-1.867 8.253 2.555-15.426 23.188-46.179 40.185-5.6 3.144-19.552 10.022-30.95 15.426-11.495 5.306-21.713 10.611-22.794 11.692l-1.965 1.965 1.965 1.572c1.67 1.277 4.52 1.376 18.177.983 35.96-1.18 77.521-9.924 113.285-23.876 16.212-6.288 18.963-6.484 21.517-1.375 1.376 2.653 1.769 5.895 1.769 13.755 0 12.773-1.376 19.356-8.45 41.463-4.618 14.443-5.404 17.685-4.323 18.962.688.786 1.572 1.474 1.965 1.474 1.277 0 18.472-11.594 28.592-19.257 12.576-9.53 21.713-18.57 28.984-28.887 3.93-5.502 6.681-8.45 8.057-8.646 1.768-.295 5.993 3.34 19.16 16.212 24.562 23.974 43.132 38.318 71.134 54.923 9.53 5.699 15.033 9.629 17.292 12.478 7.959 9.825 16.212 25.644 23.876 45.688 4.52 11.986 6.19 14.541 8.548 13.657 3.733-1.474 8.548-21.518 8.548-35.764 0-5.699.491-10.611 1.277-12.085.688-1.376 3.93-3.93 7.566-5.797 11.397-6.092 18.766-16.212 22.598-31.146 2.456-9.432 2.456-12.38.098-14.542-1.769-1.572-2.26-1.572-9.53.393-15.033 3.93-17.686 2.653-18.963-9.039-1.278-11.495-2.948-13.362-9.433-10.906-11.79 4.421-13.952 5.11-16.31 5.208-4.126 0-5.207-2.26-5.207-11.496-.098-11.004-.688-11.397-11.103-7.86-13.951 4.814-16.31 3.635-17.488-9.138-.786-9.039-2.555-12.773-5.994-12.773-1.375 0-5.6.983-9.432 2.064-15.328 4.716-27.61.687-42.347-13.854-7.958-7.86-8.646-8.843-8.351-11.888.196-2.752.982-3.734 4.42-5.6 8.45-4.619 21.911-7.272 40.088-7.763 24.268-.688 32.915 1.67 42.249 11.397 2.652 2.752 5.502 5.011 6.288 5.011.884 0 3.832-1.375 6.484-2.947 2.751-1.572 6.78-3.832 9.04-5.011l4.225-2.26 2.652 1.965c2.555 1.867 6.583 8.745 10.12 17.096 1.081 2.456 2.162 3.537 4.029 3.734 2.456.294 4.421-1.474 10.906-9.433 4.028-5.01 7.762-1.965 11.594 9.236 3.537 10.317 5.403 10.611 14.246 2.358 3.439-3.242 6.78-5.895 7.37-5.895 2.062 0 4.715 3.832 7.761 11.397 3.832 9.53 4.225 10.317 6.288 11.594 2.358 1.474 6.19-1.67 11.201-9.137 8.45-12.478 10.611-25.546 9.825-60.033-.59-24.17-1.965-38.416-5.698-56.004-5.208-25.545-15.623-49.126-21.518-49.126-2.26 0-2.554.983-3.93 11.004-3.439 25.35-14.934 48.734-27.904 56.692-8.646 5.306-15.13 2.063-52.663-26.921-51.877-40.087-64.945-49.421-79.88-57.478-16.899-9.137-25.84-9.137-54.235 0-17.194 5.502-19.748 5.502-38.22-.884-53.744-18.57-101.888-43.526-148.263-77.03C48.258 69.217 41.085 64.5 40.3 64.5c-.786 0-1.67.688-1.965 1.474zm258.6 119.671c1.18.688 4.324 3.832 6.976 7.074 7.271 8.745 20.142 20.732 31.54 29.378 5.6 4.225 10.414 8.351 10.709 9.137.393.885-.196 2.162-1.277 2.948-4.716 3.635-35.076-2.85-50.993-10.808-10.906-5.404-16.212-11.004-16.212-16.9 0-4.912 7.565-16.407 13.362-20.24 3.34-2.16 3.243-2.16 5.895-.589z"/><path d="M165.179 350.907c-5.404 1.867-13.068 4.225-17.096 5.404-8.745 2.555-12.184 5.502-11.692 10.12.294 2.85.786 3.34 5.502 4.814 11.495 3.832 29.18 3.145 33.111-1.179 1.769-1.965 5.404-13.657 5.404-17.39 0-2.358-2.456-5.208-4.225-5.11-.688 0-5.6 1.573-11.004 3.341zm-64.257 19.945c-14.247 14.64-33.505 51.878-40.775 78.799-6.878 25.35-7.467 55.513-1.18 61.8 2.26 2.162 3.341 2.457 13.068 2.85 7.271.197 11.79 0 14.542-.982 3.832-1.278 3.93-1.376 3.832-5.699 0-2.456-1.081-9.727-2.359-16.212-1.67-9.137-2.26-15.425-2.26-28.002-.196-28.69 5.012-50.305 19.651-81.746 2.948-6.386 5.208-12.38 5.011-13.264-.688-3.635-4.716-2.653-9.53 2.456zm21.124 18.374c-2.948 3.242-9.53 18.864-9.629 23.089-.098 2.26.59 3.832 1.965 4.913 3.734 3.045 17.587 6.19 27.904 6.288 8.351.098 9.825-.197 11.594-1.867 2.849-2.948 10.807-21.026 10.807-24.858 0-3.93-1.473-4.618-12.281-5.502-4.323-.295-11.2-1.474-15.23-2.555-9.825-2.554-12.38-2.456-15.13.492zm103.951 8.056c-11.397 7.959-27.216 20.437-28.591 22.5-1.965 3.046-1.376 6.681 2.652 16.703 8.155 20.437 27.806 44.509 54.334 66.812 13.755 11.594 9.825 10.71 48.537 10.71 30.36 0 33.799-.197 35.273-1.67 2.358-2.26 1.375-3.341-11.3-11.89-37.925-25.742-65.927-56.396-86.462-94.518-6.78-12.577-7.86-13.166-14.443-8.647zm-118.886 39.301c-2.554 1.867-3.733 6.289-4.126 16.114l-.393 10.316 3.046 2.653c3.242 2.653 10.906 5.306 24.17 8.253 11.102 2.457 38.908 2.457 50.6 0 10.808-2.358 13.166-3.537 13.559-6.68.393-3.538-11.103-25.252-14.149-26.627-1.67-.786-4.912-.59-12.478.688-14.836 2.554-34.29 1.67-46.375-1.966-11.004-3.34-12.478-3.635-13.854-2.75zm92.947 50.994c-28.69 7.172-54.137 7.958-79.093 2.26-5.502-1.278-10.12-1.867-11.79-1.474-2.653.687-2.751.786-2.162 6.288.295 3.046 1.277 7.958 2.162 10.807 2.75 9.04-.885 8.548 60.032 8.843 29.28.098 55.415-.098 57.97-.491 7.86-1.376 7.27-3.439-4.226-15.23-8.351-8.547-14.05-12.772-16.703-12.477-.393 0-3.242.687-6.19 1.474z"/></g></svg>