<svg version="1.0" xmlns="http://www.w3.org/2000/svg" width="682.667" height="682.667" viewBox="0 0 512 512"><g fill="#f2f2f2"><path d="M245.5 20.5c-34.4 8.7-70.1 60.9-83.2 121.8-1.4 6.2-1.8 12.5-1.7 25.7 0 16.1.2 18.2 2.7 26.3 5.7 18.5 18.4 37.7 30.6 46.1 5.1 3.5 7.4 3.1 14-2.8 15.2-13.5 30.4-19.8 47.6-19.8 16.8-.1 31.8 5.9 46.5 18.2 7.2 6.2 8.8 7.1 11.3 6.6 9.4-1.9 27.4-25.3 33.5-43.7 3.8-11.6 5.2-19.8 5.2-31.1 0-30.3-14.5-73.4-35.2-104.9-7.4-11.2-26.6-30.8-34.9-35.7-12.2-7.1-25.1-9.5-36.4-6.7zM19.9 47.6c-1.9 2.3-2.4 27.4-.7 33.9.8 2.7 13.7 34.2 28.8 69.9 22.9 54.2 28.1 65.6 31 68.4 1.9 1.9 24.2 15.8 49.5 30.9 36.3 21.6 46.6 27.3 49 27.1 6-.6 9.9-11.4 5.6-15.7-1-1-20.9-13.2-44.2-27.1-23.3-13.9-43.7-26.4-45.2-27.9-2.1-2-11.4-23-34.6-77.7-17.5-41.3-32.5-76.4-33.4-78-2.4-4.6-4.1-5.8-5.8-3.8zm468.9.1c-2.7 3.1-4.9 8.1-35.3 79.7-16.2 38.2-30.4 71.5-31.6 74.1-1.2 2.6-3.8 5.9-5.9 7.4-2 1.4-22.4 13.9-45.4 27.6-29.6 17.7-42.2 25.8-43.2 27.6-.9 1.8-1.1 3.6-.5 5.6 2.2 7.6 5.4 10 10.6 7.8 3.1-1.2 81.8-48.1 91-54.1 2.8-1.8 6-5 7.2-7.1 2.2-4 50.8-118.2 54.9-129.1 2.2-5.6 2.4-7.8 2.4-22 0-11.3-.4-16.3-1.3-17.6-1.2-1.6-1.3-1.6-2.9.1z"/><path d="M245.5 237.4c-25.5 6.4-45.3 32.5-52 68.5-2 10.8-2 33.4 0 43.7 3.1 16.1 4.4 17.6 12.5 14.4 10-3.9 18.9-1.5 23.6 6.6 4.9 8.3 2.3 18.2-6.2 24.4-5.7 4.1-5.8 6.6-.3 11.9 8.1 7.7 21.6 13.1 32.9 13.1 11 0 23.4-4.9 31.9-12.6 6.5-5.9 6.7-8.2.7-12.3-6.2-4.3-8.9-9-8.9-15.8 0-4.4.6-6.2 2.9-9.5 5.4-7.7 13.5-9.7 23.3-5.8 5.4 2.1 7 2 8.8-.8 5.3-8.5 6.7-45.6 2.4-63.2-4.9-20-12.5-34.5-24.7-46.7-6.2-6.4-9.8-9.1-15.5-11.8-11.5-5.4-21.1-6.7-31.4-4.1zm-10.3 82.7c8.3 2.2 14.1 12.5 11.8 20.9-1.2 4.6-5.1 9.5-9.1 11.5-3.6 1.9-12.2 1.9-15.8.1-10.9-5.7-13.1-19.5-4.5-28.1 4.9-5 10.7-6.4 17.6-4.4zm56.4 2.1c8.6 5.9 10.4 17.9 3.8 25.8-3.7 4.3-7.5 6-13.4 6-20.2 0-24.5-27.9-5.3-34 4.2-1.4 11.3-.3 14.9 2.2zM19.2 244.7c-.4 1-.7 4.7-.7 8.3 0 5 .5 7.2 2 9.2 2.7 3.7 58.2 47.7 62.3 49.5 3.1 1.3 77.8 12.3 83.7 12.3 4.2 0 6.5-3.3 6.5-9.3 0-9 3.9-7.8-55.2-16.1-15-2.1-26-4.1-28-5.2-1.8-.9-10.7-7.6-19.8-14.8C27.7 245.1 24.9 243 22.4 243c-1.4 0-2.8.7-3.2 1.7zm464.2 1.2c-2.1 1.5-15.6 12.1-29.9 23.5-14.3 11.4-27.9 21.8-30.2 23.2-3.7 2.2-8.4 3.1-36 7-44.8 6.2-44.9 6.2-47 8.6-2.3 2.5-2.3 9.7.1 13.2 1.1 1.8 2.5 2.6 4.6 2.6 1.7 0 20.6-2.5 42.1-5.5 32.7-4.5 39.7-5.8 43.2-7.8 5.6-3.1 57.7-44.6 60.5-48.2 1.8-2.3 2.2-4.1 2.2-9.9 0-10.3-2.4-12-9.6-6.7zM125.7 361.5c-20.8 4.6-39.3 8.9-41.1 9.5-3.7 1.2-54.4 41.3-61.3 48.4-4.7 4.9-5.9 9-4.8 16.2.7 4.8 2.1 6 5.8 5 1.2-.3 15.9-11.6 32.7-25.1 16.8-13.6 31.8-25.3 33.3-26.1 1.6-.9 20.5-5.4 42-10 21.6-4.7 40.2-9.2 41.4-10 3-1.9 3.8-5.4 2.3-10.1-1.6-4.9-3.5-6.3-8.4-6.2-2.3.1-21.1 3.9-41.9 8.4zm211.6-5.9c-.9 1.5-1.7 4.7-1.7 7.1-.1 3.7.4 4.9 2.4 6.4 1.6 1.1 16.7 4.9 42 10.4 29.7 6.4 40.4 9.1 43 10.9 1.9 1.3 17 13.2 33.5 26.5 36.1 29 36.5 29.2 36.5 14.2 0-5.4-.4-7.4-2.1-9.5-2.9-3.7-57-47.1-61.6-49.5-4.3-2.2-80.9-19.1-86.5-19.1-2.9 0-4.1.6-5.5 2.6zm-13 38.6c-3 1.5-6.8 8.8-6 11.9.8 3-.4 2.3 33.2 20.1 15.4 8.2 29 15.9 30.2 17.1 1.2 1.2 7.5 11.9 13.8 23.7 6.4 11.8 12.6 22.5 13.9 23.6 3.1 2.8 8.6 3.8 13.6 2.4 3.6-1 4-1.4 4-4.1 0-4.2-27-54.1-31.9-59-2.3-2.4-14.2-9.2-34.1-19.7-16.8-8.8-31.4-16.3-32.5-16.5-1.1-.3-3-.1-4.2.5zm-173.8 16.2c-17 8.9-32.3 17.6-34 19.2-2.7 2.7-28.9 49.8-31.4 56.7-1.5 4 0 6.4 4.8 7.2 5.4.9 11.6-1 13.9-4.3 1-1.5 6.7-11.7 12.6-22.7 6-11 12-21.2 13.4-22.7 1.5-1.5 15.5-9.5 31.2-17.8s29.5-16.1 30.8-17.2c2.4-2.4 2.8-4.8 1.1-8.1-2.2-4.3-5.2-6.7-8.3-6.7-2.1 0-13.6 5.6-34.1 16.4zm54.6 14.2c-2.6 3.3-4.9 10.8-5.7 18.9-1.2 11.4 3.2 28.3 8.8 33.9 2.6 2.5 3.1 2.7 4.4 1.4.8-.8 2.5-5.7 3.8-11 2.5-9.7 5.7-17.1 10.7-24.5 2.9-4.2 3.5-6.8 2.1-8.9-1.2-1.9-18.5-12.4-20.3-12.4-1 0-2.7 1.2-3.8 2.6zm86.2 3.4c-11.2 7.2-11.4 8.2-4.8 18.4 4.4 6.8 8.6 17.8 10 26.4 2.9 17.6 15.8-3.2 15.7-25.2-.1-14.2-4.4-25.6-9.6-25.6-1.2 0-6.3 2.7-11.3 6z"/></g></svg>