<svg xmlns="http://www.w3.org/2000/svg" viewBox="0 0 512 512" height="682.667" width="682.667" version="1.0"><path d="M241.609 28.665l-2.665 2.559v112.572c0 93.597.213 113.106 1.492 116.09 1.812 4.371 10.66 9.168 16.95 9.168 5.33 0 14.285-4.797 16.31-8.741 1.28-2.452 1.493-20.361 1.493-115.984V31.224l-2.666-2.559C270.072 26.107 269.325 26 257.066 26c-12.26 0-13.006.107-15.457 2.665zm-40.936 34.859c-21 2.345-44.027 10.34-61.51 21.214-11.193 7.036-27.503 22.174-35.605 33.047-15.138 20.361-25.371 48.504-27.184 75.048-1.172 15.351-7.995 13.752 63.11 14.392 66.52.533 61.935.106 70.57 7.675 5.224 4.477 7.995 5.117 9.701 1.919.746-1.386 1.066-25.691.853-76.114-.32-81.871.106-76.754-7.25-77.714-2.025-.32-7.781-.106-12.685.533zm95.837-.32c-5.331 1.493-5.331.853-5.331 78.78 0 48.184.426 73.556 1.066 74.942 1.706 3.091 4.904 2.451 9.914-2.132 8.208-7.463 3.838-7.036 70.358-7.57 70.997-.639 64.281.854 63.215-13.751-2.025-27.077-12.259-55.433-27.29-75.688-8.208-11.087-24.412-26.118-35.499-33.047-11.406-7.036-25.798-13.325-38.27-16.63-13.965-3.731-33.367-6.29-38.164-4.904zM64.435 226.2c-5.757.533-6.716 3.092-6.716 18.016 0 18.336-1.28 17.376 24.518 17.376 18.23 0 20.255-.213 21.214-1.919.64-1.172.64-2.558-.213-3.944-1.279-2.558-21.107-23.453-24.945-26.437-2.985-2.346-8.528-3.625-13.858-3.092zm49.25-.213c-4.264.746-6.183 3.198-4.584 6.183 1.6 3.091 20.681 22.6 25.798 26.33 4.051 2.986 4.478 3.092 17.163 3.092 13.006 0 15.458-.64 15.458-4.157 0-2.026-25.159-27.504-29.316-29.636-3.198-1.706-18.123-2.772-24.519-1.812zm62.363.106c-3.411.64-5.33 2.24-5.33 4.371 0 2.026 24.945 27.504 28.996 29.636 4.37 2.238 16.097 2.025 18.229-.427 2.878-3.198 2.132-6.076-3.305-12.685-5.223-6.183-15.777-16.31-19.828-19.082-2.452-1.493-14.498-2.772-18.762-1.813zm145.832.214c-4.583.96-14.497 9.168-23.452 19.615-6.503 7.675-7.569 10.873-4.264 13.858 2.558 2.345 14.071 2.452 18.122.32s28.996-27.61 28.996-29.636c0-.96-.64-2.238-1.492-2.878-1.812-1.493-12.9-2.345-17.91-1.28zm56.18 0c-5.33 1.385-7.036 2.665-20.468 16.416-17.696 17.803-17.589 18.87 2.346 18.87 12.685 0 13.112-.107 17.163-3.092 5.33-3.838 24.199-23.24 26.01-26.651 2.24-4.264-.426-5.65-11.939-6.076-5.436-.214-11.3 0-13.112.533zm62.256.213c-4.903.746-6.61 2.132-19.721 15.884-12.58 13.112-13.965 15.137-11.513 17.483 1.385 1.385 4.903 1.705 21.32 1.705 25.158 0 23.88.853 23.88-17.376 0-9.808-.427-13.645-1.6-15.35-1.705-2.453-6.396-3.412-12.366-2.346zM77.973 282.913c-1.919 1.919-2.132 3.518-2.132 16.417 0 12.792.213 14.498 2.239 17.056 2.345 2.985 117.583 61.403 121.207 61.403 3.518 0 5.33-3.518 7.036-13.538 2.772-15.351 2.665-19.082-.426-22.067-1.6-1.6-21.108-10.127-50.104-21.96-26.117-10.767-49.037-20.681-50.956-22.067-1.919-1.386-4.584-4.904-6.076-7.782-3.625-7.142-7.036-9.594-13.432-9.594-3.838 0-5.757.533-7.356 2.132zm340.703.107c-1.6 1.279-3.944 4.477-5.33 7.142-1.386 2.771-3.731 6.076-5.117 7.355-1.386 1.28-24.306 11.3-50.956 22.28-29.316 11.94-49.57 20.788-51.17 22.387-3.091 2.985-3.198 6.716-.426 22.067 1.706 10.02 3.518 13.538 7.036 13.538 3.624 0 118.755-58.311 121.207-61.403 2.026-2.558 2.239-4.264 2.239-17.056 0-12.9-.213-14.498-2.132-16.417-2.985-2.985-11.513-2.985-15.351.106zm-179.093 4.69c-1.919 1.919-2.132 2.985-10.873 54.687-6.183 36.671-6.93 42.215-5.757 45.093 1.173 2.665 3.838 4.477 16.097 10.66 9.594 4.69 16.097 7.356 18.442 7.356 4.265 0 28.144-11.513 32.088-15.35 1.492-1.493 2.665-3.945 2.665-5.438 0-4.903-15.138-91.571-16.63-95.196-1.706-4.157-3.731-4.37-12.473-1.28l-6.076 2.133-6.076-2.132c-7.356-2.559-9.275-2.665-11.407-.533zM59.105 340.372c-9.062 7.249-37.951 33.58-40.19 36.671-2.132 2.878-2.238 4.37-2.238 27.397 0 21.854.213 24.625 1.919 26.33 1.705 1.813 1.918 1.706 4.903-1.278 5.117-5.33 55.54-82.724 55.54-85.39 0-3.624-5.756-7.888-10.66-7.888-3.091 0-5.223.96-9.274 4.158zm379.719-3.198c-3.945 1.705-6.183 5.117-5.33 8.315.852 3.517 51.809 81.124 55.54 84.642 2.452 2.345 2.665 2.345 4.477.64 1.6-1.706 1.812-4.584 1.812-26.331 0-23.026-.106-24.519-2.238-27.397-2.239-3.091-31.128-29.422-40.19-36.671-5.33-4.264-9.274-5.117-14.071-3.198zM97.908 354.443c-1.066.64-16.737 23.346-34.86 50.637-23.771 35.498-33.046 50.316-33.046 52.448 0 1.919 1.066 4.051 2.878 5.757 3.731 3.411 53.408 37.63 57.14 39.336 6.715 3.092 6.502 3.518 30.701-45.732 33.58-68.12 35.605-72.49 34.433-75.795-.746-2.239-5.33-5.01-25.798-15.35-13.645-6.823-25.798-12.473-27.184-12.473-1.28 0-3.198.533-4.264 1.172zm284.736 11.3c-20.468 10.34-25.052 13.112-25.798 15.35-1.172 3.306.853 7.676 34.433 75.796 24.199 49.143 23.986 48.824 30.702 45.732 3.837-1.706 53.514-36.032 57.139-39.336 1.812-1.706 2.878-3.838 2.878-5.757 0-2.132-9.488-17.056-33.047-52.448-18.122-27.29-33.9-50.104-35.072-50.637-1.173-.64-3.092-1.172-4.264-1.172-1.28 0-13.326 5.65-26.97 12.472zm-207.449 26.544c-2.452 1.706-56.073 107.35-58.845 115.984-1.279 3.944-1.172 4.37 1.066 6.183 2.239 1.812 5.33 1.919 43.814 1.919h41.362l2.878-2.452c2.452-2.132 3.625-5.65 8.528-24.838 6.93-26.97 7.036-27.078 19.082-27.078 9.168 0 13.113-1.385 14.179-5.223.426-1.493.746-8.848.746-16.31 0-12.046-.213-13.859-2.239-16.417-1.599-2.132-10.873-7.143-32.514-17.59-16.63-8.101-31.448-14.924-32.94-15.35-1.706-.32-3.624 0-5.117 1.172zm144.767 4.051c-34.433 15.99-52.236 25.265-54.048 28.037-1.599 2.345-1.919 5.223-1.919 16.31 0 7.355.32 14.604.746 16.097 1.066 3.838 5.01 5.223 14.179 5.223 12.152 0 12.259.107 19.082 27.078 4.903 19.295 5.97 22.6 8.528 24.838l2.878 2.452h41.255c35.712 0 41.682-.213 43.707-1.706 1.28-.853 2.346-2.558 2.346-3.624 0-1.066-12.9-27.824-28.676-59.485-26.971-54.047-30.915-60.976-34.753-60.976-.533 0-6.61 2.558-13.325 5.756z" fill="#f2f2f2"/></svg>