<svg xmlns="http://www.w3.org/2000/svg" viewBox="0 0 512 512" height="682.667" width="682.667" version="1.0"><g fill="#f2f2f2"><path d="M116.077 25.71c-4.121 4.945-12.982 21.019-17.722 32.146-13.188 30.602-10.612 55.228 7.728 73.98 7.728 7.83 21.328 16.795 39.154 25.862 11.849 5.976 14.012 6.8 16.073 5.77 1.546-.618 4.534-4.74 7.522-10.2 2.782-5.05 7.727-13.086 10.922-17.929 6.594-9.891 7.418-11.643 6.49-14.013-.308-.824-5.254-4.636-11.024-8.345-26.171-17.001-42.142-42.245-48.53-76.968C124.423 24.163 123.6 22 121.126 22c-1.133 0-3.4 1.649-5.049 3.71zm271.912-1.34c-.515 1.34-1.752 6.594-2.68 11.643-6.387 34.723-22.358 59.967-48.529 76.968-5.77 3.709-10.716 7.521-11.025 8.345-.927 2.37-.103 4.122 6.491 14.013 3.195 4.843 8.14 12.88 10.922 17.928 2.782 5.05 6.08 9.583 7.316 10.201 2.885 1.236 5.048.412 21.431-8.346 30.499-16.383 42.863-28.644 48.427-48.118 2.885-9.788 1.752-24.934-2.885-38.844-5.049-15.043-16.383-37.093-22.668-43.893-2.679-2.885-5.667-2.885-6.8.103zm-145.075 75.834c-18.237 12.261-34.62 28.541-45.85 45.439-5.977 8.964-18.032 33.074-18.959 37.71-1.236 6.492 3.812 8.347 34.826 12.468 17.722 2.473 68.416 2.473 86.138 0 31.323-4.121 36.062-5.873 34.826-12.467-.927-4.843-13.086-28.85-19.268-38.02-11.437-17.104-27.304-32.766-45.541-45.13-7.213-4.843-9.892-6.079-13.086-6.079-3.194 0-5.873 1.236-13.086 6.08zm-97.78 105.303c-2.885 3.194-6.08 12.055-13.292 37.299-6.182 21.843-9.685 36.68-9.788 41.214 0 4.121 2.575 4.636 8.345 1.442 2.68-1.545 5.461-2.782 6.286-2.782 2.988 0 4.842-3.812 7.006-13.806 2.679-12.468 8.758-30.087 15.043-44.203 2.68-5.77 4.843-11.849 4.946-13.497.103-4.019-3.71-6.8-10.819-7.522-4.946-.412-5.77-.206-7.727 1.855zm209.368-1.134c-3.71 1.134-6.8 3.916-6.8 6.182 0 .928 2.679 7.934 6.079 15.559 6.8 15.558 11.849 30.601 14.116 42.141 2.37 11.746 3.194 13.189 7.624 14.425 2.164.619 5.873 2.68 8.243 4.637 2.37 1.958 5.255 3.606 6.285 3.606 2.782 0 4.328-4.636 3.504-10.819-2.061-17-19.68-67.282-26.171-74.494-2.164-2.473-7.11-2.885-12.88-1.237zm-164.445 8.552c-3.4 1.649-7.315 9.789-7.521 15.765-.207 4.018.206 5.048 2.37 6.697 1.442 1.03 15.249 5.564 30.704 9.994 15.455 4.534 28.953 8.965 30.086 9.995 2.68 2.37 2.68 7.315 0 11.54-2.472 4.018-5.254 4.843-11.643 3.4-5.151-1.133-5.77-.927-16.176 4.74-5.255 2.885-10.716 3.194-16.177.927-5.564-2.37-7.418-4.43-10.716-11.643-2.37-5.255-3.606-6.8-6.49-7.934-4.843-2.06-9.171-1.957-11.232.206-2.37 2.68-12.055 31.838-12.055 36.475 0 4.43 2.473 7.316 20.401 24.007 7.007 6.595 11.334 9.892 12.983 9.892 2.988 0 5.358-2.782 11.025-12.777 3.4-6.182 5.357-8.449 7.83-9.479 5.152-2.267 80.574-2.06 85.21.103 2.37 1.133 4.534 3.812 7.831 9.582 5.461 9.789 7.934 12.57 10.922 12.57 2.37 0 17.104-12.879 28.541-24.83 6.285-6.698 6.285-8.759-.309-28.336-5.873-17.413-7.419-19.473-13.704-18.65-4.842.619-8.449 3.813-10.097 8.862-1.855 5.667-4.637 8.964-9.48 11.334-6.8 3.297-11.746 2.782-20.916-1.958-7.727-4.121-8.037-4.224-13.394-3.09-6.8 1.442-9.274.72-11.85-3.401-2.575-4.225-2.575-9.17 0-11.437 1.134-1.03 14.529-5.461 29.675-9.891 15.146-4.431 28.85-8.655 30.498-9.377 3.607-1.648 4.328-4.636 2.782-11.025-1.442-6.388-4.533-11.333-7.521-12.467-1.546-.618-6.904-.103-15.662 1.443-34.208 6.079-63.882 6.182-97.368.515-6.492-1.134-12.777-2.267-13.91-2.576-1.134-.206-3.194.103-4.637.824z"/><path d="M139.879 312.149c-2.061.927-61.204 63.264-62.337 65.84-2.164 4.842-.309 5.46 18.34 5.872 16.28.31 17.207.413 18.959 2.576 2.267 2.885 2.267 2.782-5.255 23.183-6.594 17.516-7.212 20.814-4.121 22.462 1.236.618 10.2 1.03 21.946 1.03 20.504 0 26.893.928 28.026 3.813.412.927-.721 4.636-2.473 8.346-5.564 12.055-3.915 13.188 12.674 8.449 13.291-3.71 17.825-3.916 21.946-.825 1.752 1.34 16.486 13.91 32.766 28.13 16.28 14.115 31.013 26.376 32.662 27.2 2.576 1.34 3.4 1.34 6.079 0 1.649-.824 16.28-13.085 32.56-27.2 16.279-14.22 31.013-26.79 32.765-28.13 4.224-3.09 8.552-2.885 22.255.928 15.97 4.43 17.826 3.297 12.468-8.346-5.461-11.85-4.534-12.364 25.965-12.364 11.437 0 20.195-.413 21.431-1.03 1.03-.62 1.958-2.165 1.958-3.607 0-1.34-2.988-10.613-6.8-20.607-9.068-24.523-9.274-24.214 17.103-24.214 15.765 0 17.826-.72 15.662-5.564-1.752-3.915-61.203-65.53-63.78-66.148-1.339-.413-3.4-.31-4.636 0-1.34.309-10.922 8.036-21.431 17.206-28.438 24.832-30.808 26.687-33.487 26.687-3.091 0-4.74-2.267-14.322-18.65-4.018-6.903-8.655-13.6-10.2-14.734-2.68-2.06-4.534-2.164-26.275-2.473-28.128-.412-33.177 0-36.68 3.504-1.34 1.442-5.255 7.315-8.45 13.085-8.551 15.146-10.715 18.237-13.497 18.856-3.297.824-4.533-.103-27.923-20.505-11.23-9.788-21.843-18.958-23.698-20.607-3.194-2.576-7.11-3.4-10.2-2.163zm132.71 25.037c2.679 3.297 2.679 10.716-.103 13.498-1.855 1.855-3.4 2.06-16.486 2.06s-14.631-.205-16.486-2.06c-2.473-2.473-2.782-9.788-.515-13.086 2.06-2.885 4.534-3.297 19.474-2.988 11.437.206 12.364.413 14.116 2.576z"/></g></svg>