<svg xmlns="http://www.w3.org/2000/svg" viewBox="0 0 512 512" height="682.667" width="682.667" version="1.0"><g fill="#f2f2f2"><path d="M110.5 41.4c-10.2 2.1-10.5 5.4-1 11.7 23 15.1 35.7 44.4 38.8 89.2.5 6.7 1.4 12.8 2 13.4 2 2 4.8-1.7 7.5-10 3.8-11.5 4.9-19.3 4.9-33.2 0-28.6-10.5-53-27.9-65.1-7.2-5-17.1-7.5-24.3-6z"/><path d="M268.3 43.5c-8.9 5.9-17 17.8-20.7 30.5-3.6 12.3-4.2 21.9-3.5 60 .6 34 .5 36.6-1.5 46-2.2 10.9-7.7 23.3-13.2 29.8-7.3 8.8-17 14.2-18.5 10.4-.2-.7 1.1-6.3 3-12.5 5.8-18.3 7.1-26.6 7.1-45.7 0-23.8-3.1-37.1-13.2-56.7-9.5-18.6-28.7-39.8-32.6-35.9-.7.7.1 4.2 2.6 11.3 5.2 14.6 6.7 21.9 6.7 33 0 12.7-1.6 19.8-10.5 46.8-4 12.4-8.1 26.1-9 30.5-3.9 19.2-3.9 39.5 0 61.5.8 4.7 1.5 9.7 1.5 11.2 0 6.8-5.7 1.1-16-16.2-15.8-26.2-21.5-44.4-22.9-72.8-.5-9.2-1.2-15.7-1.9-16.4-2-2-6 3-11.8 14.7-13.3 27.4-17.5 53.6-12.4 78.6 4.1 20.2 11 35.1 33.5 72.4 20.7 34.2 27.2 48.1 32.7 68.5 2.4 9.3 3.7 35.4 1.9 38.8-1.9 3.6-4.5 2.6-9.4-3.6-7.7-9.5-15.9-15.6-38.7-28.3-13.4-7.5-22.2-15.4-23.9-21.5-.6-2.1-1.1-7.4-1.1-11.7 0-6.9-.2-7.7-1.9-7.7-2.4 0-9.3 7.6-12.4 13.7-3.9 7.6-5.1 15.2-3.7 23.1 1.6 9 3.8 14 14.8 33 12.6 21.8 15.5 29.1 15.6 40.2.2 13.2-4.2 22.4-16.8 35.8-3.6 3.8-6.6 7.7-6.6 8.6 0 .9 1.2 2.1 2.6 2.6 3.6 1.4 326.9 1.4 329.5 0 3.1-1.7 2.3-4.1-4.1-12.6-11.6-15.2-17.7-31.4-18.7-49.2-1-17.2 3.7-28.6 12.8-31.3 2.1-.7 4.4-1.8 5-2.5 2.8-3.4-3.4-12.2-10.6-15-10.6-4-22.7 2.4-33.1 17.7-2.6 3.8-5.4 6.9-6.1 6.9-5.8 0-2.9-26 5-44.6 4.8-11.4 11.5-22.3 24.1-39.2 28.1-37.8 36.3-53.3 41.6-79.2 2.1-10.1 2.9-26.8 1.6-30.8-1.4-4.2-2-3.6-12.8 13.3-9 14.1-21.6 24.1-36.3 28.8-9.4 3-29.5 3.2-33.9.4-4.4-2.9-3.2-5.5 5.9-11.7 21.3-14.6 36.3-34.4 44.1-58 2.5-7.8 2.8-9.8 2.8-24 .1-14.5-.1-16.1-2.8-24.4-3.7-11.2-10.2-21.1-19.6-30-7.2-6.8-12.2-9.8-14.7-8.9-1.8.7-1.6 3 .7 11.5 7.6 28.3 3 60.5-10.2 71.1-7.2 5.8-18.1 4.7-29-2.9-7.2-4.9-20.9-18.2-26.8-25.8-23.1-30-32.3-70.3-26.4-115.5 2.5-19.7 1.3-22.1-7.8-16.1z"/><path d="M334 112c-2.9 16.4-9.1 25.5-17.3 25.5-1.7 0-5.1-.9-7.7-2-2.6-1.1-5.1-2-5.6-2-2 0-.7 5.8 2.7 12.5 9.3 18.3 23.8 31.5 34.6 31.5 4.8 0 10-4.4 11.6-9.8 2.8-9.4.6-28.1-5.4-46.7-4-12-7.2-18.5-9.4-18.5-1.5 0-2.1 1.6-3.5 9.5zm109.5 72.3c0 1.1 2.2 6.2 4.9 11.5 16.4 32.3 12.5 73.7-11.6 120.4-6.4 12.5-7.5 16.3-4.8 16.3 4 0 15.9-8.5 23.5-16.6 19.5-20.9 29.3-45.3 29.3-72.9 0-14.7-2.1-24.4-7.4-35.3-6.1-12.5-21.4-25.2-30.3-25.2-2.8 0-3.6.4-3.6 1.8zM61.2 269.2c-.3.5-1.2 3.7-2.1 7.2-2.3 9.1-6.3 16-17.1 29.5-5.1 6.5-10.7 14.4-12.4 17.6-8.8 16.4-7.9 31.6 3.1 52.1 7.4 13.9 19.1 28 21.4 25.7.3-.4.7-6 .8-12.5.3-14.6 1.5-18.2 12.8-36 9.9-15.8 12.4-20.7 14.3-28 3.1-11.9 1.2-24.2-6-38.9-6.2-12.4-12.9-20-14.8-16.7z"/></g></svg>