<svg version="1.0" xmlns="http://www.w3.org/2000/svg" width="682.667" height="682.667" viewBox="0 0 512 512"><path d="M220 17.6C118.8 23.3 64.1 44.1 52.8 81.4c-1.8 6-2 8.4-1.5 19 1.3 24.4 9.1 52.2 22.7 80.4 9.1 18.9 9 18.6 2.6 26.5-6.1 7.5-8 12.4-8.1 20.2 0 5.9.4 7.8 2.7 11.7 4 6.7 10.9 12.2 22.3 17.8 8.8 4.4 15.8 6.6 41 13.6 4.2 1.1 6.4 2.7 12.8 9.3 4.3 4.4 7.7 8.7 7.7 9.8 0 2.5-1.8 4-10.6 9.1-16.4 9.5-18 19.1-4.1 25.2 6.6 2.9 23 5.9 39.3 7.1 8.2.6 16.8 1.8 19.1 2.5 3 1.1 7.1 4.6 15.7 13.4 11.7 12 13.5 15.2 10.3 17.8-.7.6-6.9 2-13.7 3.2-25.3 4.3-48.2 10-56.1 14-7.7 4-5.4 4.3 20.9 3.4 37.3-1.3 68.1-1.1 72.1.6 2.2.9 6.2 4.8 11.4 11.4 18.4 23.1 36 53.7 44.2 77.2 5.8 16.5 6.2 17.2 10.6 18.6 5.3 1.5 11.4-.2 12.3-3.6.7-2.8-2.9-15.8-8-28.8-5.9-15.1-16.8-35.7-27.3-51.5-5.4-8.1-10-15.6-10.4-16.5-.9-2.5 1.9-4.8 5.6-4.8 4.5 0 26.3 3.5 38.2 6 21.4 4.7 43.6 13.8 49 20.2 1.6 1.8 2.5 4.2 2.5 6.3 0 7.2-12.8 39.5-22.4 56.6-5.6 9.9-6.3 13.7-2.6 15.6 3.5 1.8 8.9 1.6 12.9-.5 2.4-1.2 4.6-3.8 7.3-8.7 6-10.8 6.3-11 23.8-15.4 16.9-4.3 22.9-6.4 33.5-11.9 22.9-11.9 28.3-34 15-60.7-6.1-12.3-12.8-20.9-27-34.8l-12-11.8-.3-10c-.5-12.4 0-13.2 10.7-15.5 19.8-4.4 31.7-11.1 33.7-19.1 2.4-9.3-11-19.6-33.6-25.8-13.4-3.7-14.9-4.4-16.5-7.5-2.1-4.1-6.5-44.5-7.2-66.1l-.6-18.5 2.8-2.2c1.5-1.2 4.6-2.7 6.9-3.3 26.3-6.9 46.8-18.5 51.7-29.4 6.9-15.2-5.9-31.9-35.9-46.7-11-5.4-11.3-6.2-7.7-17.8 2.1-7.2 2.6-10.5 2.3-15.8-1.4-23.3-23.2-39-66-47.6-23.3-4.7-37.4-5.8-79.3-6.1-21.4-.1-41.9-.1-45.5.1zm84 19.5c46.4 3.5 79.8 14.4 86.4 28.3 4.4 9.3-1.1 25.6-8.6 25.6-1.5 0-6.1-.9-10.1-2-11.1-3.1-35.6-7.7-51.7-9.7-20.3-2.5-74.2-2.5-91.1 0-13 1.9-21.9 4.3-21.9 5.8 0 1.8 4.8 2.8 22.1 4.4 71.5 6.7 117.3 20.5 137 41.2 8.1 8.5 8.4 9.8 7.1 26.2-.7 7.5-1.2 21-1.2 29.8 0 13.4-.3 16.4-1.6 17.7-2.1 2.2-2.5 2.1-12.7-2.5-9.7-4.3-22.4-8-35.2-10.1-12.1-2-51.9-1.7-67.5.5-18.6 2.6-42.3 7.5-52.7 10.8-16.9 5.4-14.4 6.9 14.9 8.5 40.3 2.3 70.6 6.6 76.3 10.7 1.8 1.4 1.8 1.5-.6 3-1.3.9-7.1 2.7-12.9 4.1-19.2 4.5-35 10.2-35 12.6 0 1.5 3.2 1.8 27.1 2.5 12.4.3 28.4 1.2 35.5 2 31.4 3.5 55.8 10.7 62.9 18.5 2 2.2 2 2.2 0 3.7-1.5 1.1-3.5 1.3-7.5.9-13.4-1.4-54.8-1.8-74.5-.7-35.9 2-62.7 5.5-93.3 12.3l-14.3 3.2-3.5-1.9c-3.6-1.9-31.2-30.9-42.8-44.9-3.6-4.4-6.7-8.9-6.8-10-.6-8.8 5.7-19.2 16.8-27.6 25.9-19.5 71.1-30.5 145.8-35.5 20.7-1.3 25.3-2.2 23-4.4-1.5-1.6-12-4-24.9-5.8-15.1-2.1-58.8-2.4-75-.5-36 4.3-68.3 12.7-94 24.4-6 2.8-12.4 5.3-14.2 5.5-2.8.4-3.3.2-3.9-2.1-1.9-7.6 11-23.4 25.6-31.4 25.4-14.1 55.8-20.9 106.1-23.8 10.8-.6 13.7-1.3 12.5-3.3-2.6-4.1-45-13.9-77.1-17.7-16.9-2.1-43.9-2.3-58.3-.5-13.8 1.8-15 1.1-9.7-4.8 7.3-8 27.7-18.8 49.1-26 22.3-7.4 43.3-11.6 74-15.1 19.7-2.1 21.4-2.5 21.4-4.6 0-1.7-9-4.5-26-7.9-15-3-20.9-5-19.4-6.5 4.2-4.2 64.3-5.9 104.4-2.9zm48.6 250.4c13.4 1.9 22.9 4.3 25.8 6.6 1.6 1.2 2.8 3.7 3.5 6.9 1.4 6.5 2.6 26.1 1.7 29.4-.9 3.7-4.2 3.4-15.5-1.5-10.9-4.8-18.1-6.2-18.1-3.5 0 1 3.4 5.3 7.5 9.6 7.4 7.7 8.9 10.5 6.1 11.6-.7.3-8.3-1.3-16.7-3.5-21.5-5.6-36.3-8.1-51.4-8.7-12.5-.5-16.5.1-15.1 2.4.3.5 7 3.3 14.8 6.2 23.4 8.5 42.8 18.5 42.8 21.9 0 1.8-4.6 1.9-17.3.5-7.3-.8-24-1.7-37.2-2-13.2-.3-25.4-1-27.2-1.5-1.7-.6-5.1-3.1-7.4-5.7-2.3-2.6-12.7-13.4-23.1-24-11-11.3-19-20.3-19.4-21.9-.9-3.5 2.3-6.2 11.3-9.7 19.6-7.4 49.2-12.7 84.3-15 10.1-.7 40.4.5 50.6 1.9z" fill="#f2f2f2"/></svg>