<svg version="1.0" xmlns="http://www.w3.org/2000/svg" width="682.667" height="682.667" viewBox="0 0 512 512"><path d="M227.5 27c-5.8 2.9-55.1 52.5-56.1 56.5-.5 2.1.9 11.5 5 31.8 3.1 15.9 6.2 29.9 6.8 31.2.5 1.2 2.1 2.8 3.5 3.4 3.4 1.6 135.2 1.6 138.6 0 1.4-.6 3-2.2 3.5-3.4 2.2-4.9 12.6-60 11.8-62.9-.9-3.5-24-27.4-29.1-30.2-3.4-1.8-3.4-1.8-10 .9-11.7 4.8-13.9 3.4-8.5-5.8 4-6.8 3.9-10.1-.7-15.5-6.5-7.6-8.3-8-36.3-8-22.5 0-24.8.2-28.5 2zm-8.5 73.5c10.5 5.2 17.4 9.3 18.1 10.6 1.7 3.3.6 11.7-2 14.2-2 2.1-3.3 2.2-18.6 2.5-16.4.3-16.5.3-19-2.2-2.4-2.4-2.5-2.9-2.5-15.8 0-14.3 1-17.8 5.1-17.8 1 0 9.5 3.8 18.9 8.5zm96.4-6.3c1.3 1.8 1.6 5.1 1.6 15.6 0 12.9-.1 13.4-2.5 15.8-2.5 2.5-2.6 2.5-19 2.2-15.3-.3-16.6-.4-18.6-2.5-2.6-2.5-3.7-10.9-2-14.1 1.2-2.3 33.9-19.2 37.1-19.2 1 0 2.6 1 3.4 2.2zM145 113.6c-1.9.8-4.9 2.6-6.8 4.1-3.3 2.5-3.4 2.6-2.7 8.4.7 5.7.6 5.9-1.7 5.9-1.3 0-5-.9-8.2-2.1-3.9-1.3-6.9-1.8-9-1.3-1.7.3-11.6 4.9-21.9 10.1-16.9 8.5-19 9.9-20.3 12.9-1.8 4.3-1.8 7.4.2 10.2 2.2 3.2 5.3 3 47.7-3.2 38.6-5.6 40.7-6.1 40.7-11 0-1.2-1.6-8.8-3.6-17-4.6-18.8-6.1-20.6-14.4-17zm213.1.3c-1.8 1.8-9.1 28.9-9.1 33.7 0 4.9 2.1 5.4 40.7 11 42.4 6.2 45.5 6.4 47.7 3.2 2-2.8 2-5.9.2-10.3-1.4-3.2-4-4.7-37.6-21.4-19.8-10-36.9-18.1-38-18.1-1.1 0-2.8.8-3.9 1.9zm-192 58.1c-24.3 2-27.8 2.7-29.9 6-1.4 2.3-8.2 46.6-8.2 53.5 0 3.2.6 5.1 2 6.5 3.4 3.4 43.8 23 47.4 23 1.7 0 10.6-2.5 19.6-5.5 18.2-6.1 22.2-6.5 25.1-2.5 3.2 4.3 3.5 8.5.7 11.3-3.1 3.1-40.4 15.7-46.5 15.7-3.3 0-7.9-1.8-20.5-8-18.7-9.3-21.1-9.7-21.6-3.5-.3 4.8 15 68.7 17.4 72.2.8 1.3 2.6 2.8 3.9 3.3 3.2 1.2 78.9 12 84.2 12 7.8 0 7.3 5.1 7.3-80 0-73.6-.1-75.6-2-78.8-1.3-2.1-8-7.2-19.7-15l-17.7-11.7-9.1-.2c-4.9-.1-19.5.7-32.4 1.7zm136.4.1c-9.5 5.1-33.8 22.4-35.6 25.3-1.8 3-1.9 6.2-1.9 78.6 0 85.1-.5 80 7.3 80 5.3 0 81-10.8 84.2-12 1.3-.5 3.1-2 3.9-3.3 2.4-3.5 17.7-67.4 17.4-72.2-.4-5.1-2.7-5.6-10.1-2.2-8.5 3.9-11.4 7.1-17.4 19-7.9 15.9-9.9 18.7-12.8 18.7-2.8 0-3.6-1-11.6-15.4-3.5-6.5-6.7-10.9-8.8-12.3-1.8-1.2-8.2-3.8-14.3-5.9-13.1-4.3-16.4-6.8-15.4-11.7 1-5 3.8-8.2 7.7-8.5 2.1-.2 9.7 1.9 19.9 5.3 9 3 17.9 5.5 19.6 5.5 3.6 0 44-19.6 47.4-23 1.4-1.4 2-3.3 2-6.5 0-6.8-6.8-51.2-8.2-53.4-.7-1.1-2.3-2.4-3.6-3-2.4-1.1-49-5.1-59.7-5.1-4.2 0-7.2.6-10 2.1zM81.9 182.5c-12.5 1.8-23.5 3.8-24.5 4.3-3.1 1.7-7.6 7-18.7 21.9-5.8 7.7-11 15.6-11.6 17.5-.8 2.5-.8 5.5 0 11.4 1.7 12.7 2.5 13.9 12.3 18.4 8.4 3.9 10.8 6.1 9.8 9-.3.8-3.8 4.6-7.8 8.5-8.7 8.2-8.5 6.7-5 29.5 2.5 16.9 3.5 19.7 6.9 20.5 2.6.7 46.9-7.7 53.3-10.1 2.5-.9 4.5-2.4 5.3-4 .7-1.7 1.1-11 1.1-28.2v-25.7l6-34c3.3-18.7 6-35.2 6-36.7 0-3.7-2.5-5.8-6.8-5.7-2 0-13.9 1.6-26.3 3.4zm316.9-2.4c-1.1.6-1.8 2.2-1.8 4.2 0 1.8 2.7 18.5 6 37.2l6 34v25.7c0 27.4.4 29.7 4.8 31.8 4.5 2 42.5 9.1 45.8 8.5 4.3-.8 13.9-10.9 15.3-16.1 2.1-8 11.1-75.1 10.5-78.1-.6-3-19.4-29.3-25.8-36.1-4.3-4.7-5.3-5.1-16.1-6.7-11.2-1.7-13.3-1.1-16.5 3.9-1.2 2-3 3.6-4 3.6s-3.4-2.2-5.5-5.1c-5-6.9-13.3-10-18.7-6.8zM74.5 336.6c-12.6 2.5-24.1 5-25.5 5.7-5.9 2.8-6 1.5 7.5 62.6 6.9 31 13 57.3 13.7 58.4 2.5 4.8 4.4 4.8 25.4-.4 19.1-4.8 21.4-6.1 21.4-12.3 0-4.8-11.7-111.2-12.5-113.7-1.7-5.2-4.5-5.2-30-.3zm336.3-3.5c-1 .5-2.2 1.8-2.7 2.8-1.3 2.3-13.3 110.1-12.9 115.4.4 5 3.2 7.3 11.1 8.9 8.1 1.7 10.2.4 13.6-8.6 4.2-11.2 6.3-11.1 14.3.7 4.4 6.5 7.3 7.3 9.5 2.7 1.5-3.3 23.3-101.2 23.5-105.7.2-6.3-1.5-7-28.3-12.4-27-5.4-25.7-5.2-28.1-3.8zM155.2 364c-1.2.5-2.7 2.1-3.2 3.4-1.3 3.6-13.3 112.3-12.6 115 .3 1.2 1.7 2.8 3.1 3.4 3.7 1.7 69.9 1.6 74-.1 2.6-1.1 5.1-5.4 19.5-33.7 9.1-17.8 17.3-32.9 18.2-33.4 1.3-.8 2.3-.8 3.5 0 1 .5 9.2 15.6 18.3 33.4 14.4 28.3 16.9 32.6 19.5 33.7 3.9 1.6 23.1 1.6 26.9 0 1.9-.8 4.1-3.4 6.5-7.6 6-10.7 8.2-10.7 14.1-.1 2 3.4 4.7 6.8 6 7.6 3.1 1.7 16.9 1.8 20.5.2 1.4-.6 2.8-2.2 3.1-3.4.7-2.7-11.2-111.3-12.6-115-.5-1.3-2.1-2.9-3.4-3.4-1.8-.6-15.9 1-51.3 6.1l-48.8 6.9-18.8-2.6c-24-3.3-23.3-3.6-26.6 12.7-.7 3.1-1.8 6.5-2.6 7.5-1.4 1.8-1.6 1.8-3.8-.7-1.3-1.4-4.3-7.2-6.7-12.9-3.2-7.6-5-10.7-7.2-11.9-1.6-1.1-8-2.5-15.1-3.5-6.7-.9-13.5-1.9-15.2-2.1-1.6-.2-4 0-5.3.5z" fill="#f2f2f2"/></svg>