<svg version="1.0" xmlns="http://www.w3.org/2000/svg" width="682.667" height="682.667" viewBox="0 0 512 512"><g fill="#f2f2f2"><path d="M235.9 28.5c-1.5.8-4.7 4.5-7.1 8.2-12 18.1-20.6 32-21.2 34.1-1.1 3.3 1.2 6.3 9.1 11.9l6.8 4.8 16.9-.2c16.6-.1 16.9-.2 23-3.2 3.3-1.7 8.4-4.8 11.1-6.9 7.7-5.8 7.5-7.3-3.6-26.7-5-8.8-10.4-17.3-11.9-18.9-4.2-4.3-17.5-6.1-23.1-3.1zM59.4 48.2c-3.5 7.1-4.9 8.5-11.6 11.9-3.5 1.8-5.5 3.4-5.2 4.2.2.7 2.9 2.7 5.9 4.5 3 1.8 7.4 5.5 9.7 8.2 2.4 2.8 4.9 5 5.7 5 .8 0 3.5-2.2 6-5 2.5-2.7 7.3-6.5 10.6-8.3 3.3-1.8 6-3.9 6-4.7 0-.8-3.1-3-7-5-6.1-3.1-7.5-4.3-10.6-9.5-2-3.3-4.3-6.1-5.2-6.3-1.1-.2-2.5 1.4-4.3 5zm240.7 7.9c-3.7 1.5-2.4 4.8 12 29.5 9.4 16.3 13.1 23.5 13.2 26 .1 3.6-3.4 9.3-17.5 28.1-3.7 5-7.1 10.4-7.4 12-.5 2.4.6 4.7 6.4 13.4 7.9 11.8 10.4 14.4 12.8 13.5 1.5-.6 1.6-1.8 1-9.9-.5-6.9-.3-10.2.8-13.3.7-2.2 9.4-21.6 19.1-43 9.7-21.4 17.9-40.3 18.2-42 .4-2.6.1-3.5-2-4.8-1.9-1.3-25.2-5.8-51.7-10-1.4-.2-3.6 0-4.9.5zM159.6 71.8c-24 7.2-24.1 7.3-19.6 18.6 3.7 9.2 3.6 9.8-4 22.2-8 13-6.8 15 8.8 13.9 9-.7 9.9-.6 12.5 1.5 2.7 2.1 14 23.2 15.8 29.5.5 1.6 2.1 20.1 3.5 41 2 30 2.9 38.8 4.3 42 2.2 5 27 28.5 30 28.5 1.1 0 2.7-1 3.5-2.3.8-1.2 3.8-11.6 6.7-23 2.8-11.5 6-21.8 6.9-23 1.6-2 1.9-2 4.2-.5 1.4.9 10.9 13.6 21.3 28.3 10.8 15.3 19.8 27.1 21.1 27.7 1.8.8 3.1.8 5 0 1.4-.7 12.8-8.6 25.3-17.7 25.5-18.4 26.6-19.6 24-26.9-1.9-5.2-36.6-56.4-39.7-58.4-1.7-1.1-2.5-1.2-3.6-.3-1.8 1.5-2.1 3.6-5 32.7-1.3 13.3-2.9 25.1-3.5 26.3-.7 1.1-2.1 2.1-3.2 2.1-1.3 0-12.2-9.9-30.2-27.4-39.5-38.3-48.8-48-54.3-56.6-6.1-9.6-23.4-43.5-23.4-46.1 0-2.6 1.4-5.2 10.3-19.2 8.5-13.3 9.4-15.2 7.7-17.2-1.8-2.2-3.9-1.9-24.4 4.3zm212.7 16.4c-2.8 3.1-24.3 50.8-24.3 53.9 0 3.4 2.1 5.4 13.7 13.4 12.1 8.4 14 10.1 16.3 14.5 3.9 7.8 28 81.2 28 85.4 0 3.3.7 5.3 3 8.2 6 7.6 6 7.6 7.5 6.4 1.7-1.4 2.1-3.9 5-28.4 1.2-11.2 2.8-21.3 3.4-22.5 2-3.7 5.9-2.5 21.5 6.5 9.1 5.3 16.1 8.7 18 8.8 3 .1 3.1-.1 3-3.9 0-4-17.4-63.7-20-68.6-1.9-3.8-5.3-4.2-15-1.9-14.8 3.5-18.2 2.4-19.1-6.3-.8-7 .6-7.8 22.7-13.1 26.8-6.5 28.9-7.6 23.8-12.3-2-1.8-22.8-13.3-51.3-28.4-12.7-6.7-29.1-13.9-31.8-13.9-1.3 0-3.3 1-4.4 2.2z"/><path d="M285.5 92c-7.3 3.6-13.9 9.3-16.1 13.9-2.7 5.7-4.8 7.1-10 7.1-3.3 0-5.1-.7-8.4-3.5-3.3-2.7-5.1-3.5-8.2-3.5-3.4 0-4.6.6-8.4 4.5-4 4.1-4.7 4.5-9.2 4.5-5.6 0-6.9-1.1-10-8.1-1.6-3.7-3.4-5.5-9.7-9.7-4.2-2.9-8.2-5.2-8.9-5.2-3.5 0-9.6 8.2-9.6 12.8 0 3.1 12.7 28 18.5 36.2 7.4 10.4 13 15.8 20.2 19.2 7.9 3.8 14.3 4 23.8.8 12-3.9 19.5-8.5 19.5-11.7 0-.8-3-2.8-6.7-4.5-5.7-2.6-8.4-3.2-16.1-3.6-8.4-.4-10.1-.2-16.3 2.3-8 3.1-10.7 2.8-15-1.5-3.8-3.8-3.7-6.5.6-10.6 14-13.2 53.9-10.8 63.4 3.9 1.3 2 3.1 3.7 3.8 3.7 4.1 0 21.3-22.8 21.3-28.2 0-3.2-6.1-15-9.7-18.6-2.7-2.7-3.7-2.7-8.8-.2zm-190 7.4c-9.3 2.9-18 5.9-19.2 6.7-3.2 2-4.1 5-5.3 17.9-1.6 18.5-1.6 18.4 3.5 23.9 2.9 3.1 4.5 5.7 4.5 7.4 0 1.8-3.7 7.3-12.2 17.9-6.7 8.4-13.4 17.3-15 19.7-3.1 4.9-3.6 8.1-1.3 8.1 1.9 0 13.1-7.7 35.4-24.4 10.1-7.6 19.5-14.2 20.9-14.7 3.2-1.2 6.7 1 8.9 5.5 3.1 6.5 2.4 7.2-23.5 23.3-13 8.1-24.7 15.8-25.9 17.1-2.6 2.8-2.8 4.1-5.3 32.6-2 23.6-1.7 26.6 2.3 26.6 1.4 0 7.7-3.7 14.7-8.6 20.1-13.9 20.6-14 26.1-4.2 4 7.4 6.9 8.6 9.2 4.1.8-1.5 7.2-21.3 14.2-43.8 14.4-46.6 14.4-46.4 18.9-51.9 4.4-5.4 5-7.7 3.2-12-2.3-5.5-4.6-6-22.6-4.7-8.5.6-18.6 1.1-22.3 1.1-10.9 0-10.7-1.4 3.9-24.6 10-15.9 13.4-22 13.4-24.3 0-2-3.3-4.1-6.3-4-1.8 0-10.8 2.4-20.2 5.3zm160.2 79c-7.8 2.8-8.5 5.6-3.1 11.6 4.6 5.1 7.2 5.9 9.6 3 2.6-3.3 2.6-13.5-.1-15-2.3-1.2-1.7-1.2-6.4.4zm118 63.8c-.8 1.3-2.5 4.3-3.8 6.8-1.9 3.5-3.7 5.2-8.4 7.7-3.3 1.7-6 3.8-6 4.5 0 .7 3 3.3 6.8 5.8 3.7 2.5 7.9 6.2 9.4 8.2 1.5 2.2 3.5 3.8 4.6 3.8 1 0 3.9-2.2 6.4-5 2.4-2.7 7.2-6.4 10.6-8.2 3.3-1.8 6.3-3.9 6.5-4.6.2-.7-2.2-2.4-6-4.1-6.2-2.8-9.5-5.8-14.1-13-2.8-4.4-4.2-4.8-6-1.9zm66.9 5.3c-.8.9-1.8 3-2.1 4.8-1.3 7.6-4.5 40.6-4.5 46.4 0 5.7.2 6.3 2 6.3 1.5 0 3.6-2.5 7.6-8.8 12-18.7 12.2-18.9 22.7-17.8 8.6 1 9.8-.3 7.2-8-2.7-7.9-7.2-12.6-18.4-18.9-10.4-5.9-12.1-6.4-14.5-4zm-204.4 16.3c-1.2 1.2-3.4 8-6.1 18.7-2.2 9.3-4.8 17.9-5.6 19.2-1.7 2.5-3.9 2.9-7.9 1.3-1.6-.6-2.7-.6-3.1.1-.8 1.3 4.4 12.2 8.4 17.6 4.4 6 6.7 5.8 24-2.2 7.7-3.6 15.4-6.8 17.1-7.2 4.1-.8 6.7 1.8 12.8 12.5 6.8 12.2 7.1 12.3 25.8 8.3 18.8-4 23.1-5.5 24.8-8.9 1.9-3.6 5.6-27.2 5.6-35.4 0-13.5-3.2-21.7-7.8-20.1-.9.3-11.6 7.6-23.7 16.3-12.1 8.6-23 16.2-24.2 16.8-5.5 3-6.8 1.8-20.9-18.3-14.1-20.3-15.9-22-19.2-18.7zM85.5 275.7c-4.2 2.3-29.4 20.1-32.7 23.1-5.6 5.2-7.9 18.3-3.3 19 1.1.1 7.6-2.9 14.4-6.9 6.9-3.9 13.7-7.5 15.1-8.1 3.8-1.3 6.4 0 14.5 7.2 3.9 3.4 8 6.6 9.2 7.2 3.1 1.5 5.3-.5 5.3-4.9 0-4.9-12.5-33.8-15.8-36.3-2.9-2.4-2.9-2.4-6.7-.3zm86.2 9.8c-2.1 2.1-41.6 95-42.3 99.5-.8 4.7 4.3 27.4 6.7 30.4 1.6 1.9 1.9 2 3.4.5.9-.9 3.9-7.8 6.5-15.3 4.7-13.4 7.2-18.6 8.9-18.6 2 0 4.4 4.6 9.1 17.5 4.6 12.8 6.7 16.5 9.3 16.5.6 0 2.6-1.7 4.6-3.8 3.8-4 10.3-17.8 16.1-34.4 1.7-4.8 5.5-15.1 8.5-22.8 5.8-15 6.5-19.2 3.8-24.3-2.4-4.7-26.3-42.9-28.1-45-1.8-2.1-4.6-2.2-6.5-.2zm178.2 16.7c-.6 1.2-2.4 9.6-4 18.6-3.5 20.8-3 20.2-20.4 24.5-18.5 4.6-18.9 6.2-4 15.4 15.4 9.4 14.9 8.4 18.1 34.3.9 7.4 2 14.3 2.6 15.3 1.9 3.6 5 1.5 11.8-8 8.4-11.9 9.2-12.7 12.3-11.9 1.9.4 5 4.4 12 14.9 5.1 7.8 10.1 14.8 11 15.6 2.1 1.7 4.5.8 5.6-2.3 1.3-3.3 6.1-43.1 6.1-50.4 0-6.9 1.5-4.4-25.2-40.3-21.8-29.3-23.2-30.7-25.9-25.7zm96.8 23c-.8 1.3-2.5 4.3-3.8 6.8-1.9 3.4-3.7 5.2-8.1 7.5-3.1 1.7-6 3.4-6.4 3.7-1.1 1.2 1.3 3.5 7 6.6 2.8 1.7 6.9 5.1 9 7.6 2 2.5 4.4 4.6 5.3 4.6.8 0 3.5-2.2 6-5 2.4-2.7 7.1-6.4 10.4-8.1 7.6-4.1 7.7-5.9.4-8.9-5.5-2.2-9.9-6.4-14-13.1-2.6-4.2-4-4.6-5.8-1.7zm-220.5 41.1c-.5.7-1.9 3.3-3.1 5.8-2.5 5.4-5.5 8.4-11.9 11.9-6.9 3.7-6.7 4.3 5 11.5 2.1 1.3 4.3 4.1 6.2 8.2 1.7 3.5 3.5 6.3 4.2 6.3.6 0 2.9-2.8 5.2-6.3 2.2-3.4 6.1-7.7 8.6-9.5 2.5-1.8 4.6-4.1 4.6-5 0-1-2.2-3.9-4.8-6.5-2.7-2.7-6.2-7.5-7.7-10.7-2.9-6.1-4.7-7.7-6.3-5.7zm132.6 61.4c-8.2 11.3-16.3 24.1-17.5 27.7-.8 2.1-1.6 9.5-2 16.5-.5 12.2-.5 12.7 1.7 14.6 2.1 1.9 4.3 2 61.2 2.9 57.8.8 59.1.8 61.7-1.1 1.6-1.3 4.7-6.6 8.3-14.4 8.2-17.8 9.1-21.9 4.8-21.9-1.1 0-6.6 2.5-12.4 5.5-5.7 3-11.6 5.5-12.9 5.5-2.4 0-7.7-4.9-7.7-7 0-.5-1.2-2.2-2.6-3.9-3.3-4-6.8-4-11.6-.1-4.4 3.6-7.8 5-12.4 5-5.1 0-7.2 1.5-8.5 6.3-2.1 7.8-3.1 9.7-5 9.7-2.2 0-5.3-4.1-23.1-31-11.2-16.9-12.6-18.5-15.4-18.8-2.8-.3-3.6.3-6.6 4.5zm-176 9.4c-2.4 2.4-6.5 7-9.2 10.2-6.4 7.7-8 7.5-12.6-1.8-3.8-7.6-6-9-8.4-5.3-2.5 4-15.7 43.9-15.1 45.9 1 3 6.9 3.9 27.2 3.9 18.6 0 23.8-.7 25.5-3.3.4-.7.5-12.5.2-26.2-.8-29.5-1-30.3-7.6-23.4zm-105.2 4.1c-2.5 6.9-8.9 41.4-8.2 44.2 1 4.2 5.3 4.8 33.3 4.4 24.1-.3 25.3-.4 27.4-2.4l2.1-2.1-2.8-11.4c-1.4-6.3-3.3-12.4-4.1-13.7-1.8-2.9-5.8-2.9-13.3.3-3.3 1.4-6.6 2.5-7.4 2.5-2.7 0-7.2-4.9-12.4-13.2-8.7-14.2-11.8-16.1-14.6-8.6z"/></g></svg>