<svg xmlns="http://www.w3.org/2000/svg" version="1.0" width="682.667" height="682.667" viewBox="0 0 512 512"><path d="M253.267 40.5c-4.349.015-8.469.195-13.134 1.03-23.931 4.26-46.807 17.053-66.076 34.687-3.608 3.302-6.633 6.662-9.375 10.094-1.371 1.716-2.625 3.372-3.966 5.498-.67 1.062-1.369 2.207-2.215 4.046-.845 1.84-2.472 3.696-2.472 10.993 0 3.854 1.77 9.635 5.012 14.512-.152-.026-.351-.068-.5-.093-.75-.123-1.43-.233-2.395-.348-.482-.058-1.01-.122-1.968-.175-.706-.038-1.765-.174-4.215.163-3.67.234-4.031.726-4.682.923-.821.249-1.306.42-1.786.594a55.41 55.41 0 00-2.286.896c-8.944 3.544-14.274 10.849-17.116 16.252-.661 1.258-1.121 2.537-1.68 3.79-5.13-3.249-10.698-6.306-18.066-9.931l-.033-.016-.032-.016c-11.739-5.732-23.169-10.6-33.09-14.188-9.922-3.589-15.09-6.767-28.206-6.42h-.003c-3.634.097-9.978-.722-18.173 7.36-3.106 3.041-8.178 11.584-8.137 18.976.042 7.521 2.343 11.181 3.767 13.792 2.833 5.195 5.29 8.127 9.572 13.8 14.695 19.624 28.683 44.324 40.486 72.207l.005.016.007.015c1.823 4.29 3.67 8.363 5.366 11.828a97.328 97.328 0 002.528 4.872c.879 1.57.105 2.017 5.177 7.11 1.253 1.294 2.867 2.97 6.352 4.965 1.539.881 3.774 1.776 6.316 2.451-.762 7.772-1.4 15.386-1.738 21.978-.264 5.147-.397 9.615-.315 13.622.042 2.004.094 3.796.43 6.302.17 1.253.34 2.634 1.113 5.094.773 2.46.39 7.238 10.276 13.635l.112.072.114.07c.876.554 2.026 1.073 3.234 1.565-1.441 5.696-2.792 11.368-3.736 16.324-6.662 34.9-14.234 57.013-33.496 97.167l-.028.06-.029.061c-3.53 7.465-6.176 13.288-8.122 18.022-.973 2.367-1.77 4.418-2.501 6.728-.731 2.309-2.565 2.797-1.486 12.509l.01.106.015.105c.126 1.052.08 3.025 1.762 7.356 1.68 4.332 6.995 10.912 12.187 13.603 10.383 5.382 12.77 3.137 15.425 3.137h.22c15.218-.137 27.388-6.465 37.053-15.897 1.771 2.194 3.732 4.367 6.287 6.59 4.044 3.519 11.056 8.025 20.582 7.742 1.723-.051 3.355-.323 4.937-.68 4.133 5.318 10.952 10.342 17.818 11.57 7.797 1.415 9.41.791 15.104.833 5.739.043 12.57-.02 19.287-.16 42.955-.786 49.458-.783 86.489 0 6.716.14 13.548.203 19.287.16 5.695-.042 7.306.581 15.104-.834 6.306-1.128 12.694-5.453 16.898-10.271 1.486.426 2.981.85 4.642 1.009 8.64.826 15.915-2.905 19.84-5.935 3.924-3.03 5.985-5.74 7.864-8.326.402-.553.709-1.137 1.09-1.692 2.57 2.392 5.23 4.607 8.05 6.444l.07.045.07.045c5.541 3.556 11.004 5.982 16.665 7.845 5.66 1.862 8.924 5.15 22.274 1.903l.075-.018.076-.02c2.287-.571 5.848-1.571 10.034-4.663 4.186-3.09 8.156-8.737 9.667-13.715 3.023-9.955.753-14.824-.502-19.192-2.51-8.734-6.532-17.638-13.897-34.494l-.001-.001c-18.657-42.688-21.382-50.257-29.81-82.13l-.003-.004v-.003c-2.235-8.441-4.114-15.3-5.872-21.478 1.063-.454 2.116-.919 2.903-1.416l.114-.07.112-.072c10.24-6.626 9.588-11.389 10.333-13.825.745-2.436.905-3.795 1.067-5.04.324-2.49.378-4.302.417-6.334.08-4.064-.056-8.631-.327-13.86-.34-6.546-.972-14.002-1.734-21.57 2.545-.675 4.784-1.57 6.324-2.453 3.485-1.996 5.098-3.672 6.351-4.964 5.072-5.094 4.298-5.542 5.177-7.11a97.333 97.333 0 002.53-4.873c1.696-3.465 3.542-7.538 5.365-11.828l.007-.016.008-.015c11.804-27.883 25.789-52.583 40.484-72.207 2.695-3.578 5.072-6.945 7.03-9.976.985-1.525 1.845-2.906 2.785-4.66.47-.876.962-1.796 1.617-3.436s2.834-2.299 1.726-12.269l-.118-1.05-.206-1.036c-1.499-7.497-8-15.128-13.558-18.045-5.557-2.916-9.685-3.164-12.933-3.255-10.818-.304-16.737 2.303-25.668 5.564l.11-.038c-12.117 4.358-24.518 9.615-35.173 14.757-7.07 3.411-12.697 6.017-18.213 9.608-1.593-3.805-3.571-7.75-7.817-12.11-5.825-5.98-16.603-9.636-23.463-9.55a40.87 40.87 0 00-5.155.406c-.05.006-.117.021-.169.028 3.371-4.933 5.188-10.88 5.188-14.81 0-13.705-3.484-13.26-5.004-15.59-1.52-2.33-2.952-4.127-4.52-5.991-3.139-3.729-6.728-7.449-10.682-11.021l-.128-.116-.131-.115C319.499 59.95 301.4 49.288 282.217 43.917l-.01-.001-.01-.004c-9.75-2.72-19.343-3.448-28.93-3.413zm.089 24.342c7.525-.028 16.49.896 22.298 2.517 14.734 4.126 30.157 12.966 43.81 24.95 6.09 5.5 12.18 12.672 12.18 14.538 0 2.456-6.385-.296-17.976-7.762-9.234-6.09-11.59-6.088-21.609.199-9.135 5.697-9.53 5.598-14.441-3.832-5.992-11.59-12.474-16.501-21.61-16.501-9.036 0-16.404 5.597-21.512 16.402-4.616 9.725-5.599 9.922-16.6 2.751-7.76-5.01-10.609-4.912-19.547.981-11.591 7.466-17.977 10.218-17.977 7.762 0-1.572 5.502-8.448 10.119-12.672 16.207-14.832 36.245-25.54 53.926-28.683 2.395-.43 5.518-.638 8.939-.65zm2.653 33.95c6.483 0 8.939 14.734 3.34 20.333-1.277 1.277-2.75 2.26-3.34 2.26-2.063 0-5.599-4.616-6.287-8.153-.785-4.125.688-10.707 2.947-12.966.786-.786 2.358-1.474 3.34-1.474zm-47.248 16.699c5.108 0 25.638 14.047 25.638 17.583 0 .982-.688 2.16-1.572 2.455-3.83 1.474-34.774-.392-41.355-2.455-2.456-.786-3.241-1.573-3.241-3.439 0-1.964 1.767-3.535 8.938-8.25 5.304-3.438 10.02-5.894 11.592-5.894zm94.102 0c2.947 0 6.976 2.064 14.637 7.565 9.823 6.876 9.33 9.429-2.358 11.098-9.823 1.376-31.728 2.358-34.871 1.572-3.242-.786-3.439-3.438-.394-6.189 1.179-1.178 6.287-4.715 11.395-8.054 5.01-3.34 10.216-5.992 11.591-5.992zM45.63 137.125c6.793-.18 27.969 7.405 49.972 18.148 18.369 9.037 24.852 13.752 24.852 18.173 0 1.473-1.376 8.938-2.948 16.501-1.67 7.662-4.519 23.084-6.385 34.282-3.733 21.905-4.91 24.852-8.25 21.414-1.08-1.08-4.617-8.35-7.957-16.208-12.475-29.468-27.308-55.794-43.417-77.306-8.448-11.198-9.43-12.966-7.858-14.44.344-.355 1.021-.539 1.991-.564zm420.032.2c1.965.054 3.085.636 3.306 1.741.098.884-3.635 6.678-8.449 13.063-16.109 21.512-30.941 47.838-43.416 77.306-3.34 7.859-6.877 15.127-7.957 16.208-3.34 3.438-4.518.491-8.25-21.414-1.867-11.198-4.715-26.62-6.385-34.282-3.83-17.975-3.83-18.465.786-22.59 6.483-5.895 31.334-17.88 53.73-25.935 7.736-2.824 13.36-4.19 16.635-4.098zm-310.808 7.728c3.243.176 36.598 7.305 38.976 8.256 2.162.885 3.241 2.063 3.241 3.34 0 1.08-3.044 5.598-6.678 10.117-9.037 11.001-12.672 16.305-19.352 27.7-11.886 20.333-23.476 47.543-37.228 87.424-8.644 25.048-10.707 29.665-12.573 28.486-1.67-1.08-.296-27.405 2.553-50.292 5.206-40.372 11.69-73.574 18.86-95.97 3.831-12.279 6.287-16.894 9.529-18.171 1.179-.491 2.257-.885 2.454-.885a.917.917 0 01.218-.005zm201.578.51c4.764-.06 7.148 2.54 9.985 10.104 8.25 21.61 15.52 56.578 21.707 104.219 2.947 22.101 4.325 49.41 2.655 50.49-1.866 1.18-3.931-3.34-12.575-28.486-20.235-58.643-35.264-89.388-56.58-115.124-3.634-4.519-6.678-9.036-6.678-10.117 0-1.277 1.079-2.455 3.24-3.34 2.75-1.08 29.076-6.68 36.05-7.564.786-.11 1.516-.173 2.196-.181zm-100.656 9.22c10.45 0 20.91.49 23.709 1.473 5.796 1.964 14.833 8.252 16.11 11.002 1.67 3.635-.001 5.206-8.743 8.153-9.037 3.045-13.064 5.009-15.225 7.464-3.733 4.322-2.751 7.466 3.339 10.315 5.402 2.357 7.564 2.356 16.797-.59 4.224-1.376 10.904-2.75 14.833-3.143 7.072-.589 7.27-.493 10.216 2.454 3.242 3.144 3.93 6.19 1.866 7.762-.687.59-5.01 1.277-9.626 1.571-10.216.786-17.878 2.75-27.21 7.073-9.037 4.223-10.216 6.188-7.76 13.752 3.34 10.608 15.128 20.136 26.719 21.61 6.188.786 17.288-2.063 26.816-6.778 11.885-5.992 12.574-5.501 20.432 14.144 7.662 19.057 9.43 24.95 8.84 29.568-.589 4.813-12.082 28.583-19.351 40.174-18.173 29.076-44.89 55.796-66.402 66.502-6.876 3.34-8.448 3.733-15.127 3.733-6.68 0-8.252-.393-15.03-3.733-20.333-10.019-44.79-33.791-63.061-61.099-8.153-12.18-22.102-39.978-22.79-45.478-.589-4.715 1.08-10.512 8.84-29.667 7.86-19.645 8.546-20.136 20.432-14.144 9.528 4.715 20.627 7.564 26.913 6.778 11.395-1.375 23.283-11.1 26.623-21.61 2.455-7.564 1.276-9.529-7.76-13.752-9.332-4.322-16.995-6.287-27.21-7.073-4.617-.294-8.94-.982-9.53-1.571-2.062-1.572-1.473-4.616 1.573-7.661 2.455-2.456 3.634-2.85 8.349-2.85 5.992 0 16.405 1.964 23.183 4.42 7.465 2.652 18.662-.59 18.662-5.5 0-5.305-5.403-9.037-18.86-13.065-9.627-2.947-11.395-4.42-9.823-7.858 1.178-2.554 10.217-8.84 15.62-10.903 2.75-.982 13.187-1.473 23.636-1.473zM201 213.72c2.653 0 6.877 4.224 6.877 6.876s-4.224 6.877-6.877 6.877c-2.652 0-6.875-4.225-6.875-6.877 0-1.179 1.08-3.143 2.455-4.42 1.277-1.376 3.34-2.456 4.42-2.456zm110.114 0c5.01 0 7.663 7.958 3.832 11.789-2.554 2.554-5.011 2.453-8.253-.1-3.438-2.751-3.438-6.875 0-9.626 1.474-1.178 3.438-2.063 4.42-2.063zm-57.848 64.49c-6.134-.044-8.873.353-9.732 1.126-1.572 1.67-1.573 1.67.195 5.01 4.028 7.858 20.53 7.858 24.558 0 1.375-2.554 1.178-5.698-.393-5.894-.295 0-5.6-.098-11.787-.196-1.02-.024-1.965-.04-2.841-.046zm112.757 32.756c3.143 0 7.467 12.377 17.191 49.115 8.546 32.317 12.278 42.73 31.04 85.656 14.636 33.495 15.815 37.523 11.1 38.702-3.634.884-13.457-2.359-20.038-6.582-6.483-4.224-10.707-9.037-16.208-18.762-4.42-7.858-6.484-9.724-9.038-8.055-.983.59-4.91 6.975-8.742 14.244-13.162 24.852-15.618 24.555-24.262-2.261-9.724-29.763-17.582-69.153-17.779-89.191l-.099-11.295 9.43-12.377c5.108-6.778 12.573-17.878 16.6-24.558 3.93-6.68 7.859-12.769 8.645-13.456.884-.59 1.865-1.18 2.16-1.18zm-220.183.21c2.02-.142 4.236 3.057 10.86 14.23 6.483 11.002 13.948 21.609 22.69 32.61l3.438 4.225-.098 11.493c-.196 14.046-3.733 36.149-9.725 60.706-5.206 20.824-12.28 42.728-14.735 45.478-4.322 4.813-9.035.69-17.974-15.617-3.635-6.68-7.368-12.671-8.252-13.26-2.75-1.67-4.715.196-9.528 8.84-7.957 14.145-20.136 23.378-31.04 23.476-4.617 0-4.911-.197-5.206-2.653-.196-1.768 3.045-9.625 9.92-24.163 19.745-41.158 28.487-66.6 35.46-103.14 2.358-12.377 8.448-34.773 10.708-38.997.49-1.08 1.474-2.259 2.064-2.652.497-.331.952-.543 1.418-.576zm99.796 3.586c-1.56 0-3.054.314-5.385.938-2.955.788-12.936 5.054-20.817 8.929-2.43 1.182-1.905 3.613 1.247 6.633 4.203 4.006 12.478 9.982 16.746 12.083 4.4 2.167 10.245 2.496 15.498.855 2.693-.788 3.48-.788 6.239 0 5.188 1.641 11.032 1.312 15.432-.855 4.268-2.101 12.543-8.077 16.746-12.083 3.152-3.02 3.678-5.451 1.314-6.633-8.931-4.334-18.125-8.206-21.737-9.06-4.137-1.05-4.794-1.05-9.85 0-4.926 1.05-5.713 1.05-9.653.13-2.594-.623-4.22-.937-5.78-.937zm-42.853 70.818c2.354-.12 6.468 2.12 12.95 6.915 5.109 3.831 13.852 9.136 19.255 11.789 5.5 2.652 10.214 5.598 10.607 6.384.983 2.554-1.766 6.58-9.133 13.555-7.564 7.072-10.414 8.056-13.754 4.716-2.16-2.161-15.911-22.495-20.037-29.666-2.554-4.322-3.341-8.84-2.064-12.082.399-1.013 1.106-1.556 2.176-1.61zm106.422.039c1.1.026 1.805.56 2.205 1.572 1.277 3.242.49 7.76-2.065 12.082-4.125 7.17-17.876 27.505-20.037 29.666-3.34 3.34-6.188 2.356-13.752-4.716-7.367-6.974-10.117-11-9.135-13.456.393-.884 4.617-3.537 9.626-5.894 4.912-2.358 13.554-7.662 19.252-11.787 7.158-5.133 11.487-7.526 13.906-7.467zm6.505 40.763c2.256-.009 3.656 3.933 6.603 15.72 1.375 5.403 4.518 16.305 7.072 24.163 5.108 16.404 5.108 25.918 0 26.802-5.894 1.08-54.517.096-55.794-1.181-2.063-2.063-.099-12.262 11.001-26.21 5.992-7.564 14.44-18.958 18.664-25.244 4.224-6.287 8.645-12.083 9.824-12.87 1.032-.736 1.878-1.177 2.63-1.18zm-119.415.035c2.013-.088 5.259 3.651 12.565 14.309 4.616 6.68 13.161 18.075 18.957 25.344 10.608 13.26 12.671 23.753 10.608 25.816-1.277 1.277-49.9 2.261-55.794 1.18-5.108-.883-5.108-10.397 0-26.801 2.554-7.858 5.699-18.957 7.074-24.556 2.652-10.51 3.928-13.85 5.795-15.03.245-.16.507-.25.795-.262zm59.714 6.352c2.554 0 4.322 1.18 9.92 6.779 8.35 8.35 8.644 10.314 2.75 17.976-11.984 15.323-13.358 15.323-25.342 0-5.894-7.662-5.598-9.627 2.751-17.976 5.599-5.6 7.367-6.78 9.92-6.78z" style="line-height:normal;font-variant-ligatures:normal;font-variant-position:normal;font-variant-caps:normal;font-variant-numeric:normal;font-variant-alternates:normal;font-feature-settings:normal;text-indent:0;text-align:start;text-decoration-line:none;text-decoration-style:solid;text-decoration-color:#000;text-transform:none;text-orientation:mixed;white-space:normal;shape-padding:0;isolation:auto;mix-blend-mode:normal;solid-color:#000;solid-opacity:1" color="#000" font-weight="400" font-family="sans-serif" overflow="visible" fill="#f2f2f2"/></svg>