<svg version="1.0" xmlns="http://www.w3.org/2000/svg" width="682.667" height="682.667" viewBox="0 0 512 512"><path d="M432.2 55.6c-15.5 7.7-27.3 34.9-33.7 77.6-1.5 9.9-3.4 14.8-5.6 14.8-.6 0-7.9-3.4-16.2-7.5-22.4-11-40.4-15.5-62.8-15.5-8.7 0-11.1-.3-12.8-1.8-1.2-.9-6.6-11.6-12.1-23.7C278.1 75.7 276.6 73 274.6 73c-2.8 0-4.8 4.4-13.9 30.3-5.2 14.7-10.2 27.6-11.3 28.8-1.3 1.5-2.6 1.9-4.6 1.5-1.5-.3-10.8-5.2-20.5-11-9.8-5.7-18.7-10.7-19.9-11-1.1-.3-2.9 0-4 .8-1.8 1.3-1.9 3.1-2.4 27.5-.5 25.2-.6 26.1-2.7 28.2-2 2.1-3.6 2.3-19.9 3.1-24.1 1.1-24.1 1-17.3 18 2.8 7 3.8 10.9 3.4 12.7-.4 1.4-6.8 8.9-14.3 16.6-7.6 7.7-18.4 18.9-24 24.9l-10.4 10.8-4.1-.5c-2.7-.3-17.9-7.2-41.3-18.6C47 225.2 29.2 217 27.7 217c-5.5 0-4.7 1.9 16.5 37.8 16.4 27.6 17.4 29.7 16.5 33.3-.4 1.3-6.3 8.5-13.2 15.9-7 7.4-13.3 14.8-14.2 16.4-2.4 4.5-.3 5.8 12.2 7.2 10.8 1.2 13.5 2.3 13.5 5.5 0 1-5.7 10.3-12.6 20.6-7 10.4-13.3 20.3-14.1 22.2-1.9 4.5-.6 5.9 3.9 4 1.8-.7 23-13.2 47.2-27.6 37.4-22.4 44.4-26.3 47.8-26.3 3 0 12.1 4 40.1 17.5 19.9 9.7 36.9 18.3 37.9 19.2 2.6 2.4 2.2 5-1.1 6.8-1.7.8-8.7 3.5-15.8 6-7 2.5-13.6 5.4-14.7 6.5-1.9 1.8-1.9 2-.2 3.8.9 1.1 5.7 3.6 10.7 5.7 11.4 4.7 12.4 6.3 7.2 11.3-2.1 2-6.1 5.3-8.8 7.2-11.1 8-9.5 9.2 13.6 10.2 9.9.4 18.9 1.2 19.9 1.8 2.7 1.4 3.2 5.4 2 15.5-2.1 18.5-1.2 23.3 3.9 20.6 1.1-.6 11.3-12.5 22.7-26.4 25.7-31.4 27.9-33.7 31.8-33.7 1.9 0 17.6 7.1 41.1 18.5 24.9 12.1 39.1 18.5 41.2 18.5 1.9 0 4.2-.9 5.7-2.3 3-2.8 122.5-155.3 124.3-158.7 2-3.8 1.6-6.1-2-12-2.6-4.5-3.8-5.6-6.2-5.8-2.3-.2-3.7.4-5.6 2.5-1.4 1.5-27.2 34.1-57.4 72.3-30.1 38.2-56 70.7-57.6 72.2-1.6 1.6-4 2.8-5.3 2.8-3.7 0-44.3-20.5-45.6-23.1-1.5-2.7-.6-7.2 2.1-11 3.1-4.5 6.6-3.9 21.8 3.6 16.8 8.3 18.4 8.3 24.4 1.3 4.9-5.8 97.2-122.4 104.9-132.6 6.2-8.1 6.3-10.8.7-18.8-11.5-16.4-24.4-31.8-39.9-47.7-6.3-6.5-11.8-13-12.3-14.5-.8-3.1.5-16.2 3.4-33.2 5.3-31.8 13.5-52.5 22.5-56.7 3.3-1.6 3.7-1.6 6.7 0 6.8 3.7 13.5 17.7 14.4 30.2l.6 7.1-4.3 4.9c-5.5 6.4-8 11.8-8 17.7-.1 19.7 24.2 30.4 38.3 17 10-9.4 9.6-24.3-.8-34.2-5-4.7-5.4-5.7-7-15.9-3.6-21.9-13.8-39.3-26.5-45-6.6-3-15.2-2.8-21.8.5zm-33.8 157.3c1.7 1.8 1.6 2.1-1.7 5.8-4.4 5-5.7 7.5-5.7 11.4 0 4.7 3.4 9.4 8.6 12 4.1 1.9 5.5 2.1 13.4 1.5 8.9-.7 8.9-.7 9.5 1.7.9 3.6-1 9.8-4.7 14.8-3.9 5.5-6 7.2-12.3 10.7-4.3 2.3-6.2 2.7-13.5 2.7-10.2 0-15.7-2.1-22.2-8.7-6.7-6.6-9.2-12.7-9.2-22.3-.1-9.3 1.9-14.8 8-21.4 6.1-6.8 12.9-9.9 22-10 4.8-.1 6.5.3 7.8 1.8zm-91.2 12.8c4.6 2.3 4.5 5.2-.5 22.7-2.6 8.9-4.7 17.3-4.7 18.8 0 3.7 2.1 5.8 21.9 22 9.6 7.9 18.3 15.5 19.4 16.9 2.3 3.2 1.7 5.6-2.5 10.5-3.7 4.2-6.8 4.4-11.7.7-11.5-8.7-46.9-38.4-47.5-39.8-.3-.9-.6-3.1-.6-4.9 0-3.2 11.1-42.1 13.1-45.8 2-3.8 7-4.2 13.1-1.1zM263 251.8c3.4 2.6 3.6 5.8.6 16.2-1.4 4.9-2.6 10-2.6 11.3 0 3.5 2.8 6.6 15.6 17.2 6.2 5.2 11.8 10.4 12.4 11.5 1.4 2.7.5 5.3-3.2 9.6-5.5 6.3-5.7 6.2-34.5-17.6-10.5-8.7-11.6-10.1-11.5-14.9.2-6.2 8.8-32.3 11.4-34.4 2.7-2.3 7.9-1.7 11.8 1.1z" fill="#f2f2f2"/></svg>