<svg version="1.0" xmlns="http://www.w3.org/2000/svg" width="682.667" height="682.667" viewBox="0 0 512 512"><g fill="#f2f2f2"><path d="M236.5 21c-18.6 2.1-37.8 7.3-55.6 15-22.6 9.8-52.9 31.8-52.9 38.3 0 1.3 1 3.7 2.2 5.3 6.3 8.1 41.3 47.2 44.1 49.2 3.6 2.7 5.9 2.4 11.8-1.4 18.2-11.4 40.4-18.5 62.4-19.9 13-.8 14.2-1.1 16-3.8C266.1 101.2 276 37 276 29c0-7.6-1.4-8.3-17.8-8.6-7.5-.1-17.3.1-21.7.6zm62.7 6.1c-1.2.4-2.7 1.9-3.2 3.1-1.2 2.6-11 69.1-11 74.2 0 4.6 2.1 6.2 14.2 10.5 12.4 4.6 16.8 6.7 27.4 13.6 10 6.5 11.5 7 15.1 5.1 1.5-.8 13.3-12 26.1-24.9 19-19.1 23.2-23.9 23.2-26.1 0-4.9-16-20-34-32.1-10.6-7.1-29.7-16.5-41.5-20.3-11.7-3.8-13.5-4.2-16.3-3.1zM106.7 96.2c-13.2 16.3-26.6 46.7-31.7 71.7-2.7 13.2-2.4 18.7 1 21.3 1.7 1.2 10.3 3.3 26.1 6.4 27.3 5.2 27.9 5.2 31-2.3 5.2-12.5 12.5-25.7 19-34.3 8.4-11.1 9.1-12.7 7.5-16.2-1.4-3.3-42-49.3-44.2-50.2-3.4-1.3-5.4-.4-8.7 3.6zm272.2 27.5c-14.9 14.9-23 23.8-23.5 25.6-.5 2.4.4 4.4 6.5 13.3 15.5 22.9 22.1 43.2 23.9 73.3.7 11.7.8 12.5 3.2 14.2 3.2 2.3 35.4 8.5 39.2 7.6 3.6-.9 5.1-4.1 7.7-15.8 8.2-38 3.2-80.4-13.8-116.4-5.1-10.9-11.3-21.3-13.9-23.3-4.1-3.2-5.8-1.9-29.3 21.5zm-141.7 3.8c-28.9 5.2-53.6 20.3-70.5 43-27.9 37.5-29.6 88.9-4.2 127.6 5.9 8.9 22.7 26 31 31.4 13.5 8.8 29.5 15.1 44.7 17.5 10.9 1.8 34 .8 44.4-1.9 51.6-13 87.2-61.4 84-114.3-2-32.6-18.4-63.1-44.5-82.8-23.3-17.6-56.6-25.6-84.9-20.5zm6.9 33.6c.7 1.3.9 4.1.5 7.3-1.4 10.9 3.2 22.5 12.1 30.6 7 6.4 14 9 24.1 9 13-.1 22.5-5.2 30.3-16.3 5.2-7.4 7.8-7.5 12.6-.4 12.2 18.2 13.5 45.8 3.3 67.5-20.2 42.6-73 55.4-110.6 26.9-19.9-15.1-31-42.2-27.4-66.8 3.5-24.4 18-44.8 39.2-55.4 10.1-5 14.1-5.6 15.9-2.4z"/><path d="M247.2 227.6c-13.8 6.9-17.4 23.9-7.4 35.4 5 5.9 10.4 8.4 17.7 8.4 24.4-.2 32.2-32.9 10.3-43.8-3.5-1.8-6.8-2.6-10.3-2.6-3.5 0-6.8.8-10.3 2.6zM74 212c-2.4 2.4-2.5 6-.5 19.5 5.3 35.4 20.5 67.9 44.5 95.2 4.4 5 9.6 10.1 11.5 11.3 3.1 1.9 4 2.1 6.5 1 4.7-1.9 17-15.5 17-18.7 0-1.4-2.3-6.1-5.1-10.6-8-12.5-14.7-27.4-18.1-40.4-2.6-10.3-3.1-14-3.6-29.2-.4-16.2-.6-17.6-2.6-19.6-1.8-1.8-6.5-3-23.8-6.3-11.8-2.3-22-4.2-22.7-4.2-.6 0-2 .9-3.1 2zm310 59.3c-1.8.9-3.7 4.2-7.1 12.5-5.4 12.8-10.7 22.2-19.1 33.5-3.7 5.1-5.8 8.8-5.8 10.6 0 3.5 12 17.8 15.6 18.7 3.7 1 6.5-.7 15.4-9.2 9.2-8.9 20.7-22.7 27.3-32.9 6-9.4 11.7-20.7 11.7-23.3 0-3.3-3.6-5-16.6-7.6-18.1-3.6-18.7-3.7-21.4-2.3zm-223.1 70.6c-3 2.7-6.3 6.5-7.4 8.4-1.7 3.3-1.8 3.7-.2 6.1 5 7.6 46.9 25.9 62.7 27.3 7.4.7 9.1-1.1 9.7-10.4.6-8.4.1-9-12.2-13.4-11.9-4.2-21-8.8-32.4-16.5-5.7-3.9-10.4-6.4-12-6.4-1.8 0-4.5 1.6-8.2 4.9zm162.6 6c-19.8 11.9-43.8 19.1-64.2 19.1-11.2 0-13.8 2.1-15 12-.9 8.7 3.5 10.4 23.8 8.9 24.9-1.7 46.1-7.4 67.7-17.9 16.9-8.3 17.4-10 6.5-21.8-6.3-6.7-8.2-6.7-18.8-.3zm-209.9 6.5c-2.4 1.8-3.6 6.3-4.3 16.1-1.4 20.9 5.6 43.7 20.1 66.3 4.3 6.7 9.1 12.2 10.7 12.2 1.7 0 2-5 .9-14.6-1.7-13.9-1.5-33.2.5-44.6 2.6-15.4 2.9-14.7-11-25.9-12.7-10.3-14.5-11.4-16.9-9.5zm280.3-.6c-2 .9-18.5 13.9-22.6 17.8-3.8 3.7-4.1 6.2-1.8 16.4 2.4 10.7 2.9 28.9 1.1 43.9-1.7 15.2-1.2 18.4 2.7 15.8 6.1-4 20.6-30.6 25.3-46.2 4.6-15.7 4.5-41.5-.3-46.7-1.7-1.9-2-2-4.4-1zm-232.5 35.8c-1.4 2.1-1.6 4.1-1 13.2 1 17.7 5.5 34 13.9 50.7 6.9 13.9 11.8 19.6 13.9 16.3.4-.7.8-10.8.8-22.3 0-11.6.5-24.2 1-28 2.3-16.4 2.4-19.9.4-21.7-2.3-2-23-10.8-25.5-10.8-1 0-2.6 1.1-3.5 2.6zm171.2 2.3c-14.5 6.1-14.4 6-12 20.9 1.4 8.8 1.8 17.2 1.9 33.9 0 25.8.5 27.3 6 20.9 7.9-9 17.9-33.3 21-51 1.7-10.1 2-24.8.5-27.7-1.6-2.9-5.2-2.3-17.4 3zm-117.8 13.2c-2.5 1.4-2.3 7.5.7 21.6 4.6 21.1 12.7 46.4 16.5 51.3 3.4 4.5 4.2 1.6 5.6-22.2.8-12.3 1.8-25.6 2.4-29.6.5-4 1-9.5 1-12.2 0-6.1-1.2-6.9-13-8.7-10.2-1.5-11-1.5-13.2-.2zm66.9.3c-5.5.9-8.4 1.9-9.9 3.4l-2.1 2.1 1.7 15.8c.9 8.7 2.1 23.4 2.6 32.8.8 16.7 1.4 20.5 3.1 20.5 3.8 0 14.3-30.7 19.6-57.7 2.5-12.5 2.6-13.3.9-15.7-1.9-3-3.5-3.1-15.9-1.2z"/></g></svg>