<svg version="1.0" xmlns="http://www.w3.org/2000/svg" width="682.667" height="682.667" viewBox="0 0 512 512"><g fill="#f2f2f2"><path d="M138 18.7c-1.6.6-3 2.3-3 3.6 0 1.5 8.7 10.2 16.5 16.2 10.7 8.4 27.6 19.3 37.9 24.5 7.9 4 8.7 4.2 11.6 3 4-1.6 8-6.5 8-9.6 0-1.8-1.1-3.1-4.2-5-2.4-1.4-10.2-6-17.3-10.3-7.2-4.2-16.8-10.5-21.3-14-4.5-3.4-9.8-6.9-11.7-7.7-3.4-1.4-13.5-1.8-16.5-.7zm290.5 4.4c-19.3 2-35 7.4-49.7 17.2C369.4 46.5 357 57.8 357 60c0 2.4 3.7 7.7 6.5 9.6 2.5 1.6 2.8 1.6 5.8.1 1.8-1 6.8-4.9 11.1-8.7 18.2-16.2 34.8-20.2 84.1-19.9 25.6.1 26 0 27.7-2.1 2.6-3.2 2.3-9.3-.4-12.5-2-2.2-3.6-2.7-10.8-3.5-10-1.2-41-1.1-52.5.1zm-163 26.3c-41 8.1-69.5 42.8-69.5 84.8 0 46.3 37.2 84.5 83 85.1 16.1.3 17.2-1 14.4-16.4-3.4-19-10.3-36.1-21.8-53.9-3.6-5.7-6.6-11.4-6.6-12.7 0-3.3 3.6-10 6.1-11.4 1.7-.9 3.2-.6 8.1 1.6 7.7 3.5 13.3 3.1 18.6-1.2 5.7-4.6 8.2-10.3 8.2-18.6 0-9.1-2.4-14.2-9.6-20.3-6.4-5.5-6.6-6.6-2.9-19.9 4.5-16.2 3.5-17.8-11.3-18.2-5.3-.1-12.8.4-16.7 1.1z"/><path d="M304.3 54.6c-.3.9 4.2 11.1 11 24.7 12.5 24.9 15.9 33.9 18.4 48.6 1.9 11.5.8 21.7-3.9 34.9-3.9 11.1-7.1 17.6-16.9 33.8-4.3 7.1-7.9 14-7.9 15.2 0 4.8 10.6 1.9 23-6.3 18-12 31.2-31 36.1-52.2 1.8-7.9 2.1-11.4 1.7-23.1-.4-12.1-.9-14.8-3.8-23.4-7.5-22.3-23.2-40.3-44-50.2-8-3.9-12.7-4.6-13.7-2zM126.4 85.1C101 90.4 74.3 103 38.2 126.7 24 136 20.6 138.6 19.4 141.5c-3.1 7.6-.8 17.4 3.9 15.9 1.2-.4 8.2-4.7 15.5-9.7 37.2-25 68.9-40.3 93.4-45.3 12.1-2.5 20.1-1.6 32.6 3.6 12.1 5 14.2 4.9 16.6-1 2.4-5.9 2-8.5-1.4-11.4-11.1-9.3-33.3-12.8-53.6-8.5zm354 55.4c-14 14.2-23.9 19.2-45.3 22.9-11.5 2-30.8 2-41.5.1-5-.9-8.7-1-10.2-.5-3.9 1.5-6.8 9.3-4.6 12.6 3.5 5.3 30.8 8.7 51.6 6.5 15.3-1.7 32.3-6.2 40.6-10.8 8.2-4.5 16.8-11.5 20.1-16.2 4.2-6.1 3.7-23.1-.7-23.1-.9 0-5.4 3.8-10 8.5zm-308.9 32.1c-3.8 1.4-18.5 5.8-32.5 9.9-37.8 10.9-49 15.3-63.5 25C54.2 221.6 46.8 237 42 276.2c-1.1 9.5-2.7 22.7-3.5 29.3-2.4 19.8-7.9 35.9-15 44.2-4.2 4.9-5.5 8.1-5.5 13.4 0 4.9 3 8.3 6.3 7.3 10.9-3.3 21.3-16.6 26.6-33.7 2.8-9.3 4.6-20.5 7.5-46.2 5.3-47.4 9.9-58 30.5-70.1 10.8-6.3 23.8-11.1 54.7-20.3 44-13 45.9-14 43.5-22.1-1.1-3.8-5.2-8.1-7.5-7.9-.6 0-4.2 1.2-8.1 2.5zM361.4 201c-2.8 1.1-7.4 6.7-7.4 9 0 2.7 2.5 5 14 13 35.6 24.9 64.2 53.5 74.9 74.9 10.3 20.6 8 29.4-15.9 60.6-15.9 20.8-22.1 32.1-24 43.9-3.3 20.6 9.6 39.7 37.5 55.3 13.8 7.7 42.6 19.3 48 19.3 4.6 0 6.9-7.1 4.5-13.4-1.1-2.9-4-4.6-14.2-8.2-10.8-3.9-28.9-12.7-36.6-17.8-8.1-5.4-17.7-15.1-19.8-20.2-.9-2-1.5-6-1.5-8.8 0-9.7 4.8-19 21.1-40.1 18.4-24 25-37.6 25-51.9 0-11.6-8-30.6-19.3-46-7.3-10-27.8-30.5-41.2-41.2-11.9-9.6-33.7-25.4-38.2-27.8-3.6-1.8-3.9-1.8-6.9-.6zm-151 16.9c-4.5 2.7-18.6 17.3-25 25.7-6.7 9-13.5 21.5-17.4 32.4-8.3 22.5-8.2 52 .1 81.7 3.4 12.1 3.6 15.4 1 17.7-1 .9-12.3 6.4-24.9 12.1-41.6 18.7-59.6 29-71.6 40.9-7.3 7.2-10.2 12.9-11.6 22.7-1.5 10.3 1.4 29.9 5.5 37.9 2.5 4.7 10.8 6.6 15.3 3.4 2.8-1.9 2.8-3.2-.4-15.1-3.2-12.4-3.6-24.1-.9-29.7 1-2.1 4.3-5.8 7.3-8.1 12.4-9.7 46.8-28.7 73.4-40.4 8.8-3.9 12.7-5.1 15.5-4.9 3.7.3 3.9.5 8.3 9.3 2.4 4.9 10.5 20.7 17.8 35 7.4 14.3 15.8 31.4 18.8 37.9 6.9 15.6 7.7 16.7 13.6 17.3 5.9.7 9.8-1.5 9.8-5.3 0-5-8.5-24.1-27.2-61.2-13.4-26.5-18.8-38.2-18.8-40.7 0-4.1 1.2-5.1 17.5-14.6 23.8-14 42-29.9 53.3-46.8 11.6-17.3 16-33.9 16.9-63.7.6-18.6.5-19.2-1.6-21.3-1.6-1.6-3.3-2.1-6.9-2.1-7.9 0-8.5 1.2-9.3 19.9-1.6 33.8-6.1 48.3-20.8 65.9-12.3 14.8-46.9 39.2-55.5 39.2-3.6 0-5.2-3-8.8-16.6-3-11.4-3.2-12.8-3.2-31.4 0-18.4.1-20 2.7-28.3 5.8-18.6 15.5-33.6 32.5-49.9 5.6-5.4 10.2-10.6 10.2-11.6 0-2.5-1.8-4.6-6-7.1-4.3-2.6-5.7-2.6-9.6-.2zm116 9.5c-4.4 1.9-6.5 5.2-5.4 8.2.5 1.3 3.6 6.4 6.9 11.2 11.5 17.2 18.1 32.7 18.2 43 .1 12.1-5.3 18.9-30.1 37.4-24.5 18.2-33.6 29.2-36.1 43.7-1.4 7.7.1 15.6 4.7 25.1 4.7 9.5 13.1 17.9 32.4 32.5 29.6 22.4 34.6 30.3 33.3 52.6-.6 9.3-.5 9.6 1.8 11.2 2.4 1.7 6.6 2.1 10.7 1.1 3.4-.9 5.3-5.7 5.9-14.3 1.2-17.2-4.5-32.6-16.5-44.9-3.7-3.8-13.9-12.3-22.7-18.9-24.8-18.7-31.6-27.1-31.6-38.8 0-10.8 5.3-17.3 29.6-35.4 9.3-7.1 19.8-15.8 23.2-19.4 20.2-21.6 18.5-45.8-5.7-82-9.3-14-11.4-15.4-18.6-12.3z"/></g></svg>