<svg version="1.0" xmlns="http://www.w3.org/2000/svg" width="682.667" height="682.667" viewBox="0 0 512 512"><g fill="#f2f2f2"><path d="M85 65.3C78.8 67 74.2 70 68.7 75.9c-19.3 20.6-16 57.4 6.2 68.8 20.7 10.8 43.7-5.7 48.1-34.5 2.8-17.7-5.6-36.5-19.1-43-5.7-2.7-13.2-3.5-18.9-1.9zM256.4 77c-1.8.4-4.8 1.7-6.7 2.9-4 2.4-10.9 12.1-12.8 17.8-1.5 4.7-.7 15.4 2 26.1 4 15.5 6.8 18.4 13.6 14.2 4.4-2.7 7.5-6.6 7.5-9.5 0-1.3-1.6-4.3-3.6-6.6-4.2-5.1-5.4-7.8-5.4-12.3 0-8.1 12.7-17.6 23.5-17.6 2.8 0 5.6-.5 6.3-1.2 2.9-2.9.3-8.2-5.6-11.2-2.4-1.2-13.5-3.8-15.1-3.5-.3.1-2 .4-3.7.9zm-47.9 49.6c-2.2.8-10.1 3.1-17.5 5.1-14.3 3.7-16 4.5-16 7.3 0 3.3 13.9 30.9 16.1 32.1 1.2.6 5.8 2.4 10.3 3.9 4.5 1.6 14.2 5.3 21.6 8.4 14.1 5.8 19.3 6.8 20.4 4 .4-1-1.6-6.4-4.8-13.3-6.9-14.7-10.6-24.1-14.6-36.9-4-12.8-5.9-14.1-15.5-10.6zm177.6 3.6c-.4 1.3-1.1 15.1-1.5 30.7-.4 15.6-1.1 29.3-1.7 30.3-.5 1-2.1 1.8-3.5 1.8s-14-5.9-28-13.1c-27-13.9-28.7-14.4-31.8-9.6-2.3 3.5-18.6 48.4-18.6 51.2 0 4.8 2.3 5.2 33.3 6.5 15.9.6 29.9 1.5 31.2 2 4.8 1.8 4.6 3-6.2 31.9-5.9 16.2-7.4 18.8-10.8 20.1-1.3.5-19.7 3-40.9 5.5s-39.7 5-41.1 5.7c-1.5.7-3.4 2.6-4.2 4.2-2.6 4.9-31.3 87.6-31.3 90 0 1.2.6 3 1.3 3.9.7 1 8.9 4.6 18.2 8.1 38.8 14.4 84.9 36.1 118.6 55.9 9.2 5.3 17.6 9.7 18.8 9.7 1.1 0 2.9-.8 3.9-1.8 3-3 45.2-100.5 45.2-104.5 0-4.3.7-3.4-27.4-33.7-12-12.9-22.7-24.9-23.8-26.5-2.5-4-2.2-5.3 6.3-27.5 8.5-22 9.3-23.7 12-24.5 2.7-.9 5.4 1 28.9 20.4 10.7 8.9 20.6 16.4 21.9 16.8 1.9.4 3 0 4.6-1.9 2.9-3.4 22.5-51.9 22.5-55.7 0-2.3-.7-3.4-2.8-4.5-1.5-.8-14.4-3.9-28.7-7-27.4-5.9-30.4-7.1-29-11.5.4-1.2 7.9-11.5 16.8-22.9 8.8-11.4 16.5-21.9 17.1-23.5.9-2.2.7-3-.9-4.7-2.6-2.6-59.8-24-64.2-24-2.6 0-3.5.5-4.2 2.2z"/><path d="M125.8 147c-13.4 13.7-24.1 19-38.5 19-9 0-13.2-1-22.5-5.2-7.9-3.6-10.1-3.3-16 2-9.6 8.7-17.8 24.4-17.8 34.1 0 6 2.8 17.1 6 23.9 5.7 12.1 22.8 26.5 40.9 34.3 16.9 7.2 40.1 11.1 45.6 7.5 1.4-.9 2.5-2.3 2.5-3.1 0-.7-2-5.6-4.5-10.7s-6-13.7-7.6-19.1c-3.3-10.6-4.6-12-11.4-13.3-10.3-1.8-32.6-11.9-34.6-15.6-2.5-4.6 2-13.8 6.7-13.8 1.4 0 5 1.3 8.2 2.9 11.9 5.9 19.4 8.3 25.8 8.3 7.7 0 10.6-1.6 15.9-8.9 6.8-9.4 16.1-15.3 24.3-15.5 2.6-.1 7.8.9 11.5 2.1 6.2 2.1 7 2.2 8.5.8 1.4-1.4 1.3-2.3-1.2-9-4.8-13.3-11.5-21-22.7-26.2-8.8-4.1-10.1-3.7-19.1 5.5z"/><path d="M153.7 198.1c-12.4 2.9-14.7 9-8.2 21.6 4.6 8.6 4.3 10.9-1.5 14.3-3.6 2.1-4.6 3.2-4.8 5.8-.4 4.2 4 10.6 13.6 19.8 9.2 8.8 9.3 10.6 1.2 14.6-13.6 6.8-35.9 9.4-53 6.3-15.5-2.9-16.7-3-17.8-.8-.8 1.5-.2 4.3 2.4 11.9 6.9 19.8 9.3 32.7 10.2 56.1.6 14.4 1 17.5 2.5 19 1.4 1.4 4.6 1.9 17.4 2.5 24.2 1.2 54.6 6 78.1 12.3 12.1 3.2 16.6 3.3 18.7.1 2.6-3.9 26.5-73.5 26.5-77.1 0-2.6-1.9-5.9-9-15.6-14.6-19.8-25.8-39-37.9-64.9-3.5-7.4-7.2-15.4-8.3-17.7-2.1-4.6-3.4-5.2-14.8-7.7-8.2-1.8-9.7-1.8-15.3-.5zM68.2 384.2c-16.9 2.1-40 9.8-46 15.3-3 2.7-3.6 3.9-4 8.8-.5 6.4 1.4 10.7 4.8 10.7 1 0 6-1.4 10.9-3 34-11.4 76.9-11.9 128.3-1.5 54.9 11.2 120.2 36.6 180.8 70.4l15.5 8.6 12 .3c26.4.8 24-3.3-14.5-25.5-78-45-163.4-75.9-231-83.7-14.7-1.7-44.7-1.9-56.8-.4zm377.4 71.9c-17.2 1.1-27.5 2.6-30.3 4.4-2.8 1.9-6.3 8.5-6.3 11.9 0 3.9 3 4.9 12.4 4.1 4.5-.4 21.8-1 38.4-1.4 30.4-.6 30.4-.6 32.3-3 2.5-3.1 2.5-10.1.1-13.1-3.1-3.9-17.4-4.7-46.6-2.9z"/></g></svg>