<svg xmlns="http://www.w3.org/2000/svg" version="1.0" width="682.667" height="682.667" viewBox="0 0 512 512"><g fill="#f2f2f2"><path d="M144.4 53.9c-.4 1-.2 2.8.4 4 1.3 3 32.8 42.5 35.6 44.8 5.6 4.6 13.8-.4 23.5-14.5 5.2-7.6 7.4-13.3 6.1-15.8-1.6-2.9-4.3-3.9-32.5-11.9-29.4-8.3-32.2-8.9-33.1-6.6zM340 59c-35.3 10.1-35.8 10.3-37.6 13-1.4 2.2-1.4 2.7.5 7.1 2.8 6.2 10 16.1 15 20.7 4.4 3.9 7.8 5.2 11.4 4.3 2.3-.5 35.6-41.1 37.9-46.1 1.4-3.2.4-5.5-2.4-5.5-1.3.1-12.4 3-24.8 6.5zM88.9 77.7C77.3 93.1 69 100.3 42.8 117.3c-5.9 3.9-11.7 18.6-15.9 40.6-2.6 13.3-3.6 46.1-2 60.6 2.8 24.2 11.6 54.5 17.2 59.6 3.5 3.2 5.1.8 9-13.7 1.9-7.4 4.5-15.3 5.7-17.5 6.1-11.8 17-13.8 28.2-5 3.2 2.5 6.5 4.6 7.3 4.6 1.9 0 3.6-2.2 8.7-11.3 8-14.1 17.8-22 29.2-23.3 4.3-.5 6.8-.1 12.9 2 4.1 1.4 8.3 2.6 9.1 2.6.9 0 5.8-1.8 11-3.9 5.1-2.2 11.4-4.7 14.1-5.6 8.6-3 8.3-5.9-1.8-17.5-8.1-9.3-8.7-11-7.3-21.4.8-6.2.9-9.2.1-10.9-.7-1.6-7-5.8-18-12.2-25.8-15.1-26-15.2-28-13.9-1.6 1-1.8 2.9-1.8 16-.1 17-.9 20.9-6.9 33.9-4.7 10-9.3 15-13 13.9-3.1-.9-8.6-6.5-8.6-8.8 0-1.1 1.8-5.4 4-9.7 4.5-8.8 7-17.8 7-25.8 0-6.9-1.8-17.8-3.7-21.4-2.3-4.6-5.1-3.6-15.8 5.7-20 17.3-33.2 21.9-35 12.2-1.5-7.9-.2-9.6 13.5-18.6 4.2-2.7 14.2-11.2 22.3-18.9C96 98.3 99.5 95.5 101.7 95.5c1.9 0 8.2 3.5 18.8 10.3 20.7 13.3 36.9 23 43.6 26.2 4.6 2.1 5.6 2.3 7.4 1.1 1.1-.7 2.4-2.8 2.9-4.5 1.4-4.8-1.3-7.6-15-15.4-21.5-12.2-35.6-22.3-49.7-35.5-6.8-6.4-9.5-8.2-11.7-8.2-2.5 0-3.8 1.2-9.1 8.2zm314.3-.9c-14.4 13.7-28.1 23.5-50.6 36.4-13.7 7.8-16.4 10.6-15 15.4.5 1.7 1.8 3.8 2.9 4.5 1.8 1.2 2.8 1 7.4-1.1 6.7-3.2 22.9-12.9 43.6-26.2 10.6-6.8 16.9-10.3 18.8-10.3 2.2 0 5.7 2.8 17.4 14.1 8.1 7.7 18.1 16.2 22.3 18.9 11.5 7.5 12.9 8.8 13.6 12.5.9 4.9-.4 9.5-3 10.6-5.3 2.4-17.1-3.7-32.1-16.7-10.7-9.3-13.5-10.3-15.8-5.7-1.9 3.6-3.7 14.5-3.7 21.4 0 8 2.5 17 7 25.8 2.2 4.3 4 8.6 4 9.7 0 2.3-5.5 7.9-8.6 8.8-3.7 1.1-8.3-3.9-13-13.9-6-13-6.8-16.9-6.9-33.9 0-13.1-.2-15-1.8-16-2-1.3-1.8-1.4-28 13.9-11.1 6.4-17.2 10.6-18 12.2-.8 1.7-.7 4.7.1 10.9 1.4 10.4.8 12.1-7.3 21.4-10.1 11.6-10.4 14.4-1.8 17.6 2.7.9 7.5 2.8 10.8 4.1 15.6 6.3 13.4 6 22.9 2.9 7-2.4 9.5-2.7 13.7-2.2 11.2 1.5 21.1 9.5 28.8 23.2 5.2 9.2 6.9 11.4 8.8 11.4.8 0 4.1-2.1 7.3-4.6 8.6-6.7 16.4-7.3 23-1.8 4.5 3.9 7 9.3 10.9 24.3 3.9 14.5 5.4 16.9 9 13.7 4.9-4.5 13.8-34 16.6-55.3 1.7-13.2 2-40.1.4-52.3-3.3-26.9-10.5-48.5-17.7-53.2-26.2-17-34.5-24.2-46.1-39.6-8.2-10.9-9.3-10.9-19.9-.9zm-169.7 3.1c-3.8 1.7-6 4.3-11.8 13.6-5.8 9.5-12.5 17.4-20.4 23.9-3.8 3.2-6.6 6.4-7.2 8.4-1.6 5-7.1 39-7.1 44 0 5.1.7 6.2 16.7 25.5 10.3 12.3 13.1 14.7 16.2 13.7 1.1-.3 4.8-3.9 8.2-8 4.4-5.3 7.1-7.7 9.7-8.6 6.4-2 8.2-3.6 8.2-7.4 0-4.3-1.7-5.5-13.1-9.4-10.2-3.4-21.7-8.6-24.1-10.8-4.4-4 .1-14.3 6.3-14.3 1.6 0 7.3 1.7 12.6 3.9 24.9 9.8 31.7 9.8 56.6 0 5.3-2.2 11-3.9 12.6-3.9 6.1 0 10.7 10.4 6.4 14.2-3 2.6-11.3 6.4-22.4 10.3-13.5 4.7-14.9 5.6-14.9 10 0 3.8 1.8 5.4 8.2 7.4 2.6.9 5.3 3.3 9.7 8.6 3.4 4.1 7.1 7.7 8.2 8 3.1 1 5.9-1.4 16.2-13.7 16-19.3 16.7-20.4 16.7-25.5 0-5-5.5-39-7.1-44-.6-2-3.4-5.2-7.2-8.4-8.3-6.9-14.7-14.5-21.8-26-6.4-10.4-9.7-12.9-16.9-12.9-6.1 0-7 2.1-7 16.8 0 11.7-.1 12.4-2.5 14.7-1.8 1.9-3.5 2.5-6.5 2.5s-4.7-.6-6.5-2.5c-2.4-2.3-2.5-3-2.5-14.7 0-14.6-.9-16.8-6.8-16.8-2 .1-5 .7-6.7 1.4z"/><path d="M245.5 210.9c-3.3 1.4-7.7 6.1-10.1 10.7-1.1 2.2-1.2 3.4-.3 5 2 3.8 6.9 4.9 20.9 4.9 14.1 0 18.9-1.1 21-5 2-3.7-5-13.5-11.3-15.9-3.9-1.5-16.6-1.3-20.2.3z"/><path d="M186 223.5c-14 3.8-26.4 10.6-30.1 16.7-1.9 3.1-2.1 4.4-1.6 11.6 1.2 15.5 8.1 35.7 23 67.2l7.6 16 15.6 62.2c8.5 34.3 15.5 64.2 15.5 66.6 0 3.5-1 6-5.6 13.2-3.1 4.9-5.7 10.1-5.7 11.5-.2 2.3.1 2.5 3.8 2.4 2.2 0 6.6-.8 9.8-1.7 7-2 8.4-1.5 17.3 5.3 3.6 2.7 6.9 5 7.4 5s1.6-1 2.4-2.2c1.3-1.8 1.6-5.3 1.6-16.9v-14.7l-15.9-63.9c-14.8-59.4-15.9-64.7-16.5-76.1-.9-16-2.9-26.7-7.2-37.3-2.8-6.8-3.3-9.1-2.5-11.1 1.1-2.9 6.6-7.8 8.7-7.8 8.3 0 16.7 20.2 18.9 45.4.6 6.4 1.2 8.4 3.1 10.3 2.2 2.2 2.8 2.3 20.4 2.3 17.6 0 18.2-.1 20.4-2.3 1.9-2 2.5-3.9 3.1-10.8 2-24.2 10.7-44.9 18.9-44.9 2.1 0 7.6 4.9 8.7 7.8.8 2 .3 4.3-2.5 11.1-4.3 10.6-6.3 21.3-7.2 37.3-.6 11.4-1.7 16.7-16.5 76.1L265 465.7v14.8c0 12.8.2 15.1 1.8 17 1.6 2 2.1 2.1 4.3 1 1.3-.7 4.4-3 6.9-5.1 7-5.9 8.8-6.2 18.3-3.7 13.7 3.6 14.5 1.7 5.2-13-4.5-7-5.5-9.4-5.5-12.9 0-2.4 7-32.3 15.5-66.6l15.6-62.2 7.6-16c14.9-31.5 21.8-51.7 23-67.2.5-7.2.3-8.5-1.6-11.6-3.9-6.3-16.5-13.1-31-16.8-12.5-3.2-13.5-2.8-26 9.4-6.3 6.1-13 11.7-16.2 13.3l-5.4 2.9h-43l-5.4-2.9c-3.2-1.6-10-7.2-16.2-13.3-12.5-12.2-14-12.7-26.9-9.3zM139.4 303c-6.4 3.2-15.7 11.5-17.8 15.9-2.3 4.9-2 9.9 1.3 22.8 7.7 29.9 23.9 62 41.4 82 3.6 4.1 6.7 8.3 7.1 9.4 1 3.2-2.6 5.6-16.9 11.4-12.7 5.2-18.5 8.3-18.5 10 0 1 5.6 3 8.6 3 1.3 0 3.5.5 4.9 1.2 2.9 1.3 3.2 3.9 1.1 10.9-2.5 8.3.5 9.6 14.3 5.9 7.9-2.1 9.9-1.9 14.3 1.1 3.7 2.7 7 2.4 10-.9 4-4.3 7.8-11.6 7.8-15.1 0-1.7-6.5-29.3-14.5-61.4L167.9 341l-8.5-18c-7.5-15.9-11.7-22.5-14.3-22.5-.4 0-2.9 1.1-5.7 2.5z"/><path d="M363.7 302.7c-1.4 1.3-6.4 10.4-11.1 20.3l-8.5 18-14.6 58.2c-8 32.1-14.5 59.8-14.5 61.6 0 3.3 4.1 10.9 8.3 15.4 2.5 2.8 6 2.9 9.5.4 4.6-3.1 6.8-3.3 15.1-1.1 4.3 1.2 9.2 2 10.7 1.8 2.7-.3 2.9-.6 2.8-4.3-.1-2.2-.5-6-.9-8.5-.7-4.3-.5-4.7 1.9-5.8 1.5-.7 3.7-1.2 5-1.2 2.9 0 8.6-2 8.6-2.9 0-1.9-4.7-4.5-18.1-10.1-14.5-6-18.3-8.7-17.2-11.8.4-.9 3.6-5 7.1-9 17.3-20 33.6-52.2 41.3-82 3.3-12.9 3.6-17.9 1.3-22.8-2.7-5.7-15.2-15.8-22.1-17.8-1.4-.5-2.9 0-4.6 1.6zm-123.5 44.4c-1.6 1.1-2.2 2.5-2.2 5.2 0 4.2 13 56.4 15.1 60.8 1.8 3.7 4 3.7 5.8 0 2.1-4.4 15.1-56.6 15.1-60.8 0-6-2.1-6.8-18-6.8-10.6 0-14 .3-15.8 1.6z"/></g></svg>