<svg xmlns="http://www.w3.org/2000/svg" viewBox="0 0 25.4 25.4" height="96" width="96"><path style="font-variant-east_asian:normal" fill="#f2f2f2" aria-label="G" d="M15.219 10.32q-.336-.554-.929-.85-.573-.296-1.363-.296-1.462 0-2.311.948-.83.948-.83 2.548 0 1.798.889 2.746.909.929 2.628.929 2.034 0 2.904-1.837h-3.892v-2.786h7.23v3.754q-.454 1.106-1.343 2.074-.87.968-2.213 1.6-1.343.613-3.062.613-2.094 0-3.714-.89-1.6-.908-2.49-2.508-.868-1.62-.868-3.695 0-2.054.869-3.654.889-1.62 2.49-2.51 1.6-.908 3.693-.908 2.628 0 4.347 1.264 1.718 1.265 2.133 3.457z"/></svg>