<svg version="1.0" xmlns="http://www.w3.org/2000/svg" width="682.667" height="682.667" viewBox="0 0 512 512"><g fill="#f2f2f2"><path d="M293.4 47.9c-16.5 3.9-42.8 15.8-64.2 29.2-30.6 19-53.1 40.7-64.2 62.1-4.6 8.8-5.1 13-1.7 15.2 3.4 2.3 37.7 4 65.7 3.3 31.8-.8 53.4-3.7 74.5-10.2 9.8-3 13-5.8 12.9-11.5-.2-7.2-6.5-15.6-28.3-38.2-17.5-18.1-17.4-19.4 1.5-19.7 4.4 0 11.6-1 15.9-2.1 12.4-3.2 12-3.4 21.5 9.3 8.9 11.8 21.5 21.6 36.4 28 5 2.1 9.6 4.6 10.3 5.5.7.9 1.3 3.5 1.3 5.7.3 22.2 17.4 49.2 37.5 59.1 16.9 8.3 26.9 4.1 26.8-11.2-.1-18.1-14.2-38.5-32.7-47.3-9.2-4.5-10.6-6-15-16.1-5.5-12.5-10.7-20.3-19.7-29.2-10.1-10.1-15.6-13.9-24.6-16.9-4.1-1.3-8.2-3.7-11.6-6.6-8.2-7.2-14.5-9.7-25.2-10-6.1-.2-11.6.4-17.1 1.6zM56.2 117.2c-.7.7-1.2 3.3-1.2 5.8 0 6.3-1.7 7.6-10.7 8.3-7.1.6-13.7 3-16.2 6.1-2.1 2.5-.3 5.3 6.4 10 6.7 4.9 10.5 8.9 10.5 11.3 0 .8-2.9 4.5-6.5 8.2-3.6 3.7-6.5 7.5-6.5 8.5 0 2.7 4.8 3.8 13.1 3.1 10.3-.8 18.5-2.9 21.1-5.1 3.6-3.3 15.8-29.1 15.8-33.6 0-8-5.2-16.2-13.3-20.8-5.4-3.1-10.5-3.8-12.5-1.8zm40 37.4c-2.9 2-11.2 18.7-11.2 22.5 0 2.3 1.7 4.2 9.6 10.8 5.3 4.5 10.4 8.1 11.3 8.1.9 0 2.6-.7 3.8-1.5 2.5-1.7 14.2-16.5 17.4-22 2.2-3.6 2.2-3.7.3-6.3-2.3-3.3-19.8-12.2-25.1-12.9-2.6-.3-4.6.1-6.1 1.3z"/><path d="M302.5 164.6c-4.9 1.3-14.1 3.3-20.3 4.5-6.2 1.2-12.2 2.9-13.3 3.8-1.7 1.4-1.8 2-.8 4.9 1.8 5.2.6 12-3.9 21.6-4.5 9.4-4.9 11.5-3 13.4 2 2 6 1.4 18.6-2.8 20.8-6.9 42.3-15.9 46-19.3 3.2-3 2.8-5.5-2.4-15.4-7.2-13.9-7.9-14.2-20.9-10.7zm-152.2 7.8c-3.2 1.4-17.9 19-22.9 27.4-2.5 4-2.5 4.4-1 6.7 3 4.6 18.9 11.1 35.5 14.5 12.6 2.5 14.4 2 21.7-6.8 6.3-7.7 6.6-9.7 2.7-17.3-2.2-4.2-2.9-7-3.2-13.2-.4-10-1-10.5-16.2-11.7-13.9-1.2-12.7-1.2-16.6.4zm76.2 1.5c-10.4.3-19.6 1-20.3 1.4-2.3 1.5-.8 3.6 5.8 7.9 5.5 3.6 6.5 4.8 6.8 7.5.4 4.4-2.6 9.7-10.8 19.5-28.1 33-42.8 54.2-47.4 68.1-3.2 9.7 1 10.9 18.3 5.1 22.4-7.5 41.2-18.8 57.2-34.4 13-12.7 15.4-17.9 10.3-21.9-4.1-3.2-8.5-3.6-14-1.2-4.1 1.8-5.3 2-7.7 1-2.8-1.2-5.7-5.4-5.7-8.4 0-.9 2.2-4 4.9-6.8 2.8-2.9 5.9-7.4 7-10 2.8-6.5 9.8-13.7 19.2-19.7 4.4-2.8 7.9-5.7 7.9-6.4 0-1.4-5.5-2.7-10-2.4-1.4.1-11 .4-21.5.7z"/><path d="M327.5 208.6c-14 6.3-29.9 12.5-44.5 17.4-13.1 4.3-16.5 6.4-17.5 11-.3 1.5-2 4.9-3.6 7.5-1.7 2.6-2.9 5.7-2.7 6.9.3 1.9.9 2.1 5.9 2 10.8-.2 26.8-6.5 42-16.5 13.7-9 14.3-6.6 6.3 25.4-6.4 25.8-6.6 26.2-17.9 34.2-14.9 10.7-26.5 13.9-50 13.9-23.7-.1-34.9-2.1-49-9.2-8-4-5.4-4.2-30 2.2-7.7 2-16.2 3.8-18.8 3.9-6.4.3-7.7-1.5-7.7-10.3 0-12.6 5.3-27.5 15.9-45 2.8-4.7 5.1-9.2 5.1-10.1 0-2.8-3.2-4.6-14-7.9-5.8-1.7-16.2-5.9-23.1-9.1-9.6-4.5-13.3-5.8-15.3-5.3-2.9.7-18.4 13.9-20.9 17.8-1 1.4-1.7 3.4-1.7 4.5 0 2.2 1.4 2.6 12.3 3.5 6.7.5 16.1 4.5 17.6 7.5 1.6 2.9.4 4.9-8.5 14.2-14.3 15-23.5 32.9-17 32.9.8 0 5.2-1.8 9.7-4 9.7-4.7 14.3-5.8 16.5-3.9 2.2 1.8 1.5 5.5-4.7 21.7-4.2 11-5.2 15-5.3 20.2-.1 8.1 1.3 8.7 8.9 3.5 5.6-3.9 8.7-4.1 10-.7.4.9 1.5 8.3 2.6 16.5 1 8.1 2.3 15.6 2.9 16.7 2.1 3.9 5.2 2.4 14.4-7.1 5.4-5.5 9.4-8.9 10.4-8.7 2.4.4 2.6 5.4.8 16.2-2.5 15-2.8 21.7-1.7 30 1.3 9 2.8 12.9 5.4 13.4 2.5.5 4.7-1.7 12.6-12.7 8.4-11.8 10.6-13.9 12.9-12.5.9.6 3.3 5.8 5.2 11.5 4.5 13.2 7.5 19.2 12.2 24 2.8 2.8 4.6 3.9 6.8 3.9 3.4 0 3.9-.8 6.5-10.2 4.1-15 18.8-21 33.3-13.7 7 3.5 11.6 8.3 17.4 18.4 5.1 8.7 6.6 10.5 9 10.5 3.6 0 7.7-15.3 7.8-28.7 0-8.1 1.4-9.1 11.1-7.4 8 1.5 8.7 1.2 17.4-6.6 12.8-11.6 31.4-16.6 46.9-12.7 1.7.4 3.1-.1 4.5-1.5 1.8-1.8 2.1-3.3 2.1-11 0-11.9-2.3-24.3-7-38.2-6-17.2-5.8-17.8 5.9-18.8 7.3-.7 8.7-2 7.7-7.2-1-5.4-9.2-18.9-18.6-30.8-4.8-6-9-11.7-9.3-12.5-.3-.8.1-2.3 1-3.2 1.5-1.4 3-1.6 10.8-.9 16.2 1.4 17 1.4 17.3-1.6.4-3.2-4.7-13-13.6-26.3C351.8 213 343.3 204 340 204c-1.4 0-7 2.1-12.5 4.6zm60.3 21.5c-2.5 1.4-2.2 5.5.8 11.9 4.2 9.1 8 19.1 9.9 26.5 2.5 9.5 5 14.2 8.8 16.5 4.5 2.8 8.1 2.5 13.5-1.2 2.6-1.8 8.3-5.3 12.7-7.8 11.1-6.4 11.2-7.7 1.2-19.6-13.1-15.9-21.3-22.9-29.8-25.9-4.8-1.7-14.6-1.9-17.1-.4z"/><path d="M282 266.6c-7.6 2.4-19 4.2-33.1 5.4-11.4 1-14.3 1.6-19.4 4.1-12.4 6-17.9 11.7-14.2 14.7 4.4 3.7 40.1 5 51.6 1.9 13.5-3.6 25-11.9 27-19.5 1.7-6.2.8-8.2-3.7-8.1-2 0-5.7.7-8.2 1.5zm172.5 17.8c-15.8 5.1-30.9 15.7-35.8 25-3 5.8-3.7 24.4-1 29.6 1 1.9 2.5 3.5 3.3 3.5.8 0 3-2.7 5-6 7.1-12.3 11.6-16.4 16.1-15 1.1.4 4.3 4.2 7.1 8.5 2.7 4.4 5.8 8.2 6.9 8.5 4.9 1.6 7.9-5.2 7.9-17.4 0-4.9.3-9.6.6-10.5.9-2.4 5.7-2 11.5 1 6.6 3.3 9.3 2.9 9.7-1.3.7-7.2-9.5-21.4-18.1-25.4-4.9-2.2-7.7-2.3-13.2-.5zM109.1 388.1c-10.6 6.5-19.5 17.2-18.9 23 .5 5.4 4.9 7.3 18.1 7.8 6.9.2 12.5-.1 15.5-1 5.9-1.6 14.2-9.3 14.2-13.2 0-3.2-1.1-4-6.3-4.1-3.6-.1-4.5-.6-7.4-4.6-6.5-9-7.5-10-9.6-10-1.2 0-3.7.9-5.6 2.1zm229 5.4c-10.6 3-15.1 7.5-12.6 12.5 1.8 3.5 11.3 11 14 11 3.8 0 21.4-5.6 23.5-7.5 2.7-2.4 2.5-5.3-.4-9.6-4.6-6.7-14.2-9.2-24.5-6.4zm22.6 34.5c-15.3 4.7-18.8 6.5-19.8 10.5-1.2 4.2.6 10.7 3.5 13 3.2 2.6 14.7 7.1 22.9 9 16.4 3.9 40.7-.5 40.7-7.4 0-4.3-11.7-17.1-24.4-26.9-4-3.1-7.9-2.8-22.9 1.8zM73 430.9c-14.3 4.4-31.2 20.1-28 26 1.4 2.7 3.1 3.6 13 6.2 7 1.9 11.1 2.3 23 2.3 12.8.1 15.2-.2 20.2-2.2 8.4-3.4 12.1-6.2 14.5-11.2 3.2-6.7 3.7-11.3 1.6-13.9-1.6-1.9-3.3-2.4-11.8-3.1-5.5-.5-12.9-1.8-16.5-2.9-6.7-2.1-11.7-2.5-16-1.2z"/></g></svg>