<svg xmlns="http://www.w3.org/2000/svg" viewBox="0 0 512 512" height="682.667" width="682.667" version="1.0"><g fill="#f2f2f2"><path d="M239.153 20.579c-20.121 4.108-36.134 13.379-52.146 30.129-8.744 9.165-14.854 17.276-16.54 22.122-1.79 5.162 1.37 7.269 10.64 7.269 8.639 0 9.376-.632 16.75-14.222 7.48-13.905 10.219-13.484 14.011 1.897 3.371 13.59 4.952 14.959 17.593 16.012 13.695 1.053 14.959.421 20.753-11.061 2.528-4.951 5.267-9.692 6.215-10.43 2.74-2.317 5.373 1.054 8.007 10.324 1.37 4.53 3.16 9.27 4.108 10.535 2.212 2.844 7.796 4.214 17.277 4.32 9.165 0 10.956-1.686 14.748-13.696 5.478-17.698 7.164-17.276 17.487 5.162 4.53 9.692 7.375 11.693 17.066 11.693 12.22 0 12.22-3.792-.316-22.754-24.124-36.555-60.468-54.464-95.653-47.3zm-79.747 79.641c-4.319 2.318-8.322 14.748-11.482 36.028-2.318 15.907-1.58 44.14 1.685 59.204 6.11 28.97 16.223 49.828 35.712 73.952 12.22 15.17 23.703 23.387 41.401 29.392 20.437 6.953 45.193 5.162 64.366-4.425 30.34-15.38 54.674-48.67 64.998-88.911 6.531-25.494 7.058-60.047 1.264-83.012-2.423-9.376-4.214-10.535-17.698-11.378-5.9-.42-11.904-.42-13.379 0-3.265.738-5.267 4.109-8.217 14.117-4.319 13.905-7.163 13.484-14.537-2.213-2.74-5.899-6.005-11.587-7.27-12.746-1.58-1.37-4.95-2.213-11.482-2.845-14.327-1.474-15.17-.948-23.07 15.486-8.323 17.277-10.219 17.066-15.802-1.79-4.74-16.013-5.583-16.856-18.752-17.593-12.641-.632-13.59 0-19.594 11.588-7.9 15.275-10.113 17.276-13.063 11.588-.842-1.686-2.317-6.321-3.265-10.324-2.318-10.113-3.582-12.958-6.742-14.538-3.688-2.001-22.018-3.055-25.073-1.58zm-68.79 96.496c-5.373 2.107-5.267 1.475-5.267 36.871 0 31.604.105 33.078 2.107 35.08 1.474 1.475 3.476 2.107 7.163 2.107 8.006 0 8.954-1.37 9.797-12.642.527-6.847 1.159-10.218 2.423-11.377 1.37-1.475 4.74-1.896 17.066-2.317 13.484-.422 15.486-.738 16.855-2.529 1.58-2.317 1.16-5.478-1.79-11.272-2.529-5.056-6.11-6.215-18.857-6.215-14.222 0-14.854-.527-15.697-14.01-.421-7.27-1.159-10.64-2.317-11.8-1.791-1.896-8.85-2.95-11.483-1.896zm309.926.316c-3.266 1.37-4.425 5.162-4.425 14.327 0 6.953-.316 8.217-2.633 10.43-2.002 2.106-3.582 2.633-8.112 2.633-8.217 0-12.536 2.528-14.854 8.849-3.265 8.954-.842 11.167 12.536 11.167 6.953 0 8.217.316 10.43 2.633 2.317 2.212 2.633 3.477 2.633 10.535s.316 8.322 2.634 10.534c3.266 3.371 10.64 3.687 14.327.632l2.528-2.001.316-30.445c.422-34.237 0-37.398-5.267-39.188-3.898-1.37-6.848-1.37-10.113-.106z"/><path d="M333.015 288.05c-26.547 24.335-50.25 34.554-80.167 34.448-26.547 0-50.987-9.586-71.951-28.232-12.747-11.377-13.379-11.588-26.442-8.217-13.59 3.476-20.015 6.531-20.437 9.797-.527 3.266 3.055 8.428 12.536 18.436l7.796 8.111 5.794-.105c3.16 0 8.427-.422 11.588-.843 6.32-.948 10.534 0 10.534 2.423 0 .843-2.212 4.424-4.95 8.006-3.161 4.214-4.847 7.585-4.847 9.587 0 2.95 3.898 8.533 12.536 17.487 5.162 5.478 8.007 5.794 19.49 1.896 14.431-4.951 16.644-2.317 8.954 10.956-6.532 11.167-6.427 12.536 2.106 22.755 11.378 13.8 11.904 13.905 27.496 6.742 10.85-5.057 14.643-5.162 14.432-.422-.105 1.791-2.318 8.007-5.057 13.8-5.056 11.167-5.583 13.8-3.687 17.593 2.528 4.635 14.854 18.541 17.593 19.594 3.476 1.475 6.005.738 18.435-5.056 5.057-2.423 10.64-4.32 12.326-4.32 2.739 0 3.16.422 3.16 2.74 0 1.58-2.634 8.743-5.9 15.907-4.634 10.324-5.793 13.905-5.267 16.539.843 4.109 24.335 31.92 29.286 34.659 3.055 1.58 5.69 1.79 20.016 1.58 11.799-.21 16.96-.738 17.909-1.686 1.053-1.053 1.475-9.165 1.896-33.5l.527-32.235 2.528-2.002c3.687-3.055 11.061-2.739 14.327.632l2.634 2.529v61.311l2.633 2.528 2.528 2.634h72.9l2.528-2.634c2.633-2.528 2.633-2.634 2.633-22.86 0-110.507-12.746-156.122-51.197-183.722-14.538-10.43-45.299-21.912-62.154-23.282l-7.48-.632zM104.1 309.752c-6.637 4.424-17.909 16.539-23.703 25.493-19.383 30.024-27.284 69.528-29.39 146.852l-.738 26.547 2.739 2.739 2.739 2.739h36.238c34.132 0 36.45-.106 38.767-2.002l2.529-2.002.526-31.814.527-31.814 2.529-2.002c3.265-2.633 10.64-2.633 13.905 0l2.528 2.002.316 31.709.316 31.603 2.74 2.213c2.633 2.107 4.003 2.107 64.47 2.107 66.895 0 66.474 0 65.104-5.373-.421-1.475-3.898-6.11-7.9-10.43-8.323-9.059-10.114-9.48-20.648-4.74-11.272 4.951-13.38 2.318-8.112-9.902 4.635-10.324 4.32-13.38-1.686-20.859-7.374-9.165-13.062-15.38-16.012-17.487-3.266-2.212-6.005-1.685-15.38 2.528-3.793 1.686-8.007 3.055-9.482 3.055-2.212 0-2.633-.526-2.633-3.16 0-1.686 1.685-6.847 3.687-11.483 3.898-8.743 4.424-12.852 2.318-16.644-2.634-4.846-16.54-19.068-19.279-19.7-1.896-.526-6.426.527-14.221 3.055-13.484 4.53-17.382 4.53-17.066.316.105-1.685 2.633-7.058 5.583-12.114 2.95-5.057 5.689-10.43 6.005-12.01.737-3.792-1.475-7.69-9.376-16.012-6.32-6.637-6.953-7.058-11.377-7.058-2.634 0-8.955.737-14.222 1.58-12.22 2.001-19.383 2.001-20.12.105-.844-2.107.526-4.319 8.954-14.327 7.584-8.954 8.427-10.956 6.215-15.064-2.212-4.32-15.697-19.384-18.33-20.648-3.582-1.58-3.687-1.58-9.06 2.002z"/></g></svg>