<svg version="1.0" xmlns="http://www.w3.org/2000/svg" width="682.667" height="682.667" viewBox="0 0 512 512"><g fill="#f2f2f2"><path d="M213.1 48.1c-29.2 9.8-40.1 13.8-42.2 15.8-2.9 2.5-3.1 3.2-5.5 21.6-3 23.1-2.9 28.1.6 30.6 3.1 2.3 85.1 25.9 90 25.9 4.9 0 86.9-23.6 90-25.8 3.5-2.6 3.6-7.7.6-30.7-2.4-18.3-2.6-19.1-5.4-21.6-2.2-2-13.2-6.1-42.3-15.8-21.7-7.2-41-13.1-42.9-13.1-1.9 0-21.2 5.9-42.9 13.1zm-4.3 50.5c3 3.5 3 8.7-.3 11.9-5.4 5.5-15.5 1.8-15.5-5.7 0-8.8 10-12.7 15.8-6.2zm108 0c3 3.5 3 8.7-.3 11.9-5.4 5.5-15.5 1.8-15.5-5.7 0-8.8 10-12.7 15.8-6.2zm-54 10c3 3.5 3 8.7-.3 11.9-5.4 5.5-15.5 1.8-15.5-5.7 0-8.8 10-12.7 15.8-6.2zm-157.4-2.2c-1.8 1.3-1.9 3-2.2 27.8-.3 27.6-.2 29.7 2.4 32.2 1.6 1.7 9.9 2.2 12 .8 2.1-1.4 3.4-5.1 3.4-10.1 0-7.4 1.3-9.8 5.7-11 2.1-.6 5-1.1 6.6-1.1 3.6 0 6.4-3 7.3-7.6 1.1-6-1-8.7-7.6-9.7-9.3-1.4-9.7-1.6-10.8-4.4-.6-1.6-1.2-5.7-1.5-9.2-.2-4.8-.8-6.7-2.2-7.7-2.5-1.8-10.6-1.8-13.1 0zm288.1 0c-1.4 1-2 2.9-2.2 7.7-.3 3.5-.9 7.6-1.5 9.2-1.1 2.8-1.5 3-10.8 4.4-6.6 1-8.7 3.7-7.6 9.7.9 4.6 3.7 7.6 7.4 7.6 1.5 0 4.4.5 6.5 1.1 4.4 1.2 5.7 3.6 5.7 11 0 5 1.3 8.7 3.4 10.1 2.1 1.4 10.4.9 12-.8 2.6-2.5 2.7-4.6 2.4-32.2-.3-24.8-.4-26.5-2.2-27.8-2.5-1.8-10.6-1.8-13.1 0zM161 137.8c-2 1.6-2.5 4.1-5.2 24.8-2.8 22.3-3.1 23.5-10.4 45.6-4.1 12.4-7.4 23.4-7.4 24.3 0 3.9 12.6 21.9 16.2 23.1 3.4 1.1 5.4-2.3 11.4-19.9 6.3-18.7 7.8-20.7 12-16.5 1.4 1.3 11.1 16.8 21.7 34.3 16.6 27.7 19.5 32 21.8 32.3 1.8.2 3-.4 4.1-2 .8-1.3 5.9-13.3 11.4-26.8l9.9-24.5v-35.2c0-34.8 0-35.3-2.2-37.4-1.5-1.6-12.4-5.1-40.5-13-21-6-38.8-10.9-39.4-10.9-.7 0-2.2.8-3.4 1.8zm42.7 30.7c13.4 5.5 23.5 10.3 24.6 11.6 2 2.4 2.1 4.8.6 10.2-1.8 6.5-2.6 6.7-32.2 7.4-35.8.8-34.5 1.8-28.2-21.3 4.2-15.1 5.4-17.4 9.5-17.4 1.6 0 13.1 4.3 25.7 9.5zm103.8-21.4c-25.9 7.5-38.6 11.6-40 13-1.9 1.9-2 3.3-2 37.2v35.2l9.9 24.5c5.5 13.5 10.6 25.5 11.4 26.8 1.1 1.6 2.3 2.2 4.1 2 2.3-.3 5.2-4.6 21.8-32.3 10.6-17.5 20.3-33 21.7-34.3 4.2-4.2 5.7-2.2 12 16.5 6 17.6 8 21 11.4 19.9 3.6-1.2 16.2-19.2 16.2-23.1 0-.9-3.3-11.9-7.4-24.3-7.3-22.1-7.6-23.3-10.4-45.6-2.7-20.7-3.2-23.2-5.2-24.8-1.2-1-3-1.8-3.9-1.7-.9 0-18.7 5-39.6 11zm30.9 14.2c1.9 2.8 8.6 27 8.6 30.8 0 5.3-2.4 5.9-22.5 5.8-9.9-.1-22.4-.4-27.8-.8-8.7-.5-10.1-.9-11.7-2.9-2.7-3.3-3.6-10.6-1.7-13.5 1.9-2.9 45.4-21.5 50.4-21.6 2.3-.1 3.7.6 4.7 2.2zm-223.2 83c-1.5 1.8-6.2 19.5-6.2 23.2 0 3.5.8 4.8 3.5 6.2 3.3 1.7 23.2 5.4 27.2 5.1 6.3-.5 5.6-3-4.8-16.9-13.7-18.5-16.7-21.2-19.7-17.6zm274.1 1.9c-6.8 7.3-21.4 28.1-21.1 30.2.4 3 6.1 3.2 18.6.6 12.4-2.5 15.1-3.6 15.9-6.8.7-3-2.2-17.1-4.7-23-2.3-5.2-4.5-5.4-8.7-1z"/><path d="M176.7 261.8c-.9.9-2.8 5.5-4.3 10-4.3 13-2.8 14.8 14.4 17.4 6.3 1 7.5 1 8.8-.4 2.1-2 1.6-3.4-5.2-14.9-8.1-13.8-10.4-15.8-13.7-12.1zm152.5.4c-2.3 2.6-12.8 20.1-13.8 23.1-.4 1.1 0 2.6 1 3.5 1.3 1.4 2.5 1.4 9.8.3 16.2-2.5 17.7-4.4 13.4-17.4-3.9-11.6-6.3-13.8-10.4-9.5zm-76.6 4c-1.6 2.6-9.4 21.6-10.8 26.5-.6 2.1-.5 4 .1 5.2 3.1 5.7 25.1 5.7 28.2 0 1.2-2.4.5-4.9-5.1-18.9-5-12.6-6.4-15-9-15-1.1 0-2.6 1-3.4 2.2z"/><path d="M110.2 295.2c-.7.7-1.2 2.9-1.2 5 0 4 24.3 151.6 26.1 158 .7 2.6 1.9 4.3 3.8 5.3 2.5 1.3 94.2 13.5 101.3 13.5 1.3 0 3.3-.6 4.4-1.4 1.8-1.4 1.9-3.4 2.4-48.6.6-53.5-.1-50 9-50s8.4-3.5 9 50c.5 45.2.6 47.2 2.4 48.6 1.1.8 3.4 1.4 5 1.4 8.2 0 97.7-12 100.5-13.4 2.1-1.1 3.3-2.7 4-5.4 1.8-6.4 26.1-154 26.1-158 0-4.6-1.4-6.2-5.4-6.2-1.7 0-33.5 6.1-70.6 13.5-37.1 7.4-68.8 13.5-70.5 13.5-1.6 0-33.4-6.1-70.6-13.5-37.2-7.4-69.2-13.5-71.1-13.5-1.9 0-3.9.5-4.6 1.2zm114.6 81.4c3 3.5 3 8.7-.3 11.9-5.4 5.5-15.5 1.8-15.5-5.7 0-8.8 10-12.7 15.8-6.2zm76 0c3 3.5 3 8.7-.3 11.9-5.4 5.5-15.5 1.8-15.5-5.7 0-8.8 10-12.7 15.8-6.2zm-76 64c3 3.5 3 8.7-.3 11.9-5.4 5.5-15.5 1.8-15.5-5.7 0-8.8 10-12.7 15.8-6.2zm76 0c3 3.5 3 8.7-.3 11.9-5.4 5.5-15.5 1.8-15.5-5.7 0-8.8 10-12.7 15.8-6.2z"/></g></svg>