<svg xmlns="http://www.w3.org/2000/svg" viewBox="0 0 512 512" height="682.667" width="682.667" version="1.0"><g fill="#f2f2f2"><path d="M128.327 32.393c-24.194 5.292-57.246 17.93-90.837 34.671-12.746 6.373-26.14 13.394-29.703 15.554-11.341 6.805-10.261-4.536-10.261 104.447 0 53.357.432 96.886.972 98.29 2.268 6.048 12.53 13.393 24.626 17.822 7.993 2.916 12.746 3.24 13.718.864.756-2.052.108-3.673-4.86-12.422-9.614-17.173-13.286-31.755-12.638-50.44.324-11.666.54-12.53 3.024-14.582 3.349-2.7 10.045-1.944 13.718 1.512 2.16 2.052 2.484 3.348 2.484 11.341 0 12.53 2.592 23.979 7.993 35.428 6.912 14.581 15.553 24.842 28.947 34.023 3.348 2.376 7.884 6.48 10.26 9.29 13.826 16.74 18.795 20.953 42.45 35.967 17.605 11.233 20.521 13.61 20.521 16.634 0 1.188-3.996 6.264-9.18 11.665-9.506 9.829-12.746 15.337-16.418 27.435-1.729 5.94-2.269 6.48-5.293 6.804-1.944.216-5.94-.972-10.261-3.024-3.78-1.728-8.1-3.24-9.505-3.24-3.672 0-12.097 8.857-20.414 21.494-8.317 12.637-9.721 16.526-7.345 20.09 3.78 5.724 31.215 16.742 41.692 16.742 7.993 0 11.882-2.269 24.087-14.042 13.177-12.637 21.17-22.25 32.727-39.532 10.045-15.013 24.627-43.42 25.815-49.901 1.728-10.693-12.097-37.804-35.428-69.127-5.508-7.453-8.317-12.097-8.317-14.042 0-4.428 3.24-8.856 12.53-17.065 14.69-12.854 31.107-29.92 34.887-36.4 7.561-12.853 9.29-18.578 9.181-31-.108-12.744-1.512-19.117-8.1-36.615-5.077-13.285-4.861-15.23 2.916-18.578 4.536-2.052 5.076-2.052 7.452-.54 3.24 2.16 4.753 4.969 9.073 17.174 8.425 24.086 10.477 39.964 6.805 54.33-1.188 4.86-4.536 13.5-7.237 19.225-6.372 13.07-6.048 13.826 5.725 13.394 10.585-.324 11.557.756 12.421 14.257.972 13.61 3.132 21.17 10.153 35.644 3.24 6.805 6.373 13.933 6.805 15.878.54 2.268-.432 10.909-2.808 25.922-2.053 12.313-3.673 23.979-3.673 25.815 0 7.885 8.857 13.501 22.142 14.257 8.317.432 8.857.324 12.314-2.484 1.944-1.728 7.236-7.669 11.881-13.393 14.041-17.282 27.11-37.912 38.452-60.703 7.777-15.337 7.777-17.821.216-21.602-6.697-3.456-14.474-11.34-16.634-16.958-3.024-7.992-2.484-16.957 1.728-25.49 5.833-11.881 14.906-17.39 31-18.794 7.992-.648 9.613-1.08 9.937-2.7.216-1.08-3.133-7.237-7.345-13.826-10.261-15.661-18.254-32.943-29.595-63.294-11.341-30.675-15.014-38.776-22.683-50.55-10.26-15.769-17.065-21.062-39.748-30.999-34.131-14.905-74.203-24.626-108.335-26.246-9.505-.432-13.933-.108-22.034 1.62zM313.89 284.49c.864.648 2.16 2.7 2.916 4.536 1.62 3.78.972 7.02-2.7 14.15-5.833 11.557-11.99 6.588-11.99-9.721 0-5.293.433-6.697 2.701-8.965 2.808-2.809 5.617-2.809 9.073 0zm-29.703 68.263c2.7 1.08 2.052 3.348-2.16 7.993-4.645 5.184-8.641 5.832-9.721 1.62-1.404-5.833 6.048-11.882 11.881-9.613zM430.11 184.256c-4.753 1.405-16.85 4.86-27.003 7.561-10.045 2.7-19.442 5.617-20.738 6.48-4.212 2.701-2.808 10.91 2.808 15.987 3.24 2.916 7.67 1.836 23.115-5.725 20.09-9.721 39.64-22.79 39.64-26.247 0-1.728-9.29-.648-17.822 1.944z"/><path d="M436.59 237.83c-4.752.54-28.406 1.08-52.6 1.188l-44.07.216-2.808 2.808c-4.104 4.105-4.752 11.234-1.404 15.446 3.997 5.076 7.885 6.049 24.95 6.049 23.871 0 45.582-2.917 68.48-9.181 21.062-5.833 37.372-12.854 37.588-16.202.108-1.404-18.902-1.62-30.135-.324zM245.303 396.174c-1.836 1.188-3.348 4.537-6.913 15.554-4.428 14.041-7.236 16.201-14.69 11.557-12.852-7.885-21.493-2.16-28.082 18.794-2.16 6.805-4.86 10.477-7.885 10.477-1.08 0-4.104-.756-6.589-1.62-7.128-2.484-10.585-2.16-11.449 1.08-1.512 5.94 4.429 21.494 10.37 27.219 7.344 7.128 19.01 6.912 41.368-.864 15.121-5.293 16.417-4.969 19.442 4.752 2.484 7.669 5.4 11.341 9.937 12.205 6.912 1.296 16.633-5.4 26.894-18.47 5.725-7.236 7.993-9.18 10.91-9.18 1.404 0 6.804 3.132 11.989 7.128 24.734 18.254 39.856 20.846 47.309 7.993 5.724-9.829.756-43.528-7.345-49.145-3.78-2.7-6.157-1.836-12.205 4.32-3.24 3.24-6.481 5.941-7.345 5.941-1.512 0-3.889-2.592-12.313-13.61-5.401-7.02-10.478-9.504-17.822-8.748-3.025.324-7.67 1.62-10.37 2.808-5.832 2.7-10.584 2.916-11.557.54-.324-.864 0-5.94.757-11.125.972-7.237 1.08-10.045.108-11.773-1.513-2.917-6.05-3.133-9.721-.54-2.593 1.728-2.7 1.62-5.833-2.16-3.024-3.889-6.265-4.969-8.965-3.133zm-181.459 2.268c-3.888 2.377-16.31 18.47-20.63 26.68-3.348 6.372-2.916 10.152 1.513 12.204 3.996 1.837 6.696-.432 14.257-11.989 3.348-5.184 8.1-12.421 10.693-16.094 2.484-3.672 4.537-7.02 4.537-7.56 0-1.404-4.105-5.293-5.617-5.293-.756 0-2.916.972-4.753 2.052z"/></g></svg>