<svg version="1.0" xmlns="http://www.w3.org/2000/svg" width="682.667" height="682.667" viewBox="0 0 512 512"><g fill="#f2f2f2"><path d="M238 20.6c-46.5 9.9-103.7 58.7-137 116.8-14.8 25.7-24.4 52-29.7 80.6-2.2 12.1-2.5 48.7-.5 60 2.2 12.3 6.9 29.2 11.6 41.2 10 26 16.6 36.1 55.6 85.3 32.2 40.7 42.5 54.7 54.5 74.8 7.3 12.2 9 13.7 16.4 13.7 9.8 0 10.4-3.1 3-16.8-10.5-19.8-26.4-42.2-55.5-78.7-20.8-26.1-29.6-37.7-38.4-51-8.4-12.7-16.2-28.3-18.5-37-9.9-38.4 27.7-93 97.8-141.8 24.1-16.8 52.6-32.7 58.6-32.7 9.3 0 49.1 18.8 71.6 33.9 39 26 65.6 55.9 81.1 91.2 14.8 33.4 12.9 46.2-11.9 83.7-11 16.6-23.2 31.7-47.3 58.7-10.3 11.6-23.4 26.8-29.1 34-17.1 21.3-33.3 46.8-33.3 52.4 0 2.7 2.9 4.1 8.4 4.1 7.2 0 9-1.5 16.3-12.8 12.9-20.4 28.2-39.3 61.3-76.2 40.1-44.6 50.2-58.2 59-79.2 8.3-20 11.6-39.3 10.7-63.2-1.2-32.2-10.1-63.6-28.2-99.1C398 130 378.7 103.1 353 76.6c-21.8-22.4-42.9-38.4-64-48.5-17.9-8.5-34.7-11-51-7.5z"/><path d="M236.9 164.6c-35.1 21.1-58.9 39.2-80.5 61-13.1 13.2-14.9 16.4-14 24.3 2.9 24.9 14.5 58.3 27.6 79.6 13.3 21.7 32.5 40.3 51.5 49.8 2.8 1.3 8.8 3.7 13.5 5.3 7.9 2.6 9.6 2.8 24.5 2.8 14.8 0 16.6-.2 24.5-2.8 17.7-5.9 30.9-14.5 45.6-29.8 23-24.1 40.3-61.7 46.4-100.9 1.6-9.8.6-12.7-7-22.2-7.6-9.4-25.3-26.5-36.1-35-24.2-18.8-65.8-40.7-77.2-40.7-3.8 0-6.5 1.2-18.8 8.6zM220 239.5c16.1 3.4 18.1 6.6 10.9 17.4-13.4 20.1-37.8 23.9-55.6 8.6-5.7-4.9-11.3-12.7-12-16.9-.5-3.1-.2-3.7 2.7-5.4 2.7-1.7 10.1-3.6 22-5.6 4.8-.9 24.6.3 32 1.9zm117-1c12.5 1.9 18.9 4.1 20.2 7 2.4 5.4-9.2 19.9-20.7 25.8-5.4 2.8-6.9 3.2-15 3.2-7.7 0-9.8-.4-14.7-2.7-9.6-4.5-21.8-17.9-21.8-24 0-2.9 3.9-5.6 10.8-7.2 15.3-3.7 26.9-4.3 41.2-2.1z"/></g></svg>