<svg xmlns="http://www.w3.org/2000/svg" viewBox="0 0 512 512" height="682.667" width="682.667" version="1.0"><path d="M374.2 51.5c-22.3 8.8-36.7 18.3-45.7 30.2-2.8 3.6-5.9 7.2-7 8-1.1.8-8.4 2.5-16.2 3.9-52.7 9.2-98.4 29.3-136.8 60.1-51.2 41-85.4 103.2-98 178.3-1.2 6.8-2.8 13.9-3.6 15.6-.9 1.8-5 6.1-9.2 9.7-10.2 8.6-21.8 20.8-26.5 27.9-4.7 7.2-8.5 17.1-10.3 26.8-1.5 8.3-1.9 55-.7 82.1.6 14.2.8 15.5 2.9 17.6l2.3 2.3h294l2.5-2.2c1.9-1.7 4.1-6.8 8.2-18.8 4.9-14.2 5.7-17.8 6.1-26 .9-17-3-26.8-21.2-54-21.9-32.5-31.7-58.1-34.5-89.5-2.2-24.8 2.4-47.5 13.6-68.2 6-11 5.9-12.2-1.7-17.4-9.3-6.3-15.9-17.1-16.2-26.6-.2-5.4 1.7-7.4 8-8 4.1-.4 5.1-.1 6.9 1.9 1.2 1.2 2.9 4.7 3.9 7.6 2.1 6.4 5.9 9.7 15.2 13.2 7.3 2.7 7.1 2.5 19 19.6 16.7 24 36 38.7 57.1 43.6 15.7 3.6 15.3 3.4 18.7 11.9 4 10 6.7 14.1 11.5 17.3 7.8 5.1 16.2 5.5 25.1 1 6-3 10.1-7.8 13-15.1 4.3-11 2.5-35.2-3.4-46.8-1.1-2.2-3.9-6.5-6.2-9.5-14-18.3-23.4-36.7-40-78.5-15.2-38.2-19.3-46.5-28.5-57.6-3.9-4.6-7.3-9.4-7.6-10.7-1-3.8 4.4-18.7 12.3-34.3 4.1-8.1 7.3-15.5 7.1-16.6-.5-2.9-4.6-2.6-14.1 1.2zM372 159c9.9 9.3-1.2 26.3-13.2 20.3-5.1-2.5-7.6-6.2-7.6-11.3 0-4.6 2.5-8.7 6.4-10.8 3.6-1.9 11.5-1 14.4 1.8zm69.9 117.6c2.2 2.1 2 8.2-.3 12.4-4.2 7.9-14.1 12.2-19.7 8.5-2.4-1.5-2.6-2.2-2.2-6.6.6-5.4 4.1-10.9 9.2-14 3.8-2.3 10.8-2.5 13-.3zM187.5 63.1c-15.1 1.6-31.9 4.9-51.4 9.9-24.6 6.3-31.9 8.6-33.9 10.8-3.1 3.4-1.7 4.2 22.3 12.1 22.2 7.4 36.4 14.1 44.3 21 7.8 6.8 9.2 6.7 23.1-1.3 24.5-14.3 48.6-24.5 76.6-32.6 16.2-4.7 18-5.4 18-7.6 0-2-4.5-3.8-16.5-6.4-26.4-5.7-61.6-8.3-82.5-5.9zm-54 61.6c-9.2 1-25.4 4.9-35.6 8.4-20 6.9-37.4 16-37.4 19.5 0 2.2 5.4 4.1 14 4.9 12.4 1.1 29.3 4.3 35.4 6.5 5.4 2.1 8.7 5.2 6.7 6.4-.5.4-7.2 1.3-14.8 2.2-19.6 2.2-36.6 5.8-52.6 11.1-14.9 4.9-20 7.7-20.5 11-.3 2.3.5 2.7 16.8 7.9 15.4 4.9 28.5 12.9 33.1 20.4 1.3 2.2 2.9 4 3.5 4 2.4 0 6.3-4.2 10.4-11.2 4-6.7 11.2-17.5 22.6-33.6 2.4-3.5 4.4-7.4 4.4-8.8 0-1.8.9-2.7 3.7-3.9 2-.9 8.4-6.2 14.2-11.8 5.8-5.7 14.9-13.8 20.1-18.1 16.4-13.5 15.8-15-5.9-15.2-8-.1-16.2 0-18.1.3zM65.5 229c-4.7.5-11.4 1.8-15 3-9.2 3.1-24.5 10.8-27.2 13.7-2.2 2.4-2.2 2.5-.4 3.8 1 .8 3.9 1.7 6.5 2 12.1 1.5 22.7 3.8 29.8 6.4 11.2 4.1 10.9 4.3 18.6-13.4 3.5-8 4-10 3.8-14.3-.1-2.5-.7-2.5-16.1-1.2zM57 268.7c-19.9 5.1-35.5 12.7-35.5 17.4 0 2.4 1.4 3.2 10.8 6.7 4.5 1.6 11.3 4.9 15.1 7.1 4 2.5 7.5 3.9 8.4 3.5 2.9-1.1 11.7-30.5 10-33.3-1-1.6-5.3-2.3-8.8-1.4zm-21.1 51.2c-3.4 1-8.7 3-11.8 4.5-7.1 3.5-7.9 5.8-4.2 12.9 1.4 2.9 3 8.5 3.6 12.6 1.2 8.4 1.5 9.1 3.9 9.1 1.9 0 19.5-15.6 22.3-19.8 2.3-3.5 4.1-14.3 2.9-17.5-1.6-4.1-6.8-4.6-16.7-1.8z" fill="#f2f2f2"/></svg>