<svg xmlns="http://www.w3.org/2000/svg" viewBox="0 0 512 512" height="682.667" width="682.667" version="1.0"><path d="M252.15 65.663c-7.526.013-15 .487-20.15 1.437-24.8 4.5-48.3 17.1-68.7 36.8-29.9 28.7-48.6 67.1-56 114.6-2.4 15.9-2.4 50 .1 66 2.3 15 7.5 35.3 12.1 47.1 5.4 13.8 15.5 32.8 19.7 37.2 3.7 3.9 3.7 3.9 9 3.1 15.9-2.6 24.6.9 39.3 15.9 24.3 24.9 50 44.7 58 44.7 3.5 0 13.6-5.9 31.5-18.6 17.1-12 34.7-27.4 66-57.6 16.2-15.6 34.1-32.6 39.7-37.7 11.5-10.3 11.8-10.9 14.8-28.4 8.1-47.3.9-96.8-20.1-138.6C354 105.1 316 74.5 272.6 67c-5.35-.9-12.926-1.35-20.45-1.337zm-80.888 99.987c2.963 0 5.937.45 10.037 1.35 8.7 1.8 17.601 6.6 24.901 13.4 4.3 3.9 5.8 6 5.8 8 0 3.5-2.6 7-6.3 8.6-3.9 1.6-6.4.7-12.5-4.4-13.8-11.7-28.4-11.4-46.5 1-8.6 5.8-11.7 6.2-15.7 1.8-5.8-6.1-4.8-9.1 5.2-16.4 7.7-5.8 17.2-10.3 25.1-12 4.05-.9 7-1.35 9.962-1.35zm153 0c2.963 0 5.937.45 10.037 1.35 12.3 2.6 31.402 14 33.802 20.2.7 2 .498 3.2-1.202 5.9-4.3 7-7.899 7-17.899.4-18.3-12.3-32.4-12.6-46.2-.9-6.1 5.1-8.6 6-12.5 4.4-3.7-1.6-6.3-5.1-6.3-8.6 0-2 1.5-4.1 5.8-8 7.1-6.6 16.2-11.6 24.5-13.4 4.05-.9 7-1.35 9.962-1.35zM173.8 213.6c5.725-.05 11.5.45 15.6 1.5 12.8 3.3 24.1 11.8 29.4 21.9 3.7 7.3 4.2 17.9 1.1 26-5.6 14.8-25.5 26.5-45.4 26.5-18.3 0-36.599-9.7-44.099-23.2-2.6-4.8-2.9-6.2-2.9-14.8 0-8.2.4-10.2 2.5-14.4 5-9.9 15.8-18.1 28.5-21.7 3.9-1.15 9.574-1.75 15.3-1.8zm157.301 0c5.7 0 11.45.5 15.3 1.5 14 3.6 26.3 13.7 30.6 25.1 4.6 12.1 1.4 24.9-8.5 34.9-14.9 14.9-42.2 18.6-62.5 8.4-29.2-14.7-29.9-48.5-1.3-63.8 3.3-1.7 8.4-3.8 11.4-4.6 3.65-1 9.3-1.5 15-1.5zm-10.475 19.602c-.751-.013-1.588.092-2.525.298-8.1 1.9-16.1 10.4-16.1 17.2 0 12 11.9 20.1 29.5 20.2 7.7.1 9.8-.3 14.6-2.6 6.6-3 9.9-6 9.9-8.8 0-1.8-.7-2-7.2-2-12.6 0-18.7-4.6-21.7-16.3-1.544-5.688-3.219-7.943-6.475-7.998zm-156.1.09c-1.223 0-2.712.276-4.525.808-12 3.6-18.3 15.4-13 24.2 5.2 8.5 14 12.5 27.5 12.6 8.2.1 9.6-.2 15.6-3.1 10.3-5.1 11.9-10.8 2.8-9.6-5.7.8-12.6-1.5-16.9-5.6-3.6-3.4-4.2-4.9-6.7-15-.688-2.956-2.084-4.305-4.775-4.308zm244.933 91.222c-1.958.061-4.008.51-6.058 1.386-4.6 2-14.4 10.8-42 37.7-28.3 27.7-41.9 40.2-57.2 52.5-12.6 10.2-70.5 49-74.4 50-2.3.5-3.4 0-6.3-2.9-3.9-3.9-4.8-9.4-1.9-11.7 2.4-2.1 3.6-4.9 2.9-7-.3-1.1-4.5-4.8-9.3-8.2-11.9-8.6-26.8-21.6-38.2-33.3-11.2-11.5-14-13.5-19.7-13.5-3.5 0-5 .7-8.2 3.6-5.4 4.8-7.5 11.3-6.9 20.8.8 11.5 5.3 18.9 28.3 46.6 15.2 18.3 25.5 31.8 27.1 35.7.8 1.8 1.4 5.4 1.4 8.1 0 2.6.6 5.7 1.4 6.8 1.4 1.9 3.8 1.9 102.2 2.2 110.9.3 105.4.5 105.4-5.7 0-3-3.8-9.5-7.3-12.4-4.2-3.4-10-5.9-15.9-6.7-8.7-1.3-9-1.7-8.3-12.4.6-8.3.4-9.5-1.7-13.5-3.3-6.4-7.5-8.4-15.8-7.7-3.6.4-8.2.9-10.3 1.2-3.5.6-4.1.3-7.7-3.5-4.4-4.7-5.1-8.1-2.3-12.1.9-1.4 10.8-12.4 21.9-24.5 34.5-37.6 54.5-62 60.1-73.3 2.3-4.8 2.5-5.7 1.4-9.2-1.724-5.85-6.769-9.169-12.642-8.986zM220.13 362.758c2.304-.1 5.894.817 12.869 2.842 10.8 3 28.4 3 39.5-.2 4.4-1.2 9.8-2.3 11.9-2.3 3.5-.1 4.3.4 6.3 3.3 2.8 4.1 3 8.4.4 11-2.2 2.2-12.3 5.4-22.5 7.2-10.8 1.8-32.3.7-42.3-2.3-4.4-1.3-9.3-3.2-10.8-4.2-2.5-1.6-2.7-2.2-2.2-6.3.3-2.8 1.4-5.4 2.8-7 1.225-1.268 2.239-1.963 4.03-2.042z" fill="#f2f2f2"/></svg>