<svg version="1.0" xmlns="http://www.w3.org/2000/svg" width="682.667" height="682.667" viewBox="0 0 512 512"><g fill="#f2f2f2"><path d="M197.3 22.6c-.9 1.4-7.6 18.8-15 38.5-7.3 19.8-14 37.3-14.8 39-2 3.7-5.3 3.8-8.7.1-1.4-1.5-14.6-18.7-29.3-38.2C100 22.9 98.4 21 95.8 21c-1.1 0-2.1 1.1-2.5 2.7-.5 1.6-.8 34.2-.8 72.6v69.9l2.6 2.2c1.5 1.3 8 4.2 14.5 6.5 27.7 9.9 58 17.1 86.6 20.7 13.2 1.6 13.8 1.6 16.9-.2 2-1.2 9.5-10.7 20.8-26.3 9.7-13.4 18.8-25.3 20.3-26.4 2.5-1.9 2.8-1.9 5.1-.4 1.4.9 10.4 12.6 20 26 11 15.2 18.5 24.8 20.2 25.5 3.7 1.7 7.1 1.5 23.6-1.3 26.8-4.4 52.7-10.9 79.3-19.7 7.1-2.3 10.5-4 11.8-5.8 1.7-2.3 1.8-6.8 2.5-71.5.3-38 .3-70.3-.1-71.8-.9-3.7-3.5-3.5-7.4.6-1.8 1.9-16.7 20.2-33 40.8-24.4 30.7-30.2 37.5-32.4 37.7-1.9.2-3.1-.3-4.2-2-.8-1.3-7.6-19.3-15-40.2-7.5-20.8-14.1-38.5-14.7-39.2-1.6-1.9-4.3-1.7-6.1.3-.9 1-11.2 20.2-22.8 42.8-11.7 22.5-22.1 42.2-23.2 43.7-2.2 3.2-4.8 3.6-7.1 1-.9-1-10.9-19.8-22.3-41.7-11.3-22-21.7-41.7-23-43.8-2.9-4.4-5.6-4.8-8.1-1.1z"/><path d="M253.7 175c-1.4 1.1-7.1 8.4-12.6 16.1-13.3 18.6-13.3 17.2.2 36 5.7 7.8 11.5 15.2 12.9 16.2 2.5 1.9 2.9 1.9 5.1.4 2.9-1.9 22.5-29 23.3-32.3.3-1.3.3-3.5 0-4.8-.8-3.1-19.9-30-22.8-32-2.8-2-3-2-6.1.4zM81.9 189.8c-2.8 2.4-3 7.3-.2 11 5.7 7.6 15.7 12.4 43.4 20.6 31.7 9.3 74.2 17.6 90.3 17.6 7.7 0 8.8-1.2 6.4-6.3-2.1-4.3-9.3-13.3-12.1-15.2-1.3-.8-8.9-2.4-17.5-3.5-30.2-4-54.9-9.9-84.4-19.9-9.8-3.4-19.1-6.1-20.7-6.1-1.6 0-3.9.8-5.2 1.8zm331.6-.7c-2.2.5-8.7 2.5-14.5 4.4-22.7 7.4-48.4 13.6-75.5 18-10.3 1.6-16.9 3.2-18.5 4.4-3.6 2.5-14 17.2-14 19.7 0 3.9 2.3 4.7 10.7 3.9 20.9-1.9 50.6-8 73-14.9 31.4-9.7 43.5-16.2 48.4-25.9 2.5-4.7 1.9-7.9-1.6-9.5-2.9-1.3-2.5-1.3-8-.1z"/><path d="M393 238.6c-36 11.6-71.9 18.7-106 21-5.8.3-11.9 1.2-13.6 1.9-1.7.7-5.2 4-7.8 7.4-7.8 10.1-9.9 10.1-17.6-.5-2.3-3-5.6-6.1-7.3-6.9-1.8-.8-11.1-2.1-20.8-3-31-2.7-60.1-8-90.7-16.5-7.8-2.2-15.5-4-17.1-4-4.3 0-6.7 3.5-11.1 16.9-5 14.9-8.5 30.9-10.5 47.9-1.8 15.4-1.9 21.9-.2 25.1.7 1.4 6.5 5.4 14.2 9.7 40.4 23.1 64.6 53.4 70.4 88 1.4 8.3 1.8 20.2 1.1 32.5-.6 10.1.1 11.4 8.5 15.6 9.1 4.7 13.3 4.9 14.9.8.3-.9 1.5-9.4 2.6-18.8 1.3-10.3 2.7-18.1 3.6-19.4 2-3.2 11.4-3.3 14.4-.3 2.5 2.5 2.5 5.8 0 27.2-1.4 11.9-1.7 17.4-1 19.3 1.3 3.5 6 5.3 15.6 6.1 12.1 1 11.8 1.6 12.4-26.7.4-20.2.7-23 2.3-24.6 2.5-2.5 10.8-2.5 13.6.1 2 1.8 2.1 2.9 2.1 21.5 0 23.3.5 26.7 3.7 28.8 2 1.3 3.4 1.4 10 .4 15.5-2.3 15.9-3.1 13.3-25.2-2.5-21-2.5-24.4 0-26.9 3-3 12.4-2.9 14.4.3.9 1.3 2.3 9 3.5 18.9 1.1 9.2 2.5 17.7 3.1 18.8.7 1.4 2.1 2 4.3 2 4-.1 14.4-5.6 17-9.1 1.8-2.5 1.8-3.3.7-13.9-3.5-33 7.1-61.2 32.5-86.5 10.9-10.9 21.7-19 39.7-29.6 14.4-8.6 14.4-8.5 12.8-26.1-2.7-30.4-12.2-68-18.3-72.3-2.6-1.8-2.9-1.8-8.7.1zm-230.4 46.5c19.5 3.7 42.9 13.3 60.6 24.8 12.2 7.9 11.7 11.1-2.4 18.2-16.9 8.5-32.2 12.2-50.3 12.2-15.1 0-22.4-1.8-31.1-7.8-10.1-7-13.8-14.8-13.9-29.5 0-18.7 2.4-21.5 18-20.4 5 .3 13.5 1.4 19.1 2.5zm218.8-1.7c4.8 2 6.1 6 6.1 19.1 0 10.5-.2 11.4-3.3 17.8-8.7 17.7-32.1 24.5-62.2 18.2-13.9-2.9-33.4-10.9-38.7-15.8-4.4-4-3-6.3 8.2-13.7 17.4-11.4 42.7-21.3 62-24.4 17.8-2.8 23.4-3.1 27.9-1.2zm-121.8 58.3c5 7.4 18.4 43.8 18.4 49.9 0 2.3-.6 3.7-1.9 4.4-1.2.6-9.9 1-21.5 1-21.4 0-22.6-.3-22.6-6.1 0-6.5 12.8-40.4 18.6-49.2 3.1-4.7 5.9-4.7 9 0z"/></g></svg>