<svg version="1.0" xmlns="http://www.w3.org/2000/svg" width="682.667" height="682.667" viewBox="0 0 512 512"><path d="M233.5 21.1c-45 7.5-86.5 42.6-114 96.4-3.7 7.1-7.1 13.6-7.7 14.2-1.8 2.2-6.4 1.4-16.8-2.7-5.5-2.2-11.1-4-12.5-4-4.8 0-9.4 8.4-7.5 13.5 1.1 2.9 2.4 3.5 20.5 11 30.5 12.5 63.2 29.6 86 44.8 17.1 11.4 37 27.4 40.2 32.3 1.5 2.3 1.5 2.6 0 4.1-1.3 1.3-5.6 1.9-20.9 2.9-10.6.6-20.2.8-21.3.4-2.9-1.1-4.1-2.9-5.5-8-4-15.3-14.9-23.9-30-24-12.7 0-22.5 6.3-27.7 17.8-2.2 4.7-2.5 6.7-2.4 15.8.1 12.1.5 11.5-11.9 16-14.2 5.1-14.7 6-13 27.2 4.6 60.4 22 110.4 52.4 151.2 8.4 11.3 25.3 28.6 35 35.7 48.4 35.8 104.2 35.9 152 .1 48.9-36.6 81.6-106.4 87.6-186.6.8-11.8.8-14.8-.4-17.6-1.7-4.1-2.7-4.7-17-9.8-6.1-2.1-11.6-4.4-12.2-4.9-.7-.6-1.4-5.1-1.6-11.2-.5-12-2.7-17.7-9.6-24.5-13.6-13.7-37.3-11.6-48.2 4.2-1.6 2.4-3.8 7.3-5 10.9-1.4 4.3-2.9 7.1-4.3 7.8-2.4 1.3-34.5.3-38.4-1.2-1.2-.5-2.3-1.6-2.3-2.4 0-6.1 37.5-34.6 70-53.2 15.4-8.9 42.5-22.2 58.5-28.8 16.9-6.9 18.9-8.5 18.2-13.9-.7-4.8-3.6-9-6.7-9.4-1.2-.2-6.2 1.1-11.1 2.8-5.6 2.1-9.7 3-11.3 2.6-1.9-.5-3.9-3.4-9.1-13.3-28.2-53.9-68.4-88.2-112.3-95.8-9.1-1.6-31.3-1.8-39.7-.4zM230 271.2c1.1 1.8 6.3 13.4 11.6 25.8 12.7 29.7 12.9 30 15.9 30 2.9 0 2.8.2 15-26.8 9.3-20.6 11.3-24.2 14-24.2 2.3 0 3.8 4 11 29 3.6 12.9 7.4 24.3 8.2 25.2 3.5 3.9 5.3 2.5 19.3-15.2 14.5-18.4 19.2-22.2 20.5-16.8.3 1.3.6 12.5.7 25 .4 29.9.5 30 15.1 18.9 12.4-9.3 13.4-7.8 11.9 19.8-1.2 22.5-.4 19.7-12.6 42.4-3.8 7-8 13.9-9.3 15.4-2.2 2.3-2.6 2.4-4 1-1.2-1.1-1.7-4.8-2.2-14.1-1-18.9-2.5-19.1-13.8-1.9-11 16.7-12.8 16.5-17.8-2.2-3.7-13.6-5-16.5-7.4-16.5-2.5 0-4.1 2.9-8.7 15.8-5.1 14-7.4 19-9.1 19.6-3.2 1.3-4.6-1.3-11.5-21.2-5.8-16.9-8.3-22.2-10.3-22.2-2.4 0-3.5 3.4-7.6 23.7-2.2 10.8-4.4 20.4-5 21.5-.6 1.2-1.9 1.8-3.2 1.6-1.8-.2-4.3-4.5-12.7-21-5.8-11.4-11.3-21.5-12.3-22.5-1.6-1.7-1.8-1.6-3.7.2-1.5 1.5-2.9 6.8-5.6 20-3.7 18.6-5.4 23.5-7.9 23.5-2.2 0-4.1-2.2-13.7-15.5-9.6-13.5-11.9-15.8-14.5-15.3-2.7.5-3.9 3.9-7.8 21.8-4.2 19.1-5.1 21.5-8.5 21.5-2.2 0-3.7-2.4-13.7-21.5-15.7-30-15.1-27.9-15.5-50.9-.3-18-.2-19.3 1.6-20.7 2.1-1.5 4.7-1.1 11.4 1.8 5.5 2.5 9.3 2 10.9-1.2.6-1.4 3.2-14.3 5.6-28.8 2.5-14.5 5.1-27 5.8-27.8 2.1-2.5 4.7-1.5 7.7 2.8 1.6 2.4 7.4 12 13 21.4 10.6 17.8 13.1 21 15.7 20 2.2-.8 3-3.4 9.5-32.1 6.2-27.1 8-32.5 10.5-32.5.8 0 2.4 1.5 3.5 3.2z" fill="#f2f2f2"/></svg>