<svg version="1.0" xmlns="http://www.w3.org/2000/svg" width="682.667" height="682.667" viewBox="0 0 512 512"><g fill="#f2f2f2"><path d="M334.5 19.9c-2.2 1-7.6 5.2-12 9.3-6.2 5.8-10.4 8.7-18.5 12.8-21.8 10.9-37.7 23.7-43.1 34.6-5.4 11.1-1.5 25 10.2 35.8 3.3 3.1 11.3 8.7 17.9 12.6 12.9 7.6 16 11 16 17.4 0 11.1-13.3 23.6-46.5 43.6-14.1 8.5-15.5 9.6-15.5 12.5 0 2.7 6.7 9.1 10.4 10.1 3.3.8 6.3-.3 30.5-11.1 23.1-10.2 32.2-15.2 42.6-23.1 12.1-9.1 16.7-18.1 14.5-28-1.4-6.2-2.4-7.9-8.3-14.2-5-5.2-11.8-9.7-31.2-20.5-14-7.7-20.9-13.1-23.6-18.2-2.1-3.8-2.2-4.7-1.1-8.3 3.1-10.3 15-20 34.6-28.1l11.1-4.6 19.6.3c15.8.3 20.3.1 23.2-1.2 3.9-1.6 4.9-4.1 2-5-1-.3-4-.8-6.8-1.2-6-.8-9.5-2.8-9.5-5.4 0-2.5 3.5-4.2 13.2-6.4 9.1-2.1 12.9-4.5 11.2-7.3-4-6.7-31-10.9-40.9-6.4z"/><path d="M188.8 20.5c-1.5.9-3.1 2.7-3.4 4.1-1 4 .1 11.5 2.5 17.1 1.9 4.3 3 5.4 6.4 6.8 4.8 1.9 5.7 2.9 5.7 6.8 0 5.3 2.6 9.5 8.3 13.1 5.9 3.8 6.7 5 6.7 10 0 4.1-3.4 8.8-10.2 13.9-9.6 7.1-13 7.2-16.8.5-3.6-6.3-9.8-12.7-15.2-15.4-17.8-9-43.4-6.4-57.3 5.8-2 1.7-5.2 6.2-7.1 10-3 6-3.8 6.8-6.3 6.8-3.4 0-8.9-3.9-15.7-11.1-6.9-7.4-7.4-8.6-8.5-19.7-1.3-12.7-3.4-20.8-6.5-24.9C64.6 35.4 37.2 20 28.1 20c-3.2 0-6.1 2.7-6.1 5.7 0 3.5 5.6 13.1 16.9 28.8 5.9 8.2 13.8 19.5 17.6 25 17.6 25.9 27.2 35.3 40.9 40.6 4.5 1.7 8.6 3.6 9.3 4.2.7.7 3.2 5.7 5.6 11.2 9.6 21.6 24.2 43.9 37.7 57.5 14.1 14.3 21.8 16.3 37.3 10.1 10.1-4 21.4-9.7 25.5-12.8 6.5-4.9 4.4-6.5-17.8-13.6-17.9-5.8-30.5-11.2-38.8-16.9-11.3-7.7-24.2-22.9-24.2-28.5 0-3.1 3.2-4.3 12.3-4.4 7.7-.1 13.4-.8 23.5-3 4.3-.9 6.8-1 7.9-.3.8.5 2.5 4.3 3.7 8.4 4 13.8 12.5 22.6 30.1 31.2 18.4 8.9 33.5 10.9 43.4 5.8 7.9-4 10.8-9 8.1-14-1.2-2.3-3.9-3.2-25.4-8.5-19.6-4.8-28.4-8.3-32.6-13.2-4-4.5-4.6-7.5-2.6-12.6 2-5.3 6.5-9.8 18.6-18.5 11.7-8.3 15.2-13 15.8-21 .5-7.2-3.3-30.6-5.7-34.7-.9-1.7-3.7-4.1-6.1-5.3-5-2.7-6-3.7-6-6.9 0-3.4-4.6-8-11.4-11.3-7.7-3.8-13.1-4.6-16.8-2.5zM165.5 91c4.5 2.2 5 2.9 5.3 6.1.3 3-.2 4.1-2.8 6.2-4.8 4.1-10.1 5.2-25.1 5.2-12.1 0-13.9-.2-15.8-1.9-5.5-5 .6-14 11.9-17.7 1.4-.5 6.8-.7 12-.6 7.8.2 10.4.7 14.5 2.7zm274.8-53.9c-6.4 2-11.3 6.3-11.3 9.9 0 2.5-1.8 3.7-7.5 4.5-4.5.6-5.7 1.4-11 7-3.3 3.4-10.7 9.8-16.5 14.1-20.5 15.3-33.6 30-38.1 42.9-2.6 7.6-2.8 19.5-.4 35.5 2 13.7 1.7 21.9-1.1 25.7-2.3 3-1.5 2.6-14.8 8.8-15.7 7.4-23.3 16.6-18 21.9 2.6 2.6 6.3 3 14 1.3 9.1-2 22.5-8.2 28.1-13.1 2.5-2.2 5.6-6.4 7.5-10.4l3.3-6.7.1-16.4c.1-11.8-.2-17.6-1.2-20.4-.8-2.2-1.4-7.2-1.4-11.1 0-10.7 2.8-15.8 15.8-28.7 14.6-14.4 16.5-15.6 29.8-17.8 13.9-2.3 16.5-3.7 20.1-10.3 2.4-4.6 3.3-5.4 6.5-5.9 5-.8 7.5-3.2 10.9-10.3 5.4-11.4 4.9-18.4-1.6-21.2-4.4-1.8-5.6-1.7-13.2.7z"/><path d="M449.6 97.1c-2.2.5-7.5 2.5-11.8 4.5-5.6 2.5-10.1 3.8-15.7 4.3-4.5.5-9.8 1.7-12.3 3C397.5 114.8 378 137 378 145c0 3.5 6 5.4 13.1 4.1 11-1.9 20.5-6.7 53.4-27 11-6.8 15-7.6 18.4-3.9 1.2 1.2 2.4 3.7 2.7 5.5 2.4 12.5-7.5 20.5-34.6 27.8-21 5.7-25.5 7.4-28.2 10.2-5.4 5.6-6 8.7-5.6 30.2.4 23.1 0 24.5-8.1 28-10.8 4.6-17.4 5.5-39.1 5.5-21.7 0-30.5-1-49.8-6-10.8-2.8-14-3-17-.8-5.8 4-1.3 7.1 19 12.8 15.8 4.6 28.9 7.2 44.7 9.1 12.1 1.5 19.1 3 19.1 4.2 0 .3-2 2.3-4.4 4.4-2.4 2.1-4.9 5.2-5.6 6.9-1.4 3.5-.9 11.2 1 13.5 1.7 2.1 6.3 1.9 11-.5 10.3-5.3 17.9-.1 30.8 21 9 14.6 9.2 14.3-9.3 15.2-17.4.8-17 1-24.1-8.4-13.4-17.9-25-25.7-32.9-22.4-4 1.7-6 6.8-5 12.4 2 10.9 8.3 22.7 14.1 26.3 4.5 2.8 5.1 5.6 2.3 11-1.7 3.3-2.3 6.1-2.4 11.1 0 5.8.4 7.2 3 10.9 4.2 5.9 10.6 9.6 19.8 11.5 14.4 3 28.1-1.5 32.8-10.8 1.9-3.6 2.1-5.3 1.6-11.8-.3-4.1-.2-8.2.3-9 1.3-2.1 9.4-1.7 18 .9 5.7 1.7 8 3.1 12.3 7.4 9.5 9.3 17.6 23.3 23.3 40.1 3.2 9.2 3 12.7-.8 20.2-3.1 6-3.2 6.6-2 10.9 1.7 6.4 1.5 8.9-.8 11-2.7 2.4-2.6 8.3.2 16.4 4.2 11.8 10.9 16 17.8 11.1 2.6-1.9 10-14.7 10-17.4 0-.6-.7-2.4-1.5-4-2.2-4.1-1.9-5.7 1.8-10.1 4.7-5.7 4.2-9.4-3.6-31.2-12-33.5-18.9-46.6-31.6-60.6-3.9-4.2-7.1-7.9-7.1-8.2 0-.3 4-4.4 8.8-9.2 12-12 18-23.7 23.7-46.5 2.3-8.9 3.5-11.6 9-19.8 6.8-10.2 12-20.4 13.1-25.7.5-2.6.3-3.4-1.2-4-1.3-.5-2.6.3-4.8 3.2-7.8 10-11.2 11.6-14.2 7-1.6-2.4-1.5-3 1.1-11.8 3.2-10.9 3.1-14.3-.3-13.9-5.4.5-17.5 13.9-21.4 23.4-2.1 5.3-2.2 13.6-.3 20.8 2.2 8.2 1.8 13.9-1.6 24.5-6 18.9-11.8 28.7-17.9 30-3.9.9-10.6-2.2-15.4-6.9-2-2.1-7.5-8.8-12.1-15.1-8.8-11.7-12.8-15.7-19.6-20.1-2.2-1.4-3.9-3-3.6-3.7.2-.7 4-2.2 8.5-3.4 10.7-2.8 16.2-5.5 21.1-10.4 6.2-6.2 7.1-10.5 7.4-32.7l.2-19.1 2.9-3c4.1-4.3 10.4-7 23.1-9.7 20.3-4.4 24.2-6 30.5-12.3 7.8-7.8 11.3-16.4 11.4-28.1 0-7.5-.3-9.3-3.1-15.1-5.7-12.3-16.5-17.1-30.7-13.8zm-76.2 231.3c6 2.5 8.8 9.4 4.7 11.6-2.9 1.5-9.8 1.2-13.1-.5-5.7-2.9-6-7.3-.8-10.9 2.8-2 4.9-2 9.2-.2zm-305.7-207c-10.1 2.7-19.2 11.4-28.4 27.1-2.3 3.8-5.3 8.1-6.8 9.5-4.1 3.8-5.5 7.3-5.5 13.6 0 5.3-.3 6-3.5 9-3.4 3-3.5 3.5-3.5 10.1 0 21 10.3 27.7 22.3 14.4 5.6-6.2 7-9.5 5.8-13.8-1-3.6-.9-3.8 3.4-7.7 6-5.6 6.7-8 5.9-19.5-.6-9.1-.5-10 1.9-14.8 3-5.7 7.8-10.3 11-10.3 3.8 0 8.5 3.7 11.6 9.1 4 7 6.5 17.8 9.5 40.5 2.8 20.4 4.6 27.1 10.1 36.9 8.9 16 19.1 21 42.5 20.8 18.1-.1 30.6-3.5 63.3-17.3 22.3-9.4 24.5-11.1 21-15.8-2.6-3.6-7.5-5.2-12.5-4-2.2.4-11.4 3.5-20.5 6.8-23.2 8.4-30 10.1-42.9 10.7-12.2.6-18.1-.7-25.9-5.5-12.9-7.9-15.1-12.9-20-45.7-1.4-9.4-3.4-20.3-4.5-24.3-4.5-16.1-12.4-26.8-22.1-29.6-6.1-1.9-6-1.9-12.2-.2zM44 228.2c-1.9.7-6 3.7-9 6.8-7.6 7.6-9.5 13.2-9.4 27 .1 16.8 5.3 29.6 17.1 42.1 7.9 8.3 19.8 14.8 34.1 18.6 8.3 2.2 11.8 2.6 24.2 2.6 12.5 0 15.9-.4 24.4-2.6 11.9-3.2 23.6-8.8 32.8-15.8 8.5-6.4 11.2-6.4 11.6-.1.7 10.1-7 25.4-18.8 37.2-12.9 13-25.6 18.7-39.4 17.8-8.8-.6-17.1-3.8-33.3-12.9-20.4-11.6-26.5-14.2-34.6-14.6-6.6-.4-7.6-.2-11.8 2.5-13.1 8.4-12.5 25.7 1.7 48.6 4.5 7.2 6 10.9 8.1 19.2 3.3 13.6 6.1 17.9 14.6 22.6 11.9 6.5 23.4 9.8 29.2 8.4 4.4-1.1 3.1-4.4-5.5-13.2-4.9-4.9-8-9-8-10.3 0-3.2 4.1-3.7 10.6-1.2 6.9 2.6 9.4 2.7 9.4.3 0-3.4-7-8.6-20.2-15.2-13-6.5-13.3-6.7-18-13.5-7.3-10.6-13.2-22.8-12.4-25.9 1.6-6.5 6.9-5.6 24.6 4.5 17.1 9.7 28.5 15.4 36.1 18 12.1 4 29.2.9 45.9-8.4 11.2-6.3 26.5-21.8 31.3-31.7 5.4-11.2 7.7-22.1 8.4-38.5 1.2-29.6-3.8-38.5-20-36.1-6.7 1-12.4 5.5-20.6 16.1-12 15.5-20.2 21.7-33.2 25.1-8 2.1-25.4 2.4-32.9.5-19-4.7-33.3-18.9-37-36.8-2.8-13.4 2.4-25 10.2-22.9 1.3.3 5 4 8.2 8.1 9 11.6 22.7 22.9 36.9 30.5 19.1 10.3 23 1.4 10.4-23.6-7-13.8-14.6-21-26.8-25.3-3-1-8.7-3.3-12.8-5.1-8.3-3.6-19.9-4.8-26.1-2.8zM63 422c0 .5-.4 1-1 1-.5 0-1-.5-1-1 0-.6.5-1 1-1 .6 0 1 .4 1 1z"/><path d="M244 233.7c-18.3 6.3-31.6 11.5-33.1 12.9-4.4 3.9-2.1 7.1 12.4 17.1 8 5.6 5.6 8.3-7.2 8.3-9.6 0-8.7-1.6-9.6 18.5-.7 17.8-2.7 31.6-6.1 43-4.8 16-4.6 17.1 5.5 27.4 15.6 15.8 34.7 25.5 50.1 25.5 8.4 0 12.3-1.1 22.5-6.1 17-8.4 36.4-27.3 44.5-43.2 3.8-7.5 3.2-10.1-3.3-17-11.9-12.4-13.4-22.2-7.1-45.9 4-15.2 4.1-17.7.4-17.7-1.9 0-2.9.9-4.3 4-3.9 8.4-9 11.7-18.3 11.9-10.3.2-10.9-2.8-1.6-8.9 7.9-5.2 10.2-7.5 10.2-10.1 0-2.8-1.2-3.5-13.9-7.9-5.4-1.9-14.5-5.7-20.1-8.5-11.1-5.4-13.9-5.8-21-3.3zm16.8 57.9c1.3.4 2.2 1.4 2.2 2.6 0 2.5-4.4 6.8-7 6.8-4.7 0-9.3-8.2-5.2-9.3 2.6-.7 7.4-.7 10-.1zm-37.4 35.8c1.8.7 4.3 2.8 5.7 4.5 1.3 1.8 3.6 4.6 5.1 6.4l2.7 3.2 3.3-3.1 3.3-3.1h25l3.3 3.1 3.3 3.1 2.7-3.3c6.7-8.3 9.9-11 13.6-11.7 5.2-1 6.4.4 4.2 5.2-2.8 6-19.8 30.5-22.7 32.6-2.5 1.8-2.9 1.8-8.2.3-6.9-2-10.5-2-17.4 0-5.3 1.5-5.7 1.5-8.2-.3-2.6-1.9-18.6-24.6-22.2-31.6-3.3-6.3-.8-8.4 6.5-5.3zm109.1 31.4c-2.5 1.7-5.5 6.7-5.5 9 0 1.4 1.1 4 2.5 5.8 6 7.8 1.2 13.2-21.1 24.1-9.4 4.5-17 8.9-19.4 11.1-6.2 6-6.6 13.7-1.1 22.4 4.2 6.7 10.4 10 19.6 10.6 8.9.5 14.9-1.1 37.5-10.3 21.1-8.6 30.8-11.5 38.1-11.5 5.4 0 6.4.3 9.1 3 2.8 2.9 3 3.5 2.6 9.3-.2 3.4-1.3 8-2.3 10.2-2.1 4.2-2 4.2-19.9 12.7-9.7 4.6-17.6 10.9-17.6 13.9 0 2.5 2.5 2.5 8.6-.1 6.2-2.7 10.8-2.4 11.2.8.3 1.9-1.5 4.3-7.7 10.7-4.5 4.5-8.1 9-8.1 9.8 0 5.6 13.2 4 28.1-3.4 13.2-6.6 14-7.9 20.4-31.4 4.9-17.8 6-25.8 4.6-32.7-3.6-17.3-18.9-24.1-42.9-19.2-7.5 1.5-13.3 3.7-37.6 14.5-9.8 4.3-13.1 5.2-17.9 5.3-4.6.1-6.2-.3-7-1.6-2.2-3.3 2.2-6.9 19.3-15.8 8.9-4.7 17.7-10 19.6-11.8 10.6-10.1 9.7-23.2-2.2-33-3.7-3.1-8.5-4.2-10.9-2.4zM386 479.6c0 .8-.5 1.2-1 .9-.6-.4-.8-1.1-.5-1.6.9-1.4 1.5-1.1 1.5.7zM185.3 372.7c-1.1 1-3 4.7-4.3 8.3-5.7 16.5-8.5 18.6-28.2 20.5-12.8 1.3-15.1 1.8-21.3 4.9-7.3 3.6-13.2 8.6-17.1 14.6-3.3 4.9-5.7 15.3-4.9 20.6.9 6 5.9 15.7 10.1 19.3 11.5 10.2 33.3 14.9 54.9 12 9.7-1.4 18-1.5 37.5-.8 8.4.4 10.2.1 15.5-2.1 8.6-3.7 17-9.5 24.6-17 7.8-7.7 9-11 5.2-14.8-2.5-2.5-2.6-2.5-16.6-1.9-17.7.6-29.2 3.5-46.1 11.4l-12.1 5.7-14 .4c-21.5.7-35.1-2.2-39-8.2-4.1-6.2-.1-17.4 7.8-22 4.9-2.8 10.6-4.1 23.7-5.6 14.9-1.7 19.5-3.3 25.1-9.1 5.8-5.9 12.1-18.2 12.3-23.7.1-4.2-3.2-9.1-8.4-12.5-2.6-1.7-2.8-1.7-4.7 0z"/></g></svg>