<svg version="1.0" xmlns="http://www.w3.org/2000/svg" width="682.667" height="682.667" viewBox="0 0 512 512"><g fill="#f2f2f2"><path d="M108.4 32.1c-1.3 2.2-1.6 14.7-.5 21.5 1.6 9.6 6.2 18.4 13.6 26.2 14.3 15.2 27.1 19.4 72.6 23.7 8.6.8 16.3 1.7 17.2 2.1 3 1.1 2.8 4-.7 11.5-14.1 29.8 4.1 81.8 33.8 97.1 6.2 3.2 17.5 3.6 24.6.9 21.1-8 39.3-39.5 40.7-70.1.6-13.4-.4-19.5-4.9-29.3-5-10.8-5.5-10.5 25.8-13.7 24.4-2.5 34.2-4.8 44.5-10.1 18.4-9.6 29.1-26.2 29.3-45.4.2-15.5-2.5-17.5-9.4-7-9 13.8-23.2 23.5-40.2 27.5-8.3 1.9-24.5 3.9-49.8 6.2-18.1 1.6-79.5 1.6-98.5-.1-22.3-1.9-44.3-4.7-51.5-6.6-15.9-4.1-29.5-13.9-38.6-27.9-4.8-7.4-6.5-8.8-8-6.5z"/><path d="M164 119.7c-45.7 4.5-79.5 14.5-104.7 30.8-10.5 6.8-24.4 20.5-29.7 29.2-32.5 53.9 9.1 126.6 94.9 165.5 13.8 6.2 35.7 13.8 40 13.8 4.2 0 8-3.2 12.2-10.1 15.3-25.6.8-60.2-25.2-60.2-6.8 0-12.5 2.1-19.5 7.2-4.2 3-7.4 3.8-9.6 2.3-4-2.6-11.9-26.1-13.6-40.3-2.3-19.8 3.4-38.5 13.7-44.9 5.7-3.5 9.2-2.7 19.1 4.2C175 241 201.7 284 210.9 329c2.8 13.6 3.6 23.4 2.2 26.8-.6 1.5-5.7 6.6-11.3 11.2-17.3 14.6-43.3 45-44.4 52.2-.5 3.1.4 5 10 19.2 5.8 8.7 10.6 16.7 10.6 17.8 0 3.8-2.1 5.7-12.3 11.5-5.6 3.2-11.5 7-13.2 8.5-2.9 2.7-2.9 2.9-1.1 4.3 1.7 1.3 6.9 1.5 31.7 1.5 16.4 0 30.4-.3 31.3-.6 2.5-1 1.9-5.1-1.5-10-20.5-29.9-7-63.8 29.1-73 7.9-2 23.4-2.2 31-.5 26 6.1 42.6 28.2 39 51.8-.7 5-2.5 9.9-6.7 18.1-5.6 11-5.7 11.4-3.9 12.8 3 2.2 61.8 2.1 63.6-.1 1.9-2.3-.8-4.7-12.7-11.8-5.7-3.3-11-6.8-11.9-7.8-3.1-3.4-2-6.6 7.5-20.4 11.5-16.8 12.6-19.3 10.7-23.8-3.6-8.8-27.4-35-50.1-55.3l-6.8-6.2.6-8.5c1.8-25.6 14.4-60.8 30.4-85.2 12.3-18.7 29.5-36.6 44.7-46.5 9-5.9 12.4-5.6 19.2 1.3 5.9 6.2 8.9 12.9 10.5 24.3 1.9 12.4-1.3 30.8-8.1 47.6-4.9 12-7.6 13.2-15.9 7.3-6.9-5-11.7-6.7-18.6-6.8-11.7-.1-22.5 7.6-28.3 20.1-2.4 5.1-2.7 6.8-2.7 17.3 0 11.3.1 11.6 3.8 19.1 4.5 9.1 9.3 13.8 14.2 13.8 8.7 0 47.5-16.2 67.1-28.1 22-13.3 44.7-33.7 57.2-51.4 7.7-10.9 15.3-26.2 18.4-37 1.9-6.7 2.3-10.4 2.3-23 0-13.1-.3-15.9-2.3-22-10.8-32.2-38.8-54.3-85.8-67.9-18.8-5.4-53.3-10.6-70.4-10.6-10 0-10.1.3-9.4 15.8 1.5 31.8-9.8 61.6-31.5 83.2-13 12.9-24.4 18-40.1 18-14.3-.1-27.3-6.4-39.9-19.5-12.5-13.1-21-28.4-26.8-48.7-2.4-8.4-2.6-11-2.8-27.5-.1-13.3-.5-18.6-1.4-19.7-1.1-1.3-3.2-1.6-10-1.4-4.7 0-10.2.3-12.1.5z"/></g></svg>