<svg version="1.0" xmlns="http://www.w3.org/2000/svg" width="682.667" height="682.667" viewBox="0 0 512 512"><path d="M406.1 122.6c-17.3 4.6-28.5 16.8-40.2 43.7-8.3 19.1-10.8 31.3-18.4 90.2-10 77.2-13.6 97.8-21.1 121.9-2.8 8.8-2.5 11.3 1.4 12.3 1.5.5 15.7.8 31.5.8h28.9l2.2-2.6c3.2-3.7 3.4-9.1 4.6-94.4 1.2-82.8 1.7-89.2 9.1-104.2 3.4-7.2 7.3-10.8 13.1-12.4 6.9-1.8 13.9.6 28.1 9.9 6.6 4.3 7.7 4.7 13.2 4.7 11.6-.1 25.7-9.7 28.6-19.5 2.6-8.6-2.2-17.6-15.1-28.2-13.8-11.2-28.3-19.6-38.7-22.3-7.1-1.9-20.1-1.8-27.2.1zm40.8 20c1.2 1.5 2.1 3.7 2.1 4.9 0 1.2-.9 3.4-2.1 4.9-1.6 2-2.9 2.6-5.9 2.6-3 0-4.3-.6-5.9-2.6-1.2-1.5-2.1-3.7-2.1-4.9 0-1.2.9-3.4 2.1-4.9 1.6-2 2.9-2.6 5.9-2.6 3 0 4.3.6 5.9 2.6zM204 322.5c-15.4 2.8-31.5 13.5-43.2 28.7-14.4 18.5-21.7 34.5-17.6 38.6.9.9 17.9 1.2 70.4 1.2 63.4 0 69.4-.1 70.9-1.7 2.4-2.4 1.5-6.5-4-17.4-6.7-13.4-13.5-22.8-23.4-32.2-10-9.5-19.7-14.9-30.6-17.2-8.4-1.8-12.6-1.8-22.5 0zM54.4 352.9c-5.2 2.4-11.4 7.9-16.9 15.1-5.4 7.1-10.5 16.1-10.5 18.7 0 4.6 1.3 4.8 34.9 4.8 17.4 0 32.8-.3 34.3-.8 5.6-1.5 4.4-7-4.3-19.8-4.5-6.7-13.3-14.9-18.6-17.4-5.6-2.7-13.9-3-18.9-.6z" fill="#f2f2f2"/></svg>