<svg xmlns="http://www.w3.org/2000/svg" version="1.0" width="682.667" height="682.667" viewBox="0 0 512 512"><path d="M101.336 151.933c-3.965 6.14-7.178 13.38-7.418 16.727-.284 3.697 2.115 4.885 9.311 4.657 23.6-.67 46.042.827 71.45 4.648 18.958 2.839 20.401 2.663 20.86-2.433 1.134-11.943-34.946-33.266-61.675-36.482-15.829-1.797-25.423 1.982-32.528 12.883zM295.9 72.5c-6.9 1.5-11 3.6-14.3 7.6-1.8 2.2-10.2 15.8-18.8 30.4-18.1 31-25.7 42.7-36.7 56.4-8.5 10.6-27.5 30-36.9 37.6-10.1 8.2-10.1 11.6-.3 17.8 12.8 8.1 25.7 12.2 39 12.2 19.3 0 24.9-8.7 37.6-59 9.1-35.9 13.2-45.4 25.1-57.3 14.6-14.6 30.6-16.6 55-6.6 5.2 2.1 10.5 3.9 11.7 3.9 3.3 0 5.2-3.7 5.2-10 0-7.1-3.6-14.6-9.3-19.6-5.3-4.5-16.4-9.9-24.7-11.9-7.7-1.9-26.8-2.8-32.6-1.5zm-54.181 176.754c-2.76.193-54.157 28.68-58.071 32.258-3.132 2.806-3.077 5.14-.003 10.395 4.19 7.383 3.34 7.66 41.82-14.13 14.625-8.24 23.22-13.624 24.008-15.103 2.576-4.225-2.803-13.526-7.754-13.42z" fill="#f2f2f2"/><path d="M314.3 123.8c-9.4 3-17.1 11.8-22.8 26-5.3 13.2-3.6 20 6.4 26.2 4.4 2.7 5.8 3 12.5 3 9.2-.1 15.4-2.9 22.8-10.3 10.2-10.2 17.2-29.7 12.8-35.8-1.9-2.8-11.1-7.1-18.9-8.9-7.1-1.7-7.9-1.7-12.8-.2zm-33.2 68.9c-.9 1.4-2.8 6.4-4.1 11.1-1.4 4.7-4.1 12.3-6 16.9-3.8 8.8-5.7 16.2-7.5 29.5-1.8 13.4.5 16.3 16.4 20.5 7.6 2 19.9 2.4 24.1.8 6.7-2.5 22.7-21.6 26.4-31.5 2.8-7.5 2.6-14.7-.8-27.8-3.9-14.7-4-14.8-18.2-15.1-10-.2-12.2-.5-17.9-3-9.5-4.1-10.6-4.2-12.4-1.4zm118.8 1.8c-6.3 2.5-9.7 11.6-6.7 17.8 2.5 5.1 6.2 6.3 11 3.7 7.5-4.1 9.6-15.3 3.8-20.2-2.7-2.4-4.6-2.7-8.1-1.3zm-15.2 40.7c-.7.3-3.1 4.1-5.3 8.5-4.3 8.6-7.8 12.8-10.5 12.8-1 0-4.5-3-7.9-6.6-5.2-5.7-6.6-6.6-8.6-6.1-2.9.7-6.9 8.1-6.9 12.7 0 3.5 8.2 13.6 16.6 20.4 7 5.7 8.9 6.3 12.3 3.9 9.8-7.3 26.7-36.5 23.9-41.6-1.7-3.3-9.6-5.6-13.6-4zm-130.8 52.5c-1.7 1.8-7.4 8.7-12.6 15.3-11.3 14.2-20.1 23.4-32.1 33.4-9.4 7.8-10.6 9.4-9 12 2.5 4 44.6 19 65.8 23.5 15.4 3.2 26.5 4.2 29.3 2.7 3.1-1.7 4-3.8 5.7-14.3 3.5-21.9 3.7-49.8.5-61.8-1.5-5.6-3.6-6.9-13.6-8.1-4.9-.6-12.6-2.2-17.2-3.5-11.1-3.2-13.1-3.1-16.8.8zM216 378.4c-1.1.5-4.7 4.3-7.9 8.5-6.9 9-10.9 12.6-14.1 12.6-1.3 0-5.3-1.6-9-3.6-4.9-2.5-7.7-3.4-10.4-3.2-3.2.3-3.9.8-5.9 4.9-2.8 5.7-2 8.4 3.7 12.2 4.7 3.1 5.4 6.4 2 9.8-6.4 6.4-30.4 19.5-48.2 26.4-10.8 4.1-12.2 5.6-11.4 11.7 1.2 8.9 5.8 9.8 21.2 3.8 18.6-7.3 34.4-16.2 51.7-29.1 5.9-4.3 8.9-5.9 11.3-5.9 1.7 0 7.6 1.8 13.1 4 19 7.8 37.1 12 44.9 10.6 2-.4 5.3-2.3 7.5-4.2 5.1-4.6 13.2-17.3 17.5-27.5 4.8-11 4.6-13.8-.8-15.8-4-1.5-7.9-1.4-10.5.5-1.2.8-4.3 5.9-6.7 11.1-8.1 17.3-10.9 19.3-23.7 16.6-8.3-1.7-18.7-5.7-22.3-8.5-1.4-1.1-2.5-2.9-2.5-4.2 0-1.2 2.9-6.1 6.5-11 6.5-8.9 8.2-12.3 7.2-15-1.3-3.4-9.4-6.2-13.2-4.7zM163.136 70.506c-7.074 1.835-14.341 4.988-16.783 7.289-2.711 2.529-1.75 5.027 3.7 9.73 17.823 15.485 33.326 31.78 49.44 51.794 12.03 14.923 13.211 15.77 16.999 12.33 8.92-8.022-3.199-48.142-20.693-68.604-10.434-12.038-20.053-15.752-32.663-12.539z" fill="#f2f2f2"/></svg>