<svg xmlns="http://www.w3.org/2000/svg" viewBox="0 0 512 512" height="682.667" width="682.667" version="1.0"><g fill="#f2f2f2"><path d="M242.32 26.538c-58.454 10.523-120.447 95.955-162.254 223.48-15.498 47.548-25.83 94.043-28.796 130.875-1.34 15.977-.86 20.76 2.487 26.5 13.298 22.674 86.485 47.739 167.324 57.21 29.083 3.348 50.417 2.87 84.667-2.01 76.917-11.001 140.058-33.962 152.782-55.583 2.583-4.4 2.679-5.07 2.487-16.55-.478-41.807-19.325-119.968-43.911-181.961-42.19-106.67-96.147-172.968-148.19-182.057-10.046-1.722-16.647-1.722-26.596.096zm-37.311 141.11c42.764 10.811 60.367 10.811 102.652-.19 8.132-2.106 15.977-3.923 17.507-3.923 3.349-.096 6.123 2.487 7.558 6.983 2.105 7.271-1.052 9.089-27.552 15.594-21.717 5.262-32.528 6.697-49.652 6.697-17.507 0-30.136-1.913-53.574-7.94-17.508-4.497-21.239-6.027-22.578-9.089-1.435-3.157 1.148-10.428 4.21-11.863 2.391-1.148 1.913-1.148 21.429 3.731zm-34.154 34.441c25.735 19.23 29.466 21.717 42.573 28.03 18.464 8.994 25.926 11.96 35.11 13.777 6.888 1.435 8.036 1.435 14.924 0 9.184-1.913 16.742-4.783 35.11-13.68 13.107-6.41 16.743-8.802 42.573-28.127 28.51-21.43 30.996-22.865 34.632-19.995 2.487 2.105 4.592 5.836 4.592 8.42 0 3.252-2.679 5.74-21.621 19.898-8.515 6.314-16.36 12.628-17.412 14.063-1.052 1.34-3.54 7.463-5.453 13.681-7.366 23.439-15.115 37.885-27.074 51.182-7.27 7.845-7.27 8.802-2.105 22.1 4.401 11.289 4.688 13.776 1.627 16.646-3.062 2.87-17.316 9.28-30.805 13.872-10.524 3.54-12.342 3.922-21.526 3.922s-11.002-.382-21.525-3.922c-13.49-4.592-27.744-11.002-30.805-13.872-3.062-2.87-2.775-5.357 1.626-16.646 5.166-13.298 5.07-14.35-1.913-21.908-11.863-12.724-19.804-27.648-27.266-51.374-1.913-6.218-4.4-12.341-5.453-13.68-1.052-1.436-8.897-7.75-17.412-14.064-18.942-14.159-21.62-16.646-21.62-19.899 0-2.583 2.104-6.314 4.592-8.419 3.635-2.87 6.122-1.435 34.631 19.995zm-12.628 58.453c7.175 1.34 18.369 5.262 20.473 7.175.957.861 1.722 2.775 1.722 4.401 0 3.444-3.252 8.993-5.74 9.758-1.052.287-6.41-.765-12.054-2.296-18.368-5.261-32.24-3.73-41.711 4.688-5.262 4.592-10.715 14.637-12.82 23.534-1.818 7.845-2.009 23.344-.478 31.858 1.53 7.75.956 9.95-3.253 12.533-4.688 2.87-8.993 2.296-11.193-1.531-2.679-4.592-4.592-15.116-4.592-25.352-.096-40.85 24.682-68.786 58.836-66.203 3.157.192 8.036.861 10.81 1.435zm225.012.479c24.3 6.6 40.18 31.953 40.18 64.002 0 9.854-2.008 21.238-4.591 25.735-2.2 3.73-6.602 4.305-11.194 1.435-4.113-2.584-4.783-4.784-3.348-12.533 1.626-8.514 1.34-24.204-.478-31.953-2.01-8.802-7.462-18.847-12.724-23.439-9.471-8.419-23.343-9.95-41.712-4.688-5.644 1.531-11.001 2.583-12.054 2.296-2.487-.765-5.74-6.314-5.74-9.566 0-4.21 2.392-6.028 12.246-9.089 14.828-4.783 27.552-5.453 39.415-2.2zM190.18 343.2c35.493 17.698 39.894 19.612 43.338 19.229 2.105-.191 8.036-.957 13.202-1.722 7.75-1.052 10.81-1.052 18.656 0 5.07.765 11.002 1.53 13.106 1.722 3.444.383 7.845-1.53 43.434-19.325 21.812-10.81 40.276-19.612 41.041-19.42 4.592.86 3.923 2.678-13.01 36.832-11.194 22.673-16.551 34.249-16.455 36.354 0 2.296 1.243 4.592 5.07 8.992 11.002 13.107 12.15 14.638 12.15 17.7 0 2.295-.861 3.826-3.349 6.026-5.453 4.784-7.366 4.114-15.69-4.975-24.873-27.265-40.563-39.32-58.453-44.868-10.045-3.061-24.395-3.061-34.44 0-17.89 5.549-33.58 17.603-58.453 44.868-8.324 9.089-10.237 9.759-15.69 4.975-2.487-2.2-3.348-3.73-3.348-6.027 0-3.061 1.148-4.592 12.245-17.699 3.827-4.592 4.975-6.696 4.975-9.184 0-2.2-4.88-13.01-16.264-35.875-8.897-17.986-16.263-33.389-16.263-34.345 0-2.105.86-2.966 2.965-2.966.957 0 19.517 8.897 41.233 19.708z"/><path d="M198.982 246.288c-1.722 4.592 9.854 25.16 15.88 28.413 2.87 1.53 6.124-2.009 8.611-9.375 2.105-6.219 2.2-6.793.765-8.993-1.722-2.583-16.646-10.237-21.525-11.002-2.296-.383-3.253-.096-3.731.957zm101.408 2.392c-14.35 6.696-15.115 7.844-11.863 17.028 2.488 6.793 5.932 10.428 8.61 8.993 5.071-2.774 15.307-19.707 15.594-25.926.192-2.774-.095-3.253-2.2-3.54-1.34-.095-5.931 1.435-10.14 3.444zm-56.635 15.785c-3.062 3.252-20.473 47.164-20.09 50.8.382 3.922 4.4 6.505 15.976 10.236 12.532 4.114 20.186 4.114 32.718 0 11.576-3.731 15.594-6.314 15.977-10.236.383-3.636-17.029-47.548-20.09-50.8-1.914-2.01-2.87-2.2-12.246-2.2-9.375 0-10.332.19-12.245 2.2zM185.78 363.29c-1.244 1.148-1.244 1.913-.096 5.07 1.913 5.454 3.827 8.993 6.123 11.002 1.913 1.818 2.2 1.818 5.357.287 2.01-.956 4.018-2.965 4.975-4.974 1.53-3.157 1.53-3.444-.287-5.358-2.01-2.296-5.549-4.21-11.002-6.123-3.157-1.148-3.922-1.148-5.07.096zm133.074.765c-9.375 3.923-11.384 6.602-8.419 11.48 5.262 8.515 11.385 5.836 15.881-7.175 1.148-3.252 1.148-3.922-.095-5.166-.861-.765-1.531-1.435-1.627-1.435-.095 0-2.678 1.053-5.74 2.296zM54.331 188.6c-1.148.478-2.583 2.009-3.06 3.348-1.914 5.07-.384 63.046 1.817 68.594.574 1.531 1.435 2.679 2.009 2.679 1.34 0 4.114-5.836 7.175-15.307 1.435-4.496 5.166-15.115 8.227-23.726 3.157-8.61 5.645-17.029 5.645-18.75 0-8.993-14.159-19.995-21.813-16.838zm393.006 1.626c-6.314 3.253-11.48 10.141-11.48 15.211 0 1.722 2.487 10.141 5.644 18.751 3.061 8.61 6.792 19.23 8.227 23.726 7.367 22.482 9.663 20.664 11.194-8.61 1.243-25.735.765-47.356-1.148-49.174-2.87-2.87-6.793-2.774-12.437.096z"/></g></svg>