<svg version="1.0" xmlns="http://www.w3.org/2000/svg" width="682.667" height="682.667" viewBox="0 0 512 512"><g fill="#f2f2f2"><path d="M34 48.5c0 14.8 20.5 49.3 43.9 73.8 20.2 21.1 68.3 57.6 82.1 62.2 7.7 2.5 17.6 1.8 22.6-1.8 5.7-3.9 8.7-8.9 9.2-15.3.5-6.5-.9-10.4-5.3-14.3-3.6-3.1-4.8-3.6-28-11-45.3-14.5-73-35.2-109.7-82.1-6.2-8-12.1-14.6-13.1-14.8-1.4-.3-1.7.4-1.7 3.3zm432.2 7.7c-25.8 33.1-42.1 49.4-63.2 63-16.4 10.7-35.7 19.2-58.5 25.9-19.5 5.6-23.7 9.1-24.3 19.9-.4 6-.1 6.9 3 11.4 4.5 6.7 10.1 9.6 18.4 9.6 8.9 0 14.4-2.4 30.8-13.4 36.7-24.7 64.6-50.2 83.1-76.1 7.3-10.2 17.3-28.9 20.4-38.2 2.5-7.5 2.8-13.3.6-13.3-.8 0-5.5 5-10.3 11.2z"/><path d="M227.5 132.7c-13.2 1.4-22 3.3-23.9 5.2l-2 2.1 4.1 8.2c4.8 9.6 5.9 15.6 4.3 23.6-2.7 12.7-11.1 23.6-22.7 29-4.7 2.2-7.5 2.7-15.3 3-8.4.3-10.6 0-18.5-2.6-4.9-1.6-9.7-2.7-10.6-2.5-.9.3-2.2 1.6-2.8 3-2.9 6.4-3.9 36.3-2.1 61.8 1.9 25.7 4.9 39.4 14.4 66.2 3.5 9.8 7.2 21.4 8.1 25.7 1.2 5.1 2.6 8.8 4 10.1 2.4 2.5 14.8 5.2 27.7 6.2l7.8.6-.2-8.1c-.1-6.8.2-8.8 2.3-12.9 3.1-6 9.8-10.7 17.7-12.4 8.1-1.7 10.2-3.2 10.2-7.4 0-4.9-2.5-5.3-10.1-1.4-5.9 2.9-6.8 3.1-14.5 2.7-18.6-1-31.5-12.9-36.9-33.8-1.2-5-2.6-7.5-5.6-10.5-4.5-4.7-5-8.2-1.9-13.2 3.1-5.1 5.5-5.1 18.2 0 20.2 8.1 35.1 11.4 46.5 10.4 11.5-1.1 17.7-5.3 23.8-16.3 5.3-9.5 7.7-9.5 13 0 6.1 11 12.3 15.2 23.8 16.3 11.4 1 26.3-2.3 46.5-10.4 12.7-5.1 15.1-5.1 18.2 0 3.1 5.1 2.6 8.7-1.9 13.1-3.1 3-4.3 5.3-5.7 10.5-2.6 10-6.3 17-12.1 22.9-7.1 7.1-14.4 10.4-24.6 11-7.4.4-8.4.2-14.8-2.8-7.6-3.7-9.9-3.2-9.9 2.1 0 3.5 2.5 5.2 10.2 6.8 11.7 2.5 20 11.4 20.1 21.8 0 2.6-.3 5.7-.6 6.8-1.8 5.5 2.5 5.9 21.7 2.4 14.7-2.7 15.6-3.5 18.1-14.5.9-4.3 4.3-15.3 7.5-24.4 3.2-9.1 6.8-19.7 7.9-23.6 6.6-22.6 9.9-65.9 7-93.5-1.6-15.8-2.9-17.1-13.5-13.2-5.8 2.2-8.7 2.6-18.4 2.7-10.7.1-11.9-.1-17.7-2.8-7.3-3.3-15.7-11.7-19.2-18.9-3.8-7.8-4.8-16.2-2.8-24 .9-3.6 2.7-8.3 4-10.4 3.5-5.7 3.8-7 1.9-9.3-3-3.7-15.2-5.1-47.7-5.5-15.9-.1-30.8-.1-33 .2zm17.3 23.9c1.7 1.1 2.2 2.5 2.2 5.6 0 9.9-8.7 32.1-17.5 44.3-9.8 13.8-26.4 24.7-42.5 28.1-9.1 1.9-26.9 1.5-31.5-.7-2.6-1.2-3-2-3.3-6-.2-3.8.2-5.2 2.1-7.5 2.4-2.8 2.5-2.8 13.8-2.6 16 .4 26.2-2.6 36.4-10.8 9.8-7.8 19.2-23.5 23.5-39.5 3.1-11.3 4-12.5 9.8-12.5 2.7 0 5.7.7 7 1.6zm35.6.6c.7 1.3 2.5 6.5 4 11.6 6.7 23.8 19 39.1 37.4 46.3 4.8 1.9 7.9 2.3 19.6 2.5 16.7.3 18 1 18.1 9.6 0 4.8-.2 5.4-3 6.7-4 2-20.7 2.6-29.1 1.2-28.9-5.1-51-27.6-60.5-61.6-3.9-14.1-2.1-18.5 7.3-18.5 3.8 0 5 .4 6.2 2.2zM90 217.9c-1.3 2.5-1.3 21.7 0 30.1 1.8 11.3 4.6 18 11.1 26.5 3.3 4.4 6.8 9.3 7.6 10.9 3 5.7 6.5 17.3 11.3 37.8 2.7 11.4 5.6 22 6.5 23.7 2.2 4.3 4.8 5.5 8.3 3.9 4.3-2.1 4-6-1.6-21.6-8.2-22.4-12.2-44.5-13.7-74.2-.5-9.5-1.2-14.7-2.5-17.5-3.7-8.3-18.2-21.5-23.6-21.5-1.3 0-2.8.9-3.4 1.9zm322.5.3c-4.9 3.5-11.4 10-15.3 15.2l-3.6 4.9-1.3 19.1c-2.2 32.7-5.9 51.8-14.3 74.2-4.6 12.4-4.9 17.1-1.2 19 3 1.5 5.9.7 7.8-2 1.4-2.2 4.7-14.4 9.9-36.6 3.9-16.5 7.8-25.9 14.5-34.8 10.7-14.3 12.9-21 13.7-42.3.6-16.3 0-18.9-4.5-18.9-1.5 0-4 1-5.7 2.2z"/><path d="M252.3 296.4l-2.8 2.4-.5 26.4c-.3 14.4-.9 26.8-1.3 27.5-1.2 1.9-7.5 3.3-14.4 3.3-9.9 0-13.2 2.6-10.3 8.1 1.8 3.3 16 14.8 22.3 17.9 8 4 13.4 4 21.5 0 7.5-3.8 21.3-15.6 22.7-19.4 1.5-4.4-1.9-6.6-10.4-6.6-7.3 0-13.6-1.4-14.8-3.3-.4-.7-1-13.1-1.3-27.5l-.5-26.4-2.8-2.4c-1.5-1.3-3.2-2.4-3.7-2.4s-2.2 1.1-3.7 2.4zm-55.3 7.1c-1.7 2.1-.5 6.2 2.5 8.1 2.3 1.5 2.7 1.5 5 0 3-2 3.3-5.6.7-7.9-2.3-2.1-6.5-2.2-8.2-.2zm109.6.1c-2.4 2.4-2 6.1.9 8 2.3 1.5 2.7 1.5 5 0 3-1.9 4.2-6 2.5-8.1-1.6-2-6.4-1.9-8.4.1zm-114.7 90.9c-1.5.8-3.4 3.1-4.4 5.2-1 2.1-3.7 7.3-6.1 11.5-4.2 7.3-5.3 10.8-3.6 10.8 2.3 0 12.2-7 18.7-13.3 6.1-5.9 7.5-7.8 7.5-10.3 0-4.9-6.5-7-12.1-3.9zm118.5-.5c-2.9 1.2-3.6 3.6-2 6.9 1.8 3.5 12.6 13.5 18.5 17.3 4.1 2.5 8.1 3.7 8.1 2.2 0-.3-2.8-5.9-6.2-12.5-4.4-8.5-7.1-12.5-9-13.5-3-1.6-6.2-1.7-9.4-.4zm-82.8 8.1c-3.5 4.1-3.4 7.6.2 8.6 3.5 1 52.9 1 56.5 0 3.5-1 3.6-4.5.1-8.6-3.2-3.8-7.3-4.1-15.9-1-7.9 2.8-17 2.8-25.2 0-8.9-3-12.5-2.8-15.7 1zm4 29.4c-1.6 1.7-1.2 4.4.8 4.6 6.1.7 46.4.3 47.4-.4 1.7-1.3 1.5-4.4-.4-5.1-.9-.3-11.6-.6-23.9-.6-18.7 0-22.6.2-23.9 1.5z"/><path d="M197.8 433.1c-3.9 2.2-2.2 6 9.4 20.8 6.1 7.9 12.8 15.4 14.9 16.8 2 1.3 7 3.6 11 5.1 6.7 2.3 8.8 2.6 22.4 2.6 12.9.1 16-.2 22.1-2.1 11.1-3.5 15.5-7.2 27.6-22.7 11-14.1 12.3-17 9.2-20.1-3.4-3.3-6.5-1.5-13.9 8.2-10.2 13.4-12.2 15.3-16.3 15.3-1.9 0-9-.7-15.8-1.7-11.5-1.5-13.3-1.5-24.8 0-15.5 2.1-18.6 2.1-21.2-.1-1.2-.9-5.5-6.3-9.7-11.8-8.6-11.5-10.6-12.9-14.9-10.3z"/></g></svg>