<svg version="1.0" xmlns="http://www.w3.org/2000/svg" width="682.667" height="682.667" viewBox="0 0 512 512"><g fill="#f2f2f2"><path d="M178.1 41.1c-4.4 7.2-18.1 56.3-23.1 82.8s-6.3 53.8-3.5 74.1l1.4 10.5-7.4 37.7c-4.1 20.7-7.5 39.7-7.5 42.3 0 7.5 13.9 88.6 15.8 92.5 2.7 5.3 73 97.8 75.8 99.6 2.8 1.9 4.8.8 5.8-3.1.3-1.3 2.6-16.2 5.1-33 4.7-32.5 4.7-35.5.3-35.5-1.3 0-4.3.9-6.7 2-9.5 4.3-12.3 2.2-17.1-12.7-6.3-19.7-6.3-36.6 0-51.5 1.6-4 3-8 3-9 0-2.8-3.5-4.5-21.4-10.4-13.4-4.4-17.7-6.2-19.8-8.5L176 316v-25.1c0-15.3.4-25.8 1-27 1.8-3.2 4.9-2.2 14.4 5 11.9 9 27.3 19 30.2 19.7 3.4.9 5.4-.2 5.4-2.8 0-3.4-11.7-43.7-13.5-46.4-1.1-1.7-4.4-3.2-13.3-6-6.4-2-12.6-4.5-13.7-5.5-2-1.9-2-3.9-3-94.9-.7-69-1.3-93.2-2.2-94.1-.9-.9-1.6-.4-3.2 2.2zm152.2 1.1c-.4.7-1 42.3-1.3 92.4-.4 73.7-.8 91.4-1.8 92.7-1.5 1.8-5.7 3.4-18.4 7.2-6.5 1.9-9.2 3.2-10.4 5-1.8 2.8-13.4 42.7-13.4 46.3 0 2.6 2 3.7 5.4 2.8 3-.7 21.5-12.9 31.7-20.7 8-6.2 11.2-7.2 12.9-4 .6 1.2 1 11.7 1 27V316l-2.7 2.9c-2.2 2.2-6.7 4.2-19.8 8.6-18.4 6.1-21.5 7.6-21.5 10.3 0 1 1.4 5 3 9 6.3 14.9 6.3 31.8 0 51.5-4.7 14.9-8 17.3-17 12.7-5.4-2.8-8.8-2.6-10 .4-.6 1.8.4 11.4 3.5 33.4 2.4 17 4.7 32.1 5.1 33.6.8 3.3 3.3 4.8 5.7 3.4 1-.5 18.6-23.4 39.1-50.7 31.5-42 37.5-50.5 38.5-54.7 2.3-10.2 14.1-83.5 14.1-87.9 0-2.6-3.3-21.6-7.4-42.3l-7.5-37.7 1.4-11c4.4-34.6-1.9-77.7-20.1-136.2-6-19.2-7.8-22.7-10.1-19.1zM254 97.6c-3.1 8-4.3 22.9-5 60.4l-.7 38.5-6.7 19.5c-4.1 11.9-6.8 21.3-6.8 24-.1 4.2 15.8 62.5 18.3 67.2a3.3 3.3 0 005.8 0c2.5-4.7 18.4-63 18.3-67.2 0-2.7-2.7-12.1-6.8-24l-6.7-19.5-.7-38.5c-.5-28-1.2-41.1-2.4-48.1-1.8-10.8-3-14.9-4.6-14.9-.6 0-1.5 1.2-2 2.6z"/><path d="M214.5 191.1c-10.8 5.3-12.5 7.4-12.5 15 0 5.1.4 6.3 2.6 8.4 1.4 1.3 4.8 2.9 7.5 3.5 4.6 1.1 5.3 1.1 7.7-.7 2.8-2 6.9-11.8 9.3-22 2.2-9.5-1.8-10.6-14.6-4.2zm68.5-2.6c-1 1.3-1.1 2.6-.1 6.8 2.4 10.2 6.5 20 9.3 22 2.4 1.8 3.1 1.8 7.8.7 2.8-.7 6.4-2.3 7.8-3.5 2.4-2 2.7-3.1 2.7-8.3 0-7.7-1.9-9.9-13.3-15.3-8.9-4.2-12.2-4.8-14.2-2.4zm-88.7 106.2c-1.8.6-1.6 6.4.1 8.9 1.8 2.5 13.2 7.8 15.2 7 2.3-.9-.3-5.1-6.9-11.4-5.6-5.2-6.1-5.5-8.4-4.5zm115 4.5c-6 5.8-8.9 10.3-7.3 11.3 1.7 1 11-2.7 14.2-5.7 4.2-3.9 3.7-10.8-.8-10.8-.3 0-3 2.4-6.1 5.2zm-285.2 87c-3.2 9.9-4.5 47-1.9 52.6 1.8 3.8 4.4 3.8 15.6.2 11.4-3.8 14.2-5.4 14.2-8 0-1-2.7-6.7-6-12.6-3.2-5.9-8-15.5-10.6-21.3-6.4-14.7-9.2-17.4-11.3-10.9zm456.6 2c-1.4 2.9-4.6 9.8-7.2 15.3-2.5 5.5-6.6 13.4-9.1 17.6-6.9 11.8-6.5 12.5 9.8 17.9 16.2 5.2 16.8 4.6 16.8-18 0-32.5-4.2-45.8-10.3-32.8zm-392.6 7.9c-.6 1.8-1.6 7-2.2 11.8-1.8 14.1.9 17.2 9.3 10.8 4-3.1 4.3-3.7 4.2-7.8-.1-6.1-5.6-17.9-8.2-17.9-1.3 0-2.4 1.1-3.1 3.1zm327.3 4.3c-4 8.8-4.4 13.4-1.1 16.3 6.5 6 11.1 6.5 12.1 1.5.7-3.1-.9-17.1-2.5-22-1.9-5.6-4.5-4.3-8.5 4.2zM121 425.9c-6.2 2-13.5 6-17.4 9.6-3.4 3.2-3.4 6.8.2 9.3 3.3 2.4 75.5 45.3 79.9 47.6 7.5 3.8 9.4.9 4.2-6.4-10.5-14.4-46.4-58.4-49.1-60-4.1-2.5-10.4-2.5-17.8-.1zm252.3.1c-2.8 1.7-39.1 46-49.1 59.9-5.5 7.6-3.4 10.3 4.6 6.2 4.7-2.4 75.8-44.7 79.5-47.3 2.9-2.1 3.5-5.4 1.5-8-2.2-2.8-12.3-8.6-18.6-10.7-7.8-2.6-13.7-2.7-17.9-.1zM56.6 452.6c-15.4 3-32.8 10.7-35.4 15.5-2.6 5 .9 16.9 5.6 18.8 2.2.9 103.5 9.1 112.2 9.1 1.5 0 3.5-.6 4.5-1.4 1.9-1.3 1.8-1.5-1.1-4.2-3-2.8-52.3-32.9-61.1-37.3-5-2.5-13.9-2.7-24.7-.5zm371.9 1.7c-11.7 6.3-55.6 33.1-58.8 35.9-3.1 2.7-3.1 2.8-1.3 4.3 1.1.8 3.4 1.5 5.2 1.5 1.8 0 27.2-1.8 56.6-4.1 40.7-3.1 53.9-4.4 55.6-5.5 4.5-3 7.3-13.4 4.9-18.1-3.9-7.5-32.5-17.3-50.1-17.3-5 0-7.2.6-12.1 3.3z"/></g></svg>