<svg xmlns="http://www.w3.org/2000/svg" viewBox="0 0 512 512" height="682.667" width="682.667" version="1.0"><path d="M85.23 89.234c-2.499-.023-4.58.363-7.023 1.132-9.862 3.167-21.443 11.129-27.505 19-14.838 19.181-17.281 50.668-6.334 81.702 6.967 19.634 16.648 33.748 28.591 41.439 7.148 4.704 7.148 4.432 3.981 23.342-5.157 30.943-7.329 54.559-7.329 81.16v17.823l2.715 5.339c8.052 16.195 37.458 38.905 82.607 63.696 7.238 3.981 9.952 6.061 14.567 11.4 21.624 24.7 48.224 35.648 86.496 35.648 38.454 0 64.783-10.857 86.497-35.648 4.615-5.339 7.33-7.419 14.567-11.4 45.51-25.062 74.645-47.591 82.788-64.058l2.804-5.61-.543-24.7c-.543-26.6-2.263-45.15-7.058-73.65-3.167-18.91-3.166-18.638 3.982-23.342 15.29-9.862 27.686-31.577 33.295-58.63 2.715-12.758 2.624-30.673 0-40.897-5.067-19.272-15.2-31.847-32.21-39.9-8.324-3.98-12.938-4.524-22.257-2.624-16.286 3.257-30.672 9.772-48.858 21.986-8.505 5.7-13.12 8.324-14.929 8.324-1.447 0-8.324-1.99-15.29-4.434-28.682-10.043-43.34-12.123-82.788-12.123-39.357 0-54.83 2.261-83.782 12.485-6.334 2.262-12.757 4.072-14.295 4.072-1.81 0-6.334-2.533-14.93-8.324-17.914-12.033-32.482-18.639-48.225-21.896-4.117-.86-7.034-1.29-9.533-1.312zm338.397 45.985c1.973.04 3.595.597 4.638 1.742 2.986 3.348 4.073 8.325 4.163 19.182 0 16.196-3.257 31.487-7.057 32.934-3.529 1.357-8.867-5.7-17.915-23.615-2.714-5.52-5.248-11.762-5.519-13.843-.452-3.529-.272-3.98 3.528-7.69 5.788-5.528 13.119-8.812 18.162-8.71zm-335.224.02c2.624-.054 5.898.767 9.257 2.446 2.624 1.267 6.604 4.163 8.866 6.244 3.8 3.619 3.982 4.161 3.53 7.6-.272 1.99-2.715 8.233-5.52 13.843-8.958 17.914-14.386 25.061-18.005 23.614-3.8-1.448-6.966-16.557-6.966-32.843.09-10.857 1.175-15.834 4.161-19.182.99-1.108 2.637-1.679 4.677-1.721zm160.222 7.872c1.432-.002 2.874.001 4.315.01 11.53.076 23.074.525 30.02 1.325 28.382 3.298 61.761 12.393 64.46 17.59 1.599 2.798.099 4.796-9.196 12.491-30.88 25.485-51.968 52.67-71.456 91.546-11.094 22.386-10.192 22.486-22.085-1.5-18.588-37.476-40.875-65.86-71.457-90.944-10.893-8.995-12.792-11.194-11.993-13.492 1.7-4.697 34.68-13.292 61.763-16.09 6.034-.612 15.606-.919 25.629-.936zm97.777 68.203a34.005 34.005 0 0114.709 3.09c22.286 10.093 27.783 39.076 10.593 56.265-6.796 6.796-12.992 9.593-22.586 9.993-8.995.5-15.691-1.299-22.387-5.996-16.69-11.393-19.488-36.378-5.796-51.469 6.755-7.608 16.007-11.728 25.467-11.883zm-180.735.005c4.516-.049 9.871.71 13.856 2.085 18.289 6.396 28.083 28.883 20.188 46.672-2.698 6.297-10.495 14.39-16.691 17.588-7.196 3.698-19.689 4.298-27.584 1.3-14.59-5.497-23.985-20.488-22.486-35.978 1.3-14.791 12.293-27.283 27.284-31.081 1.499-.375 3.38-.564 5.433-.586zm61.84 93.46c.91 0 2.733 1.172 4.034 2.474 2.603 2.863 7.288 16.265 13.405 38.91 4.945 18.219 7.156 23.685 9.628 23.685 2.994 0 5.207-5.204 10.542-24.595 8.72-31.623 12.363-40.474 17.048-40.474.911 0 5.598 3.904 10.544 8.589 22.514 21.993 45.806 31.364 74.567 30.063 10.801-.39 16.14-1.433 25.51-4.687 18.418-6.262 20.613-5.902 19.71 9.132-13.994 10.83-32.663 22.736-55.435 35.276-7.238 3.981-9.952 6.061-14.567 11.4-21.714 24.79-48.043 35.648-86.497 35.648-38.272 0-64.872-10.948-86.496-35.649-4.615-5.338-7.33-7.418-14.568-11.4-24.964-13.707-45.104-26.776-59.494-38.462-.658-14.098 1.634-13.12 23.272-5.292 14.055 4.945 34.226 5.856 49.322 1.952 19.521-4.815 32.535-12.366 48.282-27.462 5.205-5.075 10.282-9.108 11.193-9.108z" fill="#f5f5f5"/></svg>