<svg xmlns="http://www.w3.org/2000/svg" viewBox="0 0 512 512" height="682.667" width="682.667" version="1.0"><g fill="#f2f2f2"><path d="M76.19-.373c-1.463 1.464-1.881 2.823-1.358 4.391.313 1.255 17.46 39.417 38.057 84.898 20.493 45.376 37.64 83.852 37.953 85.316.418 1.464 4.182 40.044 8.573 85.734 4.287 45.69 8.365 84.897 8.992 87.198.627 2.3 5.019 10.56 9.724 18.297 4.81 7.737 9.41 15.473 10.246 17.25.94 1.674 6.691 17.67 12.755 35.445 6.17 17.774 11.92 33.77 12.756 35.443 2.405 4.496 34.503 36.908 38.058 38.372 2.822 1.15 3.763.94 8.573-1.464 8.155-4.182 19.76-12.233 22.06-15.37 1.36-1.986 4.81-16.937 11.71-51.23 5.333-26.662 12.86-62.629 16.625-79.88 8.782-40.671 8.469-38.58 6.378-40.567-.941-1.045-2.3-1.777-3.137-1.777-2.196 0-32.934 9.41-36.176 11.082-4.286 2.196-3.973 6.065 1.046 13.174 5.123 7.11 5.96 10.142 3.868 14.01-3.136 5.96-48.408 63.674-51.126 65.242-2.51 1.36-2.928 1.36-5.437-1.046-4.391-4.182-7.842-10.978-7.842-15.578 0-2.405 4.81-21.12 10.665-41.612 8.469-29.485 11.292-37.953 13.383-40.254 4.077-4.39 16.624-9.305 50.708-19.656 37.221-11.187 35.967-10.769 39.94-14.95 4.286-4.497 41.717-59.074 43.18-62.942 3.45-8.992 21.957-79.88 21.748-83.12-.419-4.392-2.51-5.646-12.338-7.215-10.873-1.777-11.605-1.15-27.811 23.943-7.632 11.71-14.951 22.27-16.206 23.316-2.718 2.195-5.96 1.777-10.664-1.569-3.973-2.823-5.019-5.855-3.346-9.723.627-1.778 7.005-12.128 14.115-23.002 15.16-23.525 17.147-27.498 16.206-32.83-1.778-10.142-19.552-93.575-20.388-95.667-2.3-6.064.418-5.855-74.547-5.855-45.481 0-69.528.419-70.888 1.046-1.254.732-1.986 2.196-1.986 4.391 0 1.882 6.9 19.447 16.31 41.508 10.978 25.616 16.52 39.94 16.938 43.39l.523 5.123-27.916 27.602c-23.838 23.525-28.23 27.498-30.948 27.498-2.091 0-3.555-.837-4.705-2.405-.836-1.36-14.951-32.098-31.366-68.273C92.187-3.928 94.592.88 90.933-1c-4.496-2.3-12.128-1.987-14.742.627zM282.58 40.09c2.823 3.032 32.307 69.529 32.83 73.92.418 3.555-.628 7.214-6.483 21.433-7.946 19.761-9.2 21.957-12.023 21.957-2.928 0-4.81-2.3-21.643-27.08-12.128-17.774-15.37-23.21-15.683-26.66-.418-3.242 1.36-10.875 7.423-31.89 8.05-27.497 9.306-31.366 11.501-32.725 1.673-1.15 2.196-1.046 4.078 1.045zm-52.8 109.468c6.482 8.574 12.86 17.774 14.115 20.179l2.3 4.6-2.823 2.405c-1.568 1.36-7.423 3.869-13.07 5.75-20.178 6.692-22.792 8.47-20.073 13.802.627 1.359 12.337 13.696 25.929 27.497 30.32 30.635 31.47 31.994 31.47 36.49 0 5.332-3.031 12.86-6.377 15.683-3.346 2.823-17.67 7.946-22.166 7.946-1.986 0-4.286-1.255-7.005-3.973-5.855-5.646-54.263-62.942-56.04-66.392-.941-1.673-2.3-10.246-3.242-19.97-1.359-13.8-1.463-17.774-.418-20.179.732-1.777 9.62-11.5 19.865-21.642 23.943-23.838 21.33-23.63 37.535-2.196zm-30.739 122.328c21.33 24.78 21.538 25.197 21.538 30.111-.104 5.228-13.592 52.8-16.1 56.669-.942 1.463-2.406 2.613-3.242 2.613-3.45 0-13.383-15.996-14.533-23.524-1.255-8.155-6.9-69.633-6.9-75.07 0-11.187 3.032-9.723 19.237 9.201z"/><path d="M360.681-.477c-1.15 1.15-2.09 3.032-2.09 4.077 0 3.137 17.564 85.943 18.924 89.289 1.568 3.869 5.018 5.437 14.846 7.005 9.62 1.568 12.547.732 14.847-4.391 2.3-5.228 24.57-88.139 24.57-91.694 0-6.168-1.15-6.378-36.803-6.378-30.843 0-32.307.105-34.294 2.092z"/></g></svg>