<svg xmlns="http://www.w3.org/2000/svg" version="1.0" width="682.667" height="682.667" viewBox="0 0 512 512"><g fill="#f2f2f2"><path d="M394.224 81.046c-4.2 2.234-5.718 4.021-6.79 7.685-2.145 6.969 1.608 13.849 8.845 16.082 3.128.894 4.29.805 7.774-.446 12.687-4.915 10.275-22.963-3.217-24.393-2.591-.178-4.825.179-6.612 1.072zm-131.79 4.825c-10.097 3.128-14.028 9.382-11.169 17.96 2.055 6.075 8.042 12.42 15.458 16.35 8.041 4.29 9.47 5.898 8.845 10.097-.714 4.11-11.883 24.66-17.602 32.523-7.773 10.543-11.258 13.045-28.145 20.461-57.273 25.197-87.473 57.81-94.8 102.663-1.697 10.364-1.876 30.915-.357 43.513 2.591 21.801 12.599 60.132 16.887 64.957 2.68 2.948 3.664 3.127 41.19 5.807 27.252 1.877 86.848 2.234 92.566.447 4.11-1.161 5.272-2.948 3.932-5.629-2.77-5.093-26.358-11.258-50.75-13.313-6.076-.536-11.795-1.34-12.688-1.787-2.502-1.34-2.949-3.842-2.234-14.206 1.161-17.96-2.412-38.51-8.667-50.393-4.11-7.684-11.883-14.386-19.12-16.709-3.217-.983-8.22-1.787-11.08-1.787-6.254 0-8.756-1.697-9.56-6.433-1.34-8.399 2.59-10.543 16.082-8.845 18.764 2.412 30.29 10.99 39.046 29.127 5.54 11.437 7.774 20.819 9.203 38.242.804 10.186 1.52 14.385 2.502 15.368 2.055 2.055 16.887 3.753 20.372 2.323 2.948-1.25 6.165-5.897 15.368-21.89 10.186-17.87 16.44-32.881 19.12-45.747 2.055-10.007 1.609-10.633-9.828-15.905-10.543-4.824-16.53-10.275-18.227-16.261-1.34-4.914-1.251-15.19.357-22.874 2.413-11.615 9.74-23.856 13.403-22.516 2.233.894 2.412 3.664 1.25 19.032-.625 8.22-.804 15.993-.446 17.334.893 3.842 5.45 8.22 11.079 10.721 2.86 1.34 12.24 4.2 20.818 6.434 19.032 5.093 24.303 7.326 29.932 13.045 2.324 2.412 4.825 4.378 5.45 4.378 2.056 0 3.843-3.932 3.843-8.488-.09-10.99-7.327-18.942-26.716-29.128-9.56-5.004-10.364-6.612-9.56-18.406 1.25-18.138 6.254-30.826 20.729-52.716 8.756-13.403 11.973-19.032 11.973-21.087 0-2.502-2.949-3.753-10.186-4.2-8.22-.535-9.203-1.518-6.344-6.88 3.574-6.611 12.51-9.917 22.516-8.309 7.416 1.251 7.684 1.072 18.049-11.704 9.65-11.795 9.918-12.688 4.11-19.479-5.004-5.897-6.612-8.845-8.399-15.636-2.234-8.399-3.217-8.756-21.712-9.292-17.96-.447-28.145.893-38.867 5.182-3.663 1.52-7.773 2.68-9.024 2.68-1.34 0-4.825-1.608-7.774-3.573-2.948-1.966-7.326-4.2-9.739-4.915-4.646-1.43-17.155-1.697-21.086-.536zm58.881 22.516c10.186 5.093 11.437 7.059 5.897 9.382-6.433 2.68-16.083.983-18.316-3.127-1.966-3.753-.18-10.811 2.77-10.811.357 0 4.735 2.055 9.65 4.556z"/><path d="M113.22 380.01c-14.563 3.305-24.66 7.326-30.378 12.151-7.595 6.344-13.403 19.746-13.403 31.004 0 12.33 6.076 19.925 23.052 28.503 17.066 8.667 30.558 12.151 49.857 12.866 23.41.894 39.135-2.144 77.198-14.921 35.293-11.884 41.726-13.403 58.524-14.028 20.64-.715 31.987 2.412 35.65 9.828 3.664 7.595-1.072 14.117-16.887 23.052-10.185 5.719-12.062 7.774-9.65 10.186 4.11 4.2 29.486-2.77 36.098-10.007 7.148-7.595 9.828-22.605 5.629-30.736-2.949-5.808-14.743-12.956-25.465-15.547-13.849-3.216-38.956-.983-65.582 5.897a17481.88 17481.88 0 01-33.953 8.756c-22.159 5.719-31.183 7.238-46.908 7.863-27.252 1.072-52.002-6.076-57.988-16.619-6.433-11.526 2.591-22.426 23.141-27.966 9.829-2.591 10.812-4.02 8.667-12.152-1.787-6.79-4.378-10.007-7.684-9.917-1.25 0-5.718.804-9.918 1.787z"/></g></svg>