<svg xmlns="http://www.w3.org/2000/svg" version="1.0" width="682.667" height="682.667" viewBox="0 0 512 512"><g fill="#f2f2f2"><path d="M-2.864 64.988c-1.27 1.814-14.105 23.032-1.452 202.839v200.752l30.522 2.177c2.087 2.177 2.54 2.268 16.057 2.268 18.052 0 18.869-.363 24.04-10.886 2.086-4.263 4.989-12.155 6.44-17.598 1.542-5.353 3.357-10.433 4.173-11.249 1.089-1.089 4.99-1.724 16.601-2.63 25.219-1.906 37.556-5.262 38.191-10.342.182-1.905-1.27-4.082-7.892-11.158-15.059-16.238-28.666-35.651-36.921-52.524-4.082-8.437-4.99-12.428-2.722-12.428.726 0 7.258 5.533 14.515 12.337 9.525 8.89 15.512 15.33 21.136 22.95 19.686 26.49 43.362 46.266 72.391 60.417 22.588 11.067 42.001 17.236 68.762 21.772 19.232 3.266 19.685 3.175 25.4-2.177 5.715-5.262 7.802-6.441 11.703-6.441 3.9 0 7.801 2.45 11.974 7.53 1.814 2.267 4.626 4.535 6.169 5.08 3.537 1.27 12.79 1.27 26.126 0 25.309-2.269 41.366-7.802 51.889-17.872 6.44-6.078 9.525-12.337 10.885-21.862 1.815-12.519-2.086-22.95-12.972-34.835-6.713-7.347-11.067-9.978-19.322-11.883-19.867-4.627-40.187-15.059-54.883-28.303-5.715-5.171-13.607-14.878-18.415-22.951-3.084-5.08-4.082-5.897-9.525-8.437-15.694-6.985-24.402-17.961-32.476-40.64-7.802-21.953-34.381-66.04-57.241-94.797-10.795-13.517-32.295-34.926-37.647-37.556-3.992-1.815-4.445-1.905-8.164-.545-5.897 1.996-8.528 1.724-10.705-.998-2.721-3.447-7.348-18.778-12.337-40.186-5.897-25.673-7.62-30.027-11.702-30.027-2.994 0-6.985 3.538-11.43 10.16-10.16 15.24-9.616 32.748 1.905 58.965 4.082 9.253 4.354 12.519 1.542 15.24-2.722 2.54-5.352 3.084-10.795 2.359-4.083-.545-4.718-.363-7.076 1.905-1.36 1.36-4.173 5.533-6.35 9.071-11.249 19.413-18.052 42.364-20.139 68.218-1.088 13.88-1.27 14.605-3.991 14.605-2.903 0-11.158-9.253-11.884-13.426-1.27-6.894 2.903-30.48 8.346-46.9 5.806-17.78 13.788-32.748 24.856-47.262 5.17-6.804 5.443-8.255 2.721-18.506-.998-3.72-1.996-9.888-2.358-13.607-.817-11.158-1.18-12.61-4.718-16.51-8.527-9.435-30.117-25.854-42.636-32.295-8.255-4.354-38.596-4.626-40.591-1.814zm229.914 254.91c7.438 2.267 20.773 9.161 25.581 13.244 5.806 4.989 4.627 9.252-4.717 17.417-8.527 7.53-9.706 8.164-15.24 8.164-9.344 0-14.787-5.806-14.696-15.694 0-3.084-.272-6.077-.635-6.712-1.18-1.905-5.352-2.903-10.523-2.359-5.806.635-8.708-.726-11.067-5.262-2.722-5.352.272-8.98 8.98-10.795 5.262-1.088 15.15-.272 22.317 1.996zm142.332 91.259c1.632 1.995.907 8.799-1.089 10.976-.816.907-3.447 2.45-5.806 3.266-2.358.907-6.26 3.084-8.708 4.808-5.625 4.173-8.709 4.173-12.791.181-1.724-1.723-3.175-3.81-3.175-4.717 0-2.63 6.713-9.253 12.61-12.337 8.98-4.808 16.328-5.625 18.959-2.177z"/><path d="M414.195 67.981c-1.089 2.359-2.903 11.703-10.16 52.162-20.593 114.845-41.638 163.65-81.916 189.775-4.808 3.176-7.166 5.353-7.62 6.895-1.996 7.983 19.867 29.12 40.096 38.644 8.709 4.173 21.137 7.983 23.495 7.258 4.445-1.361 7.257-5.897 14.787-24.221 31.75-77.29 43.906-184.787 29.21-257.722-2.903-14.242-5.352-18.324-7.892-12.79zM182.78 85.036c-1.904 2.358-3.81 8.164-6.984 21.136-4.445 18.416-4.99 21.772-4.083 24.221 1.089 2.812 19.686 18.778 21.863 18.778 2.45 0 4.173-2.086 6.35-7.892 7.892-20.955 5.352-39.552-7.257-52.977-4.355-4.627-7.802-5.716-9.888-3.266zm140.79 134.167c-.544.635-3.356 6.35-6.35 12.61-9.706 20.32-19.413 32.748-32.113 41.275-3.356 2.177-6.531 4.627-7.166 5.352-3.9 4.718 8.164 22.68 16.42 24.403 7.62 1.451 28.03-10.342 31.387-18.234 5.17-12.61 6.894-49.893 2.812-62.412-1.18-3.72-3.357-4.99-4.99-2.994z"/></g></svg>