<svg xmlns="http://www.w3.org/2000/svg" viewBox="0 0 512 512" height="682.667" width="682.667" version="1.0"><path d="M246.292 32.863c-22.29-2.946-50.695 9.124-71.351 30.197-3.22 3.198-9.918 11.108-14.868 17.563-12.79 16.509-20.458 23.695-31.21 28.93-11.69 5.75-21.281 6.674-32.8 2.941-4.587-1.447-8.623-2.32-9.503-1.973-1.19.425-2.04 2.012-3.16 5.676-2.177 7.161-.758 9.274 8.493 12.481 20.794 7.138 45.638-.25 66.007-19.724 2.76-2.701 7.925-8.701 11.486-13.384 21.654-28.37 38.247-40.97 59.93-45.329 13.74-2.751 28.05.844 36.152 9.122 10.03 10.289 14.243 25.495 13.153 47.88-.263 4.443.014 8.7.475 9.525 1.36 2.281 8.257 3.608 11.61 2.159 3.351-1.45 3.89-2.959 4.552-13.023.65-10.824-.85-25.157-3.702-34.113-6.836-21.623-23.758-36.167-45.264-38.928zm138.591 49.366c-20.691-2.66-43.373 8.996-59.964 30.859-7.008 9.311-8.187 11.82-6.894 14.55 1.618 3.412 6.534 6.584 9.635 6.367 2.143-.18 3.466-1.503 8.158-7.767 12.719-17.101 25.774-26.145 39.795-27.567 7.364-.774 17.41 2.056 23.788 6.694 13.006 9.367 21.666 24.553 25.682 45.076 1.828 9.44 2.4 19.756 1.811 37.029-1.1 30.886 8.832 55.221 27.91 69.022 5.352 3.8 15.46 7.786 19.602 7.563 3.55-.15 6.723-3.743 7.494-8.287.657-4.49-.444-5.64-9.018-8.889-9.161-3.458-13.784-7.187-19.24-15.466-7.888-11.792-10.855-25.986-10.045-48.378.892-25.007-1.968-42.944-9.474-59.514-11.033-24.16-28.183-38.597-49.24-41.292zm-95.066 54.809c-22.757-3.491-45.427 6.278-58.21 25.152-4.125 5.994-8.69 18.256-9.305 24.746-.573 5.844 1.343 9.74 8.428 16.9 14.474 14.52 33.011 24.538 52.775 28.473 16.513 3.247 35.072 2.878 41.627-.925 6.016-3.618 13.442-22.042 13.876-34.644.999-28.75-20.961-55.392-49.19-59.702zm-72.422 83.774c-2.945 2.162-8.134 9.287-14.897 20.293-7.086 11.646-15.217 31.519-18.4 44.936-7.799 33.505-5.288 69.366 7.551 108.063 7.435 22.593 9.525 24.945 17.834 20.728 23.245-11.644 53.347-36.15 69.4-56.503 14.143-17.916 25.124-39.417 30.244-59.325 4.498-17.106 7.104-37.911 5.564-43.658-.893-3.06-3.354-3.843-12.694-4.152-4.107-.143-10.261-.639-13.77-1.135l-45.385-15.819c-2.586-1.49-7.916-5.093-11.933-8.133-8.815-6.548-10.91-7.296-13.514-5.295zm-88.855-32.134c-1.143.396-7.047 5.324-13.192 11.008-7.096 6.533-12.097 10.498-13.746 10.881-2.106.486-5.324-.322-15.715-3.887-12.524-4.32-15.646-4.9-17.52-3.282-1.72 1.395-3.368 8.394-2.631 10.86.715 2.27 1.14 2.533 15.458 8.133 18.107 7.012 22.432 8.07 25.655 5.95 1.279-.814 6.645-5.39 11.813-10.139 6.891-6.425 10.093-8.743 12.043-9.007 2.455-.252 4.255.747 25.125 15.284 12.342 8.594 22.917 15.823 23.519 16.063.526.21 2.176-.174 3.53-.959 3.34-1.695 5.714-8.311 4.182-11.472-.656-1.395-9.747-8.224-27.2-20.456-14.411-10.079-26.856-18.619-27.683-18.948-.827-.329-2.445-.31-3.637-.029zm-10.936 58.777c-1.07.425-7.144 6.42-13.617 13.39-9.335 10.085-12.214 12.72-14.395 13.175-1.547.33-8.784-.375-16.091-1.39-7.382-1.046-14.291-1.715-15.436-1.32-1.751.438-2.374 1.324-3.421 4.593-1.638 5.113-.605 9.304 2.554 10.56 3.987 1.586 35.89 5.768 38.253 5.008 1.397-.39 6.694-5.277 13.268-12.301 6.446-6.887 11.769-11.857 13.063-12.193 1.854-.491 4.814.592 21.573 8.107 10.923 4.816 20.627 8.676 22.088 8.879 1.891.185 3.062-.294 3.846-1.684 1.644-2.748 2.642-8.777 1.771-10.824-.919-2.162-9.075-6.35-32.932-16.594-16.011-6.934-18.896-7.987-20.524-7.406zm23.599 65.329a4086.12 4086.12 0 01-20.69-3.976c-8.683-1.752-9.757-1.045-21.471 14.614-5.366 7.222-10.517 13.773-11.543 14.593-2.079 1.725-7.07 2.48-23.687 3.527-13.86.913-15.467 1.692-15.729 7.541-.214 4.64 1.114 7.909 3.747 8.956 2.633 1.047 38.778-1.4 41.534-2.855 2.041-1.078 3.384-2.623 16.081-19.498 4.405-5.808 7.058-8.533 8.761-9.084 1.73-.635 7.677.124 20.765 2.683 20.589 4.03 23.237 4.232 25.015 2.388 1.725-1.677 2.196-7.915.89-10.986-1.306-3.071-5.825-4.585-23.673-7.903zm220.303-31.297c-32.264-3.932-32.793-3.943-34.244 2.07-1.187 4.783-.252 8.112 2.586 9.117 1.26.447 12.819 2.16 25.65 3.794 19.8 2.515 23.622 3.252 25.497 4.71 1.797 1.43 2.613 4.1 4.89 15.314 1.483 7.492 3.162 14.437 3.748 15.527 1.504 2.737 7.033 5.401 24.08 11.616 14.949 5.383 15.45 5.472 17.38 4.304 1.368-.839 2.516-2.549 3.388-4.974 2.25-6.258 1.187-7.253-14.46-13.412-10.106-4.02-13.591-5.696-15.247-7.517-1.762-1.77-2.827-5.235-5.098-16.71-1.579-7.968-3.252-15.176-3.709-16.131-1.571-3.29-5.68-4.217-34.46-7.708zm-27.868 43.398c-12.493-3.808-13.23-3.98-15.718-2.745-2.111.928-2.955 2.04-4.244 5.376-2.52 6.515-2.807 6.326 20.118 13.74 18.22 5.924 19.638 6.427 20.787 8.421.743 1.146 2.141 8.873 3.129 17.248 1.1 9.297 2.44 15.946 3.314 17.225 1.464 2.107 29.83 20.092 33.93 21.543 3.231 1.145 5.916-.638 8.082-5.427 1.666-3.643 1.733-4.325.444-5.928-.772-1.067-6.876-5.346-13.643-9.507-6.661-4.211-12.973-8.652-14.032-9.909-1.47-1.843-2.236-5.643-3.585-18.203-.874-8.688-2.182-16.913-2.87-18.214-1.12-2.073-1.93-2.537-11.919-5.898-5.911-2.094-16.586-5.522-23.793-7.722zM292.95 362.42c-2.758 1.492-6.106 5.863-6.1 8.07-.033 2.81 2.078 4.352 18.22 13.333 10.569 5.948 15.557 9.126 16.582 10.724 1.053 1.52 1.584 5.235 1.619 12.303.325 19.606.5 22.579 1.514 24.702 1.268 2.653 29.073 28.377 31.674 29.298.946.335 2.556.553 3.513.363 2.15-.297 6.845-5.69 6.945-7.947.079-2.442-1.42-4.207-11.65-13.564-12.101-11.077-15.052-14.239-15.632-16.826-.293-1.162-.526-8.917-.59-17.142-.133-16.187-.325-18.371-2.465-21.07-1.363-1.893-34.11-20.548-38.918-22.25-1.813-.643-3.507-.626-4.712.006zm-130.235 7.372c-4.04 4.7-9.302 34.007-9.31 51.77.039 10.22 1.416 14.303 4.985 14.632 3.09.346 21.82-5.537 24.06-7.573 2.783-2.504 2.47-5.072-2.31-17.362-2.456-6.358-5.949-16.96-7.836-23.587-5.267-18.606-5.345-18.917-6.686-19.396-.67-.24-1.952.438-2.903 1.516zm88.622 38.714c-1.311.761-6.705 4.223-12.044 7.798-5.34 3.576-14.038 8.882-19.168 11.87-9.859 5.649-12.05 8.08-10.612 11.995.959 2.61 9.367 15.061 11.248 16.677 3.263 2.771 5.508 1.777 10.2-4.487 5.674-7.425 16.566-24.706 21.079-33.112 5.074-9.718 4.876-13.664-.703-10.74z" fill="#f2f2f2"/></svg>