<svg xmlns="http://www.w3.org/2000/svg" viewBox="0 0 512 512" height="682.667" width="682.667" version="1.0"><g fill="#f2f2f2"><path d="M263.811 67.991c-.466 1.026-1.586 4.665-2.425 8.21-1.68 7.371-3.453 10.543-5.972 10.543-.933 0-4.571-2.332-8.117-5.131-3.825-3.08-7.09-5.038-8.21-4.945-1.68.28-1.866.84-1.586 5.038.466 7.464-.747 7.93-11.756 4.292-5.038-1.68-9.796-2.986-10.636-2.986-4.012 0-1.306 4.105 10.45 15.675 13.528 13.342 13.901 14.181 9.423 20.432-8.77 12.13-10.45 25.378-4.572 37.507 2.986 6.344 10.823 13.528 17.26 15.954 8.118 3.172 17.727 2.986 25.005-.373 7.277-3.266 13.622-9.61 16.98-16.794 2.24-4.945 2.613-6.81 2.613-14.088 0-9.703-2.053-15.301-8.77-23.325-2.146-2.613-3.826-5.598-3.826-6.904 0-1.213 2.52-6.718 5.505-12.13 8.117-14.554 9.05-16.7 7.744-18.006-.933-.933-2.52-.467-7.184 1.866-9.703 4.758-12.13 3.825-14.462-5.412-2.425-9.89-5.224-13.435-7.464-9.423z"/><path d="M110.333 95.141c-1.493.373-5.038 1.68-7.744 2.893-4.758 2.052-5.131 2.145-13.995.933-4.945-.654-12.222-1.4-16.234-1.68l-7.09-.466-1.494 2.799c-1.959 3.732-1.959 9.89 0 11.755 1.493 1.587 2.146 1.773 11.476 3.64 6.531 1.212 8.77 3.171 6.998 5.97-.56.933-7.837 6.531-16.141 12.503-16.234 11.662-19.686 14.554-19.686 16.327 0 2.053 2.892 2.24 11.849.746 6.717-1.12 9.423-1.306 11.102-.466 2.706 1.213 2.706 2.426.653 13.155-2.425 12.969-.56 14.182 9.61 6.065 9.797-7.744 11.01-7.371 19.127 6.437 3.545 6.158 5.225 7.278 6.997 4.759 1.027-1.4 1.307-6.625 1.307-22.859 0-24.071-.094-23.885 7.464-24.258 7.837-.466 8.21-.28 17.167 8.304 9.983 9.517 16.42 14.088 27.616 19.686 13.156 6.531 13.622 7.744 6.438 15.395-6.997 7.37-6.53 8.49 5.691 12.595 12.316 4.199 15.675 5.971 25.098 13.155 12.13 9.144 23.978 24.165 31.442 39.84 4.572 9.61 9.703 25.377 9.703 29.762 0 4.572-1.492 5.971-8.677 8.677-7.65 2.892-8.117 4.199-4.758 15.581 2.52 8.49 2.706 10.263 2.706 25.005 0 11.942-.373 17.726-1.68 23.324-4.291 18.94-10.262 34.708-25.19 66.71-6.252 13.528-9.144 20.712-9.61 24.258-.747 6.064-1.213 6.997-11.29 19.406-5.224 6.438-7.744 10.263-7.744 11.943 0 2.146.28 2.332 2.613 1.866 1.4-.374 5.598-2.053 9.423-3.826 7.37-3.545 10.45-4.012 12.13-1.959.652.746 1.492 5.598 1.865 10.823.373 5.131 1.213 9.89 1.773 10.45 1.773 1.772 4.292-.187 9.703-7.185 6.998-9.05 8.024-9.05 17.447-.093 12.13 11.57 13.062 9.797 7.09-14.182-2.332-9.423-4.198-17.913-4.198-18.94 0-1.026 1.027-3.638 2.24-5.784 1.772-3.266 2.332-6.251 3.358-17.447 1.307-16.7 4.012-33.122 10.73-66.243 4.572-22.485 6.624-29.856 8.49-29.856 2.24 0 7.464 30.976 9.797 57.846 1.213 13.902.653 36.947-1.12 49.635-.933 6.625-.933 9.05.093 13.25 1.213 4.944 1.12 5.597-2.705 19.405-6.158 22.766-5.132 25.005 6.624 13.809 3.732-3.546 7.557-6.718 8.397-7.091 2.519-.746 4.292.653 9.517 7.65 3.638 4.852 5.318 6.438 7.09 6.438 2.706 0 3.546-2.239 3.639-10.356.093-6.904 1.493-11.29 3.919-12.036 1.026-.373 4.758.747 9.143 2.706 4.012 1.866 8.677 3.639 10.263 3.919 2.426.466 2.892.28 2.892-1.213 0-2.146-1.306-4.105-10.076-15.022l-6.998-8.676-.653-7.651c-.466-5.225-2.705-14.928-7.277-30.602-11.383-39.466-15.115-59.246-15.115-80.612 0-12.502.747-19.313 3.452-30.975 1.4-6.158 1.4-6.811 0-9.05-.84-1.213-4.198-3.732-7.37-5.412-5.692-2.985-5.878-3.172-6.158-6.997-.56-7.184 9.89-28.736 21.272-44.038 12.41-16.794 24.818-27.243 41.705-35.174 10.916-5.224 11.57-5.97 10.543-11.102-1.026-4.572.373-6.625 7.278-10.637 11.849-6.904 19.406-13.715 27.803-25.004 7.184-9.61 9.983-11.103 15.674-8.583 2.893 1.399 4.385 5.131 7.558 19.5 3.452 15.02 5.038 20.152 6.717 21.551 2.146 1.866 3.452-.56 5.412-9.61 1.866-8.956 3.452-11.942 6.344-11.942 1.12 0 5.225 2.146 9.05 4.665 11.196 7.464 13.809 6.158 10.45-5.225-3.639-12.222-2.706-13.808 8.77-15.3 7.65-1.027 12.502-2.52 12.502-3.733 0-1.586-4.851-4.571-11.942-7.464-15.022-6.158-18.847-8.21-18.847-10.17 0-2.425 1.12-2.705 18.847-5.224 10.636-1.493 15.3-2.613 16.607-3.732 3.639-3.266 1.586-13.622-2.892-14.742-1.12-.28-11.756.653-23.605 2.24-27.057 3.358-27.71 3.358-33.308 0-11.01-6.811-21.273-5.785-29.763 3.172-1.772 1.866-4.292 4.012-5.598 4.665-1.306.653-14.555 2.799-29.39 4.665-30.602 3.825-33.587 4.478-34.987 6.997-1.4 2.52.373 8.864 3.266 11.756 2.612 2.612 3.265 2.612 16.327.84 19.127-2.613 21.74-1.773 16.328 5.691-1.773 2.52-4.945 6.998-6.998 9.89-4.571 6.437-5.691 7.184-10.636 6.624-3.825-.466-4.198-.187-12.782 7.277-4.852 4.199-12.036 10.73-15.954 14.462-12.316 11.662-22.765 16.234-37.04 16.234-8.957 0-15.488-1.493-23.325-5.225-6.251-2.985-19.034-15.58-27.99-27.43-8.304-11.102-9.424-11.476-17.354-6.158-1.96 1.307-4.105 2.426-4.852 2.426-1.68 0-5.038-3.452-13.342-13.435-7.464-9.143-8.583-10.916-7.277-12.409 1.306-1.68 3.545-1.586 22.019 1.026 10.916 1.587 16.887 2.053 18.38 1.493 2.892-1.12 5.225-4.665 5.785-9.05.84-6.438.653-6.53-37.694-12.036-18.94-2.705-35.64-5.224-37.32-5.504-1.679-.28-5.318-2.426-8.21-4.852-2.892-2.332-7.184-4.851-9.517-5.505-4.758-1.399-5.131-1.492-9.143-.373z"/></g></svg>