<svg xmlns="http://www.w3.org/2000/svg" version="1.0" width="682.667" height="682.667" viewBox="0 0 512 512"><path d="M245.766 23.9c-15.3 4.9-28.1 17.4-36.2 35.3-6.2 13.8-7.1 18.4-7.1 37.8.1 16.4.3 18 2.9 26 1.5 4.7 4.6 11.8 6.7 15.9 5.6 10.4 5.2 11.5-4.5 16.5-34.7 17.6-51 65.1-53.2 155.1-.5 19.9-.4 24.3.8 25.8 1.9 2.5 8.9 3.8 16.1 3 7.3-.7 8.5-2.4 5.4-7.9-1.8-3.3-2.2-5.9-2.5-16.6-.5-14.8 1.2-42.6 3.4-58.3 3-20.5 10.9-46.9 15.3-50.9 1.7-1.5 1.9-1.5 3.2 0 1.2 1.4 1.3 12.7 1.1 69.8l-.4 68.1 5.1 68c2.8 37.4 5.3 69.9 5.6 72.1 1.1 7.7 1.7 7.9 26.9 7.8 22.5-.1 29.6-.7 29.6-2.5 0-1.4-4.3-2.8-17-5.5-14.7-3.1-17.5-4.4-18.9-8.6-1.8-5.8-7-59.1-10.3-106.8-2-29.1-1.7-119.3.5-145 2.1-25 4.6-45.5 5.7-48.6 1.2-3.1 4.5-6 11.7-10 5.7-3.2 8.3-5.7 8.3-8.2 0-.5-2-3.8-4.4-7.3-8.7-12.8-12.9-23.9-14.5-39.1-2.6-23.3 4.5-47 18.6-61.9 8.5-9 17.2-13.4 29.3-15.1 10.3-1.3 11.5-2.2 7.6-5.3-6.7-5.3-23.7-7.1-34.8-3.6zm80.9 181.8c-.3.5-.8 2.8-1.1 5.3-.8 6.1.9 123.1 1.8 125.2 1.8 4.1 15.7 5.1 19.4 1.4 4.5-4.5 1.5-63.6-4.9-95.6-4.5-22.7-12.3-41.1-15.2-36.3z" fill="#f2f2f2"/></svg>