<svg version="1.0" xmlns="http://www.w3.org/2000/svg" width="682.667" height="682.667" viewBox="0 0 512 512"><g fill="#f2f2f2"><path d="M268.1 21.8c-.6 1.2-.2 4.8 1.5 11.7 6.2 25.7-.1 38.6-22.4 45.9-4.3 1.4-15.6 4.5-25.3 7-20.2 5.1-30.2 8.7-39.7 14.4-9.5 5.8-16.3 12.1-22.1 20.7-9.3 14-13.7 29.2-15.1 53.2-.5 7.9-1.1 14.7-1.5 15.3-3 4.9-11.7-6.1-17.5-22-4-10.8-6-23-6-35.9 0-13.3 1.1-20.7 5.7-39.9 2.8-11.4 3.4-15.5 2.5-16.4-1.8-1.8-7.4 3.2-16 14.3-75.1 97.2-71.4 248.1 8.2 340.6 22.1 25.7 54.8 48.3 84.6 58.4 16.5 5.7 28.3 7.4 50.5 7.3 21.4 0 30.5-1.1 46.9-5.9 16.4-4.7 38.2-15.9 54.6-27.8 45-32.9 78.4-87.5 91-149.1 4-19.5 5.3-34.1 5.4-58.1 0-30.9-3.1-53.5-11-80.7-9.6-32.9-28.8-69.9-46.2-88.8-9.2-10.1-10.8-7.7-7.6 12 2.1 13.7 3 39 1.5 47.5-4.1 23.4-17.3 30.2-38.4 19.7-14.6-7.3-24.4-16.7-26.8-25.6-1.6-6.1-.4-12.4 5.4-26.4 5.2-12.7 5.2-12.7 5.2-23.7 0-10.4-.2-11.3-3.3-17.5-3.9-7.8-11.5-16.9-20.8-25.1-11-9.6-37.6-26.9-41.3-26.9-.6 0-1.5.8-2 1.8zM281 163.4c53.2 11.4 94 53.6 102.5 105.9.8 5.1 1.5 14.6 1.5 21.3 0 22-4.4 39.5-15.6 61.8l-6.4 12.9v14.1c0 16.6-1.5 23.7-6.5 31.3-4.6 7-11.9 11.7-22 14.3-4.4 1.1-8.6 2.7-9.5 3.5-1 1.1-1.7 4.7-2.1 11.9-1.1 16.8-6.9 26.5-19.7 32.8l-6.7 3.3-35 .3c-44.7.4-49.1-.3-59.2-10.4-6.8-6.8-9.4-13.5-10.2-26.1-.6-9.4-.9-10.7-3-12.4-1.3-1-3.1-1.9-4-1.9-.9 0-4.4-.7-7.6-1.5-12.1-3.1-21.9-12.9-25-25-1-3.8-1.5-10.5-1.5-18.7v-12.7l-4-7.3c-15.9-28.9-20.7-47.4-19.7-75.7.4-12 1.1-17.9 3-25.6 13.1-51.9 55.6-90 108.9-97.5 9-1.3 33-.4 41.8 1.4z"/><path d="M198.9 319.4c-8.9 3.2-14.6 8.8-18 17.7-5.1 13.4 1.1 29.1 14.3 36.1 3.5 1.8 5.9 2.3 12.8 2.3 7.7 0 9-.3 14-3.1 17.1-9.6 20.3-32.2 6.6-46-3.4-3.3-6.8-5.6-10-6.7-5.8-2-14.6-2.1-19.7-.3zm93.4.2c-6.2 2.3-13.6 9.4-16.3 15.6-8.4 19.1 5.7 40.8 26.5 40.8 11.2 0 22-7 26.6-17.2 3.2-7.3 3.2-17.4 0-23.8-3-5.8-8.5-11.6-13.6-14.3-5.3-2.7-17.3-3.3-23.2-1.1zm-40 59.9c-4.3 1.8-6.2 6-7.9 16.9-3.1 20.4-2.4 21.6 12.6 21.6 14.9 0 15.7-1.3 12.6-21.5-1.6-11-3.6-15.2-8.1-17.1-4.2-1.7-5.1-1.7-9.2.1z"/></g></svg>