<svg version="1.0" xmlns="http://www.w3.org/2000/svg" width="682.667" height="682.667" viewBox="0 0 512 512"><g fill="#f2f2f2"><path d="M255.3 19.4c-22 4.2-41 14.1-54.6 28.6-24.8 26.2-26 61.2-2.9 86.1 6.6 7.1 14 12.8 22.2 16.9 2.7 1.3 8.8 6.7 15.2 13.3l10.6 11 11.4-.7c6.2-.4 21.1-1.5 33.2-2.5 18.3-1.6 22.2-2.2 24.5-3.8 1.7-1.3 4-5.5 6.8-12.2 4-9.9 4.4-10.5 14.5-20.4 11.6-11.3 16.3-18.3 20.4-30.2 3.4-10.1 3.9-24.5 1-34-7.1-23.8-27.8-42.3-55.9-50.1-11.5-3.2-34.8-4.2-46.4-2zm73.2 49.5c8.3 3.9 13.6 12.3 13.6 21.6 0 9.7-4.6 16.9-13.6 21.1-13.9 6.6-30.1-2.1-33-17.9-1-4.9 1.1-12.8 4.5-17.5 5.9-8.2 19.3-11.6 28.5-7.3zm-85.8 10c14.2 7.2 17.6 24.7 7.1 36.5-14 16-40.7 5.9-40.8-15.5 0-17.4 18.3-28.9 33.7-21zm35.3 40.3c3.8 4 16.2 25.6 15.8 27.5-.6 3.1-5.3 4.4-19.2 5-18.4.8-18.3 1-8.6-21.6 5.7-13.4 7.8-15.3 12-10.9z"/><path d="M86.5 119.6c-9.4 1.4-19.9 4-26.8 6.5-9 3.2-31.3 14.8-35.7 18.5-4.8 4.1-4.6 6.4 6.4 63.4 4.9 25.7 7.8 44 9.8 62.5 1.8 16.2 1.7 67-.1 84.3-1.2 12-1.2 13.5.2 14.9 1.4 1.5 1.8 1.5 4 0 4.6-3 20.6-28.3 36.5-57.7 7.7-14.2 9.4-16.5 11.6-15.7 2.1.8 2.1 6.7 0 28.3-1.8 19.4-1.6 25.7.8 26.2 2.3.4 5.2-4.1 22.8-35.8 16.9-30.4 19.2-34 22-34 2.3 0 3.5 3.8 5 16.4 2.1 17.3 3.9 17.1 16.3-2 7.3-11.1 8.9-12.9 11.2-12 3.4 1.3.9 21.6-4.7 37.4-4 11.5-6.3 15.9-15.8 30.2-15.5 23.5-27.1 48.1-37.5 79.5-7 21-10.1 33.4-9.2 35.9.4.9 1.4 1.6 2.4 1.6s8.5-7 16.6-15.5c16.6-17.3 19.4-18.9 18.4-10.8-.3 2.7-2.6 11.5-5.2 19.8-5.5 18-6.3 22.4-4.5 23.5 2.3 1.4 6.2-1.4 14.6-10.3 15-15.8 23.6-28.7 34.7-51.7 6.7-14 9.1-18 10.8-18 1.9 0 3 8.6 4.9 38 2.1 31.8 3 38 5.6 38 2 0 3.8-3.2 12.6-22.7 4.3-9.8 8.5-18.4 9.3-19.2 3.3-3.4 5.8-.7 17.7 19.2 12.2 20.1 14.7 23.3 17.3 22.4 1.2-.5 1.5-2.6 1.5-11.4 0-15.3 1.8-32.1 3.8-36.3 2.6-5.3 4.4-4.9 10.2 2.4 13.4 16.6 36.2 28.8 56.6 30.3 7.4.5 8.3.4 10.2-1.5 2.6-2.6 2.4-3.4-4.7-13.7-10.6-15.5-19.8-37.5-24.5-58.8-11.8-52.4.8-99.8 32.8-123.4 9.7-7.1 12.6-5.8 12.6 5.7 0 9.5-2.9 21.8-8 33.7-4.9 11.3-5 13.3-1.2 13.3 5.3 0 15.2-7 28-19.8 10.1-10 12.6-12.1 13.8-11.1 1.9 1.6 1.8 4.8-1.6 44.4-3.4 38.2-3.5 44.8-.8 45.3 5.2 1 27.1-44.5 36.8-76.3 3.8-12.5 4.4-13.6 6.5-11.4 3.7 3.6 4.9 16.6 4.9 52.1.1 23.9.4 34 1.2 34.8 2 2 5-.5 11.4-9.1 21.7-29.2 31.5-61.3 36-116.9.5-6.9 1.5-28.1 2.2-47.2 1.1-31.7 1.1-35-.4-38.2-3.3-6.9-33.9-24.4-55.7-32-23.5-8.2-52.8-13.6-59.6-11-.8.4-3.7 3.6-6.3 7.3-2.5 3.6-8.9 11.1-14.2 16.6l-9.5 10-4.4 12.3-4.4 12.3.7 14.9c.7 14.2.6 15-1.3 16.9-1.6 1.6-3.4 2.1-7.6 2.1-7 0-8.3-1.8-9.5-13.2-1-9.6-1.6-11.5-4.1-12.8-4.1-2.2-14-.8-16.1 2.4-.4.6-.8 6.3-.8 12.7 0 13.8-.8 15.2-9 15.3-7.1.1-8-1.1-9.5-14-1.7-13.2-3-14.9-10.9-14.1-8 .7-8.9 2.6-8.1 16.3l.7 11.1-2.7 2.1c-3 2.4-9.2 2.9-12.5 1.2-2.4-1.3-3.6-6.1-4.5-17.5-.9-11.4-2-14-10.3-23.9-8.4-9.9-12.1-13.1-23.7-20.6-11.1-7.1-20.9-16.8-28.1-27.7-3.1-4.7-6.7-8.9-8.3-9.8-5.2-2.7-26.3-4.7-52.1-5-13.5-.2-25.8-.1-27.5.1z"/></g></svg>