<svg version="1.0" xmlns="http://www.w3.org/2000/svg" width="682.667" height="682.667" viewBox="0 0 512 512"><path d="M248 17c-2 2-2 3.4-2.1 66.7 0 47.5-.3 65.7-1.2 68.3-1 2.9-2.5 4.2-8.7 7.5-18 9.6-30.9 27.7-36.7 51.1-1.9 7.8-2.4 30.8-.9 43.6.7 6.8.6 7.8-.7 7.8-2.6 0-6.4-4.9-11.2-14.2-16.8-32.3-19.7-77.7-7.4-115.8 1.2-3.6 5-12.4 8.5-19.6 5.9-11.9 6.4-13.4 5.3-15.8-1.5-3.2-6.7-6.6-10.2-6.6-3.6 0-7.7 5.4-14.2 18.5-13.3 27.3-18.8 59.1-15.5 90.3 2.7 25.6 10.2 47.8 23.4 69.7 4.1 6.9 4.7 10.5 1.6 10.5-6.4 0-27.6-14.6-41.5-28.5-23.1-23.2-36.5-51.1-40-83.7-.9-8-2.9-10.2-9.3-10.2-9.6 0-11 4.5-7.6 24.5 7 41.8 33.6 80.7 71.9 105.4 5 3.2 10 6.7 11.3 7.8 4.4 4 3.2 5.1-14.1 13.5-18.5 9.1-33.2 18.6-46.2 30-23.5 20.5-39.9 47.8-45.1 75C54.3 429 56 434 64.5 434c6.8 0 8.9-2.6 10.4-12.5 5.9-39.9 34.9-74.3 81.3-96.5 11.4-5.5 17-6.6 17.6-3.7.2 1-2.5 6-6.2 11.5-10.6 15.8-17.2 31.9-20.2 49.7-2.5 14.1-1.5 39.8 2 53 3.3 12.2 8 23.2 14.3 33.7C170.4 480.3 174 484 178 484s10-5.6 10-9.3c0-1.3-2.3-5.9-5.1-10.2-20-30.3-23.9-66.6-10.9-100.4 5.8-14.9 8.7-16.2 16.8-7.5 6.2 6.6 14.2 10.6 22.2 11.1 12.2.8 13 1.9 9.4 12.4-4.9 14.2-2 30.2 7 39.2 6.1 6.1 9.6 4.6 9.6-4 0-13.2 5.2-28.1 11.6-32.9 11.1-8.5 22.1 5.2 24.2 30 .8 10.2 2.1 12 6.8 9.6 3.5-1.9 9.1-10.4 11-16.5 2-7 1.8-16.5-.7-23.8-2.3-6.9-2.7-10.3-1.1-11.9.5-.5 4.4-1.4 8.6-1.8 10.3-1.2 15.8-3.9 23.8-11.6 5.8-5.6 7-6.4 8.7-5.4 2.9 1.5 4.8 4.6 8.1 13.3 12.7 32.8 9 69-10.1 98.8-3.2 5.1-5.9 10.3-5.9 11.7 0 3.6 6 9.2 10 9.2 3.8 0 7.2-3.4 13.7-13.8C358 450.6 364 428.8 364 404c0-27.3-7.5-50.9-23.2-73.6-8.6-12.3-4.8-13.9 13-5.4 20.6 9.8 35.6 20.4 49.8 35.1 18.7 19.5 28.3 38.8 31.9 64.3.4 3.2 1.5 5.7 3.2 7.3 2.1 2.2 3.1 2.5 7.5 2.1 7.2-.7 8.1-2.3 7.4-12.3-2-29.2-21.1-62.8-48.8-86.1-13-10.9-24.7-18.3-43.5-27.5-17.3-8.5-18.5-9.6-14-13.6 1.2-1.1 6-4.5 10.7-7.5 42.5-27.4 70.5-72 73.7-117.6.5-6.9.3-8.5-1.1-10.1-3.4-3.8-12.6-3.6-15.1.3-.7 1.1-2.1 7.2-2.9 13.4-3.9 26.4-13.7 48.3-31.2 69.3-16 19.2-48.3 41.7-51.8 36-.4-.5 1-3.8 2.9-7.3 6.6-11.9 14.3-28.3 16.8-35.9 13.6-41.4 10.5-89.1-8.3-127.4-6-12.2-10.2-17.5-13.7-17.5-3.7 0-8.9 3.5-10.3 7-1.1 2.7-.8 3.6 3.8 12.2 16.1 30 21.7 69 14.7 103.3-4.6 22.7-17.2 49.5-23.2 49.5-1.3 0-1.4-1.1-.7-8.3.5-4.5.8-14.5.8-22.2-.2-17.3-2.9-28.8-10.1-42.7-6.1-12-17.3-23.6-27.9-29.1-3.9-2-7.8-4.4-8.5-5.3-1.2-1.4-1.5-13.7-1.9-69.1-.5-65.3-.6-67.5-2.4-68.9-3-2.2-11.2-1.8-13.6.6zm14.5 282c10.2 6.3 7.7 22-3.8 25.1-7.1 1.9-14.9-2.6-17.2-9.9-1.6-5.4 2.6-14.1 7.9-16.2 3.8-1.5 9.8-1.1 13.1 1zm-42.8 23.9c4.9 2.3 7.3 6.2 7.3 12.3 0 5.5-3 10.5-7.5 12.4-9.9 4.1-19.5-2-19.5-12.4 0-5.8 2.6-10.1 7.5-12.3 5-2.3 7-2.3 12.2 0zm81.6-.5c5.2 2.2 7.9 5.9 8.5 11.5 1.7 17.8-24.2 20.8-27.3 3.1-1.2-7.1 6.2-16 13.3-16 1.2 0 3.7.6 5.5 1.4zM261.8 347c1.8 1.1 4.1 3.4 5.2 5.2 7.3 11.9-7.5 26.3-19.1 18.5-9.3-6.2-8.7-18.9 1.2-23.9 4.5-2.3 8.6-2.3 12.7.2z" fill="#f2f2f2"/></svg>