<svg xmlns="http://www.w3.org/2000/svg" viewBox="0 0 512 512" height="682.667" width="682.667" version="1.0"><g fill="#f2f2f2"><path d="M397.571 93.983c-4.688 1.103-8.55 3.125-13.422 7.079-5.975 4.872-7.446 7.814-7.446 15.352 0 9.47-1.471 17.1-5.608 29.235-3.77 10.848-3.953 13.698-1.011 14.893 3.125 1.195 24.821 2.482 36.956 2.114 11.308-.367 12.963-.643 18.203-2.941 12.779-5.884 25.19-24.455 29.143-43.485 1.655-8.09 1.103-12.502-2.023-14.893-2.758-2.206-14.8-5.056-29.05-6.987-11.86-1.47-20.318-1.654-25.742-.367zm28.316 10.112c2.022 2.023 1.103 3.678-3.953 6.711-2.39 1.471-7.171 4.505-10.573 6.803-3.493 2.207-7.354 4.045-8.55 4.045-3.033 0-5.7-2.482-6.894-6.71-2.758-9.194 2.941-12.78 19.581-12.503 6.711.183 9.285.551 10.389 1.654zm-165.663-1.011c-3.953 1.563-5.332 7.722-2.298 10.388.92.828 4.32 2.483 7.538 3.77 3.31 1.195 8.366 3.401 11.308 4.688 7.446 3.402 8.642 2.758 12.41-6.987 3.402-8.917 3.586-10.48 1.196-11.859-2.206-1.103-27.304-1.103-30.154 0zm-28.039 5.24c.643.276 1.47.184 1.746-.092.368-.276-.184-.551-1.195-.46-1.011 0-1.287.276-.551.552zm82.463 3.494c-4.872 1.746-8.274 5.7-10.02 11.583-1.84 5.976-1.84 9.929-.184 16.272 2.574 9.653 5.975 11.768 10.02 6.344 4.137-5.424 14.434-27.58 14.434-30.982 0-4.412-6.62-5.883-14.25-3.217z"/><path d="M348.939 113.84c-.827.92-3.034 5.332-4.872 9.929-8.182 19.95-22.8 46.15-36.13 64.904C252.317 267 160.845 320.69 66.982 330.158c-5.24.46-17.008.919-26.201.919-13.606 0-17.1.276-18.754 1.47-4.23 2.943-1.38 10.39 5.791 14.986 10.113 6.435 29.235 6.343 62.055-.368 31.625-6.435 50.103-11.675 74.465-21.144 48.54-18.847 82.556-42.841 124.11-87.336 25.74-27.488 43.024-51.023 56.906-77.224 13.881-26.292 17.835-40.542 12.87-46.793-2.298-2.85-7.079-3.31-9.285-.828zm-156.285 14.25c-4.689 1.654-2.575 4.964 7.814 12.135 6.527 4.505 8.458 4.045 13.514-2.574 3.861-5.057 4.78-9.102 2.206-10.113-2.298-.92-20.776-.46-23.534.552z"/><path d="M241.01 134.157c-5.975 3.953-13.146 11.124-15.445 15.629-3.217 6.16-2.39 8.09 8.918 21.512 13.054 15.353 13.33 15.353 18.11 4.229 4.781-11.032 10.481-17.743 21.42-25.282 5.333-3.677 5.7-6.435 1.38-9.744-6.803-5.149-19.122-9.837-25.557-9.837-2.39 0-5.057 1.103-8.826 3.493zm-85.405 5.148c-1.195 1.747-1.747 5.149-2.115 12.411-.367 9.286-.276 10.113 1.471 11.86 1.38 1.379 2.482 1.746 3.586 1.287 1.47-.644 15.812-7.447 22.34-10.664 3.309-1.563 3.309-3.862.183-6.803-3.77-3.586-15.537-9.378-20.133-10.021-3.31-.46-3.953-.184-5.332 1.93zM129.68 154.75c-3.402 3.586-12.043 16.824-15.077 23.075-1.93 4.045-2.023 4.413-.644 5.884 1.38 1.379 2.115 1.379 9.653-.184 10.756-2.114 13.055-3.034 13.698-5.608.644-2.482-.92-23.626-1.839-25.097-1.103-1.747-2.85-1.104-5.791 1.93zm156.193 8.458c-11.86 2.942-18.386 10.756-19.214 23.259-.919 12.227 2.299 20.317 6.987 17.743 4.321-2.206 28.591-35.026 28.591-38.52 0-.827-.46-2.022-1.103-2.666-1.379-1.379-9.01-1.287-15.26.184zm-92.576 6.987c-16.456 1.563-29.326 9.377-34.199 20.869-1.747 4.228-1.103 14.157 2.023 29.142 4.229 20.685 6.619 22.248 15.169 9.745 4.228-6.251 15.536-17.1 21.42-20.5 6.435-3.862 14.893-6.712 23.167-8 4.045-.643 8.09-1.562 9.01-2.022 3.033-1.562 1.746-5.056-5.609-14.25-7.814-9.744-12.043-13.881-15.168-14.433-4.689-.919-9.745-1.103-15.813-.551zM81.69 189.041c-5.607 5.332-7.446 9.101-5.331 11.308 2.666 2.574 6.16.46 9.101-5.332 5.424-10.848 3.953-13.147-3.77-5.976zm45.14 10.113c-14.342 3.217-32.085 15.536-35.027 24.362-1.746 5.332-3.769 19.122-4.32 30.797-.552 10.113-.46 11.216 1.195 13.238 2.114 2.575 2.574 2.39 11.675-4.872 12.32-9.837 24.454-14.341 38.796-14.341 5.7 0 7.998-.368 9.01-1.471 1.93-1.839 1.93-1.287-1.288-14.066-1.563-5.976-3.401-15.353-4.137-20.869-1.93-13.698-4.045-15.444-15.904-12.778zm91.565 19.397c-12.32 2.942-23.903 11.86-30.982 23.719-4.137 6.895-9.285 22.156-9.56 28.131-.368 8.458 2.39 8.274 17.742-.919 13.515-7.998 28.132-18.295 39.9-27.947 13.513-11.124 17.283-14.985 16.915-17.376-.736-5.516-20.777-8.825-34.015-5.608zm-157.481.736c-1.563.643-4.045 2.666-5.7 4.505-5.975 6.803-19.581 33.647-19.581 38.611 0 3.218 1.47 4.045 8.733 5.24 5.884.92 10.848 3.126 20.317 8.734 5.057 3.034 5.516 1.747 6.16-16.824.276-8.917 1.195-20.868 2.114-26.568 1.471-9.653 1.471-10.389 0-12.595-1.195-1.93-2.206-2.39-5.424-2.39-2.114.092-5.148.643-6.619 1.287zm260.446 9.009c-11.125 12.87-15.63 18.57-16.457 20.869-.643 1.655-.551 4.689.46 10.204 2.85 15.17 1.195 28.224-5.056 40.543-1.563 3.217-7.723 13.054-13.698 21.972-16.548 24.821-19.95 31.808-22.524 46.701-1.746 9.653-1.93 28.5-.46 34.2 1.38 5.148 4.138 8.273 7.447 8.273 7.539 0 40.634-28.131 57.182-48.816 21.88-27.028 36.406-58.285 36.497-78.235 0-12.962-12.41-37.324-28.774-56.262-6.16-7.08-8.09-6.987-14.618.551zm-195.358 37.877c-13.33 4.32-29.05 20.5-33.923 34.934-2.114 6.067-.919 7.355 6.528 6.711 7.814-.644 31.808-7.814 48.908-14.617 13.698-5.424 18.662-8.366 18.662-10.94 0-2.299-9.929-10.756-16.088-13.698-7.355-3.494-17.651-4.505-24.087-2.39zm-92.024 19.581c-6.435 3.126-12.135 13.422-12.135 21.88 0 6.803 1.195 7.079 22.431 6.711 15.997-.276 18.02-.46 19.766-2.022 2.574-2.299 2.482-4.23-.736-10.48-7.262-14.342-19.397-21.053-29.326-16.089zm86.232 71.616c-4.78 1.195-9.744 3.033-11.031 3.953-4.873 3.493-17.467 28.223-20.225 39.53-1.563 6.712-.736 18.387 2.206 29.879 4.505 17.467 7.17 18.846 18.295 9.285 12.686-10.848 21.328-22.891 26.2-36.59 2.115-5.883 2.39-8.09 2.39-19.948.093-18.663-1.93-26.477-7.262-27.948-1.011-.184-5.792.552-10.572 1.839z"/></g></svg>