<svg xmlns="http://www.w3.org/2000/svg" viewBox="0 0 512 512" height="682.667" width="682.667" version="1.0"><path d="M426.369 77.952c-3.737 2-83.607 53.71-130.017 84.216-10.342 6.779-11.994 8.952-9.647 12.341.695.956 6.518 5.736 12.95 10.516 6.43 4.867 12.862 9.908 14.253 11.298 3.563 3.303 6.344 4.607 8.604 3.998 1.825-.434 97.165-105.421 106.29-116.98 3.477-4.432 4.78-7.822 2.955-7.822-.434 0-2.868 1.13-5.388 2.433z" fill="#f2f2f2"/><path d="M255.256 122.249c-23.288 7.992-37.695 20.623-41.642 36.806-1.184 4.736-1.381 4.835-21.215 15.985-47.069 26.446-88.414 57.529-136.173 102.23C22.676 308.746 2.743 328.382.77 332.132l-2.27 4.046v172.486l2.467 2.368 2.368 2.467h77.066c65.916 0 77.461-.197 79.83-1.48 3.354-1.678 7.005-9.67 12.433-27.63 4.144-13.715 5.328-24.274 3.453-32.168-.69-2.96-3.848-12.137-7.006-20.327-14.11-36.905-11.545-50.621 14.703-78.25 5.329-5.724 10.065-11.348 10.46-12.532.493-1.48-.888-5.033-4.835-12.828-8.388-15.986-8.29-21.906.197-23.485 6.02-1.086 8.289.69 12.828 9.67 2.17 4.44 6.611 11.644 9.867 15.986 3.158 4.341 10.164 14.11 15.591 21.708 16.578 23.584 28.123 33.057 45.885 37.695 6.611 1.677 24.274 2.27 39.668 1.282 9.176-.592 9.571-.296 16.281 11.644 10.855 19.34 23.485 27.728 37.694 24.768 9.276-1.875 18.453-7.302 27.334-16.183 9.867-9.769 14.21-17.762 14.21-26.05 0-6.612-.494-7.401-11.447-19.144-19.637-21.018-38.583-53.087-63.548-108.247-15.393-33.846-16.972-36.61-24.965-45.096-3.947-4.144-14.703-13.222-24.077-20.228-9.374-7.006-17.86-13.913-18.748-15.295-1.283-1.875-1.875-5.23-2.171-11.644-.395-10.46.987-19.34 4.934-30.984 3.256-9.473 3.552-13.42 1.282-14.308-2.96-1.184-7.894-.494-14.998 1.875zm36.115 130.055c3.552 3.552 3.651 3.947 3.651 10.558 0 6.612-.099 7.006-3.75 10.559-3.552 3.65-3.947 3.75-10.558 3.75s-7.006-.1-10.558-3.75c-3.651-3.553-3.75-3.947-3.75-10.559 0-6.216.296-7.006 2.96-9.867 4.046-4.243 5.92-4.934 12.63-4.638 5.132.296 6.119.69 9.375 3.947zM117.898 147.51c-20.623 1.677-58.219 7.993-64.435 10.854-3.355 1.48-3.158 3.849.493 5.625 1.48.69 13.617 4.045 27.136 7.598 13.42 3.453 31.28 8.387 39.668 10.854 10.065 2.96 15.985 4.243 17.762 3.75 1.381-.296 8.387-4.243 15.393-8.684 7.105-4.44 17.071-10.558 22.202-13.617 5.23-2.96 10.263-6.414 11.25-7.5 1.775-1.973 1.775-2.17.197-3.946-4.342-4.836-40.063-7.302-69.666-4.934zm-64.139 41.839c-16.775 3.552-36.116 8.88-38.977 10.755-5.822 3.75-2.566 5.033 27.136 10.756 12.729 2.467 29.01 5.723 36.115 7.203 15.295 3.257 14.999 3.355 27.136-6.315 9.473-7.598 10.46-10.164 5.329-13.223-3.06-1.776-40.458-11.742-43.615-11.545-.987 0-6.908 1.086-13.124 2.369zm-40.458 40.259c-4.637 1.185-9.67 2.96-11.15 3.849-4.638 3.157-4.835 14.11-.197 17.17 1.282.789 6.414 2.17 11.545 2.96 5.032.79 14.012 2.368 19.932 3.453 6.02 1.086 12.236 1.777 14.012 1.382 2.073-.296 6.316-3.355 12.138-8.486 15.788-13.914 15.492-14.604-10.756-19.637-18.058-3.453-24.274-3.65-35.524-.69zM.079 272.927c-1.086 1.58-1.579 4.54-1.579 9.77 0 9.472 1.974 12.729 7.795 12.729 4.44 0 9.177-3.158 16.183-10.658 7.401-7.992 6.316-10.262-5.723-12.531-10.953-2.171-14.9-1.974-16.676.69z" fill="#f2f2f2"/></svg>