<svg version="1.0" xmlns="http://www.w3.org/2000/svg" width="682.667" height="682.667" viewBox="0 0 512 512"><g fill="#f2f2f2"><path d="M228.7 15.5C160.5 26.6 117.8 73 94.5 161.4 84.5 199.5 78.9 237 70 326c-2.2 22.3-4.7 45.9-5.5 52.5-.8 6.6-1.5 14.3-1.5 17.2 0 4.5.3 5.3 1.9 5.3 3.6 0 16.4-20.1 18-28.3.6-2.9 3.1-25.2 5.6-49.7 8.7-85.6 13.2-116 22.7-153.5 12.2-48.1 29-81 53-104.1C188.3 42.2 216.5 32 256 32c39.6 0 67.5 10.1 91.9 33.4 23.8 22.8 40.7 56 52.9 104.1C410.3 207 415.2 240 424 328c2.2 22.3 4.5 42.6 5.1 45.3 1.1 4.5 8.1 17.4 13.4 24.3 1.4 1.9 3.5 3.4 4.6 3.4 1.6 0 1.9-.7 1.9-4.9 0-2.7-.9-12.5-2-21.8-1.1-9.2-3.3-30.5-5-47.3-7.6-76.7-11.5-106.4-18.6-140.5C402.3 85.1 360.9 31.9 291.5 17c-13.1-2.9-49.2-3.7-62.8-1.5z"/><path d="M321.6 79.2c-1.1 1.5-1.6 4.4-1.6 8.6 0 11.5-2.9 12.7-14.1 6.1-10.4-6.2-12.4-5-15 9.1-1.7 9.2-3.3 12-6.9 12-1.6 0-7.9-2.5-14.1-5.5-6.2-3-12.4-5.5-13.9-5.5s-7.7 2.5-13.9 5.5-12.5 5.5-14.1 5.5c-3.6 0-5.2-2.8-6.9-12-2.7-14.6-4.6-15.6-16.8-8.1-5.8 3.6-9.8 4-11.3 1.2-.5-1.1-1-4.7-1-8.1 0-6.8-1.2-10-3.8-10-2.4.1-4 1.4-12.6 11.3-12.3 14.1-14.7 18.7-9.7 18.7 2.1 0 4.1 1.9 4.1 4 0 .9-1.2 4.5-2.6 8-3.9 9.7-2.1 11 8.6 6.5 6.7-2.8 9.8-3.1 10.6-1.2.3.8-.9 4.9-2.6 9.2-1.7 4.3-2.9 8.4-2.6 9.2.9 2.1 4.3 1.5 12.6-2.2 4.3-1.9 8.5-3.5 9.3-3.5 3.2 0 4.7 4.1 4.7 12.5 0 8.5 1.5 12.5 4.8 12.5.9 0 6.5-2.3 12.5-5.2 14.3-6.7 14.3-6.7 22.1 7.4 3.3 5.9 6.5 10.9 7.3 11.2 2.6 1 4.1-.7 10-11.2 7.7-14.1 7.8-14.1 22-7.4 6 2.9 11.6 5.2 12.5 5.2 3.3 0 4.8-4 4.8-12.5 0-8.4 1.5-12.5 4.7-12.5.8 0 5 1.6 9.3 3.5 8.3 3.7 11.7 4.3 12.6 2.2.3-.8-.9-4.9-2.6-9.2-1.7-4.3-2.9-8.4-2.6-9.2.8-1.9 3.9-1.6 10.6 1.2 10.8 4.5 12.5 3.2 8.6-6.7-3.5-8.7-3.4-10.7.4-11.5 1.7-.3 3.3-1 3.6-1.5 1.3-2-16.6-24.2-22.7-28.1-2.7-1.8-2.8-1.7-4.3.5zM156.9 243.9c-2 1.6-2.1 2.1-1 3.5 1.8 2.2 4.9 2 9.1-.5 3.2-2 3.3-2.2 1.5-3.5-2.6-2-6.9-1.7-9.6.5zm51.4-1.2c-2 .8-1.5 3.8 1 6 1.2 1.1 7.8 5.8 14.7 10.3 14.3 9.4 18 12.6 18 15.3 0 4.1-5.1 10.7-8.4 10.7-1.2 0-4.6-1.3-7.6-3-3-1.6-6.2-2.9-7.1-3-.9 0-3.5 1.4-5.9 3.1-2.4 1.7-5.8 3.7-7.6 4.5-4.7 2-14.1 1.7-18.9-.5-5.3-2.4-10.2-8.1-11.1-12.8-1.2-6.5-2.1-7.6-6.2-7-6.3.8-11.1 3.4-12.3 6.4-2.5 6.6 5.5 43.1 14.8 67.3 15.1 39.6 41.5 72.9 68.3 86.2 7.7 3.9 9.2 4.3 16.1 4.3 6.9 0 8.3-.4 16-4.2 28.4-14.1 56.2-50.9 70.9-93.8 8-23.2 14.2-54.2 12.1-59.8-1.2-3-6-5.6-12.3-6.4-4.1-.6-5 .5-6.2 7-.9 5-6.5 11.1-12.1 13.3-3 1.1-6.4 1.5-10.8 1.2-6.2-.4-6.9-.6-18.3-7.8-2.2-1.4-2.8-1.2-8.7 1.8-3.5 1.7-7.3 3.2-8.4 3.2-3.2 0-8.3-6.6-8.3-10.7 0-2.7 3.7-5.9 18-15.3 6.9-4.5 13.5-9.2 14.8-10.3 2.6-2.4 2.9-5.2.6-6.1-1.9-.7-93.3-.7-95.1.1zm70.6 87.7c1.8 2.1-2.1 6.1-9.7 9.8-9.4 4.6-17 4.6-26.4 0-3.7-1.8-7.7-4.5-8.8-6-3.7-4.7-1.5-5.2 22.6-5.2 16.6 0 21.4.3 22.3 1.4zm3.3 35c10.4 3.3 11.7 4.1 12.8 6.7 2.1 4.9.6 9.6-4.3 14.2-3.2 3-4.9 5.8-6.2 9.7-3.5 11.1-6.4 11.1-12 0-4.6-9.2-6-10-16.5-10s-11.9.8-16.5 10c-5.6 11.1-8.5 11.1-12 0-1.3-3.9-3-6.7-6.2-9.7-4.9-4.6-6.4-9.3-4.3-14.2 1.1-2.6 2.4-3.3 12.3-6.5 15.2-4.7 13.6-4.5 28.2-4.3 12 .2 13.9.5 24.7 4.1zm63.3-122c-1.8 1.3-1.7 1.5 1.5 3.5 4.2 2.5 7.3 2.7 9.1.5 1.1-1.4 1-1.9-1-3.5-2.7-2.2-7-2.5-9.6-.5z"/><path d="M190.2 263.2c-1.5 1.5-1.6 6.9-.1 10.1 2.3 5.1 8.4 5.5 10.9.7 1.7-3.2 1.1-6-1.9-9.1-3.1-3-6.8-3.8-8.9-1.7zm122.7 1.7c-3 3.1-3.6 5.9-1.9 9.1 3.8 7.1 12 2.7 12-6.3 0-6.3-5.2-7.7-10.1-2.8zM111 364.7c-1.2 1.6-7.2 11.4-13.5 21.9-16.1 27.2-30.9 49.2-48.1 71.1-4.7 6.1-7.4 10.4-7.4 12 0 2.5.1 2.5 5.7 2 3.2-.2 11-1.4 17.3-2.5 18.5-3.3 36.5-4.5 58.5-3.9 35.2 1 63.3 7.1 94.1 20.5 11.9 5.1 14.3 5.7 15.1 3.6.8-2.2-1.5-6-10.5-17.2-16.9-21.1-52-58.9-86.4-93-19-18.8-20.7-19.7-24.8-14.5zm252 28c-31.2 31.6-51.8 53.7-69.2 74.6-11.9 14.2-15.1 19-14.6 21.4.6 2.6 3.5 2 18.3-4.1 32-13.2 56-18.3 91-19.3 22-.6 40 .6 58.5 3.9 6.3 1.1 14.1 2.3 17.3 2.5 5.5.5 5.7.5 5.7-1.9 0-1.7-3.2-6.7-9.2-14.4-16.8-21.6-36.8-51.6-51-76.4-3.9-6.9-8-13.5-9.1-14.8-4.4-4.9-5.1-4.4-37.7 28.5z"/></g></svg>