<svg version="1.0" xmlns="http://www.w3.org/2000/svg" width="682.667" height="682.667" viewBox="0 0 512 512"><g fill="#f2f2f2"><path d="M214.2 29.8c-5 5-11.1 18.9-13.8 31.6-2.1 9.4-2 29.5.1 41.1 3.5 19.6 14.4 45.5 27.1 64.6 11.3 16.9 15.7 20.9 23.2 20.9 9.5 0 17.2-8.3 17.2-18.6 0-4.2-1.1-6.6-9-19.9-26.7-45.2-35.7-71-38.8-111.5-.6-7.7-1-9.5-2.4-9.8-.9-.2-2.6.6-3.6 1.6zm142.4 3.3c-.3 1.7-.6 7.3-.6 12.3 0 17.2-4.4 38.6-12.5 61-2.5 6.8-4.5 13.6-4.5 15.2 0 2.3 1.8 4.6 9.8 12.1 5.3 5 10.5 9.4 11.6 9.7 3.3.9 6.3-3.6 9.9-15 5.8-17.8 7.2-26.7 7.1-45.4-.1-13.7-.4-17.9-2.3-24.5-5.4-19.8-16.5-35.1-18.5-25.4z"/><path d="M289.4 122.1c-5.1.9-13.2 5-15.8 7.8-2.5 2.8-1.7 6.3 3.3 14.4 9 14.8 10.8 21.1 9 31.1-2.9 16-16.3 29.2-31.5 31.2-9.5 1.2-23.5-4.8-29.2-12.6-3.1-4.1-6.7-6.3-9.2-5.5-2.1.7-9.1 10.4-14.9 20.6-3.9 6.9-4.1 10.6-.6 11.9 1.8.7 28.1-1.1 88.3-6 47.1-3.8 87.5-7.3 89.6-7.7 5.4-1.1 6.6-3.3 4.2-7.8-3.3-6.1-20.6-26.5-34.6-40.9-27.6-28.3-45-39.1-58.6-36.5zM335.5 229c-24.7 2.1-67.4 5.7-94.7 7.9-27.3 2.3-50.8 4.5-52.1 5-5.8 2.2-7.9 11.1-3.2 13.3 1.9.9 23.4-.6 99.7-6.6 123.6-9.8 116.9-9.1 119-11.6 2.1-2.6.8-7.1-2.9-10-3.6-2.8-11.2-2.5-65.8 2zm-109.2 41.5c-35.8 3.3-45.7 4.6-47.8 5.9-1.4.9-5.6 6.3-9.2 11.9-26.7 41.4-54.3 66.4-94.5 85.6-5.4 2.5-8.9 4.9-9.7 6.5-1.9 3.5-.7 13.8 2.2 19.6 3.3 6.7 5 7 22.6 3.2 16.2-3.5 22.1-4 22.1-1.8 0 1.7-7.5 8.6-16.7 15.4-4 2.9-7.5 6.2-7.9 7.4-.8 2.5 2.1 6.6 6.6 9.2 4.6 2.7 7.1 1.9 31.8-11.3 11.6-6.2 22.8-11.5 24.8-11.8 3.6-.6 3.6-.6 2.4 1.8-.7 1.3-6.1 6.9-11.9 12.4-20.6 19.5-21.1 20.1-21.1 22.8 0 2.9 3.4 5.7 9 7.6 4.2 1.3 7 .6 15.7-3.8 8-4 10.3-4.1 10.3-.3 0 1.6-.7 5-1.6 7.5-1.5 4.4-1.5 4.9.1 7.3 2 3.1 7.1 5.4 11.8 5.4 4.2 0 10-3.7 33.6-21.3 17.2-12.8 22.3-15.8 23.8-14.4 1.6 1.7-7.5 16.5-21.2 34.2-7.6 9.8-8.8 12-8 14.6.7 2.2 9.3 6.9 12.5 6.9 3.4 0 5.7-1.6 22.6-16.1 36.6-31.4 50.8-39.1 84.8-46.4 19.8-4.3 19.5-3.6 8.7-23-24-42.8-34.5-77.2-36-117.6-.5-15.5-.8-18-2.5-19.8-2.5-2.8-2.6-2.8-57.3 2.4zm161.4 4.4c-7 2.7-13.4 5.4-14.2 6.1-2.3 1.9-1.8 6.4 1.5 13.7 4.8 10.6 4.2 10.3 20 10.3 20.4 0 29-2.4 29-8.1 0-4.1-12.3-23.9-16.1-26-3.2-1.7-7.2-.9-20.2 4zM306 281c-2.2 2.2-2.3 2.8-1.7 14.6.9 19.6 3.5 23.1 22.8 31.5 19 8.3 28.3 9.7 30.6 4.8 1.9-4 3.6-17.3 2.9-22.4-.8-5.3-7.2-18.5-11.6-23.7-3.7-4.5-7.6-5.4-27.2-6.3-13.2-.7-13.7-.6-15.8 1.5zm73.9 36.7c-.5 1.5-.9 4.7-.7 7.2.4 5.5 2.6 6.5 6.4 3 3.2-3 3.2-7.8.1-10.7-3.1-2.9-4.5-2.8-5.8.5zm31.9 12c-2 1.6-10.7 9.3-19.4 17.2-18.4 16.7-29.3 25.9-43.3 36.5-10.3 7.8-12 10.1-10.1 13.6 1.7 3.2 5.6 3.5 15.2 1.2 17-4.2 38.4-13.4 53-22.8 9.1-5.8 21.4-17.7 22.8-22 2.2-6.4-2.1-20-7.6-24.3-3.6-2.8-6.3-2.6-10.6.6zm-94.5 15c-2.1.8-1.5 5.9 1.7 14.1 5.3 13.8 7.9 16.3 13.7 13.6 4.2-2.1 14-10 15.9-13 1.6-2.4 1.6-2.6-.2-4.3-1.5-1.5-28-11.3-29.5-11-.2 0-1 .3-1.6.6zm97.6 47.8c-15.1 8.4-28.4 14.3-43.9 19.5-18.9 6.3-19.2 6.6-14.6 15.9 3 5.7 3.2 8.3 1.1 10.1-.8.6-9.4 2.5-19.2 4.1-9.8 1.7-18.8 3.7-20 4.5-4.4 2.8-3 7.1 6.9 20.6 8.3 11.3 18.3 16.9 32.9 18.4 5.4.5 6.7.4 7.9-1.1 1.2-1.5 1.1-2.5-.8-7.8-2.3-6.6-2.8-9.7-1.3-9.7.5 0 5.5 4.2 11.1 9.2 5.6 5.1 11.4 9.9 12.8 10.7 3.9 2.1 10.8 2 12.9-.1 1.6-1.7 1.6-2.1 0-8.2-1.9-7.3-2.2-14.8-.7-17.7 2-3.6 4.7-2.1 11.8 6.3 10.6 12.6 13.4 15 17.5 15 4.5 0 13.2-4.7 15.9-8.5 4.5-6.3-.7-23.4-10.3-34.3-3.3-3.7-6.1-7.7-6.4-8.8-.2-1.2-.6-9.5-.8-18.6-.3-16.1-1-20.2-4.1-22.2-1.6-1.1-1.8-1.1-8.7 2.7z"/></g></svg>