<svg version="1.0" xmlns="http://www.w3.org/2000/svg" width="682.667" height="682.667" viewBox="0 0 512 512"><path d="M162 35.9c0 3.2 2.5 27.4 5.5 53.7 4.1 35.2 5.3 48.5 4.6 50.1-1.7 3.7-5.4 2.8-19.2-4.8-23.4-12.8-23.7-11.3-5.8 23.7 7.2 14.3 14.1 26.9 15.2 28.1 3.3 3.7 5.7 2.9 13.2-4.8 16.9-17 36.5-27.4 58.7-30.9 10.8-1.8 32.1-.8 42.1 1.9 18.2 4.8 33.1 13.4 46.8 27 38.5 38.3 40.9 98.5 5.5 140.6-5.6 6.6-6 7.9-3.3 11 2.6 2.9 49.8 23.5 53.8 23.5 5.5 0 5.2-1.5-6.5-28.4-9.4-21.6-10.1-25.1-5.6-27.2 1.4-.7 25-3.7 52.5-6.9 58.3-6.6 63.9-7.3 66.1-9 4.2-3 3.1-3.5-55.2-24-25.5-9.1-47.7-17.1-49.4-18-3.7-1.9-3.8-4.4-.2-7.7 1.5-1.4 15.3-10.8 30.7-20.8 28-18.2 33.5-22.3 33.5-24.6 0-2.8-7.9-3.4-42.7-3.4-30.6 0-35.4-.2-36.7-1.6-.9-.8-1.6-1.7-1.6-1.9 0-2 7.7-14.6 44.3-72.7 23.3-37 43.2-68.7 44.1-70.5 1.5-3.1 2.2-7.3 1.1-7.3-2.7 0-14.8 9.4-57.5 44.5-27.2 22.4-51.2 41.8-53.2 43.2-2.9 2-4 2.2-5.6 1.4-2.6-1.4-3-4.3-3.7-26.1-1-31.1-1.7-35-6.3-33.6-1.2.4-13.8 14.8-27.8 31.9-35.4 43-35.8 43.4-38.9 36.4-.8-1.7-4.4-16.3-8.1-32.2C246.2 69.1 244.3 63 242 63c-2.1 0-4.9 6.6-11.5 26.9-3.8 11.5-7.6 21.9-8.6 23.2-3.4 4.5-5.3 2.1-26.8-34.7C169 33.8 166.6 30 164 30c-1.8 0-2 .6-2 5.9zM34.3 146.7c-3.3 1.3-1 4.5 21.2 29.3 8.1 9.1 16.5 17.7 18.6 19.1 3.6 2.5 25 10.6 49.2 18.7 9.6 3.2 10.9 3.4 12.3 2.1 1.3-1.4 1.2-2-1.2-5.4-5.5-8.2-39.5-45.3-42.9-46.9-4.1-2-48.7-16.2-53-16.9-1.6-.3-3.6-.3-4.2 0zm105.7 112c-4.2 1.6-28.9 15.9-31.2 18.1-2.8 2.5-2.8 4.6 0 5.7.9.3 6.8 1.3 13.2 2.1 13.7 1.8 16.2 3.2 13.7 8.1-.9 1.6-12.9 17.1-26.8 34.4C78.8 364.6 75 369.6 75 372.2c0 1.8.4 2 3.3 1.4 1.7-.4 15.8-7.4 31.2-15.6 35-18.6 37.3-19.7 39.1-17.8 1.2 1.2 1.2 2 0 5.4-.7 2.1-12 24.6-25.1 49.9-39 75.4-43.2 84.5-39.7 84.5 2.3 0 13-10.3 48.9-47.2 48.1-49.5 59.6-60.8 61.6-60.8 3 0 3.9 4.2 5.9 24.9 2.1 23.2 2.7 26.5 5.1 26.9 2.5.5 4.9-5.7 14.6-35.9 7.8-24.7 9-30 7.3-32.7-.5-.7-5.3-2.9-10.8-5-12.5-4.7-21.3-9.7-30.6-17.1-19.1-15.1-31.9-37-36.9-62.6-2.2-11.5-3.9-13.7-8.9-11.8zm151.5 88.9c-3.3 1.4-9.8 3.6-14.4 4.9-9.8 2.9-11.4 4-10.9 7.5.4 2.9 54.2 100.9 59.2 108 4.4 6.1 6.2 6 5.8-.5-.3-6.8-25.9-117.4-27.7-120.2-1.9-2.9-4.5-2.9-12 .3zm-42.4 37.7c-1.4 1.8-3.4 10-7.2 30.5l-3.2 17.4 2.3 8.1c1.3 4.5 4.6 14.9 7.2 23.2 6.5 19.8 8.2 22.5 11.2 16.7 2-3.8 9.6-42.6 9.6-48.9 0-3.9-1.7-9.9-6.8-24.1-8.3-23.2-10.2-26.4-13.1-22.9zm139.6 6.4c-1.7 1.7-.2 5.2 6 14.2 12.6 18.3 20.2 28 23.2 29.5 4.2 2.2 36.7 9.8 40.4 9.4 5.7-.5 4.8-3.9-4.9-17.3-14.7-20.4-16.3-22.4-20.2-24.4-4.3-2.2-38.5-12.1-41.7-12.1-1.2 0-2.5.3-2.8.7z" fill="#f2f2f2"/></svg>