<svg xmlns="http://www.w3.org/2000/svg" viewBox="0 0 512 512" height="682.667" width="682.667" version="1.0"><path d="M248.667 26.724c-8.8 6.39-33.209 30.904-42.323 42.427-8.695 11.105-22.419 31.533-30.695 46.095-10.79 18.857-22.313 41.8-22.313 44.418 0 4.714.942 4.505 24.094-4.4 19.695-7.647 39.39-12.571 59.923-14.98 16.447-1.886 20.952.523 7.962 4.4-34.78 10.056-45.257 13.828-61.075 21.475-28.914 13.933-58.247 38.657-56.885 47.77.524 3.772 4.505 3.458 27.552-1.675 47.142-10.581 68.408-13.514 98.474-13.62 27.028 0 45.047 2.2 85.17 10.477 41.59 8.59 40.647 8.38 42.637 6.704 5.762-4.714-9.009-41.38-32.16-80.141-22.524-37.714-20.324-37.085 18.542 5.238 24.932 27.133 50.599 53.009 55.313 55.523 7.543 4.085 8.8-.42 4.4-15.714-12.257-42.009-36.142-82.237-65.685-109.998-29.228-27.552-67.046-46.514-96.693-48.4l-9.429-.523zM147.05 244.205c-2.829 1.048-6.286 5.867-6.286 8.59 0 .943 1.048 2.41 2.305 3.248 1.99 1.467 8.171 1.676 45.885 1.676s43.894-.21 45.885-1.676c1.257-.838 2.304-2.305 2.304-3.247 0-2.62-3.352-7.438-5.97-8.59-3.144-1.467-80.247-1.467-84.123 0zm134.093 0c-2.829 1.048-6.286 5.867-6.286 8.59 0 .943 1.048 2.41 2.305 3.248 1.99 1.467 8.171 1.676 45.885 1.676 37.713 0 43.894-.21 45.884-1.676 1.258-.838 2.305-2.305 2.305-3.247 0-2.62-3.352-7.438-5.971-8.59-3.143-1.467-80.246-1.467-84.122 0zm-225.025 5.343c-7.123 2.305-18.228 6.914-24.618 10.162-17.705 8.904-19.171 12.361-12.048 27.342 7.124 14.771 26.19 29.542 52.485 40.856 10.267 4.4 15.819 5.238 16.762 2.724.314-.838-.734-6.285-2.41-12.047-3.98-13.828-6.18-29.857-6.914-51.332-.733-19.695-1.467-22.105-7.019-22.105-1.78.105-9.114 1.99-16.238 4.4zm378.602-2.095c-1.256 1.676-1.675 4.924-1.675 11.838-.105 21.79-3.248 46.408-7.857 61.075-1.467 4.61-2.305 9.114-1.99 10.057 1.047 2.828 6.599 1.885 17.704-2.829 25.875-11.104 44.523-25.77 51.75-40.856 6.915-14.247 5.344-18.124-10.894-26.61-11-5.761-37.085-14.98-42.428-14.98-1.99 0-3.562.838-4.61 2.305zm-332.926 9.219c-3.457 2.095-4.19 7.438-2.934 22.209 1.886 22.942 6.286 39.075 10.267 38.342 2.724-.524 3.143-4.295 3.247-31.218.105-21.686-.104-26.086-1.571-28.076-1.676-2.41-5.867-3.038-9.01-1.257zm299.299 1.466c-1.467 2.2-1.676 6.286-1.362 29.857.314 29.018.838 31.637 4.819 27.97 5.343-4.713 11.628-45.36 8.59-54.58-1.99-6.075-9.01-7.96-12.047-3.247zm-266.719 20.429c-2.41 1.885-2.514 2.619-2.305 12.885.21 11.838 2.829 31.952 4.714 36.037 2.2 4.715 5.134 4.296 16.553-2.2 19.694-11.209 37.19-17.285 49.865-17.285 7.857 0 11.733-1.571 12.676-4.924.943-4.19-.943-5.028-7.438-3.457-3.666.838-9.01 1.153-14.98.838-15.4-.942-26.295-6.39-32.58-16.237-4.191-6.496-6.705-7.648-16.343-7.648-6.076 0-8.276.42-10.162 1.99zm114.816-1.048c-3.561 1.571-4.609 3.457-9.428 18.019-4.818 14.352-5.552 19.38-3.457 23.256 2.2 4.086 14.562 19.067 17.181 20.638 3.457 2.095 5.867.524 14.247-9.952 8.172-10.162 9.22-11.943 9.22-16.447 0-5.029-9.115-31.638-11.63-33.943-2.304-2.095-12.57-3.142-16.132-1.571zm107.59.419c-1.258.733-3.982 3.771-6.077 6.81-6.39 9.637-17.076 14.77-32.161 15.713-5.867.315-11.314 0-14.98-.838-6.496-1.571-8.382-.733-7.439 3.457.943 3.353 4.82 4.924 12.572 4.924 12.78 0 30.38 6.076 50.075 17.286 5.447 3.142 10.685 5.761 11.628 5.761 3.352 0 5.238-4.085 7.229-15.923 1.152-6.495 2.2-16.971 2.304-23.152.21-10.79.105-11.419-2.304-13.41-1.886-1.57-4.086-1.99-10.476-1.99-4.4.105-9.01.629-10.372 1.362zm-162.064 50.39c-16.343 3.77-32.79 12.78-68.618 37.608-8.38 5.867-22.733 15.19-31.952 20.743-23.361 14.142-23.256 15.923 1.99 17.809 49.762 3.771 115.865-12.885 139.646-35.2 8.38-7.961 8.066-9.742-4.505-25.666-5.552-6.914-11.524-13.409-13.305-14.352-4.4-2.2-15.504-2.723-23.256-.942zm101.617.104c-2.305.838-4.295 1.572-4.4 1.572-.21 0-5.029 5.866-10.79 13.095-8.695 10.895-10.476 13.828-10.476 16.761 0 12.048 34.047 30.171 72.494 38.657 20.218 4.504 37.085 6.18 60.027 6.076 24.304-.105 31.428-1.257 31.428-5.343 0-1.99-2.41-3.876-14.247-11-7.753-4.714-16.972-10.476-20.429-12.78-52.17-35.305-59.503-39.705-75.112-44.943-10.267-3.457-22.629-4.4-28.495-2.095zm-46.095 54.056c-6.39 5.657-4.19 9.324 5.762 9.324 6.286 0 9.429-1.362 9.429-4.086 0-2.514-6.705-8.485-9.429-8.485-1.152 0-3.666 1.466-5.762 3.247zm-64.951 31.428c-6.285 1.677-16.761 3.981-23.256 5.238-6.495 1.258-12.572 2.829-13.62 3.562-1.152.838-1.78 2.62-1.675 4.82.21 5.761 15.295 44.313 18.856 48.294 2.096 2.304 3.877 2.409 7.648.209 5.552-3.352 6.076-2.095 6.495 14.457.314 12.047.733 15.714 2.305 19.066 3.562 7.124 1.466 6.914 73.75 6.914 44.21 0 65.895-.314 68.095-1.152 2.304-.838 4.4-2.933 6.914-7.019 7.019-11.628 8.276-16.866 10.58-41.17.839-9.22 1.782-17.181 2.096-17.81 1.152-1.78 2.724-.943 4.819 2.724 2.619 4.295 5.447 4.714 7.857 1.048 2.724-4.19 8.904-21.371 9.01-25.352.209-5.029-1.468-6.076-13.096-8.172-5.238-.942-15.923-3.352-23.676-5.342l-14.247-3.562-58.666.105h-58.665z" fill="#f2f2f2"/></svg>