<svg version="1.0" xmlns="http://www.w3.org/2000/svg" width="682.667" height="682.667" viewBox="0 0 512 512"><g fill="#f2f2f2"><path d="M49.6 22.5c-4 1.4-5.5 2.8-5.7 5.5-.5 5.7 1.6 10.4 5.1 11.5 3.1 1 12.4-1.3 15-3.7 1.8-1.7 2.1-2.8 1.7-6.5-.6-6-3-8.3-8.1-8.3-2.3.1-5.9.7-8 1.5zm59.4 7.4c-4.3 1.4-10.4 4.8-12.7 7.3-5.8 6.2-8.1 18.4-5.3 28.8 2.8 10.7 11.5 23.5 21.5 32 12.7 10.8 25.1 16 39.6 16.7 11.6.7 18.1-1.1 24.1-6.5 6.2-5.6 8.2-10.4 8.3-19.3 0-12-2.8-13.6-11.3-6.8-3.8 2.9-5.9 4-7.9 3.7-2.4-.3-2.8-.8-3.1-4.1-.3-3 .7-5.6 4.2-12.2 5.3-9.8 5.7-13.1 2-16.9-3.7-3.6-7.3-3.3-17.4 1.4-4.7 2.2-9.4 4-10.5 4-4.6 0-11.1-6.5-10-10 .6-1.9 2.2-2.5 12.1-5 5.3-1.3 7.2-3.3 5.3-5.7-1.7-2-8.6-5.1-15.4-6.9-5.4-1.5-19.4-1.7-23.5-.5zm133.2 14.6c-7.1 3.3-8.2 5.9-5.1 12.2 1.9 3.8 3 4.9 5.2 5.1 3.7.4 12-2.4 14.2-4.8 3.9-4.3-.7-15-6.4-15-1.4 0-5 1.1-7.9 2.5zm60 22.5c-3.9 2.4-5.7 5.9-4.8 9.4.8 3.4 8.7 11.6 11.1 11.6 2.6 0 7.9-3.6 9.4-6.4 1.9-3.5.7-6.8-4.4-12-4.9-5.1-6.5-5.5-11.3-2.6zM32.3 92.6c-2.5 2-3.3 3.3-3.3 5.9 0 2 1.2 5.1 3.3 8.1 3.6 5.6 7.3 6.7 12.6 3.9 6.3-3.2 6.3-9.2.1-16.8-3.9-4.6-7.9-4.9-12.7-1.1zM198 113.7c-.8.3-4 2.9-7.1 5.8-6.1 5.9-12.6 9.5-21.4 12-4.7 1.4-8.5 1.7-18.8 1.3-16.3-.6-16.7-.4-16.7 10.7 0 7.1.2 7.7 3.5 11.3 2 2.3 3.8 5.6 4.4 8.3.6 2.9 2 5.2 3.8 6.6 6.2 4.9 6.5 5.4 5.9 8.1-2.4 9.8-2.2 10.7 3.3 16.5 2.8 3 5.1 6.3 5.1 7.4 0 1.2-1.5 3.2-3.5 4.7-3.4 2.6-3.5 2.9-3.4 8.9.1 3.4-.2 8.2-.6 10.7-.6 4-.2 5.7 4 15.4 8.7 20.4 17.3 36.3 31.5 58.6 17.1 26.7 30.1 60.8 34 89.2.8 5.7.8 8.9 0 12-.7 2.3-8.3 22.2-16.9 44.3-8.7 22-16.1 41.2-16.5 42.7-.4 2-.1 3.3 1.2 4.6 1.7 1.7 4.5 1.9 29.8 2.5 15.3.4 38.3.7 51 .7 21.9 0 23.3-.1 25.8-2.1 2.3-1.8 2.6-2.7 2.6-8.4 0-9.5-3.4-11.9-10.1-7-8.6 6.3-8.8 6.3-18.4 1.5-5.5-2.7-9.5-5.5-11.2-7.6-1.9-2.6-4-3.8-8.2-5-9.5-2.6-10.1-3-10.1-6.7 0-2.1 3.8-11.7 10.1-25.8 15.7-34.9 15.2-33.3 14.5-47.4-.8-17.5-2.3-25-13.6-68-1.1-4.4-1.8-9-1.5-10.3 1.2-4.8 4.5-3.1 34.5 18.2 8.8 6.3 9.8 6.7 13.5 6.2 14.3-2 13.2-2.1 15.4 1.5 1.1 1.8 2.3 5.4 2.6 7.9 1.1 7.9 2.5 9.8 16.1 21.6 7.3 6.3 21.6 20 31.7 30.5 11.8 12.1 19.1 18.9 20.4 18.9 1.1 0 2.9-1 4-2.2 1.9-2.1 42.3-72 47.2-81.5 2.8-5.6 2.7-7.6-.9-10.6-4.6-3.9-9.3-5.1-12.7-3.3-1.5.8-10.4 8.7-19.8 17.6-19.5 18.5-20.7 19.4-23.8 18.6-1.2-.3-6.5-5.2-11.7-10.8-18.8-20.4-33.4-32.9-66.2-56.9-10.6-7.8-20.3-15-21.5-16.1-1.1-1.1-3.6-5.4-5.4-9.6-3.9-9.3-7.4-14.2-9.9-14.2-1 0-3.7 1.6-6.1 3.6-5.9 4.9-9.1 6.4-13.9 6.4-5.6 0-10.5-2.5-12-6-1.1-2.6-.9-3.5 1.4-7.4 3-5.2 3.1-5.9 1-8-1.1-1.2-3.4-1.6-8.7-1.5-6.8.1-7.2 0-9.9-3-2.1-2.3-2.8-4.2-2.8-7.2 0-8.1 4.7-12.9 14.9-15.3 10.7-2.5 11.1-3.9 4.5-14.6-6.6-10.8-8.4-14.5-8.4-17.9 0-2.1.6-3.2 2.1-3.6 4.7-1.5 38 3.3 58 8.4 22.3 5.6 24.9 7.9 24.9 22 0 5.3-.8 11.6-2.2 17.1-2.5 10.2-2.1 12 2.3 12 4.3 0 9.3-5.3 14.6-15.6 6.1-11.8 8.7-21.2 8.7-31.9.1-17-1.5-18.1-41.4-28.3-18.5-4.8-21-5.7-21-7.6 0-1.6 4.2-3 12-4 9.7-1.3 44-3.6 53.1-3.6 8.8 0 9.9.2 13.7 2.8 7.5 5 10.7 10.8 15.1 26.8 1.5 5.7 3.3 7 7.1 5.4 4.1-1.7 10.5-8.9 12.1-13.6 1.9-5.5 1.7-15.9-.5-22.1-2.8-8.3-9.5-16.6-15.8-19.7l-5.3-2.6-72-1c-39.6-.6-76-1.3-81-1.5-4.9-.3-9.7-.2-10.5.2zm222.4 28.5c-8.1 5.5-9.4 10.9-3.9 16.4 3.7 3.7 8 3.2 13.8-1.7 5.8-5 6.4-9.1 2-13.8-4.2-4.5-6.3-4.6-11.9-.9zm-335.2 1.5c-2 .8-4.2 5.9-4.2 9.7 0 4.4 3.2 7 10.6 8.7 5.3 1.2 5.6 1.2 8-1.3 3.4-3.3 4.4-10.1 1.9-12.8-3-3.3-12.5-5.8-16.3-4.3z"/><path d="M394.5 272.1c-2.5 2.3-4.8 5.2-5.1 6.4-1.1 4.6 4.7 11.5 9.6 11.5 2.4 0 10.9-7.5 12.1-10.8 1.1-2.8-1-7.3-4.3-9.6-3.9-2.7-7.4-2-12.3 2.5zm-248.7 25.3c-3.1 1.6-4.9 5.4-4.6 10.1.3 3.6.7 4.2 4.2 5.9 2.2 1.1 6.1 2.1 8.7 2.4 4.5.4 4.9.3 6.9-2.9 3.1-5 2.4-10.8-1.5-13-4.6-2.7-10.9-3.9-13.7-2.5z"/></g></svg>